<svg width="29" height="45" viewBox="0 0 29 45" fill="none" xmlns="http://www.w3.org/2000/svg">
<path d="M21.478 14.3683C21.478 18.3345 18.2321 21.5522 14.2281 21.5522C10.2236 21.5522 6.97825 18.3345 6.97825 14.3683C6.97825 10.4009 10.2241 7.18427 14.2281 7.18427C18.2329 7.18399 21.478 10.4006 21.478 14.3683ZM29 14.3683C29 6.43274 22.5085 0 14.5 0C6.49204 0 0 6.43274 0 14.3683C0 17.8573 1.25628 21.0563 3.34392 23.5447L14.5125 39.5125L25.8445 23.3118C26.2515 22.8071 26.6242 22.2751 26.9605 21.7159L27.0751 21.5531H27.0563C28.2904 19.4384 29 16.9866 29 14.3683Z" fill="#708090"/>
<path d="M21.2208 14.3792C21.2208 18.2485 18.0687 21.3876 14.1804 21.3876C10.2915 21.3876 7.13996 18.2485 7.13996 14.3792C7.13996 10.5089 10.2921 7.37091 14.1804 7.37091C18.0695 7.37064 21.2208 10.5086 21.2208 14.3792ZM28.5256 14.3792C28.5256 6.63775 22.2216 0.362305 14.4444 0.362305C6.66779 0.362305 0.363281 6.63775 0.363281 14.3792C0.363281 17.7829 1.58328 20.9038 3.61061 23.3313L14.4566 38.9087L25.4612 23.1041C25.8564 22.6117 26.2184 22.0928 26.545 21.5473L26.6563 21.3884H26.638C27.8364 19.3254 28.5256 16.9335 28.5256 14.3792Z" fill="#708090"/>
<circle cx="14.5016" cy="14.5001" r="11.9625" fill="#708090"/>
<circle cx="14.4714" cy="14.4699" r="11.2077" fill="url(#paint0_linear_1237_763)"/>
<circle cx="14.502" cy="14.5005" r="10.875" fill="url(#paint1_linear_1237_763)"/>
<path d="M18.7646 9.07715H19.5139V10.6648H18.7646V9.07715Z" fill="#708090"/>
<path d="M13.9609 9.07715H14.7102V10.6648H13.9609V9.07715Z" fill="#708090"/>
<path d="M20.9932 8H11.4253C10.5168 8.0013 9.64584 8.3022 9.00439 8.83706C8.36211 9.37259 8.00078 10.0978 8 10.8543V21.31H8.86784V10.8543C8.86862 9.67868 10.0119 8.72526 11.4237 8.72276H20.9931L20.9932 8Z" fill="#708090"/>
<path d="M20.3974 11.019H13.0763C12.7446 11.0184 12.4754 11.242 12.4746 11.5181V16.5926C12.4754 16.8688 12.7446 17.0917 13.0763 17.0917H20.3974C20.7292 17.0917 20.9991 16.8688 20.9999 16.5926V11.5181C20.9991 11.242 20.7299 11.0184 20.3974 11.019ZM19.7232 13.5524C19.7232 13.7591 19.5226 13.9261 19.2744 13.9261H19.2386V15.5301C19.2386 15.7179 19.0747 15.8784 18.8515 15.9089V16.2352C18.8515 16.3964 18.6939 16.5276 18.5003 16.5276H18.2045C18.1108 16.5283 18.0211 16.4978 17.9548 16.4425C17.8884 16.3879 17.851 16.3132 17.851 16.2352V15.9161H15.623V16.2352C15.623 16.3964 15.4661 16.5276 15.2725 16.5276H14.9744C14.7809 16.5276 14.6232 16.3964 14.6232 16.2352V15.9089C14.4001 15.8784 14.2362 15.7186 14.2362 15.5301V13.9261H14.2002C13.9529 13.9255 13.7523 13.7584 13.7515 13.5524V12.9005C13.7515 12.6939 13.9521 12.5269 14.2002 12.5269H14.2362V12.2448C14.2369 12.0811 14.3641 11.9355 14.5514 11.8854C15.9687 11.4831 17.5061 11.4831 18.9242 11.8854C19.1115 11.9355 19.2387 12.0811 19.2387 12.2448V12.5269H19.2745C19.3939 12.5262 19.5086 12.5658 19.5929 12.636C19.6772 12.7062 19.7241 12.8011 19.7241 12.9005L19.7232 13.5524Z" fill="#708090"/>
<path d="M18.8629 12.0395C17.4854 11.6496 15.9918 11.6496 14.6134 12.0395C14.5073 12.0688 14.4355 12.1513 14.4355 12.2449V15.5301C14.4355 15.6524 14.5541 15.7511 14.7009 15.7518H18.7761C18.9236 15.7518 19.0437 15.653 19.0446 15.5301V12.2449C19.043 12.1513 18.9706 12.0681 18.8629 12.0395ZM16.0823 11.9349H17.395C17.4659 11.9336 17.5346 11.9557 17.5862 11.9973C17.6369 12.0382 17.6657 12.0954 17.6657 12.1545C17.6657 12.2144 17.6369 12.2709 17.5862 12.3125C17.5346 12.3535 17.4659 12.3762 17.395 12.3742H16.0823C16.0104 12.3762 15.9417 12.3535 15.891 12.3125C15.8396 12.2709 15.8107 12.2144 15.8107 12.1545C15.8107 12.0954 15.8396 12.0382 15.891 11.9973C15.9417 11.9557 16.0104 11.9336 16.0823 11.9349ZM15.1497 15.3957C14.9264 15.3957 14.7244 15.2832 14.6392 15.111C14.5534 14.9387 14.601 14.7412 14.7587 14.6093C14.9171 14.4774 15.1551 14.4378 15.3619 14.5092C15.5687 14.5807 15.703 14.7484 15.703 14.9349C15.7022 15.189 15.4548 15.395 15.1497 15.3957ZM16.5614 13.9464C16.5607 13.9906 16.5161 14.027 16.4631 14.0276H14.6525C14.626 14.0276 14.601 14.0192 14.5831 14.0036C14.5644 13.9887 14.5542 13.9678 14.5542 13.9464V12.6082C14.5542 12.5868 14.5644 12.566 14.5823 12.5504C14.601 12.5348 14.626 12.5263 14.6525 12.527H16.4631C16.4888 12.527 16.5139 12.5354 16.5317 12.5504C16.5505 12.566 16.5607 12.5868 16.5607 12.6082L16.5614 13.9464ZM16.7994 13.9464V12.6082C16.7987 12.5868 16.8089 12.566 16.8276 12.5504C16.8455 12.5348 16.8713 12.5263 16.897 12.527H18.7076C18.7333 12.527 18.7583 12.5354 18.777 12.5504C18.795 12.566 18.8052 12.5868 18.8052 12.6082V13.9457C18.8043 13.9906 18.7614 14.027 18.7076 14.0276H16.897C16.8713 14.0276 16.8455 14.0192 16.8276 14.0036C16.8089 13.9887 16.7994 13.9685 16.7994 13.9464ZM18.3268 15.3957C18.1027 15.3957 17.9014 15.2832 17.8155 15.111C17.7297 14.9387 17.7773 14.7412 17.9358 14.6093C18.0934 14.4774 18.3314 14.4378 18.5382 14.5092C18.745 14.5807 18.88 14.7484 18.88 14.9349C18.8793 15.189 18.6318 15.3957 18.3268 15.3957Z" fill="#708090"/>
<ellipse cx="14.3189" cy="42.4126" rx="9.24375" ry="1.8125" fill="url(#paint2_radial_1237_763)" fill-opacity="0.6"/>
<defs>
<linearGradient id="paint0_linear_1237_763" x1="25.7387" y1="19.2122" x2="1.99492" y2="11.2372" gradientUnits="userSpaceOnUse">
<stop stop-color="white"/>
<stop offset="1" stop-color="#999999"/>
</linearGradient>
<linearGradient id="paint1_linear_1237_763" x1="4.8957" y1="10.3317" x2="24.1082" y2="25.3755" gradientUnits="userSpaceOnUse">
<stop stop-color="white"/>
<stop offset="1" stop-color="#C7C7C7"/>
</linearGradient>
<radialGradient id="paint2_radial_1237_763" cx="0" cy="0" r="1" gradientUnits="userSpaceOnUse" gradientTransform="translate(14.3189 42.4126) scale(9.24375 1.8125)">
<stop/>
<stop offset="1" stop-color="#666666" stop-opacity="0"/>
</radialGradient>
</defs>
</svg>
