<?xml version="1.0" encoding="UTF-8"?>
<!DOCTYPE svg PUBLIC "-//W3C//DTD SVG 1.1//EN" "http://www.w3.org/Graphics/SVG/1.1/DTD/svg11.dtd">
<svg xmlns="http://www.w3.org/2000/svg" version="1.1" width="5917px" height="7088px" style="shape-rendering:geometricPrecision; text-rendering:geometricPrecision; image-rendering:optimizeQuality; fill-rule:evenodd; clip-rule:evenodd" xmlns:xlink="http://www.w3.org/1999/xlink">
<g><path style="opacity:0.998" fill="#fdfdfd" d="M 1178.5,4562.5 C 1178.03,4561.09 1177.03,4560.43 1175.5,4560.5C 981.678,4394.57 815.511,4205.24 677,3992.5C 570.423,3825.25 487.423,3646.58 428,3456.5C 387.726,3322.13 360.392,3185.13 346,3045.5C 323.129,2797.62 343.129,2553.29 406,2312.5C 454.835,2130.61 524.168,1957.61 614,1793.5C 736.336,1572.41 888.502,1373.58 1070.5,1197C 1380.83,897.571 1743.83,685.571 2159.5,561C 2530.26,454.115 2906.26,431.115 3287.5,492C 3539.8,531.483 3782.8,602.15 4016.5,704C 4118.57,749.189 4216.23,801.856 4309.5,862C 4433.42,949.227 4552.75,1042.56 4667.5,1142C 4739.47,1205.64 4806.97,1273.47 4870,1345.5C 4993.63,1488.17 5101.3,1642.17 5193,1807.5C 5286.34,1978.82 5357.34,2158.82 5406,2347.5C 5459.15,2559.38 5479.49,2774.38 5467,2992.5C 5460.54,3088.41 5447.54,3183.41 5428,3277.5C 5385.72,3473.35 5319.05,3660.35 5228,3838.5C 5066.11,4150.82 4847.61,4417.65 4572.5,4639C 4472.72,4718.42 4367.72,4790.42 4257.5,4855C 4503.83,4856.56 4750.17,4857.89 4996.5,4859C 5134.49,4862.93 5265.49,4894.93 5389.5,4955C 5604.27,5066.14 5745.77,5237.97 5814,5470.5C 5846.36,5593.86 5854.69,5718.86 5839,5845.5C 5821.5,5999.73 5770.84,6141.73 5687,6271.5C 5595.38,6407.41 5474.88,6509.24 5325.5,6577C 5234.55,6616.15 5139.55,6638.15 5040.5,6643C 3642.83,6643.67 2245.17,6643.67 847.5,6643C 676.155,6632.78 525.821,6572.11 396.5,6461C 295.769,6371.34 217.602,6265.17 162,6142.5C 91.4105,5987 61.7439,5823.66 73,5652.5C 97.1885,5387.88 219.355,5182.38 439.5,5036C 574.713,4950.67 722.046,4898.67 881.5,4880C 926.693,4874.94 972.026,4872.28 1017.5,4872C 1142.83,4870.14 1268.17,4870.14 1393.5,4872C 1468.65,4873.32 1543.65,4876.99 1618.5,4883C 1472.97,4793.73 1334.64,4694.4 1203.5,4585C 1195.27,4577.26 1186.94,4569.76 1178.5,4562.5 Z M 2729.5,4880.5 C 2761.17,4880.5 2792.83,4880.5 2824.5,4880.5C 2885.21,4929.84 2945.87,4979.18 3006.5,5028.5C 2954.17,5029.41 2901.84,5029.74 2849.5,5029.5C 2861.02,5022.82 2872.85,5016.49 2885,5010.5C 2886.26,5010.15 2886.59,5009.48 2886,5008.5C 2833.93,4965.59 2781.77,4922.92 2729.5,4880.5 Z"/></g>
<g><path style="opacity:1" fill="#e31e24" d="M 3009.5,476.5 C 3009.83,479.167 3010.17,481.833 3010.5,484.5C 3007.07,510.39 3004.74,536.39 3003.5,562.5C 3085.47,565.558 3167.14,572.225 3248.5,582.5C 3253.27,583.889 3258.27,584.556 3263.5,584.5C 3274.67,586.359 3286,588.026 3297.5,589.5C 3301.92,590.972 3306.59,591.638 3311.5,591.5C 3710.59,655.191 4073.59,804.357 4400.5,1039C 4647.44,1218.58 4851.94,1437.08 5014,1694.5C 5138.96,1895.12 5229.3,2110.45 5285,2340.5C 5289.47,2358.39 5293.31,2376.39 5296.5,2394.5C 5296.41,2397.15 5297.08,2399.49 5298.5,2401.5C 5299.59,2405.39 5300.26,2409.39 5300.5,2413.5C 5300.41,2416.15 5301.08,2418.49 5302.5,2420.5C 5367.37,2755.12 5355.03,3086.79 5265.5,3415.5C 5264.08,3417.51 5263.41,3419.85 5263.5,3422.5C 5262.08,3424.51 5261.41,3426.85 5261.5,3429.5C 5182.87,3700.1 5058.37,3946.44 4888,4168.5C 4671.53,4446.7 4407.69,4667.54 4096.5,4831C 3837.85,4965.93 3563.85,5054.1 3274.5,5095.5C 3266.93,5095.77 3259.6,5096.77 3252.5,5098.5C 3238.65,5099.76 3224.98,5101.42 3211.5,5103.5C 3205.95,5103.53 3200.62,5104.19 3195.5,5105.5C 3116.05,5113.92 3036.38,5118.92 2956.5,5120.5C 2939.33,5120.83 2922.33,5120.5 2905.5,5119.5C 2948.6,5096.78 2991.6,5073.78 3034.5,5050.5C 3027.01,5043.84 3019.34,5037.34 3011.5,5031C 3009.92,5029.91 3008.26,5029.07 3006.5,5028.5C 2945.87,4979.18 2885.21,4929.84 2824.5,4880.5C 2822.1,4877.78 2819.43,4875.28 2816.5,4873C 2904.87,4875.99 2993.21,4874.66 3081.5,4869C 3121.22,4865.66 3160.89,4861.83 3200.5,4857.5C 3208.07,4857.23 3215.4,4856.23 3222.5,4854.5C 3601.03,4801.66 3942.36,4661.16 4246.5,4433C 4491.8,4245.76 4685.3,4015.59 4827,3742.5C 4870.93,3656.17 4908.1,3567.17 4938.5,3475.5C 4940.65,3473.38 4941.65,3470.72 4941.5,3467.5C 4974.51,3365.14 4999.17,3260.8 5015.5,3154.5C 5016.52,3151.03 5017.19,3147.36 5017.5,3143.5C 5026.08,3077.09 5031.92,3010.42 5035,2943.5C 5038.48,2839.08 5033.64,2735.08 5020.5,2631.5C 5019.89,2621.6 5018.56,2611.93 5016.5,2602.5C 5016.72,2597.9 5016.05,2593.57 5014.5,2589.5C 5014.64,2584.59 5013.97,2579.92 5012.5,2575.5C 5002.78,2512.98 4989.78,2451.32 4973.5,2390.5C 4973.59,2387.85 4972.92,2385.51 4971.5,2383.5C 4919.37,2189.59 4839.2,2008.26 4731,1839.5C 4575.9,1600.73 4380.06,1401.9 4143.5,1243C 3852.3,1050.19 3532.63,932.688 3184.5,890.5C 3179.4,889.043 3174.07,888.376 3168.5,888.5C 3101.7,881.21 3034.7,876.876 2967.5,875.5C 2966.34,896.973 2964,918.306 2960.5,939.5C 2930.64,917.806 2900.64,896.306 2870.5,875C 2792.5,814.333 2714.5,753.667 2636.5,693C 2760.53,620.317 2884.87,548.15 3009.5,476.5 Z"/></g>
<g><path style="opacity:1" fill="#f7b0b1" d="M 3009.5,476.5 C 3011.58,478.993 3011.92,481.66 3010.5,484.5C 3010.17,481.833 3009.83,479.167 3009.5,476.5 Z"/></g>
<g><path style="opacity:1" fill="#e31e24" d="M 2637.5,892.5 C 2627.6,893.105 2617.93,894.439 2608.5,896.5C 2215.67,951.837 1864.33,1101.34 1554.5,1345C 1307.37,1542.41 1115.87,1783.58 980,2068.5C 925.959,2184.12 884.126,2304.12 854.5,2428.5C 853.076,2430.51 852.41,2432.85 852.5,2435.5C 841.251,2483.08 831.918,2531.08 824.5,2579.5C 822.158,2587.88 820.825,2596.55 820.5,2605.5C 818.098,2616.93 816.431,2628.6 815.5,2640.5C 798.378,2785.34 797.045,2930.34 811.5,3075.5C 811.444,3080.73 812.111,3085.73 813.5,3090.5C 813.5,3091.5 813.5,3092.5 813.5,3093.5C 813.362,3098.41 814.028,3103.08 815.5,3107.5C 816.33,3112.81 816.997,3118.14 817.5,3123.5C 817.198,3127.79 817.864,3131.79 819.5,3135.5C 862.534,3436.08 969.367,3711.08 1140,3960.5C 1312.94,4208.79 1528.77,4410.62 1787.5,4566C 1968.42,4673.82 2161.09,4753.65 2365.5,4805.5C 2367.51,4806.92 2369.85,4807.59 2372.5,4807.5C 2429.86,4822.62 2487.86,4834.62 2546.5,4843.5C 2550,4816.19 2553.33,4788.85 2556.5,4761.5C 2557.26,4755.57 2558.59,4749.91 2560.5,4744.5C 2615.6,4789.09 2670.6,4833.92 2725.5,4879C 2726.74,4879.79 2728.08,4880.29 2729.5,4880.5C 2781.77,4922.92 2833.93,4965.59 2886,5008.5C 2886.59,5009.48 2886.26,5010.15 2885,5010.5C 2872.85,5016.49 2861.02,5022.82 2849.5,5029.5C 2837.44,5035.02 2825.44,5040.86 2813.5,5047C 2716.48,5098.7 2619.48,5150.37 2522.5,5202C 2657.81,5222.73 2793.98,5232.56 2931,5231.5C 2980.2,5231.93 3029.37,5230.93 3078.5,5228.5C 3091.74,5228.67 3104.74,5227.67 3117.5,5225.5C 3175.01,5221.44 3232.34,5215.78 3289.5,5208.5C 3297.07,5208.23 3304.4,5207.23 3311.5,5205.5C 3525.1,5175.13 3731.44,5118.63 3930.5,5036C 3998.72,5007.22 4065.39,4975.22 4130.5,4940C 4406.17,4939.33 4681.83,4939.33 4957.5,4940C 4978.84,4941.08 5000.18,4942.25 5021.5,4943.5C 5026.27,4944.89 5031.27,4945.56 5036.5,4945.5C 5239.79,4971.72 5410.96,5059.39 5550,5208.5C 5655.03,5324.24 5721.53,5459.57 5749.5,5614.5C 5749.66,5621.42 5750.66,5628.09 5752.5,5634.5C 5759.87,5685.54 5762.53,5736.87 5760.5,5788.5C 5759.49,5795.99 5758.82,5803.66 5758.5,5811.5C 5741.88,6001.02 5669.05,6165.02 5540,6303.5C 5382.61,6465.41 5190.45,6551.24 4963.5,6561C 3620.5,6561.67 2277.5,6561.67 934.5,6561C 705.081,6548.19 512.581,6458.02 357,6290.5C 251.6,6172.68 185.433,6035.35 158.5,5878.5C 157.189,5867.65 155.523,5856.98 153.5,5846.5C 129.97,5619 189.47,5416.66 332,5239.5C 469.691,5076.71 644.524,4979.21 856.5,4947C 884.722,4943.46 913.055,4941.13 941.5,4940C 1202.5,4939.33 1463.5,4939.33 1724.5,4940C 1878.13,5022.97 2039.13,5087.97 2207.5,5135C 2304.83,5162.37 2403.5,5183.53 2503.5,5198.5C 2507.57,5163.13 2511.9,5127.79 2516.5,5092.5C 2089.08,5027.55 1703.75,4865.38 1360.5,4606C 1087.89,4396.8 871.387,4140.96 711,3838.5C 596.789,3618.03 521.956,3384.69 486.5,3138.5C 486.322,3131.25 485.322,3124.25 483.5,3117.5C 463.809,2956.79 461.142,2795.79 475.5,2634.5C 476.4,2629.67 477.066,2624.67 477.5,2619.5C 480.585,2586.92 484.585,2554.59 489.5,2522.5C 491.375,2516.43 492.375,2510.1 492.5,2503.5C 509.321,2396.22 534.321,2290.88 567.5,2187.5C 570.276,2181.5 572.276,2175.17 573.5,2168.5C 652.232,1931.99 766.732,1715.33 917,1518.5C 1109.3,1269.47 1340.47,1065.64 1610.5,907C 1910.61,732.24 2233.28,623.407 2578.5,580.5C 2583.41,580.638 2588.08,579.972 2592.5,578.5C 2602.8,577.289 2613.14,575.956 2623.5,574.5C 2624.93,574.733 2625.43,575.4 2625,576.5C 2585.5,617.333 2546,658.167 2506.5,699C 2559.63,760.463 2613.13,821.629 2667,882.5C 2668.56,884.217 2669.39,886.217 2669.5,888.5C 2658.83,889.835 2648.16,891.168 2637.5,892.5 Z"/></g>
<g><path style="opacity:1" fill="#eb5757" d="M 2592.5,578.5 C 2588.08,579.972 2583.41,580.638 2578.5,580.5C 2582.92,579.028 2587.59,578.362 2592.5,578.5 Z"/></g>
<g><path style="opacity:1" fill="#f7afaf" d="M 3248.5,582.5 C 3253.73,582.444 3258.73,583.111 3263.5,584.5C 3258.27,584.556 3253.27,583.889 3248.5,582.5 Z"/></g>
<g><path style="opacity:1" fill="#f8b3b3" d="M 3297.5,589.5 C 3302.41,589.362 3307.08,590.028 3311.5,591.5C 3306.59,591.638 3301.92,590.972 3297.5,589.5 Z"/></g>
<g><path style="opacity:1" fill="#ee6663" d="M 3168.5,888.5 C 3174.07,888.376 3179.4,889.043 3184.5,890.5C 3178.95,890.473 3173.62,889.806 3168.5,888.5 Z"/></g>
<g><path style="opacity:1" fill="#fac7c6" d="M 2637.5,892.5 C 2628.09,894.72 2618.42,896.053 2608.5,896.5C 2617.93,894.439 2627.6,893.105 2637.5,892.5 Z"/></g>
<g><path style="opacity:1" fill="#e31e24" d="M 3192.5,1067.5 C 3199.6,1069.23 3206.93,1070.23 3214.5,1070.5C 3581.66,1122.98 3908.33,1265.48 4194.5,1498C 4381.28,1652.95 4532.11,1836.78 4647,2049.5C 4697.34,2144.49 4738.51,2243.16 4770.5,2345.5C 4771.06,2350.16 4772.39,2354.5 4774.5,2358.5C 4774.72,2362.16 4775.72,2365.5 4777.5,2368.5C 4784.13,2390.01 4790.3,2411.68 4796,2433.5C 4801.25,2453.37 4805.75,2473.37 4809.5,2493.5C 4809.41,2496.15 4810.08,2498.49 4811.5,2500.5C 4811.5,2501.17 4811.5,2501.83 4811.5,2502.5C 4811.41,2505.15 4812.08,2507.49 4813.5,2509.5C 4814.22,2511.76 4814.55,2514.1 4814.5,2516.5C 4814.41,2519.15 4815.08,2521.49 4816.5,2523.5C 4830.5,2593.2 4839.84,2663.53 4844.5,2734.5C 4844.39,2745.03 4845.06,2755.37 4846.5,2765.5C 4853.36,2889.85 4846.86,3013.52 4827,3136.5C 4822.64,3159.81 4818.47,3183.14 4814.5,3206.5C 4813.08,3208.51 4812.41,3210.85 4812.5,3213.5C 4802.37,3263.8 4789.71,3313.47 4774.5,3362.5C 4772.72,3365.5 4771.72,3368.84 4771.5,3372.5C 4692.5,3619.94 4566.67,3839.6 4394,4031.5C 4156.06,4291.31 3868.23,4474.15 3530.5,4580C 3444.56,4606.38 3357.22,4626.88 3268.5,4641.5C 3258.62,4642.65 3248.95,4644.31 3239.5,4646.5C 3230.16,4647.83 3220.83,4649.17 3211.5,4650.5C 3203.93,4650.77 3196.6,4651.77 3189.5,4653.5C 2876.42,4692.32 2570.75,4660.82 2272.5,4559C 1928.54,4438.52 1641.04,4238.02 1410,3957.5C 1297.2,3817.31 1206.87,3663.31 1139,3495.5C 1127.8,3466.41 1117.3,3437.08 1107.5,3407.5C 1104.87,3398.61 1101.87,3389.94 1098.5,3381.5C 1097.74,3377.22 1096.41,3373.22 1094.5,3369.5C 1093.94,3364.84 1092.61,3360.5 1090.5,3356.5C 1084.98,3335.76 1079.14,3315.09 1073,3294.5C 1067.82,3273.79 1062.99,3253.12 1058.5,3232.5C 1058.59,3229.85 1057.92,3227.51 1056.5,3225.5C 1056.7,3223.05 1056.37,3220.72 1055.5,3218.5C 1055.59,3215.85 1054.92,3213.51 1053.5,3211.5C 1024.23,3067.93 1012.9,2922.93 1019.5,2776.5C 1020.95,2767.04 1021.61,2757.37 1021.5,2747.5C 1022.82,2720.72 1025.15,2694.06 1028.5,2667.5C 1029.89,2662.73 1030.56,2657.73 1030.5,2652.5C 1036.59,2598.32 1045.59,2544.65 1057.5,2491.5C 1058.92,2489.49 1059.59,2487.15 1059.5,2484.5C 1060.15,2482.56 1060.48,2480.56 1060.5,2478.5C 1061.92,2476.49 1062.59,2474.15 1062.5,2471.5C 1097.6,2319.69 1152.1,2175.35 1226,2038.5C 1379.05,1761.76 1588.55,1537.26 1854.5,1365C 2135.17,1186 2442.17,1083.33 2775.5,1057C 2914.86,1046.96 3053.86,1050.46 3192.5,1067.5 Z"/></g>
<g><path style="opacity:1" fill="#f8afaf" d="M 3192.5,1067.5 C 3200.07,1067.77 3207.4,1068.77 3214.5,1070.5C 3206.93,1070.23 3199.6,1069.23 3192.5,1067.5 Z"/></g>
<g><path style="opacity:1" fill="#fdfdfd" d="M 3195.5,1230.5 C 3234.17,1230.5 3272.83,1230.5 3311.5,1230.5C 3311.17,1246.68 3311.5,1262.68 3312.5,1278.5C 3312.79,1321.83 3313.13,1365.17 3313.5,1408.5C 3313.5,1419.17 3313.5,1429.83 3313.5,1440.5C 3316.5,1440.5 3319.5,1440.5 3322.5,1440.5C 3363.5,1442.14 3404.5,1443.8 3445.5,1445.5C 3449.97,1446.49 3454.64,1446.82 3459.5,1446.5C 3459.5,1449.17 3459.5,1451.83 3459.5,1454.5C 3457.75,1490.86 3455.75,1527.19 3453.5,1563.5C 3411.5,1563.33 3369.5,1563.5 3327.5,1564C 3324.73,1603.75 3322.4,1643.58 3320.5,1683.5C 3320.55,1686.94 3321.22,1690.11 3322.5,1693C 3337.77,1696.65 3353.1,1699.98 3368.5,1703C 3388.26,1716.99 3399.42,1736.16 3402,1760.5C 3402.46,1800.5 3402.29,1840.5 3401.5,1880.5C 3400.74,2020.93 3421.74,2157.93 3464.5,2291.5C 3466.72,2301.17 3469.72,2310.5 3473.5,2319.5C 3497.31,2388.83 3524.15,2456.83 3554,2523.5C 3639.76,2608.53 3719.42,2698.53 3793,2793.5C 3862.6,2884.29 3922.93,2981.29 3974,3084.5C 3998.98,3136.92 4020.14,3190.92 4037.5,3246.5C 4037.72,3250.16 4038.72,3253.5 4040.5,3256.5C 4040.41,3259.15 4041.08,3261.49 4042.5,3263.5C 4055.65,3308.76 4065.32,3354.76 4071.5,3401.5C 4071.36,3406.41 4072.03,3411.08 4073.5,3415.5C 4076.14,3432.25 4077.48,3449.25 4077.5,3466.5C 4078.29,3488.49 4078.62,3510.49 4078.5,3532.5C 4076.72,3605.07 4065.39,3676.07 4044.5,3745.5C 4040.8,3754.94 4037.46,3764.61 4034.5,3774.5C 4009.17,3847.83 3975.33,3916.83 3933,3981.5C 3890.72,4044.99 3843.39,4104.66 3791,4160.5C 3716.8,4237.74 3636.97,4307.91 3551.5,4371C 3527.83,4388 3504.17,4405 3480.5,4422C 3396.44,4458.68 3310.78,4491.02 3223.5,4519C 3167.9,4535.48 3111.57,4548.98 3054.5,4559.5C 3044.62,4560.65 3034.95,4562.31 3025.5,4564.5C 2934.61,4578 2843.61,4578.83 2752.5,4567C 2688.19,4557.54 2625.86,4540.87 2565.5,4517C 2481.89,4498.02 2402.22,4468.35 2326.5,4428C 2273.97,4399.25 2223.63,4367.25 2175.5,4332C 2099.29,4273.82 2026.63,4211.15 1957.5,4144C 1865.91,4035.34 1801.75,3911.84 1765,3773.5C 1761.67,3760.52 1758.5,3747.52 1755.5,3734.5C 1755.59,3731.85 1754.92,3729.51 1753.5,3727.5C 1753.5,3726.83 1753.5,3726.17 1753.5,3725.5C 1753.59,3722.85 1752.92,3720.51 1751.5,3718.5C 1724.67,3588.08 1721.5,3457.08 1742,3325.5C 1745.39,3306.06 1749.22,3286.72 1753.5,3267.5C 1754.92,3265.49 1755.59,3263.15 1755.5,3260.5C 1789.19,3112.11 1856.35,2981.45 1957,2868.5C 1967.67,2857.83 1978.33,2847.17 1989,2836.5C 2097.67,2688.5 2206.33,2540.5 2315,2392.5C 2332.57,2299.15 2350.24,2205.82 2368,2112.5C 2369.97,1988.49 2372.31,1864.49 2375,1740.5C 2399.07,1724.91 2423.24,1709.58 2447.5,1694.5C 2448.5,1648.67 2448.83,1602.67 2448.5,1556.5C 2406.5,1556.5 2364.5,1556.5 2322.5,1556.5C 2322.5,1519.83 2322.5,1483.17 2322.5,1446.5C 2327.69,1446.82 2332.69,1446.49 2337.5,1445.5C 2376.67,1443.82 2415.67,1441.82 2454.5,1439.5C 2456.91,1422.06 2458.25,1404.4 2458.5,1386.5C 2458.5,1386.17 2458.5,1385.83 2458.5,1385.5C 2460.35,1370.71 2461.35,1355.71 2461.5,1340.5C 2463.21,1306.81 2465.21,1273.15 2467.5,1239.5C 2468.4,1238.79 2468.74,1237.79 2468.5,1236.5C 2522.34,1236.46 2576,1235.79 2629.5,1234.5C 2818.13,1232.67 3006.79,1231.33 3195.5,1230.5 Z"/></g>
<g><path style="opacity:1" fill="#f9cbcb" d="M 2629.5,1234.5 C 2576,1235.79 2522.34,1236.46 2468.5,1236.5C 2468.74,1237.79 2468.4,1238.79 2467.5,1239.5C 2467.5,1238.17 2467.5,1236.83 2467.5,1235.5C 2521.5,1234.71 2575.5,1234.38 2629.5,1234.5 Z"/></g>
<g><path style="opacity:1" fill="#f6b1b3" d="M 3195.5,1230.5 C 3234.33,1229.5 3273.33,1229.17 3312.5,1229.5C 3312.5,1245.83 3312.5,1262.17 3312.5,1278.5C 3311.5,1262.68 3311.17,1246.68 3311.5,1230.5C 3272.83,1230.5 3234.17,1230.5 3195.5,1230.5 Z"/></g>
<g><path style="opacity:1" fill="#f9c7c8" d="M 2461.5,1340.5 C 2461.35,1355.71 2460.35,1370.71 2458.5,1385.5C 2458.75,1370.3 2459.75,1355.3 2461.5,1340.5 Z"/></g>
<g><path style="opacity:1" fill="#f8b6b6" d="M 2458.5,1386.5 C 2458.25,1404.4 2456.91,1422.06 2454.5,1439.5C 2455.34,1421.65 2456.67,1403.98 2458.5,1386.5 Z"/></g>
<g><path style="opacity:1" fill="#e94f53" d="M 3313.5,1408.5 C 3314.49,1418.65 3314.83,1428.99 3314.5,1439.5C 3317.39,1439.19 3320.05,1439.53 3322.5,1440.5C 3319.5,1440.5 3316.5,1440.5 3313.5,1440.5C 3313.5,1429.83 3313.5,1419.17 3313.5,1408.5 Z"/></g>
<g><path style="opacity:1" fill="#f6acae" d="M 2337.5,1445.5 C 2332.69,1446.49 2327.69,1446.82 2322.5,1446.5C 2322.5,1483.17 2322.5,1519.83 2322.5,1556.5C 2364.5,1556.5 2406.5,1556.5 2448.5,1556.5C 2448.83,1602.67 2448.5,1648.67 2447.5,1694.5C 2447.5,1648.83 2447.5,1603.17 2447.5,1557.5C 2405.5,1557.5 2363.5,1557.5 2321.5,1557.5C 2321.5,1520.17 2321.5,1482.83 2321.5,1445.5C 2326.83,1445.5 2332.17,1445.5 2337.5,1445.5 Z"/></g>
<g><path style="opacity:1" fill="#ef7b7d" d="M 3445.5,1445.5 C 3450.5,1445.5 3455.5,1445.5 3460.5,1445.5C 3460.81,1448.71 3460.48,1451.71 3459.5,1454.5C 3459.5,1451.83 3459.5,1449.17 3459.5,1446.5C 3454.64,1446.82 3449.97,1446.49 3445.5,1445.5 Z"/></g>
<g><path style="opacity:1" fill="#f17c7a" d="M 573.5,2168.5 C 572.276,2175.17 570.276,2181.5 567.5,2187.5C 568.724,2180.83 570.724,2174.5 573.5,2168.5 Z"/></g>
<g><path style="opacity:1" fill="#f6a2a2" d="M 3464.5,2291.5 C 3468.28,2300.5 3471.28,2309.83 3473.5,2319.5C 3469.72,2310.5 3466.72,2301.17 3464.5,2291.5 Z"/></g>
<g><path style="opacity:1" fill="#ef7270" d="M 4770.5,2345.5 C 4772.61,2349.5 4773.94,2353.84 4774.5,2358.5C 4772.39,2354.5 4771.06,2350.16 4770.5,2345.5 Z"/></g>
<g><path style="opacity:1" fill="#ef706d" d="M 4774.5,2358.5 C 4776.28,2361.5 4777.28,2364.84 4777.5,2368.5C 4775.72,2365.5 4774.72,2362.16 4774.5,2358.5 Z"/></g>
<g><path style="opacity:1" fill="#f6aeaf" d="M 4971.5,2383.5 C 4972.92,2385.51 4973.59,2387.85 4973.5,2390.5C 4972.08,2388.49 4971.41,2386.15 4971.5,2383.5 Z"/></g>
<g><path style="opacity:1" fill="#ee7071" d="M 5296.5,2394.5 C 5297.92,2396.51 5298.59,2398.85 5298.5,2401.5C 5297.08,2399.49 5296.41,2397.15 5296.5,2394.5 Z"/></g>
<g><path style="opacity:1" fill="#f18283" d="M 5300.5,2413.5 C 5301.92,2415.51 5302.59,2417.85 5302.5,2420.5C 5301.08,2418.49 5300.41,2416.15 5300.5,2413.5 Z"/></g>
<g><path style="opacity:1" fill="#f5a5a6" d="M 854.5,2428.5 C 854.59,2431.15 853.924,2433.49 852.5,2435.5C 852.41,2432.85 853.076,2430.51 854.5,2428.5 Z"/></g>
<g><path style="opacity:1" fill="#ef7474" d="M 1062.5,2471.5 C 1062.59,2474.15 1061.92,2476.49 1060.5,2478.5C 1060.41,2475.85 1061.08,2473.51 1062.5,2471.5 Z"/></g>
<g><path style="opacity:1" fill="#f18080" d="M 1059.5,2484.5 C 1059.59,2487.15 1058.92,2489.49 1057.5,2491.5C 1057.41,2488.85 1058.08,2486.51 1059.5,2484.5 Z"/></g>
<g><path style="opacity:1" fill="#e31f24" d="M 3258.5,2519.5 C 3263.27,2520.89 3268.27,2521.56 3273.5,2521.5C 3286.99,2523.8 3300.65,2525.8 3314.5,2527.5C 3317.97,2528.52 3321.64,2529.19 3325.5,2529.5C 3394.62,2540.19 3463.29,2553.19 3531.5,2568.5C 3529.66,2593.47 3528.32,2618.47 3527.5,2643.5C 3209.5,2641.85 2891.5,2640.18 2573.5,2638.5C 2480.67,2637.03 2387.67,2636.37 2294.5,2636.5C 2278.5,2636.5 2262.5,2636.5 2246.5,2636.5C 2246.17,2615.16 2246.5,2593.82 2247.5,2572.5C 2316.24,2555.49 2385.57,2541.49 2455.5,2530.5C 2461.5,2530.67 2467.17,2529.67 2472.5,2527.5C 2734.08,2487.72 2996.08,2485.06 3258.5,2519.5 Z"/></g>
<g><path style="opacity:1" fill="#ee7070" d="M 4809.5,2493.5 C 4810.92,2495.51 4811.59,2497.85 4811.5,2500.5C 4810.08,2498.49 4809.41,2496.15 4809.5,2493.5 Z"/></g>
<g><path style="opacity:1" fill="#f07c7d" d="M 4811.5,2502.5 C 4812.92,2504.51 4813.59,2506.85 4813.5,2509.5C 4812.08,2507.49 4811.41,2505.15 4811.5,2502.5 Z"/></g>
<g><path style="opacity:1" fill="#ef6f6c" d="M 492.5,2503.5 C 492.375,2510.1 491.375,2516.43 489.5,2522.5C 489.547,2515.89 490.547,2509.56 492.5,2503.5 Z"/></g>
<g><path style="opacity:1" fill="#f7b0b0" d="M 3258.5,2519.5 C 3263.73,2519.44 3268.73,2520.11 3273.5,2521.5C 3268.27,2521.56 3263.27,2520.89 3258.5,2519.5 Z"/></g>
<g><path style="opacity:1" fill="#f29091" d="M 4814.5,2516.5 C 4815.92,2518.51 4816.59,2520.85 4816.5,2523.5C 4815.08,2521.49 4814.41,2519.15 4814.5,2516.5 Z"/></g>
<g><path style="opacity:1" fill="#f8b2b1" d="M 3314.5,2527.5 C 3318.49,2527.12 3322.16,2527.78 3325.5,2529.5C 3321.64,2529.19 3317.97,2528.52 3314.5,2527.5 Z"/></g>
<g><path style="opacity:1" fill="#ec5c59" d="M 2472.5,2527.5 C 2467.17,2529.67 2461.5,2530.67 2455.5,2530.5C 2460.96,2529.05 2466.63,2528.05 2472.5,2527.5 Z"/></g>
<g><path style="opacity:1" fill="#fdfcfc" d="M 2616.5,2594.5 C 2616.23,2579.8 2616.57,2565.14 2617.5,2550.5C 2622.76,2538.75 2631.76,2531.58 2644.5,2529C 2766.83,2528.33 2889.17,2528.33 3011.5,2529C 3034.9,2535.28 3044.57,2550.45 3040.5,2574.5C 3044.48,2599.65 3034.15,2614.82 3009.5,2620C 2887.83,2620.67 2766.17,2620.67 2644.5,2620C 2634.29,2617.98 2626.12,2612.82 2620,2604.5C 2617.97,2601.44 2616.8,2598.11 2616.5,2594.5 Z"/></g>
<g><path style="opacity:1" fill="#fdfcfc" d="M 3106.5,2528.5 C 3131.5,2528.33 3156.5,2528.5 3181.5,2529C 3187.03,2531 3191.2,2534.5 3194,2539.5C 3194.67,2561.17 3194.67,2582.83 3194,2604.5C 3191.83,2611.01 3187.33,2614.84 3180.5,2616C 3155.83,2616.67 3131.17,2616.67 3106.5,2616C 3099.88,2613.71 3095.71,2609.21 3094,2602.5C 3093.33,2582.17 3093.33,2561.83 3094,2541.5C 3096.33,2535.34 3100.49,2531.01 3106.5,2528.5 Z"/></g>
<g><path style="opacity:1" fill="#f8cacc" d="M 2617.5,2550.5 C 2616.57,2565.14 2616.23,2579.8 2616.5,2594.5C 2615.34,2581.01 2615.17,2567.34 2616,2553.5C 2616.23,2552.26 2616.73,2551.26 2617.5,2550.5 Z"/></g>
<g><path style="opacity:1" fill="#f7b3b3" d="M 5012.5,2575.5 C 5013.97,2579.92 5014.64,2584.59 5014.5,2589.5C 5013.03,2585.08 5012.36,2580.41 5012.5,2575.5 Z"/></g>
<g><path style="opacity:1" fill="#f9bbbb" d="M 824.5,2579.5 C 823.795,2588.39 822.461,2597.06 820.5,2605.5C 820.825,2596.55 822.158,2587.88 824.5,2579.5 Z"/></g>
<g><path style="opacity:1" fill="#f8b4b4" d="M 5014.5,2589.5 C 5016.05,2593.57 5016.72,2597.9 5016.5,2602.5C 5014.95,2598.43 5014.28,2594.1 5014.5,2589.5 Z"/></g>
<g><path style="opacity:1" fill="#f6acad" d="M 5016.5,2602.5 C 5018.56,2611.93 5019.89,2621.6 5020.5,2631.5C 5018.44,2622.07 5017.11,2612.4 5016.5,2602.5 Z"/></g>
<g><path style="opacity:1" fill="#f8b6b6" d="M 477.5,2619.5 C 477.066,2624.67 476.4,2629.67 475.5,2634.5C 475.334,2630.49 475.501,2626.49 476,2622.5C 476.232,2621.26 476.732,2620.26 477.5,2619.5 Z"/></g>
<g><path style="opacity:1" fill="#f5a0a0" d="M 820.5,2605.5 C 819.655,2617.42 817.988,2629.08 815.5,2640.5C 816.431,2628.6 818.098,2616.93 820.5,2605.5 Z"/></g>
<g><path style="opacity:1" fill="#f5a3a3" d="M 2294.5,2636.5 C 2387.67,2636.37 2480.67,2637.03 2573.5,2638.5C 2480.33,2638.45 2387.33,2637.78 2294.5,2636.5 Z"/></g>
<g><path style="opacity:1" fill="#ee6a6a" d="M 1030.5,2652.5 C 1030.56,2657.73 1029.89,2662.73 1028.5,2667.5C 1028.44,2662.27 1029.11,2657.27 1030.5,2652.5 Z"/></g>
<g><path style="opacity:1" fill="#ef7f82" d="M 2250.5,2667.5 C 2462.83,2667.5 2675.17,2667.5 2887.5,2667.5C 2887.5,2855.83 2887.5,3044.17 2887.5,3232.5C 2675.17,3232.5 2462.83,3232.5 2250.5,3232.5C 2250.5,3044.17 2250.5,2855.83 2250.5,2667.5 Z"/></g>
<g><path style="opacity:1" fill="#e31e24" d="M 2251.5,2668.5 C 2463.17,2668.5 2674.83,2668.5 2886.5,2668.5C 2886.5,2856.17 2886.5,3043.83 2886.5,3231.5C 2674.83,3231.5 2463.17,3231.5 2251.5,3231.5C 2251.5,3043.83 2251.5,2856.17 2251.5,2668.5 Z"/></g>
<g><path style="opacity:1" fill="#e31f24" d="M 2907.5,2668.5 C 3119.17,2668.5 3330.83,2668.5 3542.5,2668.5C 3542.5,2856.17 3542.5,3043.83 3542.5,3231.5C 3330.83,3231.5 3119.17,3231.5 2907.5,3231.5C 2907.5,3043.83 2907.5,2856.17 2907.5,2668.5 Z"/></g>
<g><path style="opacity:1" fill="#ee6c6e" d="M 2907.5,2668.5 C 3119.33,2667.5 3331.33,2667.17 3543.5,2667.5C 3543.5,2855.83 3543.5,3044.17 3543.5,3232.5C 3331.33,3232.83 3119.33,3232.5 2907.5,3231.5C 3119.17,3231.5 3330.83,3231.5 3542.5,3231.5C 3542.5,3043.83 3542.5,2856.17 3542.5,2668.5C 3330.83,2668.5 3119.17,2668.5 2907.5,2668.5 Z"/></g>
<g><path style="opacity:1" fill="#fdfdfd" d="M 3007.5,2695.5 C 3149.83,2695.33 3292.17,2695.5 3434.5,2696C 3469.06,2700.01 3491.56,2718.51 3502,2751.5C 3502.67,2879.17 3502.67,3006.83 3502,3134.5C 3497.03,3155.47 3485.2,3171.3 3466.5,3182C 3456.88,3186.54 3446.88,3189.87 3436.5,3192C 3293.5,3192.67 3150.5,3192.67 3007.5,3192C 2978.45,3187.08 2957.95,3171.24 2946,3144.5C 2944.84,3140.2 2943.84,3135.87 2943,3131.5C 2942.33,3005.5 2942.33,2879.5 2943,2753.5C 2949.21,2728.28 2964.38,2710.78 2988.5,2701C 2994.91,2698.99 3001.24,2697.15 3007.5,2695.5 Z"/></g>
<g><path style="opacity:1" fill="#fefdfd" d="M 2348.5,2703.5 C 2490.17,2703.33 2631.83,2703.5 2773.5,2704C 2803.24,2707.09 2824.74,2721.93 2838,2748.5C 2839.74,2753.05 2841.07,2757.72 2842,2762.5C 2842.67,2888.17 2842.67,3013.83 2842,3139.5C 2835.33,3171.17 2816.16,3190.67 2784.5,3198C 2779.83,3198.67 2775.17,3199.33 2770.5,3200C 2629.83,3200.67 2489.17,3200.67 2348.5,3200C 2314.1,3194.92 2292.27,3175.75 2283,3142.5C 2282.33,3015.17 2282.33,2887.83 2283,2760.5C 2290.02,2735.14 2305.86,2717.64 2330.5,2708C 2336.55,2706.17 2342.55,2704.67 2348.5,2703.5 Z"/></g>
<g><path style="opacity:1" fill="#ea5252" d="M 4844.5,2734.5 C 4845.94,2744.63 4846.61,2754.97 4846.5,2765.5C 4845.06,2755.37 4844.39,2745.03 4844.5,2734.5 Z"/></g>
<g><path style="opacity:1" fill="#f28e8f" d="M 1021.5,2747.5 C 1021.61,2757.37 1020.95,2767.04 1019.5,2776.5C 1019.39,2766.63 1020.05,2756.96 1021.5,2747.5 Z"/></g>
<g><path style="opacity:1" fill="#ee6e70" d="M 811.5,3075.5 C 812.889,3080.27 813.556,3085.27 813.5,3090.5C 812.111,3085.73 811.444,3080.73 811.5,3075.5 Z"/></g>
<g><path style="opacity:1" fill="#ef7272" d="M 813.5,3093.5 C 814.972,3097.92 815.638,3102.59 815.5,3107.5C 814.028,3103.08 813.362,3098.41 813.5,3093.5 Z"/></g>
<g><path style="opacity:1" fill="#f6a6a7" d="M 483.5,3117.5 C 485.322,3124.25 486.322,3131.25 486.5,3138.5C 484.765,3131.74 483.765,3124.74 483.5,3117.5 Z"/></g>
<g><path style="opacity:1" fill="#f28a8a" d="M 817.5,3123.5 C 818.795,3127.27 819.461,3131.27 819.5,3135.5C 817.864,3131.79 817.198,3127.79 817.5,3123.5 Z"/></g>
<g><path style="opacity:1" fill="#f49696" d="M 5017.5,3143.5 C 5017.19,3147.36 5016.52,3151.03 5015.5,3154.5C 5015.12,3150.51 5015.78,3146.84 5017.5,3143.5 Z"/></g>
<g><path style="opacity:1" fill="#f28e8f" d="M 4814.5,3206.5 C 4814.59,3209.15 4813.92,3211.49 4812.5,3213.5C 4812.41,3210.85 4813.08,3208.51 4814.5,3206.5 Z"/></g>
<g><path style="opacity:1" fill="#f6acac" d="M 1053.5,3211.5 C 1054.92,3213.51 1055.59,3215.85 1055.5,3218.5C 1054.08,3216.49 1053.41,3214.15 1053.5,3211.5 Z"/></g>
<g><path style="opacity:1" fill="#f6abac" d="M 1056.5,3225.5 C 1057.92,3227.51 1058.59,3229.85 1058.5,3232.5C 1057.08,3230.49 1056.41,3228.15 1056.5,3225.5 Z"/></g>
<g><path style="opacity:1" fill="#f6a5a5" d="M 4037.5,3246.5 C 4039.28,3249.5 4040.28,3252.84 4040.5,3256.5C 4038.72,3253.5 4037.72,3250.16 4037.5,3246.5 Z"/></g>
<g><path style="opacity:1" fill="#e11319" d="M 2912.5,3252.5 C 3123.83,3252.5 3335.17,3252.5 3546.5,3252.5C 3546.83,3293.34 3546.5,3334 3545.5,3374.5C 3545.5,3334.17 3545.5,3293.83 3545.5,3253.5C 3334.33,3253.83 3123.33,3253.5 2912.5,3252.5 Z"/></g>
<g><path style="opacity:1" fill="#e31e24" d="M 2911.5,3252.5 C 2911.83,3252.5 2912.17,3252.5 2912.5,3252.5C 3123.33,3253.5 3334.33,3253.83 3545.5,3253.5C 3545.5,3293.83 3545.5,3334.17 3545.5,3374.5C 3334.17,3374.5 3122.83,3374.5 2911.5,3374.5C 2911.5,3333.83 2911.5,3293.17 2911.5,3252.5 Z"/></g>
<g><path style="opacity:1" fill="#ed6f70" d="M 2911.5,3252.5 C 3123.33,3251.5 3335.33,3251.17 3547.5,3251.5C 3547.5,3292.83 3547.5,3334.17 3547.5,3375.5C 3335.33,3375.83 3123.33,3375.5 2911.5,3374.5C 3122.83,3374.5 3334.17,3374.5 3545.5,3374.5C 3546.5,3334 3546.83,3293.34 3546.5,3252.5C 3335.17,3252.5 3123.83,3252.5 2912.5,3252.5C 2912.17,3252.5 2911.83,3252.5 2911.5,3252.5 Z"/></g>
<g><path style="opacity:1" fill="#ef7d7e" d="M 2878.5,3382.5 C 2666.67,3383.5 2454.67,3383.83 2242.5,3383.5C 2242.5,3342.17 2242.5,3300.83 2242.5,3259.5C 2454.83,3259.5 2667.17,3259.5 2879.5,3259.5C 2879.83,3300.67 2879.5,3341.67 2878.5,3382.5 Z"/></g>
<g><path style="opacity:1" fill="#f7abab" d="M 4040.5,3256.5 C 4041.92,3258.51 4042.59,3260.85 4042.5,3263.5C 4041.08,3261.49 4040.41,3259.15 4040.5,3256.5 Z"/></g>
<g><path style="opacity:1" fill="#e11016" d="M 2878.5,3261.5 C 2667.17,3261.5 2455.83,3261.5 2244.5,3261.5C 2244.5,3301.83 2244.5,3342.17 2244.5,3382.5C 2243.5,3342 2243.17,3301.34 2243.5,3260.5C 2455.33,3260.17 2667,3260.5 2878.5,3261.5 Z"/></g>
<g><path style="opacity:1" fill="#e31e24" d="M 2878.5,3261.5 C 2878.5,3301.83 2878.5,3342.17 2878.5,3382.5C 2667.17,3382.5 2455.83,3382.5 2244.5,3382.5C 2244.5,3342.17 2244.5,3301.83 2244.5,3261.5C 2455.83,3261.5 2667.17,3261.5 2878.5,3261.5 Z"/></g>
<g><path style="opacity:1" fill="#f5a7a8" d="M 1755.5,3260.5 C 1755.59,3263.15 1754.92,3265.49 1753.5,3267.5C 1753.41,3264.85 1754.08,3262.51 1755.5,3260.5 Z"/></g>
<g><path style="opacity:1" fill="#fbe5e6" d="M 2829.5,3283.5 C 2829.5,3283.83 2829.5,3284.17 2829.5,3284.5C 2653.17,3284.5 2476.83,3284.5 2300.5,3284.5C 2300.5,3302.5 2300.5,3320.5 2300.5,3338.5C 2300.17,3338.5 2299.83,3338.5 2299.5,3338.5C 2299.5,3320.17 2299.5,3301.83 2299.5,3283.5C 2476.17,3283.5 2652.83,3283.5 2829.5,3283.5 Z"/></g>
<g><path style="opacity:1" fill="#fefefe" d="M 2829.5,3284.5 C 2829.5,3302.5 2829.5,3320.5 2829.5,3338.5C 2653.17,3338.5 2476.83,3338.5 2300.5,3338.5C 2300.5,3320.5 2300.5,3302.5 2300.5,3284.5C 2476.83,3284.5 2653.17,3284.5 2829.5,3284.5 Z"/></g>
<g><path style="opacity:1" fill="#fdfdfd" d="M 2952.5,3283.5 C 3130.5,3283.5 3308.5,3283.5 3486.5,3283.5C 3486.5,3301.83 3486.5,3320.17 3486.5,3338.5C 3308.5,3338.5 3130.5,3338.5 2952.5,3338.5C 2952.5,3320.17 2952.5,3301.83 2952.5,3283.5 Z"/></g>
<g><path style="opacity:1" fill="#f5b0b3" d="M 2829.5,3283.5 C 2830.5,3301.99 2830.83,3320.66 2830.5,3339.5C 2653.33,3339.83 2476.33,3339.5 2299.5,3338.5C 2299.83,3338.5 2300.17,3338.5 2300.5,3338.5C 2476.83,3338.5 2653.17,3338.5 2829.5,3338.5C 2829.5,3320.5 2829.5,3302.5 2829.5,3284.5C 2829.5,3284.17 2829.5,3283.83 2829.5,3283.5 Z"/></g>
<g><path style="opacity:1" fill="#f5b0b2" d="M 2952.5,3283.5 C 2952.5,3301.83 2952.5,3320.17 2952.5,3338.5C 3130.5,3338.5 3308.5,3338.5 3486.5,3338.5C 3308.33,3339.5 3130,3339.83 2951.5,3339.5C 2951.17,3320.66 2951.5,3301.99 2952.5,3283.5 Z"/></g>
<g><path style="opacity:1" fill="#f9c4c4" d="M 1090.5,3356.5 C 1092.61,3360.5 1093.94,3364.84 1094.5,3369.5C 1092.39,3365.5 1091.06,3361.16 1090.5,3356.5 Z"/></g>
<g><path style="opacity:1" fill="#f6a3a3" d="M 4774.5,3362.5 C 4774.28,3366.16 4773.28,3369.5 4771.5,3372.5C 4771.72,3368.84 4772.72,3365.5 4774.5,3362.5 Z"/></g>
<g><path style="opacity:1" fill="#f6a3a2" d="M 1098.5,3381.5 C 1101.87,3389.94 1104.87,3398.61 1107.5,3407.5C 1103.34,3399.36 1100.34,3390.7 1098.5,3381.5 Z"/></g>
<g><path style="opacity:1" fill="#ea5a5f" d="M 3555.5,3411.5 C 3555.17,3411.5 3554.83,3411.5 3554.5,3411.5C 3117.5,3411.5 2680.5,3411.5 2243.5,3411.5C 2243.5,3560.5 2243.5,3709.5 2243.5,3858.5C 2243.5,3858.83 2243.5,3859.17 2243.5,3859.5C 2242.5,3710 2242.17,3560.33 2242.5,3410.5C 2680.33,3410.17 3118,3410.5 3555.5,3411.5 Z"/></g>
<g><path style="opacity:1" fill="#e11218" d="M 3554.5,3411.5 C 3554.83,3560.67 3554.5,3709.67 3553.5,3858.5C 3553.5,3709.83 3553.5,3561.17 3553.5,3412.5C 3117.17,3412.5 2680.83,3412.5 2244.5,3412.5C 2244.5,3561.17 2244.5,3709.83 2244.5,3858.5C 2244.17,3858.5 2243.83,3858.5 2243.5,3858.5C 2243.5,3709.5 2243.5,3560.5 2243.5,3411.5C 2680.5,3411.5 3117.5,3411.5 3554.5,3411.5 Z"/></g>
<g><path style="opacity:1" fill="#e31f24" d="M 3553.5,3858.5 C 3117.17,3858.5 2680.83,3858.5 2244.5,3858.5C 2244.5,3709.83 2244.5,3561.17 2244.5,3412.5C 2680.83,3412.5 3117.17,3412.5 3553.5,3412.5C 3553.5,3561.17 3553.5,3709.83 3553.5,3858.5 Z"/></g>
<g><path style="opacity:1" fill="#f7b2b2" d="M 4071.5,3401.5 C 4072.97,3405.92 4073.64,3410.59 4073.5,3415.5C 4072.03,3411.08 4071.36,3406.41 4071.5,3401.5 Z"/></g>
<g><path style="opacity:1" fill="#f7aeae" d="M 5265.5,3415.5 C 5265.59,3418.15 5264.92,3420.49 5263.5,3422.5C 5263.41,3419.85 5264.08,3417.51 5265.5,3415.5 Z"/></g>
<g><path style="opacity:1" fill="#f6a8a8" d="M 5263.5,3422.5 C 5263.59,3425.15 5262.92,3427.49 5261.5,3429.5C 5261.41,3426.85 5262.08,3424.51 5263.5,3422.5 Z"/></g>
<g><path style="opacity:1" fill="#fdfcfc" d="M 3509.5,3500.5 C 3510.49,3578.14 3510.82,3655.81 3510.5,3733.5C 3506.29,3764.9 3489.62,3787.06 3460.5,3800C 3451.78,3803.43 3442.78,3805.76 3433.5,3807C 3069.17,3807.67 2704.83,3807.67 2340.5,3807C 2308.4,3801.56 2285.57,3784.06 2272,3754.5C 2270.05,3749.66 2268.72,3744.66 2268,3739.5C 2267.33,3659.83 2267.33,3580.17 2268,3500.5C 2277.98,3464.85 2301.15,3443.35 2337.5,3436C 2702.81,3434.34 3068.14,3434 3433.5,3435C 3466.9,3439.43 3491.06,3456.59 3506,3486.5C 3507.89,3491.01 3509.06,3495.67 3509.5,3500.5 Z"/></g>
<g><path style="opacity:1" fill="#e31e24" d="M 3469.5,3487.5 C 3469.5,3531.83 3469.5,3576.17 3469.5,3620.5C 3379,3620.17 3288.67,3620.5 3198.5,3621.5C 3197.5,3672.33 3197.17,3723.33 3197.5,3774.5C 2906,3774.17 2614.67,3774.5 2323.5,3775.5C 2321.11,3774.99 2318.77,3774.32 2316.5,3773.5C 2401.33,3772.5 2486.33,3772.17 2571.5,3772.5C 2571.83,3723.33 2571.5,3674.33 2570.5,3625.5C 2485.5,3624.17 2400.5,3624.17 2315.5,3625.5C 2315.17,3674.01 2314.17,3722.34 2312.5,3770.5C 2308.32,3767.13 2305.49,3762.8 2304,3757.5C 2303.33,3667.83 2303.33,3578.17 2304,3488.5C 2306.89,3480.22 2312.39,3474.38 2320.5,3471C 2697.17,3470.33 3073.83,3470.33 3450.5,3471C 3460.14,3472.8 3466.47,3478.3 3469.5,3487.5 Z"/></g>
<g><path style="opacity:1" fill="#f07675" d="M 4941.5,3467.5 C 4941.65,3470.72 4940.65,3473.38 4938.5,3475.5C 4939.13,3472.6 4940.13,3469.94 4941.5,3467.5 Z"/></g>
<g><path style="opacity:1" fill="#fdfcfc" d="M 2693.5,3486.5 C 2819.83,3486.33 2946.17,3486.5 3072.5,3487C 3117.11,3492.67 3151.61,3514.17 3176,3551.5C 3192.69,3582.74 3195.02,3615.08 3183,3648.5C 3167.19,3683.16 3141.36,3706.99 3105.5,3720C 3094.13,3723.93 3082.46,3726.43 3070.5,3727.5C 2946.51,3728.49 2822.51,3728.82 2698.5,3728.5C 2660.09,3726.04 2627.59,3711.04 2601,3683.5C 2585.62,3666.74 2576.12,3647.07 2572.5,3624.5C 2571.73,3615.52 2571.4,3606.52 2571.5,3597.5C 2573.73,3573.7 2582.57,3552.7 2598,3534.5C 2620.1,3509.58 2647.6,3494.24 2680.5,3488.5C 2685.1,3488.72 2689.43,3488.05 2693.5,3486.5 Z"/></g>
<g><path style="opacity:1" fill="#f9bdbd" d="M 2693.5,3486.5 C 2689.43,3488.05 2685.1,3488.72 2680.5,3488.5C 2684.57,3486.95 2688.9,3486.28 2693.5,3486.5 Z"/></g>
<g><path style="opacity:1" fill="#f29294" d="M 4077.5,3466.5 C 4079,3479.47 4079.67,3492.63 4079.5,3506C 4079.5,3515.01 4079.17,3523.84 4078.5,3532.5C 4078.62,3510.49 4078.29,3488.49 4077.5,3466.5 Z"/></g>
<g><path style="opacity:1" fill="#f08b8f" d="M 3509.5,3500.5 C 3510.27,3501.26 3510.77,3502.26 3511,3503.5C 3511.83,3580.33 3511.67,3657 3510.5,3733.5C 3510.82,3655.81 3510.49,3578.14 3509.5,3500.5 Z"/></g>
<g><path style="opacity:1" fill="#e32025" d="M 2797.5,3565.5 C 2910.83,3567.5 3024.5,3568.16 3138.5,3567.5C 3144.8,3572.84 3145.14,3578.68 3139.5,3585C 3129.25,3585.53 3119.09,3586.36 3109,3587.5C 3108.33,3589.83 3108.33,3592.17 3109,3594.5C 3122,3606.45 3120.17,3614.62 3103.5,3619C 3097.83,3619.67 3092.17,3619.67 3086.5,3619C 3072.6,3616.61 3058.93,3613.44 3045.5,3609.5C 3043.53,3608.84 3041.36,3608.5 3039,3608.5C 3035.52,3608.33 3032.36,3608.99 3029.5,3610.5C 3019.24,3613.26 3012.91,3619.76 3010.5,3630C 3011.78,3640.89 3017.45,3648.55 3027.5,3653C 3038.16,3653.85 3048.83,3654.19 3059.5,3654C 3074,3648.33 3088.5,3642.83 3103,3637.5C 3111.87,3639.71 3118.37,3644.87 3122.5,3653C 3121.56,3654.94 3120.23,3656.61 3118.5,3658C 3105.82,3662.67 3093.16,3667.34 3080.5,3672C 3051.37,3677.03 3022.04,3678.69 2992.5,3677C 2966.22,3669.92 2955.55,3653.08 2960.5,3626.5C 2958.31,3624.48 2955.98,3622.64 2953.5,3621C 2950.5,3620.33 2947.5,3620.33 2944.5,3621C 2927.94,3638.41 2907.94,3644.74 2884.5,3640C 2877.04,3636.95 2870.71,3632.45 2865.5,3626.5C 2865.44,3625.96 2865.11,3625.62 2864.5,3625.5C 2863.19,3629.65 2863.19,3633.65 2864.5,3637.5C 2867.9,3648.72 2875.57,3654.39 2887.5,3654.5C 2900.89,3652.66 2914.22,3650.49 2927.5,3648C 2932.13,3644.37 2936.47,3640.37 2940.5,3636C 2945.83,3635.11 2949.99,3636.94 2953,3641.5C 2953.67,3652.5 2953.67,3663.5 2953,3674.5C 2951.59,3675.79 2950.09,3676.95 2948.5,3678C 2942.17,3678.67 2935.83,3678.67 2929.5,3678C 2927.46,3675.11 2924.8,3673.28 2921.5,3672.5C 2910.54,3674.49 2899.54,3676.16 2888.5,3677.5C 2875.82,3677.65 2863.15,3677.32 2850.5,3676.5C 2844.06,3675.63 2838.06,3673.46 2832.5,3670C 2826.03,3664.53 2819.86,3658.7 2814,3652.5C 2813.76,3640.32 2813.26,3628.15 2812.5,3616C 2812.17,3614.83 2811.83,3613.67 2811.5,3612.5C 2804.66,3610.83 2801.83,3606.49 2803,3599.5C 2805.1,3596.53 2807.93,3594.7 2811.5,3594C 2828.16,3593.5 2844.83,3593.33 2861.5,3593.5C 2861.33,3597.64 2862,3601.64 2863.5,3605.5C 2874.34,3614.06 2884.51,3613.4 2894,3603.5C 2897.04,3596.47 2895.54,3590.64 2889.5,3586C 2859.26,3585.17 2829.09,3585.34 2799,3586.5C 2798.33,3611.5 2798.33,3636.5 2799,3661.5C 2801.69,3663.69 2804.53,3665.69 2807.5,3667.5C 2808.74,3670.31 2808.41,3672.98 2806.5,3675.5C 2785.84,3676.67 2765.17,3676.83 2744.5,3676C 2741.23,3672.94 2741.23,3669.61 2744.5,3666C 2747.41,3664.63 2750.25,3663.13 2753,3661.5C 2753.5,3658.85 2753.66,3656.19 2753.5,3653.5C 2751.8,3653.34 2750.13,3653.51 2748.5,3654C 2726.18,3666.17 2702.51,3670.5 2677.5,3667C 2664.26,3664.47 2652.76,3658.63 2643,3649.5C 2631,3622.67 2638.84,3604.5 2666.5,3595C 2686.18,3594.83 2705.84,3594.33 2725.5,3593.5C 2727.43,3590.73 2730.09,3589.9 2733.5,3591C 2737.96,3596.75 2741.79,3602.91 2745,3609.5C 2749.56,3619.91 2746.4,3624.07 2735.5,3622C 2731.83,3619 2728.17,3616 2724.5,3613C 2720.5,3612.33 2716.5,3612.33 2712.5,3613C 2720.83,3620.67 2729.17,3628.33 2737.5,3636C 2738.5,3636.67 2739.5,3636.67 2740.5,3636C 2744.17,3633.83 2747.83,3631.67 2751.5,3629.5C 2752.5,3614.85 2752.83,3600.18 2752.5,3585.5C 2717.08,3585.99 2681.75,3585.49 2646.5,3584C 2639.37,3577.68 2640.03,3572.34 2648.5,3568C 2671.5,3567.5 2694.5,3567.33 2717.5,3567.5C 2728.65,3568.49 2739.99,3568.83 2751.5,3568.5C 2751.79,3566.26 2751.46,3564.26 2750.5,3562.5C 2748.19,3557.49 2744.19,3554.66 2738.5,3554C 2723.54,3552.77 2708.54,3552.1 2693.5,3552C 2686.93,3549.36 2684.1,3544.52 2685,3537.5C 2689.96,3534.21 2695.46,3532.38 2701.5,3532C 2722.84,3531.71 2744.17,3532.04 2765.5,3533C 2771.2,3534.93 2776.36,3537.76 2781,3541.5C 2786.76,3549.36 2792.26,3557.36 2797.5,3565.5 Z"/></g>
<g><path style="opacity:1" fill="#ed6d70" d="M 2797.5,3565.5 C 2911.26,3566.16 3024.93,3566.83 3138.5,3567.5C 3024.5,3568.16 2910.83,3567.5 2797.5,3565.5 Z"/></g>
<g><path style="opacity:1" fill="#f3a2a4" d="M 2750.5,3562.5 C 2751.46,3564.26 2751.79,3566.26 2751.5,3568.5C 2739.99,3568.83 2728.65,3568.49 2717.5,3567.5C 2728.5,3567.5 2739.5,3567.5 2750.5,3567.5C 2750.5,3565.83 2750.5,3564.17 2750.5,3562.5 Z"/></g>
<g><path style="opacity:1" fill="#f18e90" d="M 3059.5,3585.5 C 3021,3585.17 2982.66,3585.5 2944.5,3586.5C 2943.96,3586.44 2943.62,3586.11 2943.5,3585.5C 2982.33,3584.17 3021,3584.17 3059.5,3585.5 Z"/></g>
<g><path style="opacity:1" fill="#fdfbfb" d="M 2944.5,3586.5 C 2982.66,3585.5 3021,3585.17 3059.5,3585.5C 3059.5,3588.5 3059.5,3591.5 3059.5,3594.5C 3041.83,3594.33 3024.16,3594.5 3006.5,3595C 2993.83,3595.72 2982.5,3599.89 2972.5,3607.5C 2970.81,3605.97 2969.48,3604.14 2968.5,3602C 2961.84,3601.5 2955.17,3601.33 2948.5,3601.5C 2948.67,3597.82 2948.5,3594.15 2948,3590.5C 2947.05,3588.91 2945.88,3587.57 2944.5,3586.5 Z"/></g>
<g><path style="opacity:1" fill="#f18c8e" d="M 2571.5,3597.5 C 2571.4,3606.52 2571.73,3615.52 2572.5,3624.5C 2570.98,3619.42 2570.32,3614.09 2570.5,3608.5C 2570.5,3604.65 2570.83,3600.98 2571.5,3597.5 Z"/></g>
<g><path style="opacity:1" fill="#f18b8c" d="M 3045.5,3609.5 C 3040.13,3609.39 3034.8,3609.73 3029.5,3610.5C 3032.36,3608.99 3035.52,3608.33 3039,3608.5C 3041.36,3608.5 3043.53,3608.84 3045.5,3609.5 Z"/></g>
<g><path style="opacity:1" fill="#fdf8f8" d="M 2680.5,3617.5 C 2689.78,3625.6 2698.94,3633.94 2708,3642.5C 2708.49,3643.79 2708.66,3645.13 2708.5,3646.5C 2701.83,3646.67 2695.16,3646.5 2688.5,3646C 2680.42,3642.76 2675.42,3636.92 2673.5,3628.5C 2674.09,3623.63 2676.43,3619.97 2680.5,3617.5 Z"/></g>
<g><path style="opacity:1" fill="#eb5f62" d="M 3469.5,3487.5 C 3470.4,3488.21 3470.74,3489.21 3470.5,3490.5C 3470.83,3534.34 3470.5,3578 3469.5,3621.5C 3379.5,3621.5 3289.5,3621.5 3199.5,3621.5C 3199.17,3621.5 3198.83,3621.5 3198.5,3621.5C 3288.67,3620.5 3379,3620.17 3469.5,3620.5C 3469.5,3576.17 3469.5,3531.83 3469.5,3487.5 Z"/></g>
<g><path style="opacity:1" fill="#fadbdc" d="M 3470.5,3490.5 C 3471.83,3578.67 3471.83,3667 3470.5,3755.5C 3469.5,3710.84 3469.17,3666.17 3469.5,3621.5C 3470.5,3578 3470.83,3534.34 3470.5,3490.5 Z"/></g>
<g><path style="opacity:1" fill="#fefdfd" d="M 2570.5,3625.5 C 2570.5,3674.17 2570.5,3722.83 2570.5,3771.5C 2485.83,3771.5 2401.17,3771.5 2316.5,3771.5C 2316.5,3722.83 2316.5,3674.17 2316.5,3625.5C 2401.17,3625.5 2485.83,3625.5 2570.5,3625.5 Z"/></g>
<g><path style="opacity:1" fill="#e63a3f" d="M 2315.5,3625.5 C 2315.5,3674.17 2315.5,3722.83 2315.5,3771.5C 2315.5,3771.83 2315.5,3772.17 2315.5,3772.5C 2314.29,3772.07 2313.29,3771.4 2312.5,3770.5C 2314.17,3722.34 2315.17,3674.01 2315.5,3625.5 Z"/></g>
<g><path style="opacity:1" fill="#f6aeaf" d="M 2570.5,3625.5 C 2485.83,3625.5 2401.17,3625.5 2316.5,3625.5C 2316.5,3674.17 2316.5,3722.83 2316.5,3771.5C 2316.17,3771.5 2315.83,3771.5 2315.5,3771.5C 2315.5,3722.83 2315.5,3674.17 2315.5,3625.5C 2400.5,3624.17 2485.5,3624.17 2570.5,3625.5 Z"/></g>
<g><path style="opacity:1" fill="#f39d9f" d="M 2865.5,3626.5 C 2864.52,3629.96 2864.19,3633.63 2864.5,3637.5C 2863.19,3633.65 2863.19,3629.65 2864.5,3625.5C 2865.11,3625.62 2865.44,3625.96 2865.5,3626.5 Z"/></g>
<g><path style="opacity:1" fill="#e32025" d="M 2376.5,3660.5 C 2398.95,3659.14 2417.12,3667.14 2431,3684.5C 2442.11,3707.89 2437.28,3727.39 2416.5,3743C 2388.54,3758.61 2363.37,3755.11 2341,3732.5C 2324.74,3705.38 2330.24,3683.54 2357.5,3667C 2363.78,3664.36 2370.12,3662.19 2376.5,3660.5 Z"/></g>
<g><path style="opacity:1" fill="#e32025" d="M 2494.5,3660.5 C 2515.81,3659.2 2533.31,3666.54 2547,3682.5C 2560.31,3707.24 2555.48,3727.74 2532.5,3744C 2505.97,3757.93 2481.81,3754.77 2460,3734.5C 2447.27,3717.87 2446.27,3700.53 2457,3682.5C 2466.71,3670.39 2479.21,3663.06 2494.5,3660.5 Z"/></g>
<g><path style="opacity:1" fill="#e32025" d="M 3224.5,3715.5 C 3224.32,3708.13 3224.65,3700.8 3225.5,3693.5C 3232.76,3676.68 3245.43,3666.18 3263.5,3662C 3282.98,3658.87 3300.31,3663.54 3315.5,3676C 3329.06,3689.7 3332.22,3705.53 3325,3723.5C 3315.6,3740.52 3301.1,3750.02 3281.5,3752C 3256.29,3753.65 3237.79,3743.48 3226,3721.5C 3225.19,3719.56 3224.69,3717.56 3224.5,3715.5 Z"/></g>
<g><path style="opacity:1" fill="#e32025" d="M 3386.5,3660.5 C 3409.64,3659.16 3427.81,3667.82 3441,3686.5C 3450.92,3709.42 3445.75,3728.25 3425.5,3743C 3397.53,3758.61 3372.37,3755.11 3350,3732.5C 3334.11,3705.23 3339.61,3683.4 3366.5,3667C 3373.08,3664.2 3379.74,3662.03 3386.5,3660.5 Z"/></g>
<g><path style="opacity:1" fill="#ef7171" d="M 2850.5,3676.5 C 2863.15,3677.32 2875.82,3677.65 2888.5,3677.5C 2883.51,3678.17 2878.34,3678.5 2873,3678.5C 2865.27,3678.68 2857.77,3678.02 2850.5,3676.5 Z"/></g>
<g><path style="opacity:1" fill="#ed6463" d="M 3225.5,3693.5 C 3224.65,3700.8 3224.32,3708.13 3224.5,3715.5C 3223.35,3709.35 3223.18,3703.01 3224,3696.5C 3224.23,3695.26 3224.73,3694.26 3225.5,3693.5 Z"/></g>
<g><path style="opacity:1" fill="#ef797a" d="M 1751.5,3718.5 C 1752.92,3720.51 1753.59,3722.85 1753.5,3725.5C 1752.08,3723.49 1751.41,3721.15 1751.5,3718.5 Z"/></g>
<g><path style="opacity:1" fill="#e53035" d="M 3070.5,3727.5 C 3068.37,3728.31 3066.04,3728.81 3063.5,3729C 2941.67,3729.83 2820,3729.67 2698.5,3728.5C 2822.51,3728.82 2946.51,3728.49 3070.5,3727.5 Z"/></g>
<g><path style="opacity:1" fill="#f07b7c" d="M 1753.5,3727.5 C 1754.92,3729.51 1755.59,3731.85 1755.5,3734.5C 1754.08,3732.49 1753.41,3730.15 1753.5,3727.5 Z"/></g>
<g><path style="opacity:1" fill="#f17977" d="M 4044.5,3745.5 C 4042.33,3755.69 4038.99,3765.36 4034.5,3774.5C 4037.46,3764.61 4040.8,3754.94 4044.5,3745.5 Z"/></g>
<g><path style="opacity:1" fill="#f39d9f" d="M 2570.5,3625.5 C 2571.5,3674.33 2571.83,3723.33 2571.5,3772.5C 2486.33,3772.17 2401.33,3772.5 2316.5,3773.5C 2315.83,3773.5 2315.5,3773.17 2315.5,3772.5C 2315.5,3772.17 2315.5,3771.83 2315.5,3771.5C 2315.83,3771.5 2316.17,3771.5 2316.5,3771.5C 2401.17,3771.5 2485.83,3771.5 2570.5,3771.5C 2570.5,3722.83 2570.5,3674.17 2570.5,3625.5 Z"/></g>
<g><path style="opacity:1" fill="#e11319" d="M 3198.5,3621.5 C 3198.5,3672.83 3198.5,3724.17 3198.5,3775.5C 2907.17,3775.5 2615.83,3775.5 2324.5,3775.5C 2324.17,3775.5 2323.83,3775.5 2323.5,3775.5C 2614.67,3774.5 2906,3774.17 3197.5,3774.5C 3197.17,3723.33 3197.5,3672.33 3198.5,3621.5 Z"/></g>
<g><path style="opacity:1" fill="#f18b8f" d="M 3198.5,3621.5 C 3198.83,3621.5 3199.17,3621.5 3199.5,3621.5C 3199.5,3673.17 3199.5,3724.83 3199.5,3776.5C 2907.67,3776.83 2616,3776.5 2324.5,3775.5C 2615.83,3775.5 2907.17,3775.5 3198.5,3775.5C 3198.5,3724.17 3198.5,3672.83 3198.5,3621.5 Z"/></g>
<g><path style="opacity:1" fill="#e42d33" d="M 3554.5,3411.5 C 3554.83,3411.5 3555.17,3411.5 3555.5,3411.5C 3555.5,3560.83 3555.5,3710.17 3555.5,3859.5C 3118.17,3859.5 2680.83,3859.5 2243.5,3859.5C 2243.5,3859.17 2243.5,3858.83 2243.5,3858.5C 2243.83,3858.5 2244.17,3858.5 2244.5,3858.5C 2680.83,3858.5 3117.17,3858.5 3553.5,3858.5C 3554.5,3709.67 3554.83,3560.67 3554.5,3411.5 Z"/></g>
<g><path style="opacity:1" fill="#e4282e" d="M 3562.5,3879.5 C 3119,3880.5 2675.33,3880.83 2231.5,3880.5C 2231.5,3886.5 2231.5,3892.5 2231.5,3898.5C 2231.17,3898.5 2230.83,3898.5 2230.5,3898.5C 2230.5,3892.17 2230.5,3885.83 2230.5,3879.5C 2674.5,3879.5 3118.5,3879.5 3562.5,3879.5 Z"/></g>
<g><path style="opacity:1" fill="#e21d23" d="M 3562.5,3879.5 C 3563.49,3885.64 3563.82,3891.98 3563.5,3898.5C 3119.5,3898.5 2675.5,3898.5 2231.5,3898.5C 2231.5,3892.5 2231.5,3886.5 2231.5,3880.5C 2675.33,3880.83 3119,3880.5 3562.5,3879.5 Z"/></g>
<g><path style="opacity:1" fill="#e94d51" d="M 2230.5,3898.5 C 2230.83,3898.5 2231.17,3898.5 2231.5,3898.5C 2675.5,3898.5 3119.5,3898.5 3563.5,3898.5C 3558.36,3899.49 3553.03,3899.82 3547.5,3899.5C 3547.5,3911.17 3547.5,3922.83 3547.5,3934.5C 3547.17,3934.5 3546.83,3934.5 3546.5,3934.5C 3546.5,3922.83 3546.5,3911.17 3546.5,3899.5C 3117.5,3899.5 2688.5,3899.5 2259.5,3899.5C 2259.5,3911.17 2259.5,3922.83 2259.5,3934.5C 2259.17,3934.5 2258.83,3934.5 2258.5,3934.5C 2258.5,3922.83 2258.5,3911.17 2258.5,3899.5C 2248.99,3899.83 2239.65,3899.49 2230.5,3898.5 Z"/></g>
<g><path style="opacity:1" fill="#e31e24" d="M 3546.5,3934.5 C 3523.49,3934.17 3500.49,3934.5 3477.5,3935.5C 3477.62,3936.11 3477.96,3936.44 3478.5,3936.5C 3478.67,4005.83 3478.5,4075.17 3478,4144.5C 3474.58,4156.31 3466.74,4163.14 3454.5,4165C 3429.17,4165.67 3403.83,4165.67 3378.5,4165C 3368.47,4162.3 3361.64,4156.14 3358,4146.5C 3357.5,4075.83 3357.33,4005.17 3357.5,3934.5C 3045.5,3934.33 2733.5,3934.5 2421.5,3935C 2425.42,3938.68 2427.92,3943.18 2429,3948.5C 2429.67,4017.17 2429.67,4085.83 2429,4154.5C 2426.09,4167.08 2418.25,4174.58 2405.5,4177C 2392.83,4177.17 2380.17,4177.33 2367.5,4177.5C 2353.77,4177.64 2340.1,4177.14 2326.5,4176C 2317.24,4172.41 2311.07,4165.91 2308,4156.5C 2307.33,4086.5 2307.33,4016.5 2308,3946.5C 2309.23,3942.79 2311.06,3939.46 2313.5,3936.5C 2314.29,3936.22 2314.96,3935.72 2315.5,3935C 2296.84,3934.5 2278.17,3934.33 2259.5,3934.5C 2259.5,3922.83 2259.5,3911.17 2259.5,3899.5C 2688.5,3899.5 3117.5,3899.5 3546.5,3899.5C 3546.5,3911.17 3546.5,3922.83 3546.5,3934.5 Z"/></g>
<g><path style="opacity:1" fill="#f29b9e" d="M 2258.5,3934.5 C 2258.83,3934.5 2259.17,3934.5 2259.5,3934.5C 2278.17,3934.33 2296.84,3934.5 2315.5,3935C 2314.96,3935.72 2314.29,3936.22 2313.5,3936.5C 2295.17,3935.83 2276.83,3935.17 2258.5,3934.5 Z"/></g>
<g><path style="opacity:1" fill="#f29a9d" d="M 3546.5,3934.5 C 3546.83,3934.5 3547.17,3934.5 3547.5,3934.5C 3524.5,3935.17 3501.5,3935.83 3478.5,3936.5C 3477.96,3936.44 3477.62,3936.11 3477.5,3935.5C 3500.49,3934.5 3523.49,3934.17 3546.5,3934.5 Z"/></g>
<g><path style="opacity:0.494" fill="#787878" d="M 1175.5,4560.5 C 1177.03,4560.43 1178.03,4561.09 1178.5,4562.5C 1176.97,4562.57 1175.97,4561.91 1175.5,4560.5 Z"/></g>
<g><path style="opacity:1" fill="#eb5653" d="M 3054.5,4559.5 C 3045.17,4562.33 3035.5,4564 3025.5,4564.5C 3034.95,4562.31 3044.62,4560.65 3054.5,4559.5 Z"/></g>
<g><path style="opacity:1" fill="#fac5c5" d="M 3268.5,4641.5 C 3259.17,4644.33 3249.5,4646 3239.5,4646.5C 3248.95,4644.31 3258.62,4642.65 3268.5,4641.5 Z"/></g>
<g><path style="opacity:1" fill="#f9bdbd" d="M 3211.5,4650.5 C 3204.4,4652.23 3197.07,4653.23 3189.5,4653.5C 3196.6,4651.77 3203.93,4650.77 3211.5,4650.5 Z"/></g>
<g><path style="opacity:1" fill="#f9c1c1" d="M 2560.5,4744.5 C 2558.59,4749.91 2557.26,4755.57 2556.5,4761.5C 2556.83,4755.5 2557.17,4749.5 2557.5,4743.5C 2558.79,4743.26 2559.79,4743.6 2560.5,4744.5 Z"/></g>
<g><path style="opacity:1" fill="#f7b0b1" d="M 2365.5,4805.5 C 2368.15,4805.41 2370.49,4806.08 2372.5,4807.5C 2369.85,4807.59 2367.51,4806.92 2365.5,4805.5 Z"/></g>
<g><path style="opacity:1" fill="#ec5d5c" d="M 3222.5,4854.5 C 3215.4,4856.23 3208.07,4857.23 3200.5,4857.5C 3207.6,4855.77 3214.93,4854.77 3222.5,4854.5 Z"/></g>
<g><path style="opacity:1" fill="#f5a4a5" d="M 5021.5,4943.5 C 5026.73,4943.44 5031.73,4944.11 5036.5,4945.5C 5031.27,4945.56 5026.27,4944.89 5021.5,4943.5 Z"/></g>
<g><path style="opacity:1" fill="#f9c4c4" d="M 3274.5,5095.5 C 3267.41,5097.34 3260.08,5098.34 3252.5,5098.5C 3259.6,5096.77 3266.93,5095.77 3274.5,5095.5 Z"/></g>
<g><path style="opacity:1" fill="#f9c1c0" d="M 3211.5,5103.5 C 3206.4,5104.96 3201.07,5105.62 3195.5,5105.5C 3200.62,5104.19 3205.95,5103.53 3211.5,5103.5 Z"/></g>
<g><path style="opacity:1" fill="#ec6365" d="M 2905.5,5119.5 C 2922.33,5120.5 2939.33,5120.83 2956.5,5120.5C 2938.67,5121.66 2920.67,5121.83 2902.5,5121C 2903.53,5120.49 2904.53,5119.99 2905.5,5119.5 Z"/></g>
<g><path style="opacity:1" fill="#fefdfd" d="M 2236.5,5448.5 C 2236.22,5451.78 2236.55,5454.94 2237.5,5458C 2370.17,5458.5 2502.83,5458.67 2635.5,5458.5C 2857.17,5459.08 3078.83,5459.75 3300.5,5460.5C 3362,5461.5 3423.66,5461.83 3485.5,5461.5C 3485.5,5460.5 3485.5,5459.5 3485.5,5458.5C 3629.5,5458.5 3773.5,5458.5 3917.5,5458.5C 4350.5,5458.33 4783.5,5458.5 5216.5,5459C 5233.53,5474.58 5247.03,5492.75 5257,5513.5C 5266.02,5538.48 5264.02,5562.48 5251,5585.5C 5241.67,5600.17 5230.17,5613.01 5216.5,5624C 5132.16,5626.4 5047.82,5629.06 4963.5,5632C 4950.88,5650.42 4948.04,5670.25 4955,5691.5C 4957.31,5696.61 4960.47,5701.11 4964.5,5705C 4979,5714.08 4993.34,5723.42 5007.5,5733C 5059.33,5784.43 5057.99,5834.43 5003.5,5883C 4986.54,5896.82 4968.54,5909.15 4949.5,5920C 4919.7,5920.16 4890.04,5918.33 4860.5,5914.5C 4855.75,5912.97 4850.75,5912.3 4845.5,5912.5C 4811.64,5907.9 4777.97,5902.06 4744.5,5895C 4686.05,5882.2 4627.72,5868.87 4569.5,5855C 4533.58,5847.92 4497.58,5841.42 4461.5,5835.5C 4456.73,5834.11 4451.73,5833.44 4446.5,5833.5C 4424.25,5830.84 4401.92,5829.17 4379.5,5828.5C 4360.67,5827.34 4341.67,5827.17 4322.5,5828C 4319.96,5828.19 4317.63,5828.69 4315.5,5829.5C 4253.78,5839.87 4199.12,5865.03 4151.5,5905C 4124.64,5927.85 4105.81,5956.01 4095,5989.5C 4094.5,5992.51 4094,5995.51 4093.5,5998.5C 4091.98,6004.93 4091.31,6011.6 4091.5,6018.5C 4091.5,6023.35 4091.83,6028.01 4092.5,6032.5C 4093.76,6044.21 4096.59,6055.54 4101,6066.5C 4137.56,6152.38 4201.73,6204.54 4293.5,6223C 4335.22,6230.51 4377.22,6232.51 4419.5,6229C 4487.33,6223.54 4553.33,6209.54 4617.5,6187C 4675.4,6166.14 4733.07,6144.48 4790.5,6122C 4812.71,6111.39 4835.05,6101.06 4857.5,6091C 4875.75,6087.35 4894.08,6084.01 4912.5,6081C 4918.03,6080.09 4923.36,6080.75 4928.5,6083C 4971.99,6099.82 5009.83,6124.98 5042,6158.5C 5057.04,6175.39 5069.21,6194.23 5078.5,6215C 5077.01,6217.16 5075.51,6219.32 5074,6221.5C 5062.17,6234 5050.33,6246.5 5038.5,6259C 4943.13,6294.35 4846.47,6325.68 4748.5,6353C 4658.47,6377.22 4567.47,6396.05 4475.5,6409.5C 4465.6,6410.11 4455.93,6411.44 4446.5,6413.5C 4437.49,6414.41 4428.49,6415.41 4419.5,6416.5C 4414.27,6416.44 4409.27,6417.11 4404.5,6418.5C 4297.11,6429.38 4189.44,6433.22 4081.5,6430C 4073.45,6429.77 4065.45,6429.27 4057.5,6428.5C 4046.69,6427.14 4035.69,6426.47 4024.5,6426.5C 3997.49,6424.9 3970.49,6423.07 3943.5,6421C 3903.08,6410.86 3863.74,6397.53 3825.5,6381C 3785.31,6363.13 3750.48,6337.96 3721,6305.5C 3716,6298.83 3711,6292.17 3706,6285.5C 3697.25,6270.33 3688.25,6255.33 3679,6240.5C 3660.99,6207.97 3649.49,6173.31 3644.5,6136.5C 3641.85,6105.17 3641.85,6073.83 3644.5,6042.5C 3646.21,6029.77 3648.38,6017.11 3651,6004.5C 3654.67,5991.15 3658,5977.82 3661,5964.5C 3642.89,5953.53 3625.39,5941.7 3608.5,5929C 3580.5,5929.22 3552.5,5929.89 3524.5,5931C 3502.5,5950.67 3480.5,5970.33 3458.5,5990C 3402.02,6033.92 3340.02,6068.59 3272.5,6094C 3093.2,6152.83 2941.04,6111.99 2816,5971.5C 2814.49,5978.05 2813.49,5984.72 2813,5991.5C 2812.25,6011.85 2812.42,6032.18 2813.5,6052.5C 2813.12,6056.49 2813.78,6060.16 2815.5,6063.5C 2826.43,6132.93 2864.77,6180.1 2930.5,6205C 2963.89,6216.43 2998.22,6223.26 3033.5,6225.5C 3046.56,6224.2 3059.56,6222.53 3072.5,6220.5C 3079.42,6220.34 3086.09,6219.34 3092.5,6217.5C 3150.77,6208.17 3209.1,6199.17 3267.5,6190.5C 3271.49,6190.88 3275.16,6190.22 3278.5,6188.5C 3283.8,6187.62 3289.14,6186.95 3294.5,6186.5C 3301.42,6186.34 3308.09,6185.34 3314.5,6183.5C 3330.76,6180.51 3347.09,6177.85 3363.5,6175.5C 3406.35,6136.15 3449.35,6096.98 3492.5,6058C 3494.68,6056.49 3496.84,6054.99 3499,6053.5C 3538.62,6060.2 3569.79,6079.87 3592.5,6112.5C 3592.36,6134.68 3593.03,6156.68 3594.5,6178.5C 3595.74,6247.51 3597.4,6316.51 3599.5,6385.5C 3599.17,6389.83 3598.83,6394.17 3598.5,6398.5C 3584.17,6409 3569.83,6419.5 3555.5,6430C 3550.64,6431.8 3545.64,6433.13 3540.5,6434C 3527.16,6434.58 3513.83,6434.41 3500.5,6433.5C 3489.8,6434.28 3479.13,6435.28 3468.5,6436.5C 3442.15,6435.96 3415.82,6435.13 3389.5,6434C 3370.83,6417.67 3352.17,6401.33 3333.5,6385C 3314.8,6387.34 3296.13,6390.17 3277.5,6393.5C 3273.64,6393.81 3269.97,6394.48 3266.5,6395.5C 3166.16,6413.26 3065.16,6426.09 2963.5,6434C 2920.53,6436.3 2877.53,6436.96 2834.5,6436C 2809.73,6434.72 2785.06,6432.56 2760.5,6429.5C 2755.73,6428.11 2750.73,6427.44 2745.5,6427.5C 2690.92,6421.11 2637.92,6408.27 2586.5,6389C 2536.29,6369.16 2492.45,6340 2455,6301.5C 2418.77,6260.6 2394.43,6213.27 2382,6159.5C 2372.3,6114.68 2366.8,6069.34 2365.5,6023.5C 2365.29,6010.32 2364.62,5997.32 2363.5,5984.5C 2362.91,5942.48 2361.75,5900.48 2360,5858.5C 2339.5,5850.61 2319,5842.61 2298.5,5834.5C 2283.16,5815.49 2274.16,5793.82 2271.5,5769.5C 2272.98,5752.05 2280.64,5737.89 2294.5,5727C 2312.74,5713.97 2332.74,5704.47 2354.5,5698.5C 2368.57,5696.97 2382.57,5695.97 2396.5,5695.5C 2527.16,5694.19 2657.83,5693.19 2788.5,5692.5C 2791.89,5724.5 2795.39,5756.5 2799,5788.5C 2829.8,5814.24 2864.3,5833.74 2902.5,5847C 2946.43,5860.11 2987.43,5854.11 3025.5,5829C 3033.21,5822.29 3041.21,5815.95 3049.5,5810C 3064.89,5796.37 3076.72,5780.21 3085,5761.5C 3088.26,5752.78 3090.1,5743.78 3090.5,5734.5C 3091.96,5725.37 3091.29,5716.37 3088.5,5707.5C 3078.98,5674.32 3061.31,5646.32 3035.5,5623.5C 3013.5,5622.83 2991.34,5622.5 2969,5622.5C 2802.33,5623.14 2635.83,5624.14 2469.5,5625.5C 2394.66,5625.17 2320,5625.5 2245.5,5626.5C 2243.88,5688.66 2243.22,5750.99 2243.5,5813.5C 2242.69,5860.83 2242.36,5908.16 2242.5,5955.5C 2240.94,6009.33 2240.27,6063.33 2240.5,6117.5C 2240.04,6173.17 2239.87,6228.83 2240,6284.5C 2270.41,6305.96 2300.91,6327.29 2331.5,6348.5C 2329.74,6374.93 2320.41,6398.43 2303.5,6419C 2216.51,6420.57 2129.51,6421.74 2042.5,6422.5C 1992.99,6422.47 1943.66,6423.13 1894.5,6424.5C 1853.83,6425.1 1813.16,6425.1 1772.5,6424.5C 1762.63,6413.14 1752.97,6401.64 1743.5,6390C 1750.53,6369.9 1757.37,6349.73 1764,6329.5C 1789.96,6315.77 1816.13,6302.43 1842.5,6289.5C 1844.78,6267.19 1846.78,6244.86 1848.5,6222.5C 1834.14,6221.59 1819.81,6220.75 1805.5,6220C 1699.79,6277.52 1587.79,6317.52 1469.5,6340C 1452.13,6342.65 1434.8,6345.15 1417.5,6347.5C 1412.9,6347.28 1408.57,6347.95 1404.5,6349.5C 1383.19,6351.19 1361.86,6352.52 1340.5,6353.5C 1327.18,6354.21 1313.85,6354.55 1300.5,6354.5C 1295.73,6353.11 1290.73,6352.44 1285.5,6352.5C 1192.32,6342.17 1102.99,6318 1017.5,6280C 990.167,6265.67 962.833,6251.33 935.5,6237C 900.359,6214.19 874.192,6183.69 857,6145.5C 838.473,6098.31 829.973,6049.31 831.5,5998.5C 828.686,5916.67 857.686,5848.84 918.5,5795C 958.919,5761.44 1004.25,5736.11 1054.5,5719C 1070.06,5713.59 1085.73,5708.59 1101.5,5704C 1266.5,5702.57 1431.5,5701.74 1596.5,5701.5C 1600.89,5690.38 1605.56,5679.38 1610.5,5668.5C 1630.84,5668.33 1651.17,5668.5 1671.5,5669C 1701.08,5707.6 1727.91,5748.1 1752,5790.5C 1766.44,5816.71 1776.94,5844.37 1783.5,5873.5C 1783.62,5880.1 1784.62,5886.43 1786.5,5892.5C 1788.04,5904.45 1787.54,5916.45 1785,5928.5C 1776.86,5935.64 1769.03,5943.14 1761.5,5951C 1747.14,5951 1733.14,5948.66 1719.5,5944C 1708.23,5941.87 1696.89,5940.2 1685.5,5939C 1652.67,5913 1620,5886.83 1587.5,5860.5C 1553.66,5859.17 1519.66,5859.17 1485.5,5860.5C 1485.62,5861.11 1485.96,5861.44 1486.5,5861.5C 1563.66,5932.5 1641,6003.33 1718.5,6074C 1719.5,6074.67 1720.5,6074.67 1721.5,6074C 1759.75,6049.96 1797.92,6025.79 1836,6001.5C 1838.15,5889.5 1839.98,5777.5 1841.5,5665.5C 1842.5,5652.01 1842.83,5638.34 1842.5,5624.5C 1539.83,5624.5 1237.17,5624.5 934.5,5624.5C 912.502,5612.01 893.335,5596.01 877,5576.5C 859.436,5550.68 860.436,5525.68 880,5501.5C 898.032,5483.56 918.865,5469.73 942.5,5460C 1230.01,5462.81 1517.51,5466.65 1805,5471.5C 1811.5,5471.33 1818,5471.17 1824.5,5471C 1825.44,5468.62 1825.77,5466.12 1825.5,5463.5C 1826.66,5453.34 1826.83,5443.01 1826,5432.5C 1825.8,5430.62 1825.3,5428.95 1824.5,5427.5C 1818.03,5400.86 1802.69,5381.02 1778.5,5368C 1757.28,5357.15 1734.94,5349.48 1711.5,5345C 1682.73,5339.86 1653.73,5336.86 1624.5,5336C 1560.13,5334.93 1495.8,5335.93 1431.5,5339C 1404.17,5339.67 1376.83,5339.67 1349.5,5339C 1323.21,5330.86 1299.21,5318.52 1277.5,5302C 1255.51,5280.92 1243.18,5255.09 1240.5,5224.5C 1241.63,5210.73 1247.63,5199.57 1258.5,5191C 1275.46,5179.19 1294.13,5171.19 1314.5,5167C 1326.42,5164.34 1338.42,5162.18 1350.5,5160.5C 1357.74,5160.24 1364.74,5159.24 1371.5,5157.5C 1420.03,5152.19 1468.87,5149.86 1518,5150.5C 1595.53,5151.13 1673.03,5152.96 1750.5,5156C 1798.17,5156.67 1845.83,5156.67 1893.5,5156C 1906.15,5154.67 1918.82,5154 1931.5,5154C 1977.83,5174.33 2024.17,5194.67 2070.5,5215C 2126.47,5292.45 2181.8,5370.29 2236.5,5448.5 Z"/></g>
<g><path style="opacity:1" fill="#f9c2c2" d="M 1371.5,5157.5 C 1364.74,5159.24 1357.74,5160.24 1350.5,5160.5C 1357.25,5158.68 1364.25,5157.68 1371.5,5157.5 Z"/></g>
<g><path style="opacity:1" fill="#ec5957" d="M 3311.5,5205.5 C 3304.4,5207.23 3297.07,5208.23 3289.5,5208.5C 3296.6,5206.77 3303.93,5205.77 3311.5,5205.5 Z"/></g>
<g><path style="opacity:1" fill="#eb5554" d="M 3117.5,5225.5 C 3104.74,5227.67 3091.74,5228.67 3078.5,5228.5C 3091.33,5227.2 3104.33,5226.2 3117.5,5225.5 Z"/></g>
<g><path style="opacity:1" fill="#ea5555" d="M 1824.5,5427.5 C 1825.3,5428.95 1825.8,5430.62 1826,5432.5C 1826.83,5443.01 1826.66,5453.34 1825.5,5463.5C 1825.64,5451.48 1825.31,5439.48 1824.5,5427.5 Z"/></g>
<g><path style="opacity:1" fill="#ec6062" d="M 2236.5,5448.5 C 2237.47,5450.95 2237.81,5453.61 2237.5,5456.5C 2370.33,5457 2503,5457.67 2635.5,5458.5C 2502.83,5458.67 2370.17,5458.5 2237.5,5458C 2236.55,5454.94 2236.22,5451.78 2236.5,5448.5 Z"/></g>
<g><path style="opacity:1" fill="#fbe7e8" d="M 3917.5,5458.5 C 3773.5,5458.5 3629.5,5458.5 3485.5,5458.5C 3485.5,5459.5 3485.5,5460.5 3485.5,5461.5C 3423.66,5461.83 3362,5461.5 3300.5,5460.5C 3361.83,5460.5 3423.17,5460.5 3484.5,5460.5C 3484.5,5459.5 3484.5,5458.5 3484.5,5457.5C 3629,5457.17 3773.33,5457.5 3917.5,5458.5 Z"/></g>
<g><path style="opacity:1" fill="#f7bdbe" d="M 3513.5,5607.5 C 3513.17,5607.5 3512.83,5607.5 3512.5,5607.5C 3511.73,5605.32 3511.07,5602.98 3510.5,5600.5C 3510.83,5600.17 3511.17,5599.83 3511.5,5599.5C 3513.23,5601.85 3513.9,5604.52 3513.5,5607.5 Z"/></g>
<g><path style="opacity:1" fill="#fadbdb" d="M 3514.5,5612.5 C 3515.4,5613.21 3515.74,5614.21 3515.5,5615.5C 3544,5615.17 3572.34,5615.5 3600.5,5616.5C 3571.83,5616.5 3543.17,5616.5 3514.5,5616.5C 3514.5,5615.17 3514.5,5613.83 3514.5,5612.5 Z"/></g>
<g><path style="opacity:1" fill="#e74043" d="M 3512.5,5607.5 C 3512.83,5607.5 3513.17,5607.5 3513.5,5607.5C 3513.37,5609.29 3513.7,5610.96 3514.5,5612.5C 3514.5,5613.83 3514.5,5615.17 3514.5,5616.5C 3543.17,5616.5 3571.83,5616.5 3600.5,5616.5C 3622.67,5616.17 3644.67,5616.5 3666.5,5617.5C 3616.17,5617.5 3565.83,5617.5 3515.5,5617.5C 3514.91,5620.13 3514.58,5622.79 3514.5,5625.5C 3513.51,5619.68 3512.84,5613.68 3512.5,5607.5 Z"/></g>
<g><path style="opacity:1" fill="#e31e24" d="M 3666.5,5617.5 C 3951.84,5617.79 4237.17,5618.79 4522.5,5620.5C 4525.92,5626.75 4527.92,5633.42 4528.5,5640.5C 4528.73,5649.91 4528.06,5659.24 4526.5,5668.5C 4526.25,5672.91 4525.59,5677.24 4524.5,5681.5C 4522.6,5683.7 4521.6,5686.36 4521.5,5689.5C 4520.66,5693.87 4519.66,5698.21 4518.5,5702.5C 4374.17,5702.5 4229.83,5702.5 4085.5,5702.5C 4078.96,5703.05 4072.63,5704.05 4066.5,5705.5C 4056.1,5706.29 4045.76,5707.62 4035.5,5709.5C 4029.28,5709.96 4023.28,5710.96 4017.5,5712.5C 3964.1,5719.6 3912.43,5733.1 3862.5,5753C 3823.49,5769.73 3788.66,5792.57 3758,5821.5C 3747.73,5801.8 3737.57,5781.97 3727.5,5762C 3669.17,5761.5 3610.83,5761.33 3552.5,5761.5C 3552.46,5744.16 3552.8,5726.82 3553.5,5709.5C 3556.17,5687.69 3551,5668.02 3538,5650.5C 3531,5641.34 3523.17,5633.01 3514.5,5625.5C 3514.58,5622.79 3514.91,5620.13 3515.5,5617.5C 3565.83,5617.5 3616.17,5617.5 3666.5,5617.5 Z"/></g>
<g><path style="opacity:1" fill="#ef706f" d="M 5749.5,5614.5 C 5751.34,5620.91 5752.34,5627.58 5752.5,5634.5C 5750.66,5628.09 5749.66,5621.42 5749.5,5614.5 Z"/></g>
<g><path style="opacity:1" fill="#ee6a69" d="M 3035.5,5623.5 C 2846.83,5624.42 2658.17,5625.09 2469.5,5625.5C 2635.83,5624.14 2802.33,5623.14 2969,5622.5C 2991.34,5622.5 3013.5,5622.83 3035.5,5623.5 Z"/></g>
<g><path style="opacity:1" fill="#e53236" d="M 934.5,5624.5 C 1237.17,5624.5 1539.83,5624.5 1842.5,5624.5C 1842.83,5638.34 1842.5,5652.01 1841.5,5665.5C 1841.5,5652.17 1841.5,5638.83 1841.5,5625.5C 1539,5625.83 1236.67,5625.5 934.5,5624.5 Z"/></g>
<g><path style="opacity:1" fill="#f5abac" d="M 4528.5,5640.5 C 4529.65,5646.32 4529.82,5652.32 4529,5658.5C 4528.85,5662.13 4528.02,5665.47 4526.5,5668.5C 4528.06,5659.24 4528.73,5649.91 4528.5,5640.5 Z"/></g>
<g><path style="opacity:1" fill="#ef706f" d="M 4524.5,5681.5 C 4524.1,5684.49 4523.1,5687.15 4521.5,5689.5C 4521.6,5686.36 4522.6,5683.7 4524.5,5681.5 Z"/></g>
<g><path style="opacity:1" fill="#f9d3d4" d="M 2396.5,5695.5 C 2382.57,5695.97 2368.57,5696.97 2354.5,5698.5C 2356.28,5697.4 2358.28,5696.57 2360.5,5696C 2372.5,5695.5 2384.5,5695.33 2396.5,5695.5 Z"/></g>
<g><path style="opacity:1" fill="#f8bcbc" d="M 4085.5,5702.5 C 4079.46,5704.51 4073.12,5705.51 4066.5,5705.5C 4072.63,5704.05 4078.96,5703.05 4085.5,5702.5 Z"/></g>
<g><path style="opacity:1" fill="#f9c1c1" d="M 4035.5,5709.5 C 4029.8,5711.56 4023.8,5712.56 4017.5,5712.5C 4023.28,5710.96 4029.28,5709.96 4035.5,5709.5 Z"/></g>
<g><path style="opacity:1" fill="#ee6d6b" d="M 3088.5,5707.5 C 3091.29,5716.37 3091.96,5725.37 3090.5,5734.5C 3090.54,5725.44 3089.88,5716.44 3088.5,5707.5 Z"/></g>
<g><path style="opacity:1" fill="#f59e9f" d="M 2245.5,5626.5 C 2245.31,5689 2244.64,5751.34 2243.5,5813.5C 2243.22,5750.99 2243.88,5688.66 2245.5,5626.5 Z"/></g>
<g><path style="opacity:1" fill="#f18789" d="M 3553.5,5709.5 C 3552.8,5726.82 3552.46,5744.16 3552.5,5761.5C 3551.83,5755.51 3551.5,5749.34 3551.5,5743C 3551.44,5731.64 3552.1,5720.47 3553.5,5709.5 Z"/></g>
<g><path style="opacity:1" fill="#f7b9ba" d="M 5760.5,5788.5 C 5760.86,5796.4 5760.2,5804.07 5758.5,5811.5C 5758.82,5803.66 5759.49,5795.99 5760.5,5788.5 Z"/></g>
<g><path style="opacity:1" fill="#ea5456" d="M 4379.5,5828.5 C 4358.15,5828.26 4336.82,5828.6 4315.5,5829.5C 4317.63,5828.69 4319.96,5828.19 4322.5,5828C 4341.67,5827.17 4360.67,5827.34 4379.5,5828.5 Z"/></g>
<g><path style="opacity:1" fill="#f8b2b2" d="M 4446.5,5833.5 C 4451.73,5833.44 4456.73,5834.11 4461.5,5835.5C 4456.27,5835.56 4451.27,5834.89 4446.5,5833.5 Z"/></g>
<g><path style="opacity:1" fill="#f6adad" d="M 153.5,5846.5 C 155.523,5856.98 157.189,5867.65 158.5,5878.5C 155.733,5868.15 154.067,5857.48 153.5,5846.5 Z"/></g>
<g><path style="opacity:1" fill="#f4a8ab" d="M 1587.5,5860.5 C 1553.66,5860.17 1520,5860.5 1486.5,5861.5C 1485.96,5861.44 1485.62,5861.11 1485.5,5860.5C 1519.66,5859.17 1553.66,5859.17 1587.5,5860.5 Z"/></g>
<g><path style="opacity:1" fill="#fac4c4" d="M 1783.5,5873.5 C 1785.45,5879.56 1786.45,5885.89 1786.5,5892.5C 1784.62,5886.43 1783.62,5880.1 1783.5,5873.5 Z"/></g>
<g><path style="opacity:1" fill="#e31e24" d="M 1148.5,6016.5 C 1148.35,6004.15 1148.68,5991.82 1149.5,5979.5C 1155.73,5951.76 1171.07,5930.6 1195.5,5916C 1202.06,5911.55 1209.06,5907.89 1216.5,5905C 1217.83,5904.33 1219.17,5904.33 1220.5,5905C 1296.7,5978.2 1373.2,6051.03 1450,6123.5C 1450.75,6134.16 1451.25,6144.82 1451.5,6155.5C 1398.84,6156.33 1346.17,6156.5 1293.5,6156C 1236.31,6138.13 1192.81,6103.3 1163,6051.5C 1158.06,6042.63 1153.4,6033.63 1149,6024.5C 1148.5,6021.85 1148.34,6019.19 1148.5,6016.5 Z"/></g>
<g><path style="opacity:1" fill="#fac3c3" d="M 4845.5,5912.5 C 4850.75,5912.3 4855.75,5912.97 4860.5,5914.5C 4855.27,5914.56 4850.27,5913.89 4845.5,5912.5 Z"/></g>
<g><path style="opacity:1" fill="#eb5b5d" d="M 1149.5,5979.5 C 1148.68,5991.82 1148.35,6004.15 1148.5,6016.5C 1147.83,6011.51 1147.5,6006.34 1147.5,6001C 1147.29,5993.6 1147.96,5986.43 1149.5,5979.5 Z"/></g>
<g><path style="opacity:1" fill="#ec5f5f" d="M 4093.5,5998.5 C 4092.71,6009.81 4092.37,6021.15 4092.5,6032.5C 4091.83,6028.01 4091.5,6023.35 4091.5,6018.5C 4091.31,6011.6 4091.98,6004.93 4093.5,5998.5 Z"/></g>
<g><path style="opacity:1" fill="#f29193" d="M 2363.5,5984.5 C 2364.62,5997.32 2365.29,6010.32 2365.5,6023.5C 2363.88,6010.7 2363.21,5997.7 2363.5,5984.5 Z"/></g>
<g><path style="opacity:1" fill="#f6acad" d="M 2813.5,6052.5 C 2814.52,6055.97 2815.19,6059.64 2815.5,6063.5C 2813.78,6060.16 2813.12,6056.49 2813.5,6052.5 Z"/></g>
<g><path style="opacity:1" fill="#f6a7a7" d="M 2242.5,5955.5 C 2242.53,6009.67 2241.86,6063.67 2240.5,6117.5C 2240.27,6063.33 2240.94,6009.33 2242.5,5955.5 Z"/></g>
<g><path style="opacity:1" fill="#fbcccc" d="M 3644.5,6042.5 C 3641.85,6073.83 3641.85,6105.17 3644.5,6136.5C 3639.23,6105.17 3639.23,6073.83 3644.5,6042.5 Z"/></g>
<g><path style="opacity:1" fill="#f18283" d="M 3592.5,6112.5 C 3593.9,6134.32 3594.57,6156.32 3594.5,6178.5C 3593.03,6156.68 3592.36,6134.68 3592.5,6112.5 Z"/></g>
<g><path style="opacity:1" fill="#fac5c5" d="M 3314.5,6183.5 C 3308.09,6185.34 3301.42,6186.34 3294.5,6186.5C 3300.91,6184.66 3307.58,6183.66 3314.5,6183.5 Z"/></g>
<g><path style="opacity:1" fill="#f8aead" d="M 3278.5,6188.5 C 3275.16,6190.22 3271.49,6190.88 3267.5,6190.5C 3270.97,6189.48 3274.64,6188.81 3278.5,6188.5 Z"/></g>
<g><path style="opacity:1" fill="#fac4c4" d="M 3092.5,6217.5 C 3086.09,6219.34 3079.42,6220.34 3072.5,6220.5C 3078.91,6218.66 3085.58,6217.66 3092.5,6217.5 Z"/></g>
<g><path style="opacity:1" fill="#eb5958" d="M 1417.5,6347.5 C 1413.43,6349.05 1409.1,6349.72 1404.5,6349.5C 1408.57,6347.95 1412.9,6347.28 1417.5,6347.5 Z"/></g>
<g><path style="opacity:1" fill="#f6abab" d="M 1285.5,6352.5 C 1290.73,6352.44 1295.73,6353.11 1300.5,6354.5C 1300.17,6354.5 1299.83,6354.5 1299.5,6354.5C 1294.61,6354.47 1289.94,6353.8 1285.5,6352.5 Z"/></g>
<g><path style="opacity:1" fill="#ef7677" d="M 1340.5,6353.5 C 1332.21,6354.95 1323.71,6355.62 1315,6355.5C 1309.66,6355.5 1304.49,6355.17 1299.5,6354.5C 1299.83,6354.5 1300.17,6354.5 1300.5,6354.5C 1313.85,6354.55 1327.18,6354.21 1340.5,6353.5 Z"/></g>
<g><path style="opacity:1" fill="#f17470" d="M 3277.5,6393.5 C 3274.16,6395.22 3270.49,6395.88 3266.5,6395.5C 3269.97,6394.48 3273.64,6393.81 3277.5,6393.5 Z"/></g>
<g><path style="opacity:1" fill="#ec5e5c" d="M 4475.5,6409.5 C 4466.06,6411.57 4456.4,6412.9 4446.5,6413.5C 4455.93,6411.44 4465.6,6410.11 4475.5,6409.5 Z"/></g>
<g><path style="opacity:1" fill="#ed6565" d="M 4419.5,6416.5 C 4414.73,6417.89 4409.73,6418.56 4404.5,6418.5C 4409.27,6417.11 4414.27,6416.44 4419.5,6416.5 Z"/></g>
<g><path style="opacity:1" fill="#ee6d6e" d="M 2042.5,6422.5 C 1993.34,6423.95 1944.01,6424.61 1894.5,6424.5C 1943.66,6423.13 1992.99,6422.47 2042.5,6422.5 Z"/></g>
<g><path style="opacity:1" fill="#f9c6c7" d="M 2745.5,6427.5 C 2750.73,6427.44 2755.73,6428.11 2760.5,6429.5C 2755.27,6429.56 2750.27,6428.89 2745.5,6427.5 Z"/></g>
<g><path style="opacity:1" fill="#f8babb" d="M 4024.5,6426.5 C 4035.69,6426.47 4046.69,6427.14 4057.5,6428.5C 4046.31,6428.53 4035.31,6427.86 4024.5,6426.5 Z"/></g>
</svg>
