<svg width="29" height="45" viewBox="0 0 29 45" fill="none" xmlns="http://www.w3.org/2000/svg">
<path d="M21.478 14.3683C21.478 18.3345 18.2321 21.5522 14.2281 21.5522C10.2236 21.5522 6.97825 18.3345 6.97825 14.3683C6.97825 10.4009 10.2241 7.18427 14.2281 7.18427C18.2329 7.18399 21.478 10.4006 21.478 14.3683ZM29 14.3683C29 6.43274 22.5085 0 14.5 0C6.49204 0 0 6.43274 0 14.3683C0 17.8573 1.25628 21.0563 3.34392 23.5447L14.5125 39.5125L25.8445 23.3118C26.2515 22.8071 26.6242 22.2751 26.9605 21.7159L27.0751 21.5531H27.0563C28.2904 19.4384 29 16.9866 29 14.3683Z" fill="url(#paint0_linear_162_30)"/>
<path d="M21.2208 14.3792C21.2208 18.2485 18.0687 21.3876 14.1804 21.3876C10.2915 21.3876 7.13996 18.2485 7.13996 14.3792C7.13996 10.5089 10.2921 7.37091 14.1804 7.37091C18.0695 7.37064 21.2208 10.5086 21.2208 14.3792ZM28.5256 14.3792C28.5256 6.63775 22.2216 0.362305 14.4444 0.362305C6.66779 0.362305 0.363281 6.63775 0.363281 14.3792C0.363281 17.7829 1.58328 20.9038 3.61061 23.3313L14.4566 38.9087L25.4612 23.1041C25.8564 22.6117 26.2184 22.0928 26.545 21.5473L26.6563 21.3884H26.638C27.8364 19.3254 28.5256 16.9335 28.5256 14.3792Z" fill="url(#paint1_linear_162_30)"/>
<circle cx="14.5016" cy="14.5003" r="11.9625" fill="url(#paint2_linear_162_30)"/>
<circle cx="14.4719" cy="14.4703" r="11.2077" fill="url(#paint3_linear_162_30)"/>
<circle cx="14.5024" cy="14.5007" r="10.875" fill="url(#paint4_linear_162_30)"/>
<path d="M18.936 9.19446H19.6276V10.9543H18.936V9.19446Z" fill="#FF6B83"/>
<path d="M14.5029 9.19446H15.1945V10.9543H14.5029V9.19446Z" fill="#FF6B83"/>
<path d="M20.9934 8H12.1617C11.3231 8.00144 10.5192 8.33497 9.92711 8.92782C9.33425 9.52142 9.00072 10.3253 9 11.1638V22.7532H9.80106V11.1638C9.80178 9.8607 10.8571 8.8039 12.1603 8.80113H20.9933L20.9934 8Z" fill="#FF6B83"/>
<path d="M20.4436 11.3468H13.6858C13.3796 11.3461 13.1311 11.5939 13.1304 11.9V17.5247C13.1311 17.8308 13.3796 18.0779 13.6858 18.0779H20.4436C20.7498 18.0779 20.999 17.8308 20.9997 17.5247V11.9C20.999 11.5939 20.7505 11.3461 20.4436 11.3468ZM19.8212 14.1549C19.8212 14.384 19.6361 14.5691 19.407 14.5691H19.3739V16.347C19.3739 16.5551 19.2226 16.7331 19.0166 16.7669V17.1285C19.0166 17.3072 18.8711 17.4527 18.6924 17.4527H18.4194C18.3329 17.4534 18.2501 17.4196 18.1889 17.3583C18.1276 17.2978 18.0931 17.215 18.0931 17.1285V16.7748H16.0365V17.1285C16.0365 17.3072 15.8917 17.4527 15.713 17.4527H15.4378C15.2592 17.4527 15.1137 17.3072 15.1137 17.1285V16.7669C14.9077 16.7331 14.7564 16.5559 14.7564 16.347V14.5691H14.7232C14.4949 14.5684 14.3098 14.3832 14.309 14.1549V13.4323C14.309 13.2033 14.4942 13.0181 14.7232 13.0181H14.7564V12.7055C14.7571 12.524 14.8745 12.3626 15.0474 12.3071C16.3556 11.8612 17.7747 11.8612 19.0837 12.3071C19.2566 12.3626 19.374 12.524 19.374 12.7055V13.0181H19.4071C19.5173 13.0174 19.6232 13.0613 19.701 13.1391C19.7788 13.2169 19.8221 13.3221 19.8221 13.4323L19.8212 14.1549Z" fill="#FF6B83"/>
<path d="M19.0262 12.4777C17.7547 12.0455 16.376 12.0455 15.1037 12.4777C15.0057 12.5102 14.9395 12.6016 14.9395 12.7054V16.3468C14.9395 16.4823 15.0489 16.5917 15.1844 16.5925H18.9461C19.0822 16.5925 19.1931 16.483 19.1939 16.3468V12.7054C19.1924 12.6016 19.1256 12.5094 19.0262 12.4777ZM16.4595 12.3618H17.6712C17.7367 12.3603 17.8001 12.3848 17.8477 12.4309C17.8945 12.4763 17.9211 12.5397 17.9211 12.6052C17.9211 12.6715 17.8945 12.7342 17.8477 12.7803C17.8001 12.8257 17.7367 12.8509 17.6712 12.8487H16.4595C16.3932 12.8509 16.3298 12.8257 16.283 12.7803C16.2355 12.7342 16.2088 12.6715 16.2088 12.6052C16.2088 12.5397 16.2355 12.4763 16.283 12.4309C16.3298 12.3848 16.3932 12.3603 16.4595 12.3618ZM15.5987 16.1978C15.3926 16.1978 15.2061 16.0731 15.1275 15.8822C15.0483 15.6913 15.0922 15.4723 15.2378 15.3261C15.384 15.1799 15.6037 15.136 15.7946 15.2152C15.9855 15.2944 16.1094 15.4803 16.1094 15.687C16.1087 15.9687 15.8803 16.197 15.5987 16.1978ZM16.9018 14.5913H16.9011C16.9004 14.6403 16.86 14.6807 16.811 14.6814H15.1398C15.1153 14.6814 15.0922 14.672 15.0757 14.6547C15.0584 14.6382 15.049 14.6151 15.049 14.5913V13.1081C15.049 13.0843 15.0584 13.0613 15.075 13.044C15.0922 13.0267 15.1153 13.0173 15.1398 13.0181H16.811C16.8348 13.0181 16.8579 13.0274 16.8744 13.044C16.8917 13.0613 16.9011 13.0843 16.9011 13.1081L16.9018 14.5913ZM17.1215 14.5913V13.1081C17.1208 13.0843 17.1302 13.0613 17.1475 13.044C17.164 13.0267 17.1878 13.0173 17.2116 13.0181H18.8828C18.9066 13.0181 18.9296 13.0274 18.9469 13.044C18.9635 13.0613 18.9729 13.0843 18.9729 13.1081V14.5906C18.9721 14.6403 18.9325 14.6807 18.8828 14.6814H17.2116C17.1878 14.6814 17.164 14.672 17.1475 14.6547C17.1302 14.6382 17.1208 14.6151 17.1208 14.5906L17.1215 14.5913ZM18.5313 16.1978C18.3245 16.1978 18.1387 16.0731 18.0594 15.8822C17.9802 15.6913 18.0241 15.4723 18.1704 15.3261C18.3159 15.1799 18.5356 15.136 18.7265 15.2152C18.9174 15.2944 19.042 15.4803 19.042 15.687C19.0413 15.9687 18.8129 16.1978 18.5313 16.1978Z" fill="#FF6B83"/>
<ellipse cx="14.3189" cy="42.4127" rx="9.24375" ry="1.8125" fill="url(#paint5_radial_162_30)" fill-opacity="0.6"/>
<defs>
<linearGradient id="paint0_linear_162_30" x1="-5.10031e-08" y1="7.98909" x2="22.0987" y2="32.6139" gradientUnits="userSpaceOnUse">
<stop stop-color="#FF6B83"/>
<stop offset="1" stop-color="#E05E73"/>
</linearGradient>
<linearGradient id="paint1_linear_162_30" x1="0.363281" y1="8.15605" x2="21.932" y2="32.081" gradientUnits="userSpaceOnUse">
<stop stop-color="#FF6B83"/>
<stop offset="1" stop-color="#E8667B"/>
</linearGradient>
<linearGradient id="paint2_linear_162_30" x1="26.5277" y1="19.562" x2="1.18487" y2="11.0499" gradientUnits="userSpaceOnUse">
<stop stop-color="#FF6B83"/>
<stop offset="1" stop-color="#EB6379"/>
</linearGradient>
<linearGradient id="paint3_linear_162_30" x1="25.7392" y1="19.2126" x2="1.99541" y2="11.2376" gradientUnits="userSpaceOnUse">
<stop stop-color="white"/>
<stop offset="1" stop-color="#999999"/>
</linearGradient>
<linearGradient id="paint4_linear_162_30" x1="4.89619" y1="10.332" x2="24.1087" y2="25.3757" gradientUnits="userSpaceOnUse">
<stop stop-color="white"/>
<stop offset="1" stop-color="#C7C7C7"/>
</linearGradient>
<radialGradient id="paint5_radial_162_30" cx="0" cy="0" r="1" gradientUnits="userSpaceOnUse" gradientTransform="translate(14.3189 42.4127) scale(9.24375 1.8125)">
<stop/>
<stop offset="1" stop-color="#666666" stop-opacity="0"/>
</radialGradient>
</defs>
</svg>
