<svg width="70" height="70" viewBox="0 0 70 70" fill="none" xmlns="http://www.w3.org/2000/svg">
<rect width="70" height="70" rx="16" fill="#E0BD01"/>
<path fill-rule="evenodd" clip-rule="evenodd" d="M23.1485 41.5611C26.1388 40.7204 28.6082 40.6986 32.9625 43.5946L38.7745 42.3186C39.6712 42.1212 40.1797 42.382 40.4992 42.7987C40.7056 43.0688 40.7745 43.3847 40.7005 43.7162C40.6266 44.0487 40.4304 44.3044 40.1294 44.4582L33.8809 47.6587C33.3138 48.0296 33.7042 48.6386 34.1582 48.4297L41.3138 44.7938C41.6137 44.641 41.8274 44.4207 41.9722 44.1142C42.1304 43.7806 42.3646 43.5053 42.682 43.2798L48.4806 39.1721C49.9557 38.1267 51.1082 39.5794 50.647 40.1073L43.5623 47.3615L36.002 51.2977C35.0026 51.8183 34.0113 52.0033 32.8927 51.8744L23.2615 50.7698C22.8917 50.7272 22.6164 50.4144 22.6164 50.0383V42.2697C22.6164 41.9351 22.8291 41.6515 23.1485 41.5611ZM27.1742 24.3874H46.2865C46.5721 24.3874 46.5186 24.1484 46.5186 23.8533V23.2443C46.5186 22.7861 46.5895 22.5325 46.1889 22.3413L37.2018 18.0435C36.907 17.9022 36.565 17.9022 36.2701 18.0435L27.3478 22.3455C26.9472 22.5367 26.9533 22.7861 26.9533 23.2443V23.8533C26.9533 24.1484 26.8886 24.3874 27.1742 24.3874ZM36.7365 20.0386C37.4874 20.0386 38.0986 20.6569 38.0986 21.4165C38.0986 22.1771 37.4874 22.7954 36.7365 22.7954C35.9856 22.7954 35.3744 22.1771 35.3744 21.4165C35.3744 20.6569 35.9856 20.0386 36.7365 20.0386ZM32.4222 27.0101C32.6348 27.0101 32.6112 26.8917 32.6112 26.6672V25.5928C32.6112 25.1885 32.3082 25.1958 31.9363 25.1958H29.4854C29.1136 25.1958 28.8105 25.1885 28.8105 25.5928V26.6953C28.8105 26.9197 28.8383 27.0101 29.0016 27.0101H29.2779V33.9827H29.0345C28.8105 33.9785 28.8105 34.0689 28.8105 34.2799V35.3969C28.8105 35.8012 29.1136 35.797 29.4854 35.797H31.9363C32.3082 35.797 32.6112 35.8012 32.6112 35.3969V34.2736C32.6112 34.0502 32.5722 33.9837 32.3667 33.9837L32.1438 33.9827V27.0101H32.4222ZM46.1098 37.2144H45.7934V37.1292C45.7934 36.6969 45.8674 36.3446 45.4719 36.3446H41.3364H39.7123H28.0555C27.6601 36.3446 27.6775 36.6969 27.6775 37.1292V37.2144H27.0653C26.7202 37.2144 26.7335 37.5168 26.7335 37.8877V38.956C26.7335 39.328 26.8095 39.6293 27.1547 39.6293H39.7123H41.3364H46.2803C46.6501 39.6293 46.7364 39.436 46.7364 39.0651V37.5739C46.7364 37.203 46.455 37.2144 46.1098 37.2144ZM44.6881 27.0101C44.9018 27.0101 44.8772 26.8917 44.8772 26.6672V25.5928C44.8772 25.1885 44.5752 25.1958 44.2033 25.1958H41.7513C41.3795 25.1958 41.0775 25.1885 41.0775 25.5928V26.6953C41.0775 26.9197 41.1042 27.0101 41.2686 27.0101H41.5449V33.9827H41.3014C41.0775 33.9785 41.0775 34.0689 41.0775 34.2799V35.3969C41.0775 35.8012 41.3795 35.797 41.7513 35.797H44.2033C44.5752 35.797 44.8772 35.8012 44.8772 35.3969V34.2736C44.8772 34.0502 44.8391 33.9837 44.6327 33.9837L44.4108 33.9827V27.0101H44.6881ZM38.6481 27.0101C38.8618 27.0101 38.8371 26.8917 38.8371 26.6672V25.5928C38.8371 25.1885 38.5351 25.1958 38.1633 25.1958H35.7113C35.3395 25.1958 35.0375 25.1885 35.0375 25.5928V26.6953C35.0375 26.9197 35.0642 27.0101 35.2286 27.0101H35.5049V33.9827H35.2614C35.0375 33.9785 35.0375 34.0689 35.0375 34.2799V35.3969C35.0375 35.8012 35.3395 35.797 35.7113 35.797H38.1633C38.5351 35.797 38.8371 35.8012 38.8371 35.3969V34.2736C38.8371 34.0502 38.7991 33.9837 38.5927 33.9837L38.3708 33.9827V27.0101H38.6481ZM18.6648 41.6172H21.0006C21.4002 41.6172 21.7269 41.9466 21.7269 42.3518V50.5921C21.7269 51.4016 21.0736 52.0625 20.2734 52.0625H18.6648C18.2642 52.0625 17.9375 51.7321 17.9375 51.3268V42.3518C17.9375 41.9466 18.2642 41.6172 18.6648 41.6172Z" fill="white"/>
</svg>
