<svg width="140" height="140" viewBox="0 0 140 140" fill="none" xmlns="http://www.w3.org/2000/svg">
<rect width="140" height="140" rx="16" fill="#6E00FF"/>
<path fill-rule="evenodd" clip-rule="evenodd" d="M46.2971 83.1221C52.2775 81.4408 57.2163 81.3972 65.9251 87.1893L77.549 84.6372C79.3425 84.2423 80.3594 84.7639 80.9984 85.5973C81.4113 86.1377 81.5489 86.7695 81.401 87.4324C81.2531 88.0975 80.8607 88.6087 80.2588 88.9163L67.7617 95.3173C66.6277 96.0593 67.4083 97.2771 68.3164 96.8594L82.6275 89.5876C83.2274 89.2821 83.6547 88.8415 83.9444 88.2284C84.2608 87.5613 84.7292 87.0105 85.364 86.5596L96.9612 78.3442C99.9114 76.2535 102.216 79.1589 101.294 80.2146L87.1246 94.723L72.0041 102.595C70.0051 103.637 68.0226 104.007 65.7853 103.749L46.5231 101.54C45.7835 101.454 45.2329 100.829 45.2329 100.077V84.5395C45.2329 83.8703 45.6582 83.3029 46.2971 83.1221ZM54.3484 48.7747H92.573C93.1441 48.7747 93.0373 48.2967 93.0373 47.7065V46.4887C93.0373 45.5722 93.179 45.0651 92.3778 44.6827L74.4037 36.087C73.814 35.8043 73.1299 35.8043 72.5403 36.087L54.6956 44.691C53.8943 45.0734 53.9067 45.5722 53.9067 46.4887V47.7065C53.9067 48.2967 53.7772 48.7747 54.3484 48.7747ZM73.473 40.0772C74.9748 40.0772 76.1972 41.3138 76.1972 42.833C76.1972 44.3543 74.9748 45.5909 73.473 45.5909C71.9712 45.5909 70.7488 44.3543 70.7488 42.833C70.7488 41.3138 71.9712 40.0772 73.473 40.0772ZM64.8444 54.0203C65.2697 54.0203 65.2224 53.7834 65.2224 53.3344V51.1855C65.2224 50.3771 64.6164 50.3916 63.8727 50.3916H58.9708C58.2271 50.3916 57.6211 50.3771 57.6211 51.1855V53.3906C57.6211 53.8395 57.6765 54.0203 58.0032 54.0203H58.5558V67.9654H58.0689C57.6211 67.9571 57.6211 68.1379 57.6211 68.5598V70.7939C57.6211 71.6023 58.2271 71.594 58.9708 71.594H63.8727C64.6164 71.594 65.2224 71.6023 65.2224 70.7939V68.5473C65.2224 68.1005 65.1444 67.9675 64.7335 67.9675L64.2877 67.9654V54.0203H64.8444ZM92.2196 74.4288H91.5869V74.2584C91.5869 73.3938 91.7348 72.6893 90.9438 72.6893H82.6727H79.4247H56.1111C55.3201 72.6893 55.355 73.3938 55.355 74.2584V74.4288H54.1306C53.4403 74.4288 53.467 75.0335 53.467 75.7755V77.9119C53.467 78.6559 53.6191 79.2586 54.3093 79.2586H79.4247H82.6727H92.5606C93.3002 79.2586 93.4728 78.8721 93.4728 78.1301V75.1478C93.4728 74.4059 92.9099 74.4288 92.2196 74.4288ZM89.3763 54.0203C89.8036 54.0203 89.7543 53.7834 89.7543 53.3344V51.1855C89.7543 50.3771 89.1503 50.3916 88.4066 50.3916H83.5027C82.759 50.3916 82.155 50.3771 82.155 51.1855V53.3906C82.155 53.8395 82.2084 54.0203 82.5371 54.0203H83.0898V67.9654H82.6029C82.155 67.9571 82.155 68.1379 82.155 68.5598V70.7939C82.155 71.6023 82.759 71.594 83.5027 71.594H88.4066C89.1503 71.594 89.7543 71.6023 89.7543 70.7939V68.5473C89.7543 68.1005 89.6783 67.9675 89.2654 67.9675L88.8216 67.9654V54.0203H89.3763ZM77.2963 54.0203C77.7236 54.0203 77.6743 53.7834 77.6743 53.3344V51.1855C77.6743 50.3771 77.0703 50.3916 76.3266 50.3916H71.4227C70.679 50.3916 70.075 50.3771 70.075 51.1855V53.3906C70.075 53.8395 70.1284 54.0203 70.4571 54.0203H71.0097V67.9654H70.5229C70.075 67.9571 70.075 68.1379 70.075 68.5598V70.7939C70.075 71.6023 70.679 71.594 71.4227 71.594H76.3266C77.0703 71.594 77.6743 71.6023 77.6743 70.7939V68.5473C77.6743 68.1005 77.5983 67.9675 77.1853 67.9675L76.7416 67.9654V54.0203H77.2963ZM37.3295 83.2343H42.0013C42.8005 83.2343 43.4538 83.8932 43.4538 84.7037V101.184C43.4538 102.803 42.1472 104.125 40.5468 104.125H37.3295C36.5283 104.125 35.875 103.464 35.875 102.654V84.7037C35.875 83.8932 36.5283 83.2343 37.3295 83.2343Z" fill="white"/>
</svg>
