<svg width="40" height="40" viewBox="0 0 40 40" fill="none" xmlns="http://www.w3.org/2000/svg">
<circle cx="20" cy="20" r="20" fill="#5059AF"/>
<path fill-rule="evenodd" clip-rule="evenodd" d="M10.9703 24.9989C13.2486 24.3584 15.13 24.3418 18.4476 26.5483L22.8758 25.5761C23.559 25.4256 23.9464 25.6244 24.1899 25.9418C24.3472 26.1477 24.3996 26.3884 24.3432 26.6409C24.2869 26.8943 24.1374 27.089 23.9081 27.2062L19.1473 29.6447C18.7153 29.9273 19.0127 30.3913 19.3586 30.2322L24.8105 27.4619C25.039 27.3456 25.2018 27.1777 25.3122 26.9442C25.4327 26.69 25.6111 26.4802 25.853 26.3084L30.2709 23.1787C31.3948 22.3823 32.2729 23.4891 31.9215 23.8913L26.5237 29.4183L20.7635 32.4173C20.002 32.8139 19.2467 32.9549 18.3944 32.8567L11.0564 32.0151C10.7747 31.9826 10.5649 31.7443 10.5649 31.4577V25.5389C10.5649 25.2839 10.7269 25.0678 10.9703 24.9989ZM14.0375 11.9142H28.5992C28.8168 11.9142 28.7761 11.7321 28.7761 11.5072V11.0433C28.7761 10.6942 28.8301 10.501 28.5249 10.3553L21.6776 7.08076C21.453 6.97308 21.1923 6.97308 20.9677 7.08076L14.1697 10.3585C13.8645 10.5041 13.8692 10.6942 13.8692 11.0433V11.5072C13.8692 11.7321 13.8199 11.9142 14.0375 11.9142ZM21.323 8.60085C21.8952 8.60085 22.3608 9.07192 22.3608 9.65067C22.3608 10.2302 21.8952 10.7013 21.323 10.7013C20.7509 10.7013 20.2853 10.2302 20.2853 9.65067C20.2853 9.07192 20.7509 8.60085 21.323 8.60085ZM18.036 13.9125C18.198 13.9125 18.18 13.8222 18.18 13.6512V12.8326C18.18 12.5246 17.9491 12.5301 17.6658 12.5301H15.7984C15.5151 12.5301 15.2842 12.5246 15.2842 12.8326V13.6726C15.2842 13.8436 15.3053 13.9125 15.4298 13.9125H15.6403V19.2249H15.4548C15.2842 19.2217 15.2842 19.2906 15.2842 19.4513V20.3024C15.2842 20.6104 15.5151 20.6072 15.7984 20.6072H17.6658C17.9491 20.6072 18.18 20.6104 18.18 20.3024V19.4466C18.18 19.2764 18.1502 19.2257 17.9937 19.2257L17.8239 19.2249V13.9125H18.036ZM28.4646 21.6872H28.2236V21.6222C28.2236 21.2929 28.2799 21.0245 27.9786 21.0245H24.8277H23.5903H14.709C14.4077 21.0245 14.421 21.2929 14.421 21.6222V21.6872H13.9545C13.6916 21.6872 13.7017 21.9175 13.7017 22.2002V23.0141C13.7017 23.2975 13.7596 23.5271 14.0226 23.5271H23.5903H24.8277H28.5945C28.8763 23.5271 28.942 23.3798 28.942 23.0972V21.9611C28.942 21.6784 28.7276 21.6872 28.4646 21.6872ZM27.3814 13.9125C27.5442 13.9125 27.5255 13.8222 27.5255 13.6512V12.8326C27.5255 12.5246 27.2954 12.5301 27.012 12.5301H25.1439C24.8606 12.5301 24.6305 12.5246 24.6305 12.8326V13.6726C24.6305 13.8436 24.6508 13.9125 24.776 13.9125H24.9866V19.2249H24.8011C24.6305 19.2217 24.6305 19.2906 24.6305 19.4513V20.3024C24.6305 20.6104 24.8606 20.6072 25.1439 20.6072H27.012C27.2954 20.6072 27.5255 20.6104 27.5255 20.3024V19.4466C27.5255 19.2764 27.4965 19.2257 27.3392 19.2257L27.1701 19.2249V13.9125H27.3814ZM22.7795 13.9125C22.9423 13.9125 22.9235 13.8222 22.9235 13.6512V12.8326C22.9235 12.5246 22.6934 12.5301 22.4101 12.5301H20.542C20.2587 12.5301 20.0286 12.5246 20.0286 12.8326V13.6726C20.0286 13.8436 20.0489 13.9125 20.1741 13.9125H20.3847V19.2249H20.1992C20.0286 19.2217 20.0286 19.2906 20.0286 19.4513V20.3024C20.0286 20.6104 20.2587 20.6072 20.542 20.6072H22.4101C22.6934 20.6072 22.9235 20.6104 22.9235 20.3024V19.4466C22.9235 19.2764 22.8946 19.2257 22.7373 19.2257L22.5682 19.2249V13.9125H22.7795ZM7.55411 25.0417H9.33383C9.63827 25.0417 9.88715 25.2926 9.88715 25.6014V31.8797C9.88715 32.4965 9.38939 33 8.77972 33H7.55411C7.24888 33 7 32.7482 7 32.4395V25.6014C7 25.2926 7.24888 25.0417 7.55411 25.0417Z" fill="white"/>
</svg>
