<svg width="70" height="70" viewBox="0 0 70 70" fill="none" xmlns="http://www.w3.org/2000/svg">
<rect width="70" height="70" rx="16" fill="#7668B0"/>
<path d="M47.9894 33.5839C48.0035 33.4843 48.0035 33.3832 47.9894 33.2836V33.1904C47.966 33.0807 47.9255 32.9758 47.8695 32.8796L45.8704 29.7725C45.7168 29.5609 45.4909 29.4183 45.239 29.374C44.9871 29.3296 44.7284 29.3869 44.516 29.5341C44.3036 29.6813 44.1536 29.9071 44.0969 30.1653C44.0402 30.4234 44.0811 30.6942 44.2111 30.9221L45.2107 32.4239H41.9921V22.0357C41.9921 21.761 41.8868 21.4976 41.6994 21.3034C41.5119 21.1091 41.2577 21 40.9926 21H23.0007H22.9007H22.7408C22.6529 21.026 22.5688 21.0643 22.4909 21.1139H22.401C22.3265 21.183 22.2625 21.2633 22.211 21.3521C22.1857 21.3852 22.1623 21.4197 22.1411 21.4557C22.0404 21.6306 21.9918 21.8323 22.0011 22.0357V44.8214C22.0021 44.9491 22.0258 45.0755 22.0711 45.1943C22.0859 45.2297 22.1026 45.2643 22.1211 45.2979C22.1563 45.372 22.1999 45.4416 22.251 45.505L22.341 45.5982C22.3991 45.6505 22.4628 45.6957 22.5309 45.7329L22.6508 45.795H22.7108L36.7045 49.9379C36.7976 49.9734 36.8953 49.9943 36.9944 50C37.2595 50 37.5137 49.8909 37.7012 49.6966C37.8886 49.5024 37.9939 49.239 37.9939 48.9643V45.8571H40.9926C41.2577 45.8571 41.5119 45.748 41.6994 45.5538C41.8868 45.3596 41.9921 45.0961 41.9921 44.8214V34.4643H45.1207L44.1212 35.9661C44.0395 36.0786 43.9808 36.2073 43.9487 36.3442C43.9166 36.481 43.9118 36.6232 43.9346 36.7621C43.9573 36.901 44.0072 37.0335 44.0811 37.1518C44.155 37.27 44.2514 37.3713 44.3644 37.4496C44.4774 37.5279 44.6046 37.5815 44.7383 37.6071C44.8719 37.6327 45.0092 37.6298 45.1418 37.5985C45.2743 37.5673 45.3993 37.5083 45.5091 37.4253C45.6189 37.3423 45.7113 37.237 45.7804 37.1157L47.7795 34.0086C47.8257 33.9208 47.8594 33.8267 47.8795 33.7289C47.8795 33.7289 47.9894 33.5943 47.9894 33.5839ZM39.993 32.3929H37.9939V26.1786C38.0022 25.9461 37.9348 25.7175 37.8024 25.5296C37.67 25.3417 37.4805 25.2055 37.2643 25.1429L30.1375 23.0714H39.993V32.3929ZM39.993 43.7857H37.9939V34.4643H39.993V43.7857Z" fill="white"/>
</svg>
