<?xml version="1.0" encoding="UTF-8"?>
<!DOCTYPE svg PUBLIC "-//W3C//DTD SVG 1.1//EN" "http://www.w3.org/Graphics/SVG/1.1/DTD/svg11.dtd">
<svg xmlns="http://www.w3.org/2000/svg" version="1.1" width="512px" height="512px" style="shape-rendering:geometricPrecision; text-rendering:geometricPrecision; image-rendering:optimizeQuality; fill-rule:evenodd; clip-rule:evenodd" xmlns:xlink="http://www.w3.org/1999/xlink">
<g><path style="opacity:0.997" fill="#fe636f" d="M 78.5,-0.5 C 114.833,-0.5 151.167,-0.5 187.5,-0.5C 201.167,2.17853 210.167,10.1785 214.5,23.5C 161.5,23.5 108.5,23.5 55.5,23.5C 59.1276,11.5408 66.7942,3.54076 78.5,-0.5 Z"/></g>
<g><path style="opacity:0.982" fill="#fd3581" d="M 187.5,-0.5 C 199.5,-0.5 211.5,-0.5 223.5,-0.5C 235.902,2.90274 243.568,10.9027 246.5,23.5C 235.833,23.5 225.167,23.5 214.5,23.5C 210.167,10.1785 201.167,2.17853 187.5,-0.5 Z"/></g>
<g><path style="opacity:0.999" fill="#d4e9f5" d="M 55.5,23.5 C 108.5,23.5 161.5,23.5 214.5,23.5C 225.167,23.5 235.833,23.5 246.5,23.5C 247.167,23.5 247.5,23.8333 247.5,24.5C 236.48,24.1679 225.48,24.5012 214.5,25.5C 215.439,29.7649 215.772,34.0983 215.5,38.5C 226.167,38.5 236.833,38.5 247.5,38.5C 247.5,38.8333 247.5,39.1667 247.5,39.5C 236.833,39.5 226.167,39.5 215.5,39.5C 161.833,39.5 108.167,39.5 54.5,39.5C 54.3921,34.1301 54.7255,28.7968 55.5,23.5 Z"/></g>
<g><path style="opacity:0.995" fill="#b1e4f9" d="M 247.5,24.5 C 247.5,29.1667 247.5,33.8333 247.5,38.5C 236.833,38.5 226.167,38.5 215.5,38.5C 215.772,34.0983 215.439,29.7649 214.5,25.5C 225.48,24.5012 236.48,24.1679 247.5,24.5 Z"/></g>
<g><path style="opacity:0.991" fill="#fd646f" d="M 54.5,39.5 C 108.167,39.5 161.833,39.5 215.5,39.5C 215.5,102.5 215.5,165.5 215.5,228.5C 214.354,226.525 212.687,225.025 210.5,224C 170.749,223.012 131.082,223.345 91.5,225C 90.2986,225.903 89.4652,227.069 89,228.5C 88.3333,300.167 88.3333,371.833 89,443.5C 89.8333,444.5 90.6667,445.5 91.5,446.5C 131.459,447.661 171.459,447.827 211.5,447C 213.35,446.31 214.684,445.144 215.5,443.5C 215.5,455.5 215.5,467.5 215.5,479.5C 161.664,479.832 107.997,479.499 54.5,478.5C 54.5,332.167 54.5,185.833 54.5,39.5 Z"/></g>
<g><path style="opacity:1" fill="#fc3581" d="M 215.5,39.5 C 226.167,39.5 236.833,39.5 247.5,39.5C 247.5,98.1667 247.5,156.833 247.5,215.5C 247.5,220.833 247.5,226.167 247.5,231.5C 247.5,313.833 247.5,396.167 247.5,478.5C 242.695,479.487 237.695,479.821 232.5,479.5C 226.833,479.5 221.167,479.5 215.5,479.5C 215.5,467.5 215.5,455.5 215.5,443.5C 215.5,371.833 215.5,300.167 215.5,228.5C 215.5,165.5 215.5,102.5 215.5,39.5 Z"/></g>
<g><path style="opacity:0.987" fill="#d3eefb" d="M 440.5,79.5 C 439.167,90.5 439.167,101.5 440.5,112.5C 440.417,118.166 438.084,122.666 433.5,126C 427.566,127.828 421.566,129.495 415.5,131C 412.567,133.264 410.4,136.098 409,139.5C 408.5,157.164 408.333,174.83 408.5,192.5C 405.5,192.5 402.5,192.5 399.5,192.5C 394.167,191.167 388.833,191.167 383.5,192.5C 380.833,192.5 378.167,192.5 375.5,192.5C 375.333,157.832 375.5,123.165 376,88.5C 382.474,69.9941 395.641,61.6608 415.5,63.5C 422.21,62.8707 428.543,64.0374 434.5,67C 437.976,70.4517 439.976,74.6184 440.5,79.5 Z"/></g>
<g><path style="opacity:1" fill="#ffcf64" d="M 146.5,71.5 C 148.39,71.2965 149.89,71.9632 151,73.5C 151.333,84.8333 151.667,96.1667 152,107.5C 153.167,108.667 154.333,109.833 155.5,111C 166.5,111.333 177.5,111.667 188.5,112C 193.143,114.072 194.643,117.572 193,122.5C 181,142.5 169,162.5 157,182.5C 155.333,183.833 153.667,183.833 152,182.5C 151.96,170.404 151.293,158.404 150,146.5C 149.097,145.299 147.931,144.465 146.5,144C 135.5,143.667 124.5,143.333 113.5,143C 110.523,141.855 108.856,139.688 108.5,136.5C 120.91,114.679 133.577,93.0126 146.5,71.5 Z"/></g>
<g><path style="opacity:0.968" fill="#5882a1" d="M 440.5,79.5 C 449.173,79.3336 457.84,79.5002 466.5,80C 469.333,80.8333 471.167,82.6667 472,85.5C 472.667,92.8333 472.667,100.167 472,107.5C 471.215,109.286 470.049,110.786 468.5,112C 459.173,112.5 449.839,112.666 440.5,112.5C 439.167,101.5 439.167,90.5 440.5,79.5 Z"/></g>
<g><path style="opacity:0.967" fill="#ecf4fe" d="M 399.5,192.5 C 399.667,248.501 399.5,304.501 399,360.5C 391.3,384.773 374.8,394.94 349.5,391C 333.483,386.315 323.649,375.815 320,359.5C 319.667,323.833 319.333,288.167 319,252.5C 316.607,240.109 309.107,233.275 296.5,232C 280.17,231.5 263.837,231.333 247.5,231.5C 247.5,226.167 247.5,220.833 247.5,215.5C 265.503,215.333 283.503,215.5 301.5,216C 319.115,219.614 330.282,230.114 335,247.5C 335.025,284.547 335.692,321.547 337,358.5C 343.543,373.798 354.71,378.631 370.5,373C 377.387,369.113 381.553,363.279 383,355.5C 383.5,301.168 383.667,246.834 383.5,192.5C 388.833,191.167 394.167,191.167 399.5,192.5 Z"/></g>
<g><path style="opacity:1" fill="#ebf3fe" d="M 215.5,228.5 C 215.5,300.167 215.5,371.833 215.5,443.5C 214.684,445.144 213.35,446.31 211.5,447C 171.459,447.827 131.459,447.661 91.5,446.5C 90.6667,445.5 89.8333,444.5 89,443.5C 88.3333,371.833 88.3333,300.167 89,228.5C 89.4652,227.069 90.2986,225.903 91.5,225C 131.082,223.345 170.749,223.012 210.5,224C 212.687,225.025 214.354,226.525 215.5,228.5 Z"/></g>
<g><path style="opacity:1" fill="#feee5c" d="M 167.5,287.5 C 162.5,287.5 157.5,287.5 152.5,287.5C 146.833,287.5 141.167,287.5 135.5,287.5C 135.334,278.161 135.5,268.827 136,259.5C 137.214,257.951 138.714,256.785 140.5,256C 147.833,255.333 155.167,255.333 162.5,256C 163.931,256.465 165.097,257.299 166,258.5C 167.448,268.061 167.948,277.727 167.5,287.5 Z"/></g>
<g><path style="opacity:1" fill="#bceb6d" d="M 135.5,287.5 C 141.167,287.5 146.833,287.5 152.5,287.5C 152.5,295.833 152.5,304.167 152.5,312.5C 141.5,312.5 130.5,312.5 119.5,312.5C 119.334,305.492 119.5,298.492 120,291.5C 121.214,289.951 122.714,288.785 124.5,288C 128.152,287.501 131.818,287.335 135.5,287.5 Z"/></g>
<g><path style="opacity:1" fill="#79c2a4" d="M 152.5,287.5 C 157.5,287.5 162.5,287.5 167.5,287.5C 171.182,287.335 174.848,287.501 178.5,288C 179.931,288.465 181.097,289.299 182,290.5C 183.429,297.719 183.929,305.053 183.5,312.5C 173.167,312.5 162.833,312.5 152.5,312.5C 152.5,304.167 152.5,295.833 152.5,287.5 Z"/></g>
<g><path style="opacity:1" fill="#78c2a3" d="M 119.5,312.5 C 130.5,312.5 141.5,312.5 152.5,312.5C 152.5,317.5 152.5,322.5 152.5,327.5C 141.5,327.5 130.5,327.5 119.5,327.5C 119.5,322.5 119.5,317.5 119.5,312.5 Z"/></g>
<g><path style="opacity:1" fill="#63aa8b" d="M 152.5,312.5 C 162.833,312.5 173.167,312.5 183.5,312.5C 183.5,317.5 183.5,322.5 183.5,327.5C 173.167,327.5 162.833,327.5 152.5,327.5C 152.5,322.5 152.5,317.5 152.5,312.5 Z"/></g>
<g><path style="opacity:1" fill="#bbeb6d" d="M 119.5,327.5 C 130.5,327.5 141.5,327.5 152.5,327.5C 152.5,333.167 152.5,338.833 152.5,344.5C 141.5,344.5 130.5,344.5 119.5,344.5C 119.5,338.833 119.5,333.167 119.5,327.5 Z"/></g>
<g><path style="opacity:1" fill="#77c1a3" d="M 152.5,327.5 C 162.833,327.5 173.167,327.5 183.5,327.5C 183.5,333.167 183.5,338.833 183.5,344.5C 173.167,344.5 162.833,344.5 152.5,344.5C 152.5,338.833 152.5,333.167 152.5,327.5 Z"/></g>
<g><path style="opacity:1" fill="#78c2a3" d="M 119.5,344.5 C 130.5,344.5 141.5,344.5 152.5,344.5C 152.5,349.5 152.5,354.5 152.5,359.5C 141.5,359.5 130.5,359.5 119.5,359.5C 119.5,354.5 119.5,349.5 119.5,344.5 Z"/></g>
<g><path style="opacity:1" fill="#63aa8b" d="M 152.5,344.5 C 162.833,344.5 173.167,344.5 183.5,344.5C 183.5,349.5 183.5,354.5 183.5,359.5C 173.167,359.5 162.833,359.5 152.5,359.5C 152.5,354.5 152.5,349.5 152.5,344.5 Z"/></g>
<g><path style="opacity:1" fill="#bbea6d" d="M 119.5,359.5 C 130.5,359.5 141.5,359.5 152.5,359.5C 152.5,365.167 152.5,370.833 152.5,376.5C 141.5,376.5 130.5,376.5 119.5,376.5C 119.5,370.833 119.5,365.167 119.5,359.5 Z"/></g>
<g><path style="opacity:1" fill="#77c1a3" d="M 152.5,359.5 C 162.833,359.5 173.167,359.5 183.5,359.5C 183.5,365.167 183.5,370.833 183.5,376.5C 173.167,376.5 162.833,376.5 152.5,376.5C 152.5,370.833 152.5,365.167 152.5,359.5 Z"/></g>
<g><path style="opacity:1" fill="#78c2a3" d="M 119.5,376.5 C 130.5,376.5 141.5,376.5 152.5,376.5C 152.5,381.5 152.5,386.5 152.5,391.5C 141.5,391.5 130.5,391.5 119.5,391.5C 119.5,386.5 119.5,381.5 119.5,376.5 Z"/></g>
<g><path style="opacity:1" fill="#63aa8b" d="M 152.5,376.5 C 162.833,376.5 173.167,376.5 183.5,376.5C 183.5,381.5 183.5,386.5 183.5,391.5C 173.167,391.5 162.833,391.5 152.5,391.5C 152.5,386.5 152.5,381.5 152.5,376.5 Z"/></g>
<g><path style="opacity:1" fill="#bceb6c" d="M 119.5,391.5 C 130.5,391.5 141.5,391.5 152.5,391.5C 152.5,399.5 152.5,407.5 152.5,415.5C 142.494,415.666 132.494,415.5 122.5,415C 121.299,414.097 120.465,412.931 120,411.5C 119.5,404.842 119.334,398.175 119.5,391.5 Z"/></g>
<g><path style="opacity:1" fill="#78c2a4" d="M 152.5,391.5 C 162.833,391.5 173.167,391.5 183.5,391.5C 183.666,398.175 183.5,404.842 183,411.5C 182.167,412.5 181.333,413.5 180.5,414.5C 171.22,415.473 161.887,415.807 152.5,415.5C 152.5,407.5 152.5,399.5 152.5,391.5 Z"/></g>
<g><path style="opacity:0.996" fill="#d3eefb" d="M 54.5,478.5 C 107.997,479.499 161.664,479.832 215.5,479.5C 221.167,479.5 226.833,479.5 232.5,479.5C 232.5,490.167 232.5,500.833 232.5,511.5C 169.167,511.5 105.833,511.5 42.5,511.5C 41.1639,509.99 39.9973,508.323 39,506.5C 38.3333,499.167 38.3333,491.833 39,484.5C 39.7845,482.714 40.9512,481.214 42.5,480C 46.3951,478.734 50.3951,478.234 54.5,478.5 Z"/></g>
<g><path style="opacity:0.995" fill="#b0e4f9" d="M 247.5,478.5 C 251.915,478.305 256.249,478.805 260.5,480C 261.333,480.833 262.167,481.667 263,482.5C 264.515,489.767 264.848,497.101 264,504.5C 263.867,507.404 262.7,509.738 260.5,511.5C 251.167,511.5 241.833,511.5 232.5,511.5C 232.5,500.833 232.5,490.167 232.5,479.5C 237.695,479.821 242.695,479.487 247.5,478.5 Z"/></g>
</svg>
