<svg width="40" height="40" viewBox="0 0 40 40" fill="none" xmlns="http://www.w3.org/2000/svg">
<circle cx="20" cy="20" r="20" fill="#A939C6"/>
<path d="M20.5977 10.4736V9.38015H23.0659C23.3109 9.38015 23.5151 9.17598 23.5151 8.93097V6.44917C23.5151 6.20417 23.3109 6 23.0659 6H20.1531C20.0261 6 19.9172 6.04991 19.8355 6.13158C19.7538 6.21324 19.6948 6.32213 19.6948 6.44917V10.4736C16.7094 10.6959 14.3184 13.0824 14.1006 16.0633H26.192C25.9742 13.0824 23.5831 10.6959 20.5977 10.4736Z" fill="white"/>
<path d="M31.0505 19.2349H9.24512V20.5325H31.0505V19.2349Z" fill="white"/>
<path d="M25.3199 31.644V21.4355H14.9707V31.644H17.0578V26.8982C17.0578 25.1968 18.4461 23.813 20.1521 23.813C20.9733 23.813 21.7537 24.1306 22.3344 24.7159C22.9197 25.3012 23.2373 26.0725 23.2373 26.8982V31.644H25.3199Z" fill="white"/>
<path d="M20.153 24.7109C18.9416 24.7109 17.957 25.691 17.957 26.8978V31.6391H22.3444V26.8978C22.3444 26.3125 22.113 25.759 21.7001 25.3461C21.2827 24.9333 20.7337 24.7109 20.153 24.7109Z" fill="white"/>
<path d="M27.5707 17.3743C27.5707 17.1474 27.3846 16.9614 27.1623 16.9614H13.1336C12.9022 16.9614 12.7207 17.152 12.7207 17.3743V18.3362H27.5661V17.3743H27.5707Z" fill="white"/>
<path d="M31.2908 32.542H9V34.0302H31.2908V32.542Z" fill="white"/>
<path d="M30.2707 31.644V21.4355H26.2236V31.644H30.2707ZM28.5829 24.0126C28.5829 23.7676 28.7826 23.5635 29.0321 23.5635C29.2771 23.5635 29.4813 23.7676 29.4813 24.0126V29.0579C29.4813 29.3029 29.2771 29.5071 29.0321 29.5071C28.7826 29.5071 28.5829 29.3029 28.5829 29.0579V24.0126ZM27.0131 24.0126C27.0131 23.7676 27.2173 23.5635 27.4623 23.5635C27.7118 23.5635 27.9114 23.7676 27.9114 24.0126V29.0579C27.9114 29.3029 27.7118 29.5071 27.4623 29.5071C27.2173 29.5071 27.0131 29.3029 27.0131 29.0579V24.0126Z" fill="white"/>
<path d="M14.068 31.644V21.4355H10.0254V31.644H14.068ZM12.3802 24.0126C12.3802 23.7676 12.5843 23.5635 12.8293 23.5635C13.0743 23.5635 13.2785 23.7676 13.2785 24.0126V29.0579C13.2785 29.3029 13.0743 29.5071 12.8293 29.5071C12.5843 29.5071 12.3802 29.3029 12.3802 29.0579V24.0126ZM10.8148 24.0126C10.8148 23.7676 11.0145 23.5635 11.264 23.5635C11.509 23.5635 11.7132 23.7676 11.7132 24.0126V29.0579C11.7132 29.3029 11.509 29.5071 11.264 29.5071C11.0145 29.5071 10.8148 29.3029 10.8148 29.0579V24.0126Z" fill="white"/>
</svg>
