<svg width="140" height="140" viewBox="0 0 140 140" fill="none" xmlns="http://www.w3.org/2000/svg">
<rect width="140" height="140" rx="16" fill="#223080"/>
<path d="M72.02 46.7801V44.1147H78.0366C78.6339 44.1147 79.1315 43.617 79.1315 43.0197V36.9699C79.1315 36.3727 78.6339 35.875 78.0366 35.875H70.9361C70.6264 35.875 70.361 35.9967 70.1619 36.1957C69.9628 36.3948 69.8191 36.6603 69.8191 36.9699V46.7801C62.5416 47.3221 56.713 53.1396 56.1821 60.406H85.6569C85.1261 53.1396 79.2975 47.3221 72.02 46.7801Z" fill="white"/>
<path d="M97.5016 68.1377H44.3474V71.3008H97.5016V68.1377Z" fill="white"/>
<path d="M83.533 98.3869V73.502H58.3052V98.3869H63.3928V86.8181C63.3928 82.6707 66.7771 79.2974 70.9357 79.2974C72.9375 79.2974 74.8398 80.0716 76.2555 81.4983C77.6822 82.925 78.4564 84.8052 78.4564 86.8181V98.3869H83.533Z" fill="white"/>
<path d="M70.9355 81.4854C67.9825 81.4854 65.5825 83.8743 65.5825 86.8163V98.3739H76.2775V86.8163C76.2775 85.3895 75.7134 84.0402 74.707 83.0337C73.6895 82.0273 72.3512 81.4854 70.9355 81.4854Z" fill="white"/>
<path d="M89.0191 63.6022C89.0191 63.0492 88.5656 62.5957 88.0237 62.5957H53.8263C53.2622 62.5957 52.8198 63.0602 52.8198 63.6022V65.9469H89.008V63.6022H89.0191Z" fill="white"/>
<path d="M98.0876 100.576H43.75V104.203H98.0876V100.576Z" fill="white"/>
<path d="M95.5972 98.3869V73.502H85.7317V98.3869H95.5972ZM91.4829 79.784C91.4829 79.1868 91.9695 78.6891 92.5778 78.6891C93.175 78.6891 93.6727 79.1868 93.6727 79.784V92.0827C93.6727 92.6799 93.175 93.1776 92.5778 93.1776C91.9695 93.1776 91.4829 92.6799 91.4829 92.0827V79.784ZM87.6561 79.784C87.6561 79.1868 88.1538 78.6891 88.7511 78.6891C89.3594 78.6891 89.846 79.1868 89.846 79.784V92.0827C89.846 92.6799 89.3594 93.1776 88.7511 93.1776C88.1538 93.1776 87.6561 92.6799 87.6561 92.0827V79.784Z" fill="white"/>
<path d="M56.1027 98.3869V73.502H46.2483V98.3869H56.1027ZM51.9884 79.784C51.9884 79.1868 52.4861 78.6891 53.0833 78.6891C53.6806 78.6891 54.1783 79.1868 54.1783 79.784V92.0827C54.1783 92.6799 53.6806 93.1776 53.0833 93.1776C52.4861 93.1776 51.9884 92.6799 51.9884 92.0827V79.784ZM48.1727 79.784C48.1727 79.1868 48.6594 78.6891 49.2677 78.6891C49.8649 78.6891 50.3626 79.1868 50.3626 79.784V92.0827C50.3626 92.6799 49.8649 93.1776 49.2677 93.1776C48.6594 93.1776 48.1727 92.6799 48.1727 92.0827V79.784Z" fill="white"/>
</svg>
