<svg width="70" height="70" viewBox="0 0 70 70" fill="none" xmlns="http://www.w3.org/2000/svg">
<rect width="70" height="70" rx="16" fill="#006400"/>
<path d="M36.0098 23.3901V22.0573H39.0181C39.3167 22.0573 39.5655 21.8085 39.5655 21.5099V18.485C39.5655 18.1863 39.3167 17.9375 39.0181 17.9375H35.4678C35.313 17.9375 35.1803 17.9983 35.0807 18.0979C34.9812 18.1974 34.9093 18.3301 34.9093 18.485V23.3901C31.2706 23.661 28.3563 26.5698 28.0908 30.203H42.8282C42.5628 26.5698 39.6485 23.661 36.0098 23.3901Z" fill="white"/>
<path d="M48.7509 34.0688H22.1738V35.6504H48.7509V34.0688Z" fill="white"/>
<path d="M41.7662 49.1934V36.751H29.1523V49.1934H31.6961V43.4091C31.6961 41.3353 33.3883 39.6487 35.4676 39.6487C36.4685 39.6487 37.4197 40.0358 38.1275 40.7492C38.8409 41.4625 39.228 42.4026 39.228 43.4091V49.1934H41.7662Z" fill="white"/>
<path d="M35.468 40.7428C33.9915 40.7428 32.7915 41.9373 32.7915 43.4082V49.1871H38.139V43.4082C38.139 42.6949 37.857 42.0202 37.3537 41.517C36.845 41.0138 36.1759 40.7428 35.468 40.7428Z" fill="white"/>
<path d="M44.5093 31.801C44.5093 31.5245 44.2826 31.2978 44.0116 31.2978H26.9129C26.6309 31.2978 26.4097 31.53 26.4097 31.801V32.9734H44.5038V31.801H44.5093Z" fill="white"/>
<path d="M49.0438 50.2878H21.875V52.1016H49.0438V50.2878Z" fill="white"/>
<path d="M47.7985 49.1934V36.751H42.8657V49.1934H47.7985ZM45.7413 39.892C45.7413 39.5934 45.9846 39.3445 46.2888 39.3445C46.5874 39.3445 46.8362 39.5934 46.8362 39.892V46.0413C46.8362 46.34 46.5874 46.5888 46.2888 46.5888C45.9846 46.5888 45.7413 46.34 45.7413 46.0413V39.892ZM43.8279 39.892C43.8279 39.5934 44.0768 39.3445 44.3754 39.3445C44.6796 39.3445 44.9229 39.5934 44.9229 39.892V46.0413C44.9229 46.34 44.6796 46.5888 44.3754 46.5888C44.0768 46.5888 43.8279 46.34 43.8279 46.0413V39.892Z" fill="white"/>
<path d="M28.0512 49.1934V36.751H23.124V49.1934H28.0512ZM25.9941 39.892C25.9941 39.5934 26.2429 39.3445 26.5416 39.3445C26.8402 39.3445 27.089 39.5934 27.089 39.892V46.0413C27.089 46.34 26.8402 46.5888 26.5416 46.5888C26.2429 46.5888 25.9941 46.34 25.9941 46.0413V39.892ZM24.0862 39.892C24.0862 39.5934 24.3296 39.3445 24.6337 39.3445C24.9323 39.3445 25.1812 39.5934 25.1812 39.892V46.0413C25.1812 46.34 24.9323 46.5888 24.6337 46.5888C24.3296 46.5888 24.0862 46.34 24.0862 46.0413V39.892Z" fill="white"/>
</svg>
