<svg width="42" height="42" viewBox="0 0 42 42" fill="none" xmlns="http://www.w3.org/2000/svg">
<circle cx="21" cy="21" r="21" fill="#DE4422"/>
<path d="M31 17C31 16.7594 30.8031 16.5625 30.5625 16.5625H24.875C24.6344 16.5625 24.4375 16.3656 24.4375 16.125V10.4375C24.4375 10.1969 24.2406 10 24 10H17C16.7594 10 16.5625 10.1969 16.5625 10.4375V16.125C16.5625 16.3656 16.3656 16.5625 16.125 16.5625H10.4375C10.1969 16.5625 10 16.7594 10 17V24C10 24.2406 10.1969 24.4375 10.4375 24.4375H16.125C16.3656 24.4375 16.5625 24.6344 16.5625 24.875V30.5625C16.5625 30.8031 16.7594 31 17 31H24C24.2406 31 24.4375 30.8031 24.4375 30.5625V24.875C24.4375 24.6344 24.6344 24.4375 24.875 24.4375H30.5625C30.8031 24.4375 31 24.2406 31 24V17Z" fill="white"/>
</svg>
