<svg width="70" height="70" viewBox="0 0 70 70" fill="none" xmlns="http://www.w3.org/2000/svg">
<rect width="70" height="70" rx="16" fill="#DE4422"/>
<path d="M49 30.3333C49 30.0125 48.7375 29.75 48.4167 29.75H40.8333C40.5125 29.75 40.25 29.4875 40.25 29.1667V21.5833C40.25 21.2625 39.9875 21 39.6667 21H30.3333C30.0125 21 29.75 21.2625 29.75 21.5833V29.1667C29.75 29.4875 29.4875 29.75 29.1667 29.75H21.5833C21.2625 29.75 21 30.0125 21 30.3333V39.6667C21 39.9875 21.2625 40.25 21.5833 40.25H29.1667C29.4875 40.25 29.75 40.5125 29.75 40.8333V48.4167C29.75 48.7375 30.0125 49 30.3333 49H39.6667C39.9875 49 40.25 48.7375 40.25 48.4167V40.8333C40.25 40.5125 40.5125 40.25 40.8333 40.25H48.4167C48.7375 40.25 49 39.9875 49 39.6667V30.3333Z" fill="white"/>
</svg>
