<svg width="140" height="140" viewBox="0 0 140 140" fill="none" xmlns="http://www.w3.org/2000/svg">
<rect width="140" height="140" rx="16" fill="#CC2527"/>
<path d="M98 60.6667C98 60.025 97.475 59.5 96.8333 59.5H81.6667C81.025 59.5 80.5 58.975 80.5 58.3333V43.1667C80.5 42.525 79.975 42 79.3333 42H60.6667C60.025 42 59.5 42.525 59.5 43.1667V58.3333C59.5 58.975 58.975 59.5 58.3333 59.5H43.1667C42.525 59.5 42 60.025 42 60.6667V79.3333C42 79.975 42.525 80.5 43.1667 80.5H58.3333C58.975 80.5 59.5 81.025 59.5 81.6667V96.8333C59.5 97.475 60.025 98 60.6667 98H79.3333C79.975 98 80.5 97.475 80.5 96.8333V81.6667C80.5 81.025 81.025 80.5 81.6667 80.5H96.8333C97.475 80.5 98 79.975 98 79.3333V60.6667Z" fill="white"/>
</svg>
