<svg width="140" height="140" viewBox="0 0 140 140" fill="none" xmlns="http://www.w3.org/2000/svg">
<rect width="140" height="140" rx="16" fill="#8B4513"/>
<path fill-rule="evenodd" clip-rule="evenodd" d="M101.5 96.9257V101.5H38.5V96.9257H101.5ZM96.9253 91.2558V91.2585C97.5306 91.2585 98.0209 91.7488 98.0209 92.3542C98.0209 92.9595 97.5306 93.4498 96.9253 93.4498H43.0744C42.4691 93.4498 41.9788 92.9595 41.9788 92.3542C41.9788 91.7488 42.4691 91.2585 43.0744 91.2585L96.9253 91.2558ZM43.0744 64.7219C42.4718 64.7219 41.9815 64.2316 41.9815 63.629C41.9815 63.0264 42.4718 62.5388 43.0744 62.5388H96.9253C97.5279 62.5388 98.0182 63.0263 98.0182 63.629C98.0182 64.2316 97.5279 64.7219 96.9253 64.7219H43.0744ZM87.7822 66.9132V89.0673H92.3565L92.3538 66.9132H87.7822ZM74.4045 66.9132V89.0673H78.9788L78.9761 66.9132H74.4045ZM47.6491 66.9132V89.0673H52.2234L52.2207 66.9132H47.6491ZM61.0268 66.9132V89.0673H65.6011L65.5984 66.9132H61.0268ZM70.0002 38.5L38.5004 59.0568H101.5L70.0002 38.5ZM70.0002 44.2275C72.5284 44.2275 74.8046 45.7477 75.7715 48.0842C76.7412 50.4179 76.2043 53.105 74.4184 54.8936C72.6325 56.6795 69.9427 57.2136 67.609 56.2467C65.2753 55.2798 63.7524 53.0009 63.7524 50.4754C63.7524 47.0241 66.5489 44.2275 70.0002 44.2275ZM70.0002 46.4188C71.6409 46.4188 73.12 47.4048 73.7473 48.9223C74.3773 50.4371 74.0295 52.1819 72.8681 53.3433C71.7095 54.5019 69.9647 54.8498 68.4472 54.2225C66.9324 53.5953 65.9436 52.1162 65.9436 50.4754C65.9436 49.3989 66.3709 48.3663 67.1324 47.6048C67.8911 46.846 68.9238 46.4188 70.0002 46.4188Z" fill="white"/>
</svg>
