<svg width="70" height="70" viewBox="0 0 70 70" fill="none" xmlns="http://www.w3.org/2000/svg">
<rect width="70" height="70" rx="16" fill="#8B4513"/>
<path fill-rule="evenodd" clip-rule="evenodd" d="M50.7498 48.4629V50.75H19.25V48.4629H50.7498ZM48.4627 45.6279V45.6293C48.7653 45.6293 49.0105 45.8744 49.0105 46.1771C49.0105 46.4797 48.7653 46.7249 48.4627 46.7249H21.5372C21.2345 46.7249 20.9894 46.4797 20.9894 46.1771C20.9894 45.8744 21.2345 45.6293 21.5372 45.6293L48.4627 45.6279ZM21.5372 32.3609C21.2359 32.3609 20.9908 32.1158 20.9908 31.8145C20.9908 31.5132 21.2359 31.2694 21.5372 31.2694H48.4627C48.764 31.2694 49.0091 31.5132 49.0091 31.8145C49.0091 32.1158 48.764 32.3609 48.4627 32.3609H21.5372ZM43.8911 33.4566V44.5336H46.1782L46.1769 33.4566H43.8911ZM37.2023 33.4566V44.5336H39.4894L39.488 33.4566H37.2023ZM23.8246 33.4566V44.5336H26.1117L26.1103 33.4566H23.8246ZM30.5134 33.4566V44.5336H32.8005L32.7992 33.4566H30.5134ZM35.0001 19.25L19.2502 29.5284H50.75L35.0001 19.25ZM35.0001 22.1138C36.2642 22.1138 37.4023 22.8739 37.8858 24.0421C38.3706 25.2089 38.1022 26.5525 37.2092 27.4468C36.3162 28.3398 34.9714 28.6068 33.8045 28.1234C32.6377 27.6399 31.8762 26.5004 31.8762 25.2377C31.8762 23.512 33.2745 22.1138 35.0001 22.1138ZM35.0001 23.2094C35.8205 23.2094 36.56 23.7024 36.8737 24.4612C37.1887 25.2186 37.0147 26.0909 36.434 26.6716C35.8547 27.2509 34.9823 27.4249 34.2236 27.1113C33.4662 26.7976 32.9718 26.0581 32.9718 25.2377C32.9718 24.6994 33.1855 24.1831 33.5662 23.8024C33.9456 23.423 34.4619 23.2094 35.0001 23.2094Z" fill="white"/>
</svg>
