<svg width="40" height="40" viewBox="0 0 40 40" fill="none" xmlns="http://www.w3.org/2000/svg">
<circle cx="20" cy="20" r="20" fill="#2F9CFF"/>
<path fill-rule="evenodd" clip-rule="evenodd" d="M31.9998 30.2574V32H8V30.2574H31.9998ZM30.2573 28.0974V28.0985C30.4879 28.0985 30.6746 28.2853 30.6746 28.5159C30.6746 28.7465 30.4879 28.9333 30.2573 28.9333H9.74264C9.51203 28.9333 9.32525 28.7465 9.32525 28.5159C9.32525 28.2853 9.51203 28.0985 9.74264 28.0985L30.2573 28.0974ZM9.74264 17.9893C9.51307 17.9893 9.32629 17.8025 9.32629 17.5729C9.32629 17.3434 9.51307 17.1576 9.74264 17.1576H30.2573C30.4868 17.1576 30.6736 17.3434 30.6736 17.5729C30.6736 17.8025 30.4868 17.9893 30.2573 17.9893H9.74264ZM26.7742 18.8241V27.2637H28.5168L28.5157 18.8241H26.7742ZM21.6779 18.8241V27.2637H23.4205L23.4195 18.8241H21.6779ZM11.4854 18.8241V27.2637H13.228L13.2269 18.8241H11.4854ZM16.5816 18.8241V27.2637H18.3242L18.3232 18.8241H16.5816ZM20.0001 8L8.00016 15.8311H32L20.0001 8ZM20.0001 10.1819C20.9632 10.1819 21.8303 10.761 22.1987 11.6511C22.5681 12.5401 22.3635 13.5638 21.6832 14.2452C21.0029 14.9255 19.9782 15.129 19.0891 14.7607C18.2001 14.3923 17.6199 13.5241 17.6199 12.5621C17.6199 11.2473 18.6853 10.1819 20.0001 10.1819ZM20.0001 11.0167C20.6251 11.0167 21.1886 11.3923 21.4276 11.9704C21.6676 12.5475 21.535 13.2121 21.0926 13.6546C20.6512 14.096 19.9865 14.2285 19.4084 13.9895C18.8314 13.7506 18.4547 13.1871 18.4547 12.5621C18.4547 12.152 18.6175 11.7586 18.9076 11.4685C19.1966 11.1794 19.59 11.0167 20.0001 11.0167Z" fill="white"/>
</svg>
