<svg width="40" height="40" viewBox="0 0 40 40" fill="none" xmlns="http://www.w3.org/2000/svg">
<circle cx="20" cy="20" r="20" fill="#6454BF"/>
<path fill-rule="evenodd" clip-rule="evenodd" d="M31 19.5V28H29.3077V24.5714H10.6923V28H9V11H10.6923V19.5H31ZM16.6154 17.8V16.1935C16.6154 14.7336 17.7937 13.55 19.2469 13.55H26.5861C27.757 13.55 28.8792 14.0175 29.7062 14.8484C30.491 15.6367 30.9501 16.6907 30.9966 17.8001L16.6154 17.8ZM13.657 13.9177C14.7242 13.9177 15.5904 14.7879 15.5904 15.8589C15.5904 16.931 14.7242 17.8001 13.657 17.8001C12.5908 17.8001 11.7246 16.931 11.7246 15.8589C11.7246 14.7879 12.5908 13.9177 13.657 13.9177Z" fill="white"/>
</svg>
