<svg width="140" height="140" viewBox="0 0 140 140" fill="none" xmlns="http://www.w3.org/2000/svg">
<rect width="140" height="140" rx="16" fill="#FE6EC5"/>
<path fill-rule="evenodd" clip-rule="evenodd" d="M98.875 66.6875V89H94.4327V80H45.5673V89H41.125V44.375H45.5673V66.6875H98.875ZM61.1154 62.225V58.008C61.1154 54.1758 64.2084 51.0687 68.0232 51.0687H87.2886C90.3621 51.0687 93.308 52.296 95.4788 54.477C97.5389 56.5464 98.7439 59.3132 98.866 62.2253L61.1154 62.225ZM53.3495 52.0341C56.1509 52.0341 58.4248 54.3183 58.4248 57.1297C58.4248 59.9438 56.1509 62.2253 53.3495 62.2253C50.5509 62.2253 48.277 59.9438 48.277 57.1297C48.277 54.3183 50.5509 52.0341 53.3495 52.0341Z" fill="white"/>
</svg>
