<svg width="70" height="70" viewBox="0 0 70 70" fill="none" xmlns="http://www.w3.org/2000/svg">
<rect width="70" height="70" rx="16" fill="#6454BF"/>
<path fill-rule="evenodd" clip-rule="evenodd" d="M49.4375 33.3438V44.5H47.2163V40H22.7837V44.5H20.5625V22.1875H22.7837V33.3438H49.4375ZM30.5577 31.1125V29.004C30.5577 27.0879 32.1042 25.5344 34.0116 25.5344H43.6443C45.1811 25.5344 46.654 26.148 47.7394 27.2385C48.7694 28.2732 49.372 29.6566 49.433 31.1126L30.5577 31.1125ZM26.6748 26.017C28.0755 26.017 29.2124 27.1592 29.2124 28.5648C29.2124 29.9719 28.0755 31.1126 26.6748 31.1126C25.2754 31.1126 24.1385 29.9719 24.1385 28.5648C24.1385 27.1592 25.2754 26.017 26.6748 26.017Z" fill="white"/>
</svg>
