<svg width="140" height="140" viewBox="0 0 140 140" fill="none" xmlns="http://www.w3.org/2000/svg">
<rect width="140" height="140" rx="16" fill="#B973FF"/>
<rect width="84" height="84" transform="translate(30 30)" fill="#B973FF"/>
<path fill-rule="evenodd" clip-rule="evenodd" d="M66.1514 71.3858V94.077H97.1592V71.4913C97.1592 71.238 96.8637 70.9214 96.5893 70.9214H66.5947C66.3414 70.9214 66.1514 71.1114 66.1514 71.3647M74.3624 80.4834H70.7741C70.5208 80.4834 70.3308 80.2934 70.3308 80.0401C70.3308 78.9214 70.2041 77.1272 70.4363 76.114C71.4495 75.8818 72.9482 76.0084 74.0247 76.0084C74.4047 76.0084 74.8057 76.1984 74.8057 76.5784V79.829C74.8057 80.1667 74.7002 80.5045 74.3624 80.5045V80.4834ZM83.4601 80.4834H79.8717C79.6184 80.4834 79.4284 80.2934 79.4284 80.0401C79.4284 78.9214 79.3017 77.1272 79.5339 76.114C80.5471 75.8818 82.0458 76.0084 83.1223 76.0084C83.5023 76.0084 83.9033 76.1984 83.9033 76.5784V79.829C83.9033 80.1667 83.7978 80.5045 83.4601 80.5045V80.4834ZM92.5577 80.4834H88.9693C88.716 80.4834 88.526 80.2934 88.526 80.0401C88.526 78.9214 88.3994 77.1272 88.6315 76.114C89.6447 75.8818 91.1434 76.0084 92.2199 76.0084C92.7476 76.0084 93.0009 76.2617 93.0009 76.7894C93.0009 78.1404 93.2964 80.5045 92.5577 80.5045V80.4834ZM74.2358 90.362H70.9851C70.6474 90.362 70.3097 90.2564 70.3097 89.9187V86.3303C70.3097 86.077 70.4996 85.8871 70.7529 85.8871C71.8717 85.8871 73.6659 85.7604 74.6791 85.9926C74.9112 87.0058 74.7846 88.6944 74.7846 89.8132C74.7846 90.0665 74.4891 90.3831 74.2147 90.3831L74.2358 90.362ZM83.3334 90.362H80.0828C79.745 90.362 79.4073 90.2564 79.4073 89.9187V86.3303C79.4073 86.077 79.5973 85.8871 79.8506 85.8871C80.9693 85.8871 82.7635 85.7604 83.7767 85.9926C84.0089 87.0058 83.8822 88.6944 83.8822 89.8132C83.8822 90.0665 83.5867 90.3831 83.3123 90.3831L83.3334 90.362ZM92.431 90.362H89.1804C88.8426 90.362 88.5049 90.2564 88.5049 89.9187V86.3303C88.5049 86.077 88.6949 85.8871 88.9482 85.8871C90.0669 85.8871 91.8611 85.7604 92.8743 85.9926C93.1065 87.0058 92.9798 88.6944 92.9798 89.8132C92.9798 90.0665 92.6843 90.3831 92.4099 90.3831L92.431 90.362Z" fill="white"/>
<path fill-rule="evenodd" clip-rule="evenodd" d="M50.7656 65.665V79.8075C50.7656 80.0608 50.85 80.1452 51.1033 80.1452H64.5914V71.7231C64.5914 70.2666 65.4991 69.359 66.9556 69.359H74.1534V61.6123C74.1534 61.0424 73.3935 61.4012 72.9925 61.4645L68.4965 62.2455C66.449 62.5833 64.5281 62.9632 62.4806 63.3009L52.0743 65.1373C51.5888 65.2218 50.7867 65.2007 50.7867 65.6439M58.7445 70.3722C57.7102 70.6044 55.9371 70.4777 54.8184 70.4777C54.5651 70.4777 54.3751 70.2877 54.3751 70.0344V66.446C54.3751 66.1083 54.7128 66.0028 55.0506 66.0028H58.3012C58.5545 66.0028 58.8711 66.2983 58.8711 66.5727C58.8711 67.2271 58.9556 69.9289 58.7656 70.3933L58.7445 70.3722ZM58.069 78.351H55.2617C54.8817 78.351 54.8184 78.2666 54.4806 78.2455C54.2485 77.2112 54.3751 75.4381 54.3751 74.3194C54.3751 74.0661 54.5651 73.8761 54.8184 73.8761H58.4068C59.1455 73.8761 58.85 76.2191 58.85 77.5912C58.85 78.1189 58.5967 78.3722 58.069 78.3722V78.351Z" fill="white"/>
<path fill-rule="evenodd" clip-rule="evenodd" d="M45.0449 96.1029C45.0449 97.5383 44.7916 98.9103 45.4882 98.9103H98.5118C99.2084 98.9103 98.9551 97.5383 98.9551 96.1029C98.9551 95.7652 98.6174 95.6597 98.2796 95.6597H45.7204C45.3826 95.6597 45.0449 95.7652 45.0449 96.1029Z" fill="white"/>
<path d="M94.9235 48.8198H89.752V69.3791H94.9235V48.8198Z" fill="white"/>
<path fill-rule="evenodd" clip-rule="evenodd" d="M46.9438 94.0753H50.089V86.3286C50.089 85.6743 50.6589 85.0832 51.3343 85.0832H61.8884C62.6905 85.0832 63.1338 85.8642 63.1338 86.7719V94.0753H64.5903V81.7271H46.965V94.0753H46.9438Z" fill="white"/>
<path fill-rule="evenodd" clip-rule="evenodd" d="M47.5135 61.6118C47.5135 63.7649 47.3025 63.4905 47.8513 64.3137C48.4634 64.3137 49.1178 64.1237 49.6877 64.0182L55.3447 63.0472C61.466 62.034 67.8196 60.7886 73.9832 59.7754C74.7008 59.6488 75.1652 59.5643 75.8829 59.4377C77.6771 59.1422 77.3815 59.3744 77.3815 56.567C77.3815 56.2926 77.1916 56.2293 77.0438 55.9971C76.4739 55.9971 75.8195 56.187 75.2074 56.2926L62.1204 58.5934C59.6507 58.9944 57.0966 59.501 54.6692 59.9021C53.3816 60.1132 52.2207 60.3242 50.9542 60.5564C50.2576 60.6831 49.7299 60.7675 49.0544 60.8942C48.4634 60.9997 47.5346 60.9786 47.5346 61.6118" fill="white"/>
<path d="M85.3605 53.3154H80.189V69.3787H85.3605V53.3154Z" fill="white"/>
<path fill-rule="evenodd" clip-rule="evenodd" d="M51.5674 86.8983V94.0962H55.8312V86.8983C55.8312 86.645 55.7468 86.5605 55.4935 86.5605H51.9051C51.6518 86.5605 51.5674 86.645 51.5674 86.8983Z" fill="white"/>
<path fill-rule="evenodd" clip-rule="evenodd" d="M57.2876 87.11V93.7379C57.2876 93.9912 57.372 94.0756 57.6253 94.0756H61.5514V86.54H57.3931C57.3298 86.7933 57.2876 86.7933 57.2876 87.11Z" fill="white"/>
<path fill-rule="evenodd" clip-rule="evenodd" d="M89.752 45.6755V47.2375H94.9235C94.9235 46.3509 95.1134 45 94.4802 45H90.2163C89.8786 45 89.7731 45.3377 89.7731 45.6755" fill="white"/>
<path fill-rule="evenodd" clip-rule="evenodd" d="M80.189 50.171V51.7541H85.3605C85.3605 50.8675 85.5504 49.5166 84.9172 49.5166H80.6533C80.3156 49.5166 80.2101 49.8543 80.2101 50.1921" fill="white"/>
</svg>
