<svg width="42" height="42" viewBox="0 0 42 42" fill="none" xmlns="http://www.w3.org/2000/svg">
<circle cx="21" cy="21" r="21" fill="#194DBD"/>
<path fill-rule="evenodd" clip-rule="evenodd" d="M10.4005 32.5115H16.8005V20.9307H13.9312L10.4004 24.6456V32.5127L10.4005 32.5115ZM17.1778 24.949V32.5115H29.7107V24.949H17.1778ZM14.1858 25.4002C14.0812 25.4002 13.9971 25.3161 13.9971 25.2115C13.9971 25.107 14.0812 25.0229 14.1858 25.0229H15.1915C15.296 25.0229 15.3801 25.107 15.3801 25.2115V26.1172C15.3801 26.2218 15.296 26.3059 15.1915 26.3059C15.0869 26.3059 15.0028 26.2218 15.0028 26.1172V25.4002L14.1858 25.4002ZM12.2494 25.4002C12.1449 25.4002 12.0608 25.3161 12.0608 25.2115C12.0608 25.107 12.1449 25.0229 12.2494 25.0229H13.2551C13.3597 25.0229 13.4437 25.107 13.4437 25.2115V26.1172C13.4437 26.2218 13.3597 26.3059 13.2551 26.3059C13.1506 26.3059 13.0665 26.2218 13.0665 26.1172V25.4002L12.2494 25.4002ZM14.1199 27.2161C14.0153 27.2161 13.9313 27.132 13.9313 27.0274C13.9313 26.9229 14.0153 26.8388 14.1199 26.8388H15.1256C15.2301 26.8388 15.3142 26.9229 15.3142 27.0274V27.9331C15.3142 28.0377 15.2301 28.1218 15.1256 28.1218C15.021 28.1218 14.9369 28.0377 14.9369 27.9331V27.2161L14.1199 27.2161ZM12.1835 27.2161C12.079 27.2161 11.9949 27.132 11.9949 27.0274C11.9949 26.9229 12.079 26.8388 12.1835 26.8388H13.1892C13.2938 26.8388 13.3779 26.9229 13.3779 27.0274V27.9331C13.3779 28.0377 13.2938 28.1218 13.1892 28.1218C13.0847 28.1218 13.0006 28.0377 13.0006 27.9331V27.2161L12.1835 27.2161ZM14.1199 29.207C14.0153 29.207 13.9313 29.1229 13.9313 29.0184C13.9313 28.9138 14.0153 28.8297 14.1199 28.8297H15.1256C15.2301 28.8297 15.3142 28.9138 15.3142 29.0184V29.9241C15.3142 30.0286 15.2301 30.1127 15.1256 30.1127C15.021 30.1127 14.9369 30.0286 14.9369 29.9241V29.207L14.1199 29.207ZM12.1835 29.207C12.079 29.207 11.9949 29.1229 11.9949 29.0184C11.9949 28.9138 12.079 28.8297 12.1835 28.8297H13.1892C13.2938 28.8297 13.3779 28.9138 13.3779 29.0184V29.9241C13.3779 30.0286 13.2938 30.1127 13.1892 30.1127C13.0847 30.1127 13.0006 30.0286 13.0006 29.9241V29.207L12.1835 29.207ZM14.1199 23.5773C14.0153 23.5773 13.9313 23.4932 13.9313 23.3887C13.9313 23.2841 14.0153 23.2001 14.1199 23.2001H15.1256C15.2301 23.2001 15.3142 23.2841 15.3142 23.3887V24.2944C15.3142 24.3989 15.2301 24.483 15.1256 24.483C15.021 24.483 14.9369 24.3989 14.9369 24.2944V23.5773L14.1199 23.5773ZM19.8575 21.1023V19.3637C19.8575 18.7569 19.67 18.3807 19.3689 18.1534C19.0711 17.9296 18.6689 17.8591 18.2291 17.8591H17.762C17.3223 17.8591 16.92 17.9194 16.6222 18.1387C16.32 18.3603 16.1325 18.7375 16.1325 19.3625V20.5512H15.5143V18.9466C15.5143 18.4716 15.7506 18.0375 16.1302 17.7228C16.5154 17.4034 17.0472 17.2057 17.6336 17.2057H18.3075C18.8938 17.2057 19.4257 17.4035 19.8109 17.7228C20.1904 18.0375 20.4268 18.4716 20.4268 18.9466V21.2114C20.4268 21.2205 20.4279 21.2285 20.4302 21.2375L19.8473 21.1478C19.8541 21.1341 19.8586 21.1194 19.8586 21.1035L19.8575 21.1023ZM26.3838 16.3887C26.3315 16.3887 26.2894 16.3467 26.2894 16.2944C26.2894 16.2421 26.3315 16.2001 26.3838 16.2001H27.5156L27.4792 15.2933H25.7405L25.4792 22.0194L27.7667 22.3739L27.5246 16.3888L26.3838 16.3887ZM23.7281 21.9387L25.3633 22.1921C25.3656 22.1921 25.3678 22.1932 25.3713 22.1932L27.8463 22.5762C27.8485 22.5762 27.8519 22.5773 27.8542 22.5773L27.936 22.5898C28.0644 22.6103 28.1758 22.6739 28.2542 22.766C28.3326 22.858 28.3792 22.9773 28.3792 23.1069V24.5705H18.9075V21.8023C18.9075 21.7217 18.9234 21.6489 18.953 21.583C18.9836 21.5171 19.0291 21.4569 19.0893 21.4057C19.1496 21.3546 19.2155 21.3182 19.2859 21.2978C19.3564 21.2773 19.4314 21.2739 19.5098 21.2853L21.1996 21.5467C21.2018 21.5467 21.2041 21.5478 21.2075 21.5478L23.7189 21.9364C23.7223 21.9375 23.7246 21.9375 23.728 21.9375L23.7281 21.9387ZM22.2372 15.7467C22.1849 15.7467 22.1428 15.7047 22.1428 15.6524C22.1428 15.6001 22.1849 15.5581 22.2372 15.5581H23.3724L23.3326 14.6512H21.594L21.3167 21.3739L23.6394 21.7341L23.3803 15.7466L22.2372 15.7467ZM26.4088 26.9854C26.3043 26.9854 26.2202 26.9013 26.2202 26.7968C26.2202 26.6922 26.3043 26.6081 26.4088 26.6081H27.6179C27.7224 26.6081 27.8065 26.6922 27.8065 26.7968V27.7024C27.8065 27.807 27.7224 27.8911 27.6179 27.8911C27.5133 27.8911 27.4292 27.807 27.4292 27.7024V26.9854L26.4088 26.9854ZM24.0815 26.9854C23.977 26.9854 23.8929 26.9013 23.8929 26.7968C23.8929 26.6922 23.977 26.6081 24.0815 26.6081H25.2906C25.3951 26.6081 25.4792 26.6922 25.4792 26.7968V27.7024C25.4792 27.807 25.3951 27.8911 25.2906 27.8911C25.1861 27.8911 25.102 27.807 25.102 27.7024V26.9854L24.0815 26.9854ZM21.7543 26.9854C21.6497 26.9854 21.5656 26.9013 21.5656 26.7968C21.5656 26.6922 21.6497 26.6081 21.7543 26.6081H22.9633C23.0679 26.6081 23.152 26.6922 23.152 26.7968V27.7024C23.152 27.807 23.0679 27.8911 22.9633 27.8911C22.8588 27.8911 22.7747 27.807 22.7747 27.7024V26.9854L21.7543 26.9854ZM19.427 26.9854C19.3224 26.9854 19.2383 26.9013 19.2383 26.7968C19.2383 26.6922 19.3224 26.6081 19.427 26.6081H20.6361C20.7406 26.6081 20.8247 26.6922 20.8247 26.7968V27.7024C20.8247 27.807 20.7406 27.8911 20.6361 27.8911C20.5315 27.8911 20.4474 27.807 20.4474 27.7024V26.9854L19.427 26.9854ZM26.4076 29.249C26.3031 29.249 26.219 29.1649 26.219 29.0604C26.219 28.9558 26.3031 28.8717 26.4076 28.8717H27.6167C27.7213 28.8717 27.8053 28.9558 27.8053 29.0604V29.9661C27.8053 30.0706 27.7213 30.1547 27.6167 30.1547C27.5122 30.1547 27.4281 30.0706 27.4281 29.9661V29.249L26.4076 29.249ZM24.0804 29.249C23.9758 29.249 23.8917 29.1649 23.8917 29.0604C23.8917 28.9558 23.9758 28.8717 24.0804 28.8717H25.2894C25.394 28.8717 25.4781 28.9558 25.4781 29.0604V29.9661C25.4781 30.0706 25.394 30.1547 25.2894 30.1547C25.1849 30.1547 25.1008 30.0706 25.1008 29.9661V29.249L24.0804 29.249ZM21.7531 29.249C21.6485 29.249 21.5645 29.1649 21.5645 29.0604C21.5645 28.9558 21.6485 28.8717 21.7531 28.8717H22.9622C23.0667 28.8717 23.1508 28.9558 23.1508 29.0604V29.9661C23.1508 30.0706 23.0667 30.1547 22.9622 30.1547C22.8576 30.1547 22.7735 30.0706 22.7735 29.9661V29.249L21.7531 29.249ZM19.4258 29.249C19.3213 29.249 19.2372 29.1649 19.2372 29.0604C19.2372 28.9558 19.3213 28.8717 19.4258 28.8717H20.6349C20.7394 28.8717 20.8235 28.9558 20.8235 29.0604V29.9661C20.8235 30.0706 20.7394 30.1547 20.6349 30.1547C20.5303 30.1547 20.4463 30.0706 20.4463 29.9661V29.249L19.4258 29.249ZM26.8929 11.5196C26.8872 11.5184 26.8804 11.5161 26.8747 11.5139C26.8224 11.4911 26.7986 11.4298 26.8213 11.3775C26.8417 11.3309 26.8576 11.2809 26.8679 11.2298C26.8781 11.1809 26.8838 11.1286 26.8838 11.0741C26.8838 10.6537 26.5429 10.3127 26.1224 10.3127C25.702 10.3127 25.361 10.6537 25.361 11.0741C25.361 11.215 25.3997 11.3468 25.4656 11.4605C25.5338 11.5764 25.6315 11.6718 25.7486 11.7377C25.7542 11.7411 25.7599 11.7445 25.7656 11.748C25.8111 11.782 25.8201 11.8468 25.7861 11.8934C25.719 11.982 25.6656 12.082 25.6304 12.1889C25.5963 12.2911 25.577 12.4025 25.577 12.5184C25.577 12.7184 25.6326 12.9048 25.7304 13.0616C25.8304 13.2241 25.9735 13.3559 26.144 13.4423C26.1463 13.4434 26.1474 13.4434 26.1497 13.4445C26.2008 13.4707 26.2213 13.532 26.1951 13.5832C26.1599 13.6536 26.1315 13.732 26.1122 13.8161C26.094 13.898 26.0838 13.9854 26.0838 14.0786C26.0838 14.3139 26.1497 14.5241 26.2565 14.6752C26.3554 14.8161 26.4895 14.9025 26.6349 14.9025C26.7804 14.9025 26.9133 14.815 27.0133 14.6752C27.1202 14.5241 27.1861 14.3127 27.1861 14.0786C27.1861 13.9832 27.1747 13.8923 27.1554 13.807C27.1349 13.7195 27.1054 13.64 27.0679 13.5695C27.0406 13.5184 27.0588 13.4559 27.1088 13.4286C27.2736 13.3389 27.4111 13.207 27.5065 13.0468C27.5986 12.8923 27.6508 12.7116 27.6508 12.5173C27.6508 12.2809 27.5724 12.0639 27.4395 11.89C27.3043 11.7127 27.1133 11.5798 26.894 11.5184L26.8929 11.5196ZM22.8417 10.8525C22.836 10.8514 22.8292 10.8491 22.8235 10.8468C22.7712 10.8241 22.7474 10.7639 22.7701 10.7116C22.7905 10.665 22.8064 10.6161 22.8167 10.565C22.8269 10.5161 22.8326 10.4639 22.8326 10.4105C22.8326 10.2014 22.7485 10.0127 22.611 9.87638C22.4746 9.74001 22.2849 9.65479 22.0769 9.65479C21.6599 9.65479 21.3212 9.99343 21.3212 10.4105C21.3212 10.5503 21.3587 10.6821 21.4258 10.7934C21.4939 10.9082 21.5905 11.0037 21.7064 11.0696C21.7121 11.073 21.7178 11.0764 21.7235 11.0798C21.7689 11.1139 21.778 11.1787 21.7439 11.2241C21.6769 11.3116 21.6246 11.4105 21.5894 11.5173C21.5553 11.6196 21.5371 11.7298 21.5371 11.8446C21.5371 12.0434 21.5928 12.2275 21.6894 12.3843C21.7883 12.5457 21.9314 12.6764 22.0996 12.7628C22.1019 12.7639 22.103 12.7639 22.1053 12.765C22.1565 12.79 22.1758 12.8525 22.1508 12.9025C22.1155 12.973 22.0871 13.0503 22.0678 13.1344C22.0496 13.215 22.0394 13.3025 22.0394 13.3946C22.0394 13.6275 22.1053 13.8366 22.211 13.9878C22.3099 14.1275 22.4428 14.2139 22.586 14.2139C22.7303 14.2139 22.8633 14.1275 22.961 13.9878C23.0667 13.8378 23.1326 13.6275 23.1326 13.3946C23.1326 13.3003 23.1224 13.2094 23.1019 13.1253C23.0815 13.0389 23.0519 12.9594 23.0144 12.8889C22.9872 12.8389 23.0053 12.7764 23.0553 12.7491C23.219 12.6605 23.3553 12.5287 23.4497 12.3696C23.5406 12.2162 23.5928 12.0366 23.5928 11.8446C23.5928 11.6105 23.5144 11.3946 23.3838 11.2219C23.2497 11.0457 23.061 10.9139 22.8417 10.8537L22.8417 10.8525Z" fill="white"/>
</svg>
