<svg width="70" height="70" viewBox="0 0 70 70" fill="none" xmlns="http://www.w3.org/2000/svg">
<rect width="70" height="70" rx="16" fill="#708090"/>
<path fill-rule="evenodd" clip-rule="evenodd" d="M22.4 50.1085H30.8V34.9087H27.034L22.3999 39.7845V50.11L22.4 50.1085ZM31.2952 40.1828V50.1085H47.7447V40.1828H31.2952ZM27.3682 40.7749C27.231 40.7749 27.1206 40.6645 27.1206 40.5273C27.1206 40.3901 27.231 40.2797 27.3682 40.2797H28.6882C28.8254 40.2797 28.9358 40.3901 28.9358 40.5273V41.716C28.9358 41.8532 28.8254 41.9636 28.6882 41.9636C28.551 41.9636 28.4406 41.8532 28.4406 41.716V40.7749L27.3682 40.7749ZM24.8268 40.7749C24.6896 40.7749 24.5792 40.6645 24.5792 40.5273C24.5792 40.3901 24.6896 40.2797 24.8268 40.2797H26.1467C26.2839 40.2797 26.3943 40.3901 26.3943 40.5273V41.716C26.3943 41.8532 26.2839 41.9636 26.1467 41.9636C26.0095 41.9636 25.8991 41.8532 25.8991 41.716V40.7749L24.8268 40.7749ZM27.2818 43.1583C27.1445 43.1583 27.0342 43.0479 27.0342 42.9107C27.0342 42.7735 27.1445 42.6631 27.2818 42.6631H28.6017C28.7389 42.6631 28.8493 42.7735 28.8493 42.9107V44.0994C28.8493 44.2366 28.7389 44.347 28.6017 44.347C28.4645 44.347 28.3541 44.2366 28.3541 44.0994V43.1583L27.2818 43.1583ZM24.7403 43.1583C24.6031 43.1583 24.4927 43.0479 24.4927 42.9107C24.4927 42.7735 24.6031 42.6631 24.7403 42.6631H26.0602C26.1975 42.6631 26.3078 42.7735 26.3078 42.9107V44.0994C26.3078 44.2366 26.1975 44.347 26.0602 44.347C25.923 44.347 25.8127 44.2366 25.8127 44.0994V43.1583L24.7403 43.1583ZM27.2818 45.7714C27.1445 45.7714 27.0342 45.661 27.0342 45.5238C27.0342 45.3866 27.1445 45.2762 27.2818 45.2762H28.6017C28.7389 45.2762 28.8493 45.3866 28.8493 45.5238V46.7125C28.8493 46.8497 28.7389 46.9601 28.6017 46.9601C28.4645 46.9601 28.3541 46.8497 28.3541 46.7125V45.7714L27.2818 45.7714ZM24.7403 45.7714C24.6031 45.7714 24.4927 45.661 24.4927 45.5238C24.4927 45.3866 24.6031 45.2762 24.7403 45.2762H26.0602C26.1975 45.2762 26.3078 45.3866 26.3078 45.5238V46.7125C26.3078 46.8497 26.1975 46.9601 26.0602 46.9601C25.923 46.9601 25.8127 46.8497 25.8127 46.7125V45.7714L24.7403 45.7714ZM27.2818 38.3824C27.1445 38.3824 27.0342 38.272 27.0342 38.1348C27.0342 37.9976 27.1445 37.8872 27.2818 37.8872H28.6017C28.7389 37.8872 28.8493 37.9976 28.8493 38.1348V39.3235C28.8493 39.4608 28.7389 39.5711 28.6017 39.5711C28.4645 39.5711 28.3541 39.4608 28.3541 39.3235V38.3824L27.2818 38.3824ZM34.8124 35.134V32.852C34.8124 32.0556 34.5663 31.5619 34.171 31.2636C33.7803 30.9697 33.2523 30.8773 32.675 30.8773H32.062C31.4848 30.8773 30.9569 30.9563 30.5661 31.2442C30.1693 31.535 29.9232 32.0302 29.9232 32.8505V34.4106H29.1119V32.3046C29.1119 31.6812 29.4221 31.1114 29.9203 30.6983C30.4259 30.2792 31.1239 30.0197 31.8935 30.0197H32.778C33.5475 30.0197 34.2456 30.2792 34.7512 30.6983C35.2493 31.1114 35.5596 31.6812 35.5596 32.3046V35.2771C35.5596 35.2891 35.5611 35.2995 35.564 35.3114L34.7989 35.1936C34.8079 35.1757 34.8138 35.1563 34.8138 35.1355L34.8124 35.134ZM43.3781 28.9474C43.3095 28.9474 43.2543 28.8922 43.2543 28.8236C43.2543 28.755 43.3095 28.6998 43.3781 28.6998H44.8636L44.8158 27.5096H42.5339L42.1908 36.3376L45.1932 36.803L44.8755 28.9474L43.3781 28.9474ZM39.8925 36.2317L42.0387 36.5643C42.0417 36.5643 42.0447 36.5658 42.0492 36.5658L45.2976 37.0684C45.3006 37.0684 45.3051 37.0699 45.308 37.0699L45.4154 37.0863C45.584 37.1132 45.7301 37.1967 45.8331 37.3175C45.936 37.4383 45.9971 37.5949 45.9971 37.765V39.686H33.5655V36.0527C33.5655 35.9468 33.5864 35.8514 33.6252 35.7649C33.6654 35.6784 33.7251 35.5993 33.8041 35.5322C33.8832 35.4651 33.9697 35.4174 34.0622 35.3905C34.1546 35.3637 34.2531 35.3592 34.356 35.3741L36.5738 35.7171C36.5768 35.7171 36.5798 35.7186 36.5842 35.7186L39.8804 36.2287C39.8849 36.2302 39.8879 36.2302 39.8923 36.2302L39.8925 36.2317ZM37.9357 28.1047C37.8671 28.1047 37.8119 28.0495 37.8119 27.9809C37.8119 27.9123 37.8671 27.8571 37.9357 27.8571H39.4256L39.3734 26.6669H37.0915L36.7275 35.4904L39.7761 35.9632L39.4361 28.1046L37.9357 28.1047ZM43.4109 42.8555C43.2737 42.8555 43.1634 42.7451 43.1634 42.6079C43.1634 42.4707 43.2737 42.3603 43.4109 42.3603H44.9979C45.1351 42.3603 45.2454 42.4707 45.2454 42.6079V43.7966C45.2454 43.9338 45.1351 44.0442 44.9979 44.0442C44.8606 44.0442 44.7503 43.9338 44.7503 43.7966V42.8555L43.4109 42.8555ZM40.3564 42.8555C40.2192 42.8555 40.1088 42.7451 40.1088 42.6079C40.1088 42.4707 40.2192 42.3603 40.3564 42.3603H41.9433C42.0805 42.3603 42.1909 42.4707 42.1909 42.6079V43.7966C42.1909 43.9338 42.0805 44.0442 41.9433 44.0442C41.8061 44.0442 41.6957 43.9338 41.6957 43.7966V42.8555L40.3564 42.8555ZM37.3018 42.8555C37.1646 42.8555 37.0543 42.7451 37.0543 42.6079C37.0543 42.4707 37.1646 42.3603 37.3018 42.3603H38.8888C39.026 42.3603 39.1363 42.4707 39.1363 42.6079V43.7966C39.1363 43.9338 39.026 44.0442 38.8888 44.0442C38.7515 44.0442 38.6412 43.9338 38.6412 43.7966V42.8555L37.3018 42.8555ZM34.2473 42.8555C34.1101 42.8555 33.9997 42.7451 33.9997 42.6079C33.9997 42.4707 34.1101 42.3603 34.2473 42.3603H35.8342C35.9714 42.3603 36.0818 42.4707 36.0818 42.6079V43.7966C36.0818 43.9338 35.9714 44.0442 35.8342 44.0442C35.697 44.0442 35.5866 43.9338 35.5866 43.7966V42.8555L34.2473 42.8555ZM43.4094 45.8265C43.2722 45.8265 43.1618 45.7161 43.1618 45.5789C43.1618 45.4417 43.2722 45.3313 43.4094 45.3313H44.9963C45.1335 45.3313 45.2439 45.4417 45.2439 45.5789V46.7676C45.2439 46.9048 45.1335 47.0152 44.9963 47.0152C44.8591 47.0152 44.7487 46.9048 44.7487 46.7676V45.8265L43.4094 45.8265ZM40.3549 45.8265C40.2176 45.8265 40.1073 45.7161 40.1073 45.5789C40.1073 45.4417 40.2176 45.3313 40.3549 45.3313H41.9418C42.079 45.3313 42.1894 45.4417 42.1894 45.5789V46.7676C42.1894 46.9048 42.079 47.0152 41.9418 47.0152C41.8046 47.0152 41.6942 46.9048 41.6942 46.7676V45.8265L40.3549 45.8265ZM37.3003 45.8265C37.1631 45.8265 37.0527 45.7161 37.0527 45.5789C37.0527 45.4417 37.1631 45.3313 37.3003 45.3313H38.8872C39.0245 45.3313 39.1348 45.4417 39.1348 45.5789V46.7676C39.1348 46.9048 39.0245 47.0152 38.8872 47.0152C38.75 47.0152 38.6396 46.9048 38.6396 46.7676V45.8265L37.3003 45.8265ZM34.2458 45.8265C34.1086 45.8265 33.9982 45.7161 33.9982 45.5789C33.9982 45.4417 34.1086 45.3313 34.2458 45.3313H35.8327C35.9699 45.3313 36.0803 45.4417 36.0803 45.5789V46.7676C36.0803 46.9048 35.9699 47.0152 35.8327 47.0152C35.6955 47.0152 35.5851 46.9048 35.5851 46.7676V45.8265L34.2458 45.8265ZM44.0463 22.5566C44.0388 22.5551 44.0299 22.5521 44.0224 22.5491C43.9538 22.5193 43.9225 22.4388 43.9523 22.3701C43.9792 22.309 44 22.2434 44.0135 22.1763C44.0269 22.1121 44.0344 22.0435 44.0344 21.9719C44.0344 21.4201 43.5869 20.9726 43.0351 20.9726C42.4832 20.9726 42.0358 21.4201 42.0358 21.9719C42.0358 22.1569 42.0865 22.3299 42.173 22.479C42.2625 22.6311 42.3907 22.7564 42.5444 22.8429C42.5518 22.8474 42.5593 22.8519 42.5667 22.8564C42.6264 22.9011 42.6383 22.9861 42.5936 23.0473C42.5056 23.1636 42.4355 23.2949 42.3892 23.435C42.3445 23.5693 42.3192 23.7154 42.3192 23.8676C42.3192 24.1301 42.3922 24.3747 42.5205 24.5805C42.6517 24.7938 42.8397 24.9668 43.0634 25.0801C43.0664 25.0816 43.0679 25.0816 43.0709 25.0831C43.138 25.1174 43.1648 25.198 43.1305 25.2651C43.0843 25.3576 43.047 25.4605 43.0216 25.5708C42.9978 25.6782 42.9844 25.7931 42.9844 25.9154C42.9844 26.2241 43.0709 26.5 43.2111 26.6984C43.3408 26.8833 43.5168 26.9967 43.7077 26.9967C43.8986 26.9967 44.0731 26.8819 44.2044 26.6984C44.3446 26.5 44.4311 26.2226 44.4311 25.9154C44.4311 25.7901 44.4162 25.6708 44.3908 25.5589C44.364 25.4441 44.3252 25.3397 44.276 25.2472C44.2402 25.1801 44.2641 25.098 44.3297 25.0622C44.5459 24.9444 44.7264 24.7714 44.8517 24.5611C44.9725 24.3583 45.0411 24.1211 45.0411 23.8661C45.0411 23.5559 44.9382 23.271 44.7637 23.0428C44.5862 22.8101 44.3357 22.6356 44.0478 22.5551L44.0463 22.5566ZM38.7291 21.6811C38.7216 21.6796 38.7127 21.6766 38.7052 21.6736C38.6366 21.6438 38.6053 21.5647 38.6351 21.4961C38.662 21.435 38.6828 21.3708 38.6963 21.3037C38.7097 21.2396 38.7172 21.171 38.7172 21.1009C38.7172 20.8265 38.6068 20.5789 38.4263 20.3999C38.2473 20.2209 37.9983 20.1091 37.7253 20.1091C37.178 20.1091 36.7335 20.5535 36.7335 21.1009C36.7335 21.2844 36.7827 21.4574 36.8707 21.6035C36.9602 21.7542 37.087 21.8795 37.2391 21.966C37.2466 21.9704 37.254 21.9749 37.2615 21.9794C37.3211 22.0241 37.3331 22.1092 37.2883 22.1688C37.2003 22.2837 37.1317 22.4134 37.0855 22.5536C37.0407 22.6878 37.0169 22.8325 37.0169 22.9832C37.0169 23.2442 37.0899 23.4858 37.2167 23.6916C37.3465 23.9034 37.5344 24.0749 37.7552 24.1883C37.7581 24.1898 37.7596 24.1898 37.7626 24.1913C37.8297 24.2241 37.8551 24.3061 37.8223 24.3717C37.776 24.4642 37.7388 24.5656 37.7134 24.676C37.6895 24.7819 37.6761 24.8967 37.6761 25.0176C37.6761 25.3233 37.7626 25.5977 37.9013 25.7961C38.0311 25.9796 38.2056 26.0929 38.3935 26.0929C38.5829 26.0929 38.7575 25.9796 38.8857 25.7961C39.0244 25.5992 39.1109 25.3233 39.1109 25.0176C39.1109 24.8938 39.0975 24.7744 39.0707 24.6641C39.0438 24.5507 39.005 24.4463 38.9558 24.3538C38.92 24.2882 38.9439 24.2062 39.0095 24.1704C39.2243 24.0541 39.4033 23.881 39.5271 23.6722C39.6464 23.4709 39.715 23.2352 39.715 22.9832C39.715 22.6759 39.6121 22.3925 39.4406 22.1658C39.2646 21.9347 39.017 21.7617 38.7291 21.6826L38.7291 21.6811Z" fill="white"/>
</svg>
