<svg width="140" height="140" viewBox="0 0 140 140" fill="none" xmlns="http://www.w3.org/2000/svg">
<rect width="140" height="140" rx="16" fill="#223080"/>
<path fill-rule="evenodd" clip-rule="evenodd" d="M74.8725 50.3994V48.9565C74.8725 48.232 74.3035 47.6413 73.6056 47.6413H64.1437C63.4458 47.6413 62.8768 48.232 62.8768 48.9565V50.3994H74.8725ZM69.5081 43.0172H74.2916C74.6042 43.0172 74.7827 42.6487 74.597 42.388L73.6036 40.9932C73.5025 40.8519 73.5025 40.666 73.6036 40.5239L74.597 39.1291C74.7827 38.8684 74.6036 38.5 74.2916 38.5H68.6219C68.4124 38.5 68.2419 38.677 68.2419 38.8945V46.3268H69.5088L69.5081 43.0172ZM56.7458 56.041H45.3864C44.6885 56.041 44.1195 56.6317 44.1195 57.3562V95.8762H56.7458V56.041ZM81.0042 56.041V95.8755H93.6305V57.3562C93.6305 56.6317 93.0615 56.041 92.3636 56.041H81.0042ZM85.5221 61.0055H89.1127C89.4616 61.0055 89.7458 61.3005 89.7458 61.6628V65.3902C89.7458 65.7525 89.4616 66.0475 89.1127 66.0475H85.5221C85.1731 66.0475 84.8889 65.7525 84.8889 65.3902V61.6628C84.8889 61.3005 85.1731 61.0055 85.5221 61.0055ZM85.5221 72.3546H89.1127C89.4616 72.3546 89.7458 72.6496 89.7458 73.0119V76.7394C89.7458 77.1016 89.4616 77.3966 89.1127 77.3966H85.5221C85.1731 77.3966 84.8889 77.1016 84.8889 76.7394V73.0119C84.8889 72.6496 85.1731 72.3546 85.5221 72.3546ZM84.8889 84.361C84.8889 83.9988 85.1731 83.7038 85.5221 83.7038H89.1127C89.4616 83.7038 89.7458 83.9988 89.7458 84.361V88.0885C89.7458 88.4508 89.4616 88.7458 89.1127 88.7458H85.5221C85.1731 88.7458 84.8889 88.4508 84.8889 88.0885V84.361ZM58.0384 53.0559V95.8755H61.4896V84.361C61.4896 83.9988 61.7738 83.7038 62.1227 83.7038H75.6273C75.9762 83.7038 76.2604 83.9988 76.2604 84.361V95.8755H79.7116V53.0559C79.7116 52.3314 79.1425 51.7407 78.4446 51.7407H59.3047C58.6068 51.7407 58.0384 52.3314 58.0384 53.0559ZM61.4896 61.6628C61.4896 61.3005 61.7738 61.0055 62.1227 61.0055H65.7133C66.0623 61.0055 66.3464 61.3005 66.3464 61.6628V65.3902C66.3464 65.7525 66.0623 66.0475 65.7133 66.0475H62.1227C61.7738 66.0475 61.4896 65.7525 61.4896 65.3902V61.6628ZM62.1227 72.3546H65.7133C66.0623 72.3546 66.3464 72.6496 66.3464 73.0119V76.7394C66.3464 77.1016 66.0623 77.3966 65.7133 77.3966H62.1227C61.7738 77.3966 61.4896 77.1016 61.4896 76.7394V73.0119C61.4896 72.6496 61.7738 72.3546 62.1227 72.3546ZM72.036 72.3546H75.6266C75.9756 72.3546 76.2597 72.6496 76.2597 73.0119V76.7394C76.2597 77.1016 75.9756 77.3966 75.6266 77.3966H72.036C71.6871 77.3966 71.4029 77.1016 71.4029 76.7394V73.0119C71.4029 72.6496 71.6871 72.3546 72.036 72.3546ZM71.4029 61.6628C71.4029 61.3005 71.6871 61.0055 72.036 61.0055H75.6266C75.9756 61.0055 76.2597 61.3005 76.2597 61.6628V65.3902C76.2597 65.7525 75.9756 66.0475 75.6266 66.0475H72.036C71.6871 66.0475 71.4029 65.7525 71.4029 65.3902V61.6628ZM52.2359 72.3546C52.5848 72.3546 52.869 72.6496 52.869 73.0119V76.7394C52.869 77.1016 52.5848 77.3966 52.2359 77.3966H48.6453C48.2963 77.3966 48.0121 77.1016 48.0121 76.7394V73.0119C48.0121 72.6496 48.2963 72.3546 48.6453 72.3546H52.2359ZM48.6453 83.7038H52.2359C52.5848 83.7038 52.869 83.9988 52.869 84.361V88.0885C52.869 88.4508 52.5848 88.7458 52.2359 88.7458H48.6453C48.2963 88.7458 48.0121 88.4508 48.0121 88.0885V84.361C48.0121 83.9988 48.2963 83.7038 48.6453 83.7038ZM52.8697 61.6634V65.3909C52.8697 65.7532 52.5855 66.0482 52.2365 66.0482H48.6459C48.297 66.0482 48.0128 65.7532 48.0128 65.3909V61.6634C48.0128 61.3012 48.297 61.0062 48.6459 61.0062H52.2365C52.5855 61.0062 52.8697 61.3012 52.8697 61.6634ZM38.88 101.5H98.87C99.0795 101.5 99.25 101.323 99.25 101.106V100.424C99.25 100.207 99.0795 100.03 98.87 100.03H38.88C38.6705 100.03 38.5 100.207 38.5 100.424V101.106C38.5 101.323 38.6705 101.5 38.88 101.5ZM96.4399 98.6878V97.612C96.4399 97.3945 96.2694 97.2175 96.0599 97.2175H41.6901C41.4806 97.2175 41.3101 97.3945 41.3101 97.612V98.6878H96.4399Z" fill="white"/>
</svg>
