<svg width="70" height="70" viewBox="0 0 70 70" fill="none" xmlns="http://www.w3.org/2000/svg">
<rect width="70" height="70" rx="16" fill="#00008B"/>
<path fill-rule="evenodd" clip-rule="evenodd" d="M37.4363 25.1997V24.4783C37.4363 24.116 37.1518 23.8207 36.8028 23.8207H32.0719C31.7229 23.8207 31.4384 24.116 31.4384 24.4783V25.1997H37.4363ZM34.7541 21.5086H37.1458C37.3021 21.5086 37.3913 21.3244 37.2985 21.194L36.8018 20.4966C36.7513 20.4259 36.7513 20.333 36.8018 20.262L37.2985 19.5646C37.3913 19.4342 37.3018 19.25 37.1458 19.25H34.3109C34.2062 19.25 34.1209 19.3385 34.1209 19.4472V23.1634H34.7544L34.7541 21.5086ZM28.3729 28.0205H22.6932C22.3443 28.0205 22.0598 28.3159 22.0598 28.6781V47.9381H28.3729V28.0205ZM40.5021 28.0205V47.9378H46.8152V28.6781C46.8152 28.3159 46.5307 28.0205 46.1818 28.0205H40.5021ZM42.761 30.5027H44.5563C44.7308 30.5027 44.8729 30.6503 44.8729 30.8314V32.6951C44.8729 32.8762 44.7308 33.0237 44.5563 33.0237H42.761C42.5866 33.0237 42.4445 32.8762 42.4445 32.6951V30.8314C42.4445 30.6503 42.5866 30.5027 42.761 30.5027ZM42.761 36.1773H44.5563C44.7308 36.1773 44.8729 36.3248 44.8729 36.5059V38.3697C44.8729 38.5508 44.7308 38.6983 44.5563 38.6983H42.761C42.5866 38.6983 42.4445 38.5508 42.4445 38.3697V36.5059C42.4445 36.3248 42.5866 36.1773 42.761 36.1773ZM42.4445 42.1805C42.4445 41.9994 42.5866 41.8519 42.761 41.8519H44.5563C44.7308 41.8519 44.8729 41.9994 44.8729 42.1805V44.0443C44.8729 44.2254 44.7308 44.3729 44.5563 44.3729H42.761C42.5866 44.3729 42.4445 44.2254 42.4445 44.0443V42.1805ZM29.0192 26.5279V47.9378H30.7448V42.1805C30.7448 41.9994 30.8869 41.8519 31.0614 41.8519H37.8136C37.9881 41.8519 38.1302 41.9994 38.1302 42.1805V47.9378H39.8558V26.5279C39.8558 26.1657 39.5713 25.8703 39.2223 25.8703H29.6524C29.3034 25.8703 29.0192 26.1657 29.0192 26.5279ZM30.7448 30.8314C30.7448 30.6503 30.8869 30.5027 31.0614 30.5027H32.8567C33.0311 30.5027 33.1732 30.6503 33.1732 30.8314V32.6951C33.1732 32.8762 33.0311 33.0237 32.8567 33.0237H31.0614C30.8869 33.0237 30.7448 32.8762 30.7448 32.6951V30.8314ZM31.0614 36.1773H32.8567C33.0311 36.1773 33.1732 36.3248 33.1732 36.5059V38.3697C33.1732 38.5508 33.0311 38.6983 32.8567 38.6983H31.0614C30.8869 38.6983 30.7448 38.5508 30.7448 38.3697V36.5059C30.7448 36.3248 30.8869 36.1773 31.0614 36.1773ZM36.018 36.1773H37.8133C37.9878 36.1773 38.1299 36.3248 38.1299 36.5059V38.3697C38.1299 38.5508 37.9878 38.6983 37.8133 38.6983H36.018C35.8435 38.6983 35.7014 38.5508 35.7014 38.3697V36.5059C35.7014 36.3248 35.8435 36.1773 36.018 36.1773ZM35.7014 30.8314C35.7014 30.6503 35.8435 30.5027 36.018 30.5027H37.8133C37.9878 30.5027 38.1299 30.6503 38.1299 30.8314V32.6951C38.1299 32.8762 37.9878 33.0237 37.8133 33.0237H36.018C35.8435 33.0237 35.7014 32.8762 35.7014 32.6951V30.8314ZM26.1179 36.1773C26.2924 36.1773 26.4345 36.3248 26.4345 36.5059V38.3697C26.4345 38.5508 26.2924 38.6983 26.1179 38.6983H24.3226C24.1482 38.6983 24.0061 38.5508 24.0061 38.3697V36.5059C24.0061 36.3248 24.1482 36.1773 24.3226 36.1773H26.1179ZM24.3226 41.8519H26.1179C26.2924 41.8519 26.4345 41.9994 26.4345 42.1805V44.0443C26.4345 44.2254 26.2924 44.3729 26.1179 44.3729H24.3226C24.1482 44.3729 24.0061 44.2254 24.0061 44.0443V42.1805C24.0061 41.9994 24.1482 41.8519 24.3226 41.8519ZM26.4348 30.8317V32.6955C26.4348 32.8766 26.2927 33.0241 26.1183 33.0241H24.323C24.1485 33.0241 24.0064 32.8766 24.0064 32.6955V30.8317C24.0064 30.6506 24.1485 30.5031 24.323 30.5031H26.1183C26.2927 30.5031 26.4348 30.6506 26.4348 30.8317ZM19.44 50.75H49.435C49.5397 50.75 49.625 50.6615 49.625 50.5528V50.2121C49.625 50.1034 49.5397 50.0149 49.435 50.0149H19.44C19.3353 50.0149 19.25 50.1034 19.25 50.2121V50.5528C19.25 50.6615 19.3353 50.75 19.44 50.75ZM48.22 49.3439V48.806C48.22 48.6972 48.1347 48.6087 48.03 48.6087H20.845C20.7403 48.6087 20.655 48.6972 20.655 48.806V49.3439H48.22Z" fill="white"/>
</svg>
