<svg width="40" height="40" viewBox="0 0 40 40" fill="none" xmlns="http://www.w3.org/2000/svg">
<circle cx="20" cy="20" r="20" fill="#FFD15C"/>
<path fill-rule="evenodd" clip-rule="evenodd" d="M21.8562 12.5331V11.9834C21.8562 11.7074 21.6394 11.4824 21.3736 11.4824H17.769C17.5032 11.4824 17.2864 11.7074 17.2864 11.9834V12.5331H21.8562ZM19.8126 9.72082H21.6349C21.754 9.72082 21.822 9.58047 21.7512 9.48115L21.3728 8.9498C21.3343 8.89596 21.3343 8.82513 21.3728 8.77102L21.7512 8.23967C21.822 8.14035 21.7537 8 21.6349 8H19.475C19.3952 8 19.3302 8.06743 19.3302 8.15028V10.9816H19.8129L19.8126 9.72082ZM14.9508 14.6823H10.6234C10.3575 14.6823 10.1408 14.9073 10.1408 15.1833V29.8576H14.9508V14.6823ZM24.1921 14.6823V29.8573H29.0021V15.1833C29.0021 14.9073 28.7853 14.6823 28.5195 14.6823H24.1921ZM25.9132 16.5735H27.281C27.4139 16.5735 27.5222 16.6859 27.5222 16.8239V18.2439C27.5222 18.3819 27.4139 18.4943 27.281 18.4943H25.9132C25.7802 18.4943 25.672 18.3819 25.672 18.2439V16.8239C25.672 16.6859 25.7802 16.5735 25.9132 16.5735ZM25.9132 20.897H27.281C27.4139 20.897 27.5222 21.0094 27.5222 21.1474V22.5674C27.5222 22.7054 27.4139 22.8178 27.281 22.8178H25.9132C25.7802 22.8178 25.672 22.7054 25.672 22.5674V21.1474C25.672 21.0094 25.7802 20.897 25.9132 20.897ZM25.672 25.4709C25.672 25.3329 25.7802 25.2205 25.9132 25.2205H27.281C27.4139 25.2205 27.5222 25.3329 27.5222 25.4709V26.8909C27.5222 27.0289 27.4139 27.1412 27.281 27.1412H25.9132C25.7802 27.1412 25.672 27.0289 25.672 26.8909V25.4709ZM15.4432 13.5451V29.8573H16.7579V25.4709C16.7579 25.3329 16.8662 25.2205 16.9991 25.2205H22.1437C22.2767 25.2205 22.3849 25.3329 22.3849 25.4709V29.8573H23.6996V13.5451C23.6996 13.2691 23.4829 13.0441 23.217 13.0441H15.9256C15.6597 13.0441 15.4432 13.2691 15.4432 13.5451ZM16.7579 16.8239C16.7579 16.6859 16.8662 16.5735 16.9991 16.5735H18.367C18.4999 16.5735 18.6082 16.6859 18.6082 16.8239V18.2439C18.6082 18.3819 18.4999 18.4943 18.367 18.4943H16.9991C16.8662 18.4943 16.7579 18.3819 16.7579 18.2439V16.8239ZM16.9991 20.897H18.367C18.4999 20.897 18.6082 21.0094 18.6082 21.1474V22.5674C18.6082 22.7054 18.4999 22.8178 18.367 22.8178H16.9991C16.8662 22.8178 16.7579 22.7054 16.7579 22.5674V21.1474C16.7579 21.0094 16.8662 20.897 16.9991 20.897ZM20.7756 20.897H22.1435C22.2764 20.897 22.3847 21.0094 22.3847 21.1474V22.5674C22.3847 22.7054 22.2764 22.8178 22.1435 22.8178H20.7756C20.6427 22.8178 20.5344 22.7054 20.5344 22.5674V21.1474C20.5344 21.0094 20.6427 20.897 20.7756 20.897ZM20.5344 16.8239C20.5344 16.6859 20.6427 16.5735 20.7756 16.5735H22.1435C22.2764 16.5735 22.3847 16.6859 22.3847 16.8239V18.2439C22.3847 18.3819 22.2764 18.4943 22.1435 18.4943H20.7756C20.6427 18.4943 20.5344 18.3819 20.5344 18.2439V16.8239ZM13.2327 20.897C13.3656 20.897 13.4739 21.0094 13.4739 21.1474V22.5674C13.4739 22.7054 13.3656 22.8178 13.2327 22.8178H11.8649C11.7319 22.8178 11.6237 22.7054 11.6237 22.5674V21.1474C11.6237 21.0094 11.7319 20.897 11.8649 20.897H13.2327ZM11.8649 25.2205H13.2327C13.3656 25.2205 13.4739 25.3329 13.4739 25.4709V26.8909C13.4739 27.0289 13.3656 27.1412 13.2327 27.1412H11.8649C11.7319 27.1412 11.6237 27.0289 11.6237 26.8909V25.4709C11.6237 25.3329 11.7319 25.2205 11.8649 25.2205ZM13.4742 16.8242V18.2442C13.4742 18.3822 13.3659 18.4945 13.233 18.4945H11.8651C11.7322 18.4945 11.6239 18.3822 11.6239 18.2442V16.8242C11.6239 16.6862 11.7322 16.5738 11.8651 16.5738H13.233C13.3659 16.5738 13.4742 16.6862 13.4742 16.8242ZM8.14477 32H30.9981C31.0779 32 31.1429 31.9326 31.1429 31.8497V31.5902C31.1429 31.5073 31.0779 31.4399 30.9981 31.4399H8.14477C8.06496 31.4399 8 31.5073 8 31.5902V31.8497C8 31.9326 8.06496 32 8.14477 32ZM30.0723 30.9287V30.5189C30.0723 30.436 30.0074 30.3686 29.9276 30.3686H9.21528C9.13547 30.3686 9.07051 30.436 9.07051 30.5189V30.9287H30.0723Z" fill="white"/>
</svg>
