<svg width="29" height="45" viewBox="0 0 29 45" fill="none" xmlns="http://www.w3.org/2000/svg">
<path d="M21.478 14.3683C21.478 18.3345 18.2321 21.5522 14.2281 21.5522C10.2236 21.5522 6.97825 18.3345 6.97825 14.3683C6.97825 10.4009 10.2241 7.18427 14.2281 7.18427C18.2329 7.18399 21.478 10.4006 21.478 14.3683ZM29 14.3683C29 6.43274 22.5085 0 14.5 0C6.49204 0 0 6.43274 0 14.3683C0 17.8573 1.25628 21.0563 3.34392 23.5447L14.5125 39.5125L25.8445 23.3118C26.2515 22.8071 26.6242 22.2751 26.9605 21.7159L27.0751 21.5531H27.0563C28.2904 19.4384 29 16.9866 29 14.3683Z" fill="url(#paint0_linear_163_198)"/>
<path d="M21.2208 14.3792C21.2208 18.2485 18.0687 21.3876 14.1804 21.3876C10.2915 21.3876 7.13996 18.2485 7.13996 14.3792C7.13996 10.5089 10.2921 7.37091 14.1804 7.37091C18.0695 7.37064 21.2208 10.5086 21.2208 14.3792ZM28.5256 14.3792C28.5256 6.63775 22.2216 0.362305 14.4444 0.362305C6.66779 0.362305 0.363281 6.63775 0.363281 14.3792C0.363281 17.7829 1.58328 20.9038 3.61061 23.3313L14.4566 38.9087L25.4612 23.1041C25.8564 22.6117 26.2184 22.0928 26.545 21.5473L26.6563 21.3884H26.638C27.8364 19.3254 28.5256 16.9335 28.5256 14.3792Z" fill="url(#paint1_linear_163_198)"/>
<circle cx="14.5016" cy="14.5003" r="11.9625" fill="url(#paint2_linear_163_198)"/>
<circle cx="14.4719" cy="14.4703" r="11.2077" fill="url(#paint3_linear_163_198)"/>
<circle cx="14.5024" cy="14.5007" r="10.875" fill="url(#paint4_linear_163_198)"/>
<path d="M22.81 17.8184C22.179 17.8184 21.8589 17.9191 21.548 18.0166C21.2478 18.11 20.9647 18.2001 20.3814 18.2001C19.7981 18.2001 19.5151 18.112 19.2149 18.0166C18.9053 17.9191 18.5858 17.8184 17.9528 17.8184C17.3198 17.8184 17.0017 17.9191 16.6928 18.0166C16.3925 18.11 16.1095 18.2001 15.5282 18.2001C14.9469 18.2001 14.6619 18.112 14.3636 18.0166C14.0541 17.9191 13.7346 17.8184 13.1036 17.8184C12.4725 17.8184 12.1524 17.9191 11.8435 18.0166C11.5433 18.11 11.2602 18.2001 10.6789 18.2001C10.0976 18.2001 9.81459 18.112 9.51433 18.0166C9.2048 17.9191 8.88531 17.8184 8.25429 17.8184C8.16614 17.8184 8.09521 17.8893 8.09521 17.9774C8.09521 18.0656 8.16614 18.1365 8.25429 18.1365C8.8356 18.1365 9.11863 18.2247 9.41889 18.3201C9.72842 18.4176 10.0479 18.5183 10.6789 18.5183C11.3099 18.5183 11.6301 18.4176 11.939 18.3201C12.2392 18.2267 12.5223 18.1365 13.1036 18.1365C13.6849 18.1365 13.9699 18.2247 14.2682 18.3201C14.5777 18.4176 14.8972 18.5183 15.5282 18.5183C16.1592 18.5183 16.4794 18.4176 16.7882 18.3201C17.0885 18.2267 17.3715 18.1365 17.9528 18.1365C18.5341 18.1365 18.8191 18.2247 19.1194 18.3201C19.4289 18.4176 19.7484 18.5183 20.3814 18.5183C21.0144 18.5183 21.3326 18.4176 21.6435 18.3201C21.9437 18.2267 22.2267 18.1365 22.81 18.1365C22.8982 18.1365 22.9691 18.0656 22.9691 17.9774C22.9691 17.8893 22.8982 17.8184 22.81 17.8184Z" fill="#FF6B83"/>
<path d="M22.81 19.2986C22.179 19.2986 21.8589 19.3993 21.548 19.4968C21.2478 19.5902 20.9647 19.6804 20.3814 19.6804C19.7981 19.6804 19.5151 19.5922 19.2149 19.4968C18.9053 19.3993 18.5858 19.2986 17.9528 19.2986C17.3198 19.2986 17.0017 19.3993 16.6928 19.4968C16.3925 19.5902 16.1095 19.6804 15.5282 19.6804C14.9469 19.6804 14.6619 19.5922 14.3636 19.4968C14.0541 19.3993 13.7346 19.2986 13.1036 19.2986C12.4725 19.2986 12.1524 19.3993 11.8435 19.4968C11.5433 19.5902 11.2602 19.6804 10.6789 19.6804C10.0976 19.6804 9.81459 19.5922 9.51433 19.4968C9.2048 19.3993 8.88531 19.2986 8.25429 19.2986C8.16614 19.2986 8.09521 19.3695 8.09521 19.4577C8.09521 19.5458 8.16614 19.6167 8.25429 19.6167C8.8356 19.6167 9.11863 19.7049 9.41889 19.8003C9.72842 19.8978 10.0479 19.9985 10.6789 19.9985C11.3099 19.9985 11.6301 19.8978 11.939 19.8003C12.2392 19.7069 12.5223 19.6167 13.1036 19.6167C13.6849 19.6167 13.9699 19.7049 14.2682 19.8003C14.5777 19.8978 14.8972 19.9985 15.5282 19.9985C16.1592 19.9985 16.4794 19.8978 16.7882 19.8003C17.0885 19.7069 17.3715 19.6167 17.9528 19.6167C18.5341 19.6167 18.8191 19.7049 19.1194 19.8003C19.4289 19.8978 19.7484 19.9985 20.3814 19.9985C21.0144 19.9985 21.3326 19.8978 21.6435 19.8003C21.9437 19.7069 22.2267 19.6167 22.81 19.6167C22.8982 19.6167 22.9691 19.5458 22.9691 19.4577C22.9691 19.3695 22.8982 19.2986 22.81 19.2986Z" fill="#FF6B83"/>
<path d="M8.25243 16.3386C8.16428 16.3386 8.09336 16.4095 8.09336 16.4957C8.09336 16.5825 8.16428 16.6548 8.25243 16.6548C8.50365 16.6548 8.71708 16.6727 8.90665 16.7058C9.10085 16.7409 9.25332 16.7873 9.41239 16.8364C9.50983 16.8662 9.6066 16.8967 9.70934 16.9232C9.90886 16.9762 10.1972 17.0379 10.6764 17.0379C10.8335 17.0379 10.9767 17.0306 11.1112 17.02C11.371 16.9955 11.5619 16.9491 11.7137 16.9066C11.7913 16.8854 11.8642 16.8622 11.9364 16.8397C12.1147 16.7834 12.2844 16.7303 12.5124 16.6945C12.6874 16.668 12.8803 16.6541 13.103 16.6541H13.1329C13.6949 16.6594 13.974 16.7476 14.2696 16.8397L14.314 16.8536C14.3352 16.8609 14.3564 16.8675 14.3637 16.8675C14.5725 16.9332 14.8304 17.0034 15.2194 17.0286C15.3573 17.0359 15.529 17.0412 15.6722 17.0359C16.215 17.02 16.51 16.9279 16.7943 16.8397C16.8865 16.8099 16.9779 16.7814 17.0787 16.7549C17.1125 16.7463 17.1456 16.739 17.1827 16.7317C17.4108 16.6786 17.6547 16.6541 17.9655 16.6541C18.0696 16.6541 18.1651 16.6594 18.2552 16.6667C18.6456 16.6912 18.8776 16.7622 19.1215 16.8397C19.3741 16.9192 19.6359 17.0008 20.0687 17.0273C20.1641 17.0346 20.2669 17.0379 20.3835 17.0379C21.0146 17.0379 21.3347 16.9371 21.6456 16.8384C21.9445 16.7449 22.2289 16.6548 22.8102 16.6548C22.897 16.6548 22.9692 16.5839 22.9692 16.4957C22.9692 16.4075 22.897 16.3386 22.8102 16.3386C22.1791 16.3386 21.859 16.4394 21.5501 16.5368C21.2499 16.6303 20.9649 16.7204 20.3835 16.7204C20.2755 16.7204 20.1801 16.7171 20.0886 16.7118C19.6942 16.6873 19.4629 16.6144 19.217 16.5368C18.9658 16.4573 18.7046 16.3757 18.2751 16.3492C18.2274 16.3459 18.1777 16.3419 18.1246 16.3406V14.2905C18.3155 14.2037 18.4481 14.0114 18.4481 13.7887V13.6489H18.7397C18.8266 13.6489 18.8988 13.5766 18.8988 13.4898V12.304C18.8988 12.2158 18.8266 12.1449 18.7397 12.1449H18.2201V11.0877H18.7397C18.8266 11.0877 18.8988 11.0168 18.8988 10.9286V10.1597C18.8988 10.0716 18.8266 10.0007 18.7397 10.0007L8.15908 10C8.07225 10 8 10.0709 8 10.1591V10.928C8 11.0161 8.07225 11.087 8.15908 11.087H8.67874V12.1442H8.15908C8.07225 12.1442 8 12.2152 8 12.3033V13.4891C8 13.576 8.07225 13.6482 8.15908 13.6482H8.45073V13.7881C8.45073 14.0128 8.58529 14.2037 8.77619 14.2918V16.3671C8.61711 16.3478 8.44544 16.3386 8.25322 16.3386L8.25243 16.3386ZM11.5116 16.6322C11.3949 16.6607 11.255 16.6872 11.0821 16.7032C10.9568 16.7158 10.8242 16.7211 10.6757 16.7211C10.3225 16.7211 10.0838 16.6859 9.90886 16.6468V14.2925C10.0998 14.2043 10.2343 14.0134 10.2343 13.7887V13.6488H11.1888V13.7887C11.1888 14.0114 11.3213 14.2043 11.5122 14.2904V16.6323L11.5116 16.6322ZM12.4163 14.0254H11.7429C11.6123 14.0254 11.5062 13.9193 11.5062 13.7888V13.6489H12.6536V13.7888C12.6536 13.9193 12.5475 14.0254 12.417 14.0254H12.4163ZM14.2491 16.5017C13.9766 16.4189 13.6678 16.3427 13.1322 16.3394H13.1024C12.936 16.3394 12.7875 16.3466 12.6483 16.3586V14.2925C12.8392 14.2043 12.9718 14.0135 12.9718 13.7887V13.6489H13.9263V13.7887C13.9263 14.0115 14.0588 14.2043 14.2497 14.2925V16.5018L14.2491 16.5017ZM15.1538 14.0254H14.4784C14.3491 14.0254 14.2431 13.9193 14.2431 13.7888V13.6489H15.3904V13.7888C15.3904 13.9193 15.2844 14.0254 15.1538 14.0254ZM16.9866 16.4507C16.8838 16.4792 16.7904 16.507 16.6969 16.5375C16.4212 16.6243 16.1594 16.7052 15.6609 16.7198C15.6205 16.7218 15.5794 16.7218 15.5357 16.7218C15.4859 16.7218 15.4349 16.7198 15.3852 16.7198V14.2931C15.5761 14.205 15.7086 14.0121 15.7086 13.7894V13.6495H16.6631V13.7894C16.6631 14.0141 16.7957 14.205 16.9866 14.2931V16.4513L16.9866 16.4507ZM18.1286 13.7887C18.1286 13.9192 18.0226 14.0253 17.892 14.0253H17.2166C17.0873 14.0253 16.9813 13.9192 16.9813 13.7887V13.6488H18.1286V13.7887ZM17.9006 11.0876V12.1449H17.5261V11.0876H17.9006ZM17.208 11.0876V12.1449H17.0012V11.0876H17.208ZM16.683 11.0876V12.1449H16.3085V11.0876H16.683ZM15.9904 11.0876V12.1449H15.7816V11.0876H15.9904ZM15.4634 11.0876V12.1449H15.0889V11.0876H15.4634ZM14.7707 11.0876V12.1449H14.5639V11.0876H14.7707ZM14.2458 11.0876V12.1449H13.8713V11.0876H14.2458ZM13.5531 11.0876V12.1449H13.3443V11.0876H13.5531ZM13.0262 11.0876V12.1449H12.6517V11.0876H13.0262ZM12.3335 11.0876V12.1449H12.1267V11.0876H12.3335ZM11.8086 11.0876V12.1449H11.4341V11.0876H11.8086ZM11.1159 11.0876V12.1449H10.9071V11.0876H11.1159ZM10.5889 11.0876V12.1449H10.2145V11.0876H10.5889ZM9.8963 11.0876V12.1449H9.68949V11.0876H9.8963ZM8.99684 11.0876H9.37133V12.1449H8.99684V11.0876ZM8.76882 13.7887V13.6488H9.91617V13.7887C9.91617 13.9192 9.81012 14.0253 9.68087 14.0253H9.00544C8.87486 14.0253 8.76882 13.9192 8.76882 13.7887Z" fill="#FF6B83"/>
<ellipse cx="14.3189" cy="42.4127" rx="9.24375" ry="1.8125" fill="url(#paint5_radial_163_198)" fill-opacity="0.6"/>
<defs>
<linearGradient id="paint0_linear_163_198" x1="-5.10031e-08" y1="7.98909" x2="22.0987" y2="32.6139" gradientUnits="userSpaceOnUse">
<stop stop-color="#FF6B83"/>
<stop offset="1" stop-color="#E05E73"/>
</linearGradient>
<linearGradient id="paint1_linear_163_198" x1="0.363281" y1="8.15605" x2="21.932" y2="32.081" gradientUnits="userSpaceOnUse">
<stop stop-color="#FF6B83"/>
<stop offset="1" stop-color="#E8667B"/>
</linearGradient>
<linearGradient id="paint2_linear_163_198" x1="26.5277" y1="19.562" x2="1.18487" y2="11.0499" gradientUnits="userSpaceOnUse">
<stop stop-color="#FF6B83"/>
<stop offset="1" stop-color="#EB6379"/>
</linearGradient>
<linearGradient id="paint3_linear_163_198" x1="25.7392" y1="19.2126" x2="1.99541" y2="11.2376" gradientUnits="userSpaceOnUse">
<stop stop-color="white"/>
<stop offset="1" stop-color="#999999"/>
</linearGradient>
<linearGradient id="paint4_linear_163_198" x1="4.89619" y1="10.332" x2="24.1087" y2="25.3757" gradientUnits="userSpaceOnUse">
<stop stop-color="white"/>
<stop offset="1" stop-color="#C7C7C7"/>
</linearGradient>
<radialGradient id="paint5_radial_163_198" cx="0" cy="0" r="1" gradientUnits="userSpaceOnUse" gradientTransform="translate(14.3189 42.4127) scale(9.24375 1.8125)">
<stop/>
<stop offset="1" stop-color="#666666" stop-opacity="0"/>
</radialGradient>
</defs>
</svg>
