<svg width="29" height="45" viewBox="0 0 29 45" fill="none" xmlns="http://www.w3.org/2000/svg">
<path d="M21.478 14.3683C21.478 18.3345 18.2321 21.5522 14.2281 21.5522C10.2236 21.5522 6.97825 18.3345 6.97825 14.3683C6.97825 10.4009 10.2241 7.18427 14.2281 7.18427C18.2329 7.18399 21.478 10.4006 21.478 14.3683ZM29 14.3683C29 6.43274 22.5085 0 14.5 0C6.49204 0 0 6.43274 0 14.3683C0 17.8573 1.25628 21.0563 3.34392 23.5447L14.5125 39.5125L25.8445 23.3118C26.2515 22.8071 26.6242 22.2751 26.9605 21.7159L27.0751 21.5531H27.0563C28.2903 19.4384 29 16.9866 29 14.3683Z" fill="#708090"/>
<path d="M21.2208 14.3792C21.2208 18.2485 18.0687 21.3876 14.1804 21.3876C10.2915 21.3876 7.13996 18.2485 7.13996 14.3792C7.13996 10.5089 10.2921 7.37091 14.1804 7.37091C18.0695 7.37064 21.2208 10.5086 21.2208 14.3792ZM28.5256 14.3792C28.5256 6.63775 22.2216 0.362305 14.4444 0.362305C6.66779 0.362305 0.363281 6.63775 0.363281 14.3792C0.363281 17.7829 1.58328 20.9038 3.61061 23.3313L14.4566 38.9087L25.4612 23.1041C25.8564 22.6117 26.2184 22.0928 26.545 21.5473L26.6563 21.3884H26.638C27.8364 19.3254 28.5256 16.9335 28.5256 14.3792Z" fill="#708090"/>
<circle cx="14.5016" cy="14.5001" r="11.9625" fill="#708090"/>
<circle cx="14.4714" cy="14.4699" r="11.2077" fill="url(#paint0_linear_1177_988)"/>
<circle cx="14.502" cy="14.5005" r="10.875" fill="url(#paint1_linear_1177_988)"/>
<path d="M22.8105 17.8184C22.1795 17.8184 21.8594 17.9191 21.5485 18.0166C21.2482 18.11 20.9652 18.2001 20.3819 18.2001C19.7986 18.2001 19.5156 18.112 19.2153 18.0166C18.9058 17.9191 18.5863 17.8184 17.9533 17.8184C17.3203 17.8184 17.0021 17.9191 16.6933 18.0166C16.393 18.11 16.11 18.2001 15.5287 18.2001C14.9474 18.2001 14.6624 18.112 14.3641 18.0166C14.0545 17.9191 13.7351 17.8184 13.104 17.8184C12.473 17.8184 12.1529 17.9191 11.844 18.0166C11.5438 18.11 11.2607 18.2001 10.6794 18.2001C10.0981 18.2001 9.81508 18.112 9.51482 18.0166C9.20528 17.9191 8.8858 17.8184 8.25478 17.8184C8.16663 17.8184 8.0957 17.8893 8.0957 17.9774C8.0957 18.0656 8.16663 18.1365 8.25478 18.1365C8.83609 18.1365 9.11912 18.2247 9.41937 18.3201C9.72891 18.4176 10.0484 18.5183 10.6794 18.5183C11.3104 18.5183 11.6306 18.4176 11.9395 18.3201C12.2397 18.2267 12.5227 18.1365 13.104 18.1365C13.6854 18.1365 13.9704 18.2247 14.2686 18.3201C14.5782 18.4176 14.8977 18.5183 15.5287 18.5183C16.1597 18.5183 16.4798 18.4176 16.7887 18.3201C17.089 18.2267 17.372 18.1365 17.9533 18.1365C18.5346 18.1365 18.8196 18.2247 19.1199 18.3201C19.4294 18.4176 19.7489 18.5183 20.3819 18.5183C21.0149 18.5183 21.3331 18.4176 21.6439 18.3201C21.9442 18.2267 22.2272 18.1365 22.8105 18.1365C22.8987 18.1365 22.9696 18.0656 22.9696 17.9774C22.9696 17.8893 22.8987 17.8184 22.8105 17.8184Z" fill="#708090"/>
<path d="M22.8105 19.2988C22.1795 19.2988 21.8594 19.3996 21.5485 19.497C21.2482 19.5905 20.9652 19.6806 20.3819 19.6806C19.7986 19.6806 19.5156 19.5925 19.2153 19.497C18.9058 19.3996 18.5863 19.2988 17.9533 19.2988C17.3203 19.2988 17.0021 19.3996 16.6933 19.497C16.393 19.5905 16.11 19.6806 15.5287 19.6806C14.9474 19.6806 14.6624 19.5925 14.3641 19.497C14.0545 19.3996 13.7351 19.2988 13.104 19.2988C12.473 19.2988 12.1529 19.3996 11.844 19.497C11.5438 19.5905 11.2607 19.6806 10.6794 19.6806C10.0981 19.6806 9.81508 19.5925 9.51482 19.497C9.20528 19.3996 8.8858 19.2988 8.25478 19.2988C8.16663 19.2988 8.0957 19.3698 8.0957 19.4579C8.0957 19.5461 8.16663 19.617 8.25478 19.617C8.83609 19.617 9.11912 19.7051 9.41937 19.8006C9.72891 19.898 10.0484 19.9988 10.6794 19.9988C11.3104 19.9988 11.6306 19.898 11.9395 19.8006C12.2397 19.7071 12.5227 19.617 13.104 19.617C13.6854 19.617 13.9704 19.7051 14.2686 19.8006C14.5782 19.898 14.8977 19.9988 15.5287 19.9988C16.1597 19.9988 16.4798 19.898 16.7887 19.8006C17.089 19.7071 17.372 19.617 17.9533 19.617C18.5346 19.617 18.8196 19.7051 19.1199 19.8006C19.4294 19.898 19.7489 19.9988 20.3819 19.9988C21.0149 19.9988 21.3331 19.898 21.6439 19.8006C21.9442 19.7071 22.2272 19.617 22.8105 19.617C22.8987 19.617 22.9696 19.5461 22.9696 19.4579C22.9696 19.3698 22.8987 19.2988 22.8105 19.2988Z" fill="#708090"/>
<path d="M8.25243 16.3386C8.16428 16.3386 8.09336 16.4095 8.09336 16.4957C8.09336 16.5825 8.16428 16.6548 8.25243 16.6548C8.50365 16.6548 8.71708 16.6727 8.90665 16.7058C9.10085 16.7409 9.25332 16.7873 9.41239 16.8364C9.50983 16.8662 9.6066 16.8967 9.70934 16.9232C9.90886 16.9762 10.1972 17.0379 10.6764 17.0379C10.8335 17.0379 10.9767 17.0306 11.1112 17.02C11.371 16.9955 11.5619 16.9491 11.7137 16.9066C11.7913 16.8854 11.8642 16.8622 11.9364 16.8397C12.1147 16.7834 12.2844 16.7303 12.5124 16.6945C12.6874 16.668 12.8803 16.6541 13.103 16.6541H13.1329C13.6949 16.6594 13.974 16.7476 14.2696 16.8397L14.314 16.8536C14.3352 16.8609 14.3564 16.8675 14.3637 16.8675C14.5725 16.9332 14.8304 17.0034 15.2194 17.0286C15.3573 17.0359 15.529 17.0412 15.6722 17.0359C16.215 17.02 16.51 16.9279 16.7943 16.8397C16.8865 16.8099 16.9779 16.7814 17.0787 16.7549C17.1125 16.7463 17.1456 16.739 17.1827 16.7317C17.4108 16.6786 17.6547 16.6541 17.9655 16.6541C18.0696 16.6541 18.1651 16.6594 18.2552 16.6667C18.6456 16.6912 18.8776 16.7622 19.1215 16.8397C19.3741 16.9192 19.6359 17.0008 20.0687 17.0273C20.1641 17.0346 20.2669 17.0379 20.3835 17.0379C21.0146 17.0379 21.3347 16.9371 21.6456 16.8384C21.9445 16.7449 22.2289 16.6548 22.8102 16.6548C22.897 16.6548 22.9692 16.5839 22.9692 16.4957C22.9692 16.4075 22.897 16.3386 22.8102 16.3386C22.1791 16.3386 21.859 16.4394 21.5501 16.5368C21.2499 16.6303 20.9649 16.7204 20.3835 16.7204C20.2755 16.7204 20.1801 16.7171 20.0886 16.7118C19.6942 16.6873 19.4629 16.6144 19.217 16.5368C18.9658 16.4573 18.7046 16.3757 18.2751 16.3492C18.2274 16.3459 18.1777 16.3419 18.1246 16.3406V14.2905C18.3155 14.2037 18.4481 14.0114 18.4481 13.7887V13.6489H18.7397C18.8266 13.6489 18.8988 13.5766 18.8988 13.4898V12.304C18.8988 12.2158 18.8266 12.1449 18.7397 12.1449H18.2201V11.0877H18.7397C18.8266 11.0877 18.8988 11.0168 18.8988 10.9286V10.1597C18.8988 10.0716 18.8266 10.0007 18.7397 10.0007L8.15908 10C8.07225 10 8 10.0709 8 10.1591V10.928C8 11.0161 8.07225 11.087 8.15908 11.087H8.67874V12.1442H8.15908C8.07225 12.1442 8 12.2152 8 12.3033V13.4891C8 13.576 8.07225 13.6482 8.15908 13.6482H8.45073V13.7881C8.45073 14.0128 8.58529 14.2037 8.77619 14.2918V16.3671C8.61711 16.3478 8.44544 16.3386 8.25322 16.3386L8.25243 16.3386ZM11.5116 16.6322C11.3949 16.6607 11.255 16.6872 11.0821 16.7032C10.9568 16.7158 10.8242 16.7211 10.6757 16.7211C10.3225 16.7211 10.0838 16.6859 9.90886 16.6468V14.2925C10.0998 14.2043 10.2343 14.0134 10.2343 13.7887V13.6488H11.1888V13.7887C11.1888 14.0114 11.3213 14.2043 11.5122 14.2904V16.6323L11.5116 16.6322ZM12.4163 14.0254H11.7429C11.6123 14.0254 11.5062 13.9193 11.5062 13.7888V13.6489H12.6536V13.7888C12.6536 13.9193 12.5475 14.0254 12.417 14.0254H12.4163ZM14.2491 16.5017C13.9766 16.4189 13.6678 16.3427 13.1322 16.3394H13.1024C12.936 16.3394 12.7875 16.3466 12.6483 16.3586V14.2925C12.8392 14.2043 12.9718 14.0135 12.9718 13.7887V13.6489H13.9263V13.7887C13.9263 14.0115 14.0588 14.2043 14.2497 14.2925V16.5018L14.2491 16.5017ZM15.1538 14.0254H14.4784C14.3491 14.0254 14.2431 13.9193 14.2431 13.7888V13.6489H15.3905V13.7888C15.3905 13.9193 15.2844 14.0254 15.1538 14.0254ZM16.9866 16.4507C16.8838 16.4792 16.7904 16.507 16.6969 16.5375C16.4212 16.6243 16.1594 16.7052 15.6609 16.7198C15.6205 16.7218 15.5794 16.7218 15.5357 16.7218C15.4859 16.7218 15.4349 16.7198 15.3852 16.7198V14.2931C15.5761 14.205 15.7086 14.0121 15.7086 13.7894V13.6495H16.6631V13.7894C16.6631 14.0141 16.7957 14.205 16.9866 14.2931V16.4513L16.9866 16.4507ZM18.1286 13.7887C18.1286 13.9192 18.0226 14.0253 17.892 14.0253H17.2166C17.0873 14.0253 16.9813 13.9192 16.9813 13.7887V13.6488H18.1286V13.7887ZM17.9006 11.0876V12.1449H17.5261V11.0876H17.9006ZM17.208 11.0876V12.1449H17.0012V11.0876H17.208ZM16.683 11.0876V12.1449H16.3085V11.0876H16.683ZM15.9904 11.0876V12.1449H15.7816V11.0876H15.9904ZM15.4634 11.0876V12.1449H15.0889V11.0876H15.4634ZM14.7707 11.0876V12.1449H14.5639V11.0876H14.7707ZM14.2458 11.0876V12.1449H13.8713V11.0876H14.2458ZM13.5531 11.0876V12.1449H13.3443V11.0876H13.5531ZM13.0262 11.0876V12.1449H12.6517V11.0876H13.0262ZM12.3335 11.0876V12.1449H12.1267V11.0876H12.3335ZM11.8086 11.0876V12.1449H11.4341V11.0876H11.8086ZM11.1159 11.0876V12.1449H10.9071V11.0876H11.1159ZM10.5889 11.0876V12.1449H10.2145V11.0876H10.5889ZM9.8963 11.0876V12.1449H9.68949V11.0876H9.8963ZM8.99684 11.0876H9.37133V12.1449H8.99684V11.0876ZM8.76882 13.7887V13.6488H9.91617V13.7887C9.91617 13.9192 9.81012 14.0253 9.68087 14.0253H9.00544C8.87486 14.0253 8.76882 13.9192 8.76882 13.7887Z" fill="#708090"/>
<ellipse cx="14.3189" cy="42.4126" rx="9.24375" ry="1.8125" fill="url(#paint2_radial_1177_988)" fill-opacity="0.6"/>
<defs>
<linearGradient id="paint0_linear_1177_988" x1="25.7387" y1="19.2122" x2="1.99492" y2="11.2372" gradientUnits="userSpaceOnUse">
<stop stop-color="white"/>
<stop offset="1" stop-color="#999999"/>
</linearGradient>
<linearGradient id="paint1_linear_1177_988" x1="4.8957" y1="10.3317" x2="24.1082" y2="25.3755" gradientUnits="userSpaceOnUse">
<stop stop-color="white"/>
<stop offset="1" stop-color="#C7C7C7"/>
</linearGradient>
<radialGradient id="paint2_radial_1177_988" cx="0" cy="0" r="1" gradientUnits="userSpaceOnUse" gradientTransform="translate(14.3189 42.4126) scale(9.24375 1.8125)">
<stop/>
<stop offset="1" stop-color="#666666" stop-opacity="0"/>
</radialGradient>
</defs>
</svg>
