<svg width="17" height="17" viewBox="0 0 17 17" fill="none" xmlns="http://www.w3.org/2000/svg">
<path d="M4.33659 13.3541L4.53688 14.2814C3.1187 13.2177 2.13688 11.6811 1.76444 9.96289H1.07324C1.46444 11.9265 2.58262 13.6993 4.2275 14.8899L3.20902 15.1081L3.35476 15.772L5.46414 15.3177L5.00989 13.2083L4.34596 13.3541L4.33659 13.3541Z" fill="black"/>
<path d="M13.4003 3.18288L13.2639 2.5556C14.6821 3.61924 15.6639 5.15589 16.0458 6.87408H16.737C16.3458 4.91044 15.2276 3.13771 13.5827 1.94709L14.2918 1.79283L14.1461 1.12891L12.3367 1.52011L12.7279 3.32949L13.3918 3.18375L13.4003 3.18288Z" fill="black"/>
<path d="M15.8003 7.6456H15.1185L14.0915 6.22742C13.973 6.05441 13.7821 5.94531 13.5733 5.94531C13.3645 5.94531 13.1642 6.0544 13.0551 6.22742L12.1278 7.6456H11.9915V8.10924C11.9915 8.18168 11.9821 8.25498 11.9736 8.32742H12.5011L13.5827 6.67317L14.7827 8.32742H15.8097C16.0278 8.32742 16.2009 8.50043 16.2009 8.71862V15.3365C16.2009 15.5547 16.0278 15.7277 15.8097 15.7277H7.49148C7.27329 15.7277 7.10028 15.5547 7.10028 15.3365V9.77288H6.41846V15.3365C6.41846 15.9271 6.89998 16.4095 7.49148 16.4095H15.8097C16.4003 16.4095 16.8827 15.928 16.8827 15.3365V8.71862C16.8827 8.128 16.4011 7.6456 15.8097 7.6456H15.8003Z" fill="black"/>
<path d="M6.109 2.98242C5.9999 3.35486 5.76383 4.07333 5.44507 5.0006H6.81809C6.42689 3.91908 6.2087 3.31908 6.11838 2.98242H6.109Z" fill="black"/>
<path d="M11.3915 8.11864V1.50075C11.3915 0.910134 10.9099 0.427734 10.3184 0.427734H2.00026C1.40965 0.427734 0.927246 0.909261 0.927246 1.50075V8.11864C0.927246 8.70926 1.40877 9.19166 2.00026 9.19166H2.68208L3.70906 10.6098C3.82753 10.7829 4.01845 10.892 4.22725 10.892C4.43605 10.892 4.63634 10.7829 4.74543 10.6098L5.6727 9.19166H10.2997C10.8903 9.19166 11.3727 8.71013 11.3727 8.11864H11.3915ZM7.42754 6.76439L6.97328 5.53712H5.29175L4.85539 6.76439H4.22812L5.74601 2.47319H6.53692L8.11874 6.76439H7.42754Z" fill="black"/>
<path d="M11.2003 9.97266V10.4542H9.5V11.136H9.93636C10.1997 11.7633 10.573 12.3454 11.0545 12.8542C10.6361 13.2087 10.1545 13.5181 9.62698 13.7636L9.9176 14.3815C10.527 14.0993 11.0724 13.7448 11.5446 13.3272C12.0176 13.7363 12.5716 14.1002 13.1716 14.3815L13.4622 13.7636C12.9346 13.5181 12.4531 13.2087 12.0346 12.8542C12.5076 12.3454 12.8801 11.7633 13.1528 11.136H13.5892V10.4542H11.8889V9.97266H11.2003ZM11.5361 12.3727C11.1909 12.0002 10.8994 11.5817 10.6727 11.136H12.3909C12.1727 11.5817 11.8821 11.9993 11.5276 12.3727H11.5361Z" fill="black"/>
</svg>
