<svg width="70" height="70" viewBox="0 0 70 70" fill="none" xmlns="http://www.w3.org/2000/svg">
<rect width="70" height="70" rx="16" fill="#00B4B5"/>
<path d="M44.2594 19H26.6889C26.3014 19 26.043 19.2583 26.043 19.6458V49.3541C26.043 49.7416 26.3014 50 26.6889 50C27.0765 50 27.3349 49.7416 27.3349 49.3541V20.2917H43.6134V49.3541C43.6134 49.7416 43.8718 50 44.2594 50C44.647 50 44.9054 49.7416 44.9054 49.3541V19.6458C44.9054 19.2583 44.647 19 44.2594 19Z" fill="white"/>
<path d="M37.7993 29.0752H33.2129C31.7918 29.0752 30.5645 30.2377 30.5645 31.7231V38.8919C30.5645 39.2148 30.8874 39.5377 31.2104 39.5377H32.0502V49.3543C32.0502 49.6773 32.3086 50.0002 32.6962 50.0002H34.8279V44.6398C34.8279 44.1877 35.0863 43.8648 35.4738 43.8648C35.8614 43.8648 36.1198 44.2523 36.1198 44.6398V50.0002H38.2515C38.6391 50.0002 38.8975 49.6773 38.8975 49.3543V39.5377H39.7373C40.0603 39.5377 40.3832 39.2148 40.3832 38.8919V31.7231C40.3832 30.2377 39.2205 29.0752 37.7993 29.0752Z" fill="white"/>
<path d="M35.4739 28.1062C37.115 28.1062 38.4454 26.7761 38.4454 25.1354C38.4454 23.4946 37.115 22.1646 35.4739 22.1646C33.8328 22.1646 32.5024 23.4946 32.5024 25.1354C32.5024 26.7761 33.8328 28.1062 35.4739 28.1062Z" fill="white"/>
<path d="M50.7836 35.7918C50.5252 35.5334 50.1376 35.598 49.8792 35.8563L49.2333 36.5668V29.5272C49.2333 29.1397 48.9749 28.8813 48.5873 28.8813C48.1997 28.8813 47.9413 29.1397 47.9413 29.5272V36.7605L47.1016 35.9855C46.8432 35.7272 46.4556 35.7272 46.1972 36.0501C45.9388 36.3084 45.9388 36.6959 46.2618 36.9543L48.1997 38.7626C48.1997 38.7626 48.2643 38.8272 48.3289 38.8272L48.3935 38.8918C48.4581 38.8918 48.5227 38.9563 48.6519 38.9563C48.7165 38.9563 48.7165 38.9563 48.7811 38.9563C48.8457 38.9563 48.8457 38.9563 48.9103 38.9563C48.9749 38.9563 48.9749 38.8918 48.9749 38.8918C49.0395 38.8918 49.0395 38.8272 49.1041 38.8272L50.9128 36.8897C51.042 36.4376 51.042 35.9855 50.7836 35.7918ZM22.813 30.3022L22.7484 30.2376C22.6838 30.2376 22.6838 30.173 22.6192 30.173C22.5546 30.173 22.49 30.173 22.49 30.173H22.4254C22.3608 30.173 22.3608 30.173 22.2962 30.173C22.2316 30.173 22.2316 30.173 22.167 30.173C22.1024 30.173 22.1024 30.2376 22.1024 30.2376C22.0378 30.2376 22.0378 30.3022 21.9732 30.3022L20.1645 32.2397C19.9061 32.498 19.9707 32.8855 20.2291 33.1438C20.3583 33.273 20.4875 33.3376 20.6813 33.3376C20.8751 33.3376 21.0043 33.273 21.1334 33.1438L21.7794 32.4334V39.473C21.7794 39.8605 22.0378 40.1188 22.4254 40.1188C22.813 40.1188 23.0714 39.8605 23.0714 39.473V32.3043L23.9111 33.0793C24.1695 33.3376 24.5571 33.3376 24.8155 33.0147C25.0739 32.7563 25.0739 32.3688 24.7509 32.1105L22.813 30.3022Z" fill="white"/>
</svg>
