<svg width="40" height="41" viewBox="0 0 40 41" fill="none" xmlns="http://www.w3.org/2000/svg">
<rect y="0.5" width="40" height="40" rx="4" fill="#FEEFEF"/>
<path d="M27 29.4885C27 30.3247 23.8642 31 20 31C16.1358 31 13 30.3247 13 29.4885C13 28.7414 15.5125 28.1264 18.8074 28H21.1926C24.4907 28.1264 27 28.7414 27 29.4885Z" fill="#D0D0D0"/>
<path d="M20.0015 11.5C16.6869 11.5 14 14.3039 14 17.7666C14 21.2293 20.0015 29.5 20.0015 29.5C20.0015 29.5 26 21.2293 26 17.7666C26 14.3039 23.3161 11.5 20.0015 11.5ZM20.0015 21.9157C17.8074 21.9157 16.0298 20.0587 16.0298 17.7666C16.0298 15.4745 17.8074 13.6175 20.0015 13.6175C22.1956 13.6175 23.9731 15.4745 23.9731 17.7666C23.9731 20.0587 22.1956 21.9157 20.0015 21.9157Z" fill="#E82327"/>
</svg>
