<svg width="24" height="25" viewBox="0 0 24 25" fill="none" xmlns="http://www.w3.org/2000/svg">
<path fill-rule="evenodd" clip-rule="evenodd" d="M11.9635 5.5C15.2541 5.5 17.9256 8.17149 17.9256 11.4621C17.9256 13.3312 17.0643 15.1191 15.9929 16.5768C14.4794 18.6385 12.586 20.0254 12.586 20.0254C12.5854 20.0254 12.5854 20.0254 12.5854 20.026C12.2154 20.298 11.7108 20.298 11.3402 20.026C11.3402 20.0254 11.3402 20.0254 11.3396 20.0254C11.3396 20.0254 9.44627 18.6385 7.93268 16.5768C6.86189 15.1184 6 13.3304 6 11.4621C6.00121 8.17149 8.67273 5.5 11.9633 5.5H11.9635ZM11.9635 9.00674C10.6086 9.00674 9.50876 10.1066 9.50876 11.4615C9.50876 12.8169 10.6086 13.9168 11.9635 13.9168C13.3183 13.9168 14.4182 12.8169 14.4182 11.4621C14.4182 10.1072 13.3183 9.00674 11.9635 9.00674Z" fill="#888787"/>
</svg>
