<svg width="29" height="45" viewBox="0 0 29 45" fill="none" xmlns="http://www.w3.org/2000/svg">
<path d="M21.478 14.3683C21.478 18.3345 18.2321 21.5522 14.2281 21.5522C10.2236 21.5522 6.97825 18.3345 6.97825 14.3683C6.97825 10.4009 10.2241 7.18427 14.2281 7.18427C18.2329 7.18399 21.478 10.4006 21.478 14.3683ZM29 14.3683C29 6.43274 22.5085 0 14.5 0C6.49204 0 0 6.43274 0 14.3683C0 17.8573 1.25628 21.0563 3.34392 23.5447L14.5125 39.5125L25.8445 23.3118C26.2515 22.8071 26.6242 22.2751 26.9605 21.7159L27.0751 21.5531H27.0563C28.2903 19.4384 29 16.9866 29 14.3683Z" fill="#708090"/>
<path d="M21.2208 14.3792C21.2208 18.2485 18.0687 21.3876 14.1804 21.3876C10.2915 21.3876 7.13996 18.2485 7.13996 14.3792C7.13996 10.5089 10.2921 7.37091 14.1804 7.37091C18.0695 7.37064 21.2208 10.5086 21.2208 14.3792ZM28.5256 14.3792C28.5256 6.63775 22.2216 0.362305 14.4444 0.362305C6.66779 0.362305 0.363281 6.63775 0.363281 14.3792C0.363281 17.7829 1.58328 20.9038 3.61061 23.3313L14.4566 38.9087L25.4612 23.1041C25.8564 22.6117 26.2184 22.0928 26.545 21.5473L26.6563 21.3884H26.638C27.8364 19.3254 28.5256 16.9335 28.5256 14.3792Z" fill="#708090"/>
<circle cx="14.5016" cy="14.5001" r="11.9625" fill="#708090"/>
<circle cx="14.4714" cy="14.4699" r="11.2077" fill="url(#paint0_linear_1177_1006)"/>
<circle cx="14.502" cy="14.5" r="10.875" fill="url(#paint1_linear_1177_1006)"/>
<path d="M17.7356 14.1669H20.3676C20.4525 14.1669 20.5222 14.0973 20.5222 14.0123V12.5135C20.5222 12.4285 20.4525 12.3589 20.3676 12.3589H17.7356C17.6508 12.3589 17.5811 12.4285 17.5811 12.5135V14.0123C17.5811 14.0973 17.6508 14.1669 17.7356 14.1669Z" fill="#708090"/>
<path d="M17.0313 14.0123V12.5135C17.0313 12.4285 16.9619 12.3589 16.8767 12.3589H14.2454C14.1604 12.3589 14.0908 12.4285 14.0908 12.5135V14.0123C14.0908 14.0973 14.1604 14.1669 14.2454 14.1669H16.8767C16.9618 14.1669 17.0313 14.0973 17.0313 14.0123Z" fill="#708090"/>
<path d="M16.1826 17.8916V18.3276V18.5626H18.3517V18.3276V17.8916V17.2729H16.1826V17.8916ZM16.8506 17.6093H17.6846V18.2313H16.8506V17.6093Z" fill="#708090"/>
<path d="M17.2996 10.317C17.4888 10.317 17.6422 10.1636 17.6422 9.97441C17.6422 9.78521 17.4888 9.63184 17.2996 9.63184C17.1104 9.63184 16.957 9.78521 16.957 9.97441C16.957 10.1636 17.1104 10.317 17.2996 10.317Z" fill="#708090"/>
<path d="M19.2925 16.6162C19.4729 16.6162 19.6191 16.47 19.6191 16.2895C19.6191 16.1091 19.4729 15.9629 19.2925 15.9629C19.1121 15.9629 18.9658 16.1091 18.9658 16.2895C18.9658 16.47 19.1121 16.6162 19.2925 16.6162Z" fill="#708090"/>
<path d="M20.0493 16.6162C20.2297 16.6162 20.376 16.47 20.376 16.2895C20.376 16.1091 20.2297 15.9629 20.0493 15.9629C19.8689 15.9629 19.7227 16.1091 19.7227 16.2895C19.7227 16.47 19.8689 16.6162 20.0493 16.6162Z" fill="#708090"/>
<path d="M14.4175 16.6162C14.5979 16.6162 14.7441 16.47 14.7441 16.2895C14.7441 16.1091 14.5979 15.9629 14.4175 15.9629C14.2371 15.9629 14.0908 16.1091 14.0908 16.2895C14.0908 16.47 14.2371 16.6162 14.4175 16.6162Z" fill="#708090"/>
<path d="M15.1743 16.6162C15.3547 16.6162 15.501 16.47 15.501 16.2895C15.501 16.1091 15.3547 15.9629 15.1743 15.9629C14.9939 15.9629 14.8477 16.1091 14.8477 16.2895C14.8477 16.47 14.9939 16.6162 15.1743 16.6162Z" fill="#708090"/>
<path d="M21.0891 11.2014C21.0891 10.8979 21.0891 10.5048 21.0891 10.438C21.0891 10.3275 20.978 10.1808 20.7796 10.1288C20.311 10.0055 19.3552 9.78562 18.2339 9.69766C18.1144 9.29463 17.7409 8.99951 17.2994 8.99951C16.8579 8.99951 16.4849 9.29463 16.3654 9.69766C15.2441 9.78546 14.2882 10.0055 13.8194 10.1288C13.6672 10.1687 13.5669 10.2585 13.5283 10.3528L13.5281 10.3522C13.5281 10.3522 13.5249 10.3627 13.5199 10.378C13.5185 10.3831 13.5162 10.3882 13.515 10.3933C13.3758 10.8225 12.052 14.6519 8.62332 16.2898C8.24256 16.4716 8.28136 16.8524 8.28136 16.8524C8.28136 16.8524 8.28136 18.7236 8.28136 19.8552C8.28105 19.8552 8.28059 19.8549 8.28028 19.8549C8.12553 19.8549 8 19.9804 8 20.1353C8 20.2902 8.12553 20.4155 8.28028 20.4155C8.28059 20.4155 8.28105 20.4155 8.28136 20.4155C8.28136 20.5625 8.28136 20.6619 8.28136 20.6891C8.28136 20.8795 8.33933 20.998 8.4913 20.998C8.62502 20.998 13.3539 20.998 14.4965 20.998C14.5031 20.9983 14.5096 20.9995 14.5164 20.9995H20.1852C20.3812 20.9995 20.5527 20.8681 20.6034 20.6789L21.1989 18.4591C21.212 18.4176 21.2191 18.3736 21.2191 18.328C21.2191 18.2818 21.2098 18.238 21.1966 18.196C21.3927 18.0625 21.5217 17.8376 21.5217 17.5827V11.8737C21.5217 11.5753 21.3436 11.319 21.0891 11.2014ZM16.7079 9.67508L16.7082 9.67478C16.7472 9.5981 16.7998 9.53069 16.8638 9.47489C16.873 9.46685 16.8825 9.45912 16.8922 9.45154C16.9091 9.43825 16.9259 9.42495 16.9442 9.41336C16.9717 9.39558 17.0006 9.37981 17.0309 9.36636C17.0423 9.36126 17.0544 9.35755 17.0663 9.35307C17.0919 9.34333 17.1182 9.33513 17.1453 9.32849C17.157 9.3257 17.1688 9.32292 17.1807 9.32076C17.2193 9.31365 17.2588 9.3087 17.2996 9.3087C17.3402 9.3087 17.3796 9.31365 17.4183 9.32076C17.4302 9.32292 17.4418 9.3257 17.4537 9.32849C17.4807 9.33498 17.5072 9.34333 17.5328 9.35307C17.5446 9.35755 17.5568 9.36126 17.5684 9.36636C17.5985 9.37981 17.6273 9.39558 17.655 9.41336C17.6732 9.42511 17.6902 9.4384 17.7072 9.4517C17.7168 9.45927 17.7262 9.46685 17.7355 9.47489C17.7995 9.53085 17.8524 9.59825 17.8913 9.67478L17.8917 9.67524C17.9374 9.76552 17.9657 9.86616 17.9657 9.97438C17.9657 10.033 17.9558 10.0888 17.9416 10.1429C17.9141 10.2472 17.8624 10.3409 17.7924 10.4187C17.7899 10.4213 17.7881 10.4242 17.7856 10.4267C17.768 10.4456 17.749 10.4624 17.7293 10.4791C17.718 10.4887 17.7069 10.4984 17.695 10.5073C17.678 10.5201 17.6601 10.5315 17.6417 10.5427C17.6245 10.5532 17.6069 10.5625 17.5888 10.5714C17.5723 10.5793 17.556 10.5872 17.5389 10.5938C17.5154 10.6031 17.4908 10.6099 17.4661 10.6164C17.452 10.6201 17.4384 10.6248 17.424 10.6274C17.3838 10.6351 17.3425 10.6399 17.2999 10.6399C17.2572 10.6399 17.2159 10.6351 17.1754 10.6274C17.1612 10.6246 17.1476 10.6201 17.1335 10.6164C17.1088 10.6099 17.0844 10.603 17.0607 10.5938C17.0436 10.5872 17.0272 10.5795 17.0109 10.5714C16.9929 10.5625 16.9751 10.553 16.9579 10.5425C16.9397 10.5315 16.9219 10.5199 16.9049 10.5073C16.8928 10.4983 16.8817 10.4886 16.8704 10.479C16.8508 10.4623 16.8318 10.4456 16.8143 10.4267C16.8118 10.4239 16.8098 10.421 16.8073 10.4182C16.7375 10.3408 16.6863 10.2472 16.6588 10.1433C16.6588 10.1433 16.6586 10.143 16.6585 10.1427C16.6442 10.0886 16.6343 10.0328 16.6343 9.97422C16.6339 9.86601 16.6623 9.76537 16.7079 9.67508ZM13.9738 10.5679C14.3951 10.4586 15.2919 10.2528 16.3439 10.165C16.4328 10.6116 16.8273 10.9492 17.2996 10.9492C17.7718 10.9492 18.1667 10.6116 18.2556 10.165C19.3074 10.2528 20.2041 10.4584 20.6255 10.5679V11.1007H13.9738V10.5679ZM8.76663 16.7225C11.2355 15.5118 12.4011 13.7239 12.8762 12.7659C12.9142 12.6893 13.007 12.6583 13.0833 12.696C13.1599 12.734 13.1911 12.8268 13.1532 12.9031C12.6607 13.8963 11.4535 15.7489 8.90283 17.0002C8.88087 17.0107 8.85768 17.016 8.83496 17.016C8.77776 17.016 8.72288 16.9843 8.69613 16.9295C8.65826 16.853 8.68995 16.7604 8.76663 16.7225ZM13.167 18.353C13.0688 18.4303 10.7408 20.2456 8.8348 20.2456C8.74947 20.2456 8.68021 20.1765 8.68021 20.091C8.68021 20.0058 8.74947 19.9364 8.8348 19.9364C10.6333 19.9364 12.9526 18.1284 12.9757 18.11C13.043 18.0571 13.1401 18.0689 13.1928 18.136C13.2457 18.2031 13.2341 18.3003 13.167 18.353ZM14.1959 19.3709H20.5061L20.405 19.7478H14.2971L14.1959 19.3709ZM14.5164 20.5667L14.413 20.1808H20.2889L20.1854 20.5667H14.5164ZM20.7799 17.8917H18.6611V18.3277H20.7858L20.6221 18.9379H14.08L13.9164 18.3277H15.8737V17.8917H13.8192C13.6492 17.8917 13.51 17.7529 13.51 17.5825V15.107H16.2505V14.6586H13.51V11.8737C13.51 11.7037 13.6492 11.5645 13.8192 11.5645H20.7799C20.95 11.5645 21.0891 11.7037 21.0891 11.8737V14.6586H18.3519V15.107H21.089V17.5825C21.0891 17.7529 20.9498 17.8917 20.7799 17.8917Z" fill="#708090"/>
<ellipse cx="14.3189" cy="42.4126" rx="9.24375" ry="1.8125" fill="url(#paint2_radial_1177_1006)" fill-opacity="0.6"/>
<defs>
<linearGradient id="paint0_linear_1177_1006" x1="25.7387" y1="19.2122" x2="1.99492" y2="11.2372" gradientUnits="userSpaceOnUse">
<stop stop-color="white"/>
<stop offset="1" stop-color="#999999"/>
</linearGradient>
<linearGradient id="paint1_linear_1177_1006" x1="4.8957" y1="10.3313" x2="24.1082" y2="25.375" gradientUnits="userSpaceOnUse">
<stop stop-color="white"/>
<stop offset="1" stop-color="#C7C7C7"/>
</linearGradient>
<radialGradient id="paint2_radial_1177_1006" cx="0" cy="0" r="1" gradientUnits="userSpaceOnUse" gradientTransform="translate(14.3189 42.4126) scale(9.24375 1.8125)">
<stop/>
<stop offset="1" stop-color="#666666" stop-opacity="0"/>
</radialGradient>
</defs>
</svg>
