<svg width="29" height="45" viewBox="0 0 29 45" fill="none" xmlns="http://www.w3.org/2000/svg">
<path d="M21.478 14.3683C21.478 18.3345 18.2321 21.5522 14.2281 21.5522C10.2236 21.5522 6.97825 18.3345 6.97825 14.3683C6.97825 10.4009 10.2241 7.18427 14.2281 7.18427C18.2329 7.18399 21.478 10.4006 21.478 14.3683ZM29 14.3683C29 6.43274 22.5085 0 14.5 0C6.49204 0 0 6.43274 0 14.3683C0 17.8573 1.25628 21.0563 3.34392 23.5447L14.5125 39.5125L25.8445 23.3118C26.2515 22.8071 26.6242 22.2751 26.9605 21.7159L27.0751 21.5531H27.0563C28.2904 19.4384 29 16.9866 29 14.3683Z" fill="url(#paint0_linear_163_183)"/>
<path d="M21.2208 14.3792C21.2208 18.2485 18.0687 21.3876 14.1804 21.3876C10.2915 21.3876 7.13996 18.2485 7.13996 14.3792C7.13996 10.5089 10.2921 7.37091 14.1804 7.37091C18.0695 7.37064 21.2208 10.5086 21.2208 14.3792ZM28.5256 14.3792C28.5256 6.63775 22.2216 0.362305 14.4444 0.362305C6.66779 0.362305 0.363281 6.63775 0.363281 14.3792C0.363281 17.7829 1.58328 20.9038 3.61061 23.3313L14.4566 38.9087L25.4612 23.1041C25.8564 22.6117 26.2184 22.0928 26.545 21.5473L26.6563 21.3884H26.638C27.8364 19.3254 28.5256 16.9335 28.5256 14.3792Z" fill="url(#paint1_linear_163_183)"/>
<circle cx="14.5016" cy="14.5003" r="11.9625" fill="url(#paint2_linear_163_183)"/>
<circle cx="14.4719" cy="14.4703" r="11.2077" fill="url(#paint3_linear_163_183)"/>
<circle cx="14.5024" cy="14.5007" r="10.875" fill="url(#paint4_linear_163_183)"/>
<path d="M17.1473 13.5235H22.4772C22.4491 13.4018 22.414 13.2818 22.3721 13.1642H17.1473V13.5235ZM17.9778 10.1604C17.9665 10.1604 17.9408 10.174 17.9213 10.2029C17.9043 10.2281 17.9036 10.2479 17.9049 10.2511C18.2009 10.8363 18.3976 11.1925 18.7819 11.8395C18.8349 11.9285 18.9969 12.0341 19.0808 12.0341H21.7546C21.4032 11.5603 20.9441 11.104 20.3947 10.6932C20.1356 10.4998 19.8653 10.3219 19.5853 10.1604H17.9778ZM17.1473 13.8543V14.1295C17.1471 14.2464 17.1007 14.3585 17.018 14.4411C16.9354 14.5238 16.8233 14.5702 16.7065 14.5704H15.0552C14.9383 14.5702 14.8263 14.5238 14.7436 14.4411C14.661 14.3585 14.6145 14.2464 14.6144 14.1295V13.8543H8V15.3914C8 15.3914 12.3085 15.3936 16.2275 15.3936C18.1868 15.3936 20.0628 15.3932 21.2813 15.3915C22.3466 15.3901 22.5486 14.9454 22.5486 14.1255C22.5486 14.036 22.5431 13.9454 22.5333 13.8544L17.1473 13.8543Z" fill="#FF6B83"/>
<path d="M15.0552 10.1604C15.026 10.1604 14.998 10.1721 14.9773 10.1927C14.9566 10.2134 14.945 10.2414 14.945 10.2706V14.1295C14.945 14.1903 14.9944 14.2398 15.0552 14.2398H16.7063C16.7355 14.2398 16.7635 14.2281 16.7842 14.2075C16.8049 14.1868 16.8165 14.1588 16.8165 14.1295V10.2706C16.8165 10.2414 16.8049 10.2134 16.7842 10.1927C16.7635 10.1721 16.7355 10.1604 16.7063 10.1604H15.0552ZM8 13.1643H14.6144V13.5237H8V13.1643ZM13.7287 10.1604H12.0775C12.0482 10.1604 12.0202 10.1721 11.9995 10.1927C11.9789 10.2134 11.9673 10.2414 11.9672 10.2706V11.9238C11.9672 11.9846 12.0167 12.0341 12.0775 12.0341H13.7285C13.7578 12.034 13.7858 12.0224 13.8065 12.0017C13.8271 11.9811 13.8387 11.9531 13.8388 11.9238V10.2706C13.8388 10.2562 13.836 10.2418 13.8305 10.2285C13.8249 10.2151 13.8168 10.2029 13.8066 10.1927C13.7964 10.1825 13.7842 10.1743 13.7709 10.1688C13.7575 10.1633 13.7432 10.1604 13.7287 10.1604ZM10.7537 10.1604H9.10245C9.07323 10.1604 9.04521 10.1721 9.02454 10.1927C9.00388 10.2134 8.99225 10.2414 8.99221 10.2706V11.9238C8.99221 11.9846 9.04167 12.0341 9.10245 12.0341H10.7535C10.7828 12.034 10.8108 12.0224 10.8314 12.0017C10.8521 11.9811 10.8637 11.9531 10.8638 11.9238V10.2706C10.8638 10.2414 10.8522 10.2134 10.8316 10.1927C10.8109 10.1721 10.7829 10.1604 10.7537 10.1604Z" fill="#FF6B83"/>
<path d="M22.2362 12.8337C22.1605 12.6723 22.075 12.5157 21.9803 12.3647H19.0806C18.8583 12.3647 18.5997 12.1805 18.4975 12.0083C18.1135 11.3617 17.9061 10.9862 17.6099 10.4004C17.5538 10.2896 17.5638 10.1527 17.6366 10.0341C17.714 9.90799 17.8448 9.82975 17.9777 9.82975H18.9521C17.8013 9.28903 16.5188 9 15.2172 9H8V12.8337H14.6144V10.2707C14.6145 10.1539 14.661 10.0418 14.7436 9.95916C14.8263 9.87652 14.9383 9.83004 15.0552 9.82991H16.7063C16.8232 9.83004 16.9352 9.87652 17.0179 9.95916C17.1005 10.0418 17.147 10.1539 17.1471 10.2707V12.8338L22.2362 12.8337ZM11.1945 11.9239C11.1944 12.0408 11.1479 12.1528 11.0653 12.2355C10.9826 12.3181 10.8706 12.3646 10.7537 12.3647H9.10245C8.98558 12.3646 8.87353 12.3181 8.79089 12.2355C8.70825 12.1528 8.66176 12.0408 8.66163 11.9239V10.2707C8.66176 10.1539 8.70825 10.0418 8.79089 9.95916C8.87353 9.87652 8.98558 9.83004 9.10245 9.82991H10.7535C10.8704 9.83004 10.9825 9.87652 11.0651 9.95916C11.1477 10.0418 11.1942 10.1539 11.1944 10.2707L11.1945 11.9239ZM14.1695 11.9239C14.1694 12.0408 14.1229 12.1528 14.0403 12.2355C13.9576 12.3181 13.8456 12.3646 13.7287 12.3647H12.0775C11.9606 12.3646 11.8485 12.3181 11.7659 12.2355C11.6832 12.1528 11.6368 12.0408 11.6366 11.9239V10.2707C11.6368 10.1539 11.6832 10.0418 11.7659 9.95916C11.8485 9.87652 11.9606 9.83004 12.0775 9.82991H13.7285C13.8454 9.83004 13.9575 9.87652 14.0401 9.95916C14.1227 10.0418 14.1692 10.1539 14.1694 10.2707L14.1695 11.9239ZM10.3158 18.5383H11.6384V20.412H10.3158V18.5383ZM18.9112 18.5383H20.2338V20.412H18.9112V18.5383ZM9.48863 17.4352H12.4644V18.2063H9.48863V17.4352ZM18.084 17.4352H21.0598V18.2063H18.084V17.4352ZM18.7916 16.1703L18.692 16.2608C18.4262 16.5023 18.1251 16.7762 17.5887 16.7762H8V17.1045H9.31955L9.32326 17.1041H12.6298L12.6335 17.1045H17.9149L17.9187 17.1041H21.2252L21.2289 17.1045H22.5485V16.1703H18.7916Z" fill="#FF6B83"/>
<path d="M8 15.698V16.4455H17.5887C17.9697 16.4455 18.1757 16.2833 18.4696 16.0161L18.8192 15.698H8Z" fill="#FF6B83"/>
<ellipse cx="14.3189" cy="42.4127" rx="9.24375" ry="1.8125" fill="url(#paint5_radial_163_183)" fill-opacity="0.6"/>
<defs>
<linearGradient id="paint0_linear_163_183" x1="-5.10031e-08" y1="7.98909" x2="22.0987" y2="32.6139" gradientUnits="userSpaceOnUse">
<stop stop-color="#FF6B83"/>
<stop offset="1" stop-color="#E05E73"/>
</linearGradient>
<linearGradient id="paint1_linear_163_183" x1="0.363281" y1="8.15605" x2="21.932" y2="32.081" gradientUnits="userSpaceOnUse">
<stop stop-color="#FF6B83"/>
<stop offset="1" stop-color="#E8667B"/>
</linearGradient>
<linearGradient id="paint2_linear_163_183" x1="26.5277" y1="19.562" x2="1.18487" y2="11.0499" gradientUnits="userSpaceOnUse">
<stop stop-color="#FF6B83"/>
<stop offset="1" stop-color="#EB6379"/>
</linearGradient>
<linearGradient id="paint3_linear_163_183" x1="25.7392" y1="19.2126" x2="1.99541" y2="11.2376" gradientUnits="userSpaceOnUse">
<stop stop-color="white"/>
<stop offset="1" stop-color="#999999"/>
</linearGradient>
<linearGradient id="paint4_linear_163_183" x1="4.89619" y1="10.332" x2="24.1087" y2="25.3757" gradientUnits="userSpaceOnUse">
<stop stop-color="white"/>
<stop offset="1" stop-color="#C7C7C7"/>
</linearGradient>
<radialGradient id="paint5_radial_163_183" cx="0" cy="0" r="1" gradientUnits="userSpaceOnUse" gradientTransform="translate(14.3189 42.4127) scale(9.24375 1.8125)">
<stop/>
<stop offset="1" stop-color="#666666" stop-opacity="0"/>
</radialGradient>
</defs>
</svg>
