<svg width="29" height="45" viewBox="0 0 29 45" fill="none" xmlns="http://www.w3.org/2000/svg">
<path d="M21.478 14.3683C21.478 18.3345 18.2321 21.5522 14.2281 21.5522C10.2236 21.5522 6.97825 18.3345 6.97825 14.3683C6.97825 10.4009 10.2241 7.18427 14.2281 7.18427C18.2329 7.18399 21.478 10.4006 21.478 14.3683ZM29 14.3683C29 6.43274 22.5085 0 14.5 0C6.49204 0 0 6.43274 0 14.3683C0 17.8573 1.25628 21.0563 3.34392 23.5447L14.5125 39.5125L25.8445 23.3118C26.2515 22.8071 26.6242 22.2751 26.9605 21.7159L27.0751 21.5531H27.0563C28.2903 19.4384 29 16.9866 29 14.3683Z" fill="#708090"/>
<path d="M21.2208 14.3792C21.2208 18.2485 18.0687 21.3876 14.1804 21.3876C10.2915 21.3876 7.13996 18.2485 7.13996 14.3792C7.13996 10.5089 10.2921 7.37091 14.1804 7.37091C18.0695 7.37064 21.2208 10.5086 21.2208 14.3792ZM28.5256 14.3792C28.5256 6.63775 22.2216 0.362305 14.4444 0.362305C6.66779 0.362305 0.363281 6.63775 0.363281 14.3792C0.363281 17.7829 1.58328 20.9038 3.61061 23.3313L14.4566 38.9087L25.4612 23.1041C25.8564 22.6117 26.2184 22.0928 26.545 21.5473L26.6563 21.3884H26.638C27.8364 19.3254 28.5256 16.9335 28.5256 14.3792Z" fill="#708090"/>
<circle cx="14.5016" cy="14.5001" r="11.9625" fill="#708090"/>
<circle cx="14.4714" cy="14.4699" r="11.2077" fill="url(#paint0_linear_1177_969)"/>
<circle cx="14.502" cy="14.5005" r="10.875" fill="url(#paint1_linear_1177_969)"/>
<path d="M17.1473 13.5238H22.4772C22.4491 13.4021 22.414 13.2821 22.3721 13.1644H17.1473V13.5238ZM17.9778 10.1606C17.9665 10.1606 17.9408 10.1742 17.9213 10.2032C17.9043 10.2284 17.9036 10.2481 17.9049 10.2513C18.2009 10.8365 18.3976 11.1928 18.7819 11.8397C18.8349 11.9288 18.9969 12.0343 19.0808 12.0343H21.7546C21.4032 11.5605 20.9441 11.1042 20.3947 10.6934C20.1356 10.5 19.8653 10.3221 19.5853 10.1606H17.9778ZM17.1473 13.8545V14.1298C17.1471 14.2467 17.1007 14.3587 17.018 14.4414C16.9354 14.524 16.8233 14.5705 16.7065 14.5706H15.0552C14.9383 14.5705 14.8263 14.524 14.7436 14.4414C14.661 14.3587 14.6145 14.2467 14.6144 14.1298V13.8545H8V15.3916C8 15.3916 12.3085 15.3939 16.2275 15.3939C18.1868 15.3939 20.0628 15.3934 21.2813 15.3918C22.3466 15.3903 22.5486 14.9456 22.5486 14.1258C22.5486 14.0362 22.5431 13.9457 22.5333 13.8547L17.1473 13.8545Z" fill="#708090"/>
<path d="M15.0552 10.1606C15.026 10.1607 14.998 10.1723 14.9773 10.193C14.9566 10.2136 14.945 10.2417 14.945 10.2709V14.1298C14.945 14.1906 14.9944 14.24 15.0552 14.24H16.7063C16.7355 14.24 16.7635 14.2284 16.7842 14.2077C16.8049 14.187 16.8165 14.159 16.8165 14.1298V10.2709C16.8165 10.2417 16.8049 10.2136 16.7842 10.193C16.7635 10.1723 16.7355 10.1607 16.7063 10.1606H15.0552ZM8 13.1646H14.6144V13.5239H8V13.1646ZM13.7287 10.1606H12.0775C12.0482 10.1607 12.0202 10.1723 11.9995 10.193C11.9789 10.2136 11.9673 10.2417 11.9672 10.2709V11.9241C11.9672 11.9849 12.0167 12.0343 12.0775 12.0343H13.7285C13.7578 12.0343 13.7858 12.0227 13.8065 12.002C13.8271 11.9813 13.8387 11.9533 13.8388 11.9241V10.2709C13.8388 10.2564 13.836 10.2421 13.8305 10.2287C13.8249 10.2153 13.8168 10.2032 13.8066 10.1929C13.7964 10.1827 13.7842 10.1746 13.7709 10.169C13.7575 10.1635 13.7432 10.1606 13.7287 10.1606ZM10.7537 10.1606H9.10245C9.07323 10.1607 9.04521 10.1723 9.02454 10.193C9.00388 10.2136 8.99225 10.2417 8.99221 10.2709V11.9241C8.99221 11.9849 9.04167 12.0343 9.10245 12.0343H10.7535C10.7828 12.0343 10.8108 12.0227 10.8314 12.002C10.8521 11.9813 10.8637 11.9533 10.8638 11.9241V10.2709C10.8638 10.2417 10.8522 10.2137 10.8316 10.193C10.8109 10.1723 10.7829 10.1607 10.7537 10.1606Z" fill="#708090"/>
<path d="M22.2362 12.8337C22.1605 12.6723 22.0751 12.5157 21.9803 12.3647H19.0806C18.8583 12.3647 18.5997 12.1805 18.4975 12.0083C18.1135 11.3617 17.9061 10.9862 17.6099 10.4004C17.5538 10.2896 17.5638 10.1527 17.6366 10.0341C17.714 9.90799 17.8448 9.82975 17.9777 9.82975H18.9521C17.8013 9.28903 16.5188 9 15.2172 9H8V12.8337H14.6144V10.2707C14.6145 10.1539 14.661 10.0418 14.7436 9.95916C14.8263 9.87652 14.9383 9.83004 15.0552 9.82991H16.7063C16.8232 9.83004 16.9352 9.87652 17.0179 9.95916C17.1005 10.0418 17.147 10.1539 17.1471 10.2707V12.8338L22.2362 12.8337ZM11.1945 11.9239C11.1944 12.0408 11.1479 12.1528 11.0653 12.2355C10.9826 12.3181 10.8706 12.3646 10.7537 12.3647H9.10245C8.98558 12.3646 8.87353 12.3181 8.79089 12.2355C8.70825 12.1528 8.66176 12.0408 8.66163 11.9239V10.2707C8.66176 10.1539 8.70825 10.0418 8.79089 9.95916C8.87353 9.87652 8.98558 9.83004 9.10245 9.82991H10.7535C10.8704 9.83004 10.9825 9.87652 11.0651 9.95916C11.1477 10.0418 11.1942 10.1539 11.1944 10.2707L11.1945 11.9239ZM14.1695 11.9239C14.1694 12.0408 14.1229 12.1528 14.0403 12.2355C13.9576 12.3181 13.8456 12.3646 13.7287 12.3647H12.0775C11.9606 12.3646 11.8485 12.3181 11.7659 12.2355C11.6832 12.1528 11.6368 12.0408 11.6366 11.9239V10.2707C11.6368 10.1539 11.6832 10.0418 11.7659 9.95916C11.8485 9.87652 11.9606 9.83004 12.0775 9.82991H13.7285C13.8454 9.83004 13.9575 9.87652 14.0401 9.95916C14.1227 10.0418 14.1692 10.1539 14.1694 10.2707L14.1695 11.9239ZM10.3158 18.5383H11.6384V20.412H10.3158V18.5383ZM18.9112 18.5383H20.2338V20.412H18.9112V18.5383ZM9.48863 17.4352H12.4644V18.2063H9.48863V17.4352ZM18.084 17.4352H21.0598V18.2063H18.084V17.4352ZM18.7916 16.1703L18.692 16.2608C18.4262 16.5023 18.1251 16.7762 17.5887 16.7762H8V17.1045H9.31955L9.32326 17.1041H12.6298L12.6335 17.1045H17.9149L17.9187 17.1041H21.2252L21.2289 17.1045H22.5485V16.1703H18.7916Z" fill="#708090"/>
<path d="M8 15.6978V16.4452H17.5887C17.9697 16.4452 18.1757 16.2831 18.4696 16.0159L18.8192 15.6978H8Z" fill="#708090"/>
<ellipse cx="14.3189" cy="42.4126" rx="9.24375" ry="1.8125" fill="url(#paint2_radial_1177_969)" fill-opacity="0.6"/>
<defs>
<linearGradient id="paint0_linear_1177_969" x1="25.7387" y1="19.2122" x2="1.99492" y2="11.2372" gradientUnits="userSpaceOnUse">
<stop stop-color="white"/>
<stop offset="1" stop-color="#999999"/>
</linearGradient>
<linearGradient id="paint1_linear_1177_969" x1="4.8957" y1="10.3317" x2="24.1082" y2="25.3755" gradientUnits="userSpaceOnUse">
<stop stop-color="white"/>
<stop offset="1" stop-color="#C7C7C7"/>
</linearGradient>
<radialGradient id="paint2_radial_1177_969" cx="0" cy="0" r="1" gradientUnits="userSpaceOnUse" gradientTransform="translate(14.3189 42.4126) scale(9.24375 1.8125)">
<stop/>
<stop offset="1" stop-color="#666666" stop-opacity="0"/>
</radialGradient>
</defs>
</svg>
