<svg width="70" height="70" viewBox="0 0 70 70" fill="none" xmlns="http://www.w3.org/2000/svg">
<rect width="70" height="70" rx="16" fill="#4FA34F"/>
<path fill-rule="evenodd" clip-rule="evenodd" d="M37.4273 35.863C37.4291 35.8579 37.4291 35.8527 37.4308 35.8476C38.4084 32.0811 40.1493 30.5751 41.9006 29.0625C42.7513 28.3284 43.6037 27.5909 44.367 26.5824C43.626 27.241 42.8439 27.7659 42.0618 28.2907C39.7224 29.8618 37.383 31.4328 36.208 36.6727C36.2029 36.6933 36.22 36.8134 36.2543 36.9917C36.3041 37.2507 36.3967 37.5938 36.5305 37.8853C36.6454 38.134 36.786 38.3381 36.9438 38.3879C37.0707 37.4463 37.2335 36.6108 37.4273 35.863ZM25.6135 27.9561C26.7729 30.052 28.1193 30.7844 29.4623 31.5133C31.4158 32.5733 33.3591 33.6298 34.7431 38.597C34.7962 38.5747 34.8426 38.5198 34.882 38.4444C34.9403 38.3363 34.9815 38.1922 35.0106 38.0396C35.0878 37.6228 35.0724 37.17 35.0552 37.1014C34.0793 33.3607 32.4842 32.5218 30.4159 31.4382C29.0129 30.7006 27.399 29.8534 25.615 27.9581L25.6135 27.9561ZM32.2445 47.7748H24.936C24.8451 47.7748 24.7628 47.8108 24.701 47.8674L24.6942 47.8743C24.6324 47.936 24.593 48.0218 24.593 48.1161V50.3904C24.593 50.4847 24.6324 50.5705 24.6942 50.634C24.7559 50.6957 24.8417 50.7352 24.9377 50.7352H32.2462C32.3405 50.7352 32.4263 50.6974 32.4897 50.634C32.5515 50.5722 32.5909 50.4865 32.5909 50.3904V48.1161C32.5909 48.0218 32.5515 47.936 32.4897 47.8743C32.428 47.8125 32.3422 47.7731 32.2462 47.7731L32.2445 47.7748ZM23.8607 40.0259L23.7989 39.9796C23.2021 39.5406 20.8866 37.8391 20.9055 34.5083C20.9209 34.4774 20.9295 34.4431 20.9261 34.4071C20.9209 34.3591 20.9175 34.3093 20.9124 34.2579C20.9158 34.1721 20.9209 34.0846 20.9278 33.9954C20.9484 33.7296 21.1233 33.4483 21.3772 33.2579C21.5229 33.1499 21.691 33.0727 21.8677 33.0504C22.0426 33.0281 22.2279 33.0555 22.4097 33.155C22.7441 33.3368 23.07 33.7519 23.317 34.5151C23.6189 35.4516 24.142 36.455 24.8383 37.2903C25.4455 38.0192 26.183 38.6229 27.0234 38.9505C29.0148 39.7309 30.013 40.832 30.5138 42.2539C31.006 43.6534 31.0249 45.3806 31.0249 47.4148H25.6102C25.5467 46.6824 25.2963 46.0684 24.9121 45.5196C24.5039 44.9381 23.9431 44.4338 23.2879 43.9399C21.5916 42.6586 20.6483 41.8011 20.0531 41.0807C19.4648 40.3689 19.2144 39.7875 18.9057 39.0603C17.856 36.5802 17.9075 33.6179 17.9606 30.5255C17.9726 29.8154 17.9847 29.1002 17.9847 28.4398C17.9847 27.5514 18.2625 26.8756 18.633 26.572C18.7702 26.4606 18.9177 26.404 19.0635 26.4142C19.2127 26.4245 19.3671 26.5017 19.518 26.6612C20 27.1672 20.3945 28.4004 20.3945 30.6507C20.3945 30.9817 20.4168 31.8392 20.4579 32.726C20.4837 33.268 20.5163 33.8203 20.554 34.2611C20.4133 37.9366 22.9466 39.7974 23.5881 40.2712L23.6481 40.3158C23.727 40.3741 23.8402 40.3586 23.8986 40.278C23.9569 40.1991 23.9414 40.0859 23.8608 40.0276L23.8607 40.0259ZM45.8282 47.7748H38.5198C38.4254 47.7748 38.3397 47.8125 38.2762 47.876C38.2145 47.9377 38.175 48.0235 38.175 48.1178V50.3921C38.175 50.4865 38.2128 50.5722 38.2762 50.6357C38.338 50.6974 38.4237 50.7369 38.5198 50.7369H45.8282C45.9226 50.7369 46.0083 50.6991 46.0718 50.6357C46.1335 50.5739 46.173 50.4882 46.173 50.3921V48.1178C46.173 48.0235 46.1335 47.9377 46.0718 47.876L46.0649 47.8674C46.0032 47.8091 45.9209 47.7748 45.8299 47.7748H45.8282ZM47.118 40.314L47.1781 40.2694C47.8212 39.7977 50.3528 37.9351 50.2122 34.2593C50.2516 33.8185 50.2825 33.2679 50.3082 32.7242C50.3494 31.8375 50.3717 30.9799 50.3717 30.6489C50.3717 28.3986 50.7662 27.1654 51.2481 26.6594C51.3991 26.5016 51.5534 26.4228 51.7027 26.4125C51.8485 26.4022 51.996 26.4588 52.1332 26.5703C52.5036 26.8738 52.7815 27.5496 52.7815 28.4381C52.7815 29.0967 52.7935 29.8136 52.8055 30.5237C52.8587 33.6161 52.9101 36.5781 51.8605 39.0585C51.5535 39.7857 51.3031 40.3672 50.7131 41.0789C50.1179 41.7993 49.1746 42.6569 47.4783 43.9381C46.8231 44.4321 46.264 44.9363 45.854 45.5178C45.4681 46.0666 45.2194 46.6806 45.156 47.413H39.7413C39.7413 45.3806 39.7601 43.6534 40.2524 42.2521C40.7515 40.8302 41.7515 39.7274 43.7427 38.9487C44.5832 38.6194 45.3224 38.0157 45.9278 37.2885C46.6242 36.4515 47.1473 35.4498 47.4492 34.5134C47.6944 33.7501 48.022 33.3333 48.3565 33.1532C48.5383 33.0538 48.7235 33.0263 48.8985 33.0486C49.0751 33.0726 49.2449 33.1481 49.389 33.2561C49.6429 33.4448 49.8178 33.7278 49.8384 33.9937C49.8452 34.0828 49.8504 34.1686 49.8538 34.2561C49.8487 34.3075 49.8452 34.3573 49.8401 34.4053C49.8366 34.4413 49.8435 34.4773 49.8607 34.5065C49.8795 37.839 47.5658 39.5405 46.9672 39.9778L46.9055 40.0242C46.8266 40.0825 46.8094 40.1957 46.8677 40.2746C46.9261 40.3535 47.0393 40.3706 47.1182 40.3123L47.118 40.314ZM30.7176 28.7214C30.7176 29.4281 30.9903 29.898 31.263 30.3697C31.5014 30.7796 31.7398 31.1912 31.7689 31.7658C31.3916 31.5429 30.9954 31.3353 30.5803 31.1175C29.9543 30.7882 29.2871 30.4383 28.5788 29.9786C28.6028 29.4246 28.5599 29.0284 28.445 28.6733C28.3215 28.2926 28.1157 27.9701 27.8189 27.5602C27.7726 27.4967 27.6834 27.4813 27.6183 27.5276C27.5548 27.5739 27.5394 27.6631 27.5857 27.7283C27.8653 28.1159 28.0591 28.4178 28.1705 28.7625C28.2632 29.0455 28.3043 29.3645 28.2957 29.7916C27.2752 29.0953 26.1775 28.1588 25.0146 26.7318C24.9529 26.6546 24.8397 26.6426 24.7625 26.7061C24.6973 26.7592 24.6785 26.8501 24.7145 26.9222C25.1896 28.049 25.7024 28.8843 26.241 29.5343C25.9443 29.4657 25.7024 29.4657 25.4692 29.4657C25.0747 29.4657 24.7076 29.4657 24.1125 29.0592C24.0473 29.0146 23.9581 29.0318 23.9136 29.097C23.869 29.1622 23.8861 29.2513 23.9513 29.2959C24.6202 29.7522 25.0284 29.7522 25.4709 29.7522C25.7933 29.7522 26.1347 29.7522 26.6303 29.9666C27.4828 30.8447 28.3849 31.3353 29.2871 31.8258C29.4243 31.8996 29.5615 31.975 29.6987 32.0505C29.1019 32.3386 28.0677 32.1894 27.433 32.0968C27.2135 32.0642 27.0385 32.0402 26.9322 32.0402C26.8533 32.0402 26.7881 32.1054 26.7881 32.1843C26.7881 32.2632 26.8533 32.3283 26.9322 32.3283C27.0214 32.3283 27.186 32.3524 27.3919 32.3815C28.1156 32.4861 29.3265 32.6611 29.9886 32.2134C31.1018 32.8549 32.1874 33.661 33.1394 35.4259C31.9988 34.8324 30.1962 34.462 28.8292 34.1824C28.1466 34.0418 27.5754 33.9252 27.265 33.8171C25.1588 33.0847 23.7438 31.7469 23.0251 29.9735C22.3134 28.2154 22.2825 26.0252 22.9411 23.5655C25.0919 25.6031 27.0163 26.0885 29.2836 26.6631C29.7089 26.7712 30.1463 26.8809 30.5614 26.9941C31.3812 27.2188 32.093 27.591 32.6968 28.0558C33.3485 28.5584 33.8751 29.1724 34.2713 29.8241C34.2147 30.09 34.1769 30.3558 34.1529 30.6217C34.074 31.529 34.1804 32.426 34.4428 33.2184C34.5645 33.5855 34.7189 33.9302 34.9042 34.2458C34.8476 34.3573 34.7807 34.4602 34.7069 34.5545C34.664 34.6077 34.6177 34.6591 34.5697 34.7054C33.8888 33.3316 33.0432 32.5632 32.057 31.9423C32.0724 31.198 31.7911 30.7108 31.5099 30.2254C31.256 29.7881 31.0039 29.3507 31.0039 28.7212C31.0039 28.6423 30.9387 28.5772 30.8598 28.5772C30.7809 28.5772 30.7158 28.6423 30.7158 28.7212L30.7176 28.7214ZM45.3222 25.0596C44.2794 26.3666 43.0702 27.1795 41.861 27.9908C41.4408 28.2738 41.0206 28.5551 40.6055 28.8587C40.5129 27.4008 41.1389 26.7165 41.6843 26.1196L41.789 26.0047C41.8421 25.9463 41.837 25.8554 41.7787 25.8023C41.7204 25.7491 41.6295 25.7542 41.5763 25.8126L41.4734 25.9258C40.8662 26.5895 40.163 27.3562 40.3345 29.061C39.3791 29.7882 38.4667 30.6493 37.676 31.8979C37.6674 31.3525 37.5525 30.8431 37.4427 30.3526C37.2215 29.3663 37.0208 28.4693 37.8355 27.5843C37.8887 27.526 37.8852 27.4351 37.8269 27.3819C37.7686 27.3287 37.6777 27.3322 37.6245 27.3905C36.7087 28.3853 36.9247 29.3526 37.1632 30.416C37.3055 31.0472 37.4547 31.7161 37.357 32.4347C36.9316 33.2014 36.5492 34.1019 36.225 35.1824C35.5749 34.7331 35.0793 33.9904 34.786 33.1054C34.539 32.3576 34.4378 31.5103 34.5133 30.6527C34.5888 29.7934 34.8392 28.9238 35.2937 28.1349C35.9626 26.9737 37.0774 25.9789 38.7291 25.4318C39.2848 25.2483 39.7994 25.0905 40.2985 24.9361C43.1027 24.0751 45.48 23.3445 47.7439 20.5625C47.864 20.8146 47.9755 21.0633 48.0766 21.3069C49.2172 24.0511 49.1967 26.3545 48.3596 28.236C47.5209 30.1192 45.8573 31.5891 43.7133 32.6575C43.3874 32.8204 43.0513 32.9731 42.7082 33.1155C42.4287 33.2321 42.0959 33.3504 41.7306 33.4791C40.5729 33.8907 39.1047 34.4121 37.9384 35.3537C38.3637 33.9387 38.9091 32.877 39.5232 32.0143C40.0961 31.805 40.6706 31.6781 41.2143 31.5563C42.1525 31.3488 42.9998 31.1601 43.6104 30.6182C43.6704 30.565 43.6756 30.4741 43.6224 30.4158C43.5692 30.3557 43.4783 30.3506 43.42 30.4038C42.8643 30.8977 42.053 31.0778 41.1526 31.2768C40.7255 31.3711 40.2778 31.4706 39.8268 31.6095C40.5437 30.7022 41.3378 30.0161 42.1336 29.3284C42.2434 29.234 42.3532 29.138 42.463 29.0419C42.8797 28.8979 43.276 28.7915 43.6498 28.6903C44.9053 28.3525 45.9224 28.0798 46.8023 26.6596C46.8434 26.5927 46.8229 26.5035 46.756 26.4624C46.6891 26.4212 46.5999 26.4418 46.5587 26.5087C45.7372 27.831 44.7698 28.0918 43.5761 28.4125C43.3874 28.4639 43.1919 28.5154 42.9912 28.5737C43.9414 27.7092 44.8573 26.7299 45.6188 25.2549C45.6617 25.1794 45.6446 25.0816 45.5742 25.025C45.4971 24.9633 45.3839 24.977 45.3221 25.0542L45.3222 25.0596Z" fill="white"/>
</svg>
