<?xml version="1.0" encoding="UTF-8"?>
<!DOCTYPE svg PUBLIC "-//W3C//DTD SVG 1.1//EN" "http://www.w3.org/Graphics/SVG/1.1/DTD/svg11.dtd">
<svg xmlns="http://www.w3.org/2000/svg" version="1.1" width="512px" height="512px" style="shape-rendering:geometricPrecision; text-rendering:geometricPrecision; image-rendering:optimizeQuality; fill-rule:evenodd; clip-rule:evenodd" xmlns:xlink="http://www.w3.org/1999/xlink">
<g><path style="opacity:0.968" fill="#020100" d="M 511.5,253.5 C 511.5,256.5 511.5,259.5 511.5,262.5C 489.383,312.077 467.217,361.743 445,411.5C 426.348,442.261 399.182,460.761 363.5,467C 339.945,476.61 316.279,485.944 292.5,495C 259.642,504.208 227.642,501.875 196.5,488C 164.732,473.782 132.732,460.116 100.5,447C 69.2447,437.124 37.2447,431.124 4.5,429C 2.31305,427.975 0.646381,426.475 -0.5,424.5C -0.5,394.833 -0.5,365.167 -0.5,335.5C 40.5074,285.538 91.3407,272.204 152,295.5C 176.963,304.732 200.797,316.232 223.5,330C 234.379,334.609 245.713,337.109 257.5,337.5C 261.31,298.457 260.81,259.457 256,220.5C 252.343,191.866 244.343,164.533 232,138.5C 231.221,137.272 230.221,136.272 229,135.5C 204.195,142.063 180.362,139.563 157.5,128C 138.022,114.146 126.189,95.3126 122,71.5C 118.526,52.8896 117.859,34.2229 120,15.5C 121.214,13.9512 122.714,12.7845 124.5,12C 156.298,9.47383 186.965,14.1405 216.5,26C 249.922,43.2269 261.422,70.0602 251,106.5C 248.833,112.333 246.667,118.167 244.5,124C 263.989,162.45 274.822,203.283 277,246.5C 278.781,242.605 280.281,238.605 281.5,234.5C 273.807,212.208 273.64,189.874 281,167.5C 292.273,144.914 310.44,131.414 335.5,127C 352.359,123.768 369.359,122.768 386.5,124C 389.196,124.69 391.363,126.19 393,128.5C 395.644,159.97 390.311,189.97 377,218.5C 361.417,244.258 338.917,253.425 309.5,246C 305.847,245.227 302.347,244.06 299,242.5C 284.503,272.804 276.67,304.804 275.5,338.5C 299.836,338.333 324.169,338.5 348.5,339C 358.827,341.333 366.994,346.833 373,355.5C 396.041,329.461 418.707,303.128 441,276.5C 458.353,256.713 480.187,247.88 506.5,250C 508.323,250.997 509.99,252.164 511.5,253.5 Z"/></g>
<g><path style="opacity:1" fill="#81d515" d="M 135.5,28.5 C 159.668,27.6022 183.002,31.4355 205.5,40C 235.703,53.6044 244.537,75.7711 232,106.5C 218.162,87.2587 200.162,73.5921 178,65.5C 170.306,67.0351 168.139,71.3684 171.5,78.5C 191.309,87.7456 207.643,101.246 220.5,119C 180.918,128.798 154.418,114.631 141,76.5C 137.039,60.7755 135.206,44.7755 135.5,28.5 Z"/></g>
<g><path style="opacity:1" fill="#81d415" d="M 354.5,140.5 C 361.833,140.5 369.167,140.5 376.5,140.5C 376.991,166.241 371.491,190.575 360,213.5C 348.85,228.664 334.016,234.164 315.5,230C 312.202,229.513 309.202,228.347 306.5,226.5C 316.967,208.861 330.467,193.861 347,181.5C 350.215,172.42 347.048,168.253 337.5,169C 319.575,180.925 305.075,196.091 294,214.5C 287.167,179.642 300.333,156.475 333.5,145C 340.542,143.055 347.542,141.555 354.5,140.5 Z"/></g>
<g><path style="opacity:1" fill="#e9c482" d="M 484.5,267.5 C 486.288,267.215 487.955,267.548 489.5,268.5C 469.608,313.951 449.441,359.285 429,404.5C 412.791,430.001 389.624,445.167 359.5,450C 334.07,460.588 308.403,470.588 282.5,480C 256.802,486.267 231.802,484.267 207.5,474C 174.161,458.887 140.494,444.554 106.5,431C 77.2959,421.099 47.2959,415.266 16.5,413.5C 16.3334,389.498 16.5,365.498 17,341.5C 52.4052,301.95 94.9052,291.784 144.5,311C 169.765,320.192 193.765,331.859 216.5,346C 225.197,349.676 234.197,352.343 243.5,354C 277.473,355.276 311.473,355.943 345.5,356C 359.194,361.02 364.027,370.52 360,384.5C 357.014,390.82 352.181,394.987 345.5,397C 302.5,397.333 259.5,397.667 216.5,398C 205.343,399.465 194.343,401.631 183.5,404.5C 184.251,409.995 185.584,415.328 187.5,420.5C 196.725,418.222 206.058,416.388 215.5,415C 258.833,414.667 302.167,414.333 345.5,414C 366.353,409.164 377.52,395.997 379,374.5C 404.903,345.02 430.57,315.353 456,285.5C 464.027,277.075 473.527,271.075 484.5,267.5 Z"/></g>
</svg>
