<svg width="140" height="140" viewBox="0 0 140 140" fill="none" xmlns="http://www.w3.org/2000/svg">
<rect width="140" height="140" rx="16" fill="#4FA34F"/>
<path fill-rule="evenodd" clip-rule="evenodd" d="M74.8547 71.7261C74.8581 71.7158 74.8581 71.7055 74.8615 71.6952C76.8168 64.1623 80.2986 61.1503 83.8012 58.125C85.5026 56.6568 87.2075 55.1818 88.734 53.1649C87.2521 54.4821 85.6878 55.5318 84.1236 56.5814C79.4447 59.7235 74.766 62.8657 72.416 73.3454C72.4058 73.3866 72.4401 73.6267 72.5087 73.9835C72.6081 74.5014 72.7934 75.1875 73.061 75.7707C73.2908 76.2681 73.5721 76.6763 73.8877 76.7757C74.1415 74.8925 74.467 73.2217 74.8547 71.7261ZM51.227 55.9122C53.5458 60.104 56.2386 61.5688 58.9246 63.0267C62.8317 65.1467 66.7182 67.2597 69.4862 77.194C69.5925 77.1494 69.6851 77.0396 69.764 76.8887C69.8806 76.6726 69.963 76.3845 70.0213 76.0792C70.1757 75.2456 70.1448 74.34 70.1105 74.2028C68.1586 66.7213 64.9684 65.0436 60.8319 62.8763C58.0259 61.4013 54.798 59.7067 51.2301 55.9162L51.227 55.9122ZM64.4889 95.5496H49.872C49.6902 95.5496 49.5255 95.6216 49.402 95.7348L49.3883 95.7486C49.2648 95.8721 49.1859 96.0436 49.1859 96.2322V100.781C49.1859 100.969 49.2648 101.141 49.3883 101.268C49.5118 101.391 49.6833 101.47 49.8754 101.47H64.4923C64.681 101.47 64.8525 101.395 64.9794 101.268C65.1029 101.144 65.1818 100.973 65.1818 100.781V96.2322C65.1818 96.0436 65.1029 95.8721 64.9794 95.7486C64.856 95.6251 64.6844 95.5462 64.4923 95.5462L64.4889 95.5496ZM47.7214 80.0519L47.5979 79.9593C46.4041 79.0811 41.7733 75.6782 41.811 69.0166C41.8419 68.9548 41.859 68.8862 41.8522 68.8142C41.8419 68.7181 41.835 68.6186 41.8247 68.5157C41.8316 68.3442 41.8419 68.1693 41.8556 67.9909C41.8968 67.4592 42.2467 66.8966 42.7543 66.5158C43.0459 66.2997 43.3821 66.1454 43.7354 66.1008C44.0853 66.0562 44.4558 66.1111 44.8194 66.31C45.4883 66.6736 46.14 67.5038 46.634 69.0303C47.2377 70.9032 48.284 72.91 49.6767 74.5805C50.891 76.0384 52.366 77.2459 54.0469 77.901C58.0295 79.4617 60.0259 81.6641 61.0275 84.5077C62.012 87.3069 62.0498 90.7612 62.0498 94.8296H51.2204C51.0934 93.3648 50.5926 92.1368 49.8243 91.0391C49.0079 89.8763 47.8862 88.8677 46.5758 87.8798C43.1832 85.3173 41.2966 83.6022 40.1062 82.1615C38.9297 80.7379 38.4288 79.575 37.8113 78.1205C35.712 73.1604 35.8149 67.2358 35.9213 61.0509C35.9453 59.6308 35.9693 58.2003 35.9693 56.8797C35.9693 55.1028 36.525 53.7512 37.266 53.1441C37.5404 52.9211 37.8354 52.8079 38.127 52.8285C38.4254 52.8491 38.7342 53.0034 39.0361 53.3225C40 54.3344 40.789 56.8007 40.789 61.3013C40.789 61.9634 40.8336 63.6785 40.9159 65.452C40.9673 66.536 41.0325 67.6405 41.108 68.5221C40.8267 75.8733 45.8932 79.5948 47.1762 80.5423L47.2963 80.6315C47.4541 80.7482 47.6805 80.7173 47.7971 80.5561C47.9137 80.3983 47.8829 80.1719 47.7216 80.0552L47.7214 80.0519ZM91.6565 95.5496H77.0395C76.8509 95.5496 76.6794 95.6251 76.5524 95.752C76.4289 95.8755 76.35 96.047 76.35 96.2357V100.784C76.35 100.973 76.4255 101.144 76.5524 101.271C76.6759 101.395 76.8474 101.474 77.0395 101.474H91.6565C91.8451 101.474 92.0167 101.398 92.1436 101.271C92.2671 101.148 92.346 100.976 92.346 100.784V96.2357C92.346 96.047 92.2671 95.8755 92.1436 95.752L92.1298 95.7348C92.0064 95.6182 91.8417 95.5496 91.6599 95.5496H91.6565ZM94.2361 80.628L94.3561 80.5388C95.6424 79.5955 100.706 75.8701 100.424 68.5186C100.503 67.637 100.565 66.5359 100.616 65.4484C100.699 63.675 100.743 61.9598 100.743 61.2977C100.743 56.7972 101.532 54.3308 102.496 53.3189C102.798 53.0033 103.107 52.8455 103.405 52.8249C103.697 52.8043 103.992 52.9175 104.266 53.1405C105.007 53.7477 105.563 55.0992 105.563 56.8761C105.563 58.1933 105.587 59.6272 105.611 61.0473C105.717 67.2322 105.82 73.1563 103.721 78.117C103.107 79.5714 102.606 80.7343 101.426 82.1579C100.236 83.5986 98.3491 85.3138 94.9565 87.8762C93.6462 88.8641 92.5279 89.8726 91.7081 91.0355C90.9362 92.1332 90.4389 93.3613 90.312 94.826H79.4825C79.4825 90.7611 79.5203 87.3068 80.5048 84.5042C81.503 81.6604 83.5029 79.4548 87.4854 77.8974C89.1663 77.2388 90.6448 76.0313 91.8557 74.5769C93.2484 72.903 94.2946 70.8997 94.8983 69.0267C95.3889 67.5002 96.0441 66.6667 96.7129 66.3065C97.0766 66.1075 97.447 66.0526 97.7969 66.0972C98.1503 66.1452 98.4899 66.2962 98.778 66.5123C99.2857 66.8896 99.6356 67.4556 99.6767 67.9873C99.6904 68.1657 99.7007 68.3372 99.7076 68.5122C99.6973 68.6151 99.6904 68.7146 99.6802 68.8106C99.6733 68.8826 99.687 68.9547 99.7213 69.013C99.7591 75.678 95.1315 79.0811 93.9344 79.9557L93.811 80.0483C93.6532 80.1649 93.6189 80.3913 93.7355 80.5491C93.8521 80.7069 94.0785 80.7412 94.2363 80.6246L94.2361 80.628ZM61.4351 57.4428C61.4351 58.8562 61.9805 59.796 62.526 60.7394C63.0028 61.5592 63.4796 62.3825 63.5379 63.5316C62.7832 63.0857 61.9908 62.6706 61.1607 62.235C59.9086 61.5763 58.5743 60.8765 57.1575 59.9572C57.2056 58.8492 57.1198 58.0568 56.89 57.3467C56.643 56.5852 56.2313 55.9402 55.6379 55.1204C55.5453 54.9935 55.3669 54.9626 55.2365 55.0552C55.1096 55.1478 55.0787 55.3262 55.1714 55.4566C55.7305 56.2318 56.1181 56.8355 56.3411 57.5251C56.5263 58.0911 56.6086 58.7291 56.5915 59.5833C54.5505 58.1906 52.3551 56.3176 50.0293 53.4636C49.9058 53.3092 49.6794 53.2852 49.525 53.4121C49.3947 53.5185 49.3569 53.7003 49.429 53.8443C50.3791 56.098 51.4048 57.7687 52.482 59.0687C51.8885 58.9315 51.4048 58.9315 50.9384 58.9315C50.1494 58.9315 49.4153 58.9315 48.225 58.1185C48.0947 58.0293 47.9163 58.0636 47.8271 58.194C47.7379 58.3243 47.7722 58.5027 47.9026 58.5919C49.2404 59.5044 50.0568 59.5044 50.9418 59.5044C51.5867 59.5044 52.2693 59.5044 53.2607 59.9331C54.9655 61.6895 56.7699 62.6705 58.5742 63.6516C58.8486 63.7991 59.1231 63.9501 59.3975 64.101C58.2037 64.6773 56.1353 64.3788 54.866 64.1936C54.4269 64.1284 54.077 64.0804 53.8644 64.0804C53.7066 64.0804 53.5762 64.2108 53.5762 64.3685C53.5762 64.5263 53.7066 64.6567 53.8644 64.6567C54.0428 64.6567 54.3721 64.7047 54.7837 64.763C56.2313 64.9723 58.6531 65.3222 59.9772 64.4269C62.2035 65.7098 64.3749 67.3221 66.2787 70.8518C63.9975 69.6649 60.3923 68.924 57.6584 68.3649C56.2931 68.0836 55.1508 67.8503 54.5299 67.6342C50.3175 66.1695 47.4876 63.4939 46.0503 59.9469C44.6267 56.4309 44.565 52.0504 45.8822 47.1311C50.1838 51.2063 54.0325 52.1771 58.5672 53.3262C59.4179 53.5423 60.2926 53.7619 61.1228 53.9883C62.7625 54.4376 64.1861 55.182 65.3935 56.1117C66.6971 57.1167 67.7502 58.3448 68.5425 59.6483C68.4293 60.18 68.3539 60.7116 68.3058 61.2434C68.148 63.058 68.3607 64.8521 68.8856 66.4369C69.1291 67.1709 69.4378 67.8604 69.8083 68.4916C69.6951 68.7145 69.5613 68.9204 69.4138 69.109C69.3281 69.2154 69.2355 69.3183 69.1394 69.4109C67.7776 66.6632 66.0864 65.1264 64.114 63.8846C64.1448 62.3959 63.5823 61.4217 63.0197 60.4509C62.512 59.5762 62.0078 58.7014 62.0078 57.4425C62.0078 57.2847 61.8775 57.1543 61.7197 57.1543C61.5619 57.1543 61.4315 57.2847 61.4315 57.4425L61.4351 57.4428ZM90.6444 50.1192C88.5588 52.7331 86.1404 54.359 83.7221 55.9816C82.8816 56.5476 82.0412 57.1102 81.211 57.7174C81.0258 54.8016 82.2778 53.4329 83.3687 52.2392L83.5779 52.0093C83.6843 51.8927 83.674 51.7109 83.5573 51.6045C83.4407 51.4982 83.2589 51.5085 83.1526 51.6251L82.9467 51.8515C81.7324 53.179 80.326 54.7124 80.669 58.1221C78.7583 59.5765 76.9334 61.2986 75.352 63.7958C75.3349 62.7049 75.105 61.6862 74.8855 60.7051C74.443 58.7327 74.0416 56.9386 75.671 55.1686C75.7774 55.052 75.7705 54.8702 75.6539 54.7638C75.5372 54.6575 75.3554 54.6643 75.2491 54.781C73.4173 56.7705 73.8495 58.7053 74.3263 60.832C74.611 62.0943 74.9095 63.4321 74.7139 64.8695C73.8632 66.4028 73.0983 68.2038 72.45 70.3648C71.1499 69.4661 70.1585 67.9808 69.572 66.2107C69.078 64.7151 68.8756 63.0205 69.0266 61.3054C69.1775 59.5869 69.6783 57.8477 70.5873 56.2697C71.9251 53.9474 74.1548 51.9578 77.4582 50.8636C78.5696 50.4965 79.5987 50.181 80.5969 49.8722C86.2054 48.1503 90.96 46.6889 95.4878 41.125C95.7279 41.6293 95.9509 42.1266 96.1533 42.6137C98.4345 48.1022 98.3933 52.709 96.7193 56.4719C95.0418 60.2384 91.7145 63.1782 87.4266 65.315C86.7749 65.6409 86.1026 65.9462 85.4164 66.2309C84.8573 66.4642 84.1919 66.7009 83.4611 66.9581C81.1457 67.7814 78.2093 68.8242 75.8768 70.7074C76.7275 67.8774 77.8183 65.7541 79.0464 64.0286C80.1921 63.6101 81.3413 63.3563 82.4287 63.1127C84.3051 62.6976 85.9996 62.3203 87.2208 61.2363C87.3409 61.13 87.3512 60.9482 87.2448 60.8315C87.1385 60.7115 86.9567 60.7012 86.84 60.8075C85.7286 61.7954 84.1061 62.1557 82.3051 62.5536C81.451 62.7422 80.5557 62.9412 79.6535 63.219C81.0874 61.4044 82.6756 60.0323 84.2673 58.6567C84.4868 58.4681 84.7064 58.276 84.9259 58.0839C85.7595 57.7957 86.5519 57.5831 87.2997 57.3807C89.8107 56.7049 91.8448 56.1595 93.6046 53.3192C93.6869 53.1854 93.6457 53.007 93.5119 52.9247C93.3782 52.8424 93.1998 52.8836 93.1175 53.0173C91.4743 55.6621 89.5397 56.1835 87.1521 56.8249C86.7748 56.9278 86.3838 57.0308 85.9824 57.1474C87.8829 55.4185 89.7146 53.4598 91.2377 50.5097C91.3234 50.3588 91.2891 50.1633 91.1485 50.0501C90.9941 49.9266 90.7677 49.954 90.6442 50.1084L90.6444 50.1192Z" fill="white"/>
</svg>
