<svg width="140" height="140" viewBox="0 0 140 140" fill="none" xmlns="http://www.w3.org/2000/svg">
<rect width="140" height="140" rx="16" fill="#87D5F1"/>
<path d="M52.675 66.85C60.5036 66.85 66.85 60.5036 66.85 52.675C66.85 44.8464 60.5036 38.5 52.675 38.5C44.8464 38.5 38.5 44.8464 38.5 52.675C38.5 60.5036 44.8464 66.85 52.675 66.85Z" fill="white"/>
<path d="M61.18 73.1499H44.17C41.02 73.1499 38.5 75.6699 38.5 78.8199V96.1449C38.5 99.2949 41.02 101.815 44.17 101.815H61.495C64.645 101.815 67.165 99.2949 67.165 96.1449V78.8199C66.85 75.6699 64.33 73.1499 61.18 73.1499Z" fill="white"/>
<path d="M95.8312 38.5H78.5062C75.3562 38.5 72.8362 41.02 72.8362 44.17V61.495C72.8362 64.645 75.3562 67.165 78.5062 67.165H95.8312C98.9812 67.165 101.501 64.645 101.501 61.495V44.17C101.501 41.02 98.9812 38.5 95.8312 38.5Z" fill="white"/>
<path d="M96.7749 82.5999H92.0499V77.8749C92.0499 75.3549 89.8449 73.1499 87.3249 73.1499C84.8049 73.1499 82.5999 75.3549 82.5999 77.8749V82.5999H77.8749C75.3549 82.5999 73.1499 84.8049 73.1499 87.3249C73.1499 89.8449 75.3549 92.0499 77.8749 92.0499H82.5999V96.7749C82.5999 99.2949 84.8049 101.5 87.3249 101.5C89.8449 101.5 92.0499 99.2949 92.0499 96.7749V92.0499H96.7749C99.2949 92.0499 101.5 89.8449 101.5 87.3249C101.5 84.8049 99.2949 82.5999 96.7749 82.5999Z" fill="white"/>
</svg>
