<svg width="70" height="70" viewBox="0 0 70 70" fill="none" xmlns="http://www.w3.org/2000/svg">
<rect width="70" height="70" rx="16" fill="#87D5F1"/>
<path d="M26.3375 33.425C30.2518 33.425 33.425 30.2518 33.425 26.3375C33.425 22.4232 30.2518 19.25 26.3375 19.25C22.4232 19.25 19.25 22.4232 19.25 26.3375C19.25 30.2518 22.4232 33.425 26.3375 33.425Z" fill="white"/>
<path d="M30.59 36.575H22.085C20.51 36.575 19.25 37.835 19.25 39.41V48.0725C19.25 49.6475 20.51 50.9075 22.085 50.9075H30.7475C32.3225 50.9075 33.5825 49.6475 33.5825 48.0725V39.41C33.425 37.835 32.165 36.575 30.59 36.575Z" fill="white"/>
<path d="M47.9155 19.25H39.253C37.678 19.25 36.418 20.51 36.418 22.085V30.7475C36.418 32.3225 37.678 33.5825 39.253 33.5825H47.9155C49.4905 33.5825 50.7505 32.3225 50.7505 30.7475V22.085C50.7505 20.51 49.4905 19.25 47.9155 19.25Z" fill="white"/>
<path d="M48.3877 41.3H46.0252V38.9375C46.0252 37.6775 44.9227 36.575 43.6627 36.575C42.4027 36.575 41.3002 37.6775 41.3002 38.9375V41.3H38.9377C37.6777 41.3 36.5752 42.4025 36.5752 43.6625C36.5752 44.9225 37.6777 46.025 38.9377 46.025H41.3002V48.3875C41.3002 49.6475 42.4027 50.75 43.6627 50.75C44.9227 50.75 46.0252 49.6475 46.0252 48.3875V46.025H48.3877C49.6477 46.025 50.7502 44.9225 50.7502 43.6625C50.7502 42.4025 49.6477 41.3 48.3877 41.3Z" fill="white"/>
</svg>
