<svg width="40" height="40" viewBox="0 0 40 40" fill="none" xmlns="http://www.w3.org/2000/svg">
<circle cx="20" cy="20" r="20" fill="#3C3C3C"/>
<path d="M13.4 18.8C16.3823 18.8 18.8 16.3823 18.8 13.4C18.8 10.4177 16.3823 8 13.4 8C10.4177 8 8 10.4177 8 13.4C8 16.3823 10.4177 18.8 13.4 18.8Z" fill="white"/>
<path d="M16.64 21.2002H10.16C8.96 21.2002 8 22.1602 8 23.3602V29.9602C8 31.1602 8.96 32.1202 10.16 32.1202H16.76C17.96 32.1202 18.92 31.1602 18.92 29.9602V23.3602C18.8 22.1602 17.84 21.2002 16.64 21.2002Z" fill="white"/>
<path d="M29.8401 8H23.2401C22.0401 8 21.0801 8.96 21.0801 10.16V16.76C21.0801 17.96 22.0401 18.92 23.2401 18.92H29.8401C31.0401 18.92 32.0001 17.96 32.0001 16.76V10.16C32.0001 8.96 31.0401 8 29.8401 8Z" fill="white"/>
<path d="M30.2002 24.8002H28.4002V23.0002C28.4002 22.0402 27.5602 21.2002 26.6002 21.2002C25.6402 21.2002 24.8002 22.0402 24.8002 23.0002V24.8002H23.0002C22.0402 24.8002 21.2002 25.6402 21.2002 26.6002C21.2002 27.5602 22.0402 28.4002 23.0002 28.4002H24.8002V30.2002C24.8002 31.1602 25.6402 32.0002 26.6002 32.0002C27.5602 32.0002 28.4002 31.1602 28.4002 30.2002V28.4002H30.2002C31.1602 28.4002 32.0002 27.5602 32.0002 26.6002C32.0002 25.6402 31.1602 24.8002 30.2002 24.8002Z" fill="white"/>
</svg>
