<svg width="70" height="70" viewBox="0 0 70 70" fill="none" xmlns="http://www.w3.org/2000/svg">
<rect width="70" height="70" rx="16" fill="#4682B4"/>
<path d="M27.3865 24.4072C27.5927 24.4072 27.7605 24.2394 27.7605 24.0332V22.5087C27.7605 22.3026 27.5927 22.1348 27.3865 22.1348C27.1804 22.1348 27.0078 22.3026 27.0078 22.5087V24.0332C27.0078 24.2394 27.1804 24.4072 27.3865 24.4072Z" fill="white"/>
<path d="M29.874 24.4407C30.0802 24.4407 30.248 24.2729 30.248 24.0668V22.5087C30.248 22.3026 30.0802 22.1348 29.874 22.1348C29.6679 22.1348 29.5001 22.3026 29.5001 22.5087V24.062C29.4953 24.2681 29.6679 24.4407 29.874 24.4407Z" fill="white"/>
<path d="M32.3604 24.4407C32.5665 24.4407 32.7343 24.2729 32.7343 24.0668V22.5087C32.7343 22.3026 32.5665 22.1348 32.3604 22.1348C32.1542 22.1348 31.9864 22.3026 31.9864 22.5087V24.062C31.9816 24.2681 32.1542 24.4407 32.3604 24.4407Z" fill="white"/>
<path d="M29.874 28.1036C30.0802 28.1036 30.248 27.9358 30.248 27.7296V26.1764C30.248 25.9702 30.0802 25.8024 29.874 25.8024C29.6679 25.8024 29.5001 25.9702 29.5001 26.1764V27.7296C29.4953 27.9358 29.6679 28.1036 29.874 28.1036Z" fill="white"/>
<path d="M32.3604 28.1036C32.5665 28.1036 32.7343 27.9358 32.7343 27.7296V26.1764C32.7343 25.9702 32.5665 25.8024 32.3604 25.8024C32.1542 25.8024 31.9864 25.9702 31.9864 26.1764V27.7296C31.9816 27.9358 32.1542 28.1036 32.3604 28.1036Z" fill="white"/>
<path d="M29.874 31.7662C30.0802 31.7662 30.248 31.5984 30.248 31.3922V29.839C30.248 29.6328 30.0802 29.465 29.874 29.465C29.6679 29.465 29.5001 29.6328 29.5001 29.839V31.3922C29.4953 31.5984 29.6679 31.7662 29.874 31.7662Z" fill="white"/>
<path d="M32.3604 31.7662C32.5665 31.7662 32.7343 31.5984 32.7343 31.3922V29.839C32.7343 29.6328 32.5665 29.465 32.3604 29.465C32.1542 29.465 31.9864 29.6328 31.9864 29.839V31.3922C31.9816 31.5984 32.1542 31.7662 32.3604 31.7662Z" fill="white"/>
<path d="M29.874 35.4287C30.0802 35.4287 30.248 35.2609 30.248 35.0548V33.5015C30.248 33.2954 30.0802 33.1276 29.874 33.1276C29.6679 33.1276 29.5001 33.2954 29.5001 33.5015V35.0548C29.4953 35.2609 29.6679 35.4287 29.874 35.4287Z" fill="white"/>
<path d="M32.3604 35.4287C32.5665 35.4287 32.7343 35.2609 32.7343 35.0548V33.5015C32.7343 33.2954 32.5665 33.1276 32.3604 33.1276C32.1542 33.1276 31.9864 33.2954 31.9864 33.5015V35.0548C31.9816 35.2609 32.1542 35.4287 32.3604 35.4287Z" fill="white"/>
<path d="M29.874 39.0961C30.0802 39.0961 30.248 38.9283 30.248 38.7174V37.1641C30.248 36.958 30.0802 36.7902 29.874 36.7902C29.6679 36.7902 29.5001 36.958 29.5001 37.1641V38.7174C29.4953 38.9235 29.6679 39.0961 29.874 39.0961Z" fill="white"/>
<path d="M32.3604 39.0961C32.5665 39.0961 32.7343 38.9283 32.7343 38.7174V37.1641C32.7343 36.958 32.5665 36.7902 32.3604 36.7902C32.1542 36.7902 31.9864 36.958 31.9864 37.1641V38.7174C31.9816 38.9235 32.1542 39.0961 32.3604 39.0961Z" fill="white"/>
<path d="M29.874 42.7585C30.0802 42.7585 30.248 42.5907 30.248 42.3845V40.8313C30.248 40.6251 30.0802 40.4573 29.874 40.4573C29.6679 40.4573 29.5001 40.6251 29.5001 40.8313V42.3845C29.4953 42.5907 29.6679 42.7585 29.874 42.7585Z" fill="white"/>
<path d="M32.3604 42.7585C32.5665 42.7585 32.7343 42.5907 32.7343 42.3845V40.8313C32.7343 40.6251 32.5665 40.4573 32.3604 40.4573C32.1542 40.4573 31.9864 40.6251 31.9864 40.8313V42.3845C31.9816 42.5907 32.1542 42.7585 32.3604 42.7585Z" fill="white"/>
<path d="M29.874 46.4216C30.0802 46.4216 30.248 46.2538 30.248 46.0476V44.4944C30.248 44.2882 30.0802 44.1204 29.874 44.1204C29.6679 44.1204 29.5001 44.2882 29.5001 44.4944V46.0476C29.4953 46.2538 29.6679 46.4216 29.874 46.4216Z" fill="white"/>
<path d="M32.3604 46.4216C32.5665 46.4216 32.7343 46.2538 32.7343 46.0476V44.4944C32.7343 44.2882 32.5665 44.1204 32.3604 44.1204C32.1542 44.1204 31.9864 44.2882 31.9864 44.4944V46.0476C31.9816 46.2538 32.1542 46.4216 32.3604 46.4216Z" fill="white"/>
<path d="M49.5578 30.0979H44.0301V27.0297C44.0301 26.8715 43.939 26.7421 43.7952 26.6798L34.7825 22.9691C34.7345 22.9499 34.6818 22.9499 34.6338 22.9403V20.9364C34.6338 20.7255 34.466 20.5625 34.2599 20.5625H25.4821C25.2712 20.5625 25.1034 20.7303 25.1034 20.9364V27.159H19.6239C19.4178 27.159 19.25 27.3316 19.25 27.5378V48.3296C19.25 48.5405 19.4178 48.7035 19.6239 48.7035H49.5531C49.764 48.7035 49.927 48.5357 49.927 48.3296V30.4765C49.9318 30.2703 49.7639 30.0979 49.5578 30.0979ZM28.0471 44.6429H20.0026V42.5719H28.0517V44.6429H28.0471ZM28.0471 38.9907H20.0026V36.9149H28.0517V38.9907H28.0471ZM28.0471 33.3385H20.0026V31.2627H28.0517V33.3385H28.0471ZM33.891 47.9556H28.8046V27.5378C28.8046 27.3269 28.632 27.1591 28.4307 27.1591H27.7643V26.1044C27.7643 25.8934 27.5917 25.7256 27.3903 25.7256C27.1794 25.7256 27.0116 25.8982 27.0116 26.1044V27.1591H25.861V21.3105H33.896V47.9558L33.891 47.9556ZM43.2778 47.9556H40.3151V26.0614L43.2778 27.2839V47.9556ZM49.1791 47.9556H44.0304V45.9901H47.3576C47.6308 45.9901 47.8561 45.7695 47.8561 45.4963V43.8711C47.8561 43.6026 47.6308 43.3773 47.3576 43.3773H44.0304V42.476H47.3576C47.6308 42.476 47.8561 42.2507 47.8561 41.9774V40.3523C47.8561 40.0838 47.6308 39.8585 47.3576 39.8585H44.0304V38.9572H47.3576C47.6308 38.9572 47.8561 38.7319 47.8561 38.4586V36.8334C47.8561 36.565 47.6308 36.3396 47.3576 36.3396H44.0304V35.4384H47.3576C47.6308 35.4384 47.8561 35.213 47.8561 34.9446V33.3194C47.8561 33.0461 47.6308 32.8208 47.3576 32.8208H44.0304V30.8601H49.1791V47.9556Z" fill="white"/>
<path d="M47.7739 22.0199C45.7369 22.0199 44.0825 23.6742 44.0825 25.7113C44.0825 27.7484 45.7368 29.4027 47.7739 29.4027C48.3071 29.4027 48.8266 29.2933 49.2915 29.0746C49.1958 28.9789 49.1138 28.8695 49.0591 28.7465C48.6489 28.9242 48.2251 29.0062 47.7739 29.0062C45.9556 29.0062 44.479 27.5297 44.479 25.7114C44.479 23.8931 45.9556 22.4165 47.7739 22.4165C49.5922 22.4165 51.0688 23.8931 51.0688 25.7114C51.0688 26.1078 51.0004 26.4907 50.8637 26.8598C50.9867 26.9145 51.0961 26.9965 51.2055 27.0785C51.3832 26.641 51.4652 26.1899 51.4652 25.7114C51.4652 23.6743 49.811 22.02 47.7738 22.02L47.7739 22.0199ZM47.7739 22.6898C46.106 22.6898 44.7525 24.0433 44.7525 25.7112C44.7525 27.3791 46.106 28.7327 47.7739 28.7327C48.1841 28.7327 48.5942 28.6506 48.9634 28.4866C48.9224 28.3635 48.9087 28.2405 48.9087 28.1174C48.9087 27.3518 49.5239 26.7366 50.2895 26.7366C50.3989 26.7366 50.4946 26.7503 50.604 26.7776C50.727 26.4358 50.7954 26.0804 50.7954 25.7112C50.7954 24.0433 49.4418 22.6898 47.7739 22.6898ZM48.936 24.8909H49.5239C49.5922 24.8909 49.6606 24.9593 49.6606 25.0276C49.6606 25.1097 49.5922 25.1644 49.5239 25.1644H48.936C48.8676 25.6565 48.4438 26.0393 47.938 26.0393H46.3521L48.1567 27.844C48.2114 27.8987 48.2114 27.9807 48.1567 28.0354C48.1294 28.0628 48.102 28.0764 48.061 28.0764C48.02 28.0764 47.9927 28.0628 47.9653 28.0354L45.9283 25.9984C45.8872 25.9573 45.8736 25.9026 45.9009 25.848C45.9283 25.7933 45.9693 25.7659 46.024 25.7659H47.938C48.2935 25.7659 48.5942 25.5062 48.6626 25.1644H46.024C45.9556 25.1644 45.8873 25.1097 45.8873 25.0277C45.8873 24.9593 45.9556 24.8909 46.024 24.8909H48.6626C48.5942 24.5492 48.2934 24.2894 47.938 24.2894H46.024C45.9556 24.2894 45.8872 24.221 45.8872 24.1527C45.8872 24.0706 45.9556 24.016 46.024 24.016H49.5239C49.5923 24.016 49.6606 24.0706 49.6606 24.1527C49.6606 24.221 49.5923 24.2894 49.5239 24.2894H48.6353C48.7993 24.4534 48.9086 24.6585 48.936 24.8909ZM50.2895 27.0101C49.6743 27.0101 49.1821 27.5022 49.1821 28.1174C49.1821 28.7327 49.6743 29.2248 50.2895 29.2248C50.9047 29.2248 51.3969 28.7327 51.3969 28.1174C51.3969 27.5022 50.9047 27.0101 50.2895 27.0101ZM51.0688 27.9123L50.2211 28.76C50.1938 28.7873 50.1528 28.801 50.1254 28.801C50.0981 28.801 50.0571 28.7873 50.0297 28.76L49.4829 28.2131C49.4282 28.1584 49.4282 28.0764 49.4829 28.0217C49.5376 27.967 49.6196 27.967 49.6743 28.0217L50.1254 28.4729L50.8774 27.7209C50.9321 27.6662 51.0141 27.6662 51.0688 27.7209C51.1235 27.7756 51.1235 27.8713 51.0688 27.9123Z" fill="white"/>
</svg>
