<svg width="40" height="40" viewBox="0 0 40 40" fill="none" xmlns="http://www.w3.org/2000/svg">
<circle cx="20" cy="20" r="20" fill="#729A95"/>
<path d="M14.1987 11.9291C14.3558 11.9291 14.4836 11.8013 14.4836 11.6442V10.4827C14.4836 10.3256 14.3558 10.1978 14.1987 10.1978C14.0416 10.1978 13.9102 10.3256 13.9102 10.4827V11.6442C13.9102 11.8013 14.0416 11.9291 14.1987 11.9291Z" fill="white"/>
<path d="M16.0946 11.9547C16.2516 11.9547 16.3795 11.8268 16.3795 11.6698V10.4827C16.3795 10.3256 16.2516 10.1978 16.0946 10.1978C15.9375 10.1978 15.8096 10.3256 15.8096 10.4827V11.6661C15.806 11.8232 15.9375 11.9547 16.0946 11.9547Z" fill="white"/>
<path d="M17.9891 11.9547C18.1462 11.9547 18.274 11.8268 18.274 11.6698V10.4827C18.274 10.3256 18.1462 10.1978 17.9891 10.1978C17.832 10.1978 17.7042 10.3256 17.7042 10.4827V11.6661C17.7005 11.8232 17.832 11.9547 17.9891 11.9547Z" fill="white"/>
<path d="M16.0946 14.7455C16.2516 14.7455 16.3795 14.6176 16.3795 14.4605V13.2771C16.3795 13.12 16.2516 12.9922 16.0946 12.9922C15.9375 12.9922 15.8096 13.12 15.8096 13.2771V14.4605C15.806 14.6176 15.9375 14.7455 16.0946 14.7455Z" fill="white"/>
<path d="M17.9891 14.7455C18.1462 14.7455 18.274 14.6176 18.274 14.4605V13.2771C18.274 13.12 18.1462 12.9922 17.9891 12.9922C17.832 12.9922 17.7042 13.12 17.7042 13.2771V14.4605C17.7005 14.6176 17.832 14.7455 17.9891 14.7455Z" fill="white"/>
<path d="M16.0946 17.536C16.2516 17.536 16.3795 17.4081 16.3795 17.2511V16.0676C16.3795 15.9106 16.2516 15.7827 16.0946 15.7827C15.9375 15.7827 15.8096 15.9106 15.8096 16.0676V17.2511C15.806 17.4081 15.9375 17.536 16.0946 17.536Z" fill="white"/>
<path d="M17.9891 17.536C18.1462 17.536 18.274 17.4081 18.274 17.2511V16.0676C18.274 15.9106 18.1462 15.7827 17.9891 15.7827C17.832 15.7827 17.7042 15.9106 17.7042 16.0676V17.2511C17.7005 17.4081 17.832 17.536 17.9891 17.536Z" fill="white"/>
<path d="M16.0946 20.3265C16.2516 20.3265 16.3795 20.1987 16.3795 20.0416V18.8582C16.3795 18.7011 16.2516 18.5732 16.0946 18.5732C15.9375 18.5732 15.8096 18.7011 15.8096 18.8582V20.0416C15.806 20.1987 15.9375 20.3265 16.0946 20.3265Z" fill="white"/>
<path d="M17.9891 20.3265C18.1462 20.3265 18.274 20.1987 18.274 20.0416V18.8582C18.274 18.7011 18.1462 18.5732 17.9891 18.5732C17.832 18.5732 17.7042 18.7011 17.7042 18.8582V20.0416C17.7005 20.1987 17.832 20.3265 17.9891 20.3265Z" fill="white"/>
<path d="M16.0946 23.1207C16.2516 23.1207 16.3795 22.9928 16.3795 22.8321V21.6487C16.3795 21.4916 16.2516 21.3638 16.0946 21.3638C15.9375 21.3638 15.8096 21.4916 15.8096 21.6487V22.8321C15.806 22.9892 15.9375 23.1207 16.0946 23.1207Z" fill="white"/>
<path d="M17.9891 23.1207C18.1462 23.1207 18.274 22.9928 18.274 22.8321V21.6487C18.274 21.4916 18.1462 21.3638 17.9891 21.3638C17.832 21.3638 17.7042 21.4916 17.7042 21.6487V22.8321C17.7005 22.9892 17.832 23.1207 17.9891 23.1207Z" fill="white"/>
<path d="M16.0946 25.9115C16.2516 25.9115 16.3795 25.7836 16.3795 25.6266V24.4431C16.3795 24.2861 16.2516 24.1582 16.0946 24.1582C15.9375 24.1582 15.8096 24.286 15.8096 24.4431V25.6266C15.806 25.7836 15.9375 25.9115 16.0946 25.9115Z" fill="white"/>
<path d="M17.9891 25.9115C18.1462 25.9115 18.274 25.7836 18.274 25.6266V24.4431C18.274 24.2861 18.1462 24.1582 17.9891 24.1582C17.832 24.1582 17.7042 24.286 17.7042 24.4431V25.6266C17.7005 25.7836 17.832 25.9115 17.9891 25.9115Z" fill="white"/>
<path d="M16.0946 28.702C16.2516 28.702 16.3795 28.5742 16.3795 28.4171V27.2336C16.3795 27.0766 16.2516 26.9487 16.0946 26.9487C15.9375 26.9487 15.8096 27.0766 15.8096 27.2336V28.4171C15.806 28.5741 15.9375 28.702 16.0946 28.702Z" fill="white"/>
<path d="M17.9891 28.702C18.1462 28.702 18.274 28.5742 18.274 28.4171V27.2336C18.274 27.0766 18.1462 26.9487 17.9891 26.9487C17.832 26.9487 17.7042 27.0766 17.7042 27.2336V28.4171C17.7005 28.5741 17.832 28.702 17.9891 28.702Z" fill="white"/>
<path d="M31.0916 16.2651H26.8801V13.9274C26.8801 13.8069 26.8107 13.7082 26.7011 13.6608L19.8343 10.8336C19.7977 10.819 19.7575 10.819 19.721 10.8117V9.28491C19.721 9.1242 19.5932 9 19.4361 9H12.7483C12.5876 9 12.4597 9.12784 12.4597 9.28491V14.0259H8.28491C8.12785 14.0259 8 14.1574 8 14.3145V30.1559C8 30.3166 8.12784 30.4408 8.28491 30.4408H31.0881C31.2488 30.4408 31.373 30.3129 31.373 30.1559V16.5535C31.3766 16.3964 31.2487 16.2651 31.0916 16.2651ZM14.7025 27.347H8.57343V25.769H14.706V27.347H14.7025ZM14.7025 23.0405H8.57343V21.459H14.706V23.0405H14.7025ZM14.7025 18.7341H8.57343V17.1525H14.706V18.7341H14.7025ZM19.1551 29.8709H15.2797V14.3145C15.2797 14.1538 15.1482 14.026 14.9948 14.026H14.4871V13.2224C14.4871 13.0617 14.3556 12.9338 14.2022 12.9338C14.0414 12.9338 13.9136 13.0653 13.9136 13.2224V14.026H13.037V9.56991H19.1588V29.8711L19.1551 29.8709ZM26.3069 29.8709H24.0496V13.1896L26.3069 14.1211V29.8709ZM30.8032 29.8709H26.8803V28.3734H29.4153C29.6235 28.3734 29.7952 28.2054 29.7952 27.9972V26.7589C29.7952 26.5544 29.6235 26.3827 29.4153 26.3827H26.8803V25.696H29.4153C29.6235 25.696 29.7952 25.5243 29.7952 25.3161V24.0779C29.7952 23.8734 29.6235 23.7017 29.4153 23.7017H26.8803V23.015H29.4153C29.6235 23.015 29.7952 22.8433 29.7952 22.6351V21.3969C29.7952 21.1924 29.6235 21.0207 29.4153 21.0207H26.8803V20.334H29.4153C29.6235 20.334 29.7952 20.1623 29.7952 19.9578V18.7195C29.7952 18.5113 29.6235 18.3397 29.4153 18.3397H26.8803V16.8458H30.8032V29.8709Z" fill="white"/>
<path d="M29.7324 10.1104C28.1804 10.1104 26.9199 11.3707 26.9199 12.9228C26.9199 14.475 28.1803 15.7353 29.7324 15.7353C30.1387 15.7353 30.5345 15.652 30.8887 15.4853C30.8157 15.4124 30.7533 15.3291 30.7116 15.2353C30.3991 15.3708 30.0762 15.4333 29.7324 15.4333C28.347 15.4333 27.222 14.3083 27.222 12.9229C27.222 11.5375 28.347 10.4125 29.7324 10.4125C31.1178 10.4125 32.2428 11.5375 32.2428 12.9229C32.2428 13.225 32.1907 13.5166 32.0865 13.7979C32.1803 13.8396 32.2636 13.9021 32.3469 13.9646C32.4823 13.6312 32.5448 13.2875 32.5448 12.9229C32.5448 11.3709 31.2845 10.1104 29.7324 10.1104L29.7324 10.1104ZM29.7324 10.6208C28.4616 10.6208 27.4304 11.652 27.4304 12.9228C27.4304 14.1936 28.4616 15.2248 29.7324 15.2248C30.0449 15.2248 30.3574 15.1623 30.6387 15.0373C30.6074 14.9436 30.597 14.8498 30.597 14.7561C30.597 14.1728 31.0657 13.704 31.6491 13.704C31.7324 13.704 31.8053 13.7144 31.8886 13.7353C31.9824 13.4749 32.0345 13.204 32.0345 12.9228C32.0345 11.652 31.0032 10.6208 29.7324 10.6208ZM30.6178 12.2978H31.0657C31.1178 12.2978 31.1699 12.3499 31.1699 12.402C31.1699 12.4645 31.1178 12.5061 31.0657 12.5061H30.6178C30.5657 12.8811 30.2428 13.1728 29.8574 13.1728H28.6491L30.0241 14.5478C30.0657 14.5894 30.0657 14.6519 30.0241 14.6936C30.0032 14.7144 29.9824 14.7249 29.9512 14.7249C29.9199 14.7249 29.8991 14.7144 29.8782 14.6936L28.3262 13.1416C28.2949 13.1103 28.2845 13.0686 28.3054 13.027C28.3262 12.9853 28.3574 12.9645 28.3991 12.9645H29.8574C30.1283 12.9645 30.3574 12.7666 30.4095 12.5061H28.3991C28.347 12.5061 28.295 12.4645 28.295 12.402C28.295 12.3499 28.347 12.2978 28.3991 12.2978H30.4095C30.3574 12.0374 30.1282 11.8395 29.8574 11.8395H28.3991C28.347 11.8395 28.2949 11.7874 28.2949 11.7353C28.2949 11.6728 28.347 11.6312 28.3991 11.6312H31.0657C31.1178 11.6312 31.1699 11.6728 31.1699 11.7353C31.1699 11.7874 31.1178 11.8395 31.0657 11.8395H30.3887C30.5137 11.9645 30.597 12.1207 30.6178 12.2978ZM31.6491 13.9124C31.1803 13.9124 30.8053 14.2874 30.8053 14.7561C30.8053 15.2248 31.1803 15.5998 31.6491 15.5998C32.1178 15.5998 32.4928 15.2248 32.4928 14.7561C32.4928 14.2874 32.1178 13.9124 31.6491 13.9124ZM32.2428 14.5998L31.597 15.2457C31.5761 15.2665 31.5449 15.2769 31.5241 15.2769C31.5032 15.2769 31.472 15.2665 31.4511 15.2457L31.0345 14.829C30.9928 14.7873 30.9928 14.7248 31.0345 14.6832C31.0761 14.6415 31.1386 14.6415 31.1803 14.6832L31.524 15.0269L32.097 14.454C32.1386 14.4123 32.2011 14.4123 32.2428 14.454C32.2845 14.4957 32.2845 14.5686 32.2428 14.5998Z" fill="white"/>
</svg>
