<svg width="140" height="140" viewBox="0 0 140 140" fill="none" xmlns="http://www.w3.org/2000/svg">
<rect width="140" height="140" rx="16" fill="#23E847"/>
<rect width="84" height="84" transform="translate(28 30)" fill="#23E847"/>
<path fill-rule="evenodd" clip-rule="evenodd" d="M43 95.7271H47.2334V90.5366C47.2334 88.9352 47.0309 89.2665 51.0619 89.2665C51.8902 89.2665 52.7184 89.2665 53.5467 89.2665C54.7983 89.2665 54.7983 89.3033 54.7983 90.5366C54.7983 92.2667 54.7983 93.9969 54.7983 95.7271H56.5469C56.5469 94.7516 56.7126 89.0272 56.3628 88.383C56.0499 87.8308 54.964 88.0333 53.5651 86.2111C53.3258 85.8982 53.2706 85.8246 53.0866 85.4933C52.8289 85.0331 52.7921 85.162 52.2399 85.0515C51.0435 84.8123 52.2031 84.757 50.0679 84.757C46.8469 84.757 47.2518 85.3092 47.2518 81.7936C47.2518 81.0022 47.1782 79.3272 47.3622 78.7198C47.8408 78.5358 48.0985 78.6094 48.6875 78.5726C49.074 78.094 49.2949 77.505 49.6814 77.0817C50.4545 76.235 50.9146 76.4927 51.0067 75.8117C46.7364 75.9037 47.2518 76.4007 47.2518 72.8483C47.2518 72.0384 47.1598 70.4002 47.3622 69.7744C48.0801 69.4984 49.4421 69.6456 50.344 69.6456C53.9885 69.6456 53.4547 69.0934 53.4363 72.6458C53.9332 72.609 55.2769 71.4126 57.7433 71.9096C58.1666 72.0016 58.7556 72.2593 59.0685 72.2593V48.0368L43.0552 48V95.7271H43Z" fill="white"/>
<path fill-rule="evenodd" clip-rule="evenodd" d="M79.0942 82.5313C78.6709 80.7827 76.1493 77.1567 77.5113 77.0831C78.0451 77.0647 78.1555 77.7457 78.3396 78.1875C78.542 78.666 78.7261 79.1078 78.947 79.6047C79.2783 80.3962 79.7569 81.6846 80.1802 82.384H80.6772C80.7876 80.8379 80.4747 76.5125 80.7876 75.4818C81.1373 75.3713 81.2478 75.3713 81.5975 75.4818C82.0024 76.8622 81.4686 80.6539 81.7263 82.3656L84.1375 82.5497C84.5056 81.8135 84.4504 81.0956 85.3891 81.3717C85.6652 81.9607 85.3891 82.1632 85.1867 82.7706C87.1929 83.2307 86.8616 83.7829 88.15 82.4577C88.9599 81.6294 89.5121 80.8011 89.825 79.6231C90.6717 76.5861 89.2912 74.1749 87.6347 72.7392C87.5058 72.6288 87.3954 72.5736 87.3218 72.5C86.7144 71.8926 88.3157 69.3893 85.8125 66.5548C85.1682 65.8185 84.432 65.1559 83.254 64.6958C79.7384 63.2785 75.7259 64.8614 74.3455 68.1929C74.143 68.6899 74.0694 69.5366 73.7196 69.7758C73.2227 70.1256 73.3883 69.8127 72.376 70.6409C71.695 71.2115 70.9587 72.2055 70.6826 73.4571C69.9096 76.8254 72.468 79.4575 75.2105 79.8992C77.3825 80.2489 75.5787 79.8072 77.5481 82.0711C78.2291 82.8626 77.861 82.5865 79.0942 82.4945" fill="white"/>
<path fill-rule="evenodd" clip-rule="evenodd" d="M55.5893 86.7083C55.1475 85.1254 53.3621 82.5301 54.1168 82.0699C55.0555 81.5178 55.6077 84.7572 56.4912 86.1561C56.6752 85.7512 56.4912 82.3276 56.528 81.4073C56.5648 80.7631 57.0986 80.5238 57.4115 80.9472C57.6876 81.3153 57.5035 86.5426 57.5403 87.4445L58.5343 87.555C58.6447 87.0764 58.976 86.3954 59.1601 85.9352C59.2705 85.6959 59.3625 85.3462 59.5466 85.2174C59.8963 84.9597 60.1356 85.1806 60.3013 85.4383C60.4117 85.9904 59.7859 86.7451 59.7123 87.3709C63.5407 86.2849 64.6083 81.9595 62.013 79.4011C60.6694 78.0758 61.5345 78.9593 61.3688 77.0083C60.9639 72.2227 53.8407 71.2103 52.0737 75.8303C51.3743 77.6525 52.1841 76.3088 50.6012 77.5788C48.7606 79.0513 48.5029 83.524 53.1045 84.1866C54.1168 84.3339 53.8223 85.8616 55.5893 86.7267" fill="white"/>
<path fill-rule="evenodd" clip-rule="evenodd" d="M47.2512 52.6753V57.1848C47.2512 58.2339 48.0795 57.9578 49.9753 57.9578C50.8036 57.9578 52.681 58.0683 53.3068 57.8474C53.5277 57.2952 53.4909 52.4176 53.3437 51.9022C52.6626 51.6813 49.4231 51.7918 48.2267 51.7918C47.3801 51.7918 47.2696 51.7918 47.2696 52.6937" fill="#99D3B8"/>
<path fill-rule="evenodd" clip-rule="evenodd" d="M47.2512 61.529V66.1306C47.2512 67.1797 48.1531 66.8852 50.2514 66.8852C50.8588 66.8852 51.4846 66.8852 52.092 66.8852C53.8038 66.8852 53.4357 67.2533 53.4357 62.1732C53.4357 61.6211 53.4725 61.2713 53.3437 60.848C52.7178 60.6271 49.3863 60.7376 48.2267 60.7376C47.4537 60.7376 47.2696 60.7008 47.2696 61.5474" fill="#99D3B8"/>
<path fill-rule="evenodd" clip-rule="evenodd" d="M48.2649 95.7274H48.3937H53.8051V90.2607H48.2649V95.7274Z" fill="white"/>
<path fill-rule="evenodd" clip-rule="evenodd" d="M94.813 73.42C94.3897 73.8433 94.5185 74.2851 94.5185 75.0581C94.5185 78.4264 94.3529 86.4147 94.537 88.6786H95.5493C95.6597 87.335 95.5677 77.5061 95.5677 75.1502C95.5677 74.3587 95.7149 73.8433 95.2732 73.42C97.8685 72.8862 97.3163 69.5363 95.0891 69.5179C92.77 69.4811 92.181 72.8862 94.813 73.42Z" fill="white"/>
<path fill-rule="evenodd" clip-rule="evenodd" d="M62.0874 92.4507H65.2164C65.2164 93.2422 65.2164 94.0153 65.2164 94.7699C65.2164 95.4141 64.9772 96.6842 65.7134 96.721C66.5233 96.7762 66.2656 95.4325 66.2656 94.8619C66.2656 94.0521 66.2656 93.2606 66.2656 92.4507H69.3946C69.3026 90.7206 67.6276 89.2665 65.8054 89.2297C63.9096 89.1929 62.2162 90.6838 62.0874 92.4323" fill="white"/>
<path fill-rule="evenodd" clip-rule="evenodd" d="M48.2649 65.8175C48.6882 65.9463 51.9093 65.9279 52.4247 65.8359V61.7313L48.2649 61.7129V65.8175Z" fill="white"/>
<path fill-rule="evenodd" clip-rule="evenodd" d="M48.2649 56.9464H52.4247V52.805L48.2833 52.7866L48.2649 56.9464Z" fill="white"/>
<path fill-rule="evenodd" clip-rule="evenodd" d="M48.2649 74.8174H51.4492C52.6087 73.1792 52.5903 73.6394 52.4247 70.676L48.3017 70.6392V74.7989L48.2649 74.8174Z" fill="white"/>
<path fill-rule="evenodd" clip-rule="evenodd" d="M80.7146 59.7997H89.3471C89.1446 56.7811 85.3529 56.1737 84.0645 58.5849C83.8436 59.0082 83.7516 59.7629 83.0338 59.3211C82.6472 59.0818 82.5736 58.6401 81.7085 58.8057C81.1748 58.9162 80.8619 59.3027 80.733 59.7997" fill="white"/>
<path fill-rule="evenodd" clip-rule="evenodd" d="M66.1912 52.8414H74.7868C74.842 50.0253 70.7743 49.1234 69.5043 51.6818C69.3202 52.05 69.1545 52.8046 68.5287 52.3629C68.1606 52.1052 67.9213 51.7002 67.1299 51.8659C66.6881 51.9579 66.2648 52.3629 66.1912 52.8414Z" fill="white"/>
<path fill-rule="evenodd" clip-rule="evenodd" d="M93.9297 95.7281H94.4451H95.6599H96.1752L95.8071 89.7093L94.2794 89.6909L93.9297 95.7281Z" fill="white"/>
<path fill-rule="evenodd" clip-rule="evenodd" d="M74.2905 94.3839H88.4264V93.6292L74.3089 93.6108L74.2905 94.3839Z" fill="white"/>
<path fill-rule="evenodd" clip-rule="evenodd" d="M74.3089 91.1435H88.408L88.4448 90.3889L74.2905 90.3521L74.3089 91.1435Z" fill="white"/>
<path fill-rule="evenodd" clip-rule="evenodd" d="M72.4858 95.7083H73.2037C73.3141 95.3586 73.3509 83.7811 73.2405 82.916H72.5042V95.7083H72.4858Z" fill="white"/>
<path fill-rule="evenodd" clip-rule="evenodd" d="M79.1689 83.5064V89.3412H80.8439V83.396L79.1689 83.5064Z" fill="white"/>
<path fill-rule="evenodd" clip-rule="evenodd" d="M81.856 89.3032L83.5493 89.34V83.5421L81.8928 83.3765L81.856 89.3032Z" fill="white"/>
<path fill-rule="evenodd" clip-rule="evenodd" d="M76.4981 84.0959L76.4797 89.3416H78.1547L78.1731 83.6909L76.4981 84.0959Z" fill="white"/>
<path fill-rule="evenodd" clip-rule="evenodd" d="M84.5613 89.34H86.2362V84.1311L84.5797 83.6709L84.5613 89.34Z" fill="white"/>
<path fill-rule="evenodd" clip-rule="evenodd" d="M57.5769 95.7272H58.9942L59.031 89.0273C58.5893 89.782 58.1659 90.9968 57.7978 91.8619C57.4665 92.6533 57.5401 92.7454 57.5401 93.6841C57.5401 94.2363 57.4849 95.2486 57.5769 95.7272Z" fill="white"/>
<path fill-rule="evenodd" clip-rule="evenodd" d="M87.2485 85.5675V89.3408H88.3529V85.1258C88.0032 84.9233 87.6903 84.7024 87.2485 84.5552V85.5859V85.5675Z" fill="white"/>
<path fill-rule="evenodd" clip-rule="evenodd" d="M74.3643 85.089V89.3408H74.7324H75.0085L75.4502 89.3224L75.4686 84.5552L74.3643 85.089Z" fill="white"/>
<path fill-rule="evenodd" clip-rule="evenodd" d="M89.2366 95.7083H89.9544C90.0648 95.3586 90.1017 83.7811 89.9912 82.916H89.255V95.7083H89.2366Z" fill="white"/>
</svg>
