<svg width="40" height="40" viewBox="0 0 40 40" fill="none" xmlns="http://www.w3.org/2000/svg">
<circle cx="20" cy="20" r="20" fill="#04B666"/>
<path d="M17.3106 9.6217C17.3106 8.10744 18.5382 6.87988 20.0524 6.87988C21.5667 6.87988 22.7942 8.10744 22.7942 9.6217C22.7942 11.136 21.5667 12.3635 20.0524 12.3635C18.5382 12.3635 17.3106 11.136 17.3106 9.6217ZM22.9989 13.2029C22.7477 12.9989 22.4318 12.8716 22.083 12.8716H18.0218C17.673 12.8716 17.3571 12.9989 17.106 13.2029L20.0523 13.8805L22.9989 13.2029ZM24.8251 22.9288C24.763 22.8888 24.6984 22.8515 24.6292 22.8208L24.0414 22.56L22.4385 22.9288L20.3512 23.409L20.0523 23.4777L19.7537 23.409L17.6663 22.9288L16.0634 22.56L15.4756 22.8208C15.4064 22.8515 15.3418 22.8888 15.2798 22.9288H12.3203V24.4494V24.755V32.7933H14.0639V24.755H14.7161L16.1425 31.7496C16.2816 32.4318 16.8817 32.9021 17.5519 32.9021C17.6473 32.9021 17.7441 32.8924 17.8413 32.8727C18.6205 32.714 19.1233 31.9533 18.9644 31.174L17.702 24.9837L18.2174 24.755H21.8874L22.4028 24.9837L21.1405 31.174C20.9816 31.9533 21.4844 32.714 22.2636 32.8727C22.3608 32.8924 22.4575 32.9021 22.553 32.9021C23.223 32.9021 23.8233 32.4318 23.9623 31.7496L25.3888 24.755H26.0409V32.7933H27.7846V24.755V23.6494V22.9288H24.8251ZM15.7364 18.1865C15.7489 18.1916 15.7599 18.1988 15.7722 18.2042C16.1663 18.3781 16.4516 18.7187 16.561 19.1244C16.5901 19.2325 16.6098 19.344 16.6123 19.4593C16.6152 19.5919 16.5935 19.7201 16.561 19.845C16.5012 20.0742 16.3898 20.2877 16.2216 20.4637C15.9613 20.7352 15.6108 20.8893 15.2348 20.8974L14.8242 20.9062V21.848L16.697 22.2789L16.893 22.324L19.2575 22.868L19.5218 22.9288L19.6308 22.9539L20.0523 23.0508L20.4741 22.9538L20.5829 22.9288L20.8472 22.868L23.2118 22.324L23.4078 22.2789L25.2806 21.848V20.9062L24.8698 20.8974C24.4939 20.8893 24.1436 20.7352 23.8834 20.4637C23.715 20.2877 23.6037 20.0742 23.5439 19.8449C23.5113 19.72 23.4896 19.5918 23.4925 19.4593C23.495 19.344 23.5147 19.2324 23.5439 19.1243C23.6532 18.7189 23.9386 18.3783 24.3327 18.2043C24.345 18.1989 24.3561 18.1916 24.3686 18.1865C24.5389 18.1168 24.7175 18.0815 24.8997 18.0815L25.2806 18.0896V15.3853V13.1049L23.3166 13.5566L20.0523 14.3074L16.7882 13.5566L14.8242 13.1049V15.3852V18.0895C14.9961 18.0857 15.1809 18.0818 15.1809 18.0818C15.385 18.0818 15.5616 18.1149 15.7364 18.1865ZM24.9242 18.3699C24.9161 18.3696 24.9078 18.3696 24.8997 18.3696C24.7504 18.3696 24.6079 18.3996 24.4773 18.4529C24.0768 18.6165 23.7904 19.0053 23.7805 19.4655C23.767 20.084 24.2577 20.5962 24.8761 20.6093L25.2806 20.618L25.4885 20.6225L25.6966 20.627L26.3125 20.6402C26.3206 20.6405 26.3289 20.6405 26.337 20.6405C26.9444 20.6405 27.4431 20.1549 27.4563 19.5446C27.4582 19.4546 27.4467 19.3681 27.4285 19.2838C27.4142 19.1258 27.3691 18.9683 27.2841 18.8221L25.6966 16.0947V18.3865L25.4885 18.3821L25.2806 18.3776L24.9242 18.3699ZM13.7678 20.6405C13.7759 20.6405 13.7842 20.6405 13.7923 20.6402L14.4083 20.627L14.6163 20.6225L14.8242 20.618L15.2288 20.6093C15.8472 20.5962 16.3378 20.084 16.3244 19.4655C16.3145 19.0053 16.0281 18.6165 15.6275 18.4529C15.497 18.3996 15.3545 18.3696 15.2052 18.3696C15.197 18.3696 15.1888 18.3696 15.1806 18.3699L14.8242 18.3776L14.6163 18.3821L14.4083 18.3865V16.0947L12.8208 18.8221C12.7357 18.9683 12.6907 19.1258 12.6764 19.2838C12.6582 19.3681 12.6466 19.4546 12.6486 19.5446C12.6617 20.1549 13.1605 20.6405 13.7678 20.6405Z" fill="white"/>
</svg>
