<svg width="70" height="70" viewBox="0 0 70 70" fill="none" xmlns="http://www.w3.org/2000/svg">
<rect width="70" height="70" rx="16" fill="#04B666"/>
<path d="M31.4697 21.3787C31.4697 19.3912 33.0809 17.78 35.0683 17.78C37.0558 17.78 38.6669 19.3912 38.6669 21.3787C38.6669 23.3662 37.0558 24.9773 35.0683 24.9773C33.0809 24.9773 31.4697 23.3662 31.4697 21.3787ZM38.9355 26.0789C38.6059 25.8112 38.1912 25.6442 37.7335 25.6442H32.4031C31.9454 25.6442 31.5308 25.8113 31.2011 26.079L35.0682 26.9684L38.9355 26.0789ZM41.3324 38.8442C41.251 38.7917 41.1662 38.7428 41.0754 38.7025L40.3039 38.3602L38.2001 38.8442L35.4604 39.4745L35.0682 39.5647L34.6762 39.4745L31.9365 38.8442L29.8327 38.3602L29.0613 38.7025C28.9704 38.7428 28.8857 38.7917 28.8042 38.8442H24.9199V40.84V41.2411V51.7914H27.2084V41.2411H28.0644L29.9365 50.4215C30.1191 51.3169 30.9068 51.9342 31.7863 51.9342C31.9117 51.9342 32.0386 51.9215 32.1662 51.8956C33.1889 51.6873 33.8488 50.6889 33.6403 49.666L31.9834 41.5412L32.6599 41.2411H37.4768L38.1532 41.5412L36.4964 49.666C36.2878 50.6889 36.9478 51.6873 37.9705 51.8956C38.098 51.9215 38.225 51.9342 38.3503 51.9342C39.2297 51.9342 40.0176 51.3169 40.2001 50.4215L42.0722 41.2411H42.9282V51.7914H45.2168V41.2411V39.79V38.8442H41.3324ZM29.4035 32.6199C29.42 32.6266 29.4344 32.6361 29.4506 32.6432C29.9677 32.8714 30.3423 33.3185 30.4858 33.851C30.524 33.9929 30.5499 34.1392 30.5532 34.2905C30.557 34.4645 30.5285 34.6328 30.4858 34.7967C30.4073 35.0976 30.2612 35.3777 30.0403 35.6087C29.6987 35.9652 29.2387 36.1674 28.7452 36.178L28.2063 36.1895V37.4257L30.6644 37.9912L30.9216 38.0504L34.025 38.7644L34.3719 38.8442L34.515 38.8771L35.0682 39.0044L35.6217 38.8771L35.7646 38.8442L36.1115 38.7644L39.215 38.0504L39.4723 37.9912L41.9303 37.4257V36.1895L41.3912 36.178C40.8978 36.1674 40.438 35.9652 40.0965 35.6087C39.8755 35.3777 39.7293 35.0976 39.6508 34.7966C39.6081 34.6327 39.5796 34.4645 39.5834 34.2905C39.5867 34.1392 39.6125 33.9928 39.6508 33.8508C39.7943 33.3187 40.1689 32.8718 40.6861 32.6433C40.7023 32.6362 40.7168 32.6266 40.7333 32.6199C40.9568 32.5285 41.1912 32.4821 41.4304 32.4821L41.9303 32.4928V28.9433V25.9504L39.3525 26.5432L35.0682 27.5286L30.7841 26.5433L28.2063 25.9504V28.9433V32.4927C28.4319 32.4877 28.6745 32.4825 28.6745 32.4825C28.9423 32.4825 29.1741 32.526 29.4035 32.6199ZM41.4625 32.8607C41.4519 32.8603 41.441 32.8603 41.4304 32.8603C41.2344 32.8603 41.0474 32.8996 40.876 32.9696C40.3503 33.1843 39.9744 33.6946 39.9614 34.2987C39.9437 35.1104 40.5877 35.7826 41.3994 35.7999L41.9303 35.8113L42.2032 35.8172L42.4763 35.8231L43.2847 35.8405C43.2953 35.8409 43.3062 35.8409 43.3169 35.8409C44.114 35.8409 44.7686 35.2035 44.7858 34.4025C44.7884 34.2844 44.7733 34.1708 44.7494 34.0602C44.7306 33.8528 44.6715 33.6461 44.5598 33.4542L42.4763 29.8745V32.8825L42.2032 32.8766L41.9303 32.8708L41.4625 32.8607ZM26.8198 35.8409C26.8304 35.8409 26.8413 35.8409 26.852 35.8405L27.6604 35.8231L27.9334 35.8172L28.2063 35.8113L28.7372 35.7999C29.5489 35.7826 30.1929 35.1104 30.1753 34.2987C30.1622 33.6946 29.7864 33.1843 29.2606 32.9696C29.0893 32.8996 28.9022 32.8603 28.7063 32.8603C28.6956 32.8603 28.6847 32.8603 28.6741 32.8607L28.2063 32.8708L27.9334 32.8766L27.6604 32.8825V29.8745L25.5768 33.4542C25.4651 33.6461 25.406 33.8528 25.3872 34.0602C25.3634 34.1708 25.3482 34.2844 25.3508 34.4025C25.368 35.2035 26.0226 35.8409 26.8198 35.8409Z" fill="white"/>
</svg>
