<svg width="140" height="140" viewBox="0 0 140 140" fill="none" xmlns="http://www.w3.org/2000/svg">
<rect width="140" height="140" rx="16" fill="#F47721"/>
<path fill-rule="evenodd" clip-rule="evenodd" d="M43.3926 56.8068L46.5337 62.2954L49.6359 56.8068H43.3926ZM42.2352 43.6669H35.8756L39.0554 49.2241L42.2323 43.6669H42.2352ZM57.0666 43.6669H50.7874L53.9255 49.2181L57.0636 43.6669H57.0666ZM49.639 42.9987L46.5337 37.513L43.3927 43.0017L49.639 42.9987ZM50.7904 56.1325H57.0695L53.9315 50.5812L50.7934 56.1325H50.7904ZM43.0135 56.1325L39.4429 49.9011L43.0105 43.6667H50.0116L53.5374 49.9011L50.0116 56.1355L43.0135 56.1325ZM94.8873 42.193C95.2095 42.5092 95.3915 42.9417 95.3915 43.3951C95.3915 43.8455 95.2095 44.278 94.8873 44.5942C94.2162 45.2535 93.1453 45.2594 92.4652 44.6151L92.4443 44.5972C92.1191 44.281 91.9372 43.8455 91.9372 43.3951C91.9372 42.9417 92.1191 42.5091 92.4443 42.193C93.1214 41.5278 94.2072 41.5278 94.8873 42.193ZM94.7143 43.3951C94.7143 43.1207 94.604 42.8552 94.4101 42.6643C93.9954 42.2616 93.3362 42.2616 92.9246 42.6643C92.7277 42.8552 92.6173 43.1207 92.6173 43.3951C92.6173 43.6695 92.7277 43.932 92.9246 44.1229L92.9395 44.1379V44.1408C93.3541 44.5286 94.0014 44.5227 94.4101 44.1229C94.604 43.932 94.7143 43.6695 94.7143 43.3951ZM91.1855 55.3362C91.5076 55.6524 91.6896 56.0849 91.6896 56.5353C91.6896 56.9887 91.5077 57.4213 91.1855 57.7374C90.5054 58.4026 89.4196 58.4026 88.7395 57.7374C88.4173 57.4212 88.2354 56.9887 88.2354 56.5353C88.2354 56.0849 88.4173 55.6524 88.7395 55.3362C89.4196 54.671 90.5054 54.671 91.1855 55.3362ZM91.0125 56.5353C91.0125 56.2609 90.9021 55.9984 90.7082 55.8075C90.2936 55.4048 89.6374 55.4048 89.2227 55.8075C89.0258 55.9984 88.9155 56.2609 88.9155 56.5353C88.9155 56.8127 89.0258 57.0752 89.2227 57.2661C89.6373 57.6688 90.2936 57.6688 90.7082 57.2661C90.9021 57.0752 91.0125 56.8097 91.0125 56.5353ZM91.5136 37.1641C89.9207 37.2685 88.4232 37.9695 87.3225 39.1239C85.0376 41.5102 85.0376 45.2747 87.3225 47.6613C88.4292 48.8246 89.9356 49.5227 91.5345 49.6211C95.1886 49.8478 98.0373 52.8755 98.0373 56.5356C98.0373 58.2746 97.3572 59.9421 96.1401 61.18C95.7732 61.5529 95.3675 61.884 94.9291 62.1674C97.0559 61.5798 98.9978 60.4582 100.573 58.9101C102.998 56.5416 104.364 53.2931 104.364 49.9014C104.364 46.5128 102.998 43.2644 100.573 40.8928C98.1536 38.5184 94.902 37.179 91.5136 37.1641ZM91.4152 62.6443V62.6413C93.0171 62.5459 94.5264 61.8598 95.651 60.7174C96.7487 59.6018 97.3602 58.1013 97.3573 56.5352C97.3662 53.2271 94.7949 50.4887 91.4928 50.2859C89.7209 50.1756 88.0534 49.403 86.8274 48.1174C84.2979 45.4775 84.2979 41.3102 86.8274 38.6704C87.2331 38.2468 87.6865 37.8739 88.1846 37.5637C85.9474 38.1275 83.904 39.276 82.2605 40.8927C79.8353 43.2642 78.4692 46.5126 78.4692 49.9014C78.4692 53.293 79.8354 56.5414 82.2605 58.91C84.7005 61.3112 87.9907 62.6506 91.4119 62.6416L91.4152 62.6443ZM49.8986 102.466V89.9229C49.8986 89.8334 49.9343 89.7469 50 89.6843C50.0626 89.6217 50.1491 89.5888 50.2356 89.5888H56.637V82.1911H50.2356C50.1491 82.1911 50.0626 82.1553 50 82.0927C49.9343 82.033 49.8986 81.9465 49.8986 81.857V76.8576H42.2469V81.857C42.2469 81.9465 42.2111 82.033 42.1455 82.0927C42.0829 82.1553 41.9964 82.1911 41.9069 82.1911H35.6367V89.5918H41.9069C41.9964 89.5918 42.0829 89.6276 42.1455 89.6903C42.2111 89.7529 42.2469 89.8364 42.2469 89.9259V102.466L49.8986 102.466ZM98.7537 79.2259C99.8634 81.6004 100.171 84.2731 99.6307 86.8385C99.0043 89.8304 97.2801 92.4792 94.7953 94.2631C92.2777 96.0856 89.1904 96.9477 86.0914 96.6882C83.5112 96.4794 81.0652 95.4443 79.1173 93.7381C79.9137 96.0886 81.3813 98.1558 83.3351 99.6861C85.8348 101.64 88.961 102.621 92.1292 102.448C95.297 102.272 98.2949 100.954 100.565 98.7345C102.587 96.7598 103.888 94.1616 104.252 91.3577C104.619 88.5537 104.031 85.7109 102.582 83.283C101.615 81.6662 100.306 80.2821 98.7455 79.2261L98.7537 79.2259ZM92.8534 85.5378C92.7311 85.6154 92.6744 85.7675 92.7132 85.9077L93.4798 88.5804C93.5246 88.8519 93.4918 89.1323 93.3814 89.3859C93.268 89.6484 93.0831 89.8691 92.8444 90.0272C92.5998 90.1883 92.3165 90.2807 92.0212 90.2897C91.7438 90.3016 91.4663 90.233 91.2217 90.0958L89.1128 88.5059C88.9905 88.4164 88.8264 88.4164 88.7041 88.5059L86.5653 90.0779C86.0731 90.3643 85.4616 90.3494 84.9844 90.0391L84.9695 90.0272C84.4892 89.708 84.2416 89.1353 84.3371 88.5655L85.0679 85.9316V85.9286C85.1156 85.7914 85.0679 85.6393 84.9516 85.5528L82.6965 83.8734C82.4936 83.6854 82.3475 83.4468 82.2729 83.1813C82.1237 82.6235 82.3117 82.0299 82.7621 81.666C82.9799 81.487 83.2453 81.3736 83.5257 81.3408L86.3058 81.302L86.3028 81.2991C86.452 81.305 86.5862 81.2126 86.6339 81.0694L87.5378 78.4295C87.6601 78.1819 87.854 77.9701 88.0896 77.8239C88.3372 77.6688 88.6236 77.5883 88.9159 77.5853C89.2023 77.5853 89.4827 77.6629 89.7243 77.815C89.957 77.9641 90.1449 78.173 90.2642 78.4205L91.1412 81.0634H91.1441C91.1889 81.2006 91.3171 81.2931 91.4603 81.2931L94.2852 81.3319V81.3349C94.5656 81.3677 94.831 81.481 95.0488 81.66C95.2695 81.839 95.4306 82.0776 95.5171 82.3461C95.6901 82.8949 95.5291 83.4915 95.0995 83.8733L92.8534 85.5378ZM74.2787 59.9499C74.2787 58.8343 73.8283 57.7693 73.0318 56.9908C71.3584 55.3562 68.6857 55.3562 67.0152 56.9908L66.9973 57.0057C66.2068 57.7872 65.7654 58.8522 65.7683 59.9618C65.7713 61.0715 66.2188 62.1335 67.0152 62.912C68.6857 64.5466 71.3584 64.5466 73.0318 62.912C73.8283 62.1305 74.2787 61.0655 74.2787 59.9499ZM64.9601 71.9443L63.409 76.4874V76.4903C63.221 76.8781 62.9019 77.1824 62.5051 77.3494C62.1024 77.5224 61.652 77.5433 61.2344 77.4061C60.8108 77.2749 60.4499 77.0034 60.2082 76.6335C59.9934 76.2935 59.9158 75.8818 59.9934 75.4881L62.4275 68.675H62.4305C62.7228 67.7801 63.2925 67.0016 64.0532 66.4497C64.8139 65.9008 65.7266 65.6114 66.6633 65.6144H73.4495C74.3892 65.6174 75.3049 65.9187 76.0596 66.4795C76.8352 67.0492 77.4168 67.8457 77.7241 68.7585L80.0061 75.4015C80.0866 75.8191 80.0121 76.2516 79.7943 76.6186C79.5736 76.9914 79.2216 77.2718 78.8069 77.406C78.3923 77.5403 77.9419 77.5224 77.5362 77.3494C77.1424 77.1823 76.8203 76.8751 76.6353 76.4903L75.0842 71.9472L75.0812 71.9443C75.0395 71.7802 74.8814 71.6758 74.7113 71.6937C74.5443 71.7146 74.416 71.8548 74.413 72.0248V78.4351C74.413 78.9661 74.2013 79.4762 73.8284 79.8521L73.8105 79.867C73.4227 80.2488 72.8977 80.4636 72.3518 80.4606H67.6894C67.1465 80.4666 66.6186 80.2637 66.2218 79.8909C65.84 79.5299 65.6282 79.0258 65.6311 78.5008V72.0278C65.6252 71.8607 65.4999 71.7175 65.3299 71.6996C65.1628 71.6788 65.0047 71.7861 64.963 71.9502L64.9601 71.9443ZM35.8762 56.1378H42.2358L39.056 50.5806L35.8762 56.1378Z" fill="white"/>
</svg>
