<svg width="40" height="40" viewBox="0 0 40 40" fill="none" xmlns="http://www.w3.org/2000/svg">
<circle cx="20" cy="20" r="20" fill="#D52AAC"/>
<path fill-rule="evenodd" clip-rule="evenodd" d="M9.8638 14.9737L11.0604 17.0646L12.2422 14.9737H9.8638ZM9.42289 9.96799H7.00017L8.21155 12.085L9.42179 9.96799H9.42289ZM15.0729 9.96799H12.6809L13.8763 12.0828L15.0718 9.96799H15.0729ZM12.2434 9.71344L11.0604 7.62367L9.86382 9.71458L12.2434 9.71344ZM12.682 14.7168H15.0741L13.8786 12.602L12.6831 14.7168H12.682ZM9.71939 14.7168L8.35916 12.3429L9.71825 9.9679H12.3853L13.7285 12.3429L12.3853 14.7179L9.71939 14.7168ZM29.4808 9.40651C29.6036 9.52696 29.6729 9.69173 29.6729 9.86446C29.6729 10.036 29.6036 10.2008 29.4808 10.3213C29.2252 10.5724 28.8172 10.5747 28.5581 10.3292L28.5502 10.3224C28.4263 10.202 28.357 10.036 28.357 9.86446C28.357 9.69173 28.4263 9.52694 28.5502 9.40651C28.8081 9.1531 29.2218 9.1531 29.4808 9.40651ZM29.4149 9.86446C29.4149 9.75991 29.3729 9.65877 29.299 9.58605C29.1411 9.43264 28.8899 9.43264 28.7331 9.58605C28.6581 9.65877 28.6161 9.75991 28.6161 9.86446C28.6161 9.969 28.6581 10.069 28.7331 10.1417L28.7388 10.1474V10.1485C28.8968 10.2963 29.1433 10.294 29.299 10.1417C29.3729 10.069 29.4149 9.969 29.4149 9.86446ZM28.0706 14.4134C28.1933 14.5339 28.2627 14.6987 28.2627 14.8702C28.2627 15.043 28.1933 15.2078 28.0706 15.3282C27.8115 15.5816 27.3979 15.5816 27.1388 15.3282C27.0161 15.2077 26.9468 15.043 26.9468 14.8702C26.9468 14.6987 27.0161 14.5339 27.1388 14.4134C27.3979 14.16 27.8115 14.16 28.0706 14.4134ZM28.0047 14.8702C28.0047 14.7657 27.9627 14.6657 27.8888 14.593C27.7308 14.4396 27.4809 14.4396 27.3229 14.593C27.2479 14.6657 27.2058 14.7657 27.2058 14.8702C27.2058 14.9759 27.2479 15.0759 27.3229 15.1486C27.4808 15.3021 27.7308 15.3021 27.8888 15.1486C27.9627 15.0759 28.0047 14.9748 28.0047 14.8702ZM28.1956 7.49072C27.5888 7.5305 27.0183 7.79754 26.599 8.23731C25.7286 9.1464 25.7286 10.5805 26.599 11.4897C27.0206 11.9328 27.5945 12.1988 28.2036 12.2363C29.5956 12.3226 30.6808 13.476 30.6808 14.8704C30.6808 15.5328 30.4217 16.1681 29.9581 16.6397C29.8183 16.7817 29.6638 16.9079 29.4967 17.0158C30.307 16.792 31.0467 16.3647 31.6467 15.7749C32.5706 14.8726 33.091 13.6351 33.091 12.3431C33.091 11.0521 32.5706 9.81465 31.6467 8.9112C30.7251 8.00665 29.4864 7.4964 28.1956 7.49072ZM28.1581 17.1975V17.1963C28.7684 17.16 29.3433 16.8986 29.7718 16.4634C30.1899 16.0384 30.4229 15.4668 30.4218 14.8702C30.4252 13.61 29.4456 12.5668 28.1877 12.4895C27.5127 12.4475 26.8774 12.1532 26.4104 11.6634C25.4468 10.6577 25.4468 9.07021 26.4104 8.06457C26.5649 7.9032 26.7377 7.76115 26.9274 7.64298C26.0751 7.85775 25.2967 8.29526 24.6706 8.91117C23.7467 9.81459 23.2263 11.0521 23.2263 12.343C23.2263 13.6351 23.7468 14.8726 24.6706 15.7749C25.6002 16.6896 26.8536 17.1999 28.1569 17.1965L28.1581 17.1975ZM12.3423 32.3678V27.5893C12.3423 27.5552 12.3559 27.5223 12.3809 27.4984C12.4048 27.4746 12.4377 27.4621 12.4707 27.4621H14.9093V24.6439H12.4707C12.4377 24.6439 12.4048 24.6302 12.3809 24.6064C12.3559 24.5837 12.3423 24.5507 12.3423 24.5166V22.6121H9.42735V24.5166C9.42735 24.5507 9.41371 24.5837 9.38871 24.6064C9.36485 24.6302 9.3319 24.6439 9.29781 24.6439H6.90918V27.4632H9.29781C9.3319 27.4632 9.36485 27.4768 9.38871 27.5007C9.41371 27.5246 9.42735 27.5564 9.42735 27.5905V32.3678L12.3423 32.3678ZM30.9538 23.5143C31.3765 24.4188 31.4935 25.437 31.2878 26.4143C31.0492 27.5541 30.3924 28.5632 29.4458 29.2427C28.4867 29.937 27.3106 30.2654 26.13 30.1666C25.1471 30.087 24.2152 29.6927 23.4732 29.0427C23.7766 29.9382 24.3357 30.7257 25.08 31.3086C26.0323 32.053 27.2232 32.4268 28.4301 32.3609C29.6369 32.2939 30.779 31.7916 31.6438 30.9461C32.4142 30.1939 32.9097 29.2041 33.0483 28.1359C33.1881 27.0677 32.9642 25.9848 32.412 25.0598C32.0438 24.4439 31.5449 23.9166 30.9506 23.5144L30.9538 23.5143ZM28.706 25.9188C28.6594 25.9484 28.6378 26.0063 28.6526 26.0597L28.9446 27.0779C28.9617 27.1813 28.9492 27.2881 28.9071 27.3847C28.864 27.4847 28.7935 27.5688 28.7026 27.6291C28.6094 27.6904 28.5015 27.7256 28.389 27.7291C28.2833 27.7336 28.1776 27.7075 28.0844 27.6552L27.281 27.0495C27.2344 27.0154 27.1719 27.0154 27.1253 27.0495L26.3106 27.6484C26.1231 27.7575 25.8901 27.7518 25.7083 27.6336L25.7026 27.6291C25.5196 27.5075 25.4253 27.2893 25.4617 27.0722L25.7401 26.0688V26.0677C25.7583 26.0154 25.7401 25.9575 25.6958 25.9245L24.8367 25.2847C24.7594 25.2132 24.7037 25.1222 24.6753 25.0211C24.6185 24.8086 24.6901 24.5825 24.8617 24.4438C24.9447 24.3756 25.0458 24.3325 25.1526 24.32L26.2117 24.3052L26.2106 24.3041C26.2674 24.3063 26.3185 24.2711 26.3367 24.2166L26.681 23.2109C26.7276 23.1166 26.8015 23.0359 26.8912 22.9802C26.9856 22.9211 27.0947 22.8904 27.206 22.8893C27.3151 22.8893 27.4219 22.9188 27.514 22.9768C27.6026 23.0336 27.6742 23.1132 27.7196 23.2075L28.0537 24.2143H28.0549C28.0719 24.2666 28.1208 24.3018 28.1753 24.3018L29.2514 24.3166V24.3177C29.3583 24.3302 29.4594 24.3734 29.5424 24.4416C29.6264 24.5097 29.6878 24.6006 29.7208 24.7029C29.7867 24.912 29.7253 25.1393 29.5617 25.2847L28.706 25.9188ZM21.6299 16.171C21.6299 15.7461 21.4584 15.3404 21.1549 15.0438C20.5174 14.421 19.4993 14.421 18.8629 15.0438L18.8561 15.0495C18.5549 15.3472 18.3868 15.7529 18.3879 16.1756C18.389 16.5983 18.5595 17.0029 18.8629 17.2995C19.4993 17.9222 20.5174 17.9222 21.1549 17.2995C21.4584 17.0017 21.6299 16.596 21.6299 16.171ZM18.08 20.7404L17.4891 22.471V22.4722C17.4175 22.6199 17.2959 22.7358 17.1448 22.7994C16.9914 22.8653 16.8198 22.8733 16.6607 22.821C16.4993 22.771 16.3618 22.6676 16.2697 22.5267C16.1879 22.3972 16.1584 22.2403 16.1879 22.0904L17.1152 19.4949H17.1163C17.2277 19.154 17.4447 18.8574 17.7345 18.6472C18.0243 18.4381 18.372 18.3278 18.7288 18.329H21.3141C21.672 18.3301 22.0209 18.4449 22.3084 18.6585C22.6038 18.8755 22.8254 19.179 22.9425 19.5267L23.8118 22.0574C23.8425 22.2165 23.8141 22.3812 23.7311 22.521C23.647 22.6631 23.5129 22.7699 23.355 22.821C23.197 22.8721 23.0254 22.8653 22.8709 22.7994C22.7209 22.7358 22.5981 22.6187 22.5277 22.4721L21.9368 20.7415L21.9357 20.7403C21.9197 20.6778 21.8595 20.6381 21.7947 20.6449C21.7311 20.6528 21.6822 20.7062 21.6811 20.771V23.213C21.6811 23.4153 21.6004 23.6096 21.4584 23.7528L21.4516 23.7585C21.3038 23.904 21.1038 23.9858 20.8959 23.9846H19.1197C18.9129 23.9869 18.7118 23.9096 18.5606 23.7676C18.4152 23.6301 18.3345 23.4381 18.3356 23.2381V20.7721C18.3334 20.7085 18.2856 20.654 18.2209 20.6471C18.1572 20.6392 18.097 20.6801 18.0811 20.7426L18.08 20.7404ZM7.00041 14.7188H9.42313L8.21176 12.6018L7.00041 14.7188Z" fill="white"/>
</svg>
