<svg width="70" height="70" viewBox="0 0 70 70" fill="none" xmlns="http://www.w3.org/2000/svg">
<rect width="70" height="70" rx="16" fill="#800080"/>
<path fill-rule="evenodd" clip-rule="evenodd" d="M21.6963 28.4034L23.2668 31.1477L24.818 28.4034H21.6963ZM21.1176 21.8334H17.9378L19.5277 24.612L21.1162 21.8334H21.1176ZM28.5333 21.8334H25.3937L26.9627 24.6091L28.5318 21.8334H28.5333ZM24.8195 21.4994L23.2669 18.7565L21.6963 21.5008L24.8195 21.4994ZM25.3952 28.0662H28.5348L26.9657 25.2906L25.3967 28.0662H25.3952ZM21.5068 28.0662L19.7215 24.9505L21.5053 21.8333H25.0058L26.7687 24.9505L25.0058 28.0677L21.5068 28.0662ZM47.4437 21.0965C47.6047 21.2546 47.6957 21.4709 47.6957 21.6976C47.6957 21.9228 47.6047 22.139 47.4437 22.2971C47.1081 22.6267 46.5727 22.6297 46.2326 22.3076L46.2221 22.2986C46.0596 22.1405 45.9686 21.9228 45.9686 21.6976C45.9686 21.4709 46.0596 21.2546 46.2221 21.0965C46.5607 20.7639 47.1036 20.7639 47.4437 21.0965ZM47.3572 21.6976C47.3572 21.5603 47.302 21.4276 47.205 21.3321C46.9977 21.1308 46.6681 21.1308 46.4623 21.3321C46.3638 21.4276 46.3087 21.5603 46.3087 21.6976C46.3087 21.8348 46.3638 21.966 46.4623 22.0615L46.4697 22.0689V22.0704C46.6771 22.2643 47.0007 22.2613 47.205 22.0615C47.302 21.966 47.3572 21.8348 47.3572 21.6976ZM45.5927 27.6681C45.7538 27.8262 45.8448 28.0424 45.8448 28.2677C45.8448 28.4944 45.7538 28.7106 45.5927 28.8687C45.2527 29.2013 44.7098 29.2013 44.3697 28.8687C44.2087 28.7106 44.1177 28.4943 44.1177 28.2677C44.1177 28.0424 44.2087 27.8262 44.3697 27.6681C44.7098 27.3355 45.2527 27.3355 45.5927 27.6681ZM45.5062 28.2676C45.5062 28.1304 45.4511 27.9992 45.3541 27.9037C45.1468 27.7024 44.8187 27.7024 44.6114 27.9037C44.5129 27.9992 44.4577 28.1304 44.4577 28.2676C44.4577 28.4064 44.5129 28.5376 44.6114 28.6331C44.8187 28.8344 45.1468 28.8344 45.3541 28.6331C45.4511 28.5376 45.5062 28.4049 45.5062 28.2676ZM45.7568 18.582C44.9604 18.6342 44.2116 18.9847 43.6613 19.5619C42.5188 20.7551 42.5188 22.6374 43.6613 23.8307C44.2146 24.4123 44.9678 24.7613 45.7672 24.8106C47.5943 24.9239 49.0186 26.4377 49.0186 28.2678C49.0186 29.1373 48.6786 29.9711 48.0701 30.59C47.8866 30.7765 47.6838 30.942 47.4645 31.0837C48.528 30.7899 49.4989 30.2291 50.2864 29.455C51.499 28.2708 52.182 26.6466 52.182 24.9507C52.182 23.2564 51.4989 21.6322 50.2864 20.4464C49.0768 19.2592 47.451 18.5895 45.7568 18.582ZM45.7076 31.3222V31.3207C46.5085 31.2729 47.2632 30.9299 47.8255 30.3587C48.3744 29.8009 48.6801 29.0506 48.6786 28.2676C48.6831 26.6136 47.3974 25.2444 45.7464 25.143C44.8604 25.0878 44.0267 24.7015 43.4137 24.0587C42.1489 22.7387 42.1489 20.6551 43.4137 19.3352C43.6165 19.1234 43.8432 18.937 44.0923 18.7819C42.9737 19.0638 41.952 19.638 41.1302 20.4464C39.9177 21.6321 39.2346 23.2563 39.2346 24.9507C39.2346 26.6465 39.9177 28.2707 41.1302 29.455C42.3503 30.6556 43.9954 31.3253 45.7059 31.3208L45.7076 31.3222ZM24.9493 51.2332V44.9615C24.9493 44.9167 24.9672 44.8735 25 44.8421C25.0313 44.8108 25.0746 44.7944 25.1178 44.7944H28.3185V41.0956H25.1178C25.0746 41.0956 25.0313 41.0777 25 41.0463C24.9672 41.0165 24.9493 40.9733 24.9493 40.9285V38.4288H21.1235V40.9285C21.1235 40.9733 21.1056 41.0165 21.0727 41.0463C21.0414 41.0777 20.9982 41.0956 20.9534 41.0956H17.8184V44.7959H20.9534C20.9982 44.7959 21.0414 44.8138 21.0727 44.8451C21.1056 44.8765 21.1235 44.9182 21.1235 44.963V51.2332L24.9493 51.2332ZM49.3769 39.613C49.9317 40.8002 50.0853 42.1365 49.8153 43.4192C49.5021 44.9152 48.6401 46.2396 47.3977 47.1315C46.1388 48.0428 44.5952 48.4738 43.0457 48.3441C41.7556 48.2397 40.5326 47.7222 39.5586 46.869C39.9569 48.0443 40.6906 49.0779 41.6676 49.8431C42.9174 50.82 44.4805 51.3107 46.0646 51.2242C47.6485 51.1362 49.1475 50.4769 50.2825 49.3673C51.2937 48.3799 51.9441 47.0808 52.126 45.6788C52.3094 44.2768 52.0156 42.8555 51.2908 41.6415C50.8075 40.8331 50.1528 40.1411 49.3727 39.6131L49.3769 39.613ZM46.4267 42.7689C46.3655 42.8077 46.3372 42.8838 46.3566 42.9539L46.7399 44.2902C46.7623 44.4259 46.7459 44.5661 46.6907 44.6929C46.634 44.8242 46.5415 44.9345 46.4222 45.0136C46.2999 45.0941 46.1582 45.1404 46.0106 45.1448C45.8719 45.1508 45.7332 45.1165 45.6109 45.0479L44.5564 44.253C44.4952 44.2082 44.4132 44.2082 44.3521 44.253L43.2827 45.039C43.0366 45.1821 42.7308 45.1747 42.4922 45.0196L42.4847 45.0136C42.2446 44.854 42.1208 44.5676 42.1685 44.2828L42.5339 42.9658V42.9643C42.5578 42.8957 42.5339 42.8196 42.4758 42.7764L41.3482 41.9367C41.2468 41.8427 41.1737 41.7234 41.1364 41.5907C41.0619 41.3118 41.1558 41.015 41.381 40.833C41.4899 40.7435 41.6227 40.6868 41.7629 40.6704L43.1529 40.651L43.1514 40.6495C43.226 40.6525 43.2931 40.6063 43.317 40.5347L43.7689 39.2147C43.83 39.091 43.927 38.9851 44.0448 38.912C44.1686 38.8344 44.3118 38.7941 44.4579 38.7927C44.6011 38.7927 44.7413 38.8314 44.8621 38.9075C44.9785 38.9821 45.0724 39.0865 45.1321 39.2103L45.5706 40.5317H45.5721C45.5944 40.6003 45.6586 40.6465 45.7302 40.6465L47.1426 40.6659V40.6674C47.2828 40.6838 47.4155 40.7405 47.5244 40.83C47.6348 40.9195 47.7153 41.0388 47.7586 41.173C47.8451 41.4475 47.7645 41.7458 47.5498 41.9367L46.4267 42.7689ZM37.1394 29.975C37.1394 29.4172 36.9141 28.8847 36.5159 28.4954C35.6792 27.6781 34.3428 27.6781 33.5076 28.4954L33.4987 28.5029C33.1034 28.8936 32.8827 29.4261 32.8842 29.9809C32.8857 30.5357 33.1094 31.0667 33.5076 31.456C34.3428 32.2733 35.6792 32.2733 36.5159 31.456C36.9141 31.0652 37.1394 30.5327 37.1394 29.975ZM32.48 35.9722L31.7045 38.2437V38.2452C31.6105 38.4391 31.4509 38.5912 31.2526 38.6747C31.0512 38.7612 30.826 38.7717 30.6172 38.7031C30.4054 38.6374 30.2249 38.5017 30.1041 38.3168C29.9967 38.1467 29.9579 37.9409 29.9967 37.744L31.2137 34.3375H31.2152C31.3614 33.89 31.6463 33.5008 32.0266 33.2248C32.4069 32.9504 32.8633 32.8057 33.3317 32.8072H36.7248C37.1946 32.8087 37.6525 32.9593 38.0298 33.2397C38.4176 33.5246 38.7084 33.9228 38.8621 34.3792L40.0031 37.7007C40.0433 37.9096 40.006 38.1258 39.8972 38.3093C39.7868 38.4957 39.6108 38.6359 39.4035 38.703C39.1962 38.7701 38.9709 38.7612 38.7681 38.6747C38.5712 38.5912 38.4101 38.4375 38.3177 38.2451L37.5421 35.9736L37.5406 35.9721C37.5197 35.8901 37.4407 35.8379 37.3557 35.8468C37.2721 35.8573 37.208 35.9274 37.2065 36.0124V39.2176C37.2065 39.4831 37.1006 39.7381 36.9142 39.926L36.9052 39.9335C36.7114 40.1244 36.4489 40.2318 36.1759 40.2303H33.8447C33.5733 40.2333 33.3093 40.1319 33.1109 39.9454C32.92 39.765 32.8141 39.5129 32.8156 39.2504V36.0139C32.8126 35.9304 32.75 35.8588 32.6649 35.8498C32.5814 35.8394 32.5024 35.8931 32.4815 35.9751L32.48 35.9722ZM17.9381 28.0689H21.1179L19.528 25.2903L17.9381 28.0689Z" fill="white"/>
</svg>
