<svg width="70" height="70" viewBox="0 0 70 70" fill="none" xmlns="http://www.w3.org/2000/svg">
<rect width="70" height="70" rx="16" fill="#C36780"/>
<path fill-rule="evenodd" clip-rule="evenodd" d="M37.0583 35.1373L38.2723 36.0218L38.8958 35.4476L30.1407 29.0716C30.1019 29.0522 30.0676 29.0268 30.0363 28.9955L27.5947 27.2177L16.291 35.4478L16.9144 36.022L18.0659 35.1838C18.0852 35.1674 18.1061 35.151 18.1285 35.139L27.3517 28.4244C27.4889 28.32 27.6828 28.314 27.8275 28.4199L37.0583 35.1373ZM28.9431 47.9385H34.8552V47.1108H28.9431V47.9385ZM29.6009 46.3084H34.1976V38.6838H29.6009V46.3084ZM21.0459 37.8832H26.4852C26.7075 37.8832 26.8864 38.0622 26.8864 38.2844V42.9185C26.8864 43.1407 26.7075 43.3197 26.4852 43.3197L21.0459 43.3182C20.8236 43.3182 20.6446 43.1393 20.6446 42.917V38.2829C20.6446 38.0622 20.8251 37.8832 21.0459 37.8832ZM24.1675 40.1994H26.0855V38.6841H24.1675V40.1994ZM21.4471 40.1994H23.3651V38.6841H21.4471V40.1994ZM23.3651 41.0019H21.4471V42.5172H23.3651V41.0019ZM26.0855 41.0019H24.1675V42.5172H26.0855V41.0019ZM32.9167 41.5134C32.9167 40.9854 33.7191 40.9854 33.7191 41.5134V43.4807C33.7191 44.0086 32.9167 44.0086 32.9167 43.4807V41.5134ZM38.1071 48.8054H17.0804V49.6555H38.1071V48.8054ZM44.3773 31.7786L35.1419 25.0536C34.9957 24.9477 34.8018 24.9552 34.6661 25.0581L30.3245 28.2185L29.6175 27.7039L34.9064 23.8545L46.209 32.083L45.5856 32.6572L44.3773 31.7786ZM51.7273 28.4421L42.4533 21.6901C42.3072 21.5842 42.1133 21.5916 41.9775 21.6945L37.6374 24.855L36.9304 24.3404L42.2194 20.4909L53.522 28.7195L52.8985 29.2937L51.7273 28.4421ZM37.2572 44.5801V36.2679L38.0447 36.8421C38.1968 36.9704 38.4235 36.9689 38.5741 36.8317L39.7971 35.7071L39.7956 35.7056C39.9791 35.5371 39.9642 35.2373 39.7598 35.0896L31.0032 28.7121L34.9066 25.8709L43.7735 32.3259V44.5799L37.2572 44.5801ZM38.9097 49.6556V48.4043C38.9097 48.182 38.7307 48.003 38.5085 48.003H37.2572V45.381H45.2024V49.6555L38.9097 49.6556ZM44.5744 41.2437V32.9094L45.3574 33.4792C45.5095 33.6074 45.7362 33.6059 45.8869 33.4687L47.1099 32.3442V32.3427C47.2933 32.1741 47.2784 31.8743 47.0741 31.7267L38.3148 25.3492L42.2181 22.5064L51.1221 28.9885V41.2426L44.5744 41.2437ZM46.0032 49.6556H52.5506V42.0444H44.5741V44.5784H45.6017C45.8239 44.5784 46.0029 44.7574 46.0029 44.9796L46.0032 49.6556ZM27.5938 29.2344L36.4547 35.6852V47.9393H35.6568V46.7103C35.6568 46.4896 35.4778 46.3091 35.2556 46.3091H34.999V38.2848C34.999 38.0626 34.82 37.8836 34.5978 37.8836H29.2C28.9778 37.8836 28.7988 38.0626 28.7988 38.2848V46.3106H28.5408C28.3186 46.3106 28.1396 46.4911 28.1396 46.7118V47.9408L18.7343 47.9393V35.6853L27.5938 29.2344Z" fill="white"/>
</svg>
