<svg width="29" height="45" viewBox="0 0 29 45" fill="none" xmlns="http://www.w3.org/2000/svg">
<path d="M21.478 14.3683C21.478 18.3345 18.2321 21.5522 14.2281 21.5522C10.2236 21.5522 6.97825 18.3345 6.97825 14.3683C6.97825 10.4009 10.2241 7.18427 14.2281 7.18427C18.2329 7.18399 21.478 10.4006 21.478 14.3683ZM29 14.3683C29 6.43273 22.5085 0 14.5 0C6.49204 0 0 6.43273 0 14.3683C0 17.8573 1.25628 21.0563 3.34392 23.5447L14.5125 39.5125L25.8445 23.3118C26.2515 22.8071 26.6242 22.2751 26.9605 21.7159L27.0751 21.5531H27.0563C28.2903 19.4384 29 16.9866 29 14.3683Z" fill="#DEBD25"/>
<path d="M21.2206 14.3792C21.2206 18.2485 18.0685 21.3876 14.1801 21.3876C10.2913 21.3876 7.13971 18.2485 7.13971 14.3792C7.13971 10.5089 10.2918 7.37091 14.1801 7.37091C18.0693 7.37064 21.2206 10.5086 21.2206 14.3792ZM28.5253 14.3792C28.5253 6.63775 22.2214 0.362305 14.4442 0.362305C6.66754 0.362305 0.363037 6.63775 0.363037 14.3792C0.363037 17.7829 1.58303 20.9038 3.61036 23.3313L14.4564 38.9087L25.461 23.1041C25.8562 22.6117 26.2182 22.0928 26.5448 21.5473L26.656 21.3884H26.6378C27.8362 19.3254 28.5253 16.9335 28.5253 14.3792Z" fill="#DEBD25"/>
<circle cx="14.5016" cy="14.5001" r="11.9625" fill="#DEBD25"/>
<circle cx="14.4719" cy="14.4699" r="11.2077" fill="url(#paint0_linear_1206_2568)"/>
<circle cx="14.5022" cy="14.5005" r="10.875" fill="url(#paint1_linear_1206_2568)"/>
<ellipse cx="14.3192" cy="42.4126" rx="9.24375" ry="1.8125" fill="url(#paint2_radial_1206_2568)" fill-opacity="0.6"/>
<path fill-rule="evenodd" clip-rule="evenodd" d="M10.0271 17.6596C10.0361 17.7172 10.018 17.8167 9.99549 17.8848C9.96842 17.9529 9.93233 17.9843 9.92331 18.0576C9.89624 18.2566 10.0316 18.2723 10.1128 18.3613C9.95489 18.398 9.8015 18.3822 9.68421 18.2828C9.55789 18.178 9.53534 18.1152 9.46767 17.9215C9.45414 18.0367 9.48571 18.2042 9.44962 18.2932L9.4406 19.6128H7V20.0002L22 19.9898V19.6128H19.609V17.6649H19.5639C19.5459 17.8953 19.5459 17.9686 19.4421 18.1361C19.1624 18.5865 18.8466 18.1466 19.0271 17.9686C19.0812 17.9162 19.1263 17.9162 19.1805 17.8481C19.2165 17.801 19.2571 17.7382 19.2481 17.6649C19.0992 17.6649 18.2827 17.6492 18.206 17.6754L18.1925 19.6128H17.2677L17.2902 14.6697H21.8421L20.1414 12.7376C20.0917 12.6852 19.8842 12.481 19.8752 12.4077C19.8526 12.2454 19.8842 11.9521 19.8752 11.7689L19.1714 11.7793V12.4705H17.2767C17.2767 12.2558 17.2767 12.0359 17.2767 11.816C17.2767 11.6589 17.3083 11.6798 17.3759 11.5961C17.5158 11.4233 18.0165 10.8578 18.0526 10.7635C18.003 10.7268 17.8677 10.5855 17.8226 10.5279C17.7414 10.4231 17.6782 10.3655 17.597 10.2818C17.5564 10.2399 17.5293 10.1927 17.4842 10.1509L16.812 9.42825C16.7714 9.38636 16.7534 9.34447 16.7128 9.30258C16.6271 9.21357 16.5729 9.15073 16.4872 9.05648L15.594 8.08777C15.5173 8.00923 15.4541 7.92545 15.3774 7.85214L14.9308 7.35993C14.782 7.20285 14.6331 7.03529 14.4887 6.88867L13.812 7.61127C13.6767 7.77883 13.2797 8.18203 13.1353 8.34435C12.991 8.51191 12.8286 8.67423 12.6842 8.83132C12.3414 9.2031 11.9038 9.70054 11.5564 10.0566C11.5113 10.0985 11.4887 10.1404 11.4436 10.1875L10.8887 10.7897C10.9203 10.8578 11.1008 11.0358 11.1729 11.1143L11.6015 11.5961C11.6692 11.6694 11.6827 11.6798 11.6827 11.8212C11.6827 12.0359 11.6827 12.2558 11.6827 12.4705C10.8707 12.4548 10.0541 12.4705 9.24211 12.4705C9.0391 12.4705 9.07519 12.4915 8.96241 12.6119L8.34887 13.2926C8.27669 13.3764 8.20902 13.4602 8.14586 13.5282C8.07368 13.6068 8.01053 13.6749 7.93835 13.7586L7.13534 14.675H11.6872V19.6232L10.8301 19.6128V17.6649H10.0406L10.0271 17.6596ZM11.8767 11.0515C11.8767 10.9206 12.0617 10.8054 12.1789 10.6483L12.8331 9.9257C13.1398 9.61676 13.5008 9.17691 13.8165 8.85227L14.4797 8.1349L15.418 9.17691C15.6707 9.45967 15.9233 9.71101 16.1624 10.0042C16.2707 10.1351 17.0602 10.952 17.0692 11.0515V19.6128H15.8331V18.6912C15.8331 17.9215 15.9278 17.2355 15.6211 16.6857C14.8947 15.3871 13.1128 15.984 13.1083 17.5759V19.6128C12.7744 19.618 12.1789 19.6285 11.8767 19.6128V19.5185C11.8677 16.7381 11.8767 13.8372 11.8767 11.0567V11.0515ZM13.4917 19.6075C13.4917 19.2305 13.4601 17.8639 13.5188 17.5916C13.6135 17.136 14.0105 16.6648 14.5023 16.6857C15.012 16.7066 15.3639 17.0994 15.4496 17.6282C15.4857 17.8377 15.4902 19.3614 15.4722 19.618H15.3278C15.2872 19.0263 15.3504 18.3665 15.3143 17.7696C15.2827 17.2669 14.9308 16.8637 14.4842 16.869C14.0421 16.8742 13.6902 17.2722 13.6541 17.7696C13.6316 18.1047 13.6451 19.1939 13.6451 19.6075H13.4917ZM13.9744 18.0681C14.0286 18.1466 14.0511 18.1833 14.0376 18.3037C14.0286 18.3927 13.9925 18.4765 13.9023 18.4451C13.794 18.4032 13.7669 18.0524 13.9744 18.0681Z" fill="white"/>
<path fill-rule="evenodd" clip-rule="evenodd" d="M10.0271 17.6596C10.0361 17.7172 10.018 17.8167 9.99549 17.8848C9.96842 17.9529 9.93233 17.9843 9.92331 18.0576C9.89624 18.2566 10.0316 18.2723 10.1128 18.3613C9.95489 18.398 9.8015 18.3822 9.68421 18.2828C9.55789 18.178 9.53534 18.1152 9.46767 17.9215C9.45414 18.0367 9.48571 18.2042 9.44962 18.2932L9.4406 19.6128H7V20.0002L22 19.9898V19.6128H19.609V17.6649H19.5639C19.5459 17.8953 19.5459 17.9686 19.4421 18.1361C19.1624 18.5865 18.8466 18.1466 19.0271 17.9686C19.0812 17.9162 19.1263 17.9162 19.1805 17.8481C19.2165 17.801 19.2571 17.7382 19.2481 17.6649C19.0992 17.6649 18.2827 17.6492 18.206 17.6754L18.1925 19.6128H17.2677L17.2902 14.6697H21.8421L20.1414 12.7376C20.0917 12.6852 19.8842 12.481 19.8752 12.4077C19.8526 12.2454 19.8842 11.9521 19.8752 11.7689L19.1714 11.7793V12.4705H17.2767C17.2767 12.2558 17.2767 12.0359 17.2767 11.816C17.2767 11.6589 17.3083 11.6798 17.3759 11.5961C17.5158 11.4233 18.0165 10.8578 18.0526 10.7635C18.003 10.7268 17.8677 10.5855 17.8226 10.5279C17.7414 10.4231 17.6782 10.3655 17.597 10.2818C17.5564 10.2399 17.5293 10.1927 17.4842 10.1509L16.812 9.42825C16.7714 9.38636 16.7534 9.34447 16.7128 9.30258C16.6271 9.21357 16.5729 9.15073 16.4872 9.05648L15.594 8.08777C15.5173 8.00923 15.4541 7.92545 15.3774 7.85214L14.9308 7.35993C14.782 7.20285 14.6331 7.03529 14.4887 6.88867L13.812 7.61127C13.6767 7.77883 13.2797 8.18203 13.1353 8.34435C12.991 8.51191 12.8286 8.67423 12.6842 8.83132C12.3414 9.2031 11.9038 9.70054 11.5564 10.0566C11.5113 10.0985 11.4887 10.1404 11.4436 10.1875L10.8887 10.7897C10.9203 10.8578 11.1008 11.0358 11.1729 11.1143L11.6015 11.5961C11.6692 11.6694 11.6827 11.6798 11.6827 11.8212C11.6827 12.0359 11.6827 12.2558 11.6827 12.4705C10.8707 12.4548 10.0541 12.4705 9.24211 12.4705C9.0391 12.4705 9.07519 12.4915 8.96241 12.6119L8.34887 13.2926C8.27669 13.3764 8.20902 13.4602 8.14586 13.5282C8.07368 13.6068 8.01053 13.6749 7.93835 13.7586L7.13534 14.675H11.6872V19.6232L10.8301 19.6128V17.6649H10.0406L10.0271 17.6596ZM11.8767 11.0515C11.8767 10.9206 12.0617 10.8054 12.1789 10.6483L12.8331 9.9257C13.1398 9.61676 13.5008 9.17691 13.8165 8.85227L14.4797 8.1349L15.418 9.17691C15.6707 9.45967 15.9233 9.71101 16.1624 10.0042C16.2707 10.1351 17.0602 10.952 17.0692 11.0515V19.6128H15.8331V18.6912C15.8331 17.9215 15.9278 17.2355 15.6211 16.6857C14.8947 15.3871 13.1128 15.984 13.1083 17.5759V19.6128C12.7744 19.618 12.1789 19.6285 11.8767 19.6128V19.5185C11.8677 16.7381 11.8767 13.8372 11.8767 11.0567V11.0515ZM13.4917 19.6075C13.4917 19.2305 13.4601 17.8639 13.5188 17.5916C13.6135 17.136 14.0105 16.6648 14.5023 16.6857C15.012 16.7066 15.3639 17.0994 15.4496 17.6282C15.4857 17.8377 15.4902 19.3614 15.4722 19.618H15.3278C15.2872 19.0263 15.3504 18.3665 15.3143 17.7696C15.2827 17.2669 14.9308 16.8637 14.4842 16.869C14.0421 16.8742 13.6902 17.2722 13.6541 17.7696C13.6316 18.1047 13.6451 19.1939 13.6451 19.6075H13.4917ZM13.9744 18.0681C14.0286 18.1466 14.0511 18.1833 14.0376 18.3037C14.0286 18.3927 13.9925 18.4765 13.9023 18.4451C13.794 18.4032 13.7669 18.0524 13.9744 18.0681Z" fill="#DEBD25"/>
<path fill-rule="evenodd" clip-rule="evenodd" d="M16.1807 8.41763L16.4649 8.73705C16.5731 8.66374 16.934 8.22913 17.0604 8.09822C17.119 8.04062 17.1957 7.94113 17.2634 7.88354C17.4348 8.03539 17.8047 8.4857 17.9762 8.6585C18.0574 8.73704 18.1205 8.8313 18.2107 8.92555L19.1762 9.9728C19.2483 9.8576 19.3521 9.7424 19.4243 9.62721L18.6258 8.72657C18.5356 8.63232 18.4318 8.53283 18.3551 8.43334C18.2333 8.27102 17.5476 7.54842 17.3401 7.30755L17.2679 7.229L16.9882 7.52223C16.9386 7.5746 16.9115 7.62172 16.8619 7.67409C16.8122 7.72645 16.7716 7.76834 16.7175 7.82594L16.1807 8.42811V8.41763Z" fill="#DEBD25"/>
<path fill-rule="evenodd" clip-rule="evenodd" d="M9.85075 9.97272C9.94098 9.89941 10.0222 9.77897 10.0899 9.7109L11.7455 7.89392C11.8312 7.95152 12.0432 8.2081 12.1289 8.30759C12.1921 8.3809 12.2553 8.44373 12.3274 8.51704C12.3726 8.56416 12.4718 8.69507 12.5169 8.72125C12.5575 8.70031 12.7831 8.4542 12.8011 8.40184L12.2643 7.82062C12.1966 7.73684 11.7771 7.26557 11.732 7.24463C11.6733 7.29176 11.6462 7.33364 11.5921 7.40172L11.1906 7.8468C11.0598 7.98818 9.62068 9.56952 9.58008 9.64807C9.61617 9.70567 9.81918 9.95701 9.85527 9.97795" fill="#DEBD25"/>
<path fill-rule="evenodd" clip-rule="evenodd" d="M13.4916 19.6076H13.645C13.645 19.1991 13.6315 18.1048 13.6541 17.7696C13.6901 17.2722 14.042 16.8742 14.4841 16.869C14.9307 16.8638 15.2826 17.267 15.3142 17.7696C15.3503 18.3613 15.2871 19.0263 15.3277 19.618H15.4721C15.4901 19.3615 15.4811 17.8377 15.4495 17.6283C15.3593 17.0994 15.0119 16.7067 14.5022 16.6857C14.0104 16.6648 13.6134 17.136 13.5187 17.5916C13.4601 17.8639 13.4916 19.2305 13.4916 19.6076Z" fill="white"/>
<path fill-rule="evenodd" clip-rule="evenodd" d="M14.0105 6.08729L14.0511 6.61615C14.1774 6.60568 14.3849 6.5219 14.6917 6.50619C15.409 6.46954 15.8737 6.68946 16.4782 7.00887C16.3609 6.8256 15.7067 6.39623 15.4586 6.28627C14.994 6.08205 14.5564 6.00351 14.0105 6.08729Z" fill="#DEBD25"/>
<path fill-rule="evenodd" clip-rule="evenodd" d="M18.6891 7.5533C18.459 6.98779 17.8725 6.20235 17.453 5.84629C17.1958 5.6316 16.9342 5.43786 16.5868 5.28077C16.3522 5.17605 15.7567 4.97183 15.468 5.00325C16.0455 5.14463 16.8214 5.67873 17.2725 6.05574C17.4079 6.17093 17.5297 6.28089 17.6515 6.40133C17.9402 6.68409 18.0755 6.82023 18.3552 7.15535C18.4635 7.28625 18.5898 7.4224 18.6891 7.55854" fill="#DEBD25"/>
<path fill-rule="evenodd" clip-rule="evenodd" d="M12.603 15.1981H13.2346C13.2572 15.0672 13.2481 14.2556 13.2346 14.0933H12.6075V15.1981H12.603Z" fill="#DEBD25"/>
<path fill-rule="evenodd" clip-rule="evenodd" d="M13.4106 15.2037H14.0332L14.0377 14.0884H13.4152L13.4106 15.2037Z" fill="#DEBD25"/>
<path fill-rule="evenodd" clip-rule="evenodd" d="M14.9402 15.1932L15.5627 15.1985L15.5673 14.0884H14.9447L14.9402 15.1932Z" fill="#DEBD25"/>
<path fill-rule="evenodd" clip-rule="evenodd" d="M15.7427 15.1985H16.3652L16.3697 14.0988L15.7472 14.0884L15.7427 15.1985Z" fill="#DEBD25"/>
<path d="M13.2359 12.9176L12.5999 12.9194L12.6019 13.8829L13.238 13.8811L13.2359 12.9176Z" fill="#DEBD25"/>
<path fill-rule="evenodd" clip-rule="evenodd" d="M14.9402 13.8786L15.5763 13.8839V12.9256L14.9402 12.9204V13.8786Z" fill="#DEBD25"/>
<path d="M14.0331 12.915H13.406V13.8837H14.0331V12.915Z" fill="#DEBD25"/>
<path fill-rule="evenodd" clip-rule="evenodd" d="M15.7478 13.8785L16.3749 13.8837V12.9255L15.7478 12.915V13.8785Z" fill="#DEBD25"/>
<path fill-rule="evenodd" clip-rule="evenodd" d="M16.1219 8.35454V7.12402H15.5219C15.5219 7.28111 15.5219 7.4382 15.5174 7.59529C15.5174 7.7419 15.5084 7.71572 15.6798 7.89899C15.7204 7.94088 15.752 7.96182 15.7881 8.00371L16.1264 8.34931L16.1219 8.35454Z" fill="#DEBD25"/>
<path fill-rule="evenodd" clip-rule="evenodd" d="M12.5986 12.638V12.7113H13.2392V12.6904V11.9678H13.1761H12.5986V12.638Z" fill="#DEBD25"/>
<path fill-rule="evenodd" clip-rule="evenodd" d="M14.9402 12.706L15.5763 12.7165V12.0829V11.9729C15.468 11.9677 15.0169 11.952 14.9402 11.9834V12.706Z" fill="#DEBD25"/>
<path d="M15.7508 11.9693L15.7485 12.7129L16.3846 12.7155L16.3869 11.9719L15.7508 11.9693Z" fill="#DEBD25"/>
<path fill-rule="evenodd" clip-rule="evenodd" d="M13.406 12.7061L14.0421 12.7113V11.9678H13.4105L13.406 12.7061Z" fill="#DEBD25"/>
<path fill-rule="evenodd" clip-rule="evenodd" d="M19.6222 16.3134H20.5966C20.6102 16.2192 20.6192 15.9155 20.5876 15.8526C20.538 15.8317 19.7124 15.8317 19.6177 15.8526V16.3186L19.6222 16.3134Z" fill="#DEBD25"/>
<path fill-rule="evenodd" clip-rule="evenodd" d="M8.39416 16.3133C8.65581 16.3133 9.14303 16.3238 9.37311 16.3133V15.8421C9.08439 15.8421 8.63326 15.8264 8.38965 15.8473V16.3133H8.39416Z" fill="#DEBD25"/>
<path fill-rule="evenodd" clip-rule="evenodd" d="M17.8315 16.3134L18.815 16.3082L18.8105 15.8369H17.8361L17.8315 15.905V16.2192V16.3134Z" fill="#DEBD25"/>
<path fill-rule="evenodd" clip-rule="evenodd" d="M10.1803 16.3134L11.1547 16.3082V15.8369L10.1758 15.8422L10.1803 16.3134Z" fill="#DEBD25"/>
<path fill-rule="evenodd" clip-rule="evenodd" d="M17.8364 16.8894H18.8154V16.4443H17.8364V16.8894Z" fill="#DEBD25"/>
<path fill-rule="evenodd" clip-rule="evenodd" d="M10.1805 16.4443C10.1805 16.5595 10.1624 16.7952 10.1895 16.8894H11.1594V16.4443H10.1805Z" fill="#DEBD25"/>
<path fill-rule="evenodd" clip-rule="evenodd" d="M8.39404 16.8894L9.37299 16.8842V16.4443H8.39404V16.8894Z" fill="#DEBD25"/>
<path fill-rule="evenodd" clip-rule="evenodd" d="M17.8364 15.7117H18.8154L18.8109 15.2666H17.8364V15.7117Z" fill="#DEBD25"/>
<path fill-rule="evenodd" clip-rule="evenodd" d="M19.6228 16.8894L20.6017 16.8842V16.4443H19.6228V16.8894Z" fill="#DEBD25"/>
<path fill-rule="evenodd" clip-rule="evenodd" d="M8.39404 15.7115L9.37299 15.7063L9.36848 15.2665L8.39404 15.2612V15.7115Z" fill="#DEBD25"/>
<path fill-rule="evenodd" clip-rule="evenodd" d="M19.6273 15.7115L20.6017 15.7063L20.5972 15.2665L19.6228 15.2612L19.6273 15.7115Z" fill="#DEBD25"/>
<path fill-rule="evenodd" clip-rule="evenodd" d="M10.1758 15.7117L11.1592 15.7064L11.1547 15.2666H10.1758V15.7117Z" fill="#DEBD25"/>
<path fill-rule="evenodd" clip-rule="evenodd" d="M9.44543 18.2981C9.48152 18.2039 9.44994 18.0416 9.46347 17.9264C9.53114 18.1149 9.5537 18.1777 9.68002 18.2877C9.79731 18.3872 9.9552 18.4029 10.1086 18.3662C10.0274 18.2772 9.89205 18.2562 9.91911 18.0625C9.92814 17.984 9.96874 17.9525 9.99129 17.8897C10.0184 17.8216 10.0364 17.7221 10.0229 17.6646H9.44092V18.3034L9.44543 18.2981Z" fill="#DEBD25"/>
<path fill-rule="evenodd" clip-rule="evenodd" d="M19.564 17.6646H19.2482C19.2572 17.7431 19.2166 17.8059 19.1806 17.8478C19.1264 17.9159 19.0813 17.9159 19.0272 17.9683C18.8422 18.1463 19.1625 18.5809 19.4422 18.1358C19.546 17.9683 19.546 17.8949 19.564 17.6646Z" fill="#DEBD25"/>
<path fill-rule="evenodd" clip-rule="evenodd" d="M19.5148 11.3442C19.4742 11.4175 19.4291 11.4542 19.3749 11.5118C19.3434 11.5432 19.3253 11.5642 19.2937 11.5956C19.2802 11.6113 19.2667 11.6218 19.2531 11.6375C19.2261 11.6741 19.2441 11.6375 19.2261 11.6846H19.8171C19.7719 11.6165 19.7223 11.5642 19.6682 11.5066C19.6411 11.4751 19.6231 11.4542 19.596 11.4175C19.5599 11.3704 19.5644 11.3652 19.5148 11.3442Z" fill="#DEBD25"/>
<defs>
<linearGradient id="paint0_linear_1206_2568" x1="25.7392" y1="19.2122" x2="1.99541" y2="11.2372" gradientUnits="userSpaceOnUse">
<stop stop-color="white"/>
<stop offset="1" stop-color="#999999"/>
</linearGradient>
<linearGradient id="paint1_linear_1206_2568" x1="4.89595" y1="10.3317" x2="24.1084" y2="25.3755" gradientUnits="userSpaceOnUse">
<stop stop-color="white"/>
<stop offset="1" stop-color="#C7C7C7"/>
</linearGradient>
<radialGradient id="paint2_radial_1206_2568" cx="0" cy="0" r="1" gradientUnits="userSpaceOnUse" gradientTransform="translate(14.3192 42.4126) scale(9.24375 1.8125)">
<stop stop-opacity="0.8"/>
<stop offset="1" stop-color="#666666" stop-opacity="0"/>
</radialGradient>
</defs>
</svg>
