<svg width="40" height="40" viewBox="0 0 40 40" fill="none" xmlns="http://www.w3.org/2000/svg">
<circle cx="20" cy="20" r="20" fill="#9F6071"/>
<path fill-rule="evenodd" clip-rule="evenodd" d="M21.5678 20.1045L22.4928 20.7784L22.9678 20.3409L16.2972 15.483C16.2677 15.4682 16.2416 15.4489 16.2177 15.425L14.3575 14.0705L5.74512 20.341L6.22011 20.7785L7.09738 20.1399C7.11215 20.1274 7.12806 20.1149 7.14511 20.1058L14.1723 14.9899C14.2769 14.9103 14.4246 14.9058 14.5348 14.9865L21.5678 20.1045ZM15.3848 29.8578H19.8892V29.2271H15.3848V29.8578ZM15.886 28.6158H19.3882V22.8066H15.886V28.6158ZM9.36785 22.1966H13.5121C13.6815 22.1966 13.8178 22.3329 13.8178 22.5023V26.033C13.8178 26.2023 13.6815 26.3387 13.5121 26.3387L9.36785 26.3376C9.19853 26.3376 9.06216 26.2012 9.06216 26.0319V22.5011C9.06216 22.3329 9.19966 22.1966 9.36785 22.1966ZM11.7463 23.9613H13.2076V22.8068H11.7463V23.9613ZM9.67354 23.9613H11.1349V22.8068H9.67354V23.9613ZM11.1349 24.5727H9.67354V25.7273H11.1349V24.5727ZM13.2076 24.5727H11.7463V25.7273H13.2076V24.5727ZM18.4123 24.9625C18.4123 24.5602 19.0236 24.5602 19.0236 24.9625V26.4613C19.0236 26.8636 18.4123 26.8636 18.4123 26.4613V24.9625ZM22.3669 30.5183H6.34653V31.166H22.3669V30.5183ZM27.1442 17.5455L20.1077 12.4217C19.9963 12.341 19.8486 12.3467 19.7452 12.4251L16.4373 14.833L15.8986 14.441L19.9283 11.508L28.5398 17.7774L28.0648 18.2149L27.1442 17.5455ZM32.7442 15.0034L25.6783 9.85897C25.5669 9.77828 25.4192 9.78397 25.3158 9.86237L22.009 12.2703L21.4704 11.8783L25.5001 8.94531L34.1116 15.2147L33.6366 15.6522L32.7442 15.0034ZM21.7193 27.299V20.9659L22.3193 21.4034C22.4352 21.5011 22.608 21.5 22.7227 21.3954L23.6545 20.5386L23.6534 20.5375C23.7932 20.4091 23.7818 20.1806 23.6261 20.0681L16.9544 15.2091L19.9284 13.0443L26.6842 17.9624V27.2989L21.7193 27.299ZM22.9784 31.166V30.2126C22.9784 30.0433 22.842 29.9069 22.6727 29.9069H21.7193V27.9092H27.7729V31.1659L22.9784 31.166ZM27.2943 24.757V18.407L27.8909 18.8411C28.0068 18.9389 28.1796 18.9377 28.2943 18.8332L29.2261 17.9764V17.9752C29.3659 17.8468 29.3546 17.6184 29.1989 17.5059L22.5251 12.6468L25.4991 10.4809L32.2831 15.4197V24.7561L27.2943 24.757ZM28.383 31.166H33.3715V25.367H27.2941V27.2977H28.0771C28.2464 27.2977 28.3827 27.4341 28.3827 27.6034L28.383 31.166ZM14.3568 15.607L21.1079 20.5219V29.8584H20.5V28.922C20.5 28.7538 20.3636 28.6163 20.1943 28.6163H19.9988V22.5026C19.9988 22.3333 19.8625 22.1969 19.6932 22.1969H15.5806C15.4113 22.1969 15.2749 22.3332 15.2749 22.5026V28.6175H15.0783C14.909 28.6175 14.7726 28.755 14.7726 28.9232V29.8595L7.60664 29.8584V20.522L14.3568 15.607Z" fill="white"/>
</svg>
