<svg width="140" height="140" viewBox="0 0 140 140" fill="none" xmlns="http://www.w3.org/2000/svg">
<rect width="140" height="140" rx="16" fill="#DEBD25"/>
<rect width="84" height="84" transform="translate(28 28)" fill="#DEBD25"/>
<path fill-rule="evenodd" clip-rule="evenodd" d="M53.301 89.2619C53.3347 89.477 53.2674 89.8484 53.1832 90.1025C53.0821 90.3566 52.9474 90.4739 52.9137 90.7476C52.8126 91.4905 53.3179 91.5491 53.6211 91.8814C53.0316 92.0183 52.4589 91.9596 52.0211 91.5882C51.5495 91.1972 51.4653 90.9627 51.2126 90.2394C51.1621 90.6694 51.28 91.295 51.1453 91.6273L51.1116 96.5536H42V98.0002L98 97.9611V96.5536H89.0737V89.2815H88.9053C88.8379 90.1416 88.8379 90.4153 88.4505 91.0408C87.4063 92.722 86.2274 91.0799 86.901 90.4153C87.1032 90.2198 87.2716 90.2198 87.4737 89.9657C87.6084 89.7897 87.76 89.5551 87.7263 89.2815C87.1705 89.2815 84.1221 89.2228 83.8358 89.3206L83.7853 96.5536H80.3326L80.4168 78.0996H97.4105L91.061 70.8862C90.8758 70.6907 90.101 69.9283 90.0674 69.6546C89.9831 69.0486 90.101 67.9539 90.0674 67.2697L87.44 67.3088V69.8892H80.3663C80.3663 69.0877 80.3663 68.2666 80.3663 67.4456C80.3663 66.8591 80.4842 66.9373 80.7368 66.6246C81.2589 65.9794 83.1284 63.8682 83.2632 63.5163C83.0779 63.3795 82.5726 62.8517 82.4042 62.6366C82.1011 62.2457 81.8653 62.0306 81.5621 61.7178C81.4105 61.5614 81.3095 61.3855 81.141 61.2291L78.6316 58.5314C78.48 58.375 78.4126 58.2186 78.2611 58.0622C77.9411 57.7299 77.7389 57.4953 77.4189 57.1434L74.0842 53.5269C73.7979 53.2337 73.5621 52.9209 73.2758 52.6472L71.6084 50.8097C71.0526 50.2232 70.4968 49.5977 69.9579 49.0503L67.4316 51.748C66.9263 52.3736 65.4442 53.8788 64.9053 54.4848C64.3663 55.1104 63.76 55.7164 63.2211 56.3029C61.9411 57.6908 60.3074 59.5479 59.0105 60.8772C58.8421 61.0336 58.7579 61.19 58.5895 61.366L56.5179 63.6141C56.6358 63.8682 57.3095 64.5328 57.5789 64.8261L59.1789 66.6246C59.4316 66.8982 59.4821 66.9373 59.4821 67.4651C59.4821 68.2666 59.4821 69.0877 59.4821 69.8892C56.4505 69.8305 53.4021 69.8892 50.3705 69.8892C49.6126 69.8892 49.7474 69.9674 49.3263 70.417L47.0358 72.9583C46.7663 73.2711 46.5137 73.5839 46.2779 73.838C46.0084 74.1312 45.7726 74.3854 45.5032 74.6982L42.5053 78.1192H59.4989V96.5927L56.2989 96.5536V89.2815H53.3516L53.301 89.2619ZM60.2063 64.5915C60.2063 64.1028 60.8968 63.6727 61.3347 63.0862L63.7768 60.3885C64.9221 59.2352 66.2695 57.5931 67.4484 56.381L69.9242 53.7029L73.4274 57.5931C74.3705 58.6487 75.3137 59.587 76.2063 60.6818C76.6105 61.1705 79.5579 64.2201 79.5916 64.5915V96.5536H74.9768V93.113C74.9768 90.2393 75.3305 87.6785 74.1853 85.6259C71.4737 80.7778 64.8211 83.0063 64.8042 88.9491V96.5536C63.5579 96.5731 61.3347 96.6122 60.2063 96.5536V96.2017C60.1726 85.8214 60.2063 74.9914 60.2063 64.611V64.5915ZM66.2358 96.534C66.2358 95.1265 66.1179 90.0243 66.3368 89.0078C66.6905 87.307 68.1726 85.5477 70.0084 85.6259C71.9116 85.7041 73.2253 87.1702 73.5453 89.1446C73.68 89.9266 73.6968 95.6152 73.6295 96.5731H73.0905C72.9389 94.3641 73.1747 91.901 73.04 89.6724C72.9221 87.7958 71.6084 86.2905 69.941 86.3101C68.2905 86.3296 66.9768 87.8153 66.8421 89.6724C66.7579 90.9236 66.8084 94.9897 66.8084 96.534H66.2358ZM68.0379 90.7867C68.24 91.0799 68.3242 91.2168 68.2737 91.6664C68.24 91.9987 68.1053 92.3115 67.7684 92.1942C67.3642 92.0378 67.2632 90.7281 68.0379 90.7867Z" fill="white"/>
<path fill-rule="evenodd" clip-rule="evenodd" d="M53.301 89.2619C53.3347 89.477 53.2674 89.8484 53.1832 90.1025C53.0821 90.3566 52.9474 90.4739 52.9137 90.7476C52.8126 91.4905 53.3179 91.5491 53.6211 91.8814C53.0316 92.0183 52.4589 91.9596 52.0211 91.5882C51.5495 91.1972 51.4653 90.9627 51.2126 90.2394C51.1621 90.6694 51.28 91.295 51.1453 91.6273L51.1116 96.5536H42V98.0002L98 97.9611V96.5536H89.0737V89.2815H88.9053C88.8379 90.1416 88.8379 90.4153 88.4505 91.0408C87.4063 92.722 86.2274 91.0799 86.901 90.4153C87.1032 90.2198 87.2716 90.2198 87.4737 89.9657C87.6084 89.7897 87.76 89.5551 87.7263 89.2815C87.1705 89.2815 84.1221 89.2228 83.8358 89.3206L83.7853 96.5536H80.3326L80.4168 78.0996H97.4105L91.061 70.8862C90.8758 70.6907 90.101 69.9283 90.0674 69.6546C89.9831 69.0486 90.101 67.9539 90.0674 67.2697L87.44 67.3088V69.8892H80.3663C80.3663 69.0877 80.3663 68.2666 80.3663 67.4456C80.3663 66.8591 80.4842 66.9373 80.7368 66.6246C81.2589 65.9794 83.1284 63.8682 83.2632 63.5163C83.0779 63.3795 82.5726 62.8517 82.4042 62.6366C82.1011 62.2457 81.8653 62.0306 81.5621 61.7178C81.4105 61.5614 81.3095 61.3855 81.141 61.2291L78.6316 58.5314C78.48 58.375 78.4126 58.2186 78.2611 58.0622C77.9411 57.7299 77.7389 57.4953 77.4189 57.1434L74.0842 53.5269C73.7979 53.2337 73.5621 52.9209 73.2758 52.6472L71.6084 50.8097C71.0526 50.2232 70.4968 49.5977 69.9579 49.0503L67.4316 51.748C66.9263 52.3736 65.4442 53.8788 64.9053 54.4848C64.3663 55.1104 63.76 55.7164 63.2211 56.3029C61.9411 57.6908 60.3074 59.5479 59.0105 60.8772C58.8421 61.0336 58.7579 61.19 58.5895 61.366L56.5179 63.6141C56.6358 63.8682 57.3095 64.5328 57.5789 64.8261L59.1789 66.6246C59.4316 66.8982 59.4821 66.9373 59.4821 67.4651C59.4821 68.2666 59.4821 69.0877 59.4821 69.8892C56.4505 69.8305 53.4021 69.8892 50.3705 69.8892C49.6126 69.8892 49.7474 69.9674 49.3263 70.417L47.0358 72.9583C46.7663 73.2711 46.5137 73.5839 46.2779 73.838C46.0084 74.1312 45.7726 74.3854 45.5032 74.6982L42.5053 78.1192H59.4989V96.5927L56.2989 96.5536V89.2815H53.3516L53.301 89.2619ZM60.2063 64.5915C60.2063 64.1028 60.8968 63.6727 61.3347 63.0862L63.7768 60.3885C64.9221 59.2352 66.2695 57.5931 67.4484 56.381L69.9242 53.7029L73.4274 57.5931C74.3705 58.6487 75.3137 59.587 76.2063 60.6818C76.6105 61.1705 79.5579 64.2201 79.5916 64.5915V96.5536H74.9768V93.113C74.9768 90.2393 75.3305 87.6785 74.1853 85.6259C71.4737 80.7778 64.8211 83.0063 64.8042 88.9491V96.5536C63.5579 96.5731 61.3347 96.6122 60.2063 96.5536V96.2017C60.1726 85.8214 60.2063 74.9914 60.2063 64.611V64.5915ZM66.2358 96.534C66.2358 95.1265 66.1179 90.0243 66.3368 89.0078C66.6905 87.307 68.1726 85.5477 70.0084 85.6259C71.9116 85.7041 73.2253 87.1702 73.5453 89.1446C73.68 89.9266 73.6968 95.6152 73.6295 96.5731H73.0905C72.9389 94.3641 73.1747 91.901 73.04 89.6724C72.9221 87.7958 71.6084 86.2905 69.941 86.3101C68.2905 86.3296 66.9768 87.8153 66.8421 89.6724C66.7579 90.9236 66.8084 94.9897 66.8084 96.534H66.2358ZM68.0379 90.7867C68.24 91.0799 68.3242 91.2168 68.2737 91.6664C68.24 91.9987 68.1053 92.3115 67.7684 92.1942C67.3642 92.0378 67.2632 90.7281 68.0379 90.7867Z" fill="white"/>
<path fill-rule="evenodd" clip-rule="evenodd" d="M60.207 64.5918C60.207 74.9916 60.1565 85.8021 60.207 96.1824V96.5343C61.3523 96.5929 63.5754 96.5734 64.8049 96.5343V88.9299C64.8386 83.0066 71.4912 80.7781 74.2028 85.6066C75.3481 87.6592 74.9944 90.2201 74.9944 93.0937V96.5343H79.6428V64.5722C79.5754 64.2008 76.6281 61.1512 76.2239 60.6625C75.3312 59.5677 74.3881 58.6294 73.4449 57.5738L69.9418 53.6836L67.466 56.3618C66.287 57.5738 64.9397 59.2159 63.7944 60.3692L61.3523 63.067C60.8976 63.6339 60.2239 64.0835 60.2239 64.5722M62.9018 68.0128H65.0576H65.2933V70.7105V70.7887H62.9186V70.515V68.0128H62.9018ZM65.9333 68.0128H68.2912V70.7887H65.9165L65.9333 68.0128ZM71.6428 68.0519C71.946 67.9346 73.6133 67.9932 74.0175 68.0128V68.4233V70.7887L71.6428 70.7496V68.0519ZM74.6576 68.0128H77.0323V70.7887H74.6576V68.0128ZM62.9186 71.5706H65.2933V75.1676H62.9186V71.5706ZM65.9165 71.5511H68.2575V75.148H65.9165V71.5315V71.5511ZM71.6428 71.5706H74.0175V75.1676H71.6428V71.5706ZM74.6576 71.5511H76.9986V75.148H74.6576V71.5511ZM62.9186 75.93H65.2597C65.3102 76.5555 65.3439 79.5856 65.2597 80.0743H62.9018V75.93H62.9186ZM65.9502 75.93H68.2744V80.0938H65.9502V75.93ZM71.6597 75.93H74.0007L73.9839 80.0743H71.6597V75.93ZM74.6576 75.93L76.9818 75.9691V80.0743H74.6407V75.93H74.6576Z" fill="#DEBD25"/>
<path fill-rule="evenodd" clip-rule="evenodd" d="M76.2744 54.7593L77.3355 55.9518C77.7397 55.6781 79.087 54.0556 79.5586 53.5669C79.7776 53.3518 80.0639 52.9804 80.3165 52.7654C80.9565 53.3323 82.3376 55.0135 82.9776 55.6586C83.2807 55.9518 83.5165 56.3037 83.8534 56.6555L87.4576 60.5653C87.727 60.1352 88.1144 59.7051 88.3839 59.2751L85.4028 55.9127C85.066 55.5608 84.6786 55.1894 84.3923 54.818C83.9376 54.212 81.3776 51.5142 80.6028 50.615L80.3334 50.3218L79.2892 51.4165C79.1039 51.612 79.0028 51.7879 78.8176 51.9834C78.6323 52.1789 78.4807 52.3353 78.2786 52.5503L76.2744 54.7984V54.7593Z" fill="white"/>
<path fill-rule="evenodd" clip-rule="evenodd" d="M52.6433 60.5638C52.9802 60.2901 53.2833 59.8405 53.536 59.5863L59.717 52.8029C60.037 53.018 60.8286 53.9759 61.1486 54.3473C61.3844 54.621 61.6202 54.8556 61.8897 55.1292C62.0581 55.3052 62.4286 55.7939 62.597 55.8916C62.7486 55.8134 63.5907 54.8946 63.6581 54.6992L61.6539 52.5293C61.4012 52.2165 59.8349 50.4571 59.6665 50.3789C59.4475 50.5548 59.3465 50.7112 59.1444 50.9654L57.6454 52.627C57.157 53.1548 51.7844 59.0585 51.6328 59.3517C51.7675 59.5668 52.5254 60.5051 52.6602 60.5833" fill="white"/>
<path fill-rule="evenodd" clip-rule="evenodd" d="M66.2358 96.5342H66.8084C66.8084 95.0094 66.7579 90.9237 66.8421 89.6726C66.9769 87.8155 68.2905 86.3298 69.9411 86.3102C71.6084 86.2907 72.9221 87.796 73.04 89.6726C73.1747 91.8816 72.939 94.3643 73.0905 96.5733H73.6295C73.6969 95.6154 73.6632 89.9268 73.5453 89.1448C73.2084 87.1704 71.9116 85.7042 70.0084 85.626C68.1726 85.5479 66.6905 87.3072 66.3368 89.008C66.1179 90.0245 66.2358 95.1267 66.2358 96.5342Z" fill="#DEBD25"/>
<path fill-rule="evenodd" clip-rule="evenodd" d="M68.1729 46.0581L68.3244 48.0325C68.796 47.9934 69.5707 47.6806 70.716 47.622C73.3939 47.4852 75.1286 48.3062 77.3855 49.4987C76.9476 48.8145 74.5055 47.2115 73.5792 46.801C71.8444 46.0386 70.2107 45.7453 68.1729 46.0581Z" fill="white"/>
<path fill-rule="evenodd" clip-rule="evenodd" d="M85.6388 51.5323C84.7798 49.4211 82.5904 46.4888 81.0241 45.1595C80.0641 44.358 79.0872 43.6347 77.7904 43.0482C76.9146 42.6572 74.6914 41.8948 73.6135 42.0121C75.7693 42.5399 78.6662 44.5339 80.3504 45.9414C80.8556 46.3715 81.3104 46.782 81.7651 47.2316C82.843 48.2873 83.3483 48.7955 84.3925 50.0466C84.7967 50.5354 85.2683 51.0436 85.6388 51.5519" fill="white"/>
<path fill-rule="evenodd" clip-rule="evenodd" d="M62.918 80.0735H65.2759C65.3601 79.5848 65.3264 76.5547 65.2759 75.9487H62.9348V80.0735H62.918Z" fill="white"/>
<path fill-rule="evenodd" clip-rule="evenodd" d="M65.9326 80.0935H68.2568L68.2737 75.9297H65.9495L65.9326 80.0935Z" fill="white"/>
<path fill-rule="evenodd" clip-rule="evenodd" d="M71.6436 80.0545L73.9678 80.074L73.9846 75.9297H71.6604L71.6436 80.0545Z" fill="white"/>
<path fill-rule="evenodd" clip-rule="evenodd" d="M74.6396 80.074H76.9639L76.9807 75.9688L74.6565 75.9297L74.6396 80.074Z" fill="white"/>
<path d="M65.281 71.5587L62.9062 71.5654L62.9138 75.1624L65.2886 75.1556L65.281 71.5587Z" fill="white"/>
<path fill-rule="evenodd" clip-rule="evenodd" d="M71.6436 75.1467L74.0183 75.1663V71.5889L71.6436 71.5693V75.1467Z" fill="white"/>
<path d="M68.2571 71.5503H65.916V75.1668H68.2571V71.5503Z" fill="white"/>
<path fill-rule="evenodd" clip-rule="evenodd" d="M74.6582 75.1472L76.9993 75.1668V71.5894L74.6582 71.5503V75.1472Z" fill="white"/>
<path fill-rule="evenodd" clip-rule="evenodd" d="M76.055 54.5241V49.9302H73.815C73.815 50.5166 73.815 51.1031 73.7982 51.6896C73.7982 52.2369 73.7645 52.1392 74.4045 52.8234C74.5561 52.9798 74.6739 53.058 74.8087 53.2143L76.0718 54.5046L76.055 54.5241Z" fill="white"/>
<path fill-rule="evenodd" clip-rule="evenodd" d="M62.9014 70.5149V70.7886H65.2929V70.7104V68.0127H65.0572H62.9014V70.5149Z" fill="white"/>
<path fill-rule="evenodd" clip-rule="evenodd" d="M71.6436 70.7683L74.0183 70.8074V68.4421V68.0315C73.6141 68.012 71.9299 67.9533 71.6436 68.0706V70.7683Z" fill="white"/>
<path d="M74.6695 68.0185L74.6611 70.7944L77.0359 70.8041L77.0442 68.0282L74.6695 68.0185Z" fill="white"/>
<path fill-rule="evenodd" clip-rule="evenodd" d="M65.916 70.7691L68.2908 70.7886V68.0127H65.9329L65.916 70.7691Z" fill="white"/>
<path fill-rule="evenodd" clip-rule="evenodd" d="M89.1233 84.2374H92.7612C92.8117 83.8856 92.8454 82.7517 92.7275 82.5171C92.5422 82.4389 89.4601 82.4389 89.1064 82.5171V84.257L89.1233 84.2374Z" fill="white"/>
<path fill-rule="evenodd" clip-rule="evenodd" d="M47.2043 84.237C48.1812 84.237 50.0001 84.2761 50.8591 84.237V82.4777C49.7812 82.4777 48.097 82.419 47.1875 82.4972V84.237H47.2043Z" fill="white"/>
<path fill-rule="evenodd" clip-rule="evenodd" d="M82.4375 84.2374L86.1091 84.2179L86.0922 82.4585H82.4543L82.4375 82.7126V83.8856V84.2374Z" fill="white"/>
<path fill-rule="evenodd" clip-rule="evenodd" d="M53.8733 84.2374L57.5112 84.2179V82.4585L53.8564 82.478L53.8733 84.2374Z" fill="white"/>
<path fill-rule="evenodd" clip-rule="evenodd" d="M82.4561 86.3882H86.1108V84.7266H82.4561V86.3882Z" fill="white"/>
<path fill-rule="evenodd" clip-rule="evenodd" d="M53.8736 84.7266C53.8736 85.1566 53.8062 86.0363 53.9072 86.3882H57.5283V84.7266H53.8736Z" fill="white"/>
<path fill-rule="evenodd" clip-rule="evenodd" d="M47.2041 86.3882L50.8588 86.3686V84.7266H47.2041V86.3882Z" fill="white"/>
<path fill-rule="evenodd" clip-rule="evenodd" d="M82.4561 81.9898H86.1108L86.094 80.3281H82.4561V81.9898Z" fill="white"/>
<path fill-rule="evenodd" clip-rule="evenodd" d="M89.125 86.3882L92.7797 86.3686V84.7266H89.125V86.3882Z" fill="white"/>
<path fill-rule="evenodd" clip-rule="evenodd" d="M47.2041 81.9903L50.8588 81.9707L50.842 80.3286L47.2041 80.3091V81.9903Z" fill="white"/>
<path fill-rule="evenodd" clip-rule="evenodd" d="M89.1418 81.9903L92.7797 81.9707L92.7629 80.3286L89.125 80.3091L89.1418 81.9903Z" fill="white"/>
<path fill-rule="evenodd" clip-rule="evenodd" d="M53.8564 81.9898L57.528 81.9702L57.5112 80.3281H53.8564V81.9898Z" fill="white"/>
<path fill-rule="evenodd" clip-rule="evenodd" d="M51.1292 91.6466C51.2639 91.2948 51.146 90.6888 51.1965 90.2587C51.4491 90.9624 51.5334 91.197 52.0049 91.6075C52.4428 91.979 53.0323 92.0376 53.6049 91.9008C53.3018 91.5684 52.7965 91.4902 52.8976 90.7669C52.9313 90.4737 53.0828 90.3564 53.167 90.1218C53.2681 89.8677 53.3355 89.4963 53.2849 89.2812H51.1123V91.6662L51.1292 91.6466Z" fill="white"/>
<path fill-rule="evenodd" clip-rule="evenodd" d="M88.9059 89.2812H87.7269C87.7606 89.5745 87.6091 89.8091 87.4743 89.9655C87.2722 90.2196 87.1038 90.2196 86.9017 90.4151C86.2112 91.0797 87.4069 92.7023 88.4512 91.0406C88.8385 90.4151 88.8385 90.1414 88.9059 89.2812Z" fill="white"/>
<path fill-rule="evenodd" clip-rule="evenodd" d="M88.7214 65.6855C88.5699 65.9592 88.4015 66.0961 88.1993 66.3111C88.0815 66.4284 88.0141 66.5066 87.8962 66.6239C87.8457 66.6825 87.7951 66.7216 87.7446 66.7803C87.6436 66.9171 87.7109 66.7803 87.6436 66.9562H89.8499C89.6814 66.7021 89.4962 66.5066 89.2941 66.2916C89.193 66.1743 89.1257 66.0961 89.0246 65.9592C88.8899 65.7833 88.9067 65.7637 88.7214 65.6855Z" fill="white"/>
</svg>
