<svg width="42" height="42" viewBox="0 0 42 42" fill="none" xmlns="http://www.w3.org/2000/svg">
<circle cx="21" cy="21" r="21" fill="#F7974A"/>
<path d="M30 7V15C30.0006 15.7492 29.7604 16.4788 29.3147 17.0811C28.8691 17.6834 28.2417 18.1265 27.525 18.345L27.84 29H25.16L25.475 18.345C24.7583 18.1265 24.1309 17.6834 23.6853 17.0811C23.2396 16.4788 22.9994 15.7492 23 15V7C23 6.86739 23.0527 6.74021 23.1464 6.64645C23.2402 6.55268 23.3674 6.5 23.5 6.5H29.5C29.6326 6.5 29.7598 6.55268 29.8536 6.64645C29.9473 6.74021 30 6.86739 30 7Z" fill="white"/>
<path d="M27.8382 29H25.1622L25.0002 34.5C25.0002 34.7652 25.1056 35.0196 25.2931 35.2071C25.4806 35.3946 25.735 35.5 26.0002 35.5H27.0002C27.2654 35.5 27.5198 35.3946 27.7073 35.2071C27.8948 35.0196 28.0002 34.7652 28.0002 34.5L27.8382 29ZM15.0257 34.475C15.0224 34.6084 15.0458 34.7411 15.0945 34.8654C15.1433 34.9896 15.2164 35.1028 15.3096 35.1983C15.4028 35.2938 15.5142 35.3697 15.6372 35.4216C15.7601 35.4734 15.8923 35.5 16.0257 35.5H16.9757C17.1092 35.5 17.2413 35.4734 17.3642 35.4216C17.4872 35.3697 17.5986 35.2938 17.6918 35.1983C17.785 35.1028 17.8581 34.9896 17.9069 34.8654C17.9556 34.7411 17.979 34.6084 17.9757 34.475L17.8292 29H15.1712L15.0257 34.475Z" fill="white"/>
<path d="M16.5 6.5C14.0145 6.5 12 9.9625 12 13C12 15.32 13.1765 17.3 14.8395 18.107C15.0194 18.1896 15.1715 18.3227 15.2772 18.4901C15.3829 18.6575 15.4378 18.852 15.435 19.05L15.171 29H17.829L17.565 19.05C17.5627 18.8524 17.6178 18.6585 17.7235 18.4916C17.8292 18.3246 17.981 18.1919 18.1605 18.1095C19.8235 17.3 21 15.32 21 13C21 9.9625 18.9855 6.5 16.5 6.5Z" fill="white"/>
<path d="M25.5 6.5V14.5C25.5 14.6326 25.4473 14.7598 25.3536 14.8536C25.2598 14.9473 25.1326 15 25 15C24.8674 15 24.7402 14.9473 24.6464 14.8536C24.5527 14.7598 24.5 14.6326 24.5 14.5V6.5H25.5ZM28.5 6.5V14.5C28.5 14.6326 28.4473 14.7598 28.3536 14.8536C28.2598 14.9473 28.1326 15 28 15C27.8674 15 27.7402 14.9473 27.6464 14.8536C27.5527 14.7598 27.5 14.6326 27.5 14.5V6.5H28.5Z" fill="#FF9478"/>
<path d="M15.8809 29.0002H17.8309L17.7649 26.5117C17.1359 27.4242 16.4959 28.2572 15.8809 29.0002Z" fill="white"/>
<path d="M16.0258 35.5H16.9757C17.1092 35.5 17.2413 35.4734 17.3643 35.4216C17.4873 35.3697 17.5987 35.2938 17.6918 35.1983C17.785 35.1028 17.8582 34.9896 17.9069 34.8654C17.9557 34.7411 17.9791 34.6084 17.9757 34.475L17.8293 29H15.8792C15.6292 29.3 15.3847 29.589 15.1462 29.8595L15.0238 34.475C15.0204 34.6086 15.0439 34.7415 15.0928 34.8658C15.1416 34.9902 15.2149 35.1035 15.3084 35.199C15.4018 35.2946 15.5134 35.3705 15.6366 35.4221C15.7598 35.4738 15.8921 35.5003 16.0258 35.5Z" fill="white"/>
<path d="M27.7664 26.5063C27.1384 27.4203 26.4969 28.2563 25.8809 28.9998H27.8399L27.7664 26.5063Z" fill="white"/>
<path d="M26 35.5H27C27.2652 35.5 27.5196 35.3946 27.7071 35.2071C27.8946 35.0196 28 34.7652 28 34.5L27.838 29H25.881C25.6275 29.306 25.378 29.6 25.136 29.873L25 34.5C25 34.7652 25.1054 35.0196 25.2929 35.2071C25.4804 35.3946 25.7348 35.5 26 35.5Z" fill="white"/>
</svg>
