<svg width="70" height="70" viewBox="0 0 70 70" fill="none" xmlns="http://www.w3.org/2000/svg">
<rect width="70" height="70" rx="16" fill="#F7974A"/>
<path d="M44.6203 20.5172V28.7931C44.6209 29.5682 44.3724 30.3229 43.9114 30.946C43.4504 31.569 42.8013 32.0274 42.0599 32.2534L42.3858 43.2758H39.6134L39.9393 32.2534C39.1979 32.0274 38.5488 31.569 38.0878 30.946C37.6268 30.3229 37.3783 29.5682 37.3789 28.7931V20.5172C37.3789 20.3801 37.4334 20.2485 37.5304 20.1515C37.6274 20.0545 37.759 20 37.8961 20H44.103C44.2402 20 44.3718 20.0545 44.4688 20.1515C44.5658 20.2485 44.6203 20.3801 44.6203 20.5172Z" fill="white"/>
<path d="M42.3874 43.2759H39.6192L39.4516 48.9655C39.4516 49.2399 39.5606 49.503 39.7546 49.697C39.9486 49.891 40.2117 50 40.4861 50H41.5205C41.7949 50 42.058 49.891 42.252 49.697C42.446 49.503 42.555 49.2399 42.555 48.9655L42.3874 43.2759ZM29.1331 48.9397C29.1297 49.0777 29.1539 49.215 29.2043 49.3435C29.2548 49.472 29.3304 49.5891 29.4268 49.6879C29.5232 49.7868 29.6384 49.8653 29.7657 49.9189C29.8929 49.9725 30.0296 50.0001 30.1676 50H31.1504C31.2884 50.0001 31.4251 49.9725 31.5523 49.9189C31.6795 49.8653 31.7948 49.7868 31.8912 49.6879C31.9876 49.5891 32.0632 49.472 32.1137 49.3435C32.1641 49.215 32.1883 49.0777 32.1849 48.9397L32.0333 43.2759H29.2837L29.1331 48.9397Z" fill="white"/>
<path d="M30.6552 20C28.084 20 26 23.5819 26 26.7241C26 29.1241 27.2171 31.1724 28.9374 32.0072C29.1236 32.0927 29.2809 32.2304 29.3902 32.4036C29.4996 32.5767 29.5563 32.778 29.5534 32.9828L29.2803 43.2758H32.03L31.7569 32.9828C31.7546 32.7784 31.8115 32.5777 31.9208 32.4051C32.0302 32.2324 32.1872 32.0951 32.3729 32.0098C34.0933 31.1724 35.3103 29.1241 35.3103 26.7241C35.3103 23.5819 33.2264 20 30.6552 20Z" fill="white"/>
<path d="M39.9642 20V28.2759C39.9642 28.413 39.9097 28.5446 39.8127 28.6416C39.7157 28.7386 39.5841 28.7931 39.4469 28.7931C39.3097 28.7931 39.1782 28.7386 39.0812 28.6416C38.9842 28.5446 38.9297 28.413 38.9297 28.2759V20H39.9642ZM43.0676 20V28.2759C43.0676 28.413 43.0131 28.5446 42.9161 28.6416C42.8191 28.7386 42.6876 28.7931 42.5504 28.7931C42.4132 28.7931 42.2816 28.7386 42.1846 28.6416C42.0876 28.5446 42.0331 28.413 42.0331 28.2759V20H43.0676Z" fill="#FF9478"/>
<path d="M30.0137 43.2765H32.0309L31.9626 40.7021C31.3119 41.6461 30.6499 42.5078 30.0137 43.2765Z" fill="white"/>
<path d="M30.1677 50H31.1505C31.2885 50.0001 31.4252 49.9725 31.5524 49.9189C31.6797 49.8653 31.7949 49.7868 31.8913 49.6879C31.9877 49.5891 32.0633 49.472 32.1138 49.3435C32.1642 49.215 32.1884 49.0777 32.185 48.9397L32.0334 43.2759H30.0162C29.7576 43.5862 29.5046 43.8852 29.2579 44.165L29.1312 48.9397C29.1277 49.0779 29.152 49.2153 29.2026 49.344C29.2531 49.4726 29.329 49.5898 29.4256 49.6887C29.5222 49.7875 29.6377 49.866 29.7651 49.9195C29.8926 49.9729 30.0295 50.0003 30.1677 50Z" fill="white"/>
<path d="M42.3118 40.6961C41.6622 41.6416 40.9986 42.5064 40.3613 43.2756H42.3879L42.3118 40.6961Z" fill="white"/>
<path d="M40.4817 50H41.5162C41.7906 50 42.0537 49.891 42.2477 49.697C42.4417 49.503 42.5507 49.2398 42.5507 48.9655L42.3831 43.2758H40.3586C40.0964 43.5924 39.8383 43.8965 39.588 44.1789L39.4473 48.9655C39.4473 49.2398 39.5563 49.503 39.7503 49.697C39.9443 49.891 40.2074 50 40.4817 50Z" fill="white"/>
</svg>
