<svg width="140" height="140" viewBox="0 0 140 140" fill="none" xmlns="http://www.w3.org/2000/svg">
<rect width="140" height="140" rx="16" fill="#F47721"/>
<path d="M89.2406 41.0345V57.5862C89.2419 59.1363 88.7448 60.6458 87.8228 61.8919C86.9008 63.1381 85.6026 64.0548 84.1199 64.5069L84.7716 86.5517H79.2268L79.8785 64.5069C78.3958 64.0548 77.0976 63.1381 76.1756 61.8919C75.2536 60.6458 74.7565 59.1363 74.7578 57.5862V41.0345C74.7578 40.7601 74.8668 40.497 75.0608 40.303C75.2548 40.109 75.5179 40 75.7923 40H88.2061C88.4804 40 88.7436 40.109 88.9376 40.303C89.1316 40.497 89.2406 40.7601 89.2406 41.0345Z" fill="white"/>
<path d="M84.7749 86.5518H79.2383L78.9032 97.9311C78.9032 98.4798 79.1211 99.006 79.5091 99.394C79.8972 99.782 80.4234 100 80.9721 100H83.0411C83.5898 100 84.1161 99.782 84.5041 99.394C84.8921 99.006 85.1101 98.4798 85.1101 97.9311L84.7749 86.5518ZM58.2663 97.8793C58.2594 98.1554 58.3078 98.43 58.4087 98.687C58.5095 98.944 58.6608 99.1782 58.8537 99.3759C59.0465 99.5735 59.2769 99.7305 59.5313 99.8377C59.7858 99.9449 60.0591 100 60.3352 100H62.3008C62.5769 100 62.8502 99.9449 63.1046 99.8377C63.3591 99.7305 63.5895 99.5735 63.7823 99.3759C63.9751 99.1782 64.1264 98.944 64.2273 98.687C64.3282 98.43 64.3766 98.1554 64.3697 97.8793L64.0666 86.5518H58.5673L58.2663 97.8793Z" fill="white"/>
<path d="M61.3103 40C56.1679 40 52 47.1638 52 53.4483C52 58.2483 54.4341 62.3448 57.8748 64.0145C58.2471 64.1854 58.5617 64.4607 58.7805 64.8071C58.9992 65.1535 59.1126 65.5559 59.1069 65.9655L58.5607 86.5517H64.06L63.5138 65.9655C63.5091 65.5568 63.623 65.1555 63.8417 64.8101C64.0603 64.4648 64.3744 64.1902 64.7459 64.0196C68.1865 62.3448 70.6207 58.2483 70.6207 53.4483C70.6207 47.1638 66.4528 40 61.3103 40Z" fill="white"/>
<path d="M79.9283 40V56.5517C79.9283 56.8261 79.8194 57.0892 79.6253 57.2832C79.4313 57.4772 79.1682 57.5862 78.8939 57.5862C78.6195 57.5862 78.3564 57.4772 78.1624 57.2832C77.9684 57.0892 77.8594 56.8261 77.8594 56.5517V40H79.9283ZM86.1352 40V56.5517C86.1352 56.8261 86.0262 57.0892 85.8322 57.2832C85.6382 57.4772 85.3751 57.5862 85.1008 57.5862C84.8264 57.5862 84.5633 57.4772 84.3693 57.2832C84.1753 57.0892 84.0663 56.8261 84.0663 56.5517V40H86.1352Z" fill="#FF9478"/>
<path d="M60.0273 86.5529H64.0618L63.9253 81.4043C62.6239 83.2922 61.2998 85.0157 60.0273 86.5529Z" fill="white"/>
<path d="M60.3355 100H62.301C62.5771 100 62.8504 99.9449 63.1049 99.8377C63.3593 99.7305 63.5897 99.5735 63.7826 99.3759C63.9754 99.1782 64.1267 98.944 64.2276 98.687C64.3284 98.43 64.3769 98.1554 64.3699 97.8793L64.0668 86.5518H60.0324C59.5151 87.1724 59.0093 87.7704 58.5158 88.33L58.2624 97.8793C58.2555 98.1557 58.304 98.4307 58.4051 98.688C58.5063 98.9452 58.6579 99.1797 58.8512 99.3774C59.0445 99.575 59.2754 99.732 59.5303 99.8389C59.7852 99.9459 60.059 100.001 60.3355 100Z" fill="white"/>
<path d="M84.6237 81.3921C83.3244 83.2831 81.9971 85.0128 80.7227 86.5511H84.7758L84.6237 81.3921Z" fill="white"/>
<path d="M80.9635 100H83.0325C83.5812 100 84.1074 99.782 84.4954 99.394C84.8834 99.006 85.1014 98.4798 85.1014 97.9311L84.7663 86.5518H80.7173C80.1928 87.1849 79.6766 87.7931 79.1759 88.358L78.8945 97.9311C78.8945 98.4798 79.1125 99.006 79.5005 99.394C79.8885 99.782 80.4148 100 80.9635 100Z" fill="white"/>
</svg>
