<svg width="70" height="70" viewBox="0 0 70 70" fill="none" xmlns="http://www.w3.org/2000/svg">
<rect width="70" height="70" rx="16" fill="#194DBD"/>
<path d="M44.8516 36.6978L45.6892 37.2441C46.4176 37.7175 47.1824 38.2638 47.8379 38.8101C48.4206 38.5187 48.9305 38.1181 49.4403 37.6811L46.3083 34.5491C45.7256 35.2046 45.2522 35.8966 44.8516 36.6978Z" fill="white"/>
<path d="M43.5403 31.7444L40.5903 34.6579C41.6829 35.0221 42.739 35.532 43.868 36.1147C44.3051 35.2406 44.8513 34.4394 45.5433 33.711L43.5403 31.7444Z" fill="white"/>
<path d="M37.0943 31.1254C37.0578 32.0723 36.9122 32.9828 36.6572 33.8204C37.5313 33.8933 38.4053 34.039 39.3158 34.2939L42.7028 30.9069L40.7361 28.9403C39.6436 29.8872 38.4053 30.6156 37.0943 31.1254Z" fill="white"/>
<path d="M47.1455 33.7113L50.2775 36.8433C51.6979 35.2409 52.4263 33.2378 52.4991 31.2348C50.5325 31.4897 48.6751 32.3638 47.1455 33.7113Z" fill="white"/>
<path d="M43.1759 21.875C41.1729 21.9478 39.1698 22.7126 37.5674 24.0966L40.6994 27.2286C42.0469 25.7718 42.921 23.878 43.1759 21.875Z" fill="white"/>
<path d="M46.3443 32.8735C48.0925 31.3075 50.2412 30.3242 52.5356 30.0693C52.3535 28.2119 51.6251 26.4274 50.314 24.9342L44.3413 30.9069L46.3443 32.8735Z" fill="white"/>
<path d="M39.8987 28.1029L36.7666 24.9708C36.4389 25.335 36.1475 25.7356 35.8926 26.1362C36.5117 27.3016 36.9123 28.5763 37.058 29.9238C38.0777 29.4504 39.0246 28.8676 39.8987 28.1029Z" fill="white"/>
<path d="M43.5401 30.0695L49.4764 24.1332C47.9833 22.8222 46.1987 22.0938 44.3414 21.9117C44.0864 24.2061 43.1031 26.3548 41.5371 28.1029L43.5401 30.0695Z" fill="white"/>
<path d="M24.2016 35.5685L25.6583 33.5655H28.2076L29.3002 35.0586C29.628 34.913 29.9922 34.8037 30.3199 34.658L29.0453 32.9099L29.8101 30.5063L32.2137 29.7051L34.3624 31.2711C34.3988 31.3075 34.4353 31.3075 34.4717 31.3439C34.3988 32.218 34.2168 33.0556 33.889 33.8204C34.3988 33.7476 34.9087 33.7476 35.3822 33.7476H35.4186C35.7099 32.8371 35.892 31.8902 35.892 30.8705C35.892 25.9175 31.8495 21.875 26.8966 21.875C21.9436 21.875 17.9375 25.9175 17.9375 30.9069C17.9375 34.4031 19.9405 37.4259 22.8541 38.9191C22.8905 38.8826 22.9269 38.8462 22.9633 38.8098C23.546 38.3363 24.1651 37.8993 24.7843 37.4623L24.2016 35.5685ZM27.4793 25.4805L29.628 23.9145C29.6644 23.878 29.7008 23.8416 29.7008 23.8052C30.9026 24.2786 31.9588 25.0434 32.76 26.0268C32.7236 26.0632 32.7236 26.0996 32.6872 26.136L31.8495 28.6853L29.4095 29.4866L27.4064 28.0298V25.4805H27.4793ZM24.1651 23.8416C24.2016 23.878 24.238 23.9145 24.2744 23.9509L26.4231 25.5169V28.0662L24.4201 29.523L21.98 28.7218L21.1424 26.1724C21.1424 26.136 21.1059 26.0996 21.0695 26.0632C21.9072 25.0799 22.9633 24.3151 24.1651 23.8416ZM20.6689 34.9494C20.6325 34.9494 20.5961 34.9494 20.5597 34.9858C19.8677 33.9297 19.4671 32.6914 19.3943 31.3803C19.4307 31.3803 19.4671 31.3439 19.5035 31.3075L21.6522 29.7415L24.0559 30.5427L24.8207 32.9463L23.3275 34.9858H20.6689V34.9494Z" fill="white"/>
<path d="M23 41.177C23 41.7597 23.2549 42.2695 23.692 42.6337C24.2382 43.0707 24.9666 43.617 25.7678 44.1633V38.1906C24.9666 38.7369 24.2382 39.2468 23.692 39.7202C23.2549 40.048 23 40.5943 23 41.177Z" fill="white"/>
<path d="M27.0791 37.3895V44.9282C29.3735 46.2393 32.287 47.4047 35.419 47.4047C38.5511 47.4047 41.4646 46.2393 43.759 44.9282V37.3895C41.4646 36.0784 38.5511 34.913 35.419 34.913C32.287 34.913 29.3735 36.0784 27.0791 37.3895ZM36.0746 39.2105V40.5215H37.7134V39.6839C37.7134 39.3197 38.0048 39.0284 38.369 39.0284C38.7332 39.0284 39.0245 39.3197 39.0245 39.6839V40.5215H40.5541C40.9183 40.5215 41.2096 40.8129 41.2096 41.1771C41.2096 41.5413 40.9183 41.8326 40.5541 41.8326H39.0245V42.6703C39.0245 43.0344 38.7332 43.3258 38.369 43.3258C38.0048 43.3258 37.7134 43.0344 37.7134 42.6703V41.8326H36.0746V43.1437C36.0746 43.5079 35.7832 43.7992 35.419 43.7992C35.0548 43.7992 34.7635 43.5079 34.7635 43.1437V41.8326H33.1246V42.6703C33.1246 43.0344 32.8333 43.3258 32.4691 43.3258C32.1049 43.3258 31.8136 43.0344 31.8136 42.6703V41.8326H30.284C29.9198 41.8326 29.6284 41.5413 29.6284 41.1771C29.6284 40.8129 29.9198 40.5215 30.284 40.5215H31.8136V39.6839C31.8136 39.3197 32.1049 39.0284 32.4691 39.0284C32.8333 39.0284 33.1246 39.3197 33.1246 39.6839V40.5215H34.7635V39.2105C34.7635 38.8463 35.0548 38.5549 35.419 38.5549C35.7832 38.5549 36.0746 38.8463 36.0746 39.2105Z" fill="white"/>
<path d="M45.0693 38.1906V44.1633C45.8706 43.617 46.5989 43.1072 47.1452 42.6337C47.5822 42.2695 47.8372 41.7232 47.8372 41.177C47.8372 40.6307 47.5822 40.0844 47.1452 39.7202C46.5625 39.2468 45.8706 38.7369 45.0693 38.1906Z" fill="white"/>
</svg>
