<svg width="140" height="140" viewBox="0 0 140 140" fill="none" xmlns="http://www.w3.org/2000/svg">
<rect width="140" height="140" rx="16" fill="#194DBD"/>
<path d="M89.7031 73.3956L91.3784 74.4881C92.8351 75.435 94.3647 76.5276 95.6758 77.6202C96.8412 77.0375 97.861 76.2362 98.8807 75.3622L92.6166 69.0981C91.4512 70.4092 90.5043 71.7931 89.7031 73.3956Z" fill="white"/>
<path d="M87.0808 63.4888L81.1809 69.3158C83.366 70.0442 85.4783 71.0639 87.7363 72.2293C88.6104 70.4812 89.7029 68.8788 91.0869 67.422L87.0808 63.4888Z" fill="white"/>
<path d="M74.1883 62.2506C74.1154 64.1444 73.8241 65.9654 73.3142 67.6406C75.0623 67.7863 76.8104 68.0777 78.6314 68.5875L85.4053 61.8136L81.472 57.8804C79.2869 59.7742 76.8104 61.2309 74.1883 62.2506Z" fill="white"/>
<path d="M94.291 67.4227L100.555 73.6868C103.396 70.4819 104.853 66.4758 104.998 62.4697C101.065 62.9796 97.3502 64.7277 94.291 67.4227Z" fill="white"/>
<path d="M86.3518 43.75C82.3457 43.8957 78.3396 45.4253 75.1348 48.1931L81.3988 54.4572C84.0938 51.5436 85.8419 47.7561 86.3518 43.75Z" fill="white"/>
<path d="M92.6887 65.7468C96.1849 62.6148 100.482 60.6482 105.071 60.1383C104.707 56.4236 103.25 52.8545 100.628 49.8682L88.6826 61.8136L92.6887 65.7468Z" fill="white"/>
<path d="M79.7971 56.2059L73.533 49.9419C72.8775 50.6703 72.2948 51.4715 71.7849 52.2727C73.0232 54.6035 73.8244 57.1528 74.1157 59.8478C76.1552 58.9009 78.049 57.7355 79.7971 56.2059Z" fill="white"/>
<path d="M87.0808 60.1389L98.9533 48.2663C95.967 45.6442 92.3979 44.1874 88.6832 43.8232C88.1734 48.412 86.2067 52.7095 83.0747 56.2057L87.0808 60.1389Z" fill="white"/>
<path d="M48.4031 71.137L51.3166 67.1309H56.4153L58.6004 70.1173C59.2559 69.8259 59.9843 69.6074 60.6399 69.3161L58.0905 65.8199L59.6201 61.0126L64.4274 59.4101L68.7249 62.5422C68.7977 62.615 68.8705 62.615 68.9434 62.6878C68.7977 64.4359 68.4335 66.1112 67.778 67.6408C68.7977 67.4951 69.8174 67.4951 70.7643 67.4951H70.8372C71.4199 65.6742 71.784 63.7804 71.784 61.7409C71.784 51.835 63.699 43.75 53.7931 43.75C43.8872 43.75 35.875 51.835 35.875 61.8138C35.875 68.8062 39.8811 74.8518 45.7081 77.8381C45.7809 77.7653 45.8538 77.6924 45.9266 77.6196C47.092 76.6727 48.3303 75.7986 49.5685 74.9246L48.4031 71.137ZM54.9585 50.9609L59.2559 47.8289C59.3288 47.7561 59.4016 47.6832 59.4016 47.6104C61.8053 48.5573 63.9176 50.0869 65.52 52.0535C65.4472 52.1263 65.4472 52.1992 65.3743 52.272L63.699 57.3707L58.8189 58.9731L54.8128 56.0596V50.9609H54.9585ZM48.3303 47.6832C48.4031 47.7561 48.4759 47.8289 48.5488 47.9018L52.8462 51.0338V56.1324L48.8401 59.0459L43.96 57.4435L42.2847 52.3449C42.2847 52.272 42.2119 52.1992 42.1391 52.1263C43.8143 50.1597 45.9266 48.6301 48.3303 47.6832ZM41.3378 69.8988C41.265 69.8988 41.1922 69.8988 41.1193 69.9716C39.7354 67.8593 38.9342 65.3828 38.7885 62.7607C38.8614 62.7607 38.9342 62.6878 39.007 62.615L43.3045 59.483L48.1118 61.0854L49.6413 65.8927L46.655 69.9716H41.3378V69.8988Z" fill="white"/>
<path d="M46 82.354C46 83.5195 46.5099 84.5392 47.3839 85.2676C48.4765 86.1416 49.9332 87.2342 51.5357 88.3267V76.3813C49.9332 77.4739 48.4765 78.4936 47.3839 79.4405C46.5099 80.0961 46 81.1886 46 82.354Z" fill="white"/>
<path d="M54.1577 74.7791V89.8566C58.7465 92.4787 64.5735 94.8095 70.8376 94.8095C77.1016 94.8095 82.9287 92.4787 87.5174 89.8566V74.7791C82.9287 72.157 77.1016 69.8262 70.8376 69.8262C64.5735 69.8262 58.7465 72.157 54.1577 74.7791ZM72.1487 78.421V81.0432H75.4264V79.3679C75.4264 78.6395 76.0091 78.0568 76.7374 78.0568C77.4658 78.0568 78.0485 78.6395 78.0485 79.3679V81.0432H81.1077C81.8361 81.0432 82.4188 81.6259 82.4188 82.3543C82.4188 83.0827 81.8361 83.6654 81.1077 83.6654H78.0485V85.3406C78.0485 86.069 77.4658 86.6517 76.7374 86.6517C76.0091 86.6517 75.4264 86.069 75.4264 85.3406V83.6654H72.1487V86.2875C72.1487 87.0159 71.566 87.5986 70.8376 87.5986C70.1092 87.5986 69.5265 87.0159 69.5265 86.2875V83.6654H66.2488V85.3406C66.2488 86.069 65.6661 86.6517 64.9377 86.6517C64.2093 86.6517 63.6266 86.069 63.6266 85.3406V83.6654H60.5674C59.8391 83.6654 59.2564 83.0827 59.2564 82.3543C59.2564 81.6259 59.8391 81.0432 60.5674 81.0432H63.6266V79.3679C63.6266 78.6395 64.2093 78.0568 64.9377 78.0568C65.6661 78.0568 66.2488 78.6395 66.2488 79.3679V81.0432H69.5265V78.421C69.5265 77.6927 70.1092 77.11 70.8376 77.11C71.566 77.11 72.1487 77.6927 72.1487 78.421Z" fill="white"/>
<path d="M90.1389 76.3813V88.3267C91.7413 87.2342 93.1981 86.2145 94.2907 85.2676C95.1647 84.5392 95.6746 83.4466 95.6746 82.354C95.6746 81.2615 95.1647 80.1689 94.2907 79.4405C93.1253 78.4936 91.7413 77.4739 90.1389 76.3813Z" fill="white"/>
</svg>
