<svg width="40" height="40" viewBox="0 0 40 40" fill="none" xmlns="http://www.w3.org/2000/svg">
<circle cx="20" cy="20" r="20" fill="#A06000"/>
<path d="M27.5059 21.2934L28.1441 21.7096C28.699 22.0703 29.2817 22.4865 29.7812 22.9027C30.2251 22.6808 30.6136 22.3755 31.0021 22.0426L28.6158 19.6562C28.1718 20.1557 27.8111 20.6829 27.5059 21.2934Z" fill="white"/>
<path d="M26.5073 17.5195L24.2598 19.7394C25.0922 20.0168 25.8969 20.4053 26.7571 20.8493C27.09 20.1833 27.5063 19.5729 28.0335 19.0179L26.5073 17.5195Z" fill="white"/>
<path d="M21.5957 17.0482C21.5679 17.7696 21.4569 18.4633 21.2627 19.1015C21.9286 19.157 22.5946 19.268 23.2883 19.4622L25.8688 16.8817L24.3704 15.3833C23.538 16.1047 22.5946 16.6597 21.5957 17.0482Z" fill="white"/>
<path d="M29.2539 19.0182L31.6402 21.4045C32.7224 20.1836 33.2773 18.6575 33.3328 17.1313C31.8344 17.3256 30.4193 17.9915 29.2539 19.0182Z" fill="white"/>
<path d="M26.2292 10C24.7031 10.0555 23.177 10.6382 21.9561 11.6926L24.3424 14.0789C25.369 12.969 26.035 11.5261 26.2292 10Z" fill="white"/>
<path d="M28.6433 18.3796C29.9752 17.1864 31.6123 16.4372 33.3604 16.243C33.2217 14.8279 32.6667 13.4682 31.6678 12.3306L27.1172 16.8812L28.6433 18.3796Z" fill="white"/>
<path d="M23.7319 14.7452L21.3456 12.3589C21.0959 12.6364 20.8739 12.9416 20.6797 13.2468C21.1514 14.1347 21.4566 15.1059 21.5676 16.1326C22.3446 15.7719 23.066 15.3279 23.7319 14.7452Z" fill="white"/>
<path d="M26.5066 16.2433L31.0295 11.7204C29.8918 10.7215 28.5322 10.1666 27.117 10.0278C26.9228 11.7759 26.1736 13.4131 24.9805 14.7449L26.5066 16.2433Z" fill="white"/>
<path d="M11.7726 20.4331L12.8825 18.907H14.8249L15.6573 20.0447C15.907 19.9337 16.1845 19.8504 16.4342 19.7395L15.4631 18.4076L16.0458 16.5762L17.8771 15.9658L19.5142 17.1589C19.542 17.1867 19.5697 17.1867 19.5975 17.2144C19.542 17.8804 19.4032 18.5186 19.1535 19.1013C19.542 19.0458 19.9304 19.0458 20.2912 19.0458H20.3189C20.5409 18.3521 20.6796 17.6306 20.6796 16.8537C20.6796 13.08 17.5996 10 13.8259 10C10.0523 10 7 13.08 7 16.8814C7 19.5452 8.52613 21.8483 10.7459 22.9859C10.7737 22.9582 10.8014 22.9304 10.8292 22.9027C11.2732 22.542 11.7449 22.209 12.2166 21.876L11.7726 20.4331ZM14.2699 12.747L15.907 11.5539C15.9348 11.5261 15.9625 11.4984 15.9625 11.4706C16.8782 11.8314 17.6829 12.4141 18.2933 13.1632C18.2656 13.191 18.2656 13.2187 18.2378 13.2465L17.5996 15.1888L15.7405 15.7993L14.2144 14.6894V12.747H14.2699ZM11.7449 11.4984C11.7726 11.5261 11.8004 11.5539 11.8281 11.5816L13.4652 12.7748V14.7171L11.9391 15.827L10.08 15.2166L9.4418 13.2742C9.4418 13.2465 9.41405 13.2187 9.38631 13.191C10.0245 12.4418 10.8292 11.8591 11.7449 11.4984ZM9.08108 19.9614C9.05333 19.9614 9.02558 19.9614 8.99784 19.9892C8.47063 19.1845 8.16541 18.2411 8.10991 17.2422C8.13766 17.2422 8.16541 17.2144 8.19315 17.1867L9.83027 15.9935L11.6616 16.604L12.2443 18.4353L11.1067 19.9892H9.08108V19.9614Z" fill="white"/>
<path d="M10.8574 24.7065C10.8574 25.1504 11.0517 25.5389 11.3846 25.8164C11.8008 26.1493 12.3558 26.5656 12.9663 26.9818V22.4312C12.3558 22.8474 11.8008 23.2358 11.3846 23.5966C11.0517 23.8463 10.8574 24.2625 10.8574 24.7065Z" fill="white"/>
<path d="M13.9648 21.8204V27.5642C15.713 28.5631 17.9328 29.4511 20.3191 29.4511C22.7054 29.4511 24.9252 28.5631 26.6733 27.5642V21.8204C24.9252 20.8215 22.7054 19.9336 20.3191 19.9336C17.9328 19.9336 15.713 20.8215 13.9648 21.8204ZM20.8185 23.2078V24.2067H22.0672V23.5685C22.0672 23.2911 22.2892 23.0691 22.5666 23.0691C22.8441 23.0691 23.0661 23.2911 23.0661 23.5685V24.2067H24.2315C24.509 24.2067 24.731 24.4287 24.731 24.7062C24.731 24.9837 24.509 25.2057 24.2315 25.2057H23.0661V25.8439C23.0661 26.1213 22.8441 26.3433 22.5666 26.3433C22.2892 26.3433 22.0672 26.1213 22.0672 25.8439V25.2057H20.8185V26.2046C20.8185 26.4821 20.5966 26.704 20.3191 26.704C20.0416 26.704 19.8196 26.4821 19.8196 26.2046V25.2057H18.571V25.8439C18.571 26.1213 18.349 26.3433 18.0715 26.3433C17.794 26.3433 17.572 26.1213 17.572 25.8439V25.2057H16.4066C16.1292 25.2057 15.9072 24.9837 15.9072 24.7062C15.9072 24.4287 16.1292 24.2067 16.4066 24.2067H17.572V23.5685C17.572 23.2911 17.794 23.0691 18.0715 23.0691C18.349 23.0691 18.571 23.2911 18.571 23.5685V24.2067H19.8196V23.2078C19.8196 22.9303 20.0416 22.7084 20.3191 22.7084C20.5966 22.7084 20.8185 22.9303 20.8185 23.2078Z" fill="white"/>
<path d="M27.6719 22.4312V26.9818C28.2823 26.5656 28.8373 26.1771 29.2535 25.8164C29.5865 25.5389 29.7807 25.1227 29.7807 24.7065C29.7807 24.2903 29.5865 23.874 29.2535 23.5966C28.8095 23.2358 28.2823 22.8474 27.6719 22.4312Z" fill="white"/>
</svg>
