<?xml version="1.0" encoding="UTF-8"?>
<!DOCTYPE svg PUBLIC "-//W3C//DTD SVG 1.1//EN" "http://www.w3.org/Graphics/SVG/1.1/DTD/svg11.dtd">
<svg xmlns="http://www.w3.org/2000/svg" version="1.1" width="500px" height="500px" style="shape-rendering:geometricPrecision; text-rendering:geometricPrecision; image-rendering:optimizeQuality; fill-rule:evenodd; clip-rule:evenodd" xmlns:xlink="http://www.w3.org/1999/xlink">
<g><path style="opacity:1" fill="#fefefe" d="M -0.5,-0.5 C 166.167,-0.5 332.833,-0.5 499.5,-0.5C 499.5,63.1667 499.5,126.833 499.5,190.5C 497.315,188.053 494.982,185.553 492.5,183C 489.448,181.065 486.115,179.732 482.5,179C 469.838,178.5 457.171,178.333 444.5,178.5C 426.778,129.6 395.112,92.4331 349.5,67C 282.814,33.1643 216.147,33.1643 149.5,67C 111.461,89.0383 82.2945,119.538 62,158.5C 59.2087,165.078 56.7087,171.745 54.5,178.5C 41.1625,178.333 27.8292,178.5 14.5,179C 7.2382,180.76 2.90487,185.26 1.5,192.5C 0.833333,192.5 0.166667,192.5 -0.5,192.5C -0.5,128.167 -0.5,63.8333 -0.5,-0.5 Z"/></g>
<g><path style="opacity:1" fill="#d10307" d="M 444.5,178.5 C 416.167,178.5 387.833,178.5 359.5,178.5C 333.229,139.605 296.395,119.605 249,118.5C 208.02,119.493 174.353,135.493 148,166.5C 144.911,170.354 142.078,174.354 139.5,178.5C 111.167,178.5 82.8333,178.5 54.5,178.5C 56.7087,171.745 59.2087,165.078 62,158.5C 82.2945,119.538 111.461,89.0383 149.5,67C 216.147,33.1643 282.814,33.1643 349.5,67C 395.112,92.4331 426.778,129.6 444.5,178.5 Z"/></g>
<g><path style="opacity:1" fill="#fefdfd" d="M 359.5,178.5 C 286.167,178.5 212.833,178.5 139.5,178.5C 142.078,174.354 144.911,170.354 148,166.5C 174.353,135.493 208.02,119.493 249,118.5C 296.395,119.605 333.229,139.605 359.5,178.5 Z"/></g>
<g><path style="opacity:1" fill="#123b80" d="M 54.5,178.5 C 82.8333,178.5 111.167,178.5 139.5,178.5C 212.833,178.5 286.167,178.5 359.5,178.5C 387.833,178.5 416.167,178.5 444.5,178.5C 457.171,178.333 469.838,178.5 482.5,179C 486.115,179.732 489.448,181.065 492.5,183C 494.982,185.553 497.315,188.053 499.5,190.5C 499.5,228.5 499.5,266.5 499.5,304.5C 497.824,305.183 497.157,306.517 497.5,308.5C 495.215,314.617 490.882,318.45 484.5,320C 471.171,320.5 457.837,320.667 444.5,320.5C 416.167,320.5 387.833,320.5 359.5,320.5C 286.167,320.5 212.833,320.5 139.5,320.5C 111.167,320.5 82.8333,320.5 54.5,320.5C 41.1625,320.667 27.8292,320.5 14.5,320C 7.2382,318.24 2.90487,313.74 1.5,306.5C 1.5,268.5 1.5,230.5 1.5,192.5C 2.90487,185.26 7.2382,180.76 14.5,179C 27.8292,178.5 41.1625,178.333 54.5,178.5 Z"/></g>
<g><path style="opacity:1" fill="#042f7b" d="M 141.5,179.5 C 215.167,179.333 288.834,179.5 362.5,180C 291.133,181.181 219.633,182.015 148,182.5C 144.765,182.418 141.598,181.918 138.5,181C 139.737,180.768 140.737,180.268 141.5,179.5 Z"/></g>
<g><path style="opacity:1" fill="#3a568f" d="M -0.5,192.5 C 0.166667,192.5 0.833333,192.5 1.5,192.5C 1.5,230.5 1.5,268.5 1.5,306.5C 0.833333,306.833 0.166667,307.167 -0.5,307.5C -0.5,269.167 -0.5,230.833 -0.5,192.5 Z"/></g>
<g><path style="opacity:1" fill="#8a8da7" d="M 499.5,304.5 C 499.5,305.833 499.5,307.167 499.5,308.5C 498.833,308.5 498.167,308.5 497.5,308.5C 497.157,306.517 497.824,305.183 499.5,304.5 Z"/></g>
<g><path style="opacity:1" fill="#fefefe" d="M 1.5,306.5 C 2.90487,313.74 7.2382,318.24 14.5,320C 27.8292,320.5 41.1625,320.667 54.5,320.5C 82.7828,393.283 135.116,437.783 211.5,454C 295.08,466.266 363.247,439.766 416,374.5C 428.388,358.06 437.888,340.06 444.5,320.5C 457.837,320.667 471.171,320.5 484.5,320C 490.882,318.45 495.215,314.617 497.5,308.5C 498.167,308.5 498.833,308.5 499.5,308.5C 499.5,372.167 499.5,435.833 499.5,499.5C 332.833,499.5 166.167,499.5 -0.5,499.5C -0.5,435.5 -0.5,371.5 -0.5,307.5C 0.166667,307.167 0.833333,306.833 1.5,306.5 Z"/></g>
<g><path style="opacity:1" fill="#d10307" d="M 54.5,320.5 C 82.8333,320.5 111.167,320.5 139.5,320.5C 175.427,370.762 223.76,389.262 284.5,376C 316.372,366.736 341.372,348.236 359.5,320.5C 387.833,320.5 416.167,320.5 444.5,320.5C 437.888,340.06 428.388,358.06 416,374.5C 363.247,439.766 295.08,466.266 211.5,454C 135.116,437.783 82.7828,393.283 54.5,320.5 Z"/></g>
<g><path style="opacity:1" fill="#fefdfd" d="M 139.5,320.5 C 212.833,320.5 286.167,320.5 359.5,320.5C 341.372,348.236 316.372,366.736 284.5,376C 223.76,389.262 175.427,370.762 139.5,320.5 Z"/></g>
</svg>
