<svg width="29" height="45" viewBox="0 0 29 45" fill="none" xmlns="http://www.w3.org/2000/svg">
<path d="M21.478 14.3683C21.478 18.3345 18.2321 21.5522 14.2281 21.5522C10.2236 21.5522 6.97825 18.3345 6.97825 14.3683C6.97825 10.4009 10.2241 7.18427 14.2281 7.18427C18.2329 7.18399 21.478 10.4006 21.478 14.3683ZM29 14.3683C29 6.43274 22.5085 0 14.5 0C6.49204 0 0 6.43274 0 14.3683C0 17.8573 1.25628 21.0563 3.34392 23.5447L14.5125 39.5125L25.8445 23.3118C26.2515 22.8071 26.6242 22.2751 26.9605 21.7159L27.0751 21.5531H27.0563C28.2904 19.4384 29 16.9866 29 14.3683Z" fill="url(#paint0_linear_163_241)"/>
<path d="M21.2208 14.3792C21.2208 18.2485 18.0687 21.3876 14.1804 21.3876C10.2915 21.3876 7.13996 18.2485 7.13996 14.3792C7.13996 10.5089 10.2921 7.37091 14.1804 7.37091C18.0695 7.37064 21.2208 10.5086 21.2208 14.3792ZM28.5256 14.3792C28.5256 6.63775 22.2216 0.362305 14.4444 0.362305C6.66779 0.362305 0.363281 6.63775 0.363281 14.3792C0.363281 17.7829 1.58328 20.9038 3.61061 23.3313L14.4566 38.9087L25.4612 23.1041C25.8564 22.6117 26.2184 22.0928 26.545 21.5473L26.6563 21.3884H26.638C27.8364 19.3254 28.5256 16.9335 28.5256 14.3792Z" fill="url(#paint1_linear_163_241)"/>
<circle cx="14.5016" cy="14.5003" r="11.9625" fill="url(#paint2_linear_163_241)"/>
<circle cx="14.4719" cy="14.4703" r="11.2077" fill="url(#paint3_linear_163_241)"/>
<circle cx="14.5024" cy="14.5007" r="10.875" fill="url(#paint4_linear_163_241)"/>
<path d="M17.7352 14.1671H20.3671C20.452 14.1671 20.5217 14.0975 20.5217 14.0125V12.5137C20.5217 12.4287 20.452 12.3591 20.3671 12.3591H17.7352C17.6503 12.3591 17.5806 12.4287 17.5806 12.5137V14.0125C17.5806 14.0975 17.6503 14.1671 17.7352 14.1671Z" fill="#FF6B83"/>
<path d="M17.0309 14.0125V12.5137C17.0309 12.4287 16.9614 12.3591 16.8763 12.3591H14.2449C14.1599 12.3591 14.0903 12.4287 14.0903 12.5137V14.0125C14.0903 14.0975 14.1599 14.1671 14.2449 14.1671H16.8763C16.9613 14.1671 17.0309 14.0975 17.0309 14.0125Z" fill="#FF6B83"/>
<path d="M16.1826 17.8922V18.3282V18.5632H18.3517V18.3282V17.8922V17.2736H16.1826V17.8922ZM16.8506 17.61H17.6846V18.2319H16.8506V17.61Z" fill="#FF6B83"/>
<path d="M17.2991 10.3174C17.4883 10.3174 17.6417 10.164 17.6417 9.97478C17.6417 9.78558 17.4883 9.6322 17.2991 9.6322C17.1099 9.6322 16.9565 9.78558 16.9565 9.97478C16.9565 10.164 17.1099 10.3174 17.2991 10.3174Z" fill="#FF6B83"/>
<path d="M19.2925 16.6168C19.4729 16.6168 19.6191 16.4706 19.6191 16.2902C19.6191 16.1097 19.4729 15.9635 19.2925 15.9635C19.1121 15.9635 18.9658 16.1097 18.9658 16.2902C18.9658 16.4706 19.1121 16.6168 19.2925 16.6168Z" fill="#FF6B83"/>
<path d="M20.0488 16.6168C20.2292 16.6168 20.3755 16.4706 20.3755 16.2902C20.3755 16.1097 20.2292 15.9635 20.0488 15.9635C19.8684 15.9635 19.7222 16.1097 19.7222 16.2902C19.7222 16.4706 19.8684 16.6168 20.0488 16.6168Z" fill="#FF6B83"/>
<path d="M14.417 16.6168C14.5974 16.6168 14.7436 16.4706 14.7436 16.2902C14.7436 16.1097 14.5974 15.9635 14.417 15.9635C14.2366 15.9635 14.0903 16.1097 14.0903 16.2902C14.0903 16.4706 14.2366 16.6168 14.417 16.6168Z" fill="#FF6B83"/>
<path d="M15.1738 16.6168C15.3542 16.6168 15.5005 16.4706 15.5005 16.2902C15.5005 16.1097 15.3542 15.9635 15.1738 15.9635C14.9934 15.9635 14.8472 16.1097 14.8472 16.2902C14.8472 16.4706 14.9934 16.6168 15.1738 16.6168Z" fill="#FF6B83"/>
<path d="M21.0891 11.2019C21.0891 10.8984 21.0891 10.5053 21.0891 10.4385C21.0891 10.328 20.978 10.1812 20.7796 10.1293C20.311 10.0059 19.3552 9.78611 18.2339 9.69814C18.1144 9.29512 17.7409 9 17.2994 9C16.8579 9 16.4849 9.29512 16.3654 9.69814C15.2441 9.78595 14.2882 10.0059 13.8194 10.1293C13.6672 10.1692 13.5669 10.259 13.5283 10.3533L13.5281 10.3527C13.5281 10.3527 13.5249 10.3632 13.5199 10.3785C13.5185 10.3836 13.5162 10.3887 13.515 10.3938C13.3758 10.823 12.052 14.6524 8.62332 16.2903C8.24256 16.4721 8.28136 16.8529 8.28136 16.8529C8.28136 16.8529 8.28136 18.7241 8.28136 19.8557C8.28105 19.8557 8.28059 19.8554 8.28028 19.8554C8.12553 19.8554 8 19.9809 8 20.1358C8 20.2907 8.12553 20.4159 8.28028 20.4159C8.28059 20.4159 8.28105 20.4159 8.28136 20.4159C8.28136 20.563 8.28136 20.6624 8.28136 20.6896C8.28136 20.88 8.33933 20.9985 8.4913 20.9985C8.62502 20.9985 13.3539 20.9985 14.4965 20.9985C14.5031 20.9988 14.5096 21 14.5164 21H20.1852C20.3812 21 20.5527 20.8686 20.6034 20.6794L21.1989 18.4596C21.212 18.4181 21.2191 18.3741 21.2191 18.3285C21.2191 18.2822 21.2098 18.2385 21.1966 18.1965C21.3927 18.063 21.5217 17.8381 21.5217 17.5832V11.8742C21.5217 11.5758 21.3436 11.3195 21.0891 11.2019ZM16.7079 9.67557L16.7082 9.67526C16.7472 9.59859 16.7998 9.53118 16.8638 9.47537C16.873 9.46734 16.8825 9.45961 16.8922 9.45203C16.9091 9.43874 16.9259 9.42544 16.9442 9.41385C16.9717 9.39607 17.0006 9.3803 17.0309 9.36685C17.0423 9.36175 17.0544 9.35804 17.0663 9.35355C17.0919 9.34382 17.1182 9.33562 17.1453 9.32897C17.157 9.32619 17.1688 9.32341 17.1807 9.32125C17.2193 9.31413 17.2588 9.30919 17.2996 9.30919C17.3402 9.30919 17.3796 9.31413 17.4183 9.32125C17.4302 9.32341 17.4418 9.32619 17.4537 9.32897C17.4807 9.33547 17.5072 9.34382 17.5328 9.35355C17.5446 9.35804 17.5568 9.36175 17.5684 9.36685C17.5985 9.3803 17.6273 9.39607 17.655 9.41385C17.6732 9.4256 17.6902 9.43889 17.7072 9.45219C17.7168 9.45976 17.7262 9.46734 17.7355 9.47537C17.7995 9.53134 17.8524 9.59874 17.8913 9.67526L17.8917 9.67573C17.9374 9.76601 17.9657 9.86665 17.9657 9.97487C17.9657 10.0335 17.9558 10.0893 17.9416 10.1434C17.9141 10.2477 17.8624 10.3414 17.7924 10.4192C17.7899 10.4218 17.7881 10.4247 17.7856 10.4272C17.768 10.4461 17.749 10.4629 17.7293 10.4796C17.718 10.4892 17.7069 10.4989 17.695 10.5077C17.678 10.5206 17.6601 10.532 17.6417 10.5432C17.6245 10.5537 17.6069 10.5629 17.5888 10.5719C17.5723 10.5798 17.556 10.5877 17.5389 10.5943C17.5154 10.6036 17.4908 10.6104 17.4661 10.6169C17.452 10.6206 17.4384 10.6252 17.424 10.6279C17.3838 10.6356 17.3425 10.6404 17.2999 10.6404C17.2572 10.6404 17.2159 10.6356 17.1754 10.6279C17.1612 10.6251 17.1476 10.6206 17.1335 10.6169C17.1088 10.6104 17.0844 10.6034 17.0607 10.5943C17.0436 10.5877 17.0272 10.5799 17.0109 10.5719C16.9929 10.5629 16.9751 10.5535 16.9579 10.543C16.9397 10.532 16.9219 10.5204 16.9049 10.5077C16.8928 10.4988 16.8817 10.489 16.8704 10.4795C16.8508 10.4628 16.8318 10.4461 16.8143 10.4272C16.8118 10.4244 16.8098 10.4215 16.8073 10.4187C16.7375 10.3413 16.6863 10.2477 16.6588 10.1438C16.6588 10.1438 16.6586 10.1435 16.6585 10.1432C16.6442 10.0891 16.6343 10.0333 16.6343 9.97471C16.6339 9.8665 16.6623 9.76586 16.7079 9.67557ZM13.9738 10.5683C14.3951 10.4591 15.2919 10.2533 16.3439 10.1655C16.4328 10.6121 16.8273 10.9497 17.2996 10.9497C17.7718 10.9497 18.1667 10.6121 18.2556 10.1655C19.3074 10.2533 20.2041 10.4589 20.6255 10.5683V11.1012H13.9738V10.5683ZM8.76663 16.723C11.2355 15.5122 12.4011 13.7244 12.8762 12.7664C12.9142 12.6898 13.007 12.6588 13.0833 12.6965C13.1599 12.7345 13.1911 12.8273 13.1532 12.9036C12.6607 13.8967 11.4535 15.7494 8.90283 17.0007C8.88087 17.0112 8.85768 17.0164 8.83496 17.0164C8.77776 17.0164 8.72288 16.9847 8.69613 16.93C8.65826 16.8535 8.68995 16.7609 8.76663 16.723ZM13.167 18.3535C13.0688 18.4308 10.7408 20.246 8.8348 20.246C8.74947 20.246 8.68021 20.1769 8.68021 20.0915C8.68021 20.0063 8.74947 19.9369 8.8348 19.9369C10.6333 19.9369 12.9526 18.1289 12.9757 18.1105C13.043 18.0576 13.1401 18.0694 13.1928 18.1365C13.2457 18.2036 13.2341 18.3008 13.167 18.3535ZM14.1959 19.3714H20.5061L20.405 19.7483H14.2971L14.1959 19.3714ZM14.5164 20.5671L14.413 20.1813H20.2889L20.1854 20.5671H14.5164ZM20.7799 17.8922H18.6611V18.3282H20.7858L20.6221 18.9383H14.08L13.9164 18.3282H15.8737V17.8922H13.8192C13.6492 17.8922 13.51 17.7534 13.51 17.583V15.1075H16.2505V14.659H13.51V11.8742C13.51 11.7041 13.6492 11.565 13.8192 11.565H20.7799C20.95 11.565 21.0891 11.7041 21.0891 11.8742V14.659H18.3519V15.1075H21.089V17.583C21.0891 17.7534 20.9498 17.8922 20.7799 17.8922Z" fill="#FF6B83"/>
<ellipse cx="14.3189" cy="42.4127" rx="9.24375" ry="1.8125" fill="url(#paint5_radial_163_241)" fill-opacity="0.6"/>
<defs>
<linearGradient id="paint0_linear_163_241" x1="-5.10031e-08" y1="7.98909" x2="22.0987" y2="32.6139" gradientUnits="userSpaceOnUse">
<stop stop-color="#FF6B83"/>
<stop offset="1" stop-color="#E05E73"/>
</linearGradient>
<linearGradient id="paint1_linear_163_241" x1="0.363281" y1="8.15605" x2="21.932" y2="32.081" gradientUnits="userSpaceOnUse">
<stop stop-color="#FF6B83"/>
<stop offset="1" stop-color="#E8667B"/>
</linearGradient>
<linearGradient id="paint2_linear_163_241" x1="26.5277" y1="19.562" x2="1.18487" y2="11.0499" gradientUnits="userSpaceOnUse">
<stop stop-color="#FF6B83"/>
<stop offset="1" stop-color="#EB6379"/>
</linearGradient>
<linearGradient id="paint3_linear_163_241" x1="25.7392" y1="19.2126" x2="1.99541" y2="11.2376" gradientUnits="userSpaceOnUse">
<stop stop-color="white"/>
<stop offset="1" stop-color="#999999"/>
</linearGradient>
<linearGradient id="paint4_linear_163_241" x1="4.89619" y1="10.332" x2="24.1087" y2="25.3757" gradientUnits="userSpaceOnUse">
<stop stop-color="white"/>
<stop offset="1" stop-color="#C7C7C7"/>
</linearGradient>
<radialGradient id="paint5_radial_163_241" cx="0" cy="0" r="1" gradientUnits="userSpaceOnUse" gradientTransform="translate(14.3189 42.4127) scale(9.24375 1.8125)">
<stop/>
<stop offset="1" stop-color="#666666" stop-opacity="0"/>
</radialGradient>
</defs>
</svg>
