<svg width="140" height="140" viewBox="0 0 140 140" fill="none" xmlns="http://www.w3.org/2000/svg">
<rect width="140" height="140" rx="16" fill="#0095DA"/>
<path fill-rule="evenodd" clip-rule="evenodd" d="M68.304 42.7703H55.751C55.1391 53.6775 64.9092 51.7457 67.2185 48.6684C68.6001 46.8391 68.4027 45.0953 68.304 42.7703ZM55.751 40.582L68.1659 40.6845C69.0935 36.1883 66.2711 36.0686 61.8696 36.0686C57.2313 36.0686 55.3365 36.2225 55.751 40.582ZM57.5076 54.481C60.863 56.1393 64.0802 56.8745 66.6066 54.0194L65.3631 52.5321C62.9749 53.404 60.9419 53.1475 58.6524 52.5834L57.5273 54.481H57.5076ZM51.5469 86.5874H60.8235C60.8235 85.4932 60.8235 84.382 60.8235 83.2707C60.8235 81.903 60.5669 80.8089 61.9288 80.7063C64.0802 80.5525 63.271 84.9461 63.271 86.5874H72.4292L71.4818 75.6459L52.6719 75.5433L51.5666 86.5532L51.5469 86.5874ZM48.4481 81.9372C49.3363 81.1508 49.8495 80.655 49.6916 79.2532H45.5861C45.073 81.3218 46.1783 81.9885 48.4481 81.9372ZM80.3439 74.6201C80.9163 75.663 81.5281 76.9623 83.4624 76.3981C85.3572 75.834 84.548 74.1073 84.0151 72.8592L80.3439 74.6201ZM83.8572 79.0822V83.9204H89.6995V75.9194C85.7322 75.8681 88.2784 75.7998 84.8046 78.1932C83.6598 78.9796 84.469 78.0051 83.8572 79.0822ZM63.2512 101.016C65.521 100.521 67.3764 100.828 69.1922 100.384L70.2383 88.6731H63.2512V101.016ZM54.8825 100.469C57.1918 100.794 58.534 100.367 60.6853 101.033L60.8038 89.1347V88.6731H53.8167L54.8628 100.469H54.8825ZM52.7903 104.778L60.6064 104.897C60.7643 103.136 59.5011 102.658 57.3694 102.658H56.2444C53.9154 102.658 52.8496 102.965 52.7903 104.778ZM63.4683 104.897H71.1068C71.2844 103.085 70.0409 102.658 67.8698 102.658H66.7448C64.5144 102.658 63.271 102.965 63.4683 104.897ZM52.0403 106.983H72.0147C75.0148 105.085 73.6529 102.811 71.6002 101.136C71.6199 99.9906 72.3107 89.6475 72.8239 88.9124C73.5937 87.8183 74.5411 88.3995 74.7977 86.4677C75.0937 84.211 73.4555 75.4749 73.8108 70.0213C76.2385 71.8677 77.5214 76.1759 80.2847 78.0393C81.7255 79.0138 80.8373 77.971 81.4295 79.0822V83.3049C81.0939 84.5529 79.6926 83.7836 78.1136 85.0658C76.278 86.5532 76.6333 90.0578 76.6727 92.4342C76.7122 94.2976 76.8701 94.7251 78.8439 94.4686C79.4162 92.6735 78.607 88.2286 79.5347 86.9464C80.6794 85.3564 85.2783 86.0061 87.6862 86.0061C95.6405 86.0061 94.4365 85.3222 94.4365 95.9731C94.4365 104.658 96.4102 104.914 86.5612 104.914C83.8769 104.914 79.9097 105.496 79.1991 103.324C78.5873 101.427 80.3242 96.5372 77.1069 97.8365C76.3372 99.0162 76.4161 102.367 76.9096 103.974C77.5412 106.043 78.6662 106.094 80.4821 107H93.2128C98.1471 104.521 96.8445 102.487 96.8445 94.6738C96.8445 91.3229 97.7326 86.3138 95.0286 84.7581C91.1008 82.5185 92.5812 86.9122 92.1667 76.8084C92.0483 74.0902 90.8245 73.8337 87.7257 73.8166C86.6402 73.4234 86.0283 71.919 85.4559 71.0129C83.6795 68.2262 76.574 56.9258 75.1529 55.6094C71.7976 52.4979 69.6067 53.9681 67.8303 51.8482C68.1264 50.7199 69.5672 49.9164 70.2975 48.07C70.9883 46.3433 70.7317 44.6679 70.8502 42.8045L74.0082 42.6506C74.4819 40.3768 73.416 40.7016 70.9686 40.7016C69.7251 35.0429 71.3436 36.5302 66.1921 34H57.5668C52.3956 36.8037 53.9746 36.5302 53.1456 40.6845C51.3692 40.7016 51.1916 40.4452 50.0468 41.2316C49.81 43.1977 51.2311 42.7874 53.264 42.8045C53.3627 45.215 53.0075 47.882 55.0404 50.0019C56.126 51.1473 56.1062 50.378 56.3628 51.8482C56.1655 52.9937 53.5404 53.4724 51.5074 54.1904C49.4942 54.8913 48.0731 55.182 46.5533 56.3958C45.073 57.5925 44.3032 58.4815 43.9874 60.6527C43.8295 61.7126 43.2966 66.0208 44.4414 66.756C47.2638 68.192 45.5861 61.1656 47.2046 58.8918C48.5468 56.9941 52.6127 56.0539 55.1588 55.182C60.4288 59.2337 63.8039 59.2166 69.0146 55.0623C71.916 55.6094 72.9818 56.1906 74.0674 57.8318C75.528 60.0714 81.8637 69.423 82.4953 71.0642L79.1202 72.7567C78.153 72.0728 76.6925 69.6452 75.8832 68.5681C73.416 65.2344 74.0279 64.8754 71.4028 65.0977L71.2054 73.4747H52.8496C51.9811 68.0724 54.4088 64.5677 50.4021 65.0806L50.0666 77.0649L45.5664 77.1333C45.6059 71.0813 47.1257 69.8503 43.8098 69.9871C43.0598 71.56 43.0203 77.2187 43.0005 79.4412C42.9611 83.1169 45.0927 84.4333 49.3758 83.9375C49.06 87.2883 48.7442 87.1002 51.4087 88.8269L52.4745 101.153C50.2639 102.846 49.06 105.154 52.0601 107L52.0403 106.983Z" fill="white"/>
</svg>
