<svg width="70" height="70" viewBox="0 0 70 70" fill="none" xmlns="http://www.w3.org/2000/svg">
<rect width="70" height="70" rx="16" fill="#7000D8"/>
<path d="M35.3877 23.6145C34.7458 23.6145 34.2236 24.1371 34.2236 24.7795C34.2236 25.4218 34.7458 25.9445 35.3877 25.9445C36.0295 25.9445 36.5517 25.4218 36.5517 24.7795C36.5517 24.1371 36.0295 23.6145 35.3877 23.6145Z" fill="white"/>
<path d="M35.3955 19.25C35.178 20.2356 34.9538 21.2194 34.7041 22.2436C35.1491 22.0871 35.6322 22.0879 36.0764 22.2462C36.0764 22.2462 35.5963 20.1815 35.3955 19.25Z" fill="white"/>
<path d="M46.1121 51.9744C42.0981 44.1417 38.588 35.9056 36.2704 27.4017C35.7114 27.5928 35.0622 27.5923 34.5035 27.4007C33.3637 31.4566 32.0032 35.4859 30.4517 39.3995L31.3432 41.3176H33.1944C33.9754 41.3176 34.6514 41.7763 34.9675 42.4384C39.1961 42.1788 42.8301 45.6146 42.8153 49.8592C42.8153 50.5854 42.7133 51.2931 42.5112 51.9745H46.1121V51.9744ZM34.261 30.9823H36.5306V32.5829H34.261V30.9823ZM33.4099 34.6268H37.3817V36.2274H33.4099V34.6268ZM38.2328 39.8719H32.5588V38.2713H38.2328V39.8719Z" fill="white"/>
<path d="M26.8049 45.4949C25.6659 45.4949 24.7393 46.4229 24.7393 47.5637C24.7393 48.7044 25.6659 49.6323 26.8049 49.6323C27.944 49.6323 28.8706 48.7044 28.8706 47.5637C28.8706 46.4229 27.944 45.4949 26.8049 45.4949Z" fill="white"/>
<path d="M33.194 42.9186H30.8326C30.5214 42.9186 30.2386 42.7381 30.1073 42.4558L29.1317 40.3567H24.4785L23.5028 42.4558C23.3716 42.7381 23.0887 42.9186 22.7775 42.9186H20.4162C20.2155 42.9186 20.0522 43.0821 20.0522 43.2829V51.6981C20.0522 51.8989 20.2155 52.0624 20.4162 52.0624H33.194C33.3947 52.0624 33.558 51.8989 33.558 51.6981V43.2829C33.5579 43.082 33.3946 42.9186 33.194 42.9186ZM26.8051 51.2326C24.7839 51.2326 23.1396 49.5866 23.1396 47.5633C23.1396 45.5401 24.7839 43.894 26.8051 43.894C28.8263 43.894 30.4706 45.5401 30.4706 47.5633C30.4706 49.5866 28.8263 51.2326 26.8051 51.2326ZM32.4984 45.6748H30.7642V44.0742H32.4984V45.6748Z" fill="white"/>
<path d="M46.0116 24.6243C45.247 24.6243 44.625 25.2587 44.625 26.0383C44.625 26.818 45.247 27.4523 46.0116 27.4523C46.7762 27.4523 47.3981 26.818 47.3981 26.0383C47.3981 25.2587 46.7761 24.6243 46.0116 24.6243Z" fill="white"/>
<path d="M46.0118 20.5585C42.9599 20.5585 40.4858 23.0803 40.4858 26.191C40.4858 30.6232 46.0118 34.5937 46.0118 34.5937C46.0118 34.5937 51.5379 30.808 51.5379 26.191C51.5379 23.0803 49.0638 20.5585 46.0118 20.5585ZM46.0118 29.0529C44.3651 29.0529 43.0255 27.7006 43.0255 26.0382C43.0255 24.3759 44.3652 23.0235 46.0118 23.0235C47.6586 23.0235 48.9982 24.3759 48.9982 26.0382C48.9982 27.7005 47.6585 29.0529 46.0118 29.0529Z" fill="white"/>
<path d="M27.2343 26.1681C28.0186 24.5223 26.7178 22.4756 24.8813 22.5193C23.4609 22.5193 22.3089 23.6691 22.3007 25.0903C20.6688 25.048 19.25 26.3625 19.25 28.0755C19.25 29.7247 20.5842 31.0617 22.2301 31.0617H26.9782C28.3254 31.0617 29.4176 29.9673 29.4176 28.6174C29.4275 26.3317 27.2343 26.1681 27.2343 26.1681Z" fill="white"/>
</svg>
