<svg width="40" height="40" viewBox="0 0 40 40" fill="none" xmlns="http://www.w3.org/2000/svg">
<circle cx="20" cy="20" r="20" fill="#61D2EA"/>
<path d="M20.2951 11.3252C19.806 11.3252 19.4082 11.7234 19.4082 12.2128C19.4082 12.7022 19.806 13.1005 20.2951 13.1005C20.7841 13.1005 21.1819 12.7022 21.1819 12.2128C21.1819 11.7234 20.7841 11.3252 20.2951 11.3252Z" fill="white"/>
<path d="M20.3012 8C20.1355 8.7509 19.9647 9.50047 19.7744 10.2809C20.1135 10.1616 20.4815 10.1622 20.82 10.2828C20.82 10.2828 20.4542 8.70972 20.3012 8Z" fill="white"/>
<path d="M28.4669 32.9328C25.4086 26.965 22.7343 20.6899 20.9685 14.2108C20.5426 14.3563 20.0479 14.356 19.6223 14.21C18.7539 17.3002 17.7173 20.3701 16.5352 23.3519L17.2144 24.8133H18.6248C19.2199 24.8133 19.7349 25.1628 19.9758 25.6673C23.1976 25.4695 25.9663 28.0872 25.9551 31.3212C25.9551 31.8745 25.8774 32.4137 25.7234 32.9328H28.4669V32.9328ZM19.4375 16.9388H21.1667V18.1583H19.4375V16.9388ZM18.7891 19.7155H21.8152V20.9351H18.7891V19.7155ZM22.4636 23.7118H18.1406V22.4923H22.4636V23.7118Z" fill="white"/>
<path d="M13.7565 27.9961C12.8886 27.9961 12.1826 28.7031 12.1826 29.5723C12.1826 30.4414 12.8886 31.1484 13.7565 31.1484C14.6243 31.1484 15.3303 30.4414 15.3303 29.5723C15.3303 28.7031 14.6243 27.9961 13.7565 27.9961Z" fill="white"/>
<path d="M18.6241 26.033H16.825C16.5878 26.033 16.3723 25.8955 16.2723 25.6804L15.529 24.0811H11.9837L11.2403 25.6804C11.1404 25.8955 10.9248 26.033 10.6877 26.033H8.88861C8.73572 26.033 8.61133 26.1575 8.61133 26.3106V32.7221C8.61133 32.8751 8.73572 32.9997 8.88861 32.9997H18.6241C18.777 32.9997 18.9014 32.8751 18.9014 32.7221V26.3105C18.9013 26.1575 18.7769 26.033 18.6241 26.033ZM13.7564 32.3675C12.2164 32.3675 10.9636 31.1134 10.9636 29.5718C10.9636 28.0303 12.2164 26.7761 13.7564 26.7761C15.2963 26.7761 16.5491 28.0303 16.5491 29.5718C16.5491 31.1134 15.2963 32.3675 13.7564 32.3675ZM18.0941 28.133H16.7728V26.9134H18.0941V28.133Z" fill="white"/>
<path d="M28.3895 12.0942C27.8069 12.0942 27.333 12.5776 27.333 13.1716C27.333 13.7656 27.8069 14.2489 28.3895 14.2489C28.972 14.2489 29.4459 13.7656 29.4459 13.1716C29.4459 12.5776 28.9719 12.0942 28.3895 12.0942Z" fill="white"/>
<path d="M28.39 8.99658C26.0647 8.99658 24.1797 10.9179 24.1797 13.2881C24.1797 16.665 28.39 19.6901 28.39 19.6901C28.39 19.6901 32.6003 16.8057 32.6003 13.2881C32.6003 10.9179 30.7152 8.99658 28.39 8.99658ZM28.39 15.4685C27.1353 15.4685 26.1147 14.4382 26.1147 13.1716C26.1147 11.9051 27.1354 10.8747 28.39 10.8747C29.6446 10.8747 30.6653 11.9051 30.6653 13.1716C30.6653 14.4381 29.6446 15.4685 28.39 15.4685Z" fill="white"/>
<path d="M14.0832 13.2708C14.6809 12.0169 13.6898 10.4574 12.2905 10.4908C11.2083 10.4908 10.3306 11.3668 10.3244 12.4496C9.081 12.4174 8 13.4189 8 14.7241C8 15.9806 9.01656 16.9992 10.2706 16.9992H13.8882C14.9146 16.9992 15.7467 16.1654 15.7467 15.1369C15.7543 13.3954 14.0832 13.2708 14.0832 13.2708Z" fill="white"/>
</svg>
