<svg width="140" height="140" viewBox="0 0 140 140" fill="none" xmlns="http://www.w3.org/2000/svg">
<rect width="140" height="140" rx="16" fill="#818385"/>
<path d="M99.5358 71.874H78.2864C77.5035 71.8796 76.8711 72.5148 76.8711 73.3005V73.6042H100.954V73.3005C100.954 72.5176 100.319 71.8796 99.5388 71.874H99.5358Z" fill="white"/>
<path d="M80.7498 96.9103C81.477 96.9103 82.0704 96.3196 82.0704 95.5897C82.0704 94.8625 81.4798 94.269 80.7498 94.269C80.0227 94.269 79.4292 94.8597 79.4292 95.5897C79.4292 96.3168 80.0198 96.9103 80.7498 96.9103Z" fill="white"/>
<path d="M76.8712 99.1111H78.7379V101.507C78.7379 101.9 79.0583 102.22 79.4511 102.22H81.1088C81.5017 102.22 81.8221 101.9 81.8221 101.507V99.1111H96.0033V101.507C96.0033 101.9 96.3237 102.22 96.7166 102.22H98.3743C98.7671 102.22 99.0875 101.9 99.0875 101.507V99.1111H100.954V89.9618L76.8711 89.959L76.8712 99.1111ZM97.0729 92.8452C98.5857 92.8452 99.82 94.0767 99.82 95.5923C99.82 97.1052 98.5885 98.3394 97.0729 98.3394C95.56 98.3394 94.3258 97.1079 94.3258 95.5923C94.3258 94.0795 95.5573 92.8452 97.0729 92.8452ZM87.3465 93.3774H90.4808C91.7011 93.3774 92.693 94.3692 92.693 95.5895C92.693 96.8098 91.7012 97.8017 90.4808 97.8017H87.3465C86.1262 97.8017 85.1343 96.8099 85.1343 95.5895C85.1343 94.3693 86.1262 93.3774 87.3465 93.3774ZM80.7519 92.8452C82.2647 92.8452 83.499 94.0767 83.499 95.5923C83.499 97.1052 82.2675 98.3394 80.7519 98.3394C79.239 98.3394 78.0048 97.1079 78.0048 95.5923C78.0048 94.0795 79.2363 92.8452 80.7519 92.8452Z" fill="white"/>
<path d="M76.8711 75.427V88.5356H100.954V75.0283H76.8711V75.427Z" fill="white"/>
<path d="M49.9347 59.4739C49.9347 61.2542 47.2656 61.2542 47.2656 59.4739C47.2656 57.6936 49.9347 57.6936 49.9347 59.4739Z" fill="white"/>
<path d="M102.379 76.2569V82.1773H102.569C103.123 82.1773 103.575 81.726 103.575 81.1715V77.9842C103.575 77.1957 103.076 76.5188 102.379 76.2569Z" fill="white"/>
<path d="M87.3443 96.3771H90.4786C90.9132 96.3771 91.2643 96.0232 91.2643 95.5914C91.2643 95.1567 90.9105 94.8057 90.4786 94.8057H87.3443C86.9097 94.8057 86.5586 95.1595 86.5586 95.5914C86.5586 96.026 86.9124 96.3771 87.3443 96.3771Z" fill="white"/>
<path d="M74.25 77.9857V81.173C74.25 81.7274 74.7013 82.1788 75.2558 82.1788H75.4453V76.2695C74.7348 76.5398 74.25 77.2084 74.25 77.9857Z" fill="white"/>
<path d="M97.0706 96.9098C97.7978 96.9098 98.3913 96.3192 98.3913 95.5892C98.3913 94.862 97.8006 94.2686 97.0706 94.2686C96.3435 94.2686 95.75 94.8592 95.75 95.5892C95.75 96.3163 96.3406 96.9098 97.0706 96.9098Z" fill="white"/>
<path d="M47.4922 45.2275H62.4509V51.7525H47.4922V45.2275Z" fill="white"/>
<path d="M80.5195 63.7409H85.9746V55.7641C84.1637 54.9423 82.3667 54.0451 80.5195 53.0449V63.7409Z" fill="white"/>
<path d="M71.0306 47.3297L70.9609 47.2852V63.7423H76.5164L76.5136 50.7565C74.7974 49.7284 73.2205 48.7254 71.8637 47.859C71.5851 47.6862 71.3037 47.5051 71.0278 47.3296L71.0306 47.3297Z" fill="white"/>
<path d="M89.9766 63.7417H94.1222V58.9385C92.718 58.4733 91.3306 57.9717 89.9766 57.4424V63.7417Z" fill="white"/>
<path d="M86.381 52.065C85.5647 51.6833 84.7037 51.257 83.7509 50.7639C81.001 49.3513 78.619 47.911 76.847 46.8132C76.8359 46.8104 76.7662 46.7659 76.6966 46.7213C75.6936 46.0972 74.7129 45.4759 73.7656 44.8713C69.3358 42.0518 65.6718 39.717 61.6406 38.8506L63.0699 40.2771H64.5744C64.7304 40.2771 64.8669 40.2882 64.9979 40.3161C65.0034 40.3161 65.009 40.3161 65.0118 40.3188C65.1316 40.33 65.2458 40.3551 65.374 40.3969C65.4492 40.4136 65.5216 40.4359 65.5941 40.4693C65.7139 40.5111 65.8253 40.564 65.9284 40.6225C66.0315 40.6782 66.1262 40.7368 66.2182 40.8092C66.2934 40.8593 66.363 40.9123 66.4271 40.9708C66.5023 41.0293 66.5692 41.0962 66.6305 41.1714C66.6361 41.1742 66.6444 41.1825 66.6556 41.1937C66.7503 41.2856 66.8172 41.3803 66.8673 41.4556C66.9175 41.5113 67.001 41.6367 67.0707 41.7676C67.0763 41.7787 67.0846 41.7927 67.0874 41.8038C67.0902 41.8066 67.0902 41.8122 67.093 41.815C67.1431 41.9181 67.1905 42.0295 67.2323 42.1437C67.2379 42.1549 67.2406 42.1688 67.2462 42.1799C67.2462 42.1827 67.249 42.1855 67.249 42.1911C67.2769 42.2691 67.2992 42.3415 67.3187 42.4195L67.3382 42.5003C67.3493 42.5366 67.3632 42.6062 67.3688 42.6452L67.3911 42.8152C67.4022 42.9266 67.4106 43.0297 67.4106 43.1216V63.5993C67.4106 63.7748 67.3465 63.9364 67.2406 64.059L65.3768 67.288H104.123V58.0046C97.709 56.6116 91.897 54.6696 86.3751 52.0675L86.381 52.065ZM77.9391 64.4546C77.9391 64.8474 77.6187 65.1678 77.2259 65.1678H70.244C69.8511 65.1678 69.5307 64.8474 69.5307 64.4546V45.9882C69.5307 45.7319 69.67 45.4951 69.8929 45.3669C70.1158 45.2416 70.3916 45.2443 70.6117 45.3753C70.7566 45.4616 70.9015 45.5564 71.0436 45.6483C71.2915 45.8043 71.5395 45.9604 71.793 46.1219C72.0661 46.2947 72.3419 46.473 72.6261 46.6485C74.0693 47.5735 75.7576 48.6461 77.5908 49.7355C77.8082 49.8636 77.9391 50.0977 77.9391 50.3484L77.9391 64.4546ZM87.4009 64.4546C87.4009 64.8474 87.0805 65.1678 86.6877 65.1678H79.8061C79.4133 65.1678 79.0929 64.8474 79.0929 64.4546L79.0901 51.8446C79.0901 51.5911 79.2238 51.357 79.4411 51.2289C79.6584 51.1007 79.9287 51.0979 80.1488 51.2205C82.4807 52.5188 84.7151 53.6416 86.9774 54.6557C87.2338 54.77 87.3981 55.0263 87.3981 55.3077V64.457L87.4009 64.4546ZM95.5503 64.4546C95.5503 64.8474 95.2299 65.1678 94.8371 65.1678H89.2649C88.8721 65.1678 88.5517 64.8474 88.5517 64.4546V56.3886C88.5517 56.1518 88.6687 55.9289 88.8665 55.798C89.0616 55.6642 89.3151 55.6392 89.5324 55.7283C91.3183 56.4527 93.1766 57.1325 95.0572 57.7426C95.3497 57.8373 95.5503 58.1132 95.5503 58.4196L95.5503 64.4546ZM102.014 64.4546C102.014 64.8474 101.694 65.1678 101.301 65.1678H97.2582C96.8653 65.1678 96.5449 64.8474 96.5449 64.4546V59.1722C96.5449 58.9493 96.6508 58.7376 96.8291 58.6011C97.0074 58.4673 97.2387 58.4228 97.456 58.4868C98.9047 58.902 100.203 59.2474 101.426 59.54C101.451 59.5456 101.476 59.5539 101.501 59.5623C101.799 59.6487 102.017 59.9217 102.017 60.2477V64.4546L102.014 64.4546Z" fill="white"/>
<path d="M50.2131 67.2828V64.558C50.2131 64.1652 50.5335 63.8448 50.9263 63.8448C51.3192 63.8448 51.6396 64.1652 51.6396 64.558V67.2828H54.2585V64.558C54.2585 64.1652 54.5789 63.8448 54.9717 63.8448C55.3646 63.8448 55.685 64.1652 55.685 64.558V67.2828H58.3039V64.558C58.3039 64.1652 58.6243 63.8448 59.0171 63.8448C59.41 63.8448 59.7304 64.1652 59.7304 64.558V67.2828H63.7367L65.9907 63.3767L65.9935 43.1137C65.9935 43.0663 65.9879 43.0106 65.9823 42.9632L65.9573 42.8128C65.935 42.7236 65.9266 42.6986 65.9155 42.6679C65.9127 42.6568 65.9071 42.6484 65.9043 42.6373C65.8793 42.5704 65.8542 42.5063 65.8263 42.4478C65.8235 42.4422 65.8208 42.4367 65.818 42.4283C65.7929 42.381 65.7622 42.3364 65.7288 42.2946L65.7567 42.2612C65.7455 42.2194 65.74 42.1776 65.7372 42.1358L65.6592 42.2026C65.6229 42.172 65.5979 42.1414 65.57 42.1079C65.5533 42.0912 65.5338 42.0661 65.5254 42.0578C65.5003 42.0438 65.3889 41.9575 65.3666 41.9408C65.3304 41.9101 65.2914 41.8906 65.2524 41.8683C65.2134 41.8488 65.1744 41.8237 65.127 41.8098C65.0991 41.8015 65.0713 41.7903 65.0462 41.7792C65.01 41.7708 64.9738 41.7625 64.9403 41.7485C64.9013 41.7457 64.8512 41.7346 64.801 41.7234C64.7788 41.7207 64.7592 41.7179 64.737 41.7123C64.698 41.7039 64.6478 41.7012 64.5809 41.7012H62.7839C62.5973 41.7012 62.4162 41.6259 62.2825 41.495L59.4908 38.709C59.4267 38.6449 59.3543 38.6003 59.2763 38.5641C59.2512 38.5529 59.2233 38.5501 59.1982 38.5418C59.1314 38.5223 59.0673 38.5028 58.9949 38.5H58.9726H50.9601C50.7762 38.5 50.5979 38.5752 50.4725 38.7034L47.6753 41.4923C47.5416 41.626 47.3605 41.7012 47.171 41.7012H45.3657C44.5884 41.7012 43.9531 42.3337 43.9531 43.1138V63.3768L46.2071 67.2829L50.2131 67.2828ZM61.3431 62.2344C59.8192 62.2344 58.5821 60.9946 58.5821 59.4734C58.5821 57.9495 59.8219 56.7124 61.3431 56.7124C62.8671 56.7124 64.1041 57.9522 64.1041 59.4734C64.1041 60.9974 62.8643 62.2344 61.3431 62.2344ZM46.0671 44.5148C46.0671 44.122 46.3875 43.8016 46.7803 43.8016H63.1654C63.5583 43.8016 63.8787 44.122 63.8787 44.5148V52.466C63.8787 52.8588 63.5583 53.1792 63.1654 53.1792H46.7803C46.3875 53.1792 46.0671 52.8588 46.0671 52.466V44.5148ZM48.5996 56.7126C50.1236 56.7126 51.3606 57.9524 51.3606 59.4736C51.3606 60.9975 50.1208 62.2346 48.5996 62.2346C47.0756 62.2346 45.8386 60.9948 45.8386 59.4736C45.8386 57.9496 47.0784 56.7126 48.5996 56.7126Z" fill="white"/>
<path d="M97.9727 63.7417H100.589V60.8052C99.7613 60.6018 98.8949 60.3734 97.9727 60.1143V63.7417Z" fill="white"/>
<path d="M62.6836 59.4739C62.6836 61.2542 60.0117 61.2542 60.0117 59.4739C60.0117 57.6936 62.6836 57.6936 62.6836 59.4739Z" fill="white"/>
<path d="M59.6498 70.4468H50.7958C50.4029 70.4468 50.0825 70.7672 50.0825 71.16C50.0825 71.5528 50.4029 71.8732 50.7958 71.8732H59.6498C60.0427 71.8732 60.3631 71.5528 60.3631 71.16C60.3631 70.7672 60.0427 70.4468 59.6498 70.4468Z" fill="white"/>
<path d="M61.7064 75.6152H48.7484C48.3556 75.6152 48.0352 75.9356 48.0352 76.3285C48.0352 76.7213 48.3556 77.0417 48.7484 77.0417H61.7064C62.0993 77.0417 62.4197 76.7213 62.4197 76.3285C62.4197 75.9356 62.0993 75.6152 61.7064 75.6152Z" fill="white"/>
<path d="M45.9922 81.4964C45.9922 81.8893 46.3126 82.2097 46.7054 82.2097H63.7532C64.146 82.2097 64.4664 81.8893 64.4664 81.4964C64.4664 81.1036 64.146 80.7832 63.7532 80.7832H46.7054C46.3126 80.7832 45.9922 81.1036 45.9922 81.4964Z" fill="white"/>
<path d="M66.2204 85.9521H44.2328C43.8399 85.9521 43.5195 86.2725 43.5195 86.6654C43.5195 87.0582 43.8399 87.3786 44.2328 87.3786H66.2204C66.6132 87.3786 66.9336 87.0582 66.9336 86.6654C66.9336 86.2725 66.6132 85.9521 66.2204 85.9521Z" fill="white"/>
<path d="M66.2019 41.7402L65.7812 42.1024H65.8955L66.2019 41.7402Z" fill="white"/>
<path d="M62.8236 68.71H61.2495L70.0872 87.6577C70.207 87.9169 70.4661 88.0701 70.7336 88.0701C70.8339 88.0701 70.937 88.0478 71.0345 88.0032C71.3911 87.8361 71.5471 87.4126 71.3799 87.056L62.824 68.7123L62.8236 68.71Z" fill="white"/>
<path d="M47.1203 68.7099L38.5671 87.0535C38.4 87.4101 38.556 87.8365 38.9126 88.0008C39.0101 88.0454 39.1132 88.0676 39.2135 88.0676C39.481 88.0676 39.7401 87.9144 39.8599 87.6553L48.6976 68.7075H47.1235L47.1203 68.7099Z" fill="white"/>
</svg>
