<svg width="40" height="40" viewBox="0 0 40 40" fill="none" xmlns="http://www.w3.org/2000/svg">
<circle cx="20" cy="20" r="20" fill="#FF6B83"/>
<path d="M31.2514 20.7139H23.1564C22.8581 20.716 22.6172 20.958 22.6172 21.2573V21.373H31.7917V21.2573C31.7917 20.959 31.5497 20.716 31.2525 20.7139H31.2514Z" fill="white"/>
<path d="M24.0949 30.2513C24.3719 30.2513 24.598 30.0263 24.598 29.7482C24.598 29.4712 24.373 29.2451 24.0949 29.2451C23.8179 29.2451 23.5918 29.4701 23.5918 29.7482C23.5918 30.0252 23.8168 30.2513 24.0949 30.2513Z" fill="white"/>
<path d="M22.6172 31.0901H23.3284V32.0028C23.3284 32.1525 23.4504 32.2745 23.6001 32.2745H24.2316C24.3812 32.2745 24.5033 32.1525 24.5033 32.0028V31.0901H29.9057V32.0028C29.9057 32.1525 30.0277 32.2745 30.1774 32.2745H30.8089C30.9585 32.2745 31.0806 32.1525 31.0806 32.0028V31.0901H31.7917V27.6046L22.6172 27.6035L22.6172 31.0901ZM30.3131 28.703C30.8894 28.703 31.3596 29.1722 31.3596 29.7496C31.3596 30.3259 30.8905 30.7961 30.3131 30.7961C29.7368 30.7961 29.2666 30.3269 29.2666 29.7496C29.2666 29.1732 29.7357 28.703 30.3131 28.703ZM26.6078 28.9058H27.8018C28.2667 28.9058 28.6446 29.2836 28.6446 29.7485C28.6446 30.2134 28.2667 30.5912 27.8018 30.5912H26.6078C26.143 30.5912 25.7651 30.2134 25.7651 29.7485C25.7651 29.2836 26.1429 28.9058 26.6078 28.9058ZM24.0956 28.703C24.6719 28.703 25.1421 29.1722 25.1421 29.7496C25.1421 30.3259 24.673 30.7961 24.0956 30.7961C23.5193 30.7961 23.0491 30.3269 23.0491 29.7496C23.0491 29.1732 23.5182 28.703 24.0956 28.703Z" fill="white"/>
<path d="M22.6172 22.0674V27.0611H31.7917V21.9155H22.6172V22.0674Z" fill="white"/>
<path d="M12.3566 15.9901C12.3566 16.6683 11.3398 16.6683 11.3398 15.9901C11.3398 15.3119 12.3566 15.3119 12.3566 15.9901Z" fill="white"/>
<path d="M32.3359 22.3833V24.6387H32.4081C32.6193 24.6387 32.7913 24.4668 32.7913 24.2556V23.0414C32.7913 22.741 32.6013 22.4831 32.3359 22.3833Z" fill="white"/>
<path d="M26.6079 30.0483H27.8019C27.9675 30.0483 28.1012 29.9135 28.1012 29.749C28.1012 29.5834 27.9665 29.4497 27.8019 29.4497H26.6079C26.4423 29.4497 26.3086 29.5845 26.3086 29.749C26.3086 29.9146 26.4434 30.0483 26.6079 30.0483Z" fill="white"/>
<path d="M21.6191 23.042V24.2562C21.6191 24.4674 21.7911 24.6393 22.0023 24.6393H22.0745V22.3882C21.8038 22.4911 21.6191 22.7459 21.6191 23.042Z" fill="white"/>
<path d="M30.3136 30.2513C30.5906 30.2513 30.8167 30.0263 30.8167 29.7482C30.8167 29.4712 30.5917 29.2451 30.3136 29.2451C30.0366 29.2451 29.8105 29.4701 29.8105 29.7482C29.8105 30.0252 30.0356 30.2513 30.3136 30.2513Z" fill="white"/>
<path d="M11.4258 10.563H17.1243V13.0487H11.4258V10.563Z" fill="white"/>
<path d="M24.0078 17.6157H26.0859V14.5769C25.3961 14.2638 24.7115 13.922 24.0078 13.541V17.6157Z" fill="white"/>
<path d="M20.3937 11.3637L20.3672 11.3467V17.6161H22.4836L22.4825 12.6691C21.8287 12.2774 21.228 11.8953 20.7111 11.5653C20.605 11.4995 20.4978 11.4305 20.3927 11.3636L20.3937 11.3637Z" fill="white"/>
<path d="M27.6113 17.6161H29.1906V15.7863C28.6557 15.609 28.1271 15.418 27.6113 15.2163V17.6161Z" fill="white"/>
<path d="M26.2413 13.1678C25.9303 13.0224 25.6024 12.8601 25.2394 12.6722C24.1918 12.1341 23.2844 11.5854 22.6093 11.1672C22.6051 11.1661 22.5785 11.1491 22.552 11.1321C22.1699 10.8944 21.7963 10.6577 21.4354 10.4274C19.7479 9.3533 18.3521 8.46386 16.8164 8.13379L17.3609 8.67721H17.934C17.9935 8.67721 18.0455 8.68145 18.0954 8.69207C18.0975 8.69207 18.0996 8.69206 18.1007 8.69313C18.1463 8.69737 18.1898 8.70692 18.2386 8.72285C18.2673 8.72921 18.2949 8.73771 18.3225 8.75044C18.3681 8.76636 18.4106 8.78653 18.4498 8.80881C18.4891 8.83004 18.5252 8.85233 18.5602 8.87993C18.5889 8.89903 18.6154 8.9192 18.6398 8.94148C18.6685 8.96377 18.694 8.98925 18.7173 9.0179C18.7194 9.01896 18.7226 9.02215 18.7269 9.02639C18.7629 9.06142 18.7884 9.0975 18.8075 9.12616C18.8266 9.14739 18.8585 9.19515 18.885 9.24503C18.8871 9.24928 18.8903 9.25459 18.8914 9.25883C18.8924 9.25989 18.8924 9.26202 18.8935 9.26308C18.9126 9.30235 18.9306 9.3448 18.9466 9.38832C18.9487 9.39256 18.9497 9.39787 18.9519 9.40212C18.9519 9.40318 18.9529 9.40424 18.9529 9.40636C18.9635 9.43608 18.972 9.46368 18.9795 9.49339L18.9869 9.52417C18.9911 9.53797 18.9964 9.5645 18.9986 9.57936L19.0071 9.6441C19.0113 9.68656 19.0145 9.72583 19.0145 9.76085V17.5619C19.0145 17.6287 18.9901 17.6903 18.9497 17.737L18.2397 18.9671H33V15.4305C30.5567 14.8999 28.3426 14.1601 26.2391 13.1688L26.2413 13.1678ZM23.0254 17.8877C23.0254 18.0373 22.9033 18.1594 22.7537 18.1594H20.0939C19.9442 18.1594 19.8222 18.0373 19.8222 17.8877V10.8529C19.8222 10.7552 19.8752 10.665 19.9601 10.6162C20.045 10.5684 20.1501 10.5695 20.234 10.6194C20.2892 10.6523 20.3443 10.6884 20.3985 10.7234C20.4929 10.7828 20.5874 10.8423 20.684 10.9038C20.788 10.9696 20.8931 11.0376 21.0013 11.1044C21.5511 11.4568 22.1943 11.8654 22.8927 12.2804C22.9755 12.3292 23.0254 12.4184 23.0254 12.5139L23.0254 17.8877ZM26.6298 17.8877C26.6298 18.0373 26.5078 18.1594 26.3581 18.1594H23.7366C23.5869 18.1594 23.4649 18.0373 23.4649 17.8877L23.4638 13.0839C23.4638 12.9873 23.5148 12.8981 23.5975 12.8493C23.6803 12.8005 23.7833 12.7994 23.8671 12.8461C24.7555 13.3407 25.6067 13.7685 26.4685 14.1548C26.5662 14.1983 26.6288 14.296 26.6288 14.4032V17.8886L26.6298 17.8877ZM29.7344 17.8877C29.7344 18.0373 29.6123 18.1594 29.4627 18.1594H27.34C27.1903 18.1594 27.0682 18.0373 27.0682 17.8877V14.8149C27.0682 14.7247 27.1128 14.6398 27.1882 14.5899C27.2625 14.539 27.3591 14.5294 27.4418 14.5634C28.1222 14.8393 28.8301 15.0983 29.5465 15.3308C29.658 15.3668 29.7344 15.4719 29.7344 15.5887L29.7344 17.8877ZM32.1967 17.8877C32.1967 18.0373 32.0747 18.1594 31.925 18.1594H30.385C30.2353 18.1594 30.1133 18.0373 30.1133 17.8877V15.8754C30.1133 15.7905 30.1536 15.7098 30.2215 15.6578C30.2895 15.6068 30.3776 15.5899 30.4604 15.6143C31.0122 15.7724 31.5069 15.904 31.9728 16.0155C31.9823 16.0176 31.9919 16.0208 32.0014 16.024C32.115 16.0569 32.1978 16.1609 32.1978 16.2851V17.8877L32.1967 17.8877Z" fill="white"/>
<path d="M12.4609 18.9649V17.9269C12.4609 17.7772 12.583 17.6552 12.7326 17.6552C12.8823 17.6552 13.0043 17.7772 13.0043 17.9269V18.9649H14.002V17.9269C14.002 17.7772 14.1241 17.6552 14.2737 17.6552C14.4234 17.6552 14.5454 17.7772 14.5454 17.9269V18.9649H15.5431V17.9269C15.5431 17.7772 15.6652 17.6552 15.8148 17.6552C15.9645 17.6552 16.0865 17.7772 16.0865 17.9269V18.9649H17.6128L18.4714 17.4768L18.4725 9.75759C18.4725 9.73955 18.4704 9.71832 18.4683 9.70028L18.4587 9.64297C18.4502 9.609 18.447 9.59945 18.4428 9.58778C18.4417 9.58353 18.4396 9.58035 18.4385 9.5761C18.429 9.55063 18.4194 9.52622 18.4088 9.50393C18.4078 9.50181 18.4067 9.49969 18.4056 9.4965C18.3961 9.47846 18.3844 9.46148 18.3717 9.44556L18.3823 9.43282C18.378 9.4169 18.3759 9.40098 18.3749 9.38506L18.3451 9.41053C18.3313 9.39886 18.3218 9.38718 18.3112 9.37445C18.3048 9.36808 18.2974 9.35853 18.2942 9.35534C18.2846 9.35003 18.2422 9.31713 18.2337 9.31076C18.2199 9.29909 18.205 9.29166 18.1902 9.28317C18.1753 9.27574 18.1605 9.26619 18.1424 9.26088C18.1318 9.2577 18.1212 9.25345 18.1116 9.24921C18.0978 9.24602 18.084 9.24284 18.0713 9.23753C18.0564 9.23647 18.0373 9.23222 18.0182 9.22798C18.0097 9.22692 18.0023 9.22586 17.9938 9.22373C17.979 9.22055 17.9599 9.21949 17.9344 9.21949H17.2498C17.1787 9.21949 17.1097 9.19083 17.0588 9.14095L15.9953 8.0796C15.9709 8.05519 15.9433 8.03821 15.9136 8.02441C15.904 8.02017 15.8934 8.0191 15.8838 8.01592C15.8584 8.00849 15.834 8.00106 15.8064 8H15.7979H12.7455C12.6754 8 12.6075 8.02866 12.5598 8.07748L11.4941 9.13991C11.4432 9.19086 11.3742 9.21952 11.302 9.21952H10.6143C10.3182 9.21952 10.0762 9.46045 10.0762 9.75764V17.4769L10.9348 18.9649L12.4609 18.9649ZM16.7009 17.0417C16.1204 17.0417 15.6491 16.5694 15.6491 15.9899C15.6491 15.4093 16.1214 14.9381 16.7009 14.9381C17.2815 14.9381 17.7527 15.4104 17.7527 15.9899C17.7527 16.5704 17.2804 17.0417 16.7009 17.0417ZM10.8815 10.2914C10.8815 10.1417 11.0035 10.0197 11.1532 10.0197H17.3951C17.5448 10.0197 17.6669 10.1417 17.6669 10.2914V13.3204C17.6669 13.47 17.5448 13.5921 17.3951 13.5921H11.1532C11.0035 13.5921 10.8815 13.47 10.8815 13.3204V10.2914ZM11.8463 14.9381C12.4268 14.9381 12.8981 15.4104 12.8981 15.9899C12.8981 16.5705 12.4258 17.0417 11.8463 17.0417C11.2657 17.0417 10.7945 16.5694 10.7945 15.9899C10.7945 15.4094 11.2668 14.9381 11.8463 14.9381Z" fill="white"/>
<path d="M30.6562 17.6158H31.6529V16.4971C31.3376 16.4196 31.0076 16.3326 30.6562 16.2339V17.6158Z" fill="white"/>
<path d="M17.2112 15.9901C17.2112 16.6683 16.1934 16.6683 16.1934 15.9901C16.1934 15.3119 17.2112 15.3119 17.2112 15.9901Z" fill="white"/>
<path d="M16.0568 20.1704H12.6838C12.5342 20.1704 12.4121 20.2925 12.4121 20.4421C12.4121 20.5918 12.5342 20.7138 12.6838 20.7138H16.0568C16.2065 20.7138 16.3285 20.5918 16.3285 20.4421C16.3285 20.2925 16.2065 20.1704 16.0568 20.1704Z" fill="white"/>
<path d="M16.8409 22.1392H11.9045C11.7549 22.1392 11.6328 22.2612 11.6328 22.4109C11.6328 22.5605 11.7549 22.6826 11.9045 22.6826H16.8409C16.9906 22.6826 17.1126 22.5605 17.1126 22.4109C17.1126 22.2612 16.9906 22.1392 16.8409 22.1392Z" fill="white"/>
<path d="M10.8535 24.3796C10.8535 24.5293 10.9756 24.6513 11.1252 24.6513H17.6196C17.7692 24.6513 17.8913 24.5293 17.8913 24.3796C17.8913 24.23 17.7692 24.1079 17.6196 24.1079H11.1252C10.9756 24.1079 10.8535 24.23 10.8535 24.3796Z" fill="white"/>
<path d="M18.56 26.0771H10.1838C10.0342 26.0771 9.91211 26.1992 9.91211 26.3489C9.91211 26.4985 10.0342 26.6206 10.1838 26.6206H18.56C18.7097 26.6206 18.8318 26.4985 18.8318 26.3489C18.8318 26.1992 18.7097 26.0771 18.56 26.0771Z" fill="white"/>
<path d="M18.5528 9.23438L18.3926 9.37235H18.4361L18.5528 9.23438Z" fill="white"/>
<path d="M17.2657 19.5088H16.666L20.0328 26.727C20.0784 26.8257 20.1771 26.8841 20.279 26.8841C20.3172 26.8841 20.3565 26.8756 20.3936 26.8586C20.5295 26.7949 20.5889 26.6336 20.5252 26.4977L17.2658 19.5097L17.2657 19.5088Z" fill="white"/>
<path d="M11.2839 19.5082L8.02558 26.4963C7.9619 26.6321 8.02133 26.7945 8.15719 26.8571C8.19433 26.8741 8.2336 26.8826 8.27181 26.8826C8.3737 26.8826 8.47241 26.8242 8.51805 26.7255L11.8848 19.5073H11.2851L11.2839 19.5082Z" fill="white"/>
</svg>
