<svg width="70" height="70" viewBox="0 0 70 70" fill="none" xmlns="http://www.w3.org/2000/svg">
<rect width="70" height="70" rx="16" fill="#FF6B83"/>
<path d="M49.7679 35.937H39.1432C38.7518 35.9398 38.4355 36.2574 38.4355 36.6502V36.8021H50.4771V36.6502C50.4771 36.2588 50.1595 35.9398 49.7694 35.937H49.7679Z" fill="white"/>
<path d="M40.3752 48.455C40.7387 48.455 41.0355 48.1597 41.0355 47.7947C41.0355 47.4311 40.7401 47.1344 40.3752 47.1344C40.0116 47.1344 39.7148 47.4297 39.7148 47.7947C39.7148 48.1583 40.0102 48.455 40.3752 48.455Z" fill="white"/>
<path d="M38.4356 49.5556H39.369V50.7536C39.369 50.95 39.5292 51.1102 39.7256 51.1102H40.5544C40.7508 51.1102 40.911 50.95 40.911 50.7536V49.5556H48.0017V50.7536C48.0017 50.95 48.1619 51.1102 48.3583 51.1102H49.1871C49.3835 51.1102 49.5437 50.95 49.5437 50.7536V49.5556H50.4771V44.9809L38.4355 44.9795L38.4356 49.5556ZM48.5364 46.4226C49.2929 46.4226 49.91 47.0384 49.91 47.7962C49.91 48.5526 49.2943 49.1697 48.5364 49.1697C47.78 49.1697 47.1629 48.554 47.1629 47.7962C47.1629 47.0397 47.7786 46.4226 48.5364 46.4226ZM43.6733 46.6887H45.2404C45.8505 46.6887 46.3465 47.1846 46.3465 47.7948C46.3465 48.4049 45.8506 48.9009 45.2404 48.9009H43.6733C43.0631 48.9009 42.5672 48.4049 42.5672 47.7948C42.5672 47.1846 43.0631 46.6887 43.6733 46.6887ZM40.3759 46.4226C41.1324 46.4226 41.7495 47.0384 41.7495 47.7962C41.7495 48.5526 41.1337 49.1697 40.3759 49.1697C39.6195 49.1697 39.0024 48.554 39.0024 47.7962C39.0024 47.0397 39.6181 46.4226 40.3759 46.4226Z" fill="white"/>
<path d="M38.4355 37.7135V44.2678H50.4771V37.5142H38.4355V37.7135Z" fill="white"/>
<path d="M24.9673 29.737C24.9673 30.6271 23.6328 30.6271 23.6328 29.737C23.6328 28.8468 24.9673 28.8468 24.9673 29.737Z" fill="white"/>
<path d="M51.1895 38.1284V41.0886H51.2842C51.5614 41.0886 51.7871 40.8629 51.7871 40.5857V38.992C51.7871 38.5978 51.5377 38.2593 51.1895 38.1284Z" fill="white"/>
<path d="M43.6721 48.1885H45.2393C45.4566 48.1885 45.6322 48.0116 45.6322 47.7957C45.6322 47.5784 45.4552 47.4028 45.2393 47.4028H43.6721C43.4548 47.4028 43.2793 47.5797 43.2793 47.7957C43.2793 48.013 43.4562 48.1885 43.6721 48.1885Z" fill="white"/>
<path d="M37.125 38.9929V40.5865C37.125 40.8637 37.3507 41.0894 37.6279 41.0894H37.7226V38.1348C37.3674 38.2699 37.125 38.6042 37.125 38.9929Z" fill="white"/>
<path d="M48.5353 48.4549C48.8989 48.4549 49.1956 48.1596 49.1956 47.7946C49.1956 47.431 48.9003 47.1343 48.5353 47.1343C48.1717 47.1343 47.875 47.4296 47.875 47.7946C47.875 48.1582 48.1703 48.4549 48.5353 48.4549Z" fill="white"/>
<path d="M23.7461 22.6138H31.2254V25.8762H23.7461V22.6138Z" fill="white"/>
<path d="M40.2598 31.8705H42.9873V27.8821C42.0818 27.4711 41.1833 27.0225 40.2598 26.5225V31.8705Z" fill="white"/>
<path d="M35.5153 23.6649L35.4805 23.6426V31.8712H38.2582L38.2568 25.3782C37.3987 24.8642 36.6102 24.3627 35.9318 23.9295C35.7925 23.8431 35.6518 23.7526 35.5139 23.6648L35.5153 23.6649Z" fill="white"/>
<path d="M44.9883 31.8709H47.0611V29.4693C46.359 29.2366 45.6653 28.9859 44.9883 28.7212V31.8709Z" fill="white"/>
<path d="M43.1905 26.0325C42.7823 25.8416 42.3519 25.6285 41.8755 25.3819C40.5005 24.6757 39.3095 23.9555 38.4235 23.4066C38.4179 23.4052 38.3831 23.3829 38.3483 23.3606C37.8468 23.0486 37.3565 22.7379 36.8828 22.4356C34.6679 21.0259 32.8359 19.8585 30.8203 19.4253L31.5349 20.1385H32.2872C32.3652 20.1385 32.4335 20.1441 32.4989 20.158C32.5017 20.158 32.5045 20.158 32.5059 20.1594C32.5658 20.165 32.6229 20.1775 32.687 20.1984C32.7246 20.2068 32.7608 20.2179 32.797 20.2346C32.8569 20.2555 32.9127 20.282 32.9642 20.3113C33.0157 20.3391 33.0631 20.3684 33.1091 20.4046C33.1467 20.4297 33.1815 20.4561 33.2136 20.4854C33.2512 20.5146 33.2846 20.5481 33.3152 20.5857C33.318 20.5871 33.3222 20.5913 33.3278 20.5968C33.3751 20.6428 33.4086 20.6902 33.4337 20.7278C33.4587 20.7556 33.5005 20.8183 33.5353 20.8838C33.5381 20.8894 33.5423 20.8963 33.5437 20.9019C33.5451 20.9033 33.5451 20.9061 33.5465 20.9075C33.5716 20.959 33.5953 21.0147 33.6161 21.0719C33.6189 21.0774 33.6203 21.0844 33.6231 21.09C33.6231 21.0914 33.6245 21.0928 33.6245 21.0955C33.6384 21.1346 33.6496 21.1708 33.6593 21.2098L33.6691 21.2502C33.6747 21.2683 33.6816 21.3031 33.6844 21.3226L33.6955 21.4076C33.7011 21.4633 33.7053 21.5148 33.7053 21.5608V31.7997C33.7053 31.8874 33.6733 31.9682 33.6203 32.0295L32.6884 33.644H52.0613V29.0023C48.8545 28.3058 45.9485 27.3348 43.1875 26.0337L43.1905 26.0325ZM38.9696 32.2273C38.9696 32.4237 38.8094 32.5839 38.6129 32.5839H35.122C34.9256 32.5839 34.7654 32.4237 34.7654 32.2273V22.9941C34.7654 22.8659 34.835 22.7475 34.9465 22.6835C35.0579 22.6208 35.1958 22.6222 35.3059 22.6876C35.3783 22.7308 35.4507 22.7782 35.5218 22.8242C35.6458 22.9022 35.7697 22.9802 35.8965 23.061C36.033 23.1473 36.1709 23.2365 36.313 23.3243C37.0346 23.7868 37.8788 24.3231 38.7954 24.8677C38.9041 24.9318 38.9696 25.0488 38.9696 25.1742L38.9696 32.2273ZM43.7005 32.2273C43.7005 32.4237 43.5403 32.5839 43.3438 32.5839H39.903C39.7066 32.5839 39.5464 32.4237 39.5464 32.2273L39.545 25.9223C39.545 25.7955 39.6119 25.6785 39.7206 25.6144C39.8292 25.5504 39.9643 25.549 40.0744 25.6103C41.2404 26.2594 42.3576 26.8208 43.4887 27.3279C43.6169 27.385 43.6991 27.5131 43.6991 27.6538V32.2285L43.7005 32.2273ZM47.7752 32.2273C47.7752 32.4237 47.615 32.5839 47.4185 32.5839H44.6325C44.4361 32.5839 44.2759 32.4237 44.2759 32.2273V28.1943C44.2759 28.0759 44.3344 27.9645 44.4333 27.899C44.5308 27.8321 44.6575 27.8196 44.7662 27.8642C45.6591 28.2263 46.5883 28.5663 47.5286 28.8713C47.6749 28.9187 47.7752 29.0566 47.7752 29.2098L47.7752 32.2273ZM51.007 32.2273C51.007 32.4237 50.8468 32.5839 50.6504 32.5839H48.6291C48.4327 32.5839 48.2725 32.4237 48.2725 32.2273V29.5861C48.2725 29.4747 48.3254 29.3688 48.4146 29.3005C48.5037 29.2337 48.6193 29.2114 48.728 29.2434C49.4524 29.451 50.1015 29.6237 50.7131 29.77C50.7256 29.7728 50.7381 29.777 50.7507 29.7811C50.8997 29.8243 51.0084 29.9608 51.0084 30.1238V32.2273L51.007 32.2273Z" fill="white"/>
<path d="M25.1065 33.6414V32.279C25.1065 32.0826 25.2667 31.9224 25.4632 31.9224C25.6596 31.9224 25.8198 32.0826 25.8198 32.279V33.6414H27.1292V32.279C27.1292 32.0826 27.2894 31.9224 27.4859 31.9224C27.6823 31.9224 27.8425 32.0826 27.8425 32.279V33.6414H29.1519V32.279C29.1519 32.0826 29.3121 31.9224 29.5086 31.9224C29.705 31.9224 29.8652 32.0826 29.8652 32.279V33.6414H31.8684L32.9953 31.6883L32.9967 21.5568C32.9967 21.5332 32.994 21.5053 32.9912 21.4816L32.9786 21.4064C32.9675 21.3618 32.9633 21.3493 32.9577 21.334C32.9563 21.3284 32.9536 21.3242 32.9522 21.3186C32.9396 21.2852 32.9271 21.2532 32.9132 21.2239C32.9118 21.2211 32.9104 21.2183 32.909 21.2142C32.8964 21.1905 32.8811 21.1682 32.8644 21.1473L32.8783 21.1306C32.8728 21.1097 32.87 21.0888 32.8686 21.0679L32.8296 21.1013C32.8115 21.086 32.7989 21.0707 32.785 21.054C32.7766 21.0456 32.7669 21.0331 32.7627 21.0289C32.7502 21.0219 32.6945 20.9787 32.6833 20.9704C32.6652 20.9551 32.6457 20.9453 32.6262 20.9342C32.6067 20.9244 32.5872 20.9119 32.5635 20.9049C32.5496 20.9007 32.5356 20.8952 32.5231 20.8896C32.505 20.8854 32.4869 20.8812 32.4702 20.8743C32.4507 20.8729 32.4256 20.8673 32.4005 20.8617C32.3894 20.8603 32.3796 20.8589 32.3685 20.8562C32.349 20.852 32.3239 20.8506 32.2905 20.8506H31.392C31.2986 20.8506 31.2081 20.813 31.1412 20.7475L29.7454 19.3545C29.7134 19.3224 29.6771 19.3001 29.6381 19.282C29.6256 19.2765 29.6117 19.2751 29.5991 19.2709C29.5657 19.2611 29.5337 19.2514 29.4974 19.25H29.4863H25.48C25.3881 19.25 25.299 19.2876 25.2363 19.3517L23.8377 20.7461C23.7708 20.813 23.6802 20.8506 23.5855 20.8506H22.6828C22.2942 20.8506 21.9766 21.1668 21.9766 21.5569V31.6884L23.1035 33.6414L25.1065 33.6414ZM30.6716 31.1172C29.9096 31.1172 29.2911 30.4973 29.2911 29.7367C29.2911 28.9747 29.911 28.3562 30.6716 28.3562C31.4335 28.3562 32.0521 28.9761 32.0521 29.7367C32.0521 30.4987 31.4322 31.1172 30.6716 31.1172ZM23.0335 22.2574C23.0335 22.061 23.1937 21.9008 23.3901 21.9008H31.5827C31.7791 21.9008 31.9393 22.061 31.9393 22.2574V26.233C31.9393 26.4294 31.7791 26.5896 31.5827 26.5896H23.3901C23.1937 26.5896 23.0335 26.4294 23.0335 26.233V22.2574ZM24.2998 28.3563C25.0618 28.3563 25.6803 28.9762 25.6803 29.7368C25.6803 30.4988 25.0604 31.1173 24.2998 31.1173C23.5378 31.1173 22.9193 30.4974 22.9193 29.7368C22.9193 28.9748 23.5392 28.3563 24.2998 28.3563Z" fill="white"/>
<path d="M48.9863 31.8709H50.2944V30.4026C49.8807 30.3009 49.4474 30.1867 48.9863 30.0571V31.8709Z" fill="white"/>
<path d="M31.3418 29.737C31.3418 30.6271 30.0059 30.6271 30.0059 29.737C30.0059 28.8468 31.3418 28.8468 31.3418 29.737Z" fill="white"/>
<path d="M29.8247 35.2234H25.3976C25.2012 35.2234 25.041 35.3836 25.041 35.5801C25.041 35.7765 25.2012 35.9367 25.3976 35.9367H29.8247C30.0211 35.9367 30.1813 35.7765 30.1813 35.5801C30.1813 35.3836 30.0211 35.2234 29.8247 35.2234Z" fill="white"/>
<path d="M30.8532 37.8076H24.3742C24.1778 37.8076 24.0176 37.9678 24.0176 38.1642C24.0176 38.3607 24.1778 38.5209 24.3742 38.5209H30.8532C31.0496 38.5209 31.2098 38.3607 31.2098 38.1642C31.2098 37.9678 31.0496 37.8076 30.8532 37.8076Z" fill="white"/>
<path d="M22.9961 40.7482C22.9961 40.9446 23.1563 41.1048 23.3527 41.1048H31.8766C32.073 41.1048 32.2332 40.9446 32.2332 40.7482C32.2332 40.5518 32.073 40.3916 31.8766 40.3916H23.3527C23.1563 40.3916 22.9961 40.5518 22.9961 40.7482Z" fill="white"/>
<path d="M33.1102 42.9761H22.1164C21.92 42.9761 21.7598 43.1363 21.7598 43.3327C21.7598 43.5291 21.92 43.6893 22.1164 43.6893H33.1102C33.3066 43.6893 33.4668 43.5291 33.4668 43.3327C33.4668 43.1363 33.3066 42.9761 33.1102 42.9761Z" fill="white"/>
<path d="M33.101 20.8701L32.8906 21.0512H32.9477L33.101 20.8701Z" fill="white"/>
<path d="M31.4121 34.3551H30.625L35.0438 43.829C35.1037 43.9585 35.2333 44.0352 35.367 44.0352C35.4172 44.0352 35.4687 44.024 35.5175 44.0017C35.6958 43.9181 35.7738 43.7064 35.6902 43.5281L31.4122 34.3563L31.4121 34.3551Z" fill="white"/>
<path d="M23.5601 34.3549L19.2836 43.5267C19.2 43.705 19.278 43.9182 19.4563 44.0003C19.5051 44.0226 19.5566 44.0338 19.6068 44.0338C19.7405 44.0338 19.87 43.9571 19.9299 43.8276L24.3488 34.3537H23.5617L23.5601 34.3549Z" fill="white"/>
</svg>
