<svg width="48" height="60" viewBox="0 0 48 60" fill="none" xmlns="http://www.w3.org/2000/svg">
<path d="M23.8 0C26.26 0 28.64 0.37 30.87 1.07C31.99 1.42 33.07 1.85 34.11 2.35C34.8 2.68 35.48 3.05 36.13 3.45C36.29 3.55 36.46 3.65 36.62 3.75C36.78 3.85 36.94 3.96 37.1 4.06C37.42 4.27 37.73 4.49 38.03 4.72C38.18 4.83 38.33 4.95 38.48 5.07C38.63 5.19 38.78 5.31 38.93 5.43C39.22 5.67 39.51 5.92 39.79 6.18C40.07 6.43 40.34 6.69 40.61 6.96V6.98C42.09 8.46 43.37 10.13 44.42 11.95C44.8 12.61 45.15 13.3 45.47 14C45.55 14.18 45.63 14.35 45.7 14.53C46.9 17.38 47.57 20.5 47.57 23.79C47.57 26.1 47.24 28.34 46.62 30.46C42.2 46.43 23.78 59.47 23.78 59.47C23.78 59.47 5.38 46.44 0.950001 30.48C0.330001 28.36 0 26.11 0 23.79C0 17.02 2.83 10.9 7.38 6.57C7.79 6.18 8.22 5.8 8.66 5.43C8.81 5.31 8.96 5.19 9.11 5.07C9.26 4.95 9.41 4.84 9.56 4.72C9.87 4.49 10.18 4.27 10.49 4.06C10.65 3.95 10.81 3.85 10.97 3.75C11.13 3.65 11.29 3.55 11.46 3.45C11.62 3.35 11.79 3.25 11.95 3.16C12.12 3.06 12.28 2.97 12.45 2.88C12.62 2.79 12.79 2.7 12.96 2.61C13.13 2.52 13.3 2.44 13.48 2.35C14 2.1 14.53 1.87 15.07 1.65C15.61 1.44 16.16 1.24 16.72 1.07C18.95 0.37 21.33 0 23.79 0" fill="#6E00FF"/>
<path fill-rule="evenodd" clip-rule="evenodd" d="M12.5401 28.9303C15.5501 28.0703 18.03 28.0503 22.41 31.0203L28.25 29.7103C29.15 29.5103 29.6601 29.7703 29.9801 30.2003C30.1901 30.4803 30.26 30.8003 30.18 31.1403C30.1 31.4803 29.91 31.7403 29.6101 31.9003L23.3301 35.1803C22.7601 35.5603 23.1501 36.1903 23.6101 35.9703L30.8001 32.2403C31.1001 32.0803 31.32 31.8603 31.46 31.5403C31.62 31.2003 31.85 30.9103 32.17 30.6803L38 26.4603C39.48 25.3903 40.64 26.8803 40.18 27.4203L33.06 34.8703L25.46 38.9103C24.45 39.4403 23.4601 39.6303 22.3301 39.5003L12.6501 38.3703C12.2801 38.3303 12 38.0003 12 37.6203V29.6503C12 29.3103 12.21 29.0203 12.53 28.9203L12.5401 28.9303ZM16.59 11.3103H35.81C36.1 11.3103 36.0401 11.0703 36.0401 10.7603V10.1403C36.0401 9.67031 36.11 9.41031 35.71 9.21031L26.67 4.80031C26.37 4.66031 26.0301 4.66031 25.7301 4.80031L16.7601 9.22031C16.3601 9.42031 16.3601 9.67031 16.3601 10.1403V10.7603C16.3601 11.0603 16.2901 11.3103 16.5801 11.3103H16.59ZM26.2 6.84031C26.96 6.84031 27.57 7.47031 27.57 8.25031C27.57 9.03031 26.95 9.67031 26.2 9.67031C25.45 9.67031 24.8301 9.03031 24.8301 8.25031C24.8301 7.47031 25.44 6.84031 26.2 6.84031ZM21.8701 14.0003C22.0801 14.0003 22.06 13.8803 22.06 13.6503V12.5503C22.06 12.1403 21.76 12.1403 21.38 12.1403H18.92C18.55 12.1403 18.24 12.1403 18.24 12.5503V13.6803C18.24 13.9103 18.2701 14.0003 18.43 14.0003H18.71V21.1603H18.4701C18.2501 21.1603 18.25 21.2503 18.25 21.4703V22.6203C18.25 23.0303 18.55 23.0303 18.93 23.0303H21.39C21.76 23.0303 22.07 23.0303 22.07 22.6203V21.4703C22.07 21.2403 22.0301 21.1703 21.8301 21.1703H21.6V14.0103H21.88L21.8701 14.0003ZM35.63 24.4703H35.31V24.3803C35.31 23.9403 35.39 23.5703 34.99 23.5703H17.4801C17.0801 23.5703 17.1 23.9303 17.1 24.3803V24.4703H16.48C16.13 24.4703 16.1501 24.7803 16.1501 25.1603V26.2503C16.1501 26.6303 16.2301 26.9403 16.5801 26.9403H35.81C36.18 26.9403 36.27 26.7403 36.27 26.3603V24.8303C36.27 24.4503 35.98 24.4603 35.64 24.4603L35.63 24.4703ZM34.2 14.0003C34.41 14.0003 34.39 13.8803 34.39 13.6503V12.5503C34.39 12.1403 34.09 12.1403 33.71 12.1403H31.24C30.87 12.1403 30.56 12.1403 30.56 12.5503V13.6803C30.56 13.9103 30.59 14.0003 30.75 14.0003H31.03V21.1603H30.7901C30.5601 21.1603 30.56 21.2503 30.56 21.4703V22.6203C30.56 23.0303 30.86 23.0303 31.24 23.0303H33.71C34.08 23.0303 34.39 23.0303 34.39 22.6203V21.4703C34.39 21.2403 34.3501 21.1703 34.1501 21.1703H33.93V14.0103H34.21L34.2 14.0003ZM28.13 14.0003C28.35 14.0003 28.32 13.8803 28.32 13.6503V12.5503C28.32 12.1403 28.02 12.1403 27.64 12.1403H25.17C24.8 12.1403 24.49 12.1403 24.49 12.5503V13.6803C24.49 13.9103 24.5201 14.0003 24.68 14.0003H24.96V21.1603H24.7201C24.4901 21.1603 24.49 21.2503 24.49 21.4703V22.6203C24.49 23.0303 24.79 23.0303 25.17 23.0303H27.64C28.01 23.0303 28.32 23.0303 28.32 22.6203V21.4703C28.32 21.2403 28.2801 21.1703 28.0801 21.1703H27.8601V14.0103H28.14L28.13 14.0003ZM8.03005 28.9903H10.3801C10.7801 28.9903 11.1101 29.3303 11.1101 29.7403V38.2003C11.1101 39.0303 10.4501 39.7103 9.65005 39.7103H8.03005C7.63005 39.7103 7.30005 39.3703 7.30005 38.9503V29.7403C7.30005 29.3203 7.63005 28.9803 8.03005 28.9803V28.9903Z" fill="white"/>
</svg>
