<svg width="29" height="45" viewBox="0 0 29 45" fill="none" xmlns="http://www.w3.org/2000/svg">
<path d="M21.478 14.3683C21.478 18.3345 18.2321 21.5522 14.2281 21.5522C10.2236 21.5522 6.97825 18.3345 6.97825 14.3683C6.97825 10.4009 10.2241 7.18427 14.2281 7.18427C18.2329 7.18399 21.478 10.4006 21.478 14.3683ZM29 14.3683C29 6.43274 22.5085 0 14.5 0C6.49204 0 0 6.43274 0 14.3683C0 17.8573 1.25628 21.0563 3.34392 23.5447L14.5125 39.5125L25.8445 23.3118C26.2515 22.8071 26.6242 22.2751 26.9605 21.7159L27.0751 21.5531H27.0563C28.2903 19.4384 29 16.9866 29 14.3683Z" fill="url(#paint0_linear_140_548)"/>
<path d="M21.2208 14.3792C21.2208 18.2485 18.0687 21.3876 14.1804 21.3876C10.2915 21.3876 7.13996 18.2485 7.13996 14.3792C7.13996 10.5089 10.2921 7.37091 14.1804 7.37091C18.0695 7.37064 21.2208 10.5086 21.2208 14.3792ZM28.5256 14.3792C28.5256 6.63775 22.2216 0.362305 14.4444 0.362305C6.66779 0.362305 0.363281 6.63775 0.363281 14.3792C0.363281 17.7829 1.58328 20.9038 3.61061 23.3313L14.4566 38.9087L25.4612 23.1041C25.8564 22.6117 26.2184 22.0928 26.545 21.5473L26.6563 21.3884H26.638C27.8364 19.3254 28.5256 16.9335 28.5256 14.3792Z" fill="url(#paint1_linear_140_548)"/>
<circle cx="14.5016" cy="14.5003" r="11.9625" fill="url(#paint2_linear_140_548)"/>
<circle cx="14.4719" cy="14.4703" r="11.2077" fill="url(#paint3_linear_140_548)"/>
<circle cx="14.5024" cy="14.5007" r="10.875" fill="url(#paint4_linear_140_548)"/>
<path fill-rule="evenodd" clip-rule="evenodd" d="M10.201 16.8436C11.2472 16.5434 12.1111 16.5356 13.6345 17.5699L15.6678 17.1141C15.9816 17.0436 16.1595 17.1368 16.2712 17.2856C16.3435 17.3821 16.3675 17.4949 16.3417 17.6133C16.3158 17.7321 16.2472 17.8234 16.1419 17.8783L13.9558 19.0213C13.7574 19.1538 13.894 19.3713 14.0528 19.2967L16.5562 17.9981C16.6611 17.9436 16.7359 17.8649 16.7866 17.7554C16.8419 17.6363 16.9239 17.538 17.0349 17.4574L19.0636 15.9904C19.5796 15.6171 19.9828 16.1359 19.8215 16.3244L17.3429 18.9152L14.6979 20.321C14.3482 20.5069 14.0014 20.573 13.6101 20.5269L10.2406 20.1324C10.1112 20.1172 10.0149 20.0055 10.0149 19.8712V17.0967C10.0149 16.9772 10.0893 16.8759 10.201 16.8436ZM11.6094 10.7101H18.2959C18.3958 10.7101 18.3772 10.6248 18.3772 10.5194V10.3019C18.3772 10.1383 18.402 10.0477 18.2618 9.97941L15.1176 8.44447C15.0145 8.394 14.8948 8.394 14.7917 8.44447L11.6702 9.9809C11.53 10.0492 11.5322 10.1383 11.5322 10.3019V10.5194C11.5322 10.6248 11.5095 10.7101 11.6094 10.7101ZM14.9548 9.15702C15.2175 9.15702 15.4314 9.37783 15.4314 9.64912C15.4314 9.92078 15.2175 10.1416 14.9548 10.1416C14.6921 10.1416 14.4783 9.92078 14.4783 9.64912C14.4783 9.37783 14.6921 9.15702 14.9548 9.15702ZM13.4455 11.6468C13.5199 11.6468 13.5116 11.6045 13.5116 11.5244V11.1406C13.5116 10.9963 13.4056 10.9989 13.2755 10.9989H12.418C12.2879 10.9989 12.1819 10.9963 12.1819 11.1406V11.5344C12.1819 11.6146 12.1916 11.6468 12.2488 11.6468H12.3454V14.137H12.2603C12.1819 14.1356 12.1819 14.1678 12.1819 14.2432V14.6421C12.1819 14.7865 12.2879 14.785 12.418 14.785H13.2755C13.4056 14.785 13.5116 14.7865 13.5116 14.6421V14.241C13.5116 14.1612 13.4979 14.1374 13.4261 14.1374L13.3481 14.137V11.6468H13.4455ZM18.2341 15.2912H18.1234V15.2608C18.1234 15.1064 18.1493 14.9806 18.011 14.9806H16.5641H15.9959H11.9178C11.7794 14.9806 11.7855 15.1064 11.7855 15.2608V15.2912H11.5713C11.4506 15.2912 11.4553 15.3992 11.4553 15.5317V15.9132C11.4553 16.0461 11.4818 16.1537 11.6026 16.1537H15.9959H16.5641H18.2938C18.4232 16.1537 18.4533 16.0847 18.4533 15.9522V15.4196C18.4533 15.2871 18.3549 15.2912 18.2341 15.2912ZM17.7368 11.6468C17.8115 11.6468 17.8029 11.6045 17.8029 11.5244V11.1406C17.8029 10.9963 17.6972 10.9989 17.5671 10.9989H16.7093C16.5792 10.9989 16.4736 10.9963 16.4736 11.1406V11.5344C16.4736 11.6146 16.4829 11.6468 16.5404 11.6468H16.6371V14.137H16.5519C16.4736 14.1356 16.4736 14.1678 16.4736 14.2432V14.6421C16.4736 14.7865 16.5792 14.785 16.7093 14.785H17.5671C17.6972 14.785 17.8029 14.7865 17.8029 14.6421V14.241C17.8029 14.1612 17.7896 14.1374 17.7174 14.1374L17.6397 14.137V11.6468H17.7368ZM15.6236 11.6468C15.6984 11.6468 15.6898 11.6045 15.6898 11.5244V11.1406C15.6898 10.9963 15.5841 10.9989 15.454 10.9989H14.5962C14.4661 10.9989 14.3604 10.9963 14.3604 11.1406V11.5344C14.3604 11.6146 14.3698 11.6468 14.4273 11.6468H14.524V14.137H14.4388C14.3604 14.1356 14.3604 14.1678 14.3604 14.2432V14.6421C14.3604 14.7865 14.4661 14.785 14.5962 14.785H15.454C15.5841 14.785 15.6898 14.7865 15.6898 14.6421V14.241C15.6898 14.1612 15.6765 14.1374 15.6042 14.1374L15.5266 14.137V11.6468H15.6236ZM8.63237 16.8636H9.44958C9.58938 16.8636 9.70366 16.9813 9.70366 17.126V20.069C9.70366 20.3581 9.4751 20.5941 9.19515 20.5941H8.63237C8.49221 20.5941 8.37793 20.4761 8.37793 20.3314V17.126C8.37793 16.9813 8.49221 16.8636 8.63237 16.8636Z" fill="#DFBD01"/>
<ellipse cx="14.3189" cy="42.4127" rx="9.24375" ry="1.8125" fill="url(#paint5_radial_140_548)" fill-opacity="0.6"/>
<defs>
<linearGradient id="paint0_linear_140_548" x1="-5.10031e-08" y1="7.98909" x2="22.0987" y2="32.6139" gradientUnits="userSpaceOnUse">
<stop stop-color="#DFBD01"/>
<stop offset="1" stop-color="#CBB01B"/>
</linearGradient>
<linearGradient id="paint1_linear_140_548" x1="0.363281" y1="8.15605" x2="21.932" y2="32.081" gradientUnits="userSpaceOnUse">
<stop stop-color="#DFBD01"/>
<stop offset="1" stop-color="#DAB902"/>
</linearGradient>
<linearGradient id="paint2_linear_140_548" x1="26.5277" y1="19.562" x2="1.18487" y2="11.0499" gradientUnits="userSpaceOnUse">
<stop stop-color="#DFBD01"/>
<stop offset="1" stop-color="#C4A600"/>
</linearGradient>
<linearGradient id="paint3_linear_140_548" x1="25.7392" y1="19.2126" x2="1.99541" y2="11.2376" gradientUnits="userSpaceOnUse">
<stop stop-color="white"/>
<stop offset="1" stop-color="#999999"/>
</linearGradient>
<linearGradient id="paint4_linear_140_548" x1="4.89619" y1="10.332" x2="24.1087" y2="25.3757" gradientUnits="userSpaceOnUse">
<stop stop-color="white"/>
<stop offset="1" stop-color="#C7C7C7"/>
</linearGradient>
<radialGradient id="paint5_radial_140_548" cx="0" cy="0" r="1" gradientUnits="userSpaceOnUse" gradientTransform="translate(14.3189 42.4127) scale(9.24375 1.8125)">
<stop stop-opacity="0.8"/>
<stop offset="1" stop-color="#666666" stop-opacity="0"/>
</radialGradient>
</defs>
</svg>
