<svg width="29" height="45" viewBox="0 0 29 45" fill="none" xmlns="http://www.w3.org/2000/svg">
<path d="M21.478 14.3683C21.478 18.3345 18.2321 21.5522 14.2281 21.5522C10.2236 21.5522 6.97825 18.3345 6.97825 14.3683C6.97825 10.4009 10.2241 7.18427 14.2281 7.18427C18.2329 7.18399 21.478 10.4006 21.478 14.3683ZM29 14.3683C29 6.43274 22.5085 0 14.5 0C6.49204 0 0 6.43274 0 14.3683C0 17.8573 1.25628 21.0563 3.34392 23.5447L14.5125 39.5125L25.8445 23.3118C26.2515 22.8071 26.6242 22.2751 26.9605 21.7159L27.0751 21.5531H27.0563C28.2903 19.4384 29 16.9866 29 14.3683Z" fill="#6E00FF"/>
<path d="M21.2206 14.3792C21.2206 18.2485 18.0685 21.3876 14.1801 21.3876C10.2913 21.3876 7.13971 18.2485 7.13971 14.3792C7.13971 10.5089 10.2918 7.37091 14.1801 7.37091C18.0693 7.37064 21.2206 10.5086 21.2206 14.3792ZM28.5253 14.3792C28.5253 6.63775 22.2214 0.362305 14.4442 0.362305C6.66754 0.362305 0.363037 6.63775 0.363037 14.3792C0.363037 17.7829 1.58303 20.9038 3.61036 23.3313L14.4564 38.9087L25.461 23.1041C25.8562 22.6117 26.2182 22.0928 26.5448 21.5473L26.656 21.3884H26.6378C27.8362 19.3254 28.5253 16.9335 28.5253 14.3792Z" fill="#6E00FF"/>
<circle cx="14.5016" cy="14.5001" r="11.9625" fill="#6E00FF"/>
<circle cx="14.4719" cy="14.4699" r="11.2077" fill="url(#paint0_linear_1206_2512)"/>
<circle cx="14.5022" cy="14.5005" r="10.875" fill="url(#paint1_linear_1206_2512)"/>
<path fill-rule="evenodd" clip-rule="evenodd" d="M10.201 16.8432C11.2472 16.543 12.1111 16.5352 13.6345 17.5695L15.6678 17.1138C15.9816 17.0433 16.1595 17.1364 16.2712 17.2852C16.3435 17.3817 16.3675 17.4945 16.3417 17.6129C16.3158 17.7317 16.2472 17.823 16.1419 17.8779L13.9558 19.021C13.7574 19.1534 13.894 19.3709 14.0528 19.2963L16.5562 17.9978C16.6611 17.9432 16.7359 17.8646 16.7866 17.7551C16.8419 17.6359 16.9239 17.5376 17.0349 17.4571L19.0636 15.99C19.5796 15.6167 19.9828 16.1355 19.8215 16.324L17.3429 18.9148L14.6979 20.3206C14.3482 20.5065 14.0014 20.5726 13.6101 20.5266L10.2406 20.1321C10.1112 20.1169 10.0149 20.0052 10.0149 19.8708V17.0963C10.0149 16.9768 10.0893 16.8755 10.201 16.8432ZM11.6094 10.7098H18.2959C18.3958 10.7098 18.3772 10.6244 18.3772 10.519V10.3015C18.3772 10.1379 18.402 10.0473 18.2618 9.97905L15.1176 8.4441C15.0145 8.39363 14.8948 8.39363 14.7917 8.4441L11.6702 9.98053C11.53 10.0488 11.5322 10.1379 11.5322 10.3015V10.519C11.5322 10.6244 11.5095 10.7098 11.6094 10.7098ZM14.9548 9.15665C15.2175 9.15665 15.4314 9.37746 15.4314 9.64875C15.4314 9.92041 15.2175 10.1412 14.9548 10.1412C14.6921 10.1412 14.4783 9.92041 14.4783 9.64875C14.4783 9.37746 14.6921 9.15665 14.9548 9.15665ZM13.4455 11.6465C13.5199 11.6465 13.5116 11.6042 13.5116 11.524V11.1403C13.5116 10.9959 13.4056 10.9985 13.2755 10.9985H12.418C12.2879 10.9985 12.1819 10.9959 12.1819 11.1403V11.534C12.1819 11.6142 12.1916 11.6465 12.2488 11.6465H12.3454V14.1367H12.2603C12.1819 14.1352 12.1819 14.1675 12.1819 14.2428V14.6418C12.1819 14.7861 12.2879 14.7846 12.418 14.7846H13.2755C13.4056 14.7846 13.5116 14.7861 13.5116 14.6418V14.2406C13.5116 14.1608 13.4979 14.137 13.4261 14.137L13.3481 14.1367V11.6465H13.4455ZM18.2341 15.2909H18.1234V15.2604C18.1234 15.106 18.1493 14.9802 18.011 14.9802H16.5641H15.9959H11.9178C11.7794 14.9802 11.7855 15.106 11.7855 15.2604V15.2909H11.5713C11.4506 15.2909 11.4553 15.3988 11.4553 15.5313V15.9128C11.4553 16.0457 11.4818 16.1533 11.6026 16.1533H15.9959H16.5641H18.2938C18.4232 16.1533 18.4533 16.0843 18.4533 15.9518V15.4193C18.4533 15.2868 18.3549 15.2909 18.2341 15.2909ZM17.7368 11.6465C17.8115 11.6465 17.8029 11.6042 17.8029 11.524V11.1403C17.8029 10.9959 17.6972 10.9985 17.5671 10.9985H16.7093C16.5792 10.9985 16.4736 10.9959 16.4736 11.1403V11.534C16.4736 11.6142 16.4829 11.6465 16.5404 11.6465H16.6371V14.1367H16.5519C16.4736 14.1352 16.4736 14.1675 16.4736 14.2428V14.6418C16.4736 14.7861 16.5792 14.7846 16.7093 14.7846H17.5671C17.6972 14.7846 17.8029 14.7861 17.8029 14.6418V14.2406C17.8029 14.1608 17.7896 14.137 17.7174 14.137L17.6397 14.1367V11.6465H17.7368ZM15.6236 11.6465C15.6984 11.6465 15.6898 11.6042 15.6898 11.524V11.1403C15.6898 10.9959 15.5841 10.9985 15.454 10.9985H14.5962C14.4661 10.9985 14.3604 10.9959 14.3604 11.1403V11.534C14.3604 11.6142 14.3698 11.6465 14.4273 11.6465H14.524V14.1367H14.4388C14.3604 14.1352 14.3604 14.1675 14.3604 14.2428V14.6418C14.3604 14.7861 14.4661 14.7846 14.5962 14.7846H15.454C15.5841 14.7846 15.6898 14.7861 15.6898 14.6418V14.2406C15.6898 14.1608 15.6765 14.137 15.6042 14.137L15.5266 14.1367V11.6465H15.6236ZM8.63237 16.8633H9.44958C9.58938 16.8633 9.70366 16.9809 9.70366 17.1257V20.0686C9.70366 20.3577 9.4751 20.5938 9.19515 20.5938H8.63237C8.49221 20.5938 8.37793 20.4757 8.37793 20.331V17.1257C8.37793 16.9809 8.49221 16.8633 8.63237 16.8633Z" fill="#6E00FF"/>
<ellipse cx="14.3192" cy="42.4126" rx="9.24375" ry="1.8125" fill="url(#paint2_radial_1206_2512)" fill-opacity="0.6"/>
<defs>
<linearGradient id="paint0_linear_1206_2512" x1="25.7392" y1="19.2122" x2="1.99541" y2="11.2372" gradientUnits="userSpaceOnUse">
<stop stop-color="white"/>
<stop offset="1" stop-color="#999999"/>
</linearGradient>
<linearGradient id="paint1_linear_1206_2512" x1="4.89595" y1="10.3317" x2="24.1084" y2="25.3755" gradientUnits="userSpaceOnUse">
<stop stop-color="white"/>
<stop offset="1" stop-color="#C7C7C7"/>
</linearGradient>
<radialGradient id="paint2_radial_1206_2512" cx="0" cy="0" r="1" gradientUnits="userSpaceOnUse" gradientTransform="translate(14.3192 42.4126) scale(9.24375 1.8125)">
<stop stop-opacity="0.8"/>
<stop offset="1" stop-color="#666666" stop-opacity="0"/>
</radialGradient>
</defs>
</svg>
