<svg width="29" height="45" viewBox="0 0 29 45" fill="none" xmlns="http://www.w3.org/2000/svg">
<path d="M21.478 14.3683C21.478 18.3345 18.2321 21.5522 14.2281 21.5522C10.2236 21.5522 6.97825 18.3345 6.97825 14.3683C6.97825 10.4009 10.2241 7.18427 14.2281 7.18427C18.2329 7.18399 21.478 10.4006 21.478 14.3683ZM29 14.3683C29 6.43274 22.5085 0 14.5 0C6.49204 0 0 6.43274 0 14.3683C0 17.8573 1.25628 21.0563 3.34392 23.5447L14.5125 39.5125L25.8445 23.3118C26.2515 22.8071 26.6242 22.2751 26.9605 21.7159L27.0751 21.5531H27.0563C28.2903 19.4384 29 16.9866 29 14.3683Z" fill="#708090"/>
<path d="M21.2208 14.3792C21.2208 18.2485 18.0687 21.3876 14.1804 21.3876C10.2915 21.3876 7.13996 18.2485 7.13996 14.3792C7.13996 10.5089 10.2921 7.37091 14.1804 7.37091C18.0695 7.37064 21.2208 10.5086 21.2208 14.3792ZM28.5256 14.3792C28.5256 6.63775 22.2216 0.362305 14.4444 0.362305C6.66779 0.362305 0.363281 6.63775 0.363281 14.3792C0.363281 17.7829 1.58328 20.9038 3.61061 23.3313L14.4566 38.9087L25.4612 23.1041C25.8564 22.6117 26.2184 22.0928 26.545 21.5473L26.6563 21.3884H26.638C27.8364 19.3254 28.5256 16.9335 28.5256 14.3792Z" fill="#708090"/>
<circle cx="14.5016" cy="14.5001" r="11.9625" fill="#708090"/>
<circle cx="14.4714" cy="14.4699" r="11.2077" fill="url(#paint0_linear_1177_939)"/>
<circle cx="14.502" cy="14.5005" r="10.875" fill="url(#paint1_linear_1177_939)"/>
<path fill-rule="evenodd" clip-rule="evenodd" d="M12.8248 15.1908L15.207 16.1241V16.5566C15.0384 16.6309 14.9194 16.8066 14.9194 17.0116V19H23V17.0116C23 16.7398 22.7918 16.5198 22.5353 16.5198H15.561V15.9972V15.9904V15.5654C15.561 15.4618 15.4817 15.3777 15.384 15.3777C15.2862 15.3777 15.2069 15.4618 15.2069 15.5654V15.7239L12.9217 14.8289C12.9118 14.8251 12.9026 14.8221 12.8927 14.8206C12.9054 14.7455 12.9175 14.6697 12.9288 14.5946L10.5537 13.0538L8.17929 14.5946C8.23809 14.991 8.31458 15.3785 8.4095 15.7547L10.4615 14.4241L10.4629 14.4226C10.4891 14.4069 10.5188 14.3971 10.5507 14.3963H10.5571C10.589 14.3971 10.6187 14.4069 10.6449 14.4226C10.6449 14.4234 10.6456 14.4234 10.6463 14.4241L11.4461 14.943C11.5289 14.997 11.5559 15.1127 11.5049 15.2013C11.4539 15.2891 11.3448 15.3169 11.2612 15.2629L10.7306 14.919V17.5582C10.8461 17.5176 10.9637 17.4651 11.0827 17.4148C11.3773 17.2871 11.6734 17.167 11.9461 17.167C12.0375 17.167 12.1282 17.1805 12.2167 17.2038C12.3633 16.8569 12.4894 16.4987 12.5964 16.1293L11.8661 15.6555C11.7832 15.6014 11.757 15.4858 11.808 15.3972C11.859 15.3093 11.9681 15.2815 12.0517 15.3356L12.6977 15.7546C12.7445 15.5691 12.787 15.3814 12.8245 15.1907L12.8248 15.1908ZM14.7069 18.9999V17.4831C14.3236 17.643 13.7626 17.854 13.3525 17.854C13.1145 17.854 12.8921 17.7459 12.6711 17.634L12.6279 17.6123C12.4062 17.5004 12.1838 17.3923 11.9465 17.3923C11.4513 17.3923 10.8747 17.854 10.3789 17.854C9.88876 17.854 9.46375 17.3923 8.97359 17.3923C8.47775 17.3923 7.90116 17.854 7.40605 17.854C6.91517 17.854 6 17.3923 6 17.3923V18.9999L14.7069 18.9999ZM8.51176 16.1292C8.61518 16.4874 8.73701 16.835 8.87726 17.1714C8.90984 17.1684 8.94172 17.1669 8.97359 17.1669C9.24984 17.1669 9.50909 17.2893 9.76764 17.42C9.96669 17.5198 10.1636 17.6279 10.3768 17.6287V14.9187L8.51176 16.1292ZM17.9058 16.2944H16.3318V11.2139H17.9058V16.2944ZM16.9424 14.5343V15.4752C16.9424 15.5788 17.0218 15.6629 17.1195 15.6629C17.2173 15.6629 17.2966 15.5788 17.2966 15.4752V14.5343C17.2966 14.4307 17.2173 14.3466 17.1195 14.3466C17.0218 14.3466 16.9424 14.4307 16.9424 14.5343ZM8.94814 13.8315V12.8516C8.94814 12.6324 9.11531 12.4552 9.32214 12.4552H11.7857C11.9926 12.4552 12.1605 12.6324 12.1605 12.8516V13.8315L10.6652 12.8622C10.5972 12.8179 10.5114 12.8179 10.4427 12.8622L8.94814 13.8315ZM16.9424 12.1128V13.0536C16.9424 13.1572 17.0218 13.2413 17.1195 13.2413C17.2173 13.2413 17.2966 13.1572 17.2966 13.0536V12.1128C17.2966 12.0092 17.2173 11.9251 17.1195 11.9251C17.0218 11.9251 16.9424 12.0092 16.9424 12.1128ZM11.2984 12.2299H9.8102L10.1169 11H10.991L11.2984 12.2299Z" fill="#708090"/>
<ellipse cx="14.3189" cy="42.4126" rx="9.24375" ry="1.8125" fill="url(#paint2_radial_1177_939)" fill-opacity="0.6"/>
<defs>
<linearGradient id="paint0_linear_1177_939" x1="25.7387" y1="19.2122" x2="1.99492" y2="11.2372" gradientUnits="userSpaceOnUse">
<stop stop-color="white"/>
<stop offset="1" stop-color="#999999"/>
</linearGradient>
<linearGradient id="paint1_linear_1177_939" x1="4.8957" y1="10.3317" x2="24.1082" y2="25.3755" gradientUnits="userSpaceOnUse">
<stop stop-color="white"/>
<stop offset="1" stop-color="#C7C7C7"/>
</linearGradient>
<radialGradient id="paint2_radial_1177_939" cx="0" cy="0" r="1" gradientUnits="userSpaceOnUse" gradientTransform="translate(14.3189 42.4126) scale(9.24375 1.8125)">
<stop/>
<stop offset="1" stop-color="#666666" stop-opacity="0"/>
</radialGradient>
</defs>
</svg>
