<svg width="29" height="45" viewBox="0 0 29 45" fill="none" xmlns="http://www.w3.org/2000/svg">
<path d="M21.478 14.3683C21.478 18.3345 18.2321 21.5522 14.2281 21.5522C10.2236 21.5522 6.97825 18.3345 6.97825 14.3683C6.97825 10.4009 10.2241 7.18427 14.2281 7.18427C18.2329 7.18399 21.478 10.4006 21.478 14.3683ZM29 14.3683C29 6.43274 22.5085 0 14.5 0C6.49204 0 0 6.43274 0 14.3683C0 17.8573 1.25628 21.0563 3.34392 23.5447L14.5125 39.5125L25.8445 23.3118C26.2515 22.8071 26.6242 22.2751 26.9605 21.7159L27.0751 21.5531H27.0563C28.2903 19.4384 29 16.9866 29 14.3683Z" fill="#708090"/>
<path d="M21.2208 14.3792C21.2208 18.2485 18.0687 21.3876 14.1804 21.3876C10.2915 21.3876 7.13996 18.2485 7.13996 14.3792C7.13996 10.5089 10.2921 7.37091 14.1804 7.37091C18.0695 7.37064 21.2208 10.5086 21.2208 14.3792ZM28.5256 14.3792C28.5256 6.63775 22.2216 0.362305 14.4444 0.362305C6.66779 0.362305 0.363281 6.63775 0.363281 14.3792C0.363281 17.7829 1.58328 20.9038 3.61061 23.3313L14.4566 38.9087L25.4612 23.1041C25.8564 22.6117 26.2184 22.0928 26.545 21.5473L26.6563 21.3884H26.638C27.8364 19.3254 28.5256 16.9335 28.5256 14.3792Z" fill="#708090"/>
<circle cx="14.5016" cy="14.5001" r="11.9625" fill="#708090"/>
<circle cx="14.4714" cy="14.4699" r="11.2077" fill="url(#paint0_linear_1177_898)"/>
<circle cx="14.502" cy="14.5005" r="10.875" fill="url(#paint1_linear_1177_898)"/>
<path d="M16.6071 18.0201C16.3024 17.722 15.9317 17.5703 15.5062 17.5703C15.0684 17.5703 14.6913 17.722 14.3848 18.0201C14.0801 18.3211 13.9248 18.6948 13.9248 19.1314C13.9248 19.5575 14.0798 19.9283 14.3848 20.2331C14.691 20.539 15.0675 20.6945 15.5062 20.6945C15.9319 20.6945 16.3033 20.539 16.6074 20.2335C16.9128 19.9286 17.0675 19.5579 17.0675 19.1314C17.0671 18.6942 16.9128 18.3198 16.6071 18.0201ZM15.9694 19.597C15.8414 19.7254 15.6866 19.7882 15.5061 19.7882C15.3253 19.7882 15.1709 19.7251 15.0419 19.597C14.9132 19.4674 14.8493 19.3133 14.8493 19.1314C14.8493 18.9523 14.9135 18.798 15.0419 18.6695C15.1709 18.5402 15.3255 18.4742 15.5061 18.4742C15.6866 18.4742 15.8412 18.54 15.9694 18.6695C16.0981 18.7981 16.1628 18.9523 16.1628 19.1314C16.1625 19.3133 16.0981 19.4674 15.9694 19.597Z" fill="#708090"/>
<path d="M8 9V20.6945H10.1941V9H8ZM9.10633 10.9815C9.31761 10.9815 9.48893 11.1528 9.48893 11.3638C9.48893 11.5752 9.31761 11.7465 9.10633 11.7465C8.89506 11.7465 8.72374 11.5752 8.72374 11.3638C8.72374 11.1527 8.89506 10.9815 9.10633 10.9815ZM9.10723 12.9652C8.89596 12.9652 8.72464 12.7939 8.72464 12.5828C8.72464 12.3715 8.89596 12.2002 9.10723 12.2002C9.3185 12.2002 9.48982 12.3715 9.48982 12.5828C9.48982 12.7939 9.3185 12.9652 9.10723 12.9652Z" fill="#708090"/>
<path d="M21.7272 12.8555H22.7346V11.9963H18.7409C18.4824 11.9963 18.1372 12.0928 17.9729 12.3663L16.5745 14.9591H15.4083V12.6405C15.4083 12.1473 15.0069 11.7458 14.5137 11.7458H13.7659C13.6337 10.9304 12.8709 10.3042 11.9463 10.3042V11.0989H10.7687C10.617 11.0989 10.4941 11.2219 10.4941 11.3734C10.4941 11.5251 10.6171 11.6481 10.7687 11.6481H11.9463V12.3406H10.7687C10.617 12.3406 10.4941 12.4636 10.4941 12.6152C10.4941 12.7669 10.6171 12.8899 10.7687 12.8899H11.9463V13.6884C12.8709 13.6884 13.6337 13.0621 13.7659 12.2468H14.5137C14.7308 12.2468 14.9074 12.4234 14.9074 12.6403V14.9591H13.8645C13.2446 14.9591 12.742 15.4211 12.742 15.9916V16.1567H12.7445C12.7445 16.3211 12.7445 16.6467 12.7445 16.6467V17.3766H12.279V18.2863C12.279 18.6072 12.4412 18.7696 12.7632 18.7696H13.2084C13.2471 18.2279 13.4961 17.7666 13.9533 17.3852C14.4119 17.0058 14.8954 16.8442 15.4635 16.8442C16.1691 16.8442 16.8529 17.1434 17.2759 17.6945C17.7389 18.2981 17.666 19.0216 17.666 19.0216L22.7346 19.0233V14.8828L21.4114 14.8762L21.411 13.1716C21.411 12.9963 21.5519 12.8555 21.7272 12.8555ZM17.6213 14.8793L18.5142 13.0446C18.6009 12.9065 18.7129 12.8647 18.8672 12.8647H20.3069C20.5527 12.8647 20.6748 12.9873 20.6748 13.2334L20.6765 14.8792L17.6213 14.8793Z" fill="#708090"/>
<ellipse cx="14.3189" cy="42.4126" rx="9.24375" ry="1.8125" fill="url(#paint2_radial_1177_898)" fill-opacity="0.6"/>
<defs>
<linearGradient id="paint0_linear_1177_898" x1="25.7387" y1="19.2122" x2="1.99492" y2="11.2372" gradientUnits="userSpaceOnUse">
<stop stop-color="white"/>
<stop offset="1" stop-color="#999999"/>
</linearGradient>
<linearGradient id="paint1_linear_1177_898" x1="4.8957" y1="10.3317" x2="24.1082" y2="25.3755" gradientUnits="userSpaceOnUse">
<stop stop-color="white"/>
<stop offset="1" stop-color="#C7C7C7"/>
</linearGradient>
<radialGradient id="paint2_radial_1177_898" cx="0" cy="0" r="1" gradientUnits="userSpaceOnUse" gradientTransform="translate(14.3189 42.4126) scale(9.24375 1.8125)">
<stop/>
<stop offset="1" stop-color="#666666" stop-opacity="0"/>
</radialGradient>
</defs>
</svg>
