<svg width="48" height="60" viewBox="0 0 48 60" fill="none" xmlns="http://www.w3.org/2000/svg">
<path d="M23.8 0C26.26 0 28.64 0.370001 30.87 1.07C31.99 1.42 33.07 1.85 34.11 2.35C34.8 2.68 35.48 3.05 36.13 3.45C36.29 3.55 36.46 3.65 36.62 3.75C36.78 3.85 36.94 3.96 37.1 4.06C37.42 4.27 37.73 4.49 38.03 4.72C38.18 4.83 38.33 4.95 38.48 5.07C38.63 5.19 38.78 5.31 38.93 5.43C39.22 5.67 39.51 5.92 39.79 6.18C40.07 6.43 40.34 6.69 40.61 6.96V6.98C42.09 8.46 43.37 10.13 44.42 11.95C44.8 12.61 45.15 13.3 45.47 14C45.55 14.18 45.63 14.35 45.7 14.53C46.9 17.38 47.57 20.5 47.57 23.79C47.57 26.1 47.24 28.34 46.62 30.46C42.2 46.43 23.78 59.47 23.78 59.47C23.78 59.47 5.38 46.44 0.950001 30.48C0.330001 28.36 0 26.11 0 23.79C0 17.02 2.83 10.9 7.38 6.57C7.79 6.18 8.22 5.8 8.66 5.43C8.81 5.31 8.96 5.19 9.11 5.07C9.26 4.95 9.41 4.84 9.56 4.72C9.87 4.49 10.18 4.27 10.49 4.06C10.65 3.95 10.81 3.85 10.97 3.75C11.13 3.65 11.29 3.55 11.46 3.45C11.62 3.35 11.79 3.25 11.95 3.16C12.12 3.06 12.28 2.97 12.45 2.88C12.62 2.79 12.79 2.7 12.96 2.61C13.13 2.52 13.3 2.44 13.48 2.35C14 2.1 14.53 1.87 15.07 1.65C15.61 1.44 16.16 1.24 16.72 1.07C18.95 0.370001 21.33 0 23.79 0" fill="#223080"/>
<path d="M24.36 10.2599V8.88992H27.45C27.76 8.88992 28.01 8.62992 28.01 8.32992V5.22992C28.01 4.91992 27.75 4.66992 27.45 4.66992H23.8C23.64 4.66992 23.51 4.72992 23.41 4.82992C23.31 4.92992 23.23 5.06992 23.23 5.22992V10.2599C19.5 10.5399 16.5 13.5199 16.23 17.2499H31.36C31.09 13.5199 28.1 10.5299 24.36 10.2599Z" fill="white"/>
<path d="M37.4399 21.2202H10.1599V22.8402H37.4399V21.2202Z" fill="white"/>
<path d="M30.2698 36.75V23.98H17.3198V36.75H19.9298V30.81C19.9298 28.68 21.6698 26.95 23.7998 26.95C24.8298 26.95 25.7998 27.35 26.5298 28.08C27.2598 28.81 27.6598 29.78 27.6598 30.81V36.75H30.2598H30.2698Z" fill="white"/>
<path d="M23.8098 28.0698C22.2898 28.0698 21.0598 29.2998 21.0598 30.7998V36.7298H26.5498V30.7998C26.5498 30.0698 26.2598 29.3798 25.7398 28.8598C25.2198 28.3398 24.5298 28.0698 23.7998 28.0698" fill="white"/>
<path d="M33.09 18.8901C33.09 18.6101 32.86 18.3701 32.58 18.3701H15.03C14.74 18.3701 14.51 18.6101 14.51 18.8901V20.0901H33.08V18.8901H33.09Z" fill="white"/>
<path d="M37.7399 37.8701H9.84985V39.7301H37.7399V37.8701Z" fill="white"/>
<path d="M36.4599 23.98H31.3999V36.75H36.4599V23.98ZM34.3499 27.2C34.3499 26.89 34.5999 26.64 34.9099 26.64C35.2199 26.64 35.4699 26.9 35.4699 27.2V33.51C35.4699 33.82 35.2199 34.07 34.9099 34.07C34.5999 34.07 34.3499 33.81 34.3499 33.51V27.2ZM32.3899 27.2C32.3899 26.89 32.6499 26.64 32.9499 26.64C33.2499 26.64 33.5099 26.9 33.5099 27.2V33.51C33.5099 33.82 33.2599 34.07 32.9499 34.07C32.6399 34.07 32.3899 33.81 32.3899 33.51V27.2Z" fill="white"/>
<path d="M16.1899 23.98H11.1299V36.75H16.1899V23.98ZM14.0799 27.2C14.0799 26.89 14.3399 26.64 14.6399 26.64C14.9399 26.64 15.1999 26.9 15.1999 27.2V33.51C15.1999 33.82 14.9399 34.07 14.6399 34.07C14.3399 34.07 14.0799 33.81 14.0799 33.51V27.2ZM12.1199 27.2C12.1199 26.89 12.3699 26.64 12.6799 26.64C12.9899 26.64 13.2399 26.9 13.2399 27.2V33.51C13.2399 33.82 12.9899 34.07 12.6799 34.07C12.3699 34.07 12.1199 33.81 12.1199 33.51V27.2Z" fill="white"/>
</svg>
