<svg width="29" height="45" viewBox="0 0 29 45" fill="none" xmlns="http://www.w3.org/2000/svg">
<path d="M21.478 14.3683C21.478 18.3345 18.2321 21.5522 14.2281 21.5522C10.2236 21.5522 6.97825 18.3345 6.97825 14.3683C6.97825 10.4009 10.2241 7.18427 14.2281 7.18427C18.2329 7.18399 21.478 10.4006 21.478 14.3683ZM29 14.3683C29 6.43274 22.5085 0 14.5 0C6.49204 0 0 6.43274 0 14.3683C0 17.8573 1.25628 21.0563 3.34392 23.5447L14.5125 39.5125L25.8445 23.3118C26.2515 22.8071 26.6242 22.2751 26.9605 21.7159L27.0751 21.5531H27.0563C28.2903 19.4384 29 16.9866 29 14.3683Z" fill="#223080"/>
<path d="M21.2206 14.3792C21.2206 18.2485 18.0685 21.3876 14.1801 21.3876C10.2913 21.3876 7.13971 18.2485 7.13971 14.3792C7.13971 10.5089 10.2918 7.37091 14.1801 7.37091C18.0693 7.37064 21.2206 10.5086 21.2206 14.3792ZM28.5253 14.3792C28.5253 6.63775 22.2214 0.362305 14.4442 0.362305C6.66754 0.362305 0.363037 6.63775 0.363037 14.3792C0.363037 17.7829 1.58303 20.9038 3.61036 23.3313L14.4564 38.9087L25.461 23.1041C25.8562 22.6117 26.2182 22.0928 26.5448 21.5473L26.656 21.3884H26.6378C27.8362 19.3254 28.5253 16.9335 28.5253 14.3792Z" fill="#223080"/>
<circle cx="14.5016" cy="14.5001" r="11.9625" fill="#223080"/>
<circle cx="14.4719" cy="14.4699" r="11.2077" fill="url(#paint0_linear_1206_2624)"/>
<circle cx="14.5022" cy="14.5005" r="10.875" fill="url(#paint1_linear_1206_2624)"/>
<path d="M14.8607 10.3536V9.87762H15.9351C16.0417 9.87762 16.1306 9.78875 16.1306 9.6821V8.60177C16.1306 8.49512 16.0417 8.40625 15.9351 8.40625H14.6671C14.6118 8.40625 14.5644 8.42797 14.5289 8.46352C14.4933 8.49907 14.4676 8.54647 14.4676 8.60177V10.3536C13.1681 10.4504 12.1273 11.4892 12.0325 12.7868H17.2958C17.201 11.4892 16.1602 10.4504 14.8607 10.3536Z" fill="#223080"/>
<path d="M19.411 14.1675H9.91919V14.7323H19.411V14.1675Z" fill="#223080"/>
<path d="M16.9166 19.5692V15.1255H12.4116V19.5692H13.3201V17.5034C13.3201 16.7628 13.9245 16.1604 14.6671 16.1604C15.0245 16.1604 15.3642 16.2986 15.617 16.5534C15.8718 16.8082 16.0101 17.1439 16.0101 17.5034V19.5692H16.9166Z" fill="#223080"/>
<path d="M14.6671 16.5508C14.1398 16.5508 13.7112 16.9774 13.7112 17.5027V19.5666H15.621V17.5027C15.621 17.248 15.5203 17.007 15.3406 16.8273C15.1589 16.6476 14.9199 16.5508 14.6671 16.5508Z" fill="#223080"/>
<path d="M17.8963 13.3575C17.8963 13.2587 17.8153 13.1777 17.7185 13.1777H11.6119C11.5111 13.1777 11.4321 13.2607 11.4321 13.3575V13.7762H17.8943V13.3575H17.8963Z" fill="#223080"/>
<path d="M19.5156 19.96H9.8125V20.6078H19.5156V19.96Z" fill="#223080"/>
<path d="M19.071 19.5692V15.1255H17.3093V19.5692H19.071ZM18.3363 16.2473C18.3363 16.1406 18.4232 16.0518 18.5318 16.0518C18.6385 16.0518 18.7274 16.1406 18.7274 16.2473V18.4435C18.7274 18.5501 18.6385 18.639 18.5318 18.639C18.4232 18.639 18.3363 18.5501 18.3363 18.4435V16.2473ZM17.653 16.2473C17.653 16.1406 17.7418 16.0518 17.8485 16.0518C17.9571 16.0518 18.044 16.1406 18.044 16.2473V18.4435C18.044 18.5501 17.9571 18.639 17.8485 18.639C17.7418 18.639 17.653 18.5501 17.653 18.4435V16.2473Z" fill="#223080"/>
<path d="M12.0183 19.5692V15.1255H10.2585V19.5692H12.0183ZM11.2836 16.2473C11.2836 16.1406 11.3724 16.0518 11.4791 16.0518C11.5857 16.0518 11.6746 16.1406 11.6746 16.2473V18.4435C11.6746 18.5501 11.5857 18.639 11.4791 18.639C11.3724 18.639 11.2836 18.5501 11.2836 18.4435V16.2473ZM10.6022 16.2473C10.6022 16.1406 10.6891 16.0518 10.7977 16.0518C10.9044 16.0518 10.9932 16.1406 10.9932 16.2473V18.4435C10.9932 18.5501 10.9044 18.639 10.7977 18.639C10.6891 18.639 10.6022 18.5501 10.6022 18.4435V16.2473Z" fill="#223080"/>
<ellipse cx="14.3192" cy="42.4126" rx="9.24375" ry="1.8125" fill="url(#paint2_radial_1206_2624)" fill-opacity="0.6"/>
<defs>
<linearGradient id="paint0_linear_1206_2624" x1="25.7392" y1="19.2122" x2="1.99541" y2="11.2372" gradientUnits="userSpaceOnUse">
<stop stop-color="white"/>
<stop offset="1" stop-color="#999999"/>
</linearGradient>
<linearGradient id="paint1_linear_1206_2624" x1="4.89595" y1="10.3317" x2="24.1084" y2="25.3755" gradientUnits="userSpaceOnUse">
<stop stop-color="white"/>
<stop offset="1" stop-color="#C7C7C7"/>
</linearGradient>
<radialGradient id="paint2_radial_1206_2624" cx="0" cy="0" r="1" gradientUnits="userSpaceOnUse" gradientTransform="translate(14.3192 42.4126) scale(9.24375 1.8125)">
<stop stop-opacity="0.8"/>
<stop offset="1" stop-color="#666666" stop-opacity="0"/>
</radialGradient>
</defs>
</svg>
