<svg width="29" height="45" viewBox="0 0 29 45" fill="none" xmlns="http://www.w3.org/2000/svg">
<path d="M21.478 14.3683C21.478 18.3345 18.2321 21.5522 14.2281 21.5522C10.2236 21.5522 6.97825 18.3345 6.97825 14.3683C6.97825 10.4009 10.2241 7.18427 14.2281 7.18427C18.2329 7.18399 21.478 10.4006 21.478 14.3683ZM29 14.3683C29 6.43274 22.5085 0 14.5 0C6.49204 0 0 6.43274 0 14.3683C0 17.8573 1.25628 21.0563 3.34392 23.5447L14.5125 39.5125L25.8445 23.3118C26.2515 22.8071 26.6242 22.2751 26.9605 21.7159L27.0751 21.5531H27.0563C28.2903 19.4384 29 16.9866 29 14.3683Z" fill="url(#paint0_linear_140_660)"/>
<path d="M21.2208 14.3792C21.2208 18.2485 18.0687 21.3876 14.1804 21.3876C10.2915 21.3876 7.13996 18.2485 7.13996 14.3792C7.13996 10.5089 10.2921 7.37091 14.1804 7.37091C18.0695 7.37064 21.2208 10.5086 21.2208 14.3792ZM28.5256 14.3792C28.5256 6.63775 22.2216 0.362305 14.4444 0.362305C6.66779 0.362305 0.363281 6.63775 0.363281 14.3792C0.363281 17.7829 1.58328 20.9038 3.61061 23.3313L14.4566 38.9087L25.4612 23.1041C25.8564 22.6117 26.2184 22.0928 26.545 21.5473L26.6563 21.3884H26.638C27.8364 19.3254 28.5256 16.9335 28.5256 14.3792Z" fill="url(#paint1_linear_140_660)"/>
<circle cx="14.5016" cy="14.5003" r="11.9625" fill="url(#paint2_linear_140_660)"/>
<circle cx="14.4719" cy="14.4703" r="11.2077" fill="url(#paint3_linear_140_660)"/>
<circle cx="14.5024" cy="14.5007" r="10.875" fill="url(#paint4_linear_140_660)"/>
<path d="M14.8609 10.3538V9.87786H15.9353C16.042 9.87786 16.1308 9.78899 16.1308 9.68234V8.60202C16.1308 8.49537 16.042 8.40649 15.9353 8.40649H14.6674C14.6121 8.40649 14.5647 8.42822 14.5291 8.46377C14.4936 8.49932 14.4679 8.54672 14.4679 8.60202V10.3538C13.1683 10.4506 12.1275 11.4895 12.0327 12.787H17.2961C17.2013 11.4895 16.1605 10.4506 14.8609 10.3538Z" fill="#006400"/>
<path d="M19.4108 14.1677H9.91895V14.7326H19.4108V14.1677Z" fill="#006400"/>
<path d="M16.9166 19.5693V15.1256H12.4116V19.5693H13.3201V17.5035C13.3201 16.7629 13.9245 16.1605 14.6671 16.1605C15.0245 16.1605 15.3642 16.2988 15.617 16.5535C15.8718 16.8083 16.0101 17.1441 16.0101 17.5035V19.5693H16.9166Z" fill="#006400"/>
<path d="M14.6673 16.5513C14.14 16.5513 13.7114 16.9779 13.7114 17.5032V19.5671H15.6212V17.5032C15.6212 17.2484 15.5205 17.0075 15.3408 16.8278C15.1591 16.648 14.9201 16.5513 14.6673 16.5513Z" fill="#006400"/>
<path d="M17.8963 13.3577C17.8963 13.259 17.8153 13.178 17.7185 13.178H11.6119C11.5111 13.178 11.4321 13.2609 11.4321 13.3577V13.7764H17.8943V13.3577H17.8963Z" fill="#006400"/>
<path d="M19.5156 19.9602H9.8125V20.608H19.5156V19.9602Z" fill="#006400"/>
<path d="M19.0708 19.5693V15.1256H17.3091V19.5693H19.0708ZM18.3361 16.2474C18.3361 16.1408 18.423 16.0519 18.5316 16.0519C18.6383 16.0519 18.7271 16.1408 18.7271 16.2474V18.4436C18.7271 18.5502 18.6383 18.6391 18.5316 18.6391C18.423 18.6391 18.3361 18.5502 18.3361 18.4436V16.2474ZM17.6527 16.2474C17.6527 16.1408 17.7416 16.0519 17.8483 16.0519C17.9569 16.0519 18.0438 16.1408 18.0438 16.2474V18.4436C18.0438 18.5502 17.9569 18.6391 17.8483 18.6391C17.7416 18.6391 17.6527 18.5502 17.6527 18.4436V16.2474Z" fill="#006400"/>
<path d="M12.0185 19.5693V15.1256H10.2588V19.5693H12.0185ZM11.2838 16.2474C11.2838 16.1408 11.3727 16.0519 11.4793 16.0519C11.586 16.0519 11.6749 16.1408 11.6749 16.2474V18.4436C11.6749 18.5502 11.586 18.6391 11.4793 18.6391C11.3727 18.6391 11.2838 18.5502 11.2838 18.4436V16.2474ZM10.6024 16.2474C10.6024 16.1408 10.6893 16.0519 10.798 16.0519C10.9046 16.0519 10.9935 16.1408 10.9935 16.2474V18.4436C10.9935 18.5502 10.9046 18.6391 10.798 18.6391C10.6893 18.6391 10.6024 18.5502 10.6024 18.4436V16.2474Z" fill="#006400"/>
<ellipse cx="14.3189" cy="42.4127" rx="9.24375" ry="1.8125" fill="url(#paint5_radial_140_660)" fill-opacity="0.6"/>
<defs>
<linearGradient id="paint0_linear_140_660" x1="-5.10031e-08" y1="7.98909" x2="22.0987" y2="32.6139" gradientUnits="userSpaceOnUse">
<stop stop-color="#006400"/>
<stop offset="1" stop-color="#006400"/>
</linearGradient>
<linearGradient id="paint1_linear_140_660" x1="0.363281" y1="8.15605" x2="21.932" y2="32.081" gradientUnits="userSpaceOnUse">
<stop stop-color="#006400"/>
<stop offset="1" stop-color="#005C00"/>
</linearGradient>
<linearGradient id="paint2_linear_140_660" x1="26.5277" y1="19.562" x2="1.18487" y2="11.0499" gradientUnits="userSpaceOnUse">
<stop stop-color="#008000"/>
<stop offset="1" stop-color="#045B04"/>
</linearGradient>
<linearGradient id="paint3_linear_140_660" x1="25.7392" y1="19.2126" x2="1.99541" y2="11.2376" gradientUnits="userSpaceOnUse">
<stop stop-color="white"/>
<stop offset="1" stop-color="#999999"/>
</linearGradient>
<linearGradient id="paint4_linear_140_660" x1="4.89619" y1="10.332" x2="24.1087" y2="25.3757" gradientUnits="userSpaceOnUse">
<stop stop-color="white"/>
<stop offset="1" stop-color="#C7C7C7"/>
</linearGradient>
<radialGradient id="paint5_radial_140_660" cx="0" cy="0" r="1" gradientUnits="userSpaceOnUse" gradientTransform="translate(14.3189 42.4127) scale(9.24375 1.8125)">
<stop stop-opacity="0.8"/>
<stop offset="1" stop-color="#666666" stop-opacity="0"/>
</radialGradient>
</defs>
</svg>
