<svg width="48" height="60" viewBox="0 0 48 60" fill="none" xmlns="http://www.w3.org/2000/svg">
<path d="M23.8 0C26.26 0 28.64 0.37 30.87 1.07C31.99 1.42 33.07 1.85 34.11 2.35C34.8 2.68 35.48 3.05 36.13 3.45C36.29 3.55 36.46 3.65 36.62 3.75C36.78 3.85 36.94 3.96 37.1 4.06C37.42 4.27 37.73 4.49 38.03 4.72C38.18 4.83 38.33 4.95 38.48 5.07C38.63 5.19 38.78 5.31 38.93 5.43C39.22 5.67 39.51 5.92 39.79 6.18C40.07 6.43 40.34 6.69 40.61 6.96V6.98C42.09 8.46 43.37 10.13 44.42 11.95C44.8 12.61 45.15 13.3 45.47 14C45.55 14.18 45.63 14.35 45.7 14.53C46.9 17.38 47.57 20.5 47.57 23.79C47.57 26.1 47.24 28.34 46.62 30.46C42.2 46.43 23.78 59.47 23.78 59.47C23.78 59.47 5.38 46.44 0.950001 30.48C0.330001 28.36 0 26.11 0 23.79C0 17.02 2.83 10.9 7.38 6.57C7.79 6.18 8.22 5.8 8.66 5.43C8.81 5.31 8.96 5.19 9.11 5.07C9.26 4.95 9.41 4.84 9.56 4.72C9.87 4.49 10.18 4.27 10.49 4.06C10.65 3.95 10.81 3.85 10.97 3.75C11.13 3.65 11.29 3.55 11.46 3.45C11.62 3.35 11.79 3.25 11.95 3.16C12.12 3.06 12.28 2.97 12.45 2.88C12.62 2.79 12.79 2.7 12.96 2.61C13.13 2.52 13.3 2.44 13.48 2.35C14 2.1 14.53 1.87 15.07 1.65C15.61 1.44 16.16 1.24 16.72 1.07C18.95 0.37 21.33 0 23.79 0" fill="#CC2527"/>
<path d="M38.1697 19.7497C38.1697 19.4197 37.8997 19.1497 37.5697 19.1497H29.7897C29.4597 19.1497 29.1897 18.8797 29.1897 18.5497V10.7597C29.1897 10.4297 28.9197 10.1597 28.5897 10.1597H19.0097C18.6797 10.1597 18.4097 10.4297 18.4097 10.7597V18.5497C18.4097 18.8797 18.1397 19.1497 17.8097 19.1497H10.0297C9.69969 19.1497 9.42969 19.4197 9.42969 19.7497V29.3297C9.42969 29.6597 9.69969 29.9297 10.0297 29.9297H17.8097C18.1397 29.9297 18.4097 30.1997 18.4097 30.5297V38.3197C18.4097 38.6497 18.6797 38.9197 19.0097 38.9197H28.5897C28.9197 38.9197 29.1897 38.6497 29.1897 38.3197V30.5297C29.1897 30.1997 29.4597 29.9297 29.7897 29.9297H37.5697C37.8997 29.9297 38.1697 29.6597 38.1697 29.3297V19.7497Z" fill="white"/>
</svg>
