<svg width="29" height="45" viewBox="0 0 29 45" fill="none" xmlns="http://www.w3.org/2000/svg">
<path d="M21.478 14.3683C21.478 18.3345 18.2321 21.5522 14.2281 21.5522C10.2236 21.5522 6.97825 18.3345 6.97825 14.3683C6.97825 10.4009 10.2241 7.18427 14.2281 7.18427C18.2329 7.18399 21.478 10.4006 21.478 14.3683ZM29 14.3683C29 6.43274 22.5085 0 14.5 0C6.49204 0 0 6.43274 0 14.3683C0 17.8573 1.25628 21.0563 3.34392 23.5447L14.5125 39.5125L25.8445 23.3118C26.2515 22.8071 26.6242 22.2751 26.9605 21.7159L27.0751 21.5531H27.0563C28.2903 19.4384 29 16.9866 29 14.3683Z" fill="url(#paint0_linear_1206_3347)"/>
<path d="M21.2208 14.3792C21.2208 18.2485 18.0687 21.3876 14.1804 21.3876C10.2915 21.3876 7.13996 18.2485 7.13996 14.3792C7.13996 10.5089 10.2921 7.37091 14.1804 7.37091C18.0695 7.37064 21.2208 10.5086 21.2208 14.3792ZM28.5256 14.3792C28.5256 6.63775 22.2216 0.362305 14.4444 0.362305C6.66779 0.362305 0.363281 6.63775 0.363281 14.3792C0.363281 17.7829 1.58328 20.9038 3.61061 23.3313L14.4566 38.9087L25.4612 23.1041C25.8564 22.6117 26.2184 22.0928 26.545 21.5473L26.6563 21.3884H26.638C27.8364 19.3254 28.5256 16.9335 28.5256 14.3792Z" fill="url(#paint1_linear_1206_3347)"/>
<circle cx="14.5016" cy="14.5001" r="11.9625" fill="url(#paint2_linear_1206_3347)"/>
<circle cx="14.4719" cy="14.4699" r="11.2077" fill="url(#paint3_linear_1206_3347)"/>
<circle cx="14.5024" cy="14.5005" r="10.875" fill="url(#paint4_linear_1206_3347)"/>
<path d="M19.5005 12.8333C19.5005 12.7188 19.4067 12.625 19.2922 12.625H16.5838C16.4692 12.625 16.3755 12.5312 16.3755 12.4167V9.70833C16.3755 9.59375 16.2817 9.5 16.1672 9.5H12.8338C12.7192 9.5 12.6255 9.59375 12.6255 9.70833V12.4167C12.6255 12.5312 12.5317 12.625 12.4172 12.625H9.70882C9.59424 12.625 9.50049 12.7188 9.50049 12.8333V16.1667C9.50049 16.2812 9.59424 16.375 9.70882 16.375H12.4172C12.5317 16.375 12.6255 16.4687 12.6255 16.5833V19.2917C12.6255 19.4062 12.7192 19.5 12.8338 19.5H16.1672C16.2817 19.5 16.3755 19.4062 16.3755 19.2917V16.5833C16.3755 16.4687 16.4692 16.375 16.5838 16.375H19.2922C19.4067 16.375 19.5005 16.2812 19.5005 16.1667V12.8333Z" fill="#CC2527"/>
<ellipse cx="14.3189" cy="42.4126" rx="9.24375" ry="1.8125" fill="url(#paint5_radial_1206_3347)" fill-opacity="0.6"/>
<defs>
<linearGradient id="paint0_linear_1206_3347" x1="-5.10031e-08" y1="7.98909" x2="22.0987" y2="32.6139" gradientUnits="userSpaceOnUse">
<stop stop-color="#AD0B01"/>
<stop offset="1" stop-color="#B10B01"/>
</linearGradient>
<linearGradient id="paint1_linear_1206_3347" x1="0.363281" y1="8.15605" x2="21.932" y2="32.081" gradientUnits="userSpaceOnUse">
<stop stop-color="#DA0D00"/>
<stop offset="1" stop-color="#AB0B02"/>
</linearGradient>
<linearGradient id="paint2_linear_1206_3347" x1="26.5277" y1="19.5618" x2="1.18487" y2="11.0497" gradientUnits="userSpaceOnUse">
<stop stop-color="#D80D00"/>
<stop offset="1" stop-color="#B00B01"/>
</linearGradient>
<linearGradient id="paint3_linear_1206_3347" x1="25.7392" y1="19.2122" x2="1.99541" y2="11.2372" gradientUnits="userSpaceOnUse">
<stop stop-color="white"/>
<stop offset="1" stop-color="#999999"/>
</linearGradient>
<linearGradient id="paint4_linear_1206_3347" x1="4.89619" y1="10.3317" x2="24.1087" y2="25.3755" gradientUnits="userSpaceOnUse">
<stop stop-color="white"/>
<stop offset="1" stop-color="#C7C7C7"/>
</linearGradient>
<radialGradient id="paint5_radial_1206_3347" cx="0" cy="0" r="1" gradientUnits="userSpaceOnUse" gradientTransform="translate(14.3189 42.4126) scale(9.24375 1.8125)">
<stop stop-opacity="0.8"/>
<stop offset="1" stop-color="#666666" stop-opacity="0"/>
</radialGradient>
</defs>
</svg>
