<svg width="29" height="45" viewBox="0 0 29 45" fill="none" xmlns="http://www.w3.org/2000/svg">
<path d="M21.478 14.3683C21.478 18.3345 18.2321 21.5522 14.2281 21.5522C10.2236 21.5522 6.97825 18.3345 6.97825 14.3683C6.97825 10.4009 10.2241 7.18427 14.2281 7.18427C18.2329 7.18399 21.478 10.4006 21.478 14.3683ZM29 14.3683C29 6.43274 22.5085 0 14.5 0C6.49204 0 0 6.43274 0 14.3683C0 17.8573 1.25628 21.0563 3.34392 23.5447L14.5125 39.5125L25.8445 23.3118C26.2515 22.8071 26.6242 22.2751 26.9605 21.7159L27.0751 21.5531H27.0563C28.2903 19.4384 29 16.9866 29 14.3683Z" fill="url(#paint0_linear_140_922)"/>
<path d="M21.2208 14.3792C21.2208 18.2485 18.0687 21.3876 14.1804 21.3876C10.2915 21.3876 7.13996 18.2485 7.13996 14.3792C7.13996 10.5089 10.2921 7.37091 14.1804 7.37091C18.0695 7.37064 21.2208 10.5086 21.2208 14.3792ZM28.5256 14.3792C28.5256 6.63775 22.2216 0.362305 14.4444 0.362305C6.66779 0.362305 0.363281 6.63775 0.363281 14.3792C0.363281 17.7829 1.58328 20.9038 3.61061 23.3313L14.4566 38.9087L25.4612 23.1041C25.8564 22.6117 26.2184 22.0928 26.545 21.5473L26.6563 21.3884H26.638C27.8364 19.3254 28.5256 16.9335 28.5256 14.3792Z" fill="url(#paint1_linear_140_922)"/>
<circle cx="14.5016" cy="14.5003" r="11.9625" fill="url(#paint2_linear_140_922)"/>
<circle cx="14.4719" cy="14.4703" r="11.2077" fill="url(#paint3_linear_140_922)"/>
<circle cx="14.5024" cy="14.5007" r="10.875" fill="url(#paint4_linear_140_922)"/>
<path fill-rule="evenodd" clip-rule="evenodd" d="M20.1254 19.3085V20.1254H8.87549V19.3085H20.1254ZM19.3086 18.296V18.2965C19.4167 18.2965 19.5042 18.3841 19.5042 18.4922C19.5042 18.6003 19.4167 18.6878 19.3086 18.6878H9.69235C9.58425 18.6878 9.4967 18.6003 9.4967 18.4922C9.4967 18.3841 9.58425 18.2965 9.69235 18.2965L19.3086 18.296ZM9.69235 13.5578C9.58474 13.5578 9.49719 13.4703 9.49719 13.3627C9.49719 13.2551 9.58474 13.168 9.69235 13.168H19.3086C19.4162 13.168 19.5037 13.2551 19.5037 13.3627C19.5037 13.4703 19.4162 13.5578 19.3086 13.5578H9.69235ZM17.6759 13.9491V17.9052H18.4927L18.4922 13.9491H17.6759ZM15.287 13.9491V17.9052H16.1038L16.1034 13.9491H15.287ZM10.5093 13.9491V17.9052H11.3261L11.3256 13.9491H10.5093ZM12.8981 13.9491V17.9052H13.715L13.7145 13.9491H12.8981ZM14.5005 8.87537L8.87556 12.5462H20.1255L14.5005 8.87537ZM14.5005 9.89814C14.952 9.89814 15.3585 10.1696 15.5311 10.5868C15.7043 11.0036 15.6084 11.4834 15.2895 11.8028C14.9706 12.1217 14.4903 12.2171 14.0735 12.0444C13.6568 11.8718 13.3848 11.4648 13.3848 11.0138C13.3848 10.3975 13.8842 9.89814 14.5005 9.89814ZM14.5005 10.2894C14.7935 10.2894 15.0576 10.4655 15.1697 10.7365C15.2822 11.007 15.22 11.3186 15.0126 11.526C14.8058 11.7328 14.4942 11.795 14.2232 11.683C13.9527 11.571 13.7761 11.3068 13.7761 11.0138C13.7761 10.8216 13.8524 10.6372 13.9884 10.5012C14.1239 10.3657 14.3083 10.2894 14.5005 10.2894Z" fill="#8B4513"/>
<ellipse cx="14.3189" cy="42.4127" rx="9.24375" ry="1.8125" fill="url(#paint5_radial_140_922)" fill-opacity="0.6"/>
<defs>
<linearGradient id="paint0_linear_140_922" x1="-5.10031e-08" y1="7.98909" x2="22.0987" y2="32.6139" gradientUnits="userSpaceOnUse">
<stop stop-color="#8B4513"/>
<stop offset="1" stop-color="#8D4614"/>
</linearGradient>
<linearGradient id="paint1_linear_140_922" x1="0.363281" y1="8.15605" x2="21.932" y2="32.081" gradientUnits="userSpaceOnUse">
<stop stop-color="#8B4513"/>
<stop offset="1" stop-color="#8B4513"/>
</linearGradient>
<linearGradient id="paint2_linear_140_922" x1="26.5277" y1="19.562" x2="1.18487" y2="11.0499" gradientUnits="userSpaceOnUse">
<stop stop-color="#994E18"/>
<stop offset="1" stop-color="#7E4217"/>
</linearGradient>
<linearGradient id="paint3_linear_140_922" x1="25.7392" y1="19.2126" x2="1.99541" y2="11.2376" gradientUnits="userSpaceOnUse">
<stop stop-color="white"/>
<stop offset="1" stop-color="#999999"/>
</linearGradient>
<linearGradient id="paint4_linear_140_922" x1="4.89619" y1="10.332" x2="24.1087" y2="25.3757" gradientUnits="userSpaceOnUse">
<stop stop-color="white"/>
<stop offset="1" stop-color="#C7C7C7"/>
</linearGradient>
<radialGradient id="paint5_radial_140_922" cx="0" cy="0" r="1" gradientUnits="userSpaceOnUse" gradientTransform="translate(14.3189 42.4127) scale(9.24375 1.8125)">
<stop stop-opacity="0.8"/>
<stop offset="1" stop-color="#666666" stop-opacity="0"/>
</radialGradient>
</defs>
</svg>
