<svg width="48" height="60" viewBox="0 0 48 60" fill="none" xmlns="http://www.w3.org/2000/svg">
<path d="M23.81 0C26.27 0 28.65 0.370001 30.88 1.07C32 1.42 33.08 1.85 34.12 2.35C34.81 2.68 35.49 3.05 36.14 3.45C36.3 3.55 36.47 3.65 36.63 3.75C36.79 3.85 36.95 3.96 37.11 4.07C37.43 4.28 37.74 4.5 38.04 4.73C38.19 4.84 38.34 4.96 38.49 5.08C38.64 5.2 38.79 5.32 38.93 5.44C39.22 5.68 39.51 5.93 39.79 6.19C40.07 6.44 40.34 6.7 40.61 6.97V6.99C42.09 8.47 43.37 10.14 44.42 11.96C44.8 12.62 45.15 13.31 45.47 14.01C45.55 14.19 45.63 14.36 45.7 14.54C46.9 17.39 47.57 20.51 47.57 23.8C47.57 26.11 47.24 28.35 46.62 30.47C42.2 46.44 23.78 59.48 23.78 59.48C23.78 59.48 5.38 46.45 0.950001 30.49C0.330001 28.37 0 26.12 0 23.8C0 17.03 2.83 10.91 7.38 6.58C7.79 6.19 8.22 5.81 8.66 5.44C8.81 5.32 8.95 5.2 9.1 5.08C9.25 4.96 9.4 4.85 9.55 4.73C9.86 4.5 10.17 4.28 10.48 4.07C10.64 3.96 10.8 3.86 10.96 3.75C11.12 3.65 11.28 3.55 11.45 3.45C11.61 3.35 11.78 3.25 11.94 3.16C12.11 3.06 12.27 2.97 12.44 2.88C12.61 2.79 12.78 2.7 12.95 2.61C13.12 2.52 13.29 2.44 13.47 2.35C13.99 2.1 14.52 1.87 15.06 1.65C15.6 1.44 16.15 1.24 16.71 1.07C18.94 0.370001 21.32 0 23.78 0" fill="#FE6EC5"/>
<path fill-rule="evenodd" clip-rule="evenodd" d="M39.3902 22.2303V33.6803H36.9902V29.0603H10.6202V33.6803H8.22021V10.7803H10.6202V22.2303H39.3902ZM19.0102 19.9403V17.7803C19.0102 15.8103 20.6802 14.2203 22.7402 14.2203H33.1402C34.8002 14.2203 36.3902 14.8503 37.5602 15.9703C38.6702 17.0303 39.3202 18.4503 39.3902 19.9503H19.0202L19.0102 19.9403ZM14.8202 14.7103C16.3302 14.7103 17.5602 15.8803 17.5602 17.3203C17.5602 18.7603 16.3302 19.9403 14.8202 19.9403C13.3102 19.9403 12.0802 18.7703 12.0802 17.3203C12.0802 15.8703 13.3102 14.7103 14.8202 14.7103Z" fill="white"/>
</svg>
