<svg width="29" height="45" viewBox="0 0 29 45" fill="none" xmlns="http://www.w3.org/2000/svg">
<path d="M21.478 14.3683C21.478 18.3345 18.2321 21.5522 14.2281 21.5522C10.2236 21.5522 6.97825 18.3345 6.97825 14.3683C6.97825 10.4009 10.2241 7.18427 14.2281 7.18427C18.2329 7.18399 21.478 10.4006 21.478 14.3683ZM29 14.3683C29 6.43274 22.5085 0 14.5 0C6.49204 0 0 6.43274 0 14.3683C0 17.8573 1.25628 21.0563 3.34392 23.5447L14.5125 39.5125L25.8445 23.3118C26.2515 22.8071 26.6242 22.2751 26.9605 21.7159L27.0751 21.5531H27.0563C28.2903 19.4384 29 16.9866 29 14.3683Z" fill="url(#paint0_linear_140_1156)"/>
<path d="M21.2208 14.3792C21.2208 18.2485 18.0687 21.3876 14.1804 21.3876C10.2915 21.3876 7.13996 18.2485 7.13996 14.3792C7.13996 10.5089 10.2921 7.37091 14.1804 7.37091C18.0695 7.37064 21.2208 10.5086 21.2208 14.3792ZM28.5256 14.3792C28.5256 6.63775 22.2216 0.362305 14.4444 0.362305C6.66779 0.362305 0.363281 6.63775 0.363281 14.3792C0.363281 17.7829 1.58328 20.9038 3.61061 23.3313L14.4566 38.9087L25.4612 23.1041C25.8564 22.6117 26.2184 22.0928 26.545 21.5473L26.6563 21.3884H26.638C27.8364 19.3254 28.5256 16.9335 28.5256 14.3792Z" fill="url(#paint1_linear_140_1156)"/>
<circle cx="14.5016" cy="14.5003" r="11.9625" fill="url(#paint2_linear_140_1156)"/>
<circle cx="14.4719" cy="14.4703" r="11.2077" fill="url(#paint3_linear_140_1156)"/>
<circle cx="14.5024" cy="14.5007" r="10.875" fill="url(#paint4_linear_140_1156)"/>
<path fill-rule="evenodd" clip-rule="evenodd" d="M10.0005 19.8962H13.0005V14.4677H11.6555L10.0005 16.2091V19.8968L10.0005 19.8962ZM13.1774 16.3513V19.8962H19.0522V16.3513H13.1774ZM11.7749 16.5628C11.7259 16.5628 11.6865 16.5234 11.6865 16.4744C11.6865 16.4253 11.7259 16.3859 11.7749 16.3859H12.2463C12.2953 16.3859 12.3347 16.4253 12.3347 16.4744V16.8989C12.3347 16.9479 12.2953 16.9873 12.2463 16.9873C12.1973 16.9873 12.1579 16.9479 12.1579 16.8989V16.5628L11.7749 16.5628ZM10.8672 16.5628C10.8182 16.5628 10.7788 16.5234 10.7788 16.4744C10.7788 16.4253 10.8182 16.3859 10.8672 16.3859H11.3386C11.3876 16.3859 11.4271 16.4253 11.4271 16.4744V16.8989C11.4271 16.9479 11.3876 16.9873 11.3386 16.9873C11.2896 16.9873 11.2502 16.9479 11.2502 16.8989V16.5628L10.8672 16.5628ZM11.744 17.414C11.695 17.414 11.6556 17.3746 11.6556 17.3256C11.6556 17.2766 11.695 17.2371 11.744 17.2371H12.2154C12.2644 17.2371 12.3038 17.2766 12.3038 17.3256V17.7501C12.3038 17.7991 12.2644 17.8385 12.2154 17.8385C12.1664 17.8385 12.127 17.7991 12.127 17.7501V17.414L11.744 17.414ZM10.8363 17.414C10.7873 17.414 10.7479 17.3746 10.7479 17.3256C10.7479 17.2766 10.7873 17.2371 10.8363 17.2371H11.3078C11.3568 17.2371 11.3962 17.2766 11.3962 17.3256V17.7501C11.3962 17.7991 11.3568 17.8385 11.3078 17.8385C11.2587 17.8385 11.2193 17.7991 11.2193 17.7501V17.414L10.8363 17.414ZM11.744 18.3472C11.695 18.3472 11.6556 18.3078 11.6556 18.2588C11.6556 18.2098 11.695 18.1704 11.744 18.1704H12.2154C12.2644 18.1704 12.3038 18.2098 12.3038 18.2588V18.6833C12.3038 18.7324 12.2644 18.7718 12.2154 18.7718C12.1664 18.7718 12.127 18.7324 12.127 18.6833V18.3472L11.744 18.3472ZM10.8363 18.3472C10.7873 18.3472 10.7479 18.3078 10.7479 18.2588C10.7479 18.2098 10.7873 18.1704 10.8363 18.1704H11.3078C11.3568 18.1704 11.3962 18.2098 11.3962 18.2588V18.6833C11.3962 18.7324 11.3568 18.7718 11.3078 18.7718C11.2587 18.7718 11.2193 18.7324 11.2193 18.6833V18.3472L10.8363 18.3472ZM11.744 15.7083C11.695 15.7083 11.6556 15.6689 11.6556 15.6199C11.6556 15.5709 11.695 15.5315 11.744 15.5315H12.2154C12.2644 15.5315 12.3038 15.5709 12.3038 15.6199V16.0444C12.3038 16.0934 12.2644 16.1329 12.2154 16.1329C12.1664 16.1329 12.127 16.0934 12.127 16.0444V15.7083L11.744 15.7083ZM14.4335 14.5482V13.7332C14.4335 13.4487 14.3456 13.2724 14.2045 13.1659C14.0649 13.0609 13.8763 13.0279 13.6702 13.0279H13.4513C13.2451 13.0279 13.0565 13.0561 12.917 13.159C12.7753 13.2628 12.6874 13.4397 12.6874 13.7326V14.2898H12.3976V13.5377C12.3976 13.315 12.5084 13.1115 12.6863 12.964C12.8669 12.8143 13.1162 12.7216 13.3911 12.7216H13.7069C13.9818 12.7216 14.2311 12.8143 14.4117 12.964C14.5896 13.1115 14.7004 13.315 14.7004 13.5377V14.5993C14.7004 14.6036 14.7009 14.6073 14.702 14.6115L14.4287 14.5695C14.4319 14.5631 14.434 14.5562 14.434 14.5487L14.4335 14.5482ZM17.4927 12.3387C17.4682 12.3387 17.4485 12.319 17.4485 12.2945C17.4485 12.27 17.4682 12.2502 17.4927 12.2502H18.0232L18.0062 11.8252H17.1912L17.0687 14.978L18.1409 15.1442L18.0275 12.3387L17.4927 12.3387ZM16.2478 14.9402L17.0144 15.059C17.0154 15.059 17.0165 15.0595 17.0181 15.0595L18.1782 15.239C18.1793 15.239 18.1809 15.2396 18.182 15.2396L18.2203 15.2454C18.2805 15.255 18.3327 15.2848 18.3695 15.328C18.4062 15.3711 18.4281 15.4271 18.4281 15.4878V16.1739H13.9882V14.8763C13.9882 14.8385 13.9957 14.8044 14.0095 14.7735C14.0239 14.7426 14.0452 14.7144 14.0734 14.6904C14.1017 14.6664 14.1326 14.6494 14.1656 14.6398C14.1986 14.6302 14.2338 14.6286 14.2705 14.6339L15.0626 14.7564C15.0637 14.7564 15.0647 14.757 15.0663 14.757L16.2435 14.9391C16.2451 14.9397 16.2462 14.9397 16.2478 14.9397L16.2478 14.9402ZM15.549 12.0377C15.5245 12.0377 15.5048 12.018 15.5048 11.9935C15.5048 11.969 15.5245 11.9493 15.549 11.9493H16.0811L16.0625 11.5242H15.2475L15.1175 14.6754L16.2063 14.8443L16.0848 12.0377L15.549 12.0377ZM17.5044 17.3059C17.4554 17.3059 17.416 17.2664 17.416 17.2174C17.416 17.1684 17.4554 17.129 17.5044 17.129H18.0712C18.1202 17.129 18.1596 17.1684 18.1596 17.2174V17.642C18.1596 17.691 18.1202 17.7304 18.0712 17.7304C18.0222 17.7304 17.9828 17.691 17.9828 17.642V17.3059L17.5044 17.3059ZM16.4135 17.3059C16.3645 17.3059 16.3251 17.2664 16.3251 17.2174C16.3251 17.1684 16.3645 17.129 16.4135 17.129H16.9803C17.0293 17.129 17.0687 17.1684 17.0687 17.2174V17.642C17.0687 17.691 17.0293 17.7304 16.9803 17.7304C16.9313 17.7304 16.8919 17.691 16.8919 17.642V17.3059L16.4135 17.3059ZM15.3226 17.3059C15.2736 17.3059 15.2342 17.2664 15.2342 17.2174C15.2342 17.1684 15.2736 17.129 15.3226 17.129H15.8894C15.9384 17.129 15.9778 17.1684 15.9778 17.2174V17.642C15.9778 17.691 15.9384 17.7304 15.8894 17.7304C15.8404 17.7304 15.8009 17.691 15.8009 17.642V17.3059L15.3226 17.3059ZM14.2317 17.3059C14.1827 17.3059 14.1433 17.2664 14.1433 17.2174C14.1433 17.1684 14.1827 17.129 14.2317 17.129H14.7985C14.8475 17.129 14.8869 17.1684 14.8869 17.2174V17.642C14.8869 17.691 14.8475 17.7304 14.7985 17.7304C14.7495 17.7304 14.71 17.691 14.71 17.642V17.3059L14.2317 17.3059ZM17.5039 18.3669C17.4549 18.3669 17.4155 18.3275 17.4155 18.2785C17.4155 18.2295 17.4549 18.1901 17.5039 18.1901H18.0706C18.1196 18.1901 18.1591 18.2295 18.1591 18.2785V18.703C18.1591 18.752 18.1196 18.7915 18.0706 18.7915C18.0216 18.7915 17.9822 18.752 17.9822 18.703V18.3669L17.5039 18.3669ZM16.413 18.3669C16.364 18.3669 16.3246 18.3275 16.3246 18.2785C16.3246 18.2295 16.364 18.1901 16.413 18.1901H16.9797C17.0287 18.1901 17.0682 18.2295 17.0682 18.2785V18.703C17.0682 18.752 17.0287 18.7915 16.9797 18.7915C16.9307 18.7915 16.8913 18.752 16.8913 18.703V18.3669L16.413 18.3669ZM15.3221 18.3669C15.2731 18.3669 15.2336 18.3275 15.2336 18.2785C15.2336 18.2295 15.2731 18.1901 15.3221 18.1901H15.8888C15.9378 18.1901 15.9772 18.2295 15.9772 18.2785V18.703C15.9772 18.752 15.9378 18.7915 15.8888 18.7915C15.8398 18.7915 15.8004 18.752 15.8004 18.703V18.3669L15.3221 18.3669ZM14.2312 18.3669C14.1821 18.3669 14.1427 18.3275 14.1427 18.2785C14.1427 18.2295 14.1821 18.1901 14.2312 18.1901H14.7979C14.8469 18.1901 14.8863 18.2295 14.8863 18.2785V18.703C14.8863 18.752 14.8469 18.7915 14.7979 18.7915C14.7489 18.7915 14.7095 18.752 14.7095 18.703V18.3669L14.2312 18.3669ZM17.7313 10.0562C17.7287 10.0557 17.7255 10.0546 17.7228 10.0536C17.6983 10.0429 17.6871 10.0142 17.6978 9.98966C17.7074 9.96782 17.7148 9.94438 17.7196 9.92041C17.7244 9.8975 17.7271 9.873 17.7271 9.84743C17.7271 9.65035 17.5673 9.49054 17.3702 9.49054C17.1731 9.49054 17.0133 9.65035 17.0133 9.84743C17.0133 9.91349 17.0314 9.97527 17.0623 10.0285C17.0943 10.0829 17.1401 10.1276 17.1949 10.1585C17.1976 10.1601 17.2003 10.1617 17.2029 10.1633C17.2242 10.1793 17.2285 10.2096 17.2125 10.2315C17.1811 10.273 17.1561 10.3199 17.1395 10.37C17.1236 10.4179 17.1145 10.4701 17.1145 10.5244C17.1145 10.6182 17.1406 10.7056 17.1864 10.7791C17.2333 10.8552 17.3004 10.917 17.3803 10.9575C17.3814 10.958 17.3819 10.958 17.383 10.9586C17.4069 10.9708 17.4165 10.9996 17.4043 11.0236C17.3878 11.0566 17.3745 11.0933 17.3654 11.1328C17.3569 11.1711 17.3521 11.2121 17.3521 11.2558C17.3521 11.3661 17.383 11.4646 17.433 11.5355C17.4794 11.6015 17.5422 11.642 17.6104 11.642C17.6786 11.642 17.7409 11.601 17.7878 11.5355C17.8379 11.4646 17.8688 11.3655 17.8688 11.2558C17.8688 11.2111 17.8634 11.1684 17.8544 11.1285C17.8448 11.0875 17.831 11.0502 17.8134 11.0172C17.8006 10.9932 17.8091 10.9639 17.8326 10.9511C17.9098 10.909 17.9742 10.8472 18.019 10.7721C18.0621 10.6997 18.0866 10.615 18.0866 10.5239C18.0866 10.4131 18.0499 10.3114 17.9876 10.2299C17.9242 10.1468 17.8347 10.0845 17.7319 10.0557L17.7313 10.0562ZM15.8323 9.74356C15.8297 9.74303 15.8265 9.74196 15.8238 9.7409C15.7993 9.73024 15.7881 9.70201 15.7988 9.67751C15.8084 9.65567 15.8158 9.63276 15.8206 9.60879C15.8254 9.58589 15.8281 9.56138 15.8281 9.53635C15.8281 9.43834 15.7887 9.34991 15.7242 9.286C15.6603 9.22208 15.5713 9.18213 15.4739 9.18213C15.2784 9.18213 15.1196 9.34087 15.1196 9.53636C15.1196 9.60188 15.1372 9.66367 15.1686 9.71587C15.2006 9.76967 15.2459 9.81441 15.3002 9.84531C15.3029 9.84691 15.3055 9.8485 15.3082 9.8501C15.3295 9.86608 15.3338 9.89644 15.3178 9.91775C15.2864 9.95877 15.2618 10.0051 15.2453 10.0552C15.2294 10.1031 15.2208 10.1548 15.2208 10.2086C15.2208 10.3018 15.2469 10.3881 15.2922 10.4616C15.3386 10.5373 15.4057 10.5985 15.4845 10.639C15.4856 10.6395 15.4861 10.6395 15.4872 10.6401C15.5111 10.6518 15.5202 10.6811 15.5085 10.7045C15.492 10.7375 15.4787 10.7738 15.4696 10.8132C15.4611 10.851 15.4563 10.892 15.4563 10.9352C15.4563 11.0444 15.4872 11.1424 15.5367 11.2132C15.5831 11.2787 15.6454 11.3192 15.7125 11.3192C15.7801 11.3192 15.8425 11.2787 15.8883 11.2132C15.9378 11.1429 15.9687 11.0444 15.9687 10.9352C15.9687 10.8909 15.9639 10.8483 15.9543 10.8089C15.9447 10.7684 15.9309 10.7311 15.9133 10.6981C15.9005 10.6747 15.9091 10.6454 15.9325 10.6326C16.0092 10.5911 16.0731 10.5293 16.1173 10.4547C16.1599 10.3828 16.1845 10.2986 16.1845 10.2086C16.1845 10.0989 16.1477 9.99765 16.0864 9.91669C16.0236 9.83413 15.9352 9.77234 15.8324 9.74411L15.8323 9.74356Z" fill="#708090"/>
<ellipse cx="14.3189" cy="42.4127" rx="9.24375" ry="1.8125" fill="url(#paint5_radial_140_1156)" fill-opacity="0.6"/>
<defs>
<linearGradient id="paint0_linear_140_1156" x1="-5.10031e-08" y1="7.98909" x2="22.0987" y2="32.6139" gradientUnits="userSpaceOnUse">
<stop stop-color="#708090"/>
<stop offset="1" stop-color="#6D7B88"/>
</linearGradient>
<linearGradient id="paint1_linear_140_1156" x1="0.363281" y1="8.15605" x2="21.932" y2="32.081" gradientUnits="userSpaceOnUse">
<stop stop-color="#708090"/>
<stop offset="1" stop-color="#5E6A76"/>
</linearGradient>
<linearGradient id="paint2_linear_140_1156" x1="26.5277" y1="19.562" x2="1.18487" y2="11.0499" gradientUnits="userSpaceOnUse">
<stop stop-color="#708090"/>
<stop offset="1" stop-color="#697785"/>
</linearGradient>
<linearGradient id="paint3_linear_140_1156" x1="25.7392" y1="19.2126" x2="1.99541" y2="11.2376" gradientUnits="userSpaceOnUse">
<stop stop-color="white"/>
<stop offset="1" stop-color="#999999"/>
</linearGradient>
<linearGradient id="paint4_linear_140_1156" x1="4.89619" y1="10.332" x2="24.1087" y2="25.3757" gradientUnits="userSpaceOnUse">
<stop stop-color="white"/>
<stop offset="1" stop-color="#C7C7C7"/>
</linearGradient>
<radialGradient id="paint5_radial_140_1156" cx="0" cy="0" r="1" gradientUnits="userSpaceOnUse" gradientTransform="translate(14.3189 42.4127) scale(9.24375 1.8125)">
<stop stop-opacity="0.8"/>
<stop offset="1" stop-color="#666666" stop-opacity="0"/>
</radialGradient>
</defs>
</svg>
