<svg width="48" height="60" viewBox="0 0 48 60" fill="none" xmlns="http://www.w3.org/2000/svg">
<path d="M23.8 0C26.26 0 28.64 0.37 30.87 1.07C31.99 1.42 33.07 1.85 34.11 2.35C34.8 2.68 35.48 3.05 36.13 3.45C36.29 3.55 36.46 3.65 36.62 3.75C36.78 3.85 36.94 3.96 37.1 4.06C37.42 4.27 37.73 4.49 38.03 4.72C38.18 4.83 38.33 4.95 38.48 5.07C38.63 5.19 38.78 5.31 38.93 5.43C39.22 5.67 39.51 5.92 39.79 6.18C40.07 6.43 40.34 6.69 40.61 6.96V6.98C42.09 8.46 43.37 10.13 44.42 11.95C44.8 12.61 45.15 13.3 45.47 14C45.55 14.18 45.63 14.35 45.7 14.53C46.9 17.38 47.57 20.5 47.57 23.79C47.57 26.1 47.24 28.34 46.62 30.46C42.2 46.43 23.78 59.47 23.78 59.47C23.78 59.47 5.38 46.44 0.949997 30.48C0.329997 28.36 0 26.11 0 23.79C0 17.02 2.83 10.9 7.38 6.57C7.79 6.18 8.22 5.8 8.66 5.43C8.81 5.31 8.96 5.19 9.11 5.07C9.26 4.95 9.41 4.84 9.56 4.72C9.87 4.49 10.18 4.27 10.49 4.06C10.65 3.95 10.81 3.85 10.97 3.75C11.13 3.65 11.29 3.55 11.46 3.45C11.62 3.35 11.79 3.25 11.95 3.16C12.12 3.06 12.28 2.97 12.45 2.88C12.62 2.79 12.79 2.7 12.96 2.61C13.13 2.52 13.3 2.44 13.48 2.35C14 2.1 14.53 1.87 15.07 1.65C15.61 1.44 16.16 1.24 16.72 1.07C18.95 0.37 21.33 0 23.79 0" fill="#B973FF"/>
<path fill-rule="evenodd" clip-rule="evenodd" d="M21.0205 23.5003V34.2503H35.7105V23.5503C35.7105 23.4303 35.5705 23.2803 35.4405 23.2803H21.2305C21.1105 23.2803 21.0205 23.3703 21.0205 23.4903M24.9105 27.8103H23.2105C23.0905 27.8103 23.0005 27.7203 23.0005 27.6003C23.0005 27.0703 22.9405 26.2203 23.0505 25.7403C23.5305 25.6303 24.2405 25.6903 24.7505 25.6903C24.9305 25.6903 25.1205 25.7803 25.1205 25.9603V27.5003C25.1205 27.6603 25.0705 27.8203 24.9105 27.8203V27.8103ZM29.2205 27.8103H27.5205C27.4005 27.8103 27.3105 27.7203 27.3105 27.6003C27.3105 27.0703 27.2505 26.2203 27.3605 25.7403C27.8405 25.6303 28.5505 25.6903 29.0605 25.6903C29.2405 25.6903 29.4305 25.7803 29.4305 25.9603V27.5003C29.4305 27.6603 29.3805 27.8203 29.2205 27.8203V27.8103ZM33.5305 27.8103H31.8305C31.7105 27.8103 31.6205 27.7203 31.6205 27.6003C31.6205 27.0703 31.5605 26.2203 31.6705 25.7403C32.1505 25.6303 32.8605 25.6903 33.3705 25.6903C33.6205 25.6903 33.7405 25.8103 33.7405 26.0603C33.7405 26.7003 33.8805 27.8203 33.5305 27.8203V27.8103ZM24.8505 32.4903H23.3105C23.1505 32.4903 22.9905 32.4403 22.9905 32.2803V30.5803C22.9905 30.4603 23.0805 30.3703 23.2005 30.3703C23.7305 30.3703 24.5805 30.3103 25.0605 30.4203C25.1705 30.9003 25.1105 31.7003 25.1105 32.2303C25.1105 32.3503 24.9705 32.5003 24.8405 32.5003L24.8505 32.4903ZM29.1605 32.4903H27.6205C27.4605 32.4903 27.3005 32.4403 27.3005 32.2803V30.5803C27.3005 30.4603 27.3905 30.3703 27.5105 30.3703C28.0405 30.3703 28.8905 30.3103 29.3705 30.4203C29.4805 30.9003 29.4205 31.7003 29.4205 32.2303C29.4205 32.3503 29.2805 32.5003 29.1505 32.5003L29.1605 32.4903ZM33.4705 32.4903H31.9305C31.7705 32.4903 31.6105 32.4403 31.6105 32.2803V30.5803C31.6105 30.4603 31.7005 30.3703 31.8205 30.3703C32.3505 30.3703 33.2005 30.3103 33.6805 30.4203C33.7905 30.9003 33.7305 31.7003 33.7305 32.2303C33.7305 32.3503 33.5905 32.5003 33.4605 32.5003L33.4705 32.4903Z" fill="white"/>
<path fill-rule="evenodd" clip-rule="evenodd" d="M13.7314 20.7901V27.4901C13.7314 27.6101 13.7714 27.6501 13.8914 27.6501H20.2814V23.6601C20.2814 22.9701 20.7114 22.5401 21.4014 22.5401H24.8114V18.8701C24.8114 18.6001 24.4514 18.7701 24.2614 18.8001L22.1314 19.1701C21.1614 19.3301 20.2514 19.5101 19.2814 19.6701L14.3514 20.5401C14.1214 20.5801 13.7414 20.5701 13.7414 20.7801M17.5114 23.0201C17.0214 23.1301 16.1814 23.0701 15.6514 23.0701C15.5314 23.0701 15.4414 22.9801 15.4414 22.8601V21.1601C15.4414 21.0001 15.6014 20.9501 15.7614 20.9501H17.3014C17.4214 20.9501 17.5714 21.0901 17.5714 21.2201C17.5714 21.5301 17.6114 22.8101 17.5214 23.0301L17.5114 23.0201ZM17.1914 26.8001H15.8614C15.6814 26.8001 15.6514 26.7601 15.4914 26.7501C15.3814 26.2601 15.4414 25.4201 15.4414 24.8901C15.4414 24.7701 15.5314 24.6801 15.6514 24.6801H17.3514C17.7014 24.6801 17.5614 25.7901 17.5614 26.4401C17.5614 26.6901 17.4414 26.8101 17.1914 26.8101V26.8001Z" fill="white"/>
<path fill-rule="evenodd" clip-rule="evenodd" d="M11.0213 35.21C11.0213 35.89 10.9013 36.54 11.2313 36.54H36.3513C36.6813 36.54 36.5613 35.89 36.5613 35.21C36.5613 35.05 36.4013 35 36.2413 35H11.3413C11.1813 35 11.0213 35.05 11.0213 35.21Z" fill="white"/>
<path d="M34.6512 12.8096H32.2012V22.5496H34.6512V12.8096Z" fill="white"/>
<path fill-rule="evenodd" clip-rule="evenodd" d="M11.9209 34.2494H13.4109V30.5794C13.4109 30.2694 13.6809 29.9894 14.0009 29.9894H19.0009C19.3809 29.9894 19.5909 30.3594 19.5909 30.7894V34.2494H20.2809V28.3994H11.9309V34.2494H11.9209Z" fill="white"/>
<path fill-rule="evenodd" clip-rule="evenodd" d="M12.1908 18.87C12.1908 19.89 12.0908 19.76 12.3508 20.15C12.6408 20.15 12.9508 20.06 13.2208 20.01L15.9008 19.55C18.8008 19.07 21.8108 18.48 24.7308 18C25.0708 17.94 25.2908 17.9 25.6308 17.84C26.4808 17.7 26.3408 17.81 26.3408 16.48C26.3408 16.35 26.2508 16.32 26.1808 16.21C25.9108 16.21 25.6008 16.3 25.3108 16.35L19.1108 17.44C17.9408 17.63 16.7308 17.87 15.5808 18.06C14.9708 18.16 14.4208 18.26 13.8208 18.37C13.4908 18.43 13.2408 18.47 12.9208 18.53C12.6408 18.58 12.2008 18.57 12.2008 18.87" fill="white"/>
<path d="M30.1209 14.9395H27.6709V22.5495H30.1209V14.9395Z" fill="white"/>
<path fill-rule="evenodd" clip-rule="evenodd" d="M14.1113 30.8495V34.2595H16.1313V30.8495C16.1313 30.7295 16.0913 30.6895 15.9713 30.6895H14.2713C14.1513 30.6895 14.1113 30.7295 14.1113 30.8495Z" fill="white"/>
<path fill-rule="evenodd" clip-rule="evenodd" d="M16.8213 30.9497V34.0897C16.8213 34.2097 16.8613 34.2497 16.9813 34.2497H18.8413V30.6797H16.8713C16.8413 30.7997 16.8213 30.7997 16.8213 30.9497Z" fill="white"/>
<path fill-rule="evenodd" clip-rule="evenodd" d="M32.2012 11.32V12.06H34.6512C34.6512 11.64 34.7412 11 34.4412 11H32.4212C32.2612 11 32.2112 11.16 32.2112 11.32" fill="white"/>
<path fill-rule="evenodd" clip-rule="evenodd" d="M27.6709 13.4496V14.1996H30.1209C30.1209 13.7796 30.2109 13.1396 29.9109 13.1396H27.8909C27.7309 13.1396 27.6809 13.2996 27.6809 13.4596" fill="white"/>
</svg>
