<svg width="29" height="45" viewBox="0 0 29 45" fill="none" xmlns="http://www.w3.org/2000/svg">
<path d="M21.478 14.3683C21.478 18.3345 18.2321 21.5522 14.2281 21.5522C10.2236 21.5522 6.97825 18.3345 6.97825 14.3683C6.97825 10.4009 10.2241 7.18427 14.2281 7.18427C18.2329 7.18399 21.478 10.4006 21.478 14.3683ZM29 14.3683C29 6.43274 22.5085 0 14.5 0C6.49204 0 0 6.43274 0 14.3683C0 17.8573 1.25628 21.0563 3.34392 23.5447L14.5125 39.5125L25.8445 23.3118C26.2515 22.8071 26.6242 22.2751 26.9605 21.7159L27.0751 21.5531H27.0563C28.2903 19.4384 29 16.9866 29 14.3683Z" fill="#B973FF"/>
<path d="M21.2208 14.3792C21.2208 18.2485 18.0687 21.3876 14.1804 21.3876C10.2915 21.3876 7.13996 18.2485 7.13996 14.3792C7.13996 10.5089 10.2921 7.37091 14.1804 7.37091C18.0695 7.37064 21.2208 10.5086 21.2208 14.3792ZM28.5256 14.3792C28.5256 6.63775 22.2216 0.362305 14.4444 0.362305C6.66779 0.362305 0.363281 6.63775 0.363281 14.3792C0.363281 17.7829 1.58328 20.9038 3.61061 23.3313L14.4566 38.9087L25.4612 23.1041C25.8564 22.6117 26.2184 22.0928 26.545 21.5473L26.6563 21.3884H26.638C27.8364 19.3254 28.5256 16.9335 28.5256 14.3792Z" fill="#B973FF"/>
<circle cx="14.5016" cy="14.5001" r="11.9625" fill="#B973FF"/>
<circle cx="14.4719" cy="14.4699" r="11.2077" fill="url(#paint0_linear_1206_3078)"/>
<circle cx="14.5024" cy="14.5005" r="10.875" fill="url(#paint1_linear_1206_3078)"/>
<ellipse cx="14.3189" cy="42.4126" rx="9.24375" ry="1.8125" fill="url(#paint2_radial_1206_3078)" fill-opacity="0.6"/>
<path fill-rule="evenodd" clip-rule="evenodd" d="M12.8853 13.3416V19.6552H21.5129V13.371C21.5129 13.3005 21.4307 13.2124 21.3543 13.2124H13.0086C12.9381 13.2124 12.8853 13.2653 12.8853 13.3357M15.1699 15.8729H14.1715C14.101 15.8729 14.0481 15.8201 14.0481 15.7496C14.0481 15.4383 14.0129 14.9391 14.0775 14.6572C14.3594 14.5926 14.7764 14.6278 15.0759 14.6278C15.1817 14.6278 15.2932 14.6807 15.2932 14.7864V15.6909C15.2932 15.7848 15.2639 15.8788 15.1699 15.8788V15.8729ZM17.7012 15.8729H16.7028C16.6323 15.8729 16.5795 15.8201 16.5795 15.7496C16.5795 15.4383 16.5442 14.9391 16.6088 14.6572C16.8907 14.5926 17.3077 14.6278 17.6073 14.6278C17.713 14.6278 17.8246 14.6807 17.8246 14.7864V15.6909C17.8246 15.7848 17.7952 15.8788 17.7012 15.8788V15.8729ZM20.2326 15.8729H19.2341C19.1636 15.8729 19.1108 15.8201 19.1108 15.7496C19.1108 15.4383 19.0755 14.9391 19.1401 14.6572C19.4221 14.5926 19.8391 14.6278 20.1386 14.6278C20.2854 14.6278 20.3559 14.6983 20.3559 14.8451C20.3559 15.221 20.4381 15.8788 20.2326 15.8788V15.8729ZM15.1347 18.6216H14.2302C14.1362 18.6216 14.0423 18.5922 14.0423 18.4982V17.4998C14.0423 17.4293 14.0951 17.3765 14.1656 17.3765C14.4769 17.3765 14.9761 17.3412 15.258 17.4058C15.3226 17.6877 15.2874 18.1576 15.2874 18.4689C15.2874 18.5393 15.2051 18.6274 15.1288 18.6274L15.1347 18.6216ZM17.666 18.6216H16.7615C16.6676 18.6216 16.5736 18.5922 16.5736 18.4982V17.4998C16.5736 17.4293 16.6264 17.3765 16.6969 17.3765C17.0082 17.3765 17.5074 17.3412 17.7893 17.4058C17.8539 17.6877 17.8187 18.1576 17.8187 18.4689C17.8187 18.5393 17.7365 18.6274 17.6601 18.6274L17.666 18.6216ZM20.1973 18.6216H19.2929C19.1989 18.6216 19.1049 18.5922 19.1049 18.4982V17.4998C19.1049 17.4293 19.1578 17.3765 19.2282 17.3765C19.5395 17.3765 20.0387 17.3412 20.3207 17.4058C20.3853 17.6877 20.35 18.1576 20.35 18.4689C20.35 18.5393 20.2678 18.6274 20.1914 18.6274L20.1973 18.6216Z" fill="#B973FF"/>
<path fill-rule="evenodd" clip-rule="evenodd" d="M8.604 11.7496V15.6846C8.604 15.7551 8.62749 15.7786 8.69797 15.7786H12.4509V13.4352C12.4509 13.03 12.7035 12.7774 13.1087 12.7774H15.1114V10.622C15.1114 10.4634 14.9 10.5633 14.7884 10.5809L13.5374 10.7982C12.9677 10.8922 12.4333 10.9979 11.8636 11.0918L8.96814 11.6028C8.83305 11.6263 8.60987 11.6204 8.60987 11.7438M10.8241 13.0593C10.5363 13.124 10.0429 13.0887 9.73165 13.0887C9.66117 13.0887 9.60831 13.0359 9.60831 12.9654V11.9669C9.60831 11.873 9.70228 11.8436 9.79625 11.8436H10.7007C10.7712 11.8436 10.8593 11.9258 10.8593 12.0022C10.8593 12.1843 10.8828 12.936 10.8299 13.0652L10.8241 13.0593ZM10.6361 15.2794H9.85498C9.74926 15.2794 9.73164 15.2559 9.63767 15.25C9.57307 14.9622 9.60831 14.4689 9.60831 14.1576C9.60831 14.0871 9.66117 14.0343 9.73165 14.0343H10.7301C10.9356 14.0343 10.8534 14.6862 10.8534 15.068C10.8534 15.2148 10.7829 15.2853 10.6361 15.2853V15.2794Z" fill="#B973FF"/>
<path fill-rule="evenodd" clip-rule="evenodd" d="M7.01249 20.219C7.01249 20.6184 6.94202 21.0002 7.13583 21.0002H21.8892C22.083 21.0002 22.0125 20.6184 22.0125 20.219C22.0125 20.1251 21.9185 20.0957 21.8246 20.0957H7.20044C7.10646 20.0957 7.01249 20.1251 7.01249 20.219Z" fill="#B973FF"/>
<path d="M20.8906 7.06299H19.4517V12.7834H20.8906V7.06299Z" fill="#B973FF"/>
<path fill-rule="evenodd" clip-rule="evenodd" d="M7.54102 19.6545H8.41612V17.4991C8.41612 17.317 8.57469 17.1526 8.76263 17.1526H11.6992C11.9224 17.1526 12.0457 17.3699 12.0457 17.6224V19.6545H12.451V16.2188H7.54689V19.6545H7.54102Z" fill="#B973FF"/>
<path fill-rule="evenodd" clip-rule="evenodd" d="M7.69958 10.6223C7.69958 11.2214 7.64085 11.145 7.79355 11.3741C7.96387 11.3741 8.14594 11.3212 8.30451 11.2919L9.87852 11.0217C11.5817 10.7398 13.3495 10.3933 15.0645 10.1114C15.2642 10.0761 15.3934 10.0526 15.5931 10.0174C16.0923 9.93516 16.0101 9.99976 16.0101 9.21863C16.0101 9.14228 15.9572 9.12466 15.9161 9.06006C15.7575 9.06006 15.5755 9.11292 15.4051 9.14228L11.7638 9.78245C11.0766 9.89404 10.366 10.035 9.69058 10.1466C9.33231 10.2053 9.00929 10.2641 8.6569 10.3287C8.46309 10.3639 8.31626 10.3874 8.12832 10.4226C7.96387 10.452 7.70545 10.4461 7.70545 10.6223" fill="#B973FF"/>
<path d="M18.2299 8.31348H16.791V12.7829H18.2299V8.31348Z" fill="#B973FF"/>
<path fill-rule="evenodd" clip-rule="evenodd" d="M8.82715 17.6579V19.6607H10.0135V17.6579C10.0135 17.5875 9.99003 17.564 9.91955 17.564H8.92112C8.85064 17.564 8.82715 17.5875 8.82715 17.6579Z" fill="#B973FF"/>
<path fill-rule="evenodd" clip-rule="evenodd" d="M10.4189 17.7167V19.5608C10.4189 19.6313 10.4424 19.6548 10.5129 19.6548H11.6053V17.5581H10.4483C10.4307 17.6286 10.4189 17.6286 10.4189 17.7167Z" fill="#B973FF"/>
<path fill-rule="evenodd" clip-rule="evenodd" d="M19.4517 6.18794V6.62255H20.8906C20.8906 6.37588 20.9434 6 20.7672 6H19.5809C19.4869 6 19.4575 6.09397 19.4575 6.18794" fill="#B973FF"/>
<path fill-rule="evenodd" clip-rule="evenodd" d="M16.791 7.4389V7.87939H18.2299C18.2299 7.63272 18.2828 7.25684 18.1066 7.25684H16.9202C16.8263 7.25684 16.7969 7.35081 16.7969 7.44478" fill="#B973FF"/>
<defs>
<linearGradient id="paint0_linear_1206_3078" x1="25.7392" y1="19.2122" x2="1.99541" y2="11.2372" gradientUnits="userSpaceOnUse">
<stop stop-color="white"/>
<stop offset="1" stop-color="#999999"/>
</linearGradient>
<linearGradient id="paint1_linear_1206_3078" x1="4.89619" y1="10.3317" x2="24.1087" y2="25.3755" gradientUnits="userSpaceOnUse">
<stop stop-color="white"/>
<stop offset="1" stop-color="#C7C7C7"/>
</linearGradient>
<radialGradient id="paint2_radial_1206_3078" cx="0" cy="0" r="1" gradientUnits="userSpaceOnUse" gradientTransform="translate(14.3189 42.4126) scale(9.24375 1.8125)">
<stop stop-opacity="0.8"/>
<stop offset="1" stop-color="#666666" stop-opacity="0"/>
</radialGradient>
</defs>
</svg>
