<svg width="29" height="45" viewBox="0 0 29 45" fill="none" xmlns="http://www.w3.org/2000/svg">
<path d="M21.478 14.3683C21.478 18.3345 18.2321 21.5522 14.2281 21.5522C10.2236 21.5522 6.97825 18.3345 6.97825 14.3683C6.97825 10.4009 10.2241 7.18427 14.2281 7.18427C18.2329 7.18399 21.478 10.4006 21.478 14.3683ZM29 14.3683C29 6.43274 22.5085 0 14.5 0C6.49204 0 0 6.43274 0 14.3683C0 17.8573 1.25628 21.0563 3.34392 23.5447L14.5125 39.5125L25.8445 23.3118C26.2515 22.8071 26.6242 22.2751 26.9605 21.7159L27.0751 21.5531H27.0563C28.2903 19.4384 29 16.9866 29 14.3683Z" fill="url(#paint0_linear_140_1212)"/>
<path d="M21.2208 14.3792C21.2208 18.2485 18.0687 21.3876 14.1804 21.3876C10.2915 21.3876 7.13996 18.2485 7.13996 14.3792C7.13996 10.5089 10.2921 7.37091 14.1804 7.37091C18.0695 7.37064 21.2208 10.5086 21.2208 14.3792ZM28.5256 14.3792C28.5256 6.63775 22.2216 0.362305 14.4444 0.362305C6.66779 0.362305 0.363281 6.63775 0.363281 14.3792C0.363281 17.7829 1.58328 20.9038 3.61061 23.3313L14.4566 38.9087L25.4612 23.1041C25.8564 22.6117 26.2184 22.0928 26.545 21.5473L26.6563 21.3884H26.638C27.8364 19.3254 28.5256 16.9335 28.5256 14.3792Z" fill="url(#paint1_linear_140_1212)"/>
<circle cx="14.5016" cy="14.5003" r="11.9625" fill="url(#paint2_linear_140_1212)"/>
<circle cx="14.4719" cy="14.4703" r="11.2077" fill="url(#paint3_linear_140_1212)"/>
<circle cx="14.5024" cy="14.5007" r="10.875" fill="url(#paint4_linear_140_1212)"/>
<path fill-rule="evenodd" clip-rule="evenodd" d="M15.3706 11.0003V10.7426C15.3706 10.6132 15.269 10.5077 15.1443 10.5077H13.4547C13.3301 10.5077 13.2285 10.6132 13.2285 10.7426V11.0003H15.3706ZM14.4127 9.682H15.2668C15.3227 9.682 15.3545 9.61621 15.3214 9.56965L15.144 9.32058C15.1259 9.29535 15.1259 9.26214 15.144 9.23678L15.3214 8.98771C15.3545 8.94116 15.3226 8.87537 15.2668 8.87537H14.2544C14.217 8.87537 14.1865 8.90697 14.1865 8.94581V10.273H14.4128L14.4127 9.682ZM12.1337 12.0077H10.1052C9.98058 12.0077 9.87897 12.1132 9.87897 12.2425V19.1211H12.1337V12.0077ZM16.4655 12.0077V19.121H18.7202V12.2425C18.7202 12.1132 18.6186 12.0077 18.494 12.0077H16.4655ZM17.2723 12.8942H17.9135C17.9758 12.8942 18.0265 12.9469 18.0265 13.0116V13.6772C18.0265 13.7419 17.9758 13.7946 17.9135 13.7946H17.2723C17.21 13.7946 17.1592 13.7419 17.1592 13.6772V13.0116C17.1592 12.9469 17.21 12.8942 17.2723 12.8942ZM17.2723 14.9208H17.9135C17.9758 14.9208 18.0265 14.9735 18.0265 15.0382V15.7038C18.0265 15.7685 17.9758 15.8212 17.9135 15.8212H17.2723C17.21 15.8212 17.1592 15.7685 17.1592 15.7038V15.0382C17.1592 14.9735 17.21 14.9208 17.2723 14.9208ZM17.1592 17.0648C17.1592 17.0001 17.21 16.9475 17.2723 16.9475H17.9135C17.9758 16.9475 18.0265 17.0001 18.0265 17.0648V17.7305C18.0265 17.7951 17.9758 17.8478 17.9135 17.8478H17.2723C17.21 17.8478 17.1592 17.7951 17.1592 17.7305V17.0648ZM12.3645 11.4746V19.121H12.9808V17.0648C12.9808 17.0001 13.0315 16.9475 13.0938 16.9475H15.5054C15.5677 16.9475 15.6184 17.0001 15.6184 17.0648V19.121H16.2347V11.4746C16.2347 11.3453 16.1331 11.2398 16.0085 11.2398H12.5906C12.466 11.2398 12.3645 11.3453 12.3645 11.4746ZM12.9808 13.0116C12.9808 12.9469 13.0315 12.8942 13.0938 12.8942H13.735C13.7973 12.8942 13.8481 12.9469 13.8481 13.0116V13.6772C13.8481 13.7419 13.7973 13.7946 13.735 13.7946H13.0938C13.0315 13.7946 12.9808 13.7419 12.9808 13.6772V13.0116ZM13.0938 14.9208H13.735C13.7973 14.9208 13.8481 14.9735 13.8481 15.0382V15.7038C13.8481 15.7685 13.7973 15.8212 13.735 15.8212H13.0938C13.0315 15.8212 12.9808 15.7685 12.9808 15.7038V15.0382C12.9808 14.9735 13.0315 14.9208 13.0938 14.9208ZM14.8641 14.9208H15.5052C15.5676 14.9208 15.6183 14.9735 15.6183 15.0382V15.7038C15.6183 15.7685 15.5676 15.8212 15.5052 15.8212H14.8641C14.8018 15.8212 14.751 15.7685 14.751 15.7038V15.0382C14.751 14.9735 14.8018 14.9208 14.8641 14.9208ZM14.751 13.0116C14.751 12.9469 14.8018 12.8942 14.8641 12.8942H15.5052C15.5676 12.8942 15.6183 12.9469 15.6183 13.0116V13.6772C15.6183 13.7419 15.5676 13.7946 15.5052 13.7946H14.8641C14.8018 13.7946 14.751 13.7419 14.751 13.6772V13.0116ZM11.3283 14.9208C11.3906 14.9208 11.4414 14.9735 11.4414 15.0382V15.7038C11.4414 15.7685 11.3906 15.8212 11.3283 15.8212H10.6871C10.6248 15.8212 10.5741 15.7685 10.5741 15.7038V15.0382C10.5741 14.9735 10.6248 14.9208 10.6871 14.9208H11.3283ZM10.6871 16.9475H11.3283C11.3906 16.9475 11.4414 17.0001 11.4414 17.0648V17.7305C11.4414 17.7951 11.3906 17.8478 11.3283 17.8478H10.6871C10.6248 17.8478 10.5741 17.7951 10.5741 17.7305V17.0648C10.5741 17.0001 10.6248 16.9475 10.6871 16.9475ZM11.4415 13.0117V13.6773C11.4415 13.742 11.3908 13.7947 11.3284 13.7947H10.6873C10.6249 13.7947 10.5742 13.742 10.5742 13.6773V13.0117C10.5742 12.947 10.6249 12.8943 10.6873 12.8943H11.3284C11.3908 12.8943 11.4415 12.947 11.4415 13.0117ZM8.94335 20.1254H19.6558C19.6933 20.1254 19.7237 20.0938 19.7237 20.0549V19.9333C19.7237 19.8944 19.6933 19.8628 19.6558 19.8628H8.94335C8.90594 19.8628 8.87549 19.8944 8.87549 19.9333V20.0549C8.87549 20.0938 8.90594 20.1254 8.94335 20.1254ZM19.2219 19.6232V19.4311C19.2219 19.3922 19.1915 19.3606 19.154 19.3606H9.44515C9.40774 19.3606 9.37729 19.3922 9.37729 19.4311V19.6232H19.2219Z" fill="#00008B"/>
<ellipse cx="14.3189" cy="42.4127" rx="9.24375" ry="1.8125" fill="url(#paint5_radial_140_1212)" fill-opacity="0.6"/>
<defs>
<linearGradient id="paint0_linear_140_1212" x1="-5.10031e-08" y1="7.98909" x2="22.0987" y2="32.6139" gradientUnits="userSpaceOnUse">
<stop stop-color="#00008B"/>
<stop offset="1" stop-color="#020270"/>
</linearGradient>
<linearGradient id="paint1_linear_140_1212" x1="0.363281" y1="8.15605" x2="21.932" y2="32.081" gradientUnits="userSpaceOnUse">
<stop stop-color="#00008B"/>
<stop offset="1" stop-color="#01016C"/>
</linearGradient>
<linearGradient id="paint2_linear_140_1212" x1="26.5277" y1="19.562" x2="1.18487" y2="11.0499" gradientUnits="userSpaceOnUse">
<stop stop-color="#00008B"/>
<stop offset="1" stop-color="#03036B"/>
</linearGradient>
<linearGradient id="paint3_linear_140_1212" x1="25.7392" y1="19.2126" x2="1.99541" y2="11.2376" gradientUnits="userSpaceOnUse">
<stop stop-color="white"/>
<stop offset="1" stop-color="#999999"/>
</linearGradient>
<linearGradient id="paint4_linear_140_1212" x1="4.89619" y1="10.332" x2="24.1087" y2="25.3757" gradientUnits="userSpaceOnUse">
<stop stop-color="white"/>
<stop offset="1" stop-color="#C7C7C7"/>
</linearGradient>
<radialGradient id="paint5_radial_140_1212" cx="0" cy="0" r="1" gradientUnits="userSpaceOnUse" gradientTransform="translate(14.3189 42.4127) scale(9.24375 1.8125)">
<stop stop-opacity="0.8"/>
<stop offset="1" stop-color="#666666" stop-opacity="0"/>
</radialGradient>
</defs>
</svg>
