<svg width="29" height="45" viewBox="0 0 29 45" fill="none" xmlns="http://www.w3.org/2000/svg">
<path d="M21.478 14.3683C21.478 18.3345 18.2321 21.5522 14.2281 21.5522C10.2236 21.5522 6.97825 18.3345 6.97825 14.3683C6.97825 10.4009 10.2241 7.18427 14.2281 7.18427C18.2329 7.18399 21.478 10.4006 21.478 14.3683ZM29 14.3683C29 6.43274 22.5085 0 14.5 0C6.49204 0 0 6.43274 0 14.3683C0 17.8573 1.25628 21.0563 3.34392 23.5447L14.5125 39.5125L25.8445 23.3118C26.2515 22.8071 26.6242 22.2751 26.9605 21.7159L27.0751 21.5531H27.0563C28.2903 19.4384 29 16.9866 29 14.3683Z" fill="url(#paint0_linear_140_1039)"/>
<path d="M21.2208 14.3792C21.2208 18.2485 18.0687 21.3876 14.1804 21.3876C10.2915 21.3876 7.13996 18.2485 7.13996 14.3792C7.13996 10.5089 10.2921 7.37091 14.1804 7.37091C18.0695 7.37064 21.2208 10.5086 21.2208 14.3792ZM28.5256 14.3792C28.5256 6.63775 22.2216 0.362305 14.4444 0.362305C6.66779 0.362305 0.363281 6.63775 0.363281 14.3792C0.363281 17.7829 1.58328 20.9038 3.61061 23.3313L14.4566 38.9087L25.4612 23.1041C25.8564 22.6117 26.2184 22.0928 26.545 21.5473L26.6563 21.3884H26.638C27.8364 19.3254 28.5256 16.9335 28.5256 14.3792Z" fill="url(#paint1_linear_140_1039)"/>
<circle cx="14.5016" cy="14.5003" r="11.9625" fill="url(#paint2_linear_140_1039)"/>
<circle cx="14.4719" cy="14.4703" r="11.2077" fill="url(#paint3_linear_140_1039)"/>
<circle cx="14.5024" cy="14.5007" r="10.875" fill="url(#paint4_linear_140_1039)"/>
<path fill-rule="evenodd" clip-rule="evenodd" d="M15.3674 14.8086C15.368 14.8068 15.368 14.8049 15.3686 14.8031C15.7178 13.4579 16.3395 12.9201 16.965 12.3798C17.2688 12.1177 17.5733 11.8543 17.8458 11.4941C17.5812 11.7293 17.3019 11.9168 17.0226 12.1042C16.187 12.6653 15.3516 13.2264 14.9319 15.0978C14.9301 15.1051 14.9362 15.148 14.9485 15.2117C14.9662 15.3042 14.9993 15.4267 15.0471 15.5308C15.0881 15.6197 15.1384 15.6926 15.1947 15.7103C15.24 15.374 15.2982 15.0757 15.3674 14.8086ZM11.1482 11.9847C11.5622 12.7332 12.0431 12.9948 12.5227 13.2551C13.2204 13.6337 13.9145 14.011 14.4087 15.785C14.4277 15.777 14.4443 15.7574 14.4583 15.7305C14.4792 15.6919 14.4939 15.6404 14.5043 15.5859C14.5319 15.4371 14.5263 15.2754 14.5202 15.2509C14.1717 13.9149 13.602 13.6153 12.8633 13.2283C12.3623 12.9649 11.7858 12.6623 11.1487 11.9854L11.1482 11.9847ZM13.5164 19.0628H10.9062C10.8737 19.0628 10.8443 19.0757 10.8223 19.0959L10.8198 19.0983C10.7978 19.1204 10.7837 19.151 10.7837 19.1847V19.9969C10.7837 20.0306 10.7978 20.0613 10.8198 20.0839C10.8419 20.106 10.8725 20.1201 10.9068 20.1201H13.517C13.5507 20.1201 13.5813 20.1066 13.604 20.0839C13.626 20.0619 13.6401 20.0312 13.6401 19.9969V19.1847C13.6401 19.151 13.626 19.1204 13.604 19.0983C13.5819 19.0763 13.5513 19.0622 13.517 19.0622L13.5164 19.0628ZM10.5222 16.2953L10.5001 16.2788C10.2869 16.122 9.46 15.5143 9.46674 14.3247C9.47225 14.3137 9.47532 14.3015 9.47409 14.2886C9.47225 14.2715 9.47103 14.2537 9.46919 14.2353C9.47042 14.2047 9.47225 14.1734 9.4747 14.1416C9.48205 14.0466 9.54453 13.9462 9.63519 13.8782C9.68725 13.8396 9.74728 13.812 9.81038 13.8041C9.87286 13.7961 9.93902 13.8059 10.004 13.8414C10.1234 13.9064 10.2398 14.0546 10.328 14.3272C10.4358 14.6617 10.6226 15.02 10.8713 15.3183C11.0882 15.5787 11.3516 15.7943 11.6517 15.9113C12.3629 16.19 12.7194 16.5832 12.8983 17.091C13.0741 17.5909 13.0808 18.2077 13.0808 18.9342H11.147C11.1243 18.6727 11.0349 18.4534 10.8977 18.2573C10.7519 18.0497 10.5516 17.8696 10.3176 17.6932C9.71177 17.2356 9.37488 16.9293 9.16231 16.6721C8.95222 16.4178 8.86277 16.2102 8.75251 15.9505C8.37763 15.0647 8.39601 14.0068 8.415 12.9023C8.41929 12.6487 8.42358 12.3933 8.42358 12.1575C8.42358 11.8402 8.52281 11.5988 8.65513 11.4904C8.70413 11.4506 8.75681 11.4303 8.80888 11.434C8.86217 11.4377 8.9173 11.4653 8.97121 11.5222C9.14335 11.7029 9.28423 12.1434 9.28423 12.947C9.28423 13.0653 9.29219 13.3715 9.3069 13.6882C9.31608 13.8818 9.32772 14.079 9.3412 14.2365C9.29097 15.5492 10.1957 16.2137 10.4248 16.3829L10.4463 16.3989C10.4744 16.4197 10.5149 16.4142 10.5357 16.3854C10.5565 16.3572 10.551 16.3168 10.5222 16.2959L10.5222 16.2953ZM18.3677 19.0628H15.7575C15.7239 19.0628 15.6932 19.0763 15.6706 19.0989C15.6485 19.121 15.6344 19.1516 15.6344 19.1853V19.9976C15.6344 20.0312 15.6479 20.0619 15.6706 20.0845C15.6926 20.1066 15.7232 20.1207 15.7575 20.1207H18.3677C18.4014 20.1207 18.432 20.1072 18.4547 20.0845C18.4767 20.0625 18.4908 20.0319 18.4908 19.9976V19.1853C18.4908 19.1516 18.4767 19.121 18.4547 19.0989L18.4522 19.0959C18.4302 19.075 18.4008 19.0628 18.3683 19.0628H18.3677ZM18.8284 16.3982L18.8498 16.3823C19.0795 16.2138 19.9836 15.5486 19.9334 14.2358C19.9475 14.0784 19.9585 13.8818 19.9677 13.6876C19.9824 13.3709 19.9904 13.0646 19.9904 12.9464C19.9904 12.1427 20.1313 11.7023 20.3034 11.5216C20.3573 11.4652 20.4124 11.4371 20.4657 11.4334C20.5178 11.4297 20.5705 11.4499 20.6195 11.4897C20.7518 11.5982 20.851 11.8395 20.851 12.1568C20.851 12.392 20.8553 12.6481 20.8596 12.9017C20.8786 14.0061 20.897 15.064 20.5221 15.9498C20.4124 16.2095 20.323 16.4172 20.1123 16.6714C19.8997 16.9287 19.5628 17.235 18.957 17.6925C18.723 17.869 18.5233 18.049 18.3769 18.2567C18.2391 18.4527 18.1503 18.672 18.1276 18.9336H16.1938C16.1938 18.2077 16.2005 17.5909 16.3763 17.0904C16.5546 16.5826 16.9117 16.1887 17.6229 15.9106C17.923 15.793 18.1871 15.5774 18.4033 15.3177C18.652 15.0188 18.8388 14.661 18.9466 14.3266C19.0342 14.054 19.1512 13.9051 19.2707 13.8408C19.3356 13.8053 19.4017 13.7955 19.4642 13.8034C19.5273 13.812 19.588 13.839 19.6394 13.8776C19.7301 13.9449 19.7926 14.046 19.7999 14.141C19.8024 14.1728 19.8042 14.2034 19.8054 14.2347C19.8036 14.2531 19.8024 14.2708 19.8005 14.288C19.7993 14.3008 19.8017 14.3137 19.8079 14.3241C19.8146 15.5143 18.9883 16.122 18.7745 16.2782L18.7524 16.2947C18.7243 16.3155 18.7181 16.356 18.739 16.3841C18.7598 16.4123 18.8002 16.4184 18.8284 16.3976L18.8284 16.3982ZM12.971 12.258C12.971 12.5104 13.0684 12.6782 13.1658 12.8467C13.251 12.9931 13.3361 13.1401 13.3465 13.3453C13.2118 13.2657 13.0703 13.1916 12.922 13.1138C12.6985 12.9961 12.4602 12.8712 12.2072 12.707C12.2158 12.5092 12.2005 12.3676 12.1594 12.2408C12.1153 12.1049 12.0418 11.9897 11.9358 11.8433C11.9193 11.8206 11.8874 11.8151 11.8642 11.8317C11.8415 11.8482 11.836 11.88 11.8525 11.9033C11.9524 12.0418 12.0216 12.1496 12.0614 12.2727C12.0945 12.3738 12.1092 12.4877 12.1061 12.6402C11.7416 12.3915 11.3496 12.0571 10.9343 11.5474C10.9122 11.5199 10.8718 11.5156 10.8442 11.5382C10.821 11.5572 10.8142 11.5897 10.8271 11.6154C10.9968 12.0179 11.1799 12.3162 11.3723 12.5483C11.2663 12.5238 11.1799 12.5238 11.0966 12.5238C10.9557 12.5238 10.8246 12.5238 10.6121 12.3787C10.5888 12.3627 10.557 12.3689 10.541 12.3921C10.5251 12.4154 10.5312 12.4473 10.5545 12.4632C10.7934 12.6261 10.9392 12.6261 11.0972 12.6261C11.2124 12.6261 11.3343 12.6261 11.5113 12.7027C11.8158 13.0163 12.138 13.1915 12.4602 13.3667C12.5092 13.3931 12.5582 13.42 12.6072 13.447C12.394 13.5499 12.0246 13.4966 11.798 13.4635C11.7196 13.4519 11.6571 13.4433 11.6191 13.4433C11.591 13.4433 11.5677 13.4666 11.5677 13.4947C11.5677 13.5229 11.591 13.5462 11.6191 13.5462C11.651 13.5462 11.7098 13.5548 11.7833 13.5652C12.0418 13.6026 12.4743 13.665 12.7107 13.5052C13.1083 13.7343 13.496 14.0222 13.836 14.6525C13.4286 14.4405 12.7848 14.3082 12.2966 14.2084C12.0528 14.1582 11.8488 14.1165 11.738 14.0779C10.9858 13.8163 10.4804 13.3386 10.2238 12.7052C9.96954 12.0773 9.95852 11.2951 10.1937 10.4166C10.9619 11.1443 11.6492 11.3177 12.4589 11.5229C12.6108 11.5615 12.767 11.6007 12.9153 11.6411C13.2081 11.7214 13.4623 11.8543 13.6779 12.0203C13.9107 12.1998 14.0987 12.4191 14.2402 12.6518C14.22 12.7468 14.2065 12.8417 14.198 12.9367C14.1698 13.2607 14.2078 13.5811 14.3015 13.8641C14.345 13.9952 14.4001 14.1183 14.4663 14.231C14.446 14.2708 14.4222 14.3076 14.3958 14.3413C14.3805 14.3603 14.364 14.3786 14.3468 14.3952C14.1036 13.9045 13.8016 13.6301 13.4494 13.4083C13.4549 13.1425 13.3545 12.9685 13.254 12.7952C13.1633 12.639 13.0733 12.4828 13.0733 12.258C13.0733 12.2298 13.05 12.2065 13.0219 12.2065C12.9937 12.2065 12.9704 12.2298 12.9704 12.258L12.971 12.258ZM18.187 10.9502C17.8146 11.417 17.3827 11.7073 16.9509 11.9971C16.8008 12.0982 16.6507 12.1986 16.5025 12.307C16.4694 11.7864 16.693 11.542 16.8878 11.3288L16.9251 11.2877C16.9441 11.2669 16.9423 11.2345 16.9214 11.2155C16.9006 11.1965 16.8682 11.1983 16.8492 11.2191L16.8124 11.2596C16.5956 11.4966 16.3444 11.7704 16.4057 12.3793C16.0645 12.639 15.7386 12.9465 15.4562 13.3925C15.4531 13.1977 15.4121 13.0158 15.3729 12.8406C15.2939 12.4883 15.2222 12.168 15.5132 11.8519C15.5322 11.8311 15.5309 11.7986 15.5101 11.7796C15.4893 11.7606 15.4568 11.7619 15.4378 11.7827C15.1107 12.138 15.1879 12.4834 15.273 12.8632C15.3239 13.0886 15.3772 13.3275 15.3423 13.5842C15.1904 13.858 15.0538 14.1796 14.938 14.5655C14.7058 14.405 14.5288 14.1398 14.4241 13.8237C14.3358 13.5566 14.2997 13.254 14.3267 12.9478C14.3536 12.6409 14.443 12.3303 14.6054 12.0485C14.8443 11.6338 15.2424 11.2785 15.8323 11.0831C16.0308 11.0176 16.2145 10.9613 16.3928 10.9061C17.3943 10.5986 18.2434 10.3377 19.0519 9.34412C19.0948 9.43416 19.1346 9.52298 19.1707 9.60996C19.5781 10.59 19.5707 11.4127 19.2718 12.0846C18.9722 12.7572 18.3781 13.2822 17.6124 13.6638C17.496 13.7219 17.3759 13.7765 17.2534 13.8273C17.1536 13.869 17.0347 13.9112 16.9043 13.9572C16.4908 14.1042 15.9664 14.2904 15.5499 14.6267C15.7018 14.1213 15.8966 13.7422 16.1159 13.434C16.3205 13.3593 16.5257 13.314 16.7199 13.2705C17.055 13.1964 17.3576 13.129 17.5756 12.9354C17.5971 12.9164 17.5989 12.884 17.5799 12.8631C17.5609 12.8417 17.5285 12.8399 17.5076 12.8589C17.3092 13.0353 17.0194 13.0996 16.6978 13.1706C16.5453 13.2043 16.3854 13.2399 16.2243 13.2895C16.4804 12.9654 16.764 12.7204 17.0482 12.4748C17.0874 12.4411 17.1266 12.4068 17.1658 12.3725C17.3147 12.321 17.4562 12.2831 17.5897 12.2469C18.0381 12.1262 18.4013 12.0289 18.7156 11.5217C18.7303 11.4978 18.7229 11.4659 18.699 11.4512C18.6752 11.4365 18.6433 11.4439 18.6286 11.4677C18.3352 11.94 17.9897 12.0331 17.5634 12.1477C17.496 12.1661 17.4262 12.1844 17.3545 12.2053C17.6939 11.8965 18.021 11.5468 18.2929 11.02C18.3082 10.993 18.3021 10.9581 18.277 10.9379C18.2494 10.9158 18.209 10.9207 18.187 10.9483L18.187 10.9502Z" fill="#4FA34F"/>
<ellipse cx="14.3189" cy="42.4127" rx="9.24375" ry="1.8125" fill="url(#paint5_radial_140_1039)" fill-opacity="0.6"/>
<defs>
<linearGradient id="paint0_linear_140_1039" x1="-5.10031e-08" y1="7.98909" x2="22.0987" y2="32.6139" gradientUnits="userSpaceOnUse">
<stop stop-color="#4FA34F"/>
<stop offset="1" stop-color="#4FA34F"/>
</linearGradient>
<linearGradient id="paint1_linear_140_1039" x1="0.363281" y1="8.15605" x2="21.932" y2="32.081" gradientUnits="userSpaceOnUse">
<stop stop-color="#4FA34F"/>
<stop offset="1" stop-color="#4EA04E"/>
</linearGradient>
<linearGradient id="paint2_linear_140_1039" x1="26.5277" y1="19.562" x2="1.18487" y2="11.0499" gradientUnits="userSpaceOnUse">
<stop stop-color="#58B958"/>
<stop offset="1" stop-color="#468E46"/>
</linearGradient>
<linearGradient id="paint3_linear_140_1039" x1="25.7392" y1="19.2126" x2="1.99541" y2="11.2376" gradientUnits="userSpaceOnUse">
<stop stop-color="white"/>
<stop offset="1" stop-color="#999999"/>
</linearGradient>
<linearGradient id="paint4_linear_140_1039" x1="4.89619" y1="10.332" x2="24.1087" y2="25.3757" gradientUnits="userSpaceOnUse">
<stop stop-color="white"/>
<stop offset="1" stop-color="#C7C7C7"/>
</linearGradient>
<radialGradient id="paint5_radial_140_1039" cx="0" cy="0" r="1" gradientUnits="userSpaceOnUse" gradientTransform="translate(14.3189 42.4127) scale(9.24375 1.8125)">
<stop stop-opacity="0.8"/>
<stop offset="1" stop-color="#666666" stop-opacity="0"/>
</radialGradient>
</defs>
</svg>
