<svg width="29" height="45" viewBox="0 0 29 45" fill="none" xmlns="http://www.w3.org/2000/svg">
<path d="M21.478 14.3683C21.478 18.3345 18.2321 21.5522 14.2281 21.5522C10.2236 21.5522 6.97825 18.3345 6.97825 14.3683C6.97825 10.4009 10.2241 7.18427 14.2281 7.18427C18.2329 7.18399 21.478 10.4006 21.478 14.3683ZM29 14.3683C29 6.43274 22.5085 0 14.5 0C6.49204 0 0 6.43274 0 14.3683C0 17.8573 1.25628 21.0563 3.34392 23.5447L14.5125 39.5125L25.8445 23.3118C26.2515 22.8071 26.6242 22.2751 26.9605 21.7159L27.0751 21.5531H27.0563C28.2903 19.4384 29 16.9866 29 14.3683Z" fill="url(#paint0_linear_140_1096)"/>
<path d="M21.2208 14.3792C21.2208 18.2485 18.0687 21.3876 14.1804 21.3876C10.2915 21.3876 7.13996 18.2485 7.13996 14.3792C7.13996 10.5089 10.2921 7.37091 14.1804 7.37091C18.0695 7.37064 21.2208 10.5086 21.2208 14.3792ZM28.5256 14.3792C28.5256 6.63775 22.2216 0.362305 14.4444 0.362305C6.66779 0.362305 0.363281 6.63775 0.363281 14.3792C0.363281 17.7829 1.58328 20.9038 3.61061 23.3313L14.4566 38.9087L25.4612 23.1041C25.8564 22.6117 26.2184 22.0928 26.545 21.5473L26.6563 21.3884H26.638C27.8364 19.3254 28.5256 16.9335 28.5256 14.3792Z" fill="url(#paint1_linear_140_1096)"/>
<circle cx="14.5016" cy="14.5003" r="11.9625" fill="url(#paint2_linear_140_1096)"/>
<circle cx="14.4719" cy="14.4703" r="11.2077" fill="url(#paint3_linear_140_1096)"/>
<circle cx="14.5024" cy="14.5007" r="10.875" fill="url(#paint4_linear_140_1096)"/>
<path d="M11.4067 13.9379C12.8047 13.9379 13.938 12.8046 13.938 11.4066C13.938 10.0086 12.8047 8.87537 11.4067 8.87537C10.0088 8.87537 8.87549 10.0086 8.87549 11.4066C8.87549 12.8046 10.0088 13.9379 11.4067 13.9379Z" fill="#87D5F1"/>
<path d="M12.9255 15.0629H9.88799C9.32549 15.0629 8.87549 15.5129 8.87549 16.0754V19.1691C8.87549 19.7316 9.32549 20.1816 9.88799 20.1816H12.9817C13.5442 20.1816 13.9942 19.7316 13.9942 19.1691V16.0754C13.938 15.5129 13.488 15.0629 12.9255 15.0629Z" fill="#87D5F1"/>
<path d="M19.1131 8.87537H16.0193C15.4568 8.87537 15.0068 9.32537 15.0068 9.88787V12.9816C15.0068 13.5441 15.4568 13.9941 16.0193 13.9941H19.1131C19.6756 13.9941 20.1256 13.5441 20.1256 12.9816V9.88787C20.1256 9.32537 19.6756 8.87537 19.1131 8.87537Z" fill="#87D5F1"/>
<path d="M19.2817 16.7504H18.438V15.9066C18.438 15.4566 18.0442 15.0629 17.5942 15.0629C17.1442 15.0629 16.7505 15.4566 16.7505 15.9066V16.7504H15.9067C15.4567 16.7504 15.063 17.1441 15.063 17.5941C15.063 18.0441 15.4567 18.4379 15.9067 18.4379H16.7505V19.2816C16.7505 19.7316 17.1442 20.1254 17.5942 20.1254C18.0442 20.1254 18.438 19.7316 18.438 19.2816V18.4379H19.2817C19.7317 18.4379 20.1255 18.0441 20.1255 17.5941C20.1255 17.1441 19.7317 16.7504 19.2817 16.7504Z" fill="#87D5F1"/>
<ellipse cx="14.3189" cy="42.4127" rx="9.24375" ry="1.8125" fill="url(#paint5_radial_140_1096)" fill-opacity="0.6"/>
<defs>
<linearGradient id="paint0_linear_140_1096" x1="-5.10031e-08" y1="7.98909" x2="22.0987" y2="32.6139" gradientUnits="userSpaceOnUse">
<stop stop-color="#87D5F1"/>
<stop offset="1" stop-color="#86CCE5"/>
</linearGradient>
<linearGradient id="paint1_linear_140_1096" x1="0.363281" y1="8.15605" x2="21.932" y2="32.081" gradientUnits="userSpaceOnUse">
<stop stop-color="#87D5F1"/>
<stop offset="1" stop-color="#87D5F1"/>
</linearGradient>
<linearGradient id="paint2_linear_140_1096" x1="26.5277" y1="19.562" x2="1.18487" y2="11.0499" gradientUnits="userSpaceOnUse">
<stop stop-color="#7EC3DC"/>
<stop offset="1" stop-color="#72C3E0"/>
</linearGradient>
<linearGradient id="paint3_linear_140_1096" x1="25.7392" y1="19.2126" x2="1.99541" y2="11.2376" gradientUnits="userSpaceOnUse">
<stop stop-color="white"/>
<stop offset="1" stop-color="#999999"/>
</linearGradient>
<linearGradient id="paint4_linear_140_1096" x1="4.89619" y1="10.332" x2="24.1087" y2="25.3757" gradientUnits="userSpaceOnUse">
<stop stop-color="white"/>
<stop offset="1" stop-color="#C7C7C7"/>
</linearGradient>
<radialGradient id="paint5_radial_140_1096" cx="0" cy="0" r="1" gradientUnits="userSpaceOnUse" gradientTransform="translate(14.3189 42.4127) scale(9.24375 1.8125)">
<stop stop-opacity="0.8"/>
<stop offset="1" stop-color="#666666" stop-opacity="0"/>
</radialGradient>
</defs>
</svg>
