<svg width="29" height="45" viewBox="0 0 29 45" fill="none" xmlns="http://www.w3.org/2000/svg">
<path d="M21.478 14.3683C21.478 18.3345 18.2321 21.5522 14.2281 21.5522C10.2236 21.5522 6.97825 18.3345 6.97825 14.3683C6.97825 10.4009 10.2241 7.18427 14.2281 7.18427C18.2329 7.18399 21.478 10.4006 21.478 14.3683ZM29 14.3683C29 6.43274 22.5085 0 14.5 0C6.49204 0 0 6.43274 0 14.3683C0 17.8573 1.25628 21.0563 3.34392 23.5447L14.5125 39.5125L25.8445 23.3118C26.2515 22.8071 26.6242 22.2751 26.9605 21.7159L27.0751 21.5531H27.0563C28.2903 19.4384 29 16.9866 29 14.3683Z" fill="#708090"/>
<path d="M21.2208 14.3792C21.2208 18.2485 18.0687 21.3876 14.1804 21.3876C10.2915 21.3876 7.13996 18.2485 7.13996 14.3792C7.13996 10.5089 10.2921 7.37091 14.1804 7.37091C18.0695 7.37064 21.2208 10.5086 21.2208 14.3792ZM28.5256 14.3792C28.5256 6.63775 22.2216 0.362305 14.4444 0.362305C6.66779 0.362305 0.363281 6.63775 0.363281 14.3792C0.363281 17.7829 1.58328 20.9038 3.61061 23.3313L14.4566 38.9087L25.4612 23.1041C25.8564 22.6117 26.2184 22.0928 26.545 21.5473L26.6563 21.3884H26.638C27.8364 19.3254 28.5256 16.9335 28.5256 14.3792Z" fill="#708090"/>
<circle cx="14.5016" cy="14.5001" r="11.9625" fill="#708090"/>
<circle cx="14.4714" cy="14.4699" r="11.2077" fill="url(#paint0_linear_1177_918)"/>
<circle cx="14.502" cy="14.5005" r="10.875" fill="url(#paint1_linear_1177_918)"/>
<path d="M14.4961 18.8385H15.545V17.2651H14.4961V18.8385Z" fill="#708090"/>
<path d="M15.545 8.17482V8.52445H14.4961V8.17482C14.4961 8.07853 14.5746 8 14.6709 8H15.3702C15.4665 8 15.545 8.07853 15.545 8.17482Z" fill="#708090"/>
<path d="M14.4961 12.1954V11.4961H15.1954C15.3886 11.4961 15.545 11.6525 15.545 11.8457C15.545 12.039 15.3886 12.1954 15.1954 12.1954H14.4961Z" fill="#708090"/>
<path fill-rule="evenodd" clip-rule="evenodd" d="M13.0977 15.3421V10.2725H15.3703C16.2389 10.2725 16.9436 10.9772 16.9436 11.8458C16.9436 12.7144 16.2389 13.4191 15.3703 13.4191H14.3214C14.2251 13.4191 14.1465 13.4977 14.1465 13.594V15.3421H13.0977ZM14.3214 11.1465C14.2251 11.1465 14.1465 11.2251 14.1465 11.3214V12.3702C14.1465 12.4665 14.2251 12.5451 14.3214 12.5451H15.1954C15.5819 12.5451 15.8947 12.2323 15.8947 11.8458C15.8947 11.4593 15.5819 11.1465 15.1954 11.1465H14.3214Z" fill="#708090"/>
<path fill-rule="evenodd" clip-rule="evenodd" d="M11.8741 8.87402C11.3913 8.87402 11 9.26531 11 9.7481V16.0415C11 16.5242 11.3913 16.9155 11.8741 16.9155H18.1674C18.6502 16.9155 19.0415 16.5242 19.0415 16.0415V9.7481C19.0415 9.26531 18.6502 8.87402 18.1674 8.87402H11.8741ZM12.923 9.92292C12.8267 9.92292 12.7482 10.0014 12.7482 10.0977V15.517C12.7482 15.6133 12.8267 15.6918 12.923 15.6918H14.3215C14.4178 15.6918 14.4963 15.6133 14.4963 15.517V13.7689H15.3704C16.4322 13.7689 17.2934 12.9077 17.2934 11.8459C17.2934 10.784 16.4322 9.92292 15.3704 9.92292H12.923Z" fill="#708090"/>
<path d="M13.7969 19.3628C13.7969 19.2665 13.8754 19.188 13.9717 19.188H16.0695C16.1658 19.188 16.2443 19.2665 16.2443 19.3628V21.8102C16.2443 21.9065 16.1658 21.985 16.0695 21.985H13.9717C13.8754 21.985 13.7969 21.9065 13.7969 21.8102V19.3628Z" fill="#708090"/>
<ellipse cx="14.3189" cy="42.4126" rx="9.24375" ry="1.8125" fill="url(#paint2_radial_1177_918)" fill-opacity="0.6"/>
<defs>
<linearGradient id="paint0_linear_1177_918" x1="25.7387" y1="19.2122" x2="1.99492" y2="11.2372" gradientUnits="userSpaceOnUse">
<stop stop-color="white"/>
<stop offset="1" stop-color="#999999"/>
</linearGradient>
<linearGradient id="paint1_linear_1177_918" x1="4.8957" y1="10.3317" x2="24.1082" y2="25.3755" gradientUnits="userSpaceOnUse">
<stop stop-color="white"/>
<stop offset="1" stop-color="#C7C7C7"/>
</linearGradient>
<radialGradient id="paint2_radial_1177_918" cx="0" cy="0" r="1" gradientUnits="userSpaceOnUse" gradientTransform="translate(14.3189 42.4126) scale(9.24375 1.8125)">
<stop/>
<stop offset="1" stop-color="#666666" stop-opacity="0"/>
</radialGradient>
</defs>
</svg>
