<svg width="29" height="45" viewBox="0 0 29 45" fill="none" xmlns="http://www.w3.org/2000/svg">
<path d="M21.478 14.3683C21.478 18.3345 18.2321 21.5522 14.2281 21.5522C10.2236 21.5522 6.97825 18.3345 6.97825 14.3683C6.97825 10.4009 10.2241 7.18427 14.2281 7.18427C18.2329 7.18399 21.478 10.4006 21.478 14.3683ZM29 14.3683C29 6.43274 22.5085 0 14.5 0C6.49204 0 0 6.43274 0 14.3683C0 17.8573 1.25628 21.0563 3.34392 23.5447L14.5125 39.5125L25.8445 23.3118C26.2515 22.8071 26.6242 22.2751 26.9605 21.7159L27.0751 21.5531H27.0563C28.2903 19.4384 29 16.9866 29 14.3683Z" fill="#187531"/>
<path d="M21.2206 14.3792C21.2206 18.2485 18.0685 21.3876 14.1801 21.3876C10.2913 21.3876 7.13971 18.2485 7.13971 14.3792C7.13971 10.5089 10.2918 7.37091 14.1801 7.37091C18.0693 7.37064 21.2206 10.5086 21.2206 14.3792ZM28.5253 14.3792C28.5253 6.63775 22.2214 0.362305 14.4442 0.362305C6.66754 0.362305 0.363037 6.63775 0.363037 14.3792C0.363037 17.7829 1.58303 20.9038 3.61036 23.3313L14.4564 38.9087L25.461 23.1041C25.8562 22.6117 26.2182 22.0928 26.5448 21.5473L26.656 21.3884H26.6378C27.8362 19.3254 28.5253 16.9335 28.5253 14.3792Z" fill="#187531"/>
<circle cx="14.5016" cy="14.5001" r="11.9625" fill="#187531"/>
<circle cx="14.4719" cy="14.4699" r="11.2077" fill="url(#paint0_linear_1206_2646)"/>
<circle cx="14.5022" cy="14.5005" r="10.875" fill="url(#paint1_linear_1206_2646)"/>
<ellipse cx="14.3192" cy="42.4126" rx="9.24375" ry="1.8125" fill="url(#paint2_radial_1206_2646)" fill-opacity="0.6"/>
<path d="M8 9.21858V20.5953H14.5024V8L8 9.21858ZM12.8743 18.1581H9.62313V16.9346H12.8743V18.1581ZM12.8743 15.3164H9.62313V14.0929H12.8743V15.3164ZM12.8743 12.4747H9.62313V11.2561H12.8743V12.4747Z" fill="#187531"/>
<path d="M15.3118 20.5955H21.0001V12.0654H15.3118V20.5955ZM19.3721 18.1583H16.9349V16.9348H19.3721V18.1583ZM19.3721 15.3166H16.9349V14.0931H19.3721V15.3166Z" fill="#187531"/>
<defs>
<linearGradient id="paint0_linear_1206_2646" x1="25.7392" y1="19.2122" x2="1.99541" y2="11.2372" gradientUnits="userSpaceOnUse">
<stop stop-color="white"/>
<stop offset="1" stop-color="#999999"/>
</linearGradient>
<linearGradient id="paint1_linear_1206_2646" x1="4.89595" y1="10.3317" x2="24.1084" y2="25.3755" gradientUnits="userSpaceOnUse">
<stop stop-color="white"/>
<stop offset="1" stop-color="#C7C7C7"/>
</linearGradient>
<radialGradient id="paint2_radial_1206_2646" cx="0" cy="0" r="1" gradientUnits="userSpaceOnUse" gradientTransform="translate(14.3192 42.4126) scale(9.24375 1.8125)">
<stop stop-opacity="0.8"/>
<stop offset="1" stop-color="#666666" stop-opacity="0"/>
</radialGradient>
</defs>
</svg>
