<svg width="48" height="60" viewBox="0 0 48 60" fill="none" xmlns="http://www.w3.org/2000/svg">
<path d="M23.81 0C26.27 0 28.65 0.369999 30.88 1.07C32 1.42 33.08 1.85 34.12 2.35C34.81 2.68 35.49 3.05 36.14 3.45C36.3 3.55 36.47 3.65 36.63 3.75C36.79 3.85 36.95 3.96 37.11 4.06C37.43 4.27 37.74 4.49 38.04 4.72C38.19 4.83 38.34 4.95 38.49 5.07C38.64 5.19 38.79 5.31 38.93 5.43C39.22 5.67 39.51 5.92 39.79 6.18C40.07 6.43 40.34 6.69 40.61 6.96V6.98C42.09 8.46 43.37 10.13 44.42 11.95C44.8 12.61 45.15 13.3 45.47 14C45.55 14.18 45.63 14.35 45.7 14.53C46.9 17.38 47.57 20.5 47.57 23.79C47.57 26.1 47.24 28.34 46.62 30.46C42.2 46.43 23.78 59.47 23.78 59.47C23.78 59.47 5.38 46.44 0.950001 30.48C0.330001 28.36 0 26.11 0 23.79C0 17.02 2.83 10.9 7.38 6.57C7.79 6.18 8.22 5.8 8.66 5.43C8.81 5.31 8.96 5.19 9.1 5.07C9.25 4.95 9.4 4.84 9.55 4.72C9.86 4.49 10.17 4.27 10.48 4.06C10.64 3.95 10.8 3.85 10.96 3.75C11.12 3.65 11.28 3.55 11.45 3.45C11.61 3.35 11.78 3.25 11.94 3.16C12.11 3.06 12.27 2.97 12.44 2.88C12.61 2.79 12.78 2.7 12.95 2.61C13.12 2.52 13.29 2.44 13.47 2.35C13.99 2.1 14.52 1.87 15.06 1.65C15.6 1.44 16.15 1.24 16.71 1.07C18.94 0.369999 21.32 0 23.78 0" fill="#187531"/>
<path d="M10.6399 12.4197V35.4797H23.8199V9.94971L10.6399 12.4197ZM20.5199 30.5397H13.9299V28.0597H20.5199V30.5397ZM20.5199 24.7797H13.9299V22.2997H20.5199V24.7797ZM20.5199 19.0197H13.9299V16.5497H20.5199V19.0197Z" fill="white"/>
<path d="M25.4602 35.4799H36.9902V18.1899H25.4602V35.4799ZM33.6902 30.5399H28.7502V28.0599H33.6902V30.5399ZM33.6902 24.7799H28.7502V22.2999H33.6902V24.7799Z" fill="white"/>
</svg>
