<svg width="29" height="45" viewBox="0 0 29 45" fill="none" xmlns="http://www.w3.org/2000/svg">
<path d="M21.478 14.3683C21.478 18.3345 18.2321 21.5522 14.2281 21.5522C10.2236 21.5522 6.97825 18.3345 6.97825 14.3683C6.97825 10.4009 10.2241 7.18427 14.2281 7.18427C18.2329 7.18399 21.478 10.4006 21.478 14.3683ZM29 14.3683C29 6.43274 22.5085 0 14.5 0C6.49204 0 0 6.43274 0 14.3683C0 17.8573 1.25628 21.0563 3.34392 23.5447L14.5125 39.5125L25.8445 23.3118C26.2515 22.8071 26.6242 22.2751 26.9605 21.7159L27.0751 21.5531H27.0563C28.2903 19.4384 29 16.9866 29 14.3683Z" fill="url(#paint0_linear_140_724)"/>
<path d="M21.2208 14.3792C21.2208 18.2485 18.0687 21.3876 14.1804 21.3876C10.2915 21.3876 7.13996 18.2485 7.13996 14.3792C7.13996 10.5089 10.2921 7.37091 14.1804 7.37091C18.0695 7.37064 21.2208 10.5086 21.2208 14.3792ZM28.5256 14.3792C28.5256 6.63775 22.2216 0.362305 14.4444 0.362305C6.66779 0.362305 0.363281 6.63775 0.363281 14.3792C0.363281 17.7829 1.58328 20.9038 3.61061 23.3313L14.4566 38.9087L25.4612 23.1041C25.8564 22.6117 26.2184 22.0928 26.545 21.5473L26.6563 21.3884H26.638C27.8364 19.3254 28.5256 16.9335 28.5256 14.3792Z" fill="url(#paint1_linear_140_724)"/>
<circle cx="14.5016" cy="14.5003" r="11.9625" fill="url(#paint2_linear_140_724)"/>
<circle cx="14.4719" cy="14.4703" r="11.2077" fill="url(#paint3_linear_140_724)"/>
<circle cx="14.5024" cy="14.5007" r="10.875" fill="url(#paint4_linear_140_724)"/>
<path d="M11.7813 10.7172C11.8549 10.7172 11.9148 10.6573 11.9148 10.5837V10.0392C11.9148 9.96557 11.8549 9.90564 11.7813 9.90564C11.7076 9.90564 11.646 9.96557 11.646 10.0392V10.5837C11.646 10.6573 11.7076 10.7172 11.7813 10.7172Z" fill="#4682B4"/>
<path d="M12.6697 10.7292C12.7433 10.7292 12.8033 10.6693 12.8033 10.5956V10.0392C12.8033 9.96557 12.7433 9.90564 12.6697 9.90564C12.5961 9.90564 12.5362 9.96557 12.5362 10.0392V10.5939C12.5345 10.6676 12.5961 10.7292 12.6697 10.7292Z" fill="#4682B4"/>
<path d="M13.5579 10.7292C13.6315 10.7292 13.6915 10.6693 13.6915 10.5956V10.0392C13.6915 9.96557 13.6315 9.90564 13.5579 9.90564C13.4843 9.90564 13.4244 9.96557 13.4244 10.0392V10.5939C13.4226 10.6676 13.4843 10.7292 13.5579 10.7292Z" fill="#4682B4"/>
<path d="M12.6697 12.0374C12.7433 12.0374 12.8033 11.9775 12.8033 11.9039V11.3491C12.8033 11.2755 12.7433 11.2156 12.6697 11.2156C12.5961 11.2156 12.5362 11.2755 12.5362 11.3491V11.9039C12.5345 11.9775 12.5961 12.0374 12.6697 12.0374Z" fill="#4682B4"/>
<path d="M13.5579 12.0374C13.6315 12.0374 13.6915 11.9775 13.6915 11.9039V11.3491C13.6915 11.2755 13.6315 11.2156 13.5579 11.2156C13.4843 11.2156 13.4244 11.2755 13.4244 11.3491V11.9039C13.4226 11.9775 13.4843 12.0374 13.5579 12.0374Z" fill="#4682B4"/>
<path d="M12.6697 13.3454C12.7433 13.3454 12.8033 13.2855 12.8033 13.2119V12.6571C12.8033 12.5835 12.7433 12.5236 12.6697 12.5236C12.5961 12.5236 12.5362 12.5835 12.5362 12.6571V13.2119C12.5345 13.2855 12.5961 13.3454 12.6697 13.3454Z" fill="#4682B4"/>
<path d="M13.5579 13.3454C13.6315 13.3454 13.6915 13.2855 13.6915 13.2119V12.6571C13.6915 12.5835 13.6315 12.5236 13.5579 12.5236C13.4843 12.5236 13.4244 12.5835 13.4244 12.6571V13.2119C13.4226 13.2855 13.4843 13.3454 13.5579 13.3454Z" fill="#4682B4"/>
<path d="M12.6697 14.6535C12.7433 14.6535 12.8033 14.5936 12.8033 14.52V13.9652C12.8033 13.8916 12.7433 13.8317 12.6697 13.8317C12.5961 13.8317 12.5362 13.8916 12.5362 13.9652V14.52C12.5345 14.5936 12.5961 14.6535 12.6697 14.6535Z" fill="#4682B4"/>
<path d="M13.5579 14.6535C13.6315 14.6535 13.6915 14.5936 13.6915 14.52V13.9652C13.6915 13.8916 13.6315 13.8317 13.5579 13.8317C13.4843 13.8317 13.4244 13.8916 13.4244 13.9652V14.52C13.4226 14.5936 13.4843 14.6535 13.5579 14.6535Z" fill="#4682B4"/>
<path d="M12.6697 15.9632C12.7433 15.9632 12.8033 15.9033 12.8033 15.8279V15.2732C12.8033 15.1996 12.7433 15.1396 12.6697 15.1396C12.5961 15.1396 12.5362 15.1996 12.5362 15.2732V15.8279C12.5345 15.9016 12.5961 15.9632 12.6697 15.9632Z" fill="#4682B4"/>
<path d="M13.5579 15.9632C13.6315 15.9632 13.6915 15.9033 13.6915 15.8279V15.2732C13.6915 15.1996 13.6315 15.1396 13.5579 15.1396C13.4843 15.1396 13.4244 15.1996 13.4244 15.2732V15.8279C13.4226 15.9016 13.4843 15.9632 13.5579 15.9632Z" fill="#4682B4"/>
<path d="M12.6697 17.2713C12.7433 17.2713 12.8033 17.2114 12.8033 17.1378V16.583C12.8033 16.5094 12.7433 16.4495 12.6697 16.4495C12.5961 16.4495 12.5362 16.5094 12.5362 16.583V17.1378C12.5345 17.2114 12.5961 17.2713 12.6697 17.2713Z" fill="#4682B4"/>
<path d="M13.5579 17.2713C13.6315 17.2713 13.6915 17.2114 13.6915 17.1378V16.583C13.6915 16.5094 13.6315 16.4495 13.5579 16.4495C13.4843 16.4495 13.4244 16.5094 13.4244 16.583V17.1378C13.4226 17.2114 13.4843 17.2713 13.5579 17.2713Z" fill="#4682B4"/>
<path d="M12.6697 18.5795C12.7433 18.5795 12.8033 18.5196 12.8033 18.446V17.8912C12.8033 17.8176 12.7433 17.7577 12.6697 17.7577C12.5961 17.7577 12.5362 17.8176 12.5362 17.8912V18.446C12.5345 18.5196 12.5961 18.5795 12.6697 18.5795Z" fill="#4682B4"/>
<path d="M13.5579 18.5795C13.6315 18.5795 13.6915 18.5196 13.6915 18.446V17.8912C13.6915 17.8176 13.6315 17.7577 13.5579 17.7577C13.4843 17.7577 13.4244 17.8176 13.4244 17.8912V18.446C13.4226 18.5196 13.4843 18.5795 13.5579 18.5795Z" fill="#4682B4"/>
<path d="M19.6997 12.7496H17.7255V11.6538C17.7255 11.5973 17.693 11.5511 17.6416 11.5289L14.4228 10.2036C14.4057 10.1968 14.3868 10.1968 14.3697 10.1933V9.47767C14.3697 9.40233 14.3098 9.34412 14.2362 9.34412H11.1013C11.0259 9.34412 10.966 9.40404 10.966 9.47767V11.7H9.00904C8.93542 11.7 8.87549 11.7617 8.87549 11.8353V19.2609C8.87549 19.3363 8.93541 19.3945 9.00904 19.3945H19.698C19.7734 19.3945 19.8316 19.3346 19.8316 19.2609V12.8848C19.8333 12.8112 19.7733 12.7496 19.6997 12.7496ZM12.0173 17.9443H9.14428V17.2046H12.0189V17.9443H12.0173ZM12.0173 15.9256H9.14428V15.1843H12.0189V15.9256H12.0173ZM12.0173 13.907H9.14428V13.1656H12.0189V13.907H12.0173ZM14.1044 19.1274H12.2878V11.8353C12.2878 11.76 12.2262 11.7 12.1543 11.7H11.9163V11.3234C11.9163 11.248 11.8547 11.1881 11.7828 11.1881C11.7074 11.1881 11.6475 11.2497 11.6475 11.3234V11.7H11.2366V9.61126H14.1062V19.1274L14.1044 19.1274ZM17.4569 19.1274H16.3987V11.308L17.4569 11.7446V19.1274ZM19.5645 19.1274H17.7256V18.4254H18.9139C19.0115 18.4254 19.092 18.3466 19.092 18.249V17.6686C19.092 17.5727 19.0115 17.4923 18.9139 17.4923H17.7256V17.1704H18.9139C19.0115 17.1704 19.092 17.0899 19.092 16.9923V16.4119C19.092 16.316 19.0115 16.2355 18.9139 16.2355H17.7256V15.9136H18.9139C19.0115 15.9136 19.092 15.8332 19.092 15.7356V15.1552C19.092 15.0593 19.0115 14.9788 18.9139 14.9788H17.7256V14.6569H18.9139C19.0115 14.6569 19.092 14.5765 19.092 14.4806V13.9001C19.092 13.8026 19.0115 13.7221 18.9139 13.7221H17.7256V13.0218H19.5645V19.1274Z" fill="#4682B4"/>
<path d="M19.0625 9.86462C18.335 9.86462 17.7441 10.4554 17.7441 11.183C17.7441 11.9105 18.3349 12.5013 19.0625 12.5013C19.2529 12.5013 19.4385 12.4623 19.6045 12.3842C19.5703 12.35 19.541 12.3109 19.5215 12.267C19.375 12.3304 19.2236 12.3597 19.0625 12.3597C18.4131 12.3597 17.8858 11.8324 17.8858 11.183C17.8858 10.5336 18.4131 10.0063 19.0625 10.0063C19.7119 10.0063 20.2392 10.5336 20.2392 11.183C20.2392 11.3246 20.2148 11.4613 20.166 11.5932C20.2099 11.6127 20.249 11.642 20.2881 11.6713C20.3515 11.515 20.3808 11.3539 20.3808 11.183C20.3808 10.4555 19.79 9.86465 19.0625 9.86465L19.0625 9.86462ZM19.0625 10.1039C18.4668 10.1039 17.9834 10.5873 17.9834 11.183C17.9834 11.7786 18.4668 12.262 19.0625 12.262C19.209 12.262 19.3555 12.2327 19.4873 12.1741C19.4727 12.1302 19.4678 12.0863 19.4678 12.0423C19.4678 11.7689 19.6875 11.5492 19.9609 11.5492C20 11.5492 20.0342 11.554 20.0732 11.5638C20.1172 11.4417 20.1416 11.3148 20.1416 11.1829C20.1416 10.5873 19.6582 10.1039 19.0625 10.1039ZM19.4775 10.89H19.6875C19.7119 10.89 19.7363 10.9144 19.7363 10.9388C19.7363 10.9681 19.7119 10.9876 19.6875 10.9876H19.4775C19.4531 11.1634 19.3017 11.3001 19.1211 11.3001H18.5547L19.1992 11.9447C19.2187 11.9642 19.2187 11.9935 19.1992 12.013C19.1894 12.0228 19.1797 12.0277 19.165 12.0277C19.1504 12.0277 19.1406 12.0228 19.1309 12.013L18.4033 11.2855C18.3887 11.2709 18.3838 11.2513 18.3936 11.2318C18.4033 11.2123 18.418 11.2025 18.4375 11.2025H19.1211C19.248 11.2025 19.3555 11.1097 19.3799 10.9877H18.4375C18.4131 10.9877 18.3887 10.9681 18.3887 10.9388C18.3887 10.9144 18.4131 10.89 18.4375 10.89H19.3799C19.3555 10.7679 19.248 10.6752 19.1211 10.6752H18.4375C18.4131 10.6752 18.3887 10.6507 18.3887 10.6263C18.3887 10.597 18.4131 10.5775 18.4375 10.5775H19.6875C19.7119 10.5775 19.7363 10.597 19.7363 10.6263C19.7363 10.6507 19.7119 10.6752 19.6875 10.6752H19.3701C19.4287 10.7337 19.4678 10.807 19.4775 10.89ZM19.9609 11.6468C19.7412 11.6468 19.5654 11.8226 19.5654 12.0423C19.5654 12.262 19.7412 12.4378 19.9609 12.4378C20.1806 12.4378 20.3564 12.262 20.3564 12.0423C20.3564 11.8226 20.1806 11.6468 19.9609 11.6468ZM20.2392 11.9691L19.9365 12.2718C19.9267 12.2816 19.9121 12.2864 19.9023 12.2864C19.8926 12.2864 19.8779 12.2816 19.8681 12.2718L19.6728 12.0765C19.6533 12.057 19.6533 12.0277 19.6728 12.0081C19.6924 11.9886 19.7217 11.9886 19.7412 12.0081L19.9023 12.1693L20.1709 11.9007C20.1904 11.8812 20.2197 11.8812 20.2392 11.9007C20.2588 11.9202 20.2588 11.9544 20.2392 11.9691Z" fill="#4682B4"/>
<ellipse cx="14.3189" cy="42.4127" rx="9.24375" ry="1.8125" fill="url(#paint5_radial_140_724)" fill-opacity="0.6"/>
<defs>
<linearGradient id="paint0_linear_140_724" x1="-5.10031e-08" y1="7.98909" x2="22.0987" y2="32.6139" gradientUnits="userSpaceOnUse">
<stop stop-color="#4682B4"/>
<stop offset="1" stop-color="#4681B1"/>
</linearGradient>
<linearGradient id="paint1_linear_140_724" x1="0.363281" y1="8.15605" x2="21.932" y2="32.081" gradientUnits="userSpaceOnUse">
<stop stop-color="#4682B4"/>
<stop offset="1" stop-color="#467DAB"/>
</linearGradient>
<linearGradient id="paint2_linear_140_724" x1="26.5277" y1="19.562" x2="1.18487" y2="11.0499" gradientUnits="userSpaceOnUse">
<stop stop-color="#4E8EC4"/>
<stop offset="1" stop-color="#4176A3"/>
</linearGradient>
<linearGradient id="paint3_linear_140_724" x1="25.7392" y1="19.2126" x2="1.99541" y2="11.2376" gradientUnits="userSpaceOnUse">
<stop stop-color="white"/>
<stop offset="1" stop-color="#999999"/>
</linearGradient>
<linearGradient id="paint4_linear_140_724" x1="4.89619" y1="10.332" x2="24.1087" y2="25.3757" gradientUnits="userSpaceOnUse">
<stop stop-color="white"/>
<stop offset="1" stop-color="#C7C7C7"/>
</linearGradient>
<radialGradient id="paint5_radial_140_724" cx="0" cy="0" r="1" gradientUnits="userSpaceOnUse" gradientTransform="translate(14.3189 42.4127) scale(9.24375 1.8125)">
<stop stop-opacity="0.8"/>
<stop offset="1" stop-color="#666666" stop-opacity="0"/>
</radialGradient>
</defs>
</svg>
