<svg width="29" height="45" viewBox="0 0 29 45" fill="none" xmlns="http://www.w3.org/2000/svg">
<path d="M21.478 14.3683C21.478 18.3345 18.2321 21.5522 14.2281 21.5522C10.2236 21.5522 6.97825 18.3345 6.97825 14.3683C6.97825 10.4009 10.2241 7.18427 14.2281 7.18427C18.2329 7.18399 21.478 10.4006 21.478 14.3683ZM29 14.3683C29 6.43274 22.5085 0 14.5 0C6.49204 0 0 6.43274 0 14.3683C0 17.8573 1.25628 21.0563 3.34392 23.5447L14.5125 39.5125L25.8445 23.3118C26.2515 22.8071 26.6242 22.2751 26.9605 21.7159L27.0751 21.5531H27.0563C28.2903 19.4384 29 16.9866 29 14.3683Z" fill="#708090"/>
<path d="M21.2208 14.3792C21.2208 18.2485 18.0687 21.3876 14.1804 21.3876C10.2915 21.3876 7.13996 18.2485 7.13996 14.3792C7.13996 10.5089 10.2921 7.37091 14.1804 7.37091C18.0695 7.37064 21.2208 10.5086 21.2208 14.3792ZM28.5256 14.3792C28.5256 6.63775 22.2216 0.362305 14.4444 0.362305C6.66779 0.362305 0.363281 6.63775 0.363281 14.3792C0.363281 17.7829 1.58328 20.9038 3.61061 23.3313L14.4566 38.9087L25.4612 23.1041C25.8564 22.6117 26.2184 22.0928 26.545 21.5473L26.6563 21.3884H26.638C27.8364 19.3254 28.5256 16.9335 28.5256 14.3792Z" fill="#708090"/>
<circle cx="14.5016" cy="14.5001" r="11.9625" fill="#708090"/>
<circle cx="14.4714" cy="14.4699" r="11.2077" fill="url(#paint0_linear_1177_1045)"/>
<circle cx="14.502" cy="14.5005" r="10.875" fill="url(#paint1_linear_1177_1045)"/>
<path d="M14.8319 14.7189V16.2249L10.4359 17.8529V16.9102L14.8319 14.7189ZM10.4366 16.6902V16.8464L14.8326 14.6532V14.393L10.4366 16.6902ZM14.8319 16.2832L10.4359 17.9112V18.386L14.8319 17.1917V16.2832ZM14.8319 11.1999V14.3319L10.4359 16.6272L10.4339 14.7664L10.4453 14.757L14.8319 11.1999ZM11.0582 15.0146L10.6331 15.3177V16.3691L11.0582 16.125V15.0146ZM11.6235 14.6123L11.1802 14.9288V16.0546L11.6235 15.7991V14.6123ZM12.302 14.1308L11.775 14.5063L11.7636 14.5151V15.72L12.302 15.4102L12.302 14.1308ZM12.9806 13.6494L12.4992 13.9907V15.2976L12.9806 15.022V13.6494ZM13.6585 13.1673L13.1771 13.5086V14.908L13.6585 14.6324V13.1673ZM14.5041 12.5638L13.9388 12.9661V14.4722L14.5041 14.1463V12.5638ZM10.4367 18.4451L10.7055 19.7272L10.9677 19.7071C10.8544 19.298 10.7753 18.8568 10.7055 18.6034L10.6968 18.5738L11.8092 18.307L11.818 18.3318L12.2545 19.6024L13.3468 19.5166L12.8291 17.9945L14.3828 17.6009L14.3915 17.6237L14.541 18.0535H14.8327V17.2509L10.4367 18.4451ZM7.0001 18.0924V18.1615L10.295 16.8995V16.7647L7.0001 18.0924ZM10.295 14.8738V16.7051L10.2776 16.7125L7 18.0669V16.9257L7.01341 16.9176L10.295 14.8738ZM7.39971 17.7678V17.7598C7.39636 17.6002 7.39099 17.3051 7.39301 17.1268V17.1073L7.15564 17.2401V17.8697L7.39301 17.7705L7.39971 17.7678ZM7.88116 17.5546C7.88116 17.507 7.88049 17.4345 7.87982 17.3521C7.8778 17.1844 7.87579 16.9759 7.87847 16.8606L7.87914 16.8411L7.56869 17.0114L7.58545 17.686L7.88116 17.5613L7.88116 17.5546ZM8.36059 16.5763L8.06086 16.7412L8.05483 16.7446V17.4895L8.35991 17.3601L8.36059 16.5763ZM8.92787 16.2618L8.64221 16.42L8.63618 16.4234V17.2428L8.92116 17.1207L8.92787 17.1181L8.92787 16.2618ZM9.50049 15.948L9.10153 16.1672L9.09549 16.1706V17.049L9.49312 16.8793L9.49983 16.8767L9.50049 15.948ZM10.165 15.5812L9.77272 15.7964L9.76669 15.7998V16.764L10.1643 16.5964L10.165 15.5812ZM10.2951 17.92V16.9551L7.00013 18.1856V18.8105L10.2951 17.92ZM7.00013 18.8695V19.2886L10.2951 18.4155V17.979L7.00013 18.8695ZM13.9582 19.8753C13.9113 20.0604 13.8348 20.1656 13.7437 20.1717H13.7349C13.6464 20.1717 13.5599 20.0778 13.4909 19.9068C13.4231 19.7392 13.3769 19.5145 13.3608 19.2732C13.3306 18.8272 13.4117 18.3458 13.6203 18.3317H13.629C13.7175 18.3317 13.804 18.4256 13.8731 18.5973C13.9408 18.7649 13.9871 18.9895 14.0031 19.2302C14.0186 19.471 14.0031 19.7003 13.9582 19.8753ZM14.4256 20.1442H14.4169C14.2211 20.1442 14.0742 19.6909 14.0441 19.2457C14.0139 18.7937 14.1017 18.3183 14.3015 18.3049H14.3109C14.5134 18.3049 14.6536 18.7642 14.6831 19.2034C14.7132 19.6487 14.6328 20.1301 14.4256 20.1442ZM7.69409 19.8022C7.69744 19.9108 7.6847 20.0141 7.65922 20.0925C7.62167 20.2052 7.57004 20.2293 7.53249 20.23H7.52712C7.47683 20.228 7.43191 20.1817 7.39838 20.0966C7.36821 20.0188 7.3501 19.9162 7.34675 19.8076C7.3434 19.6989 7.35614 19.5957 7.38162 19.5172C7.4185 19.4046 7.4708 19.3804 7.50768 19.3798C7.50835 19.3791 7.50969 19.3798 7.51103 19.3798C7.564 19.3824 7.60826 19.4287 7.64179 19.5139C7.67263 19.591 7.6914 19.6936 7.69409 19.8022ZM8.10378 19.7888C8.10646 19.9008 8.09439 20.0067 8.06824 20.0878C8.03069 20.2039 7.97839 20.2293 7.94151 20.2293H7.94084H7.93548C7.88519 20.2273 7.84026 20.1797 7.80741 20.0919C7.77723 20.0114 7.75913 19.9055 7.75644 19.7942C7.75376 19.6815 7.76583 19.5756 7.79198 19.4951C7.82953 19.3791 7.88183 19.3536 7.91871 19.3536C7.92005 19.3529 7.92072 19.3536 7.92206 19.3536C7.97437 19.3563 8.01929 19.4039 8.05215 19.4911C8.08232 19.5709 8.10043 19.6768 8.10378 19.7888ZM7.97772 19.8089C7.97705 19.76 7.97235 19.7144 7.96431 19.6795C7.95559 19.6399 7.94352 19.6191 7.92944 19.6178H7.92743C7.9167 19.6185 7.90195 19.6299 7.89189 19.6815C7.88519 19.7164 7.88183 19.7626 7.8825 19.8116C7.88317 19.8605 7.88787 19.9061 7.89591 19.941C7.90664 19.9906 7.9214 20.002 7.93145 20.0027H7.93279C7.94352 20.0027 7.95827 19.9913 7.96833 19.939C7.97504 19.9035 7.97839 19.8572 7.97772 19.8089ZM7.56803 19.8089C7.56736 19.76 7.56266 19.7144 7.55462 19.6795C7.5459 19.6399 7.53383 19.6191 7.51975 19.6178H7.51774C7.50701 19.6185 7.49226 19.6299 7.4822 19.6815C7.47549 19.7164 7.47214 19.7626 7.47281 19.8116C7.47348 19.8605 7.47817 19.9061 7.48622 19.941C7.49695 19.9906 7.5117 20.002 7.52176 20.0027H7.5231C7.53383 20.0027 7.54858 19.9913 7.55864 19.939C7.56534 19.9035 7.5687 19.8572 7.56803 19.8089ZM10.3145 18.4538L7.0007 19.3362L7.12475 19.9014L7.31653 19.8921L7.21326 19.4153L8.02259 19.2242L8.19089 19.8559L9.21748 19.8103L9.02839 19.0016L10.2226 18.7012L10.4767 19.7566L10.6363 19.7513L10.3145 18.4538ZM14.8057 18.2794V18.962C14.8057 19.6279 15.2429 20.1697 15.7807 20.1697H15.8712V19.3315C15.8712 18.9379 16.13 18.6174 16.4479 18.6174H21.0491C21.367 18.6174 21.6258 18.9379 21.6258 19.3315V20.1697H21.7163C22.2541 20.1697 22.6913 19.6279 22.6913 18.962L22.6919 18.2794H14.8057ZM18.8865 19.1558V20.1697H19.2889V19.1558H18.8865ZM19.5651 19.1558V20.1697H19.9674V19.1558H19.5651ZM20.243 19.1558V20.1697H20.6453V19.1558H20.243ZM20.9216 19.1558V20.1697H21.3239V19.1558H20.9216ZM16.1729 19.1558V20.1697H16.5752V19.1558H16.1729ZM16.8515 19.1558V20.1697H17.2538V19.1558H16.8515ZM17.53 19.1558V20.1697H17.9324V19.1558H17.53ZM18.2079 19.1558V20.1697H18.6103V19.1558H18.2079ZM18.918 11.3434H18.5787V13.8156H18.918V11.3434ZM21.5097 11.6632C21.5097 11.4855 21.3742 11.3441 21.2086 11.3441H19.2574V13.8163H21.5097L21.5097 11.6632ZM18.2395 11.3434H16.2883C16.1233 11.3434 15.9872 11.4849 15.9872 11.6626V13.815H18.2395L18.2395 11.3434ZM18.7397 15.5021L20.8063 14.2958L16.6953 14.2965L18.7397 15.5021ZM15.0752 16.9578V11.092L15.0819 11.0833C15.4299 10.6521 15.8168 10.2874 16.2318 9.99904L16.2667 9.9749L16.2748 10.0185C16.3317 10.3149 16.5798 10.5301 16.8642 10.5301H20.6312C20.9148 10.5301 21.1615 10.3169 21.2185 10.0232L21.2273 9.98028L21.2621 10.0044C21.6792 10.2927 22.0674 10.6562 22.4148 11.084L22.4215 11.0927V16.9585L15.0752 16.9578ZM22.0983 15.6892C22.0983 15.3238 21.818 15.026 21.4741 15.026C21.1301 15.026 20.8498 15.3238 20.8498 15.6892C20.8498 16.0546 21.1301 16.3524 21.4741 16.3524C21.8187 16.353 22.0983 16.0553 22.0983 15.6892ZM15.5352 14.0055C15.5352 14.1235 15.6029 14.2268 15.7002 14.2724L15.6982 14.2771L18.7349 16.0668L18.7396 16.0574L18.7443 16.0668L21.8106 14.2771L21.8059 14.2677C21.8984 14.2194 21.9622 14.1208 21.9622 14.0055L21.9615 11.6633C21.9615 11.2214 21.6222 10.8633 21.2085 10.8633H16.2881C15.8744 10.8633 15.5351 11.2214 15.5351 11.6633L15.5352 14.0055ZM15.4232 15.6892C15.4232 16.0546 15.7035 16.3524 16.0475 16.3524C16.3915 16.3524 16.6718 16.0546 16.6718 15.6892C16.6718 15.3238 16.3915 15.026 16.0475 15.026C15.7028 15.026 15.4232 15.3238 15.4232 15.6892ZM15.0752 17.1986V17.9181H22.4223V17.1986H15.0752ZM21.0664 9.46066V9.89114C21.0664 10.1453 20.8719 10.3518 20.6332 10.3518H16.8642C16.6255 10.3518 16.431 10.1453 16.431 9.89114V9.46066C16.431 9.20652 16.6255 9 16.8642 9H20.6325C20.8719 9 21.0664 9.20652 21.0664 9.46066ZM17.8532 9.6759C17.8532 9.40501 17.6466 9.18506 17.3912 9.18506C17.1363 9.18506 16.9292 9.40432 16.9292 9.6759C16.9292 9.94679 17.1357 10.1661 17.3912 10.1661C17.6466 10.1661 17.8532 9.9468 17.8532 9.6759ZM19.2103 9.6759C19.2103 9.40501 19.0038 9.18506 18.7483 9.18506C18.4935 9.18506 18.2863 9.40432 18.2863 9.6759C18.2863 9.94679 18.4928 10.1661 18.7483 10.1661C19.0031 10.1661 19.2103 9.9468 19.2103 9.6759ZM20.5668 9.6759C20.5668 9.40501 20.3603 9.18506 20.1048 9.18506C19.85 9.18506 19.6428 9.40432 19.6428 9.6759C19.6428 9.94679 19.8493 10.1661 20.1048 10.1661C20.3603 10.1661 20.5668 9.9468 20.5668 9.6759ZM16.0474 15.419C15.9073 15.419 15.7933 15.5404 15.7933 15.6892C15.7933 15.8381 15.9073 15.9594 16.0474 15.9594C16.1876 15.9594 16.3015 15.8381 16.3015 15.6892C16.3015 15.5404 16.1876 15.419 16.0474 15.419ZM21.474 15.419C21.3338 15.419 21.2198 15.5404 21.2198 15.6892C21.2198 15.8381 21.3338 15.9594 21.474 15.9594C21.6141 15.9594 21.7281 15.8381 21.7281 15.6892C21.7288 15.5404 21.6141 15.419 21.474 15.419ZM10.3632 19.5957C10.3672 19.758 10.3491 19.9116 10.3116 20.0276C10.2693 20.1583 10.207 20.2287 10.1318 20.2294H10.1298H10.1245C10.0527 20.226 9.98969 20.1583 9.94209 20.0329C9.8985 19.9176 9.87235 19.7647 9.86766 19.6031C9.86363 19.4402 9.88174 19.2873 9.91862 19.1713C9.96086 19.0406 10.0232 18.9701 10.0983 18.9695H10.1057C10.1774 18.9728 10.2411 19.0405 10.2881 19.1659C10.3323 19.2799 10.3585 19.4328 10.3632 19.5957ZM9.74697 19.6152C9.75167 19.7721 9.73356 19.9203 9.69601 20.0336C9.65377 20.1603 9.59208 20.2281 9.5163 20.2294H9.51429H9.50893C9.43718 20.226 9.37415 20.1603 9.32587 20.039C9.28229 19.927 9.25547 19.7788 9.25078 19.6219C9.24608 19.4643 9.26419 19.3154 9.30174 19.2035C9.34398 19.0767 9.40567 19.009 9.48077 19.0077H9.48815C9.5599 19.011 9.6236 19.0767 9.6712 19.1981C9.71546 19.3094 9.74228 19.4576 9.74697 19.6152ZM11.4394 19.9484C11.4045 20.0886 11.3495 20.165 11.2798 20.1697H11.2731C11.2061 20.1697 11.143 20.1013 11.0921 19.9719C11.0438 19.8492 11.0103 19.6849 10.9989 19.5086C10.9875 19.3322 10.9982 19.1653 11.0297 19.0372C11.0646 18.8971 11.1196 18.8206 11.1893 18.8159H11.196C11.263 18.8159 11.3261 18.8843 11.377 19.0137C11.4253 19.1364 11.4588 19.3007 11.4709 19.4771C11.4823 19.6534 11.4716 19.8204 11.4394 19.9484ZM11.8116 20.1342H11.8048C11.7378 20.1342 11.6748 20.0658 11.6238 19.9364C11.5755 19.8137 11.542 19.6494 11.5299 19.473C11.5185 19.2967 11.5293 19.1297 11.5608 19.0017C11.5956 18.8615 11.6506 18.7851 11.7204 18.7804C11.7888 18.7723 11.8551 18.8441 11.9081 18.9782C11.9564 19.1009 11.9899 19.2652 12.002 19.4415C12.0248 19.7694 11.9651 20.1234 11.8116 20.1342ZM11.8525 19.4657C11.8451 19.3865 11.8297 19.3128 11.8095 19.2585C11.7867 19.1981 11.7593 19.1666 11.7304 19.1666H11.7271C11.7063 19.1686 11.6774 19.1881 11.662 19.2712C11.6513 19.3282 11.6493 19.4033 11.656 19.4824C11.6627 19.5602 11.6781 19.634 11.6989 19.6896C11.7217 19.75 11.7492 19.7815 11.7794 19.7815H11.7807H11.7814C11.8022 19.7801 11.831 19.76 11.8464 19.6769C11.8571 19.6199 11.8592 19.5448 11.8525 19.4657ZM11.3328 19.471C11.3301 19.3912 11.318 19.3175 11.3006 19.2618C11.2812 19.2001 11.255 19.1673 11.2262 19.1659H11.2228C11.202 19.1666 11.1725 19.1847 11.1524 19.2665C11.139 19.3228 11.133 19.3979 11.1357 19.4771C11.1383 19.5555 11.1497 19.6299 11.1678 19.6863C11.1873 19.748 11.2134 19.7808 11.2429 19.7822H11.2443H11.245C11.2657 19.7815 11.2952 19.7634 11.3154 19.6816C11.3294 19.6253 11.3355 19.5502 11.3328 19.471ZM10.2137 19.5957C10.211 19.5159 10.1989 19.4422 10.1815 19.3865C10.1621 19.3248 10.1359 19.292 10.1071 19.2906H10.1037C10.0829 19.2913 10.0534 19.3094 10.0333 19.3912C10.0199 19.4475 10.0139 19.5226 10.0165 19.6018C10.0192 19.6802 10.0306 19.7547 10.0487 19.811C10.0682 19.8727 10.0943 19.9055 10.1238 19.9069H10.1252H10.1258C10.1466 19.9062 10.1761 19.8881 10.1963 19.8063C10.2103 19.75 10.2164 19.6749 10.2137 19.5957ZM9.59747 19.6152C9.59479 19.5354 9.58272 19.4616 9.56529 19.406C9.54584 19.3443 9.51969 19.3114 9.49086 19.3101H9.48751C9.46672 19.3108 9.43722 19.3289 9.4171 19.4107C9.40369 19.467 9.39766 19.5421 9.40034 19.6212C9.40302 19.6997 9.41442 19.7741 9.43252 19.8304C9.45197 19.8921 9.47812 19.925 9.50762 19.9263H9.50896H9.50963C9.53042 19.9256 9.55992 19.9075 9.58004 19.8257C9.59412 19.7694 9.60016 19.6943 9.59747 19.6152ZM14.4971 19.2511C14.4904 19.1364 14.4709 19.0291 14.4427 18.9493C14.4139 18.8675 14.3777 18.8226 14.3408 18.8226H14.3375C14.251 18.8293 14.2168 19.0586 14.2295 19.2712C14.2362 19.3859 14.2557 19.4932 14.2838 19.5729C14.3133 19.6554 14.3489 19.7003 14.3858 19.7003H14.3891C14.4273 19.6977 14.4588 19.6474 14.4783 19.5589C14.4977 19.4757 14.5038 19.3664 14.4971 19.2511ZM13.8104 19.2511C13.8037 19.1364 13.7843 19.0291 13.7561 18.9493C13.7273 18.8675 13.6911 18.8226 13.6542 18.8226H13.6508C13.5643 18.8293 13.5302 19.0586 13.5429 19.2712C13.5496 19.3859 13.569 19.4932 13.5972 19.5729C13.6267 19.6554 13.6622 19.7003 13.6991 19.7003H13.7025C13.7407 19.6977 13.7722 19.6474 13.7917 19.5589C13.8111 19.4757 13.8171 19.3664 13.8104 19.2511Z" fill="#708090"/>
<ellipse cx="14.3189" cy="42.4126" rx="9.24375" ry="1.8125" fill="url(#paint2_radial_1177_1045)" fill-opacity="0.6"/>
<defs>
<linearGradient id="paint0_linear_1177_1045" x1="25.7387" y1="19.2122" x2="1.99492" y2="11.2372" gradientUnits="userSpaceOnUse">
<stop stop-color="white"/>
<stop offset="1" stop-color="#999999"/>
</linearGradient>
<linearGradient id="paint1_linear_1177_1045" x1="4.8957" y1="10.3317" x2="24.1082" y2="25.3755" gradientUnits="userSpaceOnUse">
<stop stop-color="white"/>
<stop offset="1" stop-color="#C7C7C7"/>
</linearGradient>
<radialGradient id="paint2_radial_1177_1045" cx="0" cy="0" r="1" gradientUnits="userSpaceOnUse" gradientTransform="translate(14.3189 42.4126) scale(9.24375 1.8125)">
<stop/>
<stop offset="1" stop-color="#666666" stop-opacity="0"/>
</radialGradient>
</defs>
</svg>
