<svg width="29" height="45" viewBox="0 0 29 45" fill="none" xmlns="http://www.w3.org/2000/svg">
<path d="M21.478 14.3683C21.478 18.3345 18.2321 21.5522 14.2281 21.5522C10.2236 21.5522 6.97825 18.3345 6.97825 14.3683C6.97825 10.4009 10.2241 7.18427 14.2281 7.18427C18.2329 7.18399 21.478 10.4006 21.478 14.3683ZM29 14.3683C29 6.43273 22.5085 0 14.5 0C6.49204 0 0 6.43273 0 14.3683C0 17.8573 1.25628 21.0563 3.34392 23.5447L14.5125 39.5125L25.8445 23.3118C26.2515 22.8071 26.6242 22.2751 26.9605 21.7159L27.0751 21.5531H27.0563C28.2903 19.4384 29 16.9866 29 14.3683Z" fill="url(#paint0_linear_140_797)"/>
<path d="M21.2208 14.3792C21.2208 18.2485 18.0687 21.3876 14.1804 21.3876C10.2915 21.3876 7.13996 18.2485 7.13996 14.3792C7.13996 10.5089 10.2921 7.37091 14.1804 7.37091C18.0695 7.37064 21.2208 10.5086 21.2208 14.3792ZM28.5256 14.3792C28.5256 6.63775 22.2216 0.362305 14.4444 0.362305C6.66779 0.362305 0.363281 6.63775 0.363281 14.3792C0.363281 17.7829 1.58328 20.9038 3.61061 23.3313L14.4566 38.9087L25.4612 23.1041C25.8564 22.6117 26.2184 22.0928 26.545 21.5473L26.6563 21.3884H26.638C27.8364 19.3254 28.5256 16.9335 28.5256 14.3792Z" fill="url(#paint1_linear_140_797)"/>
<circle cx="14.5016" cy="14.5003" r="11.9625" fill="url(#paint2_linear_140_797)"/>
<circle cx="14.4719" cy="14.4703" r="11.2077" fill="url(#paint3_linear_140_797)"/>
<circle cx="14.5024" cy="14.5007" r="10.875" fill="url(#paint4_linear_140_797)"/>
<path d="M13.2396 9.63557C13.2396 8.92576 13.815 8.35034 14.5248 8.35034C15.2346 8.35034 15.81 8.92576 15.81 9.63557C15.81 10.3454 15.2346 10.9208 14.5248 10.9208C13.815 10.9208 13.2396 10.3454 13.2396 9.63557ZM15.906 11.3142C15.7882 11.2186 15.6401 11.159 15.4767 11.159H13.573C13.4095 11.159 13.2614 11.2186 13.1437 11.3142L14.5248 11.6319L15.906 11.3142ZM16.762 15.8733C16.7329 15.8545 16.7026 15.8371 16.6702 15.8227L16.3947 15.7004L15.6433 15.8733L14.6649 16.0983L14.5248 16.1306L14.3848 16.0984L13.4063 15.8733L12.655 15.7004L12.3794 15.8227C12.347 15.8371 12.3167 15.8545 12.2876 15.8733H10.9004V16.586V16.7293V20.4973H11.7177V16.7293H12.0234L12.692 20.008C12.7572 20.3278 13.0385 20.5483 13.3527 20.5483C13.3974 20.5483 13.4428 20.5437 13.4883 20.5345C13.8536 20.4601 14.0893 20.1035 14.0148 19.7382L13.4231 16.8365L13.6647 16.7293H15.385L15.6266 16.8365L15.0348 19.7382C14.9604 20.1035 15.196 20.4601 15.5613 20.5345C15.6069 20.5437 15.6522 20.5483 15.6969 20.5483C16.011 20.5483 16.2924 20.3278 16.3576 20.008L17.0262 16.7293H17.3319V20.4973H18.1493V16.7293V16.211V15.8733H16.762ZM12.5017 13.6503C12.5075 13.6527 12.5127 13.6561 12.5185 13.6586C12.7032 13.7401 12.837 13.8998 12.8882 14.09C12.9018 14.1406 12.9111 14.1929 12.9123 14.2469C12.9136 14.3091 12.9035 14.3692 12.8882 14.4277C12.8602 14.5352 12.808 14.6352 12.7291 14.7177C12.6071 14.845 12.4428 14.9172 12.2666 14.9211L12.0741 14.9252V15.3667L12.952 15.5686L13.0439 15.5898L14.1522 15.8448L14.2761 15.8733L14.3272 15.885L14.5248 15.9305L14.7225 15.885L14.7735 15.8733L14.8974 15.8448L16.0058 15.5898L16.0977 15.5686L16.9755 15.3667V14.9252L16.783 14.9211C16.6068 14.9172 16.4426 14.845 16.3206 14.7177C16.2417 14.6352 16.1895 14.5352 16.1614 14.4277C16.1462 14.3692 16.136 14.3091 16.1374 14.2469C16.1385 14.1929 16.1478 14.1406 16.1614 14.0899C16.2127 13.8999 16.3464 13.7402 16.5312 13.6587C16.537 13.6561 16.5421 13.6527 16.548 13.6503C16.6279 13.6176 16.7116 13.6011 16.797 13.6011L16.9755 13.6049V12.3372V11.2683L16.0549 11.4801L14.5248 11.832L12.9947 11.4801L12.0741 11.2683V12.3372V13.6049C12.1547 13.6031 12.2413 13.6012 12.2413 13.6012C12.337 13.6012 12.4197 13.6168 12.5017 13.6503ZM16.8085 13.7363C16.8047 13.7361 16.8008 13.7361 16.797 13.7361C16.727 13.7361 16.6602 13.7502 16.599 13.7752C16.4112 13.8519 16.277 14.0341 16.2723 14.2499C16.266 14.5398 16.496 14.7798 16.7859 14.786L16.9755 14.7901L17.073 14.7922L17.1705 14.7943L17.4592 14.8005C17.463 14.8006 17.4669 14.8006 17.4707 14.8006C17.7554 14.8006 17.9892 14.573 17.9954 14.2869C17.9963 14.2448 17.9909 14.2042 17.9823 14.1647C17.9756 14.0906 17.9545 14.0168 17.9146 13.9483L17.1705 12.6698V13.7441L17.073 13.742L16.9755 13.7399L16.8085 13.7363ZM11.5789 14.8006C11.5827 14.8006 11.5866 14.8006 11.5904 14.8005L11.8791 14.7943L11.9766 14.7922L12.0741 14.7901L12.2637 14.786C12.5536 14.7798 12.7836 14.5398 12.7773 14.2499C12.7726 14.0341 12.6384 13.8519 12.4506 13.7752C12.3894 13.7502 12.3226 13.7361 12.2527 13.7361C12.2489 13.7361 12.245 13.7361 12.2412 13.7363L12.0741 13.7399L11.9766 13.742L11.8791 13.7441V12.6698L11.135 13.9483C11.0951 14.0168 11.074 14.0906 11.0673 14.1647C11.0588 14.2042 11.0534 14.2448 11.0543 14.2869C11.0604 14.573 11.2942 14.8006 11.5789 14.8006Z" fill="#04B666"/>
<ellipse cx="14.3189" cy="42.4127" rx="9.24375" ry="1.8125" fill="url(#paint5_radial_140_797)" fill-opacity="0.6"/>
<defs>
<linearGradient id="paint0_linear_140_797" x1="-5.10031e-08" y1="7.98909" x2="22.0987" y2="32.6139" gradientUnits="userSpaceOnUse">
<stop stop-color="#04B666"/>
<stop offset="1" stop-color="#06AE62"/>
</linearGradient>
<linearGradient id="paint1_linear_140_797" x1="0.363281" y1="8.15605" x2="21.932" y2="32.081" gradientUnits="userSpaceOnUse">
<stop stop-color="#04B666"/>
<stop offset="1" stop-color="#05B767"/>
</linearGradient>
<linearGradient id="paint2_linear_140_797" x1="26.5277" y1="19.562" x2="1.18487" y2="11.0499" gradientUnits="userSpaceOnUse">
<stop stop-color="#04C56E"/>
<stop offset="1" stop-color="#05B063"/>
</linearGradient>
<linearGradient id="paint3_linear_140_797" x1="25.7392" y1="19.2126" x2="1.99541" y2="11.2376" gradientUnits="userSpaceOnUse">
<stop stop-color="white"/>
<stop offset="1" stop-color="#999999"/>
</linearGradient>
<linearGradient id="paint4_linear_140_797" x1="4.89619" y1="10.332" x2="24.1087" y2="25.3757" gradientUnits="userSpaceOnUse">
<stop stop-color="white"/>
<stop offset="1" stop-color="#C7C7C7"/>
</linearGradient>
<radialGradient id="paint5_radial_140_797" cx="0" cy="0" r="1" gradientUnits="userSpaceOnUse" gradientTransform="translate(14.3189 42.4127) scale(9.24375 1.8125)">
<stop stop-opacity="0.8"/>
<stop offset="1" stop-color="#666666" stop-opacity="0"/>
</radialGradient>
</defs>
</svg>
