<svg width="48" height="60" viewBox="0 0 48 60" fill="none" xmlns="http://www.w3.org/2000/svg">
<path d="M23.8 0C26.26 0 28.64 0.37 30.87 1.07C31.99 1.42 33.07 1.85 34.11 2.35C34.8 2.68 35.48 3.05 36.13 3.45C36.29 3.55 36.46 3.65 36.62 3.75C36.78 3.85 36.94 3.96 37.1 4.06C37.42 4.27 37.73 4.49 38.03 4.72C38.18 4.83 38.33 4.95 38.48 5.07C38.63 5.19 38.78 5.31 38.93 5.43C39.22 5.67 39.51 5.92 39.79 6.18C40.07 6.43 40.34 6.69 40.61 6.96V6.98C42.09 8.46 43.37 10.13 44.42 11.95C44.8 12.61 45.15 13.3 45.47 14C45.55 14.18 45.63 14.35 45.7 14.53C46.9 17.38 47.57 20.5 47.57 23.79C47.57 26.1 47.24 28.34 46.62 30.46C42.2 46.43 23.78 59.47 23.78 59.47C23.78 59.47 5.38 46.44 0.950001 30.48C0.330001 28.36 0 26.11 0 23.79C0 17.02 2.83 10.9 7.38 6.57C7.79 6.18 8.22 5.8 8.66 5.43C8.81 5.31 8.96 5.19 9.11 5.07C9.26 4.95 9.41 4.84 9.56 4.72C9.87 4.49 10.18 4.27 10.49 4.06C10.65 3.95 10.81 3.85 10.97 3.75C11.13 3.65 11.29 3.55 11.46 3.45C11.62 3.35 11.79 3.25 11.95 3.16C12.12 3.06 12.28 2.97 12.45 2.88C12.62 2.79 12.79 2.7 12.96 2.61C13.13 2.52 13.3 2.44 13.48 2.35C14 2.1 14.53 1.87 15.07 1.65C15.61 1.44 16.16 1.24 16.72 1.07C18.95 0.38 21.33 0 23.79 0" fill="#23E847"/>
<path fill-rule="evenodd" clip-rule="evenodd" d="M9.13013 36.2298H11.4301V33.4098C11.4301 32.5398 11.3201 32.7198 13.5101 32.7198C13.9601 32.7198 14.4101 32.7198 14.8601 32.7198C15.5401 32.7198 15.5401 32.7398 15.5401 33.4098C15.5401 34.3498 15.5401 35.2898 15.5401 36.2298H16.4901C16.4901 35.6998 16.5801 32.5898 16.3901 32.2398C16.2201 31.9398 15.6301 32.0498 14.8701 31.0598C14.7401 30.8898 14.7101 30.8498 14.6101 30.6698C14.4701 30.4198 14.4501 30.4898 14.1501 30.4298C13.5001 30.2998 14.1301 30.2698 12.9701 30.2698C11.2201 30.2698 11.4401 30.5698 11.4401 28.6598C11.4401 28.2298 11.4001 27.3198 11.5001 26.9898C11.7601 26.8898 11.9001 26.9298 12.2201 26.9098C12.4301 26.6498 12.5501 26.3298 12.7601 26.0998C13.1801 25.6398 13.4301 25.7798 13.4801 25.4098C11.1601 25.4598 11.4401 25.7298 11.4401 23.7998C11.4401 23.3598 11.3901 22.4698 11.5001 22.1298C11.8901 21.9798 12.6301 22.0598 13.1201 22.0598C15.1001 22.0598 14.8101 21.7598 14.8001 23.6898C15.0701 23.6698 15.8001 23.0198 17.1401 23.2898C17.3701 23.3398 17.6901 23.4798 17.8601 23.4798V10.3198L9.16013 10.2998V36.2298H9.13013Z" fill="white"/>
<path fill-rule="evenodd" clip-rule="evenodd" d="M28.74 29.0604C28.51 28.1104 27.14 26.1404 27.88 26.1004C28.17 26.0904 28.23 26.4604 28.33 26.7004C28.44 26.9604 28.54 27.2004 28.66 27.4704C28.84 27.9004 29.1 28.6004 29.33 28.9804H29.6C29.66 28.1404 29.49 25.7904 29.66 25.2304C29.85 25.1704 29.91 25.1704 30.1 25.2304C30.32 25.9804 30.03 28.0404 30.17 28.9704L31.48 29.0704C31.68 28.6704 31.65 28.2804 32.16 28.4304C32.31 28.7504 32.16 28.8604 32.05 29.1904C33.14 29.4404 32.96 29.7404 33.66 29.0204C34.1 28.5704 34.4 28.1204 34.57 27.4804C35.03 25.8304 34.28 24.5204 33.38 23.7404C33.31 23.6804 33.25 23.6504 33.21 23.6104C32.88 23.2804 33.75 21.9204 32.39 20.3804C32.04 19.9804 31.64 19.6204 31 19.3704C29.09 18.6004 26.91 19.4604 26.16 21.2704C26.05 21.5404 26.01 22.0004 25.82 22.1304C25.55 22.3204 25.64 22.1504 25.09 22.6004C24.72 22.9104 24.32 23.4504 24.17 24.1304C23.75 25.9604 25.14 27.3904 26.63 27.6304C27.81 27.8204 26.83 27.5804 27.9 28.8104C28.27 29.2404 28.07 29.0904 28.74 29.0404" fill="white"/>
<path fill-rule="evenodd" clip-rule="evenodd" d="M15.9698 31.3299C15.7298 30.4699 14.7598 29.0599 15.1698 28.8099C15.6798 28.5099 15.9798 30.2699 16.4598 31.0299C16.5598 30.8099 16.4598 28.9499 16.4798 28.4499C16.4998 28.0999 16.7898 27.9699 16.9598 28.1999C17.1098 28.3999 17.0098 31.2399 17.0298 31.7299L17.5698 31.7899C17.6298 31.5299 17.8098 31.1599 17.9098 30.9099C17.9698 30.7799 18.0198 30.5899 18.1198 30.5199C18.3098 30.3799 18.4398 30.4999 18.5298 30.6399C18.5898 30.9399 18.2498 31.3499 18.2098 31.6899C20.2898 31.0999 20.8698 28.7499 19.4598 27.3599C18.7298 26.6399 19.1998 27.1199 19.1098 26.0599C18.8898 23.4599 15.0198 22.9099 14.0598 25.4199C13.6798 26.4099 14.1198 25.6799 13.2598 26.3699C12.2598 27.1699 12.1198 29.5999 14.6198 29.9599C15.1698 30.0399 15.0098 30.8699 15.9698 31.3399" fill="white"/>
<path fill-rule="evenodd" clip-rule="evenodd" d="M11.4397 12.8397V15.2897C11.4397 15.8597 11.8897 15.7097 12.9197 15.7097C13.3697 15.7097 14.3897 15.7697 14.7297 15.6497C14.8497 15.3497 14.8297 12.6997 14.7497 12.4197C14.3797 12.2997 12.6197 12.3597 11.9697 12.3597C11.5097 12.3597 11.4497 12.3597 11.4497 12.8497" fill="#99D3B8"/>
<path fill-rule="evenodd" clip-rule="evenodd" d="M11.4397 17.6501V20.1501C11.4397 20.7201 11.9297 20.5601 13.0697 20.5601C13.3997 20.5601 13.7397 20.5601 14.0697 20.5601C14.9997 20.5601 14.7997 20.7601 14.7997 18.0001C14.7997 17.7001 14.8197 17.5101 14.7497 17.2801C14.4097 17.1601 12.5997 17.2201 11.9697 17.2201C11.5497 17.2201 11.4497 17.2001 11.4497 17.6601" fill="#99D3B8"/>
<path fill-rule="evenodd" clip-rule="evenodd" d="M11.9905 36.2298H12.0605H15.0005V33.2598H11.9905V36.2298Z" fill="white"/>
<path fill-rule="evenodd" clip-rule="evenodd" d="M37.28 24.1104C37.05 24.3404 37.12 24.5804 37.12 25.0004C37.12 26.8304 37.03 31.1704 37.13 32.4004H37.68C37.74 31.6704 37.69 26.3304 37.69 25.0504C37.69 24.6204 37.77 24.3404 37.53 24.1104C38.94 23.8204 38.64 22.0004 37.43 21.9904C36.17 21.9704 35.85 23.8204 37.28 24.1104Z" fill="white"/>
<path fill-rule="evenodd" clip-rule="evenodd" d="M19.5002 34.4496H21.2002C21.2002 34.8796 21.2002 35.2996 21.2002 35.7096C21.2002 36.0596 21.0702 36.7496 21.4702 36.7696C21.9102 36.7996 21.7702 36.0696 21.7702 35.7596C21.7702 35.3196 21.7702 34.8896 21.7702 34.4496H23.4702C23.4202 33.5096 22.5102 32.7196 21.5202 32.6996C20.4902 32.6796 19.5702 33.4896 19.5002 34.4396" fill="white"/>
<path fill-rule="evenodd" clip-rule="evenodd" d="M11.9905 19.98C12.2205 20.05 13.9705 20.04 14.2505 19.99V17.76L11.9905 17.75V19.98Z" fill="white"/>
<path fill-rule="evenodd" clip-rule="evenodd" d="M11.9905 15.1604H14.2505V12.9104L12.0005 12.9004L11.9905 15.1604Z" fill="white"/>
<path fill-rule="evenodd" clip-rule="evenodd" d="M11.9905 24.8696H13.7205C14.3505 23.9796 14.3405 24.2296 14.2505 22.6196L12.0105 22.5996V24.8596L11.9905 24.8696Z" fill="white"/>
<path fill-rule="evenodd" clip-rule="evenodd" d="M29.6204 16.7104H34.3104C34.2004 15.0704 32.1404 14.7404 31.4404 16.0504C31.3204 16.2804 31.2704 16.6904 30.8804 16.4504C30.6704 16.3204 30.6304 16.0804 30.1604 16.1704C29.8704 16.2304 29.7004 16.4404 29.6304 16.7104" fill="white"/>
<path fill-rule="evenodd" clip-rule="evenodd" d="M21.7297 12.93H26.3997C26.4297 11.4 24.2197 10.91 23.5297 12.3C23.4297 12.5 23.3397 12.91 22.9997 12.67C22.7997 12.53 22.6697 12.31 22.2397 12.4C21.9997 12.45 21.7697 12.67 21.7297 12.93Z" fill="white"/>
<path fill-rule="evenodd" clip-rule="evenodd" d="M36.8 36.2302H37.08H37.7401H38.0201L37.82 32.9602L36.9901 32.9502L36.8 36.2302Z" fill="white"/>
<path fill-rule="evenodd" clip-rule="evenodd" d="M26.1301 35.5001H33.8101V35.0901L26.1401 35.0801L26.1301 35.5001Z" fill="white"/>
<path fill-rule="evenodd" clip-rule="evenodd" d="M26.1401 33.7396H33.8001L33.8201 33.3296L26.1301 33.3096L26.1401 33.7396Z" fill="white"/>
<path fill-rule="evenodd" clip-rule="evenodd" d="M25.1497 36.2195H25.5397C25.5997 36.0295 25.6197 29.7395 25.5597 29.2695H25.1597V36.2195H25.1497Z" fill="white"/>
<path fill-rule="evenodd" clip-rule="evenodd" d="M28.7805 29.5903V32.7603H29.6905V29.5303L28.7805 29.5903Z" fill="white"/>
<path fill-rule="evenodd" clip-rule="evenodd" d="M30.2405 32.7395L31.1605 32.7595V29.6095L30.2605 29.5195L30.2405 32.7395Z" fill="white"/>
<path fill-rule="evenodd" clip-rule="evenodd" d="M27.3296 29.9104L27.3196 32.7604H28.2296L28.2396 29.6904L27.3296 29.9104Z" fill="white"/>
<path fill-rule="evenodd" clip-rule="evenodd" d="M31.7102 32.7597H32.6202V29.9297L31.7202 29.6797L31.7102 32.7597Z" fill="white"/>
<path fill-rule="evenodd" clip-rule="evenodd" d="M17.0497 36.2298H17.8197L17.8397 32.5898C17.5997 32.9998 17.3697 33.6598 17.1697 34.1298C16.9897 34.5598 17.0297 34.6098 17.0297 35.1198C17.0297 35.4198 16.9997 35.9698 17.0497 36.2298Z" fill="white"/>
<path fill-rule="evenodd" clip-rule="evenodd" d="M33.1702 30.7102V32.7602H33.7702V30.4702C33.5802 30.3602 33.4102 30.2402 33.1702 30.1602V30.7202V30.7102Z" fill="white"/>
<path fill-rule="evenodd" clip-rule="evenodd" d="M26.1702 30.4502V32.7602H26.3702H26.5202L26.7602 32.7502L26.7702 30.1602L26.1702 30.4502Z" fill="white"/>
<path fill-rule="evenodd" clip-rule="evenodd" d="M34.2502 36.2195H34.6402C34.7002 36.0295 34.7202 29.7395 34.6602 29.2695H34.2602V36.2195H34.2502Z" fill="white"/>
</svg>
