<svg width="29" height="45" viewBox="0 0 29 45" fill="none" xmlns="http://www.w3.org/2000/svg">
<path d="M21.478 14.3683C21.478 18.3345 18.2321 21.5522 14.2281 21.5522C10.2236 21.5522 6.97825 18.3345 6.97825 14.3683C6.97825 10.4009 10.2241 7.18427 14.2281 7.18427C18.2329 7.18399 21.478 10.4006 21.478 14.3683ZM29 14.3683C29 6.43273 22.5085 0 14.5 0C6.49204 0 0 6.43273 0 14.3683C0 17.8573 1.25628 21.0563 3.34392 23.5447L14.5125 39.5125L25.8445 23.3118C26.2515 22.8071 26.6242 22.2751 26.9605 21.7159L27.0751 21.5531H27.0563C28.2903 19.4384 29 16.9866 29 14.3683Z" fill="#23E847"/>
<path d="M21.2206 14.3792C21.2206 18.2485 18.0685 21.3876 14.1801 21.3876C10.2913 21.3876 7.13971 18.2485 7.13971 14.3792C7.13971 10.5089 10.2918 7.37091 14.1801 7.37091C18.0693 7.37064 21.2206 10.5086 21.2206 14.3792ZM28.5253 14.3792C28.5253 6.63775 22.2214 0.362305 14.4442 0.362305C6.66754 0.362305 0.363037 6.63775 0.363037 14.3792C0.363037 17.7829 1.58303 20.9038 3.61036 23.3313L14.4564 38.9087L25.461 23.1041C25.8562 22.6117 26.2182 22.0928 26.5448 21.5473L26.656 21.3884H26.6378C27.8362 19.3254 28.5253 16.9335 28.5253 14.3792Z" fill="#23E847"/>
<circle cx="14.5016" cy="14.5001" r="11.9625" fill="#23E847"/>
<circle cx="14.4719" cy="14.4699" r="11.2077" fill="url(#paint0_linear_1206_2719)"/>
<circle cx="14.5022" cy="14.5005" r="10.875" fill="url(#paint1_linear_1206_2719)"/>
<ellipse cx="14.3192" cy="42.4126" rx="9.24375" ry="1.8125" fill="url(#paint2_radial_1206_2719)" fill-opacity="0.6"/>
<path fill-rule="evenodd" clip-rule="evenodd" d="M8 20.3737H9.09755V19.028C9.09755 18.6128 9.04506 18.6987 10.0901 18.6987C10.3049 18.6987 10.5196 18.6987 10.7343 18.6987C11.0588 18.6987 11.0588 18.7083 11.0588 19.028C11.0588 19.4766 11.0588 19.9251 11.0588 20.3737H11.5122C11.5122 20.1208 11.5551 18.6367 11.4644 18.4697C11.3833 18.3265 11.1018 18.379 10.7391 17.9066C10.6771 17.8255 10.6628 17.8064 10.615 17.7205C10.5482 17.6012 10.5387 17.6346 10.3955 17.606C10.0853 17.5439 10.386 17.5296 9.83243 17.5296C8.99734 17.5296 9.10232 17.6728 9.10232 16.7613C9.10232 16.5561 9.08323 16.1219 9.13095 15.9644C9.25502 15.9167 9.32183 15.9358 9.47453 15.9262C9.57474 15.8022 9.63201 15.6494 9.73222 15.5397C9.93264 15.3202 10.0519 15.387 10.0758 15.2104C8.96871 15.2343 9.10232 15.3631 9.10232 14.4421C9.10232 14.2322 9.07846 13.8075 9.13095 13.6452C9.31706 13.5736 9.67018 13.6118 9.90401 13.6118C10.8489 13.6118 10.7105 13.4687 10.7057 14.3897C10.8345 14.3801 11.1829 14.0699 11.8223 14.1988C11.9321 14.2226 12.0848 14.2894 12.1659 14.2894V8.00954L8.01432 8V20.3737H8Z" fill="#23E847"/>
<path fill-rule="evenodd" clip-rule="evenodd" d="M17.3579 16.9522C17.2482 16.4989 16.5944 15.5588 16.9475 15.5397C17.0859 15.5349 17.1146 15.7115 17.1623 15.826C17.2148 15.9501 17.2625 16.0646 17.3198 16.1935C17.4056 16.3986 17.5297 16.7327 17.6395 16.914H17.7683C17.7969 16.5132 17.7158 15.3918 17.7969 15.1245C17.8876 15.0959 17.9162 15.0959 18.0069 15.1245C18.1119 15.4824 17.9735 16.4655 18.0403 16.9092L18.6654 16.957C18.7609 16.7661 18.7466 16.58 18.9899 16.6516C19.0615 16.8043 18.9899 16.8568 18.9374 17.0142C19.4576 17.1335 19.3717 17.2767 19.7057 16.9331C19.9157 16.7184 20.0589 16.5036 20.14 16.1982C20.3595 15.4109 20.0016 14.7857 19.5721 14.4135C19.5387 14.3849 19.5101 14.3706 19.491 14.3515C19.3335 14.194 19.7487 13.545 19.0997 12.8101C18.9327 12.6193 18.7418 12.4475 18.4364 12.3282C17.5249 11.9607 16.4847 12.3711 16.1268 13.2348C16.0743 13.3637 16.0552 13.5832 15.9645 13.6452C15.8357 13.7359 15.8786 13.6548 15.6162 13.8695C15.4396 14.0174 15.2487 14.2751 15.1771 14.5996C14.9767 15.4729 15.64 16.1553 16.351 16.2698C16.9141 16.3605 16.4465 16.2459 16.9571 16.8329C17.1336 17.0381 17.0382 16.9665 17.3579 16.9427" fill="#23E847"/>
<path fill-rule="evenodd" clip-rule="evenodd" d="M11.2638 18.0352C11.1493 17.6248 10.6864 16.9519 10.8821 16.8326C11.1254 16.6895 11.2686 17.5293 11.4977 17.892C11.5454 17.787 11.4977 16.8994 11.5072 16.6609C11.5167 16.4938 11.6551 16.4318 11.7362 16.5416C11.8078 16.637 11.7601 17.9922 11.7697 18.2261L12.0273 18.2547C12.056 18.1306 12.1419 17.9541 12.1896 17.8348C12.2182 17.7727 12.2421 17.682 12.2898 17.6486C12.3805 17.5818 12.4425 17.6391 12.4854 17.7059C12.5141 17.8491 12.3518 18.0447 12.3327 18.207C13.3253 17.9254 13.6021 16.804 12.9292 16.1407C12.5809 15.7971 12.8052 16.0262 12.7622 15.5204C12.6572 14.2796 10.8105 14.0172 10.3524 15.2149C10.171 15.6874 10.381 15.339 9.97062 15.6683C9.49343 16.05 9.42662 17.2096 10.6196 17.3814C10.8821 17.4196 10.8057 17.8157 11.2638 18.0399" fill="#23E847"/>
<path fill-rule="evenodd" clip-rule="evenodd" d="M9.10229 9.2118V10.3809C9.10229 10.6529 9.31703 10.5814 9.80854 10.5814C10.0233 10.5814 10.51 10.61 10.6723 10.5527C10.7295 10.4096 10.72 9.14499 10.6818 9.01138C10.5053 8.95411 9.66539 8.98274 9.35521 8.98274C9.1357 8.98274 9.10707 8.98274 9.10707 9.21657" fill="#23E847"/>
<path fill-rule="evenodd" clip-rule="evenodd" d="M9.10229 11.5078V12.7008C9.10229 12.9728 9.33612 12.8964 9.88012 12.8964C10.0376 12.8964 10.1998 12.8964 10.3573 12.8964C10.8011 12.8964 10.7057 12.9918 10.7057 11.6748C10.7057 11.5316 10.7152 11.441 10.6818 11.3312C10.5196 11.2739 9.65584 11.3026 9.35521 11.3026C9.15479 11.3026 9.10707 11.293 9.10707 11.5125" fill="#23E847"/>
<path fill-rule="evenodd" clip-rule="evenodd" d="M9.36499 20.3738H9.39839H10.8014V18.9565H9.36499V20.3738Z" fill="#23E847"/>
<path fill-rule="evenodd" clip-rule="evenodd" d="M21.4331 14.5903C21.3234 14.7001 21.3568 14.8146 21.3568 15.0151C21.3568 15.8883 21.3138 17.9593 21.3615 18.5463H21.624C21.6526 18.1979 21.6288 15.6497 21.6288 15.0389C21.6288 14.8337 21.6669 14.7001 21.5524 14.5903C22.2253 14.452 22.0821 13.5835 21.5047 13.5787C20.9034 13.5691 20.7507 14.452 21.4331 14.5903Z" fill="#23E847"/>
<path fill-rule="evenodd" clip-rule="evenodd" d="M12.9485 19.5242H13.7597C13.7597 19.7294 13.7597 19.9298 13.7597 20.1255C13.7597 20.2925 13.6977 20.6218 13.8886 20.6313C14.0985 20.6456 14.0317 20.2973 14.0317 20.1494C14.0317 19.9394 14.0317 19.7342 14.0317 19.5242H14.843C14.8191 19.0757 14.3848 18.6987 13.9124 18.6891C13.4209 18.6796 12.9819 19.0661 12.9485 19.5195" fill="#23E847"/>
<path fill-rule="evenodd" clip-rule="evenodd" d="M9.36499 12.6193C9.47475 12.6527 10.3098 12.648 10.4435 12.6241V11.5599L9.36499 11.5552V12.6193Z" fill="white"/>
<path fill-rule="evenodd" clip-rule="evenodd" d="M9.36499 10.3192H10.4435V9.24549L9.36976 9.24072L9.36499 10.3192Z" fill="white"/>
<path fill-rule="evenodd" clip-rule="evenodd" d="M9.36499 14.9524H10.1905C10.4912 14.5277 10.4864 14.647 10.4435 13.8787L9.37453 13.8691V14.9476L9.36499 14.9524Z" fill="#23E847"/>
<path fill-rule="evenodd" clip-rule="evenodd" d="M17.7778 11.0595H20.0159C19.9634 10.2769 18.9804 10.1194 18.6463 10.7446C18.5891 10.8543 18.5652 11.05 18.3791 10.9354C18.2789 10.8734 18.2598 10.7589 18.0355 10.8018C17.8971 10.8305 17.816 10.9307 17.7826 11.0595" fill="#23E847"/>
<path fill-rule="evenodd" clip-rule="evenodd" d="M14.0125 9.25471H16.241C16.2553 8.5246 15.2007 8.29078 14.8714 8.95408C14.8237 9.04952 14.7807 9.24517 14.6185 9.13064C14.5231 9.06383 14.461 8.95885 14.2558 9.0018C14.1413 9.02566 14.0315 9.13064 14.0125 9.25471Z" fill="#23E847"/>
<path fill-rule="evenodd" clip-rule="evenodd" d="M21.2041 20.3738H21.3377H21.6527H21.7863L21.6908 18.8134L21.2948 18.8086L21.2041 20.3738Z" fill="#23E847"/>
<path fill-rule="evenodd" clip-rule="evenodd" d="M16.1123 20.0251H19.7772V19.8295L16.1171 19.8247L16.1123 20.0251Z" fill="#23E847"/>
<path fill-rule="evenodd" clip-rule="evenodd" d="M16.1171 19.1852H19.7724L19.7819 18.9895L16.1123 18.98L16.1171 19.1852Z" fill="#23E847"/>
<path fill-rule="evenodd" clip-rule="evenodd" d="M15.6443 20.3692H15.8304C15.859 20.2786 15.8686 17.277 15.8399 17.0527H15.6491V20.3692H15.6443Z" fill="#23E847"/>
<path fill-rule="evenodd" clip-rule="evenodd" d="M17.377 17.2049V18.7176H17.8112V17.1763L17.377 17.2049Z" fill="#23E847"/>
<path fill-rule="evenodd" clip-rule="evenodd" d="M18.074 18.708L18.513 18.7175V17.2143L18.0835 17.1714L18.074 18.708Z" fill="#23E847"/>
<path fill-rule="evenodd" clip-rule="evenodd" d="M16.6847 17.3579L16.6799 18.7179H17.1142L17.119 17.2529L16.6847 17.3579Z" fill="#23E847"/>
<path fill-rule="evenodd" clip-rule="evenodd" d="M18.7751 18.7178H19.2094V17.3673L18.7799 17.248L18.7751 18.7178Z" fill="#23E847"/>
<path fill-rule="evenodd" clip-rule="evenodd" d="M11.7792 20.3742H12.1466L12.1562 18.6372C12.0416 18.8329 11.9319 19.1478 11.8364 19.3721C11.7506 19.5773 11.7696 19.6011 11.7696 19.8445C11.7696 19.9877 11.7553 20.2501 11.7792 20.3742Z" fill="#23E847"/>
<path fill-rule="evenodd" clip-rule="evenodd" d="M19.4719 17.74V18.7182H19.7582V17.6255C19.6676 17.573 19.5865 17.5157 19.4719 17.4775V17.7448V17.74Z" fill="#23E847"/>
<path fill-rule="evenodd" clip-rule="evenodd" d="M16.1313 17.6159V18.7182H16.2268H16.2984L16.4129 18.7135L16.4177 17.4775L16.1313 17.6159Z" fill="#23E847"/>
<path fill-rule="evenodd" clip-rule="evenodd" d="M19.9871 20.3692H20.1732C20.2018 20.2786 20.2113 17.277 20.1827 17.0527H19.9918V20.3692H19.9871Z" fill="#23E847"/>
<defs>
<linearGradient id="paint0_linear_1206_2719" x1="25.7392" y1="19.2122" x2="1.99541" y2="11.2372" gradientUnits="userSpaceOnUse">
<stop stop-color="white"/>
<stop offset="1" stop-color="#999999"/>
</linearGradient>
<linearGradient id="paint1_linear_1206_2719" x1="4.89595" y1="10.3317" x2="24.1084" y2="25.3755" gradientUnits="userSpaceOnUse">
<stop stop-color="white"/>
<stop offset="1" stop-color="#C7C7C7"/>
</linearGradient>
<radialGradient id="paint2_radial_1206_2719" cx="0" cy="0" r="1" gradientUnits="userSpaceOnUse" gradientTransform="translate(14.3192 42.4126) scale(9.24375 1.8125)">
<stop stop-opacity="0.8"/>
<stop offset="1" stop-color="#666666" stop-opacity="0"/>
</radialGradient>
</defs>
</svg>
