<svg width="48" height="60" viewBox="0 0 48 60" fill="none" xmlns="http://www.w3.org/2000/svg">
<path d="M23.8 0C26.26 0 28.64 0.37 30.87 1.07C31.99 1.42 33.07 1.85 34.11 2.35C34.8 2.68 35.48 3.05 36.13 3.45C36.29 3.55 36.46 3.65 36.62 3.75C36.78 3.85 36.94 3.96 37.1 4.06C37.42 4.27 37.73 4.49 38.03 4.72C38.18 4.83 38.33 4.95 38.48 5.07C38.63 5.19 38.78 5.31 38.93 5.43C39.22 5.67 39.51 5.92 39.79 6.18C40.07 6.43 40.34 6.69 40.61 6.96V6.98C42.09 8.46 43.37 10.13 44.42 11.95C44.8 12.61 45.15 13.3 45.47 14C45.55 14.18 45.63 14.35 45.7 14.53C46.9 17.38 47.57 20.5 47.57 23.79C47.57 26.1 47.24 28.34 46.62 30.46C42.2 46.43 23.78 59.47 23.78 59.47C23.78 59.47 5.38 46.44 0.950001 30.48C0.330001 28.36 0 26.11 0 23.79C0 17.02 2.83 10.9 7.38 6.57C7.79 6.18 8.22 5.8 8.66 5.43C8.81 5.31 8.96 5.19 9.11 5.07C9.26 4.95 9.41 4.84 9.56 4.72C9.87 4.49 10.18 4.27 10.49 4.06C10.65 3.95 10.81 3.85 10.97 3.75C11.13 3.65 11.29 3.55 11.46 3.45C11.62 3.35 11.79 3.25 11.95 3.16C12.12 3.06 12.28 2.97 12.45 2.88C12.62 2.79 12.79 2.7 12.96 2.61C13.13 2.52 13.3 2.44 13.48 2.35C14 2.1 14.53 1.87 15.07 1.65C15.61 1.44 16.16 1.24 16.72 1.07C18.95 0.37 21.33 0 23.79 0" fill="#F47721"/>
<path fill-rule="evenodd" clip-rule="evenodd" d="M13.6001 20.0598L14.8201 22.3798L16.0201 20.0598H13.6101H13.6001ZM13.1501 14.5098H10.6901L11.9201 16.8598L13.1501 14.5098ZM18.8901 14.5098H16.4601L17.6801 16.8498L18.8901 14.5098ZM16.0201 14.2298L14.8201 11.9098L13.6001 14.2298H16.0201ZM16.4601 19.7798H18.8901L17.6701 17.4398L16.4601 19.7798ZM13.4501 19.7798L12.0701 17.1498L13.4501 14.5198H16.1601L17.5201 17.1498L16.1601 19.7798H13.4501ZM33.5201 13.8898C33.6501 14.0198 33.7201 14.2098 33.7201 14.3998C33.7201 14.5898 33.6501 14.7698 33.5201 14.9098C33.2601 15.1898 32.8501 15.1898 32.5801 14.9098H32.5701C32.4401 14.7698 32.3701 14.5798 32.3701 14.3898C32.3701 14.1998 32.4401 14.0198 32.5701 13.8798C32.8301 13.5998 33.2501 13.5998 33.5201 13.8798V13.8898ZM33.4501 14.3998C33.4501 14.2898 33.4101 14.1698 33.3301 14.0898C33.1701 13.9198 32.9101 13.9198 32.7501 14.0898C32.6701 14.1698 32.6301 14.2798 32.6301 14.3998C32.6301 14.5198 32.6701 14.6298 32.7501 14.7098C32.9101 14.8798 33.1601 14.8798 33.3201 14.7098C33.3901 14.6298 33.4401 14.5198 33.4401 14.3998H33.4501ZM32.0901 19.4398C32.2101 19.5698 32.2801 19.7598 32.2801 19.9498C32.2801 20.1398 32.2101 20.3198 32.0901 20.4598C31.8301 20.7398 31.4101 20.7398 31.1401 20.4598C31.0101 20.3298 30.9401 20.1398 30.9401 19.9498C30.9401 19.7598 31.0101 19.5798 31.1401 19.4398C31.4001 19.1598 31.8201 19.1598 32.0901 19.4398ZM32.0201 19.9398C32.0201 19.8198 31.9801 19.7098 31.9001 19.6298C31.7401 19.4598 31.4801 19.4598 31.3201 19.6298C31.2401 19.7098 31.2001 19.8198 31.2001 19.9398C31.2001 20.0598 31.2401 20.1698 31.3201 20.2498C31.4801 20.4198 31.7301 20.4198 31.9001 20.2498C31.9701 20.1698 32.0201 20.0598 32.0201 19.9398ZM32.2201 11.7598C31.6001 11.8098 31.0201 12.0998 30.6001 12.5898C29.7201 13.5998 29.7201 15.1898 30.6001 16.1898C31.0301 16.6798 31.6101 16.9798 32.2301 17.0198C33.6401 17.1198 34.7501 18.3898 34.7501 19.9398C34.7501 20.6698 34.4901 21.3798 34.0201 21.8998C33.8801 22.0598 33.7201 22.1998 33.5501 22.3198C34.3701 22.0698 35.1301 21.5998 35.7301 20.9398C36.6701 19.9398 37.2001 18.5698 37.2001 17.1398C37.2001 15.7098 36.6701 14.3398 35.7301 13.3398C34.7901 12.3398 33.5401 11.7698 32.2301 11.7598H32.2201ZM32.1801 22.5198C32.8001 22.4798 33.3801 22.1898 33.8201 21.7098C34.2401 21.2398 34.4801 20.6098 34.4801 19.9398C34.4801 18.5398 33.4901 17.3898 32.2101 17.2998C31.5201 17.2498 30.8801 16.9298 30.4101 16.3898C29.4301 15.2698 29.4301 13.5198 30.4101 12.3998C30.5701 12.2198 30.7401 12.0598 30.9301 11.9298C30.0601 12.1698 29.2701 12.6498 28.6401 13.3398C27.7001 14.3398 27.1701 15.7098 27.1701 17.1398C27.1701 18.5698 27.7001 19.9398 28.6401 20.9398C29.5801 21.9498 30.8601 22.5198 32.1801 22.5198ZM16.1201 39.3398V34.0398C16.1201 34.0398 16.1301 33.9698 16.1601 33.9398C16.1801 33.9098 16.2201 33.8998 16.2501 33.8998H18.7301V30.7798H16.2501C16.2501 30.7798 16.1801 30.7598 16.1601 30.7398C16.1401 30.7198 16.1201 30.6798 16.1201 30.6398V28.5298H13.1601V30.6398C13.1601 30.6398 13.1501 30.7098 13.1201 30.7398C13.1001 30.7698 13.0601 30.7798 13.0301 30.7798H10.6001V33.8998H13.0301C13.0301 33.8998 13.1001 33.9198 13.1201 33.9398C13.1501 33.9698 13.1601 33.9998 13.1601 34.0398V39.3298H16.1201V39.3398ZM35.0201 29.5198C35.4501 30.5198 35.5701 31.6498 35.3601 32.7298C35.1201 33.9898 34.4501 35.1098 33.4901 35.8698C32.5201 36.6398 31.3201 36.9998 30.1201 36.8898C29.1201 36.7998 28.1701 36.3598 27.4201 35.6398C27.7301 36.6298 28.3001 37.4998 29.0501 38.1498C30.0201 38.9798 31.2301 39.3898 32.4501 39.3198C33.6701 39.2498 34.8301 38.6898 35.7101 37.7498C36.4901 36.9198 37.0001 35.8198 37.1401 34.6298C37.2801 33.4498 37.0501 32.2498 36.4901 31.2198C36.1201 30.5398 35.6101 29.9498 35.0101 29.5098L35.0201 29.5198ZM32.7301 32.1898C32.7301 32.1898 32.6601 32.2898 32.6801 32.3498L32.9801 33.4798C33.0001 33.5998 32.9801 33.7098 32.9401 33.8198C32.9001 33.9298 32.8201 34.0198 32.7301 34.0898C32.6401 34.1598 32.5301 34.1998 32.4101 34.1998C32.3001 34.1998 32.1901 34.1798 32.1001 34.1198L31.2901 33.4498C31.2901 33.4498 31.1801 33.4098 31.1301 33.4498L30.3001 34.1098C30.1101 34.2298 29.8701 34.2298 29.6901 34.0898C29.5001 33.9498 29.4101 33.7098 29.4501 33.4698L29.7301 32.3598C29.7501 32.2998 29.7301 32.2398 29.6901 32.1998L28.8201 31.4898C28.7401 31.4098 28.6801 31.3098 28.6601 31.1998C28.6001 30.9598 28.6701 30.7098 28.8501 30.5598C28.9301 30.4898 29.0401 30.4398 29.1501 30.4198L30.2201 30.3998C30.2801 30.3998 30.3301 30.3598 30.3501 30.2998L30.7001 29.1898C30.7501 29.0898 30.8201 28.9998 30.9101 28.9298C31.0101 28.8598 31.1201 28.8298 31.2301 28.8298C31.3401 28.8298 31.4501 28.8598 31.5401 28.9298C31.6301 28.9898 31.7001 29.0798 31.7501 29.1898L32.0901 30.2998C32.1101 30.3598 32.1601 30.3998 32.2101 30.3998H33.3001V30.4198C33.4101 30.4298 33.5101 30.4798 33.6001 30.5598C33.6901 30.6398 33.7501 30.7398 33.7801 30.8498C33.8501 31.0798 33.7801 31.3298 33.6201 31.4898L32.7501 32.1898H32.7301ZM25.5501 21.3898C25.5501 20.9198 25.3801 20.4698 25.0701 20.1398C24.4201 19.4498 23.3901 19.4498 22.7401 20.1398C22.4301 20.4798 22.2601 20.9198 22.2601 21.3898C22.2601 21.8598 22.4301 22.3098 22.7401 22.6398C23.3901 23.3298 24.4201 23.3298 25.0701 22.6398C25.3801 22.3098 25.5501 21.8598 25.5501 21.3898ZM21.9401 26.4498L21.3401 28.3698C21.2701 28.5298 21.1401 28.6598 20.9901 28.7298C20.8301 28.7998 20.6601 28.8098 20.5001 28.7498C20.3401 28.6998 20.2001 28.5798 20.1001 28.4198C20.0201 28.2798 19.9901 28.0998 20.0201 27.9398L20.9601 25.0598C21.0701 24.6798 21.2901 24.3498 21.5901 24.1198C21.8801 23.8898 22.2401 23.7698 22.6001 23.7698H25.2301C25.5901 23.7698 25.9501 23.8998 26.2401 24.1398C26.5401 24.3798 26.7701 24.7198 26.8901 25.0998L27.7701 27.9098C27.8001 28.0898 27.7701 28.2698 27.6901 28.4198C27.6001 28.5798 27.4701 28.6898 27.3101 28.7498C27.1501 28.8098 26.9801 28.7998 26.8201 28.7298C26.6701 28.6598 26.5401 28.5298 26.4701 28.3698L25.8701 26.4498C25.8501 26.3798 25.7901 26.3398 25.7301 26.3398C25.6601 26.3398 25.6101 26.4098 25.6101 26.4798V29.1898C25.6101 29.4098 25.5301 29.6298 25.3801 29.7898C25.2301 29.9598 25.0301 30.0498 24.8201 30.0498H23.0201C22.8101 30.0498 22.6101 29.9698 22.4501 29.8098C22.3001 29.6598 22.2201 29.4498 22.2201 29.2198V26.4898C22.2201 26.4198 22.1701 26.3598 22.1001 26.3498C22.0401 26.3498 21.9701 26.3798 21.9601 26.4498H21.9401ZM10.6901 19.7798H13.1501L11.9201 17.4298L10.6901 19.7798Z" fill="white"/>
</svg>
