<svg width="29" height="45" viewBox="0 0 29 45" fill="none" xmlns="http://www.w3.org/2000/svg">
<path d="M21.478 14.3683C21.478 18.3345 18.2321 21.5522 14.2281 21.5522C10.2236 21.5522 6.97825 18.3345 6.97825 14.3683C6.97825 10.4009 10.2241 7.18427 14.2281 7.18427C18.2329 7.18399 21.478 10.4006 21.478 14.3683ZM29 14.3683C29 6.43274 22.5085 0 14.5 0C6.49204 0 0 6.43274 0 14.3683C0 17.8573 1.25628 21.0563 3.34392 23.5447L14.5125 39.5125L25.8445 23.3118C26.2515 22.8071 26.6242 22.2751 26.9605 21.7159L27.0751 21.5531H27.0563C28.2903 19.4384 29 16.9866 29 14.3683Z" fill="#F47721"/>
<path d="M21.2206 14.3792C21.2206 18.2485 18.0685 21.3876 14.1801 21.3876C10.2913 21.3876 7.13971 18.2485 7.13971 14.3792C7.13971 10.5089 10.2918 7.37091 14.1801 7.37091C18.0693 7.37064 21.2206 10.5086 21.2206 14.3792ZM28.5253 14.3792C28.5253 6.63775 22.2214 0.362305 14.4442 0.362305C6.66754 0.362305 0.363037 6.63775 0.363037 14.3792C0.363037 17.7829 1.58303 20.9038 3.61036 23.3313L14.4564 38.9087L25.461 23.1041C25.8562 22.6117 26.2182 22.0928 26.5448 21.5473L26.656 21.3884H26.6378C27.8362 19.3254 28.5253 16.9335 28.5253 14.3792Z" fill="#F47721"/>
<circle cx="14.5016" cy="14.5001" r="11.9625" fill="#F47721"/>
<circle cx="14.4719" cy="14.4699" r="11.2077" fill="url(#paint0_linear_1206_2904)"/>
<circle cx="14.5022" cy="14.5005" r="10.875" fill="url(#paint1_linear_1206_2904)"/>
<path fill-rule="evenodd" clip-rule="evenodd" d="M9.74923 12.1439L10.3101 13.124L10.8641 12.1439H9.74923ZM9.54256 9.79745H8.40691L8.97474 10.7898L9.54256 9.79745ZM12.191 9.79745H11.0697L11.6301 10.7887L12.191 9.79745ZM10.8647 9.67813L10.3102 8.69855L9.74925 9.67866L10.8647 9.67813ZM11.0703 12.0234H12.1915L11.6312 11.0322L11.0703 12.0234ZM9.68154 12.0234L9.04393 10.9107L9.68101 9.79741H10.9312L11.5608 10.9107L10.9312 12.024L9.68154 12.0234ZM18.9447 9.53372C19.0023 9.59018 19.0347 9.66795 19.0347 9.74892C19.0347 9.82935 19.0023 9.90658 18.9447 9.96305C18.8249 10.0808 18.6337 10.0818 18.5122 9.96678L18.5085 9.96358C18.4504 9.90712 18.4179 9.82935 18.4179 9.74892C18.4179 9.66795 18.4504 9.59071 18.5085 9.53425C18.6294 9.41547 18.8233 9.41494 18.9447 9.53372ZM18.9138 9.74839C18.9138 9.69938 18.8941 9.6525 18.8595 9.61841C18.7855 9.5465 18.6677 9.5465 18.5942 9.61841C18.5591 9.6525 18.5394 9.69991 18.5394 9.74892C18.5394 9.79792 18.5591 9.8448 18.5942 9.87889L18.5969 9.88155C18.6709 9.9508 18.7865 9.95027 18.8595 9.87889C18.8941 9.8448 18.9138 9.79739 18.9138 9.74839ZM18.2837 11.8812C18.3412 11.9377 18.3737 12.0149 18.3737 12.0954C18.3737 12.1763 18.3412 12.2536 18.2837 12.31C18.1622 12.4288 17.9683 12.4288 17.8469 12.31C17.7894 12.2536 17.7569 12.1763 17.7569 12.0954C17.7569 12.0149 17.7894 11.9377 17.8469 11.8812C17.9683 11.7625 18.1622 11.7625 18.2837 11.8812ZM18.2528 12.0959C18.2528 12.0469 18.2331 11.9995 18.1985 11.9654C18.1244 11.8935 18.0072 11.8935 17.9332 11.9654C17.898 11.9995 17.8783 12.0464 17.8783 12.0954C17.8783 12.1449 17.898 12.1918 17.9332 12.2259C18.0072 12.2978 18.1244 12.2978 18.1985 12.2259C18.2331 12.1918 18.2528 12.1449 18.2528 12.0959ZM18.3423 8.63623C18.0578 8.65487 17.7904 8.78005 17.5939 8.98619C17.1858 9.41233 17.1858 10.0846 17.5939 10.5107C17.7915 10.7185 18.0605 10.8431 18.346 10.8607C18.9985 10.9012 19.5072 11.4418 19.5072 12.0954C19.5072 12.406 19.3858 12.7037 19.1684 12.9248C19.1029 12.9914 19.0305 13.0505 18.9522 13.1011C19.332 12.9962 19.6787 12.7959 19.96 12.5194C20.393 12.0965 20.637 11.5164 20.637 10.9108C20.637 10.3056 20.393 9.72557 19.96 9.30208C19.528 8.87807 18.9473 8.63889 18.3423 8.63623ZM18.3247 13.1863C18.6107 13.1692 18.8803 13.0462 19.0811 12.8422C19.2771 12.643 19.3863 12.375 19.3858 12.0954C19.3874 11.5046 18.9282 11.0156 18.3385 10.9794C18.0221 10.9597 17.7244 10.8218 17.5055 10.5922C17.0537 10.1208 17.0537 9.37662 17.5055 8.90522C17.5779 8.82958 17.6589 8.76299 17.7478 8.7076C17.3483 8.80828 16.9834 9.01336 16.6899 9.30207C16.2569 9.72554 16.0129 10.3056 16.0129 10.9107C16.0129 11.5164 16.2569 12.0965 16.6899 12.5194C17.1257 12.9482 17.7138 13.1879 18.3247 13.1863ZM10.911 20.2974V18.0575C10.911 18.0415 10.9174 18.026 10.9291 18.0148C10.9403 18.0037 10.9558 17.9978 10.9712 17.9978H12.1143V16.6768H10.9712C10.9558 16.6768 10.9403 16.6704 10.9291 16.6592C10.9174 16.6485 10.911 16.6331 10.911 16.6171V15.7244H9.54465V16.6171C9.54465 16.6331 9.53826 16.6485 9.52654 16.6592C9.51535 16.6704 9.49991 16.6768 9.48393 16.6768H8.36426V17.9983H9.48393C9.49991 17.9983 9.51535 18.0047 9.52654 18.0159C9.53826 18.0271 9.54465 18.042 9.54465 18.058V20.2974L10.911 20.2974ZM19.6351 16.1473C19.8333 16.5713 19.8882 17.0486 19.7917 17.5067C19.6799 18.0409 19.372 18.5139 18.9283 18.8325C18.4787 19.1579 17.9274 19.3119 17.374 19.2655C16.9133 19.2283 16.4765 19.0434 16.1286 18.7387C16.2709 19.1585 16.5329 19.5276 16.8818 19.8009C17.3282 20.1498 17.8865 20.325 18.4522 20.2941C19.0179 20.2627 19.5532 20.0273 19.9586 19.631C20.3198 19.2783 20.552 18.8144 20.617 18.3137C20.6825 17.8129 20.5776 17.3053 20.3187 16.8717C20.1461 16.583 19.9123 16.3359 19.6337 16.1473L19.6351 16.1473ZM18.5815 17.2744C18.5597 17.2883 18.5496 17.3154 18.5565 17.3405L18.6934 17.8177C18.7014 17.8662 18.6955 17.9163 18.6758 17.9616C18.6556 18.0084 18.6225 18.0478 18.5799 18.0761C18.5362 18.1048 18.4856 18.1214 18.4329 18.1229C18.3834 18.1251 18.3338 18.1128 18.2902 18.0883L17.9136 17.8044C17.8917 17.7884 17.8624 17.7884 17.8406 17.8044L17.4587 18.0851C17.3708 18.1363 17.2616 18.1336 17.1763 18.0782L17.1737 18.0761C17.0879 18.0191 17.0437 17.9168 17.0607 17.8151L17.1913 17.3447C17.1998 17.3202 17.1913 17.2925 17.1705 17.2771L16.7678 16.9772C16.7316 16.9436 16.7055 16.901 16.6921 16.8536C16.6655 16.754 16.6991 16.648 16.7795 16.583C16.8184 16.551 16.8658 16.5308 16.9159 16.5249L17.4123 16.518C17.4389 16.5191 17.4624 16.502 17.4709 16.4765L17.6323 16.0051C17.6541 15.9608 17.6888 15.923 17.7309 15.8969C17.7751 15.8692 17.8262 15.8548 17.8784 15.8543C17.9295 15.8543 17.9796 15.8682 18.0227 15.8953C18.0643 15.922 18.0979 15.9592 18.1192 16.0035L18.2758 16.4754C18.2838 16.4999 18.3072 16.5164 18.3328 16.5164L18.8372 16.5233C18.8873 16.5292 18.9347 16.55 18.9736 16.5819C19.013 16.6139 19.0417 16.6565 19.0572 16.7044C19.0881 16.8025 19.0593 16.909 18.9826 16.9772L18.5815 17.2744ZM15.2646 12.7051C15.2646 12.5059 15.1842 12.3157 15.042 12.1767C14.7431 11.8848 14.2659 11.8848 13.9676 12.1767L13.9644 12.1794C13.8232 12.3189 13.7444 12.5091 13.7449 12.7073C13.7454 12.9054 13.8253 13.0951 13.9676 13.2341C14.2659 13.526 14.7431 13.526 15.042 13.2341C15.1842 13.0945 15.2646 12.9043 15.2646 12.7051ZM13.6006 14.847L13.3236 15.6582C13.29 15.7275 13.233 15.7824 13.1622 15.8122C13.0903 15.8431 13.0098 15.8468 12.9353 15.8223C12.8596 15.7989 12.7952 15.7504 12.752 15.6844C12.7137 15.6236 12.6998 15.5501 12.7137 15.4798L13.1483 14.2632C13.2005 14.1034 13.3028 13.9644 13.4386 13.8658C13.5745 13.7678 13.7375 13.7161 13.9047 13.7167H15.1165C15.2843 13.7172 15.4479 13.771 15.5826 13.8711C15.7211 13.9729 15.825 14.1151 15.8799 14.2781L16.2874 15.4643C16.3017 15.5389 16.2884 15.6162 16.2495 15.6817C16.2101 15.7483 16.1473 15.7983 16.0732 15.8223C15.9992 15.8463 15.9188 15.8431 15.8463 15.8122C15.776 15.7823 15.7185 15.7275 15.6854 15.6588L15.4085 14.8475C15.401 14.8182 15.3722 14.799 15.3419 14.8022C15.312 14.806 15.2891 14.831 15.2886 14.8614V16.0061C15.2886 16.1009 15.2508 16.192 15.1842 16.2591L15.181 16.2618C15.1118 16.3299 15.018 16.3683 14.9205 16.3678H14.088C13.991 16.3688 13.8967 16.3326 13.8259 16.266C13.7577 16.2016 13.7199 16.1115 13.7204 16.0178V14.8619C13.7193 14.8321 13.697 14.8065 13.6666 14.8033C13.6368 14.7996 13.6085 14.8187 13.6011 14.848L13.6006 14.847ZM8.40702 12.0244H9.54267L8.97484 11.032L8.40702 12.0244Z" fill="#F47721"/>
<ellipse cx="14.3192" cy="42.4126" rx="9.24375" ry="1.8125" fill="url(#paint2_radial_1206_2904)" fill-opacity="0.6"/>
<defs>
<linearGradient id="paint0_linear_1206_2904" x1="25.7392" y1="19.2122" x2="1.99541" y2="11.2372" gradientUnits="userSpaceOnUse">
<stop stop-color="white"/>
<stop offset="1" stop-color="#999999"/>
</linearGradient>
<linearGradient id="paint1_linear_1206_2904" x1="4.89595" y1="10.3317" x2="24.1084" y2="25.3755" gradientUnits="userSpaceOnUse">
<stop stop-color="white"/>
<stop offset="1" stop-color="#C7C7C7"/>
</linearGradient>
<radialGradient id="paint2_radial_1206_2904" cx="0" cy="0" r="1" gradientUnits="userSpaceOnUse" gradientTransform="translate(14.3192 42.4126) scale(9.24375 1.8125)">
<stop stop-opacity="0.8"/>
<stop offset="1" stop-color="#666666" stop-opacity="0"/>
</radialGradient>
</defs>
</svg>
