<svg width="29" height="45" viewBox="0 0 29 45" fill="none" xmlns="http://www.w3.org/2000/svg">
<path d="M21.478 14.3683C21.478 18.3345 18.2321 21.5522 14.2281 21.5522C10.2236 21.5522 6.97825 18.3345 6.97825 14.3683C6.97825 10.4009 10.2241 7.18427 14.2281 7.18427C18.2329 7.18399 21.478 10.4006 21.478 14.3683ZM29 14.3683C29 6.43274 22.5085 0 14.5 0C6.49204 0 0 6.43274 0 14.3683C0 17.8573 1.25628 21.0563 3.34392 23.5447L14.5125 39.5125L25.8445 23.3118C26.2515 22.8071 26.6242 22.2751 26.9605 21.7159L27.0751 21.5531H27.0563C28.2903 19.4384 29 16.9866 29 14.3683Z" fill="url(#paint0_linear_140_982)"/>
<path d="M21.2208 14.3792C21.2208 18.2485 18.0687 21.3876 14.1804 21.3876C10.2915 21.3876 7.13996 18.2485 7.13996 14.3792C7.13996 10.5089 10.2921 7.37091 14.1804 7.37091C18.0695 7.37064 21.2208 10.5086 21.2208 14.3792ZM28.5256 14.3792C28.5256 6.63775 22.2216 0.362305 14.4444 0.362305C6.66779 0.362305 0.363281 6.63775 0.363281 14.3792C0.363281 17.7829 1.58328 20.9038 3.61061 23.3313L14.4566 38.9087L25.4612 23.1041C25.8564 22.6117 26.2184 22.0928 26.545 21.5473L26.6563 21.3884H26.638C27.8364 19.3254 28.5256 16.9335 28.5256 14.3792Z" fill="url(#paint1_linear_140_982)"/>
<circle cx="14.5016" cy="14.5003" r="11.9625" fill="url(#paint2_linear_140_982)"/>
<circle cx="14.4719" cy="14.4703" r="11.2077" fill="url(#paint3_linear_140_982)"/>
<circle cx="14.5024" cy="14.5007" r="10.875" fill="url(#paint4_linear_140_982)"/>
<path fill-rule="evenodd" clip-rule="evenodd" d="M9.74923 12.1445L10.3101 13.1246L10.8641 12.1445H9.74923ZM9.54256 9.79806H8.40691L8.97474 10.7904L9.54204 9.79806H9.54256ZM12.191 9.79806H11.0697L11.6301 10.7894L12.1905 9.79806H12.191ZM10.8647 9.67874L10.3102 8.69916L9.74925 9.67927L10.8647 9.67874ZM11.0703 12.0241H12.1915L11.6312 11.0328L11.0708 12.0241H11.0703ZM9.68154 12.0241L9.04393 10.9113L9.68101 9.79802H10.9312L11.5608 10.9113L10.9312 12.0246L9.68154 12.0241ZM18.9447 9.53486C19.0023 9.59133 19.0347 9.66856 19.0347 9.74953C19.0347 9.82996 19.0023 9.90719 18.9447 9.96366C18.8249 10.0814 18.6337 10.0824 18.5122 9.96739L18.5085 9.96419C18.4504 9.90773 18.4179 9.82996 18.4179 9.74953C18.4179 9.66856 18.4504 9.59132 18.5085 9.53487C18.6294 9.41608 18.8233 9.41608 18.9447 9.53486ZM18.9138 9.74953C18.9138 9.70052 18.8941 9.65311 18.8595 9.61902C18.7855 9.54711 18.6677 9.54711 18.5942 9.61902C18.5591 9.65311 18.5394 9.70052 18.5394 9.74953C18.5394 9.79853 18.5591 9.84541 18.5942 9.8795L18.5969 9.88216V9.88269C18.6709 9.95194 18.7865 9.95088 18.8595 9.8795C18.8941 9.84541 18.9138 9.79853 18.9138 9.74953ZM18.2837 11.8819C18.3412 11.9383 18.3737 12.0156 18.3737 12.096C18.3737 12.177 18.3412 12.2542 18.2837 12.3107C18.1622 12.4294 17.9683 12.4294 17.8469 12.3107C17.7894 12.2542 17.7569 12.177 17.7569 12.096C17.7569 12.0156 17.7894 11.9383 17.8469 11.8819C17.9683 11.7631 18.1622 11.7631 18.2837 11.8819ZM18.2528 12.096C18.2528 12.047 18.2331 12.0001 18.1985 11.966C18.1244 11.8941 18.0072 11.8941 17.9332 11.966C17.898 12.0001 17.8783 12.047 17.8783 12.096C17.8783 12.1455 17.898 12.1924 17.9332 12.2265C18.0072 12.2984 18.1244 12.2984 18.1985 12.2265C18.2331 12.1924 18.2528 12.145 18.2528 12.096ZM18.3423 8.63684C18.0578 8.65548 17.7904 8.78066 17.5939 8.9868C17.1858 9.41294 17.1858 10.0852 17.5939 10.5113C17.7915 10.7191 18.0605 10.8437 18.346 10.8613C18.9985 10.9018 19.5072 11.4425 19.5072 12.096C19.5072 12.4066 19.3858 12.7043 19.1684 12.9254C19.1029 12.992 19.0305 13.0511 18.9522 13.1017C19.332 12.9968 19.6787 12.7965 19.96 12.5201C20.393 12.0971 20.637 11.517 20.637 10.9114C20.637 10.3063 20.393 9.72618 19.96 9.30269C19.528 8.87868 18.9473 8.6395 18.3423 8.63684ZM18.3247 13.1869V13.1864C18.6107 13.1693 18.8803 13.0468 19.0811 12.8428C19.2771 12.6436 19.3863 12.3756 19.3858 12.096C19.3874 11.5052 18.9282 11.0162 18.3386 10.98C18.0221 10.9603 17.7244 10.8224 17.5055 10.5928C17.0537 10.1214 17.0537 9.37723 17.5055 8.90583C17.5779 8.83019 17.6589 8.7636 17.7478 8.70821C17.3483 8.80889 16.9834 9.01397 16.6899 9.30268C16.2569 9.72615 16.0129 10.3062 16.0129 10.9114C16.0129 11.517 16.2569 12.0971 16.6899 12.52C17.1257 12.9488 17.7132 13.188 18.3241 13.1864L18.3247 13.1869ZM10.911 20.298V18.0581C10.911 18.0421 10.9174 18.0266 10.9291 18.0155C10.9403 18.0043 10.9558 17.9984 10.9712 17.9984H12.1143V16.6774H10.9712C10.9558 16.6774 10.9403 16.671 10.9291 16.6598C10.9174 16.6492 10.911 16.6337 10.911 16.6177V15.725H9.54465V16.6177C9.54465 16.6337 9.53826 16.6492 9.52654 16.6598C9.51535 16.671 9.49991 16.6774 9.48393 16.6774H8.36426V17.9989H9.48393C9.49991 17.9989 9.51535 18.0053 9.52654 18.0165C9.53826 18.0277 9.54465 18.0426 9.54465 18.0586V20.298L10.911 20.298ZM19.6352 16.1479C19.8333 16.5719 19.8882 17.0492 19.7918 17.5073C19.6799 18.0415 19.372 18.5145 18.9283 18.8331C18.4787 19.1586 17.9274 19.3125 17.374 19.2662C16.9133 19.2289 16.4765 19.044 16.1286 18.7393C16.2709 19.1591 16.5329 19.5282 16.8818 19.8015C17.3282 20.1504 17.8865 20.3256 18.4522 20.2947C19.0179 20.2633 19.5532 20.0279 19.9586 19.6316C20.3198 19.2789 20.552 18.815 20.617 18.3143C20.6825 17.8136 20.5776 17.3059 20.3187 16.8724C20.1461 16.5837 19.9123 16.3365 19.6337 16.1479L19.6352 16.1479ZM18.5815 17.275C18.5597 17.2889 18.5496 17.316 18.5565 17.3411L18.6934 17.8183C18.7014 17.8668 18.6955 17.9169 18.6758 17.9622C18.6556 18.009 18.6225 18.0485 18.5799 18.0767C18.5362 18.1054 18.4856 18.122 18.4329 18.1236C18.3834 18.1257 18.3338 18.1134 18.2902 18.0889L17.9136 17.805C17.8917 17.789 17.8624 17.789 17.8406 17.805L17.4587 18.0857C17.3708 18.1369 17.2616 18.1342 17.1763 18.0788L17.1737 18.0767C17.0879 18.0197 17.0437 17.9174 17.0608 17.8157L17.1913 17.3453V17.3448C17.1998 17.3203 17.1913 17.2931 17.1705 17.2777L16.7678 16.9778C16.7316 16.9442 16.7055 16.9016 16.6921 16.8542C16.6655 16.7546 16.6991 16.6486 16.7795 16.5836C16.8184 16.5516 16.8658 16.5314 16.9159 16.5255L17.4123 16.5186L17.4118 16.5181C17.4384 16.5192 17.4624 16.5026 17.4709 16.4771L17.6323 16.0057C17.6541 15.9615 17.6888 15.9236 17.7309 15.8975C17.7751 15.8698 17.8262 15.8555 17.8784 15.8549C17.9295 15.8549 17.9796 15.8688 18.0228 15.8959C18.0643 15.9226 18.0979 15.9599 18.1192 16.0041L18.2758 16.476H18.2763C18.2843 16.5005 18.3072 16.517 18.3328 16.517L18.8372 16.524V16.5245C18.8873 16.5303 18.9347 16.5506 18.9736 16.5825C19.013 16.6145 19.0417 16.6571 19.0572 16.7051C19.0881 16.8031 19.0593 16.9096 18.9826 16.9778L18.5815 17.275ZM15.2646 12.7057C15.2646 12.5065 15.1842 12.3164 15.042 12.1773C14.7431 11.8854 14.2659 11.8854 13.9676 12.1773L13.9644 12.18C13.8232 12.3195 13.7444 12.5097 13.7449 12.7079C13.7454 12.906 13.8253 13.0957 13.9676 13.2347C14.2659 13.5266 14.7431 13.5266 15.042 13.2347C15.1842 13.0951 15.2646 12.905 15.2646 12.7057ZM13.6006 14.8476L13.3236 15.6589V15.6594C13.29 15.7286 13.233 15.783 13.1622 15.8128C13.0903 15.8437 13.0098 15.8474 12.9353 15.8229C12.8596 15.7995 12.7952 15.751 12.752 15.685C12.7137 15.6242 12.6998 15.5507 12.7137 15.4804L13.1483 14.2638H13.1489C13.2011 14.104 13.3028 13.965 13.4386 13.8664C13.5745 13.7684 13.7375 13.7167 13.9047 13.7173H15.1165C15.2843 13.7178 15.4479 13.7716 15.5826 13.8717C15.7211 13.9735 15.825 14.1157 15.8799 14.2787L16.2874 15.465C16.3017 15.5395 16.2884 15.6168 16.2495 15.6823C16.2101 15.7489 16.1473 15.7989 16.0732 15.8229C15.9992 15.8469 15.9188 15.8437 15.8463 15.8128C15.776 15.783 15.7185 15.7281 15.6854 15.6594L15.4085 14.8481L15.4079 14.8476C15.4005 14.8183 15.3722 14.7997 15.3419 14.8028C15.312 14.8066 15.2891 14.8316 15.2886 14.862V16.0067C15.2886 16.1015 15.2508 16.1926 15.1842 16.2597L15.181 16.2624C15.1118 16.3305 15.018 16.3689 14.9205 16.3684H14.088C13.991 16.3694 13.8967 16.3332 13.8259 16.2666C13.7577 16.2022 13.7199 16.1122 13.7204 16.0184V14.8625C13.7193 14.8327 13.697 14.8071 13.6666 14.8039C13.6368 14.8002 13.6085 14.8194 13.6011 14.8487L13.6006 14.8476ZM8.40702 12.025H9.54267L8.97484 11.0327L8.40702 12.025Z" fill="#800080"/>
<ellipse cx="14.3189" cy="42.4127" rx="9.24375" ry="1.8125" fill="url(#paint5_radial_140_982)" fill-opacity="0.6"/>
<defs>
<linearGradient id="paint0_linear_140_982" x1="-5.10031e-08" y1="7.98909" x2="22.0987" y2="32.6139" gradientUnits="userSpaceOnUse">
<stop stop-color="#800080"/>
<stop offset="1" stop-color="#820182"/>
</linearGradient>
<linearGradient id="paint1_linear_140_982" x1="0.363281" y1="8.15605" x2="21.932" y2="32.081" gradientUnits="userSpaceOnUse">
<stop stop-color="#800080"/>
<stop offset="1" stop-color="#820082"/>
</linearGradient>
<linearGradient id="paint2_linear_140_982" x1="26.5277" y1="19.562" x2="1.18487" y2="11.0499" gradientUnits="userSpaceOnUse">
<stop stop-color="#9A009A"/>
<stop offset="1" stop-color="#730173"/>
</linearGradient>
<linearGradient id="paint3_linear_140_982" x1="25.7392" y1="19.2126" x2="1.99541" y2="11.2376" gradientUnits="userSpaceOnUse">
<stop stop-color="white"/>
<stop offset="1" stop-color="#999999"/>
</linearGradient>
<linearGradient id="paint4_linear_140_982" x1="4.89619" y1="10.332" x2="24.1087" y2="25.3757" gradientUnits="userSpaceOnUse">
<stop stop-color="white"/>
<stop offset="1" stop-color="#C7C7C7"/>
</linearGradient>
<radialGradient id="paint5_radial_140_982" cx="0" cy="0" r="1" gradientUnits="userSpaceOnUse" gradientTransform="translate(14.3189 42.4127) scale(9.24375 1.8125)">
<stop stop-opacity="0.8"/>
<stop offset="1" stop-color="#666666" stop-opacity="0"/>
</radialGradient>
</defs>
</svg>
