<svg width="48" height="60" viewBox="0 0 48 60" fill="none" xmlns="http://www.w3.org/2000/svg">
<path d="M23.8 0C26.26 0 28.64 0.370001 30.87 1.07C31.99 1.42 33.07 1.85 34.11 2.35C34.8 2.68 35.48 3.05 36.13 3.45C36.29 3.55 36.46 3.65 36.62 3.75C36.78 3.85 36.94 3.96 37.1 4.06C37.42 4.27 37.73 4.49 38.03 4.72C38.18 4.83 38.33 4.95 38.48 5.07C38.63 5.19 38.78 5.31 38.93 5.43C39.22 5.67 39.51 5.92 39.79 6.18C40.07 6.43 40.34 6.69 40.61 6.96V6.98C42.09 8.46 43.37 10.13 44.42 11.95C44.8 12.61 45.15 13.3 45.47 14C45.55 14.18 45.63 14.35 45.7 14.53C46.9 17.38 47.57 20.5 47.57 23.79C47.57 26.1 47.24 28.34 46.62 30.46C42.2 46.43 23.78 59.47 23.78 59.47C23.78 59.47 5.38 46.44 0.950001 30.48C0.330001 28.36 0 26.11 0 23.79C0 17.02 2.83 10.9 7.38 6.57C7.79 6.18 8.22 5.8 8.66 5.43C8.81 5.31 8.96 5.19 9.11 5.07C9.26 4.95 9.41 4.84 9.56 4.72C9.87 4.49 10.18 4.27 10.49 4.06C10.65 3.95 10.81 3.85 10.97 3.75C11.13 3.65 11.29 3.55 11.46 3.45C11.62 3.35 11.79 3.25 11.95 3.16C12.12 3.06 12.28 2.97 12.45 2.88C12.62 2.79 12.79 2.7 12.96 2.61C13.13 2.52 13.3 2.44 13.48 2.35C14 2.1 14.53 1.87 15.07 1.65C15.61 1.44 16.16 1.24 16.72 1.07C18.95 0.370001 21.33 0 23.79 0" fill="#DEBD25"/>
<path fill-rule="evenodd" clip-rule="evenodd" d="M14.4577 35.0069C14.477 35.1298 14.4385 35.342 14.3904 35.4872C14.3326 35.6324 14.2556 35.6995 14.2364 35.8558C14.1786 36.2803 14.4674 36.3138 14.6406 36.5038C14.3038 36.5819 13.9765 36.5484 13.7263 36.3362C13.4568 36.1128 13.4087 35.9787 13.2644 35.5654C13.2355 35.8112 13.3029 36.1686 13.2259 36.3585L13.2066 39.1735H8V40.0002L40 39.9778V39.1735H34.8992V35.018H34.803C34.7645 35.5096 34.7645 35.666 34.5432 36.0234C33.9465 36.9841 33.2728 36.0458 33.6577 35.666C33.7732 35.5542 33.8695 35.5542 33.985 35.409C34.062 35.3085 34.1486 35.1744 34.1293 35.018C33.8117 35.018 32.0698 34.9845 31.9062 35.0404L31.8773 39.1735H29.9044L29.9525 28.6284H39.6632L36.0349 24.5064C35.929 24.3947 35.4863 23.9591 35.4671 23.8027C35.4189 23.4564 35.4863 22.8308 35.4671 22.4399L33.9657 22.4622V23.9367H29.9236C29.9236 23.4787 29.9236 23.0096 29.9236 22.5404C29.9236 22.2053 29.991 22.25 30.1353 22.0712C30.4337 21.7026 31.502 20.4962 31.5789 20.2951C31.4731 20.2169 31.1844 19.9153 31.0881 19.7924C30.9149 19.569 30.7801 19.4461 30.6069 19.2674C30.5203 19.178 30.4626 19.0775 30.3663 18.9881L28.9323 17.4466C28.8457 17.3572 28.8072 17.2679 28.7206 17.1785C28.5377 16.9886 28.4223 16.8545 28.2394 16.6535L26.3338 14.5869C26.1702 14.4193 26.0355 14.2406 25.8719 14.0842L24.9191 13.0342C24.6015 12.699 24.2839 12.3416 23.9759 12.0288L22.5323 13.5704C22.2436 13.9278 21.3967 14.788 21.0887 15.1343C20.7808 15.4917 20.4343 15.838 20.1263 16.1731C19.3949 16.9662 18.4614 18.0275 17.7203 18.7871C17.6241 18.8764 17.5759 18.9658 17.4797 19.0663L16.2959 20.351C16.3633 20.4962 16.7483 20.876 16.9023 21.0435L17.8165 22.0712C17.9609 22.2276 17.9898 22.25 17.9898 22.5516C17.9898 23.0096 17.9898 23.4787 17.9898 23.9367C16.2574 23.9032 14.5155 23.9367 12.7832 23.9367C12.3501 23.9367 12.4271 23.9814 12.1865 24.2384L10.8776 25.6905C10.7236 25.8693 10.5792 26.048 10.4445 26.1932C10.2905 26.3608 10.1558 26.506 10.0018 26.6847L8.28872 28.6396H17.9994V39.1959L16.1708 39.1735V35.018H14.4866L14.4577 35.0069ZM18.4036 20.9095C18.4036 20.6302 18.7982 20.3845 19.0484 20.0494L20.4439 18.5078C21.0983 17.8487 21.8683 16.9104 22.542 16.2178L23.9567 14.6874L25.9585 16.9104C26.4974 17.5136 27.0364 18.0498 27.5465 18.6754C27.7774 18.9546 29.4617 20.6973 29.4809 20.9095V39.1735H26.8439V37.2075C26.8439 35.5654 27.046 34.1021 26.3916 32.9291C24.8421 30.1588 21.0406 31.4323 21.031 34.8282V39.1735C20.3188 39.1847 19.0484 39.2071 18.4036 39.1735V38.9725C18.3844 33.0408 18.4036 26.8523 18.4036 20.9207V20.9095ZM21.849 39.1624C21.849 38.3581 21.7817 35.4425 21.9068 34.8617C22.1089 33.8898 22.9558 32.8845 24.0048 32.9291C25.0923 32.9738 25.843 33.8116 26.0259 34.9399C26.1029 35.3867 26.1125 38.6373 26.074 39.1847H25.766C25.6794 37.9224 25.8141 36.5149 25.7371 35.2415C25.6698 34.1691 24.9191 33.3089 23.9663 33.3201C23.0232 33.3313 22.2725 34.1802 22.1955 35.2415C22.1474 35.9564 22.1762 38.2799 22.1762 39.1624H21.849ZM22.8788 35.8782C22.9943 36.0458 23.0424 36.1239 23.0135 36.3809C22.9943 36.5708 22.9173 36.7495 22.7248 36.6825C22.4938 36.5931 22.4361 35.8447 22.8788 35.8782Z" fill="white"/>
<path fill-rule="evenodd" clip-rule="evenodd" d="M14.4577 35.0069C14.477 35.1298 14.4385 35.342 14.3904 35.4872C14.3326 35.6324 14.2556 35.6995 14.2364 35.8558C14.1786 36.2803 14.4674 36.3138 14.6406 36.5038C14.3038 36.5819 13.9765 36.5484 13.7263 36.3362C13.4568 36.1128 13.4087 35.9787 13.2644 35.5654C13.2355 35.8112 13.3029 36.1686 13.2259 36.3585L13.2066 39.1735H8V40.0002L40 39.9778V39.1735H34.8992V35.018H34.803C34.7645 35.5096 34.7645 35.666 34.5432 36.0234C33.9465 36.9841 33.2728 36.0458 33.6577 35.666C33.7732 35.5542 33.8695 35.5542 33.985 35.409C34.062 35.3085 34.1486 35.1744 34.1293 35.018C33.8117 35.018 32.0698 34.9845 31.9062 35.0404L31.8773 39.1735H29.9044L29.9525 28.6284H39.6632L36.0349 24.5064C35.929 24.3947 35.4863 23.9591 35.4671 23.8027C35.4189 23.4564 35.4863 22.8308 35.4671 22.4399L33.9657 22.4622V23.9367H29.9236C29.9236 23.4787 29.9236 23.0096 29.9236 22.5404C29.9236 22.2053 29.991 22.25 30.1353 22.0712C30.4337 21.7026 31.502 20.4962 31.5789 20.2951C31.4731 20.2169 31.1844 19.9153 31.0881 19.7924C30.9149 19.569 30.7801 19.4461 30.6069 19.2674C30.5203 19.178 30.4626 19.0775 30.3663 18.9881L28.9323 17.4466C28.8457 17.3572 28.8072 17.2679 28.7206 17.1785C28.5377 16.9886 28.4223 16.8545 28.2394 16.6535L26.3338 14.5869C26.1702 14.4193 26.0355 14.2406 25.8719 14.0842L24.9191 13.0342C24.6015 12.699 24.2839 12.3416 23.9759 12.0288L22.5323 13.5704C22.2436 13.9278 21.3967 14.788 21.0887 15.1343C20.7808 15.4917 20.4343 15.838 20.1263 16.1731C19.3949 16.9662 18.4614 18.0275 17.7203 18.7871C17.6241 18.8764 17.5759 18.9658 17.4797 19.0663L16.2959 20.351C16.3633 20.4962 16.7483 20.876 16.9023 21.0435L17.8165 22.0712C17.9609 22.2276 17.9898 22.25 17.9898 22.5516C17.9898 23.0096 17.9898 23.4787 17.9898 23.9367C16.2574 23.9032 14.5155 23.9367 12.7832 23.9367C12.3501 23.9367 12.4271 23.9814 12.1865 24.2384L10.8776 25.6905C10.7236 25.8693 10.5792 26.048 10.4445 26.1932C10.2905 26.3608 10.1558 26.506 10.0018 26.6847L8.28872 28.6396H17.9994V39.1959L16.1708 39.1735V35.018H14.4866L14.4577 35.0069ZM18.4036 20.9095C18.4036 20.6302 18.7982 20.3845 19.0484 20.0494L20.4439 18.5078C21.0983 17.8487 21.8683 16.9104 22.542 16.2178L23.9567 14.6874L25.9585 16.9104C26.4974 17.5136 27.0364 18.0498 27.5465 18.6754C27.7774 18.9546 29.4617 20.6973 29.4809 20.9095V39.1735H26.8439V37.2075C26.8439 35.5654 27.046 34.1021 26.3916 32.9291C24.8421 30.1588 21.0406 31.4323 21.031 34.8282V39.1735C20.3188 39.1847 19.0484 39.2071 18.4036 39.1735V38.9725C18.3844 33.0408 18.4036 26.8523 18.4036 20.9207V20.9095ZM21.849 39.1624C21.849 38.3581 21.7817 35.4425 21.9068 34.8617C22.1089 33.8898 22.9558 32.8845 24.0048 32.9291C25.0923 32.9738 25.843 33.8116 26.0259 34.9399C26.1029 35.3867 26.1125 38.6373 26.074 39.1847H25.766C25.6794 37.9224 25.8141 36.5149 25.7371 35.2415C25.6698 34.1691 24.9191 33.3089 23.9663 33.3201C23.0232 33.3313 22.2725 34.1802 22.1955 35.2415C22.1474 35.9564 22.1762 38.2799 22.1762 39.1624H21.849ZM22.8788 35.8782C22.9943 36.0458 23.0424 36.1239 23.0135 36.3809C22.9943 36.5708 22.9173 36.7495 22.7248 36.6825C22.4938 36.5931 22.4361 35.8447 22.8788 35.8782Z" fill="white"/>
<path fill-rule="evenodd" clip-rule="evenodd" d="M18.4039 20.9095C18.4039 26.8523 18.3751 33.0297 18.4039 38.9613V39.1624C19.0584 39.1959 20.3288 39.1847 21.0313 39.1624V34.817C21.0506 31.4323 24.8521 30.1588 26.4015 32.918C27.056 34.0909 26.8539 35.5543 26.8539 37.1963V39.1624H29.5101V20.8983C29.4716 20.6861 27.7874 18.9435 27.5564 18.6642C27.0464 18.0386 26.5074 17.5024 25.9685 16.8992L23.9667 14.6763L22.5519 16.2067C21.8782 16.8992 21.1083 17.8376 20.4539 18.4966L19.0584 20.0382C18.7985 20.3621 18.4136 20.6191 18.4136 20.8983M19.9438 22.8644H21.1757H21.3104V24.4059V24.4506H19.9534V24.2942V22.8644H19.9438ZM21.6761 22.8644H23.0235V24.4506H21.6665L21.6761 22.8644ZM24.9387 22.8867C25.1119 22.8197 26.0647 22.8532 26.2957 22.8644V23.099V24.4506L24.9387 24.4283V22.8867ZM26.6614 22.8644H28.0184V24.4506H26.6614V22.8644ZM19.9534 24.8974H21.3104V26.9528H19.9534V24.8974ZM21.6665 24.8863H23.0042V26.9417H21.6665V24.8751V24.8863ZM24.9387 24.8974H26.2957V26.9528H24.9387V24.8974ZM26.6614 24.8863H27.9991V26.9417H26.6614V24.8863ZM19.9534 27.3885H21.2912C21.32 27.746 21.3393 29.4774 21.2912 29.7567H19.9438V27.3885H19.9534ZM21.6857 27.3885H23.0139V29.7678H21.6857V27.3885ZM24.9483 27.3885H26.2861L26.2764 29.7567H24.9483V27.3885ZM26.6614 27.3885L27.9895 27.4108V29.7567H26.6518V27.3885H26.6614Z" fill="#DEBD25"/>
<path fill-rule="evenodd" clip-rule="evenodd" d="M27.5854 15.2911L28.1918 15.9725C28.4227 15.8161 29.1927 14.889 29.4621 14.6097C29.5873 14.4868 29.7509 14.2746 29.8952 14.1517C30.2609 14.4757 31.0501 15.4363 31.4158 15.805C31.5891 15.9725 31.7238 16.1736 31.9163 16.3747L33.9758 18.6088C34.1298 18.363 34.3512 18.1173 34.5051 17.8715L32.8017 15.9502C32.6092 15.7491 32.3879 15.5369 32.2242 15.3246C31.9644 14.9783 30.5015 13.4368 30.0588 12.9229L29.9048 12.7554L29.3082 13.3809C29.2023 13.4926 29.1445 13.5932 29.0387 13.7049C28.9328 13.8166 28.8462 13.906 28.7307 14.0288L27.5854 15.3135V15.2911Z" fill="white"/>
<path fill-rule="evenodd" clip-rule="evenodd" d="M14.0818 18.608C14.2743 18.4516 14.4476 18.1947 14.5919 18.0495L18.1239 14.1732C18.3068 14.2961 18.7591 14.8435 18.942 15.0557C19.0767 15.2121 19.2115 15.3462 19.3654 15.5026C19.4617 15.6031 19.6734 15.8824 19.7697 15.9382C19.8563 15.8935 20.3375 15.3685 20.376 15.2568L19.2307 14.0169C19.0863 13.8381 18.1913 12.8328 18.0951 12.7881C17.97 12.8886 17.9122 12.978 17.7967 13.1232L16.9402 14.0727C16.6611 14.3743 13.591 17.7479 13.5044 17.9154C13.5814 18.0383 14.0145 18.5745 14.0915 18.6192" fill="white"/>
<path fill-rule="evenodd" clip-rule="evenodd" d="M21.8489 39.1624H22.1761C22.1761 38.2911 22.1473 35.9564 22.1954 35.2415C22.2724 34.1803 23.0231 33.3313 23.9662 33.3201C24.919 33.309 25.6697 34.1691 25.737 35.2415C25.814 36.5038 25.6793 37.9225 25.7659 39.1847H26.0739C26.1124 38.6374 26.0931 35.3867 26.0258 34.9399C25.8333 33.8117 25.0922 32.9739 24.0047 32.9292C22.9557 32.8845 22.1088 33.8898 21.9067 34.8617C21.7816 35.4426 21.8489 38.3581 21.8489 39.1624Z" fill="#DEBD25"/>
<path fill-rule="evenodd" clip-rule="evenodd" d="M22.9558 10.3191L23.0424 11.4474C23.3119 11.425 23.7546 11.2463 24.409 11.2128C25.9393 11.1346 26.9305 11.6038 28.2202 12.2852C27.9699 11.8942 26.5745 10.9782 26.0451 10.7436C25.0539 10.308 24.1203 10.1404 22.9558 10.3191Z" fill="white"/>
<path fill-rule="evenodd" clip-rule="evenodd" d="M32.9365 13.447C32.4457 12.2406 31.1946 10.565 30.2995 9.80541C29.751 9.34741 29.1928 8.9341 28.4517 8.59898C27.9513 8.37556 26.6809 7.93991 26.0649 8.00693C27.2968 8.30854 28.9522 9.44795 29.9146 10.2522C30.2033 10.498 30.4631 10.7326 30.723 10.9895C31.3389 11.5927 31.6276 11.8832 32.2243 12.5981C32.4553 12.8773 32.7248 13.1678 32.9365 13.4582" fill="white"/>
<path fill-rule="evenodd" clip-rule="evenodd" d="M19.9531 29.7564H21.3005C21.3486 29.4772 21.3294 27.7457 21.3005 27.3994H19.9627V29.7564H19.9531Z" fill="white"/>
<path fill-rule="evenodd" clip-rule="evenodd" d="M21.6758 29.7675H23.0039L23.0135 27.3882H21.6854L21.6758 29.7675Z" fill="white"/>
<path fill-rule="evenodd" clip-rule="evenodd" d="M24.9392 29.7452L26.2673 29.7564L26.277 27.3882H24.9488L24.9392 29.7452Z" fill="white"/>
<path fill-rule="evenodd" clip-rule="evenodd" d="M26.6511 29.7564H27.9792L27.9889 27.4105L26.6607 27.3882L26.6511 29.7564Z" fill="white"/>
<path d="M21.3035 24.8907L19.9465 24.8945L19.9509 26.9499L21.3078 26.9461L21.3035 24.8907Z" fill="white"/>
<path fill-rule="evenodd" clip-rule="evenodd" d="M24.9392 26.9412L26.2962 26.9524V24.9081L24.9392 24.897V26.9412Z" fill="white"/>
<path d="M23.004 24.8857H21.6663V26.9523H23.004V24.8857Z" fill="white"/>
<path fill-rule="evenodd" clip-rule="evenodd" d="M26.6619 26.9411L27.9996 26.9523V24.9081L26.6619 24.8857V26.9411Z" fill="white"/>
<path fill-rule="evenodd" clip-rule="evenodd" d="M27.46 15.1568V12.5317H26.18C26.18 12.8669 26.18 13.202 26.1703 13.5371C26.1703 13.8499 26.1511 13.794 26.5168 14.185C26.6034 14.2744 26.6708 14.319 26.7478 14.4084L27.4696 15.1457L27.46 15.1568Z" fill="white"/>
<path fill-rule="evenodd" clip-rule="evenodd" d="M19.9436 24.2941V24.4505H21.3102V24.4058V22.8643H21.1755H19.9436V24.2941Z" fill="white"/>
<path fill-rule="evenodd" clip-rule="evenodd" d="M24.9392 24.4391L26.2962 24.4615V23.1098V22.8752C26.0652 22.8641 25.1028 22.8305 24.9392 22.8976V24.4391Z" fill="white"/>
<path d="M26.6683 22.8679L26.6636 24.4541L28.0206 24.4596L28.0253 22.8734L26.6683 22.8679Z" fill="white"/>
<path fill-rule="evenodd" clip-rule="evenodd" d="M21.6663 24.4393L23.0233 24.4505V22.8643H21.6759L21.6663 24.4393Z" fill="white"/>
<path fill-rule="evenodd" clip-rule="evenodd" d="M34.9276 32.1357H37.0064C37.0353 31.9346 37.0545 31.2867 36.9871 31.1527C36.8813 31.108 35.1201 31.108 34.918 31.1527V32.1468L34.9276 32.1357Z" fill="white"/>
<path fill-rule="evenodd" clip-rule="evenodd" d="M10.974 32.1356C11.5322 32.1356 12.5716 32.1579 13.0624 32.1356V31.1302C12.4465 31.1302 11.4841 31.0967 10.9644 31.1414V32.1356H10.974Z" fill="white"/>
<path fill-rule="evenodd" clip-rule="evenodd" d="M31.1072 32.1357L33.2052 32.1245L33.1956 31.1191H31.1168L31.1072 31.2644V31.9346V32.1357Z" fill="white"/>
<path fill-rule="evenodd" clip-rule="evenodd" d="M14.7848 32.1357L16.8636 32.1245V31.1191L14.7751 31.1303L14.7848 32.1357Z" fill="white"/>
<path fill-rule="evenodd" clip-rule="evenodd" d="M31.1177 33.3645H33.2061V32.415H31.1177V33.3645Z" fill="white"/>
<path fill-rule="evenodd" clip-rule="evenodd" d="M14.7848 32.415C14.7848 32.6608 14.7463 33.1635 14.804 33.3645H16.8732V32.415H14.7848Z" fill="white"/>
<path fill-rule="evenodd" clip-rule="evenodd" d="M10.9739 33.3645L13.0623 33.3534V32.415H10.9739V33.3645Z" fill="white"/>
<path fill-rule="evenodd" clip-rule="evenodd" d="M31.1177 30.8514H33.2061L33.1965 29.9019H31.1177V30.8514Z" fill="white"/>
<path fill-rule="evenodd" clip-rule="evenodd" d="M34.9285 33.3645L37.0169 33.3534V32.415H34.9285V33.3645Z" fill="white"/>
<path fill-rule="evenodd" clip-rule="evenodd" d="M10.9739 30.8518L13.0623 30.8406L13.0527 29.9023L10.9739 29.8911V30.8518Z" fill="white"/>
<path fill-rule="evenodd" clip-rule="evenodd" d="M34.9381 30.8518L37.0169 30.8406L37.0073 29.9023L34.9285 29.8911L34.9381 30.8518Z" fill="white"/>
<path fill-rule="evenodd" clip-rule="evenodd" d="M14.7751 30.8514L16.8732 30.8402L16.8636 29.9019H14.7751V30.8514Z" fill="white"/>
<path fill-rule="evenodd" clip-rule="evenodd" d="M13.2167 36.3697C13.2936 36.1686 13.2263 35.8224 13.2552 35.5766C13.3995 35.9787 13.4476 36.1128 13.7171 36.3474C13.9673 36.5596 14.3042 36.5931 14.6314 36.5149C14.4582 36.325 14.1694 36.2804 14.2272 35.867C14.2464 35.6995 14.333 35.6325 14.3812 35.4984C14.4389 35.3532 14.4774 35.1409 14.4485 35.0181H13.207V36.3809L13.2167 36.3697Z" fill="white"/>
<path fill-rule="evenodd" clip-rule="evenodd" d="M34.8033 35.0181H34.1296C34.1489 35.1856 34.0623 35.3197 33.9853 35.409C33.8698 35.5543 33.7736 35.5543 33.6581 35.666C33.2635 36.0458 33.9468 36.9729 34.5435 36.0234C34.7648 35.666 34.7648 35.5096 34.8033 35.0181Z" fill="white"/>
<path fill-rule="evenodd" clip-rule="evenodd" d="M34.698 21.5347C34.6114 21.6911 34.5151 21.7693 34.3996 21.8921C34.3323 21.9592 34.2938 22.0038 34.2264 22.0709C34.1975 22.1044 34.1686 22.1267 34.1398 22.1602C34.082 22.2384 34.1205 22.1602 34.082 22.2608H35.3428C35.2465 22.1155 35.1407 22.0038 35.0252 21.881C34.9674 21.8139 34.9289 21.7693 34.8712 21.6911C34.7942 21.5905 34.8038 21.5794 34.698 21.5347Z" fill="white"/>
</svg>
