<svg width="29" height="45" viewBox="0 0 29 45" fill="none" xmlns="http://www.w3.org/2000/svg">
<path d="M21.478 14.3683C21.478 18.3345 18.2321 21.5522 14.2281 21.5522C10.2236 21.5522 6.97825 18.3345 6.97825 14.3683C6.97825 10.4009 10.2241 7.18427 14.2281 7.18427C18.2329 7.18399 21.478 10.4006 21.478 14.3683ZM29 14.3683C29 6.43273 22.5085 0 14.5 0C6.49204 0 0 6.43273 0 14.3683C0 17.8573 1.25628 21.0563 3.34392 23.5447L14.5125 39.5125L25.8445 23.3118C26.2515 22.8071 26.6242 22.2751 26.9605 21.7159L27.0751 21.5531H27.0563C28.2903 19.4384 29 16.9866 29 14.3683Z" fill="url(#paint0_linear_140_604)"/>
<path d="M21.2208 14.3792C21.2208 18.2485 18.0687 21.3876 14.1804 21.3876C10.2915 21.3876 7.13996 18.2485 7.13996 14.3792C7.13996 10.5089 10.2921 7.37091 14.1804 7.37091C18.0695 7.37064 21.2208 10.5086 21.2208 14.3792ZM28.5256 14.3792C28.5256 6.63775 22.2216 0.362305 14.4444 0.362305C6.66779 0.362305 0.363281 6.63775 0.363281 14.3792C0.363281 17.7829 1.58328 20.9038 3.61061 23.3313L14.4566 38.9087L25.4612 23.1041C25.8564 22.6117 26.2184 22.0928 26.545 21.5473L26.6563 21.3884H26.638C27.8364 19.3254 28.5256 16.9335 28.5256 14.3792Z" fill="url(#paint1_linear_140_604)"/>
<circle cx="14.5016" cy="14.5003" r="11.9625" fill="url(#paint2_linear_140_604)"/>
<circle cx="14.4719" cy="14.4703" r="11.2077" fill="url(#paint3_linear_140_604)"/>
<circle cx="14.5024" cy="14.5007" r="10.875" fill="url(#paint4_linear_140_604)"/>
<g clip-path="url(#clip0_140_604)">
<path fill-rule="evenodd" clip-rule="evenodd" d="M15.2357 14.5495L15.6693 14.8653L15.892 14.6603L12.7652 12.3831C12.7513 12.3762 12.7391 12.3671 12.7279 12.356L11.8559 11.721L7.81885 14.6603L8.0415 14.8654L8.45272 14.5661C8.45964 14.5602 8.4671 14.5543 8.47509 14.5501L11.7691 12.152C11.8181 12.1147 11.8873 12.1126 11.939 12.1504L15.2357 14.5495ZM12.3375 19.1213H14.4489V18.8257H12.3375V19.1213ZM12.5724 18.5391H14.214V15.8161H12.5724V18.5391ZM9.517 15.5301H11.4596C11.539 15.5301 11.6029 15.594 11.6029 15.6734V17.3285C11.6029 17.4078 11.539 17.4718 11.4596 17.4718L9.517 17.4712C9.43764 17.4712 9.37371 17.4073 9.37371 17.3279V15.6729C9.37371 15.5941 9.43817 15.5301 9.517 15.5301ZM10.6319 16.3574H11.3169V15.8162H10.6319V16.3574ZM9.66029 16.3574H10.3453V15.8162H9.66029V16.3574ZM10.3453 16.6439H9.66029V17.1851H10.3453V16.6439ZM11.3169 16.6439H10.6319V17.1851H11.3169V16.6439ZM13.7566 16.8266C13.7566 16.6381 14.0432 16.6381 14.0432 16.8266V17.5292C14.0432 17.7178 13.7566 17.7178 13.7566 17.5292V16.8266ZM15.6103 19.4309H8.10076V19.7345H15.6103V19.4309ZM17.8497 13.3499L14.5513 10.9481C14.4991 10.9103 14.4299 10.913 14.3814 10.9497L12.8308 12.0785L12.5783 11.8947L14.4672 10.5199L18.5038 13.4586L18.2812 13.6637L17.8497 13.3499ZM20.4747 12.1583L17.1625 9.74688C17.1103 9.70906 17.0411 9.71172 16.9926 9.74848L15.4426 10.8772L15.1901 10.6934L17.079 9.3186L21.1156 12.2574L20.893 12.4625L20.4747 12.1583ZM15.3068 17.9219V14.9532L15.588 15.1583C15.6423 15.2041 15.7233 15.2036 15.7771 15.1546L16.2139 14.753L16.2134 14.7524C16.2789 14.6922 16.2735 14.5852 16.2006 14.5324L13.0732 12.2547L14.4673 11.24L17.634 13.5454V17.9218L15.3068 17.9219ZM15.897 19.7346V19.2877C15.897 19.2083 15.833 19.1444 15.7537 19.1444H15.3068V18.2079H18.1443V19.7345L15.897 19.7346ZM17.92 16.7303V13.7538L18.1997 13.9573C18.254 14.0031 18.335 14.0025 18.3888 13.9535L18.8256 13.5519V13.5514C18.8911 13.4912 18.8858 13.3841 18.8128 13.3314L15.6845 11.0537L17.0785 10.0384L20.2585 12.3535V16.7299L17.92 16.7303ZM18.4303 19.7346H20.7687V17.0163H17.9199V17.9213H18.2869C18.3663 17.9213 18.4302 17.9852 18.4302 18.0646L18.4303 19.7346ZM11.8556 12.4413L15.0202 14.7452V19.1216H14.7352V18.6827C14.7352 18.6038 14.6713 18.5394 14.5919 18.5394H14.5003V15.6736C14.5003 15.5942 14.4364 15.5303 14.357 15.5303H12.4292C12.3498 15.5303 12.2859 15.5942 12.2859 15.6736V18.5399H12.1938C12.1144 18.5399 12.0505 18.6044 12.0505 18.6832V19.1222L8.69144 19.1216V14.7452L11.8556 12.4413Z" fill="#C36780"/>
</g>
<ellipse cx="14.3189" cy="42.4127" rx="9.24375" ry="1.8125" fill="url(#paint5_radial_140_604)" fill-opacity="0.6"/>
<defs>
<linearGradient id="paint0_linear_140_604" x1="-5.10031e-08" y1="7.98909" x2="22.0987" y2="32.6139" gradientUnits="userSpaceOnUse">
<stop stop-color="#C36780"/>
<stop offset="1" stop-color="#B56279"/>
</linearGradient>
<linearGradient id="paint1_linear_140_604" x1="0.363281" y1="8.15605" x2="21.932" y2="32.081" gradientUnits="userSpaceOnUse">
<stop stop-color="#C36780"/>
<stop offset="1" stop-color="#BA697F"/>
</linearGradient>
<linearGradient id="paint2_linear_140_604" x1="26.5277" y1="19.562" x2="1.18487" y2="11.0499" gradientUnits="userSpaceOnUse">
<stop stop-color="#D86D8A"/>
<stop offset="1" stop-color="#BB647C"/>
</linearGradient>
<linearGradient id="paint3_linear_140_604" x1="25.7392" y1="19.2126" x2="1.99541" y2="11.2376" gradientUnits="userSpaceOnUse">
<stop stop-color="white"/>
<stop offset="1" stop-color="#999999"/>
</linearGradient>
<linearGradient id="paint4_linear_140_604" x1="4.89619" y1="10.332" x2="24.1087" y2="25.3757" gradientUnits="userSpaceOnUse">
<stop stop-color="white"/>
<stop offset="1" stop-color="#C7C7C7"/>
</linearGradient>
<radialGradient id="paint5_radial_140_604" cx="0" cy="0" r="1" gradientUnits="userSpaceOnUse" gradientTransform="translate(14.3189 42.4127) scale(9.24375 1.8125)">
<stop stop-opacity="0.8"/>
<stop offset="1" stop-color="#666666" stop-opacity="0"/>
</radialGradient>
<clipPath id="clip0_140_604">
<rect width="15" height="15" fill="white" transform="translate(7.00049 7.00037)"/>
</clipPath>
</defs>
</svg>
