<svg width="29" height="45" viewBox="0 0 29 45" fill="none" xmlns="http://www.w3.org/2000/svg">
<path d="M21.478 14.3683C21.478 18.3345 18.2321 21.5522 14.2281 21.5522C10.2236 21.5522 6.97825 18.3345 6.97825 14.3683C6.97825 10.4009 10.2241 7.18427 14.2281 7.18427C18.2329 7.18399 21.478 10.4006 21.478 14.3683ZM29 14.3683C29 6.43274 22.5085 0 14.5 0C6.49204 0 0 6.43274 0 14.3683C0 17.8573 1.25628 21.0563 3.34392 23.5447L14.5125 39.5125L25.8445 23.3118C26.2515 22.8071 26.6242 22.2751 26.9605 21.7159L27.0751 21.5531H27.0563C28.2903 19.4384 29 16.9866 29 14.3683Z" fill="url(#paint0_linear_140_1269)"/>
<path d="M21.2208 14.3792C21.2208 18.2485 18.0687 21.3876 14.1804 21.3876C10.2915 21.3876 7.13996 18.2485 7.13996 14.3792C7.13996 10.5089 10.2921 7.37091 14.1804 7.37091C18.0695 7.37064 21.2208 10.5086 21.2208 14.3792ZM28.5256 14.3792C28.5256 6.63775 22.2216 0.362305 14.4444 0.362305C6.66779 0.362305 0.363281 6.63775 0.363281 14.3792C0.363281 17.7829 1.58328 20.9038 3.61061 23.3313L14.4566 38.9087L25.4612 23.1041C25.8564 22.6117 26.2184 22.0928 26.545 21.5473L26.6563 21.3884H26.638C27.8364 19.3254 28.5256 16.9335 28.5256 14.3792Z" fill="url(#paint1_linear_140_1269)"/>
<circle cx="14.5016" cy="14.5003" r="11.9625" fill="url(#paint2_linear_140_1269)"/>
<circle cx="14.4719" cy="14.4703" r="11.2077" fill="url(#paint3_linear_140_1269)"/>
<circle cx="14.5024" cy="14.5007" r="10.875" fill="url(#paint4_linear_140_1269)"/>
<ellipse cx="14.3189" cy="42.4127" rx="9.24375" ry="1.8125" fill="url(#paint5_radial_140_1269)" fill-opacity="0.6"/>
<path d="M14.9611 8.87294C14.5997 8.87347 14.3065 9.15871 14.3059 9.51033V11.21C14.3059 11.3274 14.2082 11.4225 14.0875 11.4225C13.9669 11.4225 13.8691 11.3274 13.8691 11.21V9.51033C13.8691 9.15818 13.5759 8.87294 13.2139 8.87294C12.8519 8.87294 12.5587 9.15818 12.5587 9.51033V11.21C12.5587 11.3274 12.461 11.4225 12.3403 11.4225C12.2197 11.4225 12.1219 11.3274 12.1219 11.21V9.51033C12.1219 9.15818 11.8287 8.87294 11.4667 8.87294C11.1047 8.87294 10.8115 9.15818 10.8115 9.51033V12.2256C10.8115 12.7217 11.0343 13.1934 11.4214 13.5163L12.2579 14.2138C12.3081 14.2552 12.3365 14.3173 12.3343 14.3816L12.1421 20.746C12.135 20.9754 12.224 21.198 12.3884 21.3632C12.5527 21.5278 12.7788 21.6208 13.0152 21.6208H13.4132H13.4127C13.6491 21.6208 13.8751 21.5278 14.0395 21.3632C14.2038 21.198 14.2928 20.9754 14.2857 20.746L14.0935 14.3811C14.0914 14.3168 14.1197 14.2552 14.17 14.2137L15.0065 13.5163C15.3936 13.1934 15.6163 12.7217 15.6163 12.2256V9.51031C15.6158 9.15869 15.3226 8.87347 14.9611 8.87294Z" fill="#E97E00"/>
<path d="M16.7357 8.87472L16.49 8.84497V16.3821C16.4895 16.551 16.4207 16.713 16.2984 16.8331L16.2454 16.8846C16.122 17.0036 16.0527 17.1661 16.0532 17.335V20.9835C16.0538 21.3351 16.347 21.6204 16.7084 21.6209H17.582C17.9435 21.6204 18.2367 21.3351 18.2372 20.9835V17.335C18.2378 17.1661 18.1684 17.0036 18.045 16.8846L17.9921 16.8331C17.8698 16.713 17.801 16.551 17.8004 16.3821V15.5047C17.7999 15.3628 17.8736 15.2301 17.9959 15.1525C18.4458 14.8678 18.674 14.3993 18.674 13.7598V10.5728C18.674 9.41597 17.4062 8.95644 16.7357 8.87472Z" fill="#E97E00"/>
<defs>
<linearGradient id="paint0_linear_140_1269" x1="-5.10031e-08" y1="7.98909" x2="22.0987" y2="32.6139" gradientUnits="userSpaceOnUse">
<stop stop-color="#E97E00"/>
<stop offset="1" stop-color="#C86C00"/>
</linearGradient>
<linearGradient id="paint1_linear_140_1269" x1="0.363281" y1="8.15605" x2="21.932" y2="32.081" gradientUnits="userSpaceOnUse">
<stop stop-color="#E97E00"/>
<stop offset="1" stop-color="#E4800A"/>
</linearGradient>
<linearGradient id="paint2_linear_140_1269" x1="26.5277" y1="19.562" x2="1.18487" y2="11.0499" gradientUnits="userSpaceOnUse">
<stop stop-color="#F38C12"/>
<stop offset="1" stop-color="#E47C01"/>
</linearGradient>
<linearGradient id="paint3_linear_140_1269" x1="25.7392" y1="19.2126" x2="1.99541" y2="11.2376" gradientUnits="userSpaceOnUse">
<stop stop-color="white"/>
<stop offset="1" stop-color="#999999"/>
</linearGradient>
<linearGradient id="paint4_linear_140_1269" x1="4.89619" y1="10.332" x2="24.1087" y2="25.3757" gradientUnits="userSpaceOnUse">
<stop stop-color="white"/>
<stop offset="1" stop-color="#C7C7C7"/>
</linearGradient>
<radialGradient id="paint5_radial_140_1269" cx="0" cy="0" r="1" gradientUnits="userSpaceOnUse" gradientTransform="translate(14.3189 42.4127) scale(9.24375 1.8125)">
<stop/>
<stop offset="1" stop-color="#666666" stop-opacity="0"/>
</radialGradient>
</defs>
</svg>
