<svg width="29" height="45" viewBox="0 0 29 45" fill="none" xmlns="http://www.w3.org/2000/svg">
<path d="M21.478 14.3683C21.478 18.3345 18.2321 21.5522 14.2281 21.5522C10.2236 21.5522 6.97825 18.3345 6.97825 14.3683C6.97825 10.4009 10.2241 7.18427 14.2281 7.18427C18.2329 7.18399 21.478 10.4006 21.478 14.3683ZM29 14.3683C29 6.43274 22.5085 0 14.5 0C6.49204 0 0 6.43274 0 14.3683C0 17.8573 1.25628 21.0563 3.34392 23.5447L14.5125 39.5125L25.8445 23.3118C26.2515 22.8071 26.6242 22.2751 26.9605 21.7159L27.0751 21.5531H27.0563C28.2903 19.4384 29 16.9866 29 14.3683Z" fill="#708090"/>
<path d="M21.2208 14.3792C21.2208 18.2485 18.0687 21.3876 14.1804 21.3876C10.2915 21.3876 7.13996 18.2485 7.13996 14.3792C7.13996 10.5089 10.2921 7.37091 14.1804 7.37091C18.0695 7.37064 21.2208 10.5086 21.2208 14.3792ZM28.5256 14.3792C28.5256 6.63775 22.2216 0.362305 14.4444 0.362305C6.66779 0.362305 0.363281 6.63775 0.363281 14.3792C0.363281 17.7829 1.58328 20.9038 3.61061 23.3313L14.4566 38.9087L25.4612 23.1041C25.8564 22.6117 26.2184 22.0928 26.545 21.5473L26.6563 21.3884H26.638C27.8364 19.3254 28.5256 16.9335 28.5256 14.3792Z" fill="#708090"/>
<circle cx="14.5016" cy="14.5001" r="11.9625" fill="#708090"/>
<circle cx="14.4714" cy="14.4699" r="11.2077" fill="url(#paint0_linear_1177_1030)"/>
<circle cx="14.502" cy="14.5005" r="10.875" fill="url(#paint1_linear_1177_1030)"/>
<path d="M17.4485 20.8351C17.4485 21.0977 17.6608 21.31 17.9235 21.31H18.3984C18.6606 21.31 18.8733 21.0977 18.8733 20.8351V19.8558H17.4485V20.8351ZM10.7995 20.8351C10.7995 21.0977 11.0118 21.31 11.2744 21.31H11.7493C12.012 21.31 12.2243 21.0977 12.2243 20.8351V19.8558H10.7995V20.8351ZM9.36754 19.2759C9.36754 19.5941 9.62591 19.8529 9.94459 19.8529H19.7263C20.045 19.8529 20.3034 19.5941 20.3034 19.2759C20.3034 18.9567 20.3034 18.9363 20.3034 18.9363H9.36754C9.36754 18.9363 9.36754 18.9567 9.36754 19.2759ZM22.1979 11.8113V10.8615H20.3029L20.3034 10.3447C20.3034 9.19018 19.1212 8 14.6165 8C10.6565 8 9.36754 9.19018 9.36754 10.3447V10.8615H7.47493V11.8113H7V13.7111H7.47493V14.6609H9.36754V18.4481H20.291L20.3015 11.3364H21.7229V11.8113H21.248V13.7111H21.7229V14.186H20.2981V14.6609H22.1979V13.7111H22.6728V11.8113H22.1979ZM9.36754 14.186H7.94987V13.7111H8.4248V11.8113H7.94987V11.3364H9.36754V14.186ZM12.9367 9.40723H16.7361C16.8672 9.40723 16.9736 9.51361 16.9736 9.64469C16.9736 9.77577 16.8672 9.88216 16.7361 9.88216H12.9367C12.8056 9.88216 12.6992 9.77577 12.6992 9.64469C12.6992 9.51361 12.8056 9.40723 12.9367 9.40723ZM10.344 11.4395C10.344 11.1208 10.6024 10.8624 10.921 10.8624H14.0148C14.3334 10.8624 14.5918 11.1208 14.5918 11.4395V13.1412C14.5918 13.4603 14.3334 13.7187 14.0148 13.7187H10.921C10.6024 13.7187 10.344 13.4603 10.344 13.1412V11.4395ZM11.2687 17.3804C10.7904 17.3804 10.4034 16.9929 10.4034 16.5151C10.4034 16.0363 10.7904 15.6497 11.2687 15.6497C11.747 15.6497 12.1345 16.0363 12.1345 16.5151C12.135 16.9929 11.747 17.3804 11.2687 17.3804ZM12.6992 15.1359H16.9736V15.6108H12.6992V15.1359ZM16.9888 17.4778H12.7115V17.0195H16.9888V17.4778ZM16.9888 16.5317H12.7115V16.0734H16.9888V16.5317ZM18.4022 17.4103C17.9239 17.4103 17.5369 17.0228 17.5369 16.545C17.5369 16.0672 17.9239 15.6797 18.4022 15.6797C18.8805 15.6797 19.268 16.0672 19.268 16.545C19.268 17.0228 18.8805 17.4103 18.4022 17.4103ZM19.3506 13.1412C19.3506 13.4603 19.0923 13.7187 18.7731 13.7187H15.6566C15.3375 13.7187 15.0791 13.4603 15.0791 13.1412V11.4395C15.0791 11.1208 15.3375 10.8624 15.6566 10.8624H18.7731C19.0923 10.8624 19.3506 11.1208 19.3506 11.4395V13.1412Z" fill="#708090"/>
<ellipse cx="14.3189" cy="42.4126" rx="9.24375" ry="1.8125" fill="url(#paint2_radial_1177_1030)" fill-opacity="0.6"/>
<defs>
<linearGradient id="paint0_linear_1177_1030" x1="25.7387" y1="19.2122" x2="1.99492" y2="11.2372" gradientUnits="userSpaceOnUse">
<stop stop-color="white"/>
<stop offset="1" stop-color="#999999"/>
</linearGradient>
<linearGradient id="paint1_linear_1177_1030" x1="4.8957" y1="10.3317" x2="24.1082" y2="25.3755" gradientUnits="userSpaceOnUse">
<stop stop-color="white"/>
<stop offset="1" stop-color="#C7C7C7"/>
</linearGradient>
<radialGradient id="paint2_radial_1177_1030" cx="0" cy="0" r="1" gradientUnits="userSpaceOnUse" gradientTransform="translate(14.3189 42.4126) scale(9.24375 1.8125)">
<stop/>
<stop offset="1" stop-color="#666666" stop-opacity="0"/>
</radialGradient>
</defs>
</svg>
