<svg width="29" height="45" viewBox="0 0 29 45" fill="none" xmlns="http://www.w3.org/2000/svg">
<path d="M21.478 14.3683C21.478 18.3345 18.2321 21.5522 14.2281 21.5522C10.2236 21.5522 6.97825 18.3345 6.97825 14.3683C6.97825 10.4009 10.2241 7.18427 14.2281 7.18427C18.2329 7.18399 21.478 10.4006 21.478 14.3683ZM29 14.3683C29 6.43274 22.5085 0 14.5 0C6.49204 0 0 6.43274 0 14.3683C0 17.8573 1.25628 21.0563 3.34392 23.5447L14.5125 39.5125L25.8445 23.3118C26.2515 22.8071 26.6242 22.2751 26.9605 21.7159L27.0751 21.5531H27.0563C28.2903 19.4384 29 16.9866 29 14.3683Z" fill="url(#paint0_linear_140_853)"/>
<path d="M21.2208 14.3792C21.2208 18.2485 18.0687 21.3876 14.1804 21.3876C10.2915 21.3876 7.13996 18.2485 7.13996 14.3792C7.13996 10.5089 10.2921 7.37091 14.1804 7.37091C18.0695 7.37064 21.2208 10.5086 21.2208 14.3792ZM28.5256 14.3792C28.5256 6.63775 22.2216 0.362305 14.4444 0.362305C6.66779 0.362305 0.363281 6.63775 0.363281 14.3792C0.363281 17.7829 1.58328 20.9038 3.61061 23.3313L14.4566 38.9087L25.4612 23.1041C25.8564 22.6117 26.2184 22.0928 26.545 21.5473L26.6563 21.3884H26.638C27.8364 19.3254 28.5256 16.9335 28.5256 14.3792Z" fill="url(#paint1_linear_140_853)"/>
<circle cx="14.5016" cy="14.5003" r="11.9625" fill="url(#paint2_linear_140_853)"/>
<circle cx="14.4719" cy="14.4703" r="11.2077" fill="url(#paint3_linear_140_853)"/>
<circle cx="14.5024" cy="14.5007" r="10.875" fill="url(#paint4_linear_140_853)"/>
<path d="M18.019 15.1068L18.3182 15.3019C18.5783 15.4709 18.8515 15.666 19.0856 15.8611C19.2937 15.7571 19.4758 15.614 19.6579 15.4579L18.5393 14.3394C18.3312 14.5735 18.1621 14.8206 18.019 15.1068Z" fill="#194DBD"/>
<path d="M17.5506 13.3376L16.4971 14.3782C16.8873 14.5083 17.2645 14.6903 17.6677 14.8985C17.8238 14.5863 18.0189 14.3001 18.266 14.04L17.5506 13.3376Z" fill="#194DBD"/>
<path d="M15.2484 13.1166C15.2354 13.4548 15.1833 13.7799 15.0923 14.0791C15.4044 14.1051 15.7166 14.1571 16.0418 14.2482L17.2514 13.0385L16.549 12.3362C16.1588 12.6744 15.7166 12.9345 15.2484 13.1166Z" fill="#194DBD"/>
<path d="M18.8384 14.0401L19.957 15.1587C20.4642 14.5864 20.7244 13.871 20.7504 13.1556C20.048 13.2467 19.3847 13.5588 18.8384 14.0401Z" fill="#194DBD"/>
<path d="M17.4205 9.81287C16.7051 9.83888 15.9898 10.112 15.4175 10.6063L16.5361 11.7249C17.0173 11.2046 17.3295 10.5282 17.4205 9.81287Z" fill="#194DBD"/>
<path d="M18.5523 13.7409C19.1766 13.1816 19.944 12.8304 20.7634 12.7393C20.6984 12.076 20.4383 11.4387 19.97 10.9054L17.8369 13.0385L18.5523 13.7409Z" fill="#194DBD"/>
<path d="M16.2501 12.0372L15.1315 10.9186C15.0144 11.0486 14.9104 11.1917 14.8193 11.3348C15.0405 11.751 15.1835 12.2062 15.2356 12.6875C15.5997 12.5184 15.9379 12.3103 16.2501 12.0372Z" fill="#194DBD"/>
<path d="M17.5508 12.7394L19.6709 10.6193C19.1376 10.1511 18.5003 9.89096 17.837 9.82593C17.7459 10.6454 17.3947 11.4128 16.8354 12.0371L17.5508 12.7394Z" fill="#194DBD"/>
<path d="M10.6439 14.7034L11.1642 13.988H12.0746L12.4648 14.5213C12.5819 14.4693 12.712 14.4303 12.829 14.3782L12.3738 13.7539L12.6469 12.8955L13.5054 12.6093L14.2728 13.1686C14.2858 13.1816 14.2988 13.1816 14.3118 13.1946C14.2858 13.5068 14.2208 13.8059 14.1037 14.0791C14.2858 14.0531 14.4679 14.0531 14.637 14.0531H14.65C14.754 13.7279 14.8191 13.3897 14.8191 13.0255C14.8191 11.2566 13.3753 9.81287 11.6064 9.81287C9.83748 9.81287 8.40674 11.2566 8.40674 13.0385C8.40674 14.2872 9.12211 15.3668 10.1626 15.9C10.1757 15.887 10.1887 15.874 10.2017 15.861C10.4098 15.6919 10.6309 15.5358 10.852 15.3798L10.6439 14.7034ZM11.8145 11.1005L12.5819 10.5412C12.5949 10.5282 12.6079 10.5152 12.6079 10.5022C13.0371 10.6713 13.4143 10.9445 13.7005 11.2956C13.6875 11.3086 13.6875 11.3216 13.6745 11.3347L13.3753 12.2451L12.5039 12.5313L11.7885 12.011V11.1005H11.8145ZM10.6309 10.5152C10.6439 10.5282 10.6569 10.5412 10.6699 10.5543L11.4373 11.1135V12.024L10.7219 12.5443L9.85049 12.2581L9.55133 11.3477C9.55133 11.3347 9.53833 11.3216 9.52532 11.3086C9.82447 10.9575 10.2017 10.6843 10.6309 10.5152ZM9.38224 14.4823C9.36924 14.4823 9.35623 14.4823 9.34322 14.4953C9.0961 14.1181 8.95302 13.6759 8.92701 13.2076C8.94002 13.2076 8.95302 13.1946 8.96603 13.1816L9.73343 12.6223L10.5919 12.9085L10.865 13.7669L10.3317 14.4953H9.38224V14.4823Z" fill="#194DBD"/>
<path d="M10.2148 16.7064C10.2148 16.9146 10.3059 17.0966 10.462 17.2267C10.6571 17.3828 10.9172 17.5779 11.2034 17.773V15.6399C10.9172 15.835 10.6571 16.0171 10.462 16.1862C10.3059 16.3032 10.2148 16.4983 10.2148 16.7064Z" fill="#194DBD"/>
<path d="M11.6714 15.3538V18.0462C12.4908 18.5145 13.5314 18.9307 14.6499 18.9307C15.7685 18.9307 16.8091 18.5145 17.6285 18.0462V15.3538C16.8091 14.8856 15.7685 14.4694 14.6499 14.4694C13.5314 14.4694 12.4908 14.8856 11.6714 15.3538ZM14.8841 16.0042V16.4724H15.4694V16.1732C15.4694 16.0432 15.5734 15.9391 15.7035 15.9391C15.8335 15.9391 15.9376 16.0432 15.9376 16.1732V16.4724H16.4839C16.614 16.4724 16.718 16.5765 16.718 16.7065C16.718 16.8366 16.614 16.9406 16.4839 16.9406H15.9376V17.2398C15.9376 17.3699 15.8335 17.4739 15.7035 17.4739C15.5734 17.4739 15.4694 17.3699 15.4694 17.2398V16.9406H14.8841V17.4089C14.8841 17.539 14.78 17.643 14.6499 17.643C14.5199 17.643 14.4158 17.539 14.4158 17.4089V16.9406H13.8305V17.2398C13.8305 17.3699 13.7265 17.4739 13.5964 17.4739C13.4663 17.4739 13.3623 17.3699 13.3623 17.2398V16.9406H12.816C12.6859 16.9406 12.5819 16.8366 12.5819 16.7065C12.5819 16.5765 12.6859 16.4724 12.816 16.4724H13.3623V16.1732C13.3623 16.0432 13.4663 15.9391 13.5964 15.9391C13.7265 15.9391 13.8305 16.0432 13.8305 16.1732V16.4724H14.4158V16.0042C14.4158 15.8741 14.5199 15.77 14.6499 15.77C14.78 15.77 14.8841 15.8741 14.8841 16.0042Z" fill="#194DBD"/>
<path d="M18.0967 15.6399V17.773C18.3828 17.5779 18.643 17.3958 18.8381 17.2267C18.9941 17.0966 19.0852 16.9015 19.0852 16.7064C19.0852 16.5113 18.9941 16.3162 18.8381 16.1862C18.63 16.0171 18.3828 15.835 18.0967 15.6399Z" fill="#194DBD"/>
<ellipse cx="14.3189" cy="42.4127" rx="9.24375" ry="1.8125" fill="url(#paint5_radial_140_853)" fill-opacity="0.6"/>
<defs>
<linearGradient id="paint0_linear_140_853" x1="-5.10031e-08" y1="7.98909" x2="22.0987" y2="32.6139" gradientUnits="userSpaceOnUse">
<stop stop-color="#194DBD"/>
<stop offset="1" stop-color="#1A7BB8"/>
</linearGradient>
<linearGradient id="paint1_linear_140_853" x1="0.363281" y1="8.15605" x2="21.932" y2="32.081" gradientUnits="userSpaceOnUse">
<stop stop-color="#194DBD"/>
<stop offset="1" stop-color="#1A4DBA"/>
</linearGradient>
<linearGradient id="paint2_linear_140_853" x1="26.5277" y1="19.562" x2="1.18487" y2="11.0499" gradientUnits="userSpaceOnUse">
<stop stop-color="#1D55CE"/>
<stop offset="1" stop-color="#1645AA"/>
</linearGradient>
<linearGradient id="paint3_linear_140_853" x1="25.7392" y1="19.2126" x2="1.99541" y2="11.2376" gradientUnits="userSpaceOnUse">
<stop stop-color="white"/>
<stop offset="1" stop-color="#999999"/>
</linearGradient>
<linearGradient id="paint4_linear_140_853" x1="4.89619" y1="10.332" x2="24.1087" y2="25.3757" gradientUnits="userSpaceOnUse">
<stop stop-color="white"/>
<stop offset="1" stop-color="#C7C7C7"/>
</linearGradient>
<radialGradient id="paint5_radial_140_853" cx="0" cy="0" r="1" gradientUnits="userSpaceOnUse" gradientTransform="translate(14.3189 42.4127) scale(9.24375 1.8125)">
<stop stop-opacity="0.8"/>
<stop offset="1" stop-color="#666666" stop-opacity="0"/>
</radialGradient>
</defs>
</svg>
