<svg width="52" height="65" viewBox="0 0 52 65" fill="none" xmlns="http://www.w3.org/2000/svg">
<path d="M25.89 0C28.57 0 31.16 0.41 33.59 1.16C34.81 1.54 35.98 2 37.12 2.55C37.87 2.91 38.61 3.31 39.32 3.75C39.5 3.86 39.67 3.97 39.85 4.08C40.03 4.19 40.2 4.31 40.37 4.42C40.71 4.65 41.05 4.89 41.39 5.14C41.56 5.26 41.72 5.39 41.88 5.52C42.04 5.65 42.2 5.78 42.36 5.91C42.68 6.17 42.99 6.45 43.3 6.72C43.6 7 43.9 7.28 44.19 7.57H44.2L44.21 7.59C45.82 9.2 47.21 11.02 48.35 13C48.77 13.72 49.15 14.47 49.49 15.23C49.58 15.42 49.66 15.61 49.74 15.81C51.05 18.91 51.78 22.31 51.78 25.89C51.78 28.41 51.42 30.84 50.75 33.15C45.94 50.53 25.89 64.73 25.89 64.73C25.89 64.73 5.86 50.54 1.04 33.17C0.360001 30.86 0 28.42 0 25.89C0 18.52 3.08 11.86 8.03 7.15C8.48 6.72 8.94 6.31 9.42 5.91C9.58 5.78 9.74 5.65 9.9 5.52C10.06 5.39 10.23 5.27 10.39 5.14C10.72 4.89 11.06 4.65 11.41 4.42C11.58 4.3 11.76 4.19 11.93 4.08C12.1 3.97 12.28 3.86 12.46 3.75C12.64 3.64 12.82 3.54 13 3.43C13.18 3.33 13.36 3.22 13.55 3.12C13.73 3.02 13.92 2.92 14.1 2.83C14.29 2.73 14.47 2.64 14.66 2.55C15.23 2.28 15.8 2.02 16.39 1.79C16.98 1.56 17.58 1.35 18.18 1.16C20.61 0.4 23.2 0 25.88 0" fill="#0095DA"/>
<path fill-rule="evenodd" clip-rule="evenodd" d="M25.0297 9.28967H18.6697C18.3597 15.6697 23.3097 14.5397 24.4797 12.7397C25.1797 11.6697 25.0797 10.6497 25.0297 9.28967ZM18.6697 8.00967L24.9597 8.06967C25.4297 5.43967 23.9997 5.36967 21.7697 5.36967C19.4197 5.36967 18.4597 5.45967 18.6697 8.00967ZM19.5597 16.1397C21.2597 17.1097 22.8897 17.5397 24.1697 15.8697L23.5397 14.9997C22.3297 15.5097 21.2997 15.3597 20.1397 15.0297L19.5697 16.1397H19.5597ZM16.5397 34.9197H21.2397C21.2397 34.2797 21.2397 33.6297 21.2397 32.9797C21.2397 32.1797 21.1097 31.5397 21.7997 31.4797C22.8897 31.3897 22.4797 33.9597 22.4797 34.9197H27.1197L26.6397 28.5197L17.1097 28.4597L16.5497 34.8997L16.5397 34.9197ZM14.9697 32.1997C15.4197 31.7397 15.6797 31.4497 15.5997 30.6297H13.5197C13.2597 31.8397 13.8197 32.2297 14.9697 32.1997ZM31.1297 27.9197C31.4197 28.5297 31.7297 29.2897 32.7097 28.9597C33.6697 28.6297 33.2597 27.6197 32.9897 26.8897L31.1297 27.9197ZM32.9097 30.5297V33.3597H35.8697V28.6797C33.8597 28.6497 35.1497 28.6097 33.3897 30.0097C32.8097 30.4697 33.2197 29.8997 32.9097 30.5297ZM22.4697 43.3597C23.6197 43.0697 24.5597 43.2497 25.4797 42.9897L26.0097 36.1397H22.4697V43.3597ZM18.2297 43.0397C19.3997 43.2297 20.0797 42.9797 21.1697 43.3697L21.2297 36.4097V36.1397H17.6897L18.2197 43.0397H18.2297ZM17.1697 45.5597L21.1297 45.6297C21.2097 44.5997 20.5697 44.3197 19.4897 44.3197H18.9197C17.7397 44.3197 17.1997 44.4997 17.1697 45.5597ZM22.5797 45.6297H26.4497C26.5397 44.5697 25.9097 44.3197 24.8097 44.3197H24.2397C23.1097 44.3197 22.4797 44.4997 22.5797 45.6297ZM16.7897 46.8497H26.9097C28.4297 45.7397 27.7397 44.4097 26.6997 43.4297C26.7097 42.7597 27.0597 36.7097 27.3197 36.2797C27.7097 35.6397 28.1897 35.9797 28.3197 34.8497C28.4697 33.5297 27.6397 28.4197 27.8197 25.2297C29.0497 26.3097 29.6997 28.8297 31.0997 29.9197C31.8297 30.4897 31.3797 29.8797 31.6797 30.5297V32.9997C31.5097 33.7297 30.7997 33.2797 29.9997 34.0297C29.0697 34.8997 29.2497 36.9497 29.2697 38.3397C29.2897 39.4297 29.3697 39.6797 30.3697 39.5297C30.6597 38.4797 30.2497 35.8797 30.7197 35.1297C31.2997 34.1997 33.6297 34.5797 34.8497 34.5797C38.8797 34.5797 38.2697 34.1797 38.2697 40.4097C38.2697 45.4897 39.2697 45.6397 34.2797 45.6397C32.9197 45.6397 30.9097 45.9797 30.5497 44.7097C30.2397 43.5997 31.1197 40.7397 29.4897 41.4997C29.0997 42.1897 29.1397 44.1497 29.3897 45.0897C29.7097 46.2997 30.2797 46.3297 31.1997 46.8597H37.6497C40.1497 45.4097 39.4897 44.2197 39.4897 39.6497C39.4897 37.6897 39.9397 34.7597 38.5697 33.8497C36.5797 32.5397 37.3297 35.1097 37.1197 29.1997C37.0597 27.6097 36.4397 27.4597 34.8697 27.4497C34.3197 27.2197 34.0097 26.3397 33.7197 25.8097C32.8197 24.1797 29.2197 17.5697 28.4997 16.7997C26.7997 14.9797 25.6897 15.8397 24.7897 14.5997C24.9397 13.9397 25.6697 13.4697 26.0397 12.3897C26.3897 11.3797 26.2597 10.3997 26.3197 9.30967L27.9197 9.21967C28.1597 7.88967 27.6197 8.07967 26.3797 8.07967C25.7497 4.76967 26.5697 5.63967 23.9597 4.15967H19.5897C16.9697 5.79967 17.7697 5.63967 17.3497 8.06967C16.4497 8.07967 16.3597 7.92967 15.7797 8.38967C15.6597 9.53967 16.3797 9.29967 17.4097 9.30967C17.4597 10.7197 17.2797 12.2797 18.3097 13.5197C18.8597 14.1897 18.8497 13.7397 18.9797 14.5997C18.8797 15.2697 17.5497 15.5497 16.5197 15.9697C15.4997 16.3797 14.7797 16.5497 14.0097 17.2597C13.2597 17.9597 12.8697 18.4797 12.7097 19.7497C12.6297 20.3697 12.3597 22.8897 12.9397 23.3197C14.3697 24.1597 13.5197 20.0497 14.3397 18.7197C15.0197 17.6097 17.0797 17.0597 18.3697 16.5497C21.0397 18.9197 22.7497 18.9097 25.3897 16.4797C26.8597 16.7997 27.3997 17.1397 27.9497 18.0997C28.6897 19.4097 31.8997 24.8797 32.2197 25.8397L30.5097 26.8297C30.0197 26.4297 29.2797 25.0097 28.8697 24.3797C27.6197 22.4297 27.9297 22.2197 26.5997 22.3497L26.4997 27.2497H17.1997C16.7597 24.0897 17.9897 22.0397 15.9597 22.3397L15.7897 29.3497L13.5097 29.3897C13.5297 25.8497 14.2997 25.1297 12.6197 25.2097C12.2397 26.1297 12.2197 29.4397 12.2097 30.7397C12.1897 32.8897 13.2697 33.6597 15.4397 33.3697C15.2797 35.3297 15.1197 35.2197 16.4697 36.2297L17.0097 43.4397C15.8897 44.4297 15.2797 45.7797 16.7997 46.8597L16.7897 46.8497Z" fill="white"/>
<path fill-rule="evenodd" clip-rule="evenodd" d="M32.55 37.17C32.55 38.77 32.29 42.79 32.85 43.55L33.45 43.57C34 42.74 33.75 38.75 33.75 37.17C33.75 35.59 32.54 35.7 32.54 37.17" fill="white"/>
<path fill-rule="evenodd" clip-rule="evenodd" d="M35.16 36.1496L35.02 37.1696L35.04 42.4896C35.04 43.9596 36.25 44.1496 36.25 42.4896V37.1796C36.25 36.3496 36 35.7996 35.16 36.1596" fill="white"/>
</svg>
