<svg width="29" height="45" viewBox="0 0 29 45" fill="none" xmlns="http://www.w3.org/2000/svg">
<path d="M21.478 14.3683C21.478 18.3345 18.2321 21.5522 14.2281 21.5522C10.2236 21.5522 6.97825 18.3345 6.97825 14.3683C6.97825 10.4009 10.2241 7.18427 14.2281 7.18427C18.2329 7.18399 21.478 10.4006 21.478 14.3683ZM29 14.3683C29 6.43274 22.5085 0 14.5 0C6.49204 0 0 6.43274 0 14.3683C0 17.8573 1.25628 21.0563 3.34392 23.5447L14.5125 39.5125L25.8445 23.3118C26.2515 22.8071 26.6242 22.2751 26.9605 21.7159L27.0751 21.5531H27.0563C28.2903 19.4384 29 16.9866 29 14.3683Z" fill="url(#paint0_linear_140_1453)"/>
<path d="M21.2208 14.3792C21.2208 18.2485 18.0687 21.3876 14.1804 21.3876C10.2915 21.3876 7.13996 18.2485 7.13996 14.3792C7.13996 10.5089 10.2921 7.37091 14.1804 7.37091C18.0695 7.37064 21.2208 10.5086 21.2208 14.3792ZM28.5256 14.3792C28.5256 6.63775 22.2216 0.362305 14.4444 0.362305C6.66779 0.362305 0.363281 6.63775 0.363281 14.3792C0.363281 17.7829 1.58328 20.9038 3.61061 23.3313L14.4566 38.9087L25.4612 23.1041C25.8564 22.6117 26.2184 22.0928 26.545 21.5473L26.6563 21.3884H26.638C27.8364 19.3254 28.5256 16.9335 28.5256 14.3792Z" fill="url(#paint1_linear_140_1453)"/>
<circle cx="14.5016" cy="14.5003" r="11.9625" fill="url(#paint2_linear_140_1453)"/>
<circle cx="14.4719" cy="14.4703" r="11.2077" fill="url(#paint3_linear_140_1453)"/>
<circle cx="14.5024" cy="14.5007" r="10.875" fill="url(#paint4_linear_140_1453)"/>
<path d="M14.6389 10.4341C14.4096 10.4341 14.2231 10.6207 14.2231 10.8501C14.2231 11.0796 14.4096 11.2662 14.6389 11.2662C14.8681 11.2662 15.0546 11.0796 15.0546 10.8501C15.0546 10.6207 14.8681 10.4341 14.6389 10.4341Z" fill="#7000D8"/>
<path d="M14.6419 8.87537C14.5643 9.22735 14.4842 9.57871 14.395 9.94452C14.5539 9.88861 14.7265 9.88891 14.8851 9.94545C14.8851 9.94545 14.7137 9.20805 14.6419 8.87537Z" fill="#7000D8"/>
<path d="M18.4695 20.5626C17.0359 17.7652 15.7823 14.8237 14.9546 11.7866C14.7549 11.8549 14.5231 11.8547 14.3235 11.7863C13.9165 13.2348 13.4306 14.6738 12.8765 16.0715L13.1949 16.7566H13.856C14.1349 16.7566 14.3764 16.9204 14.4893 17.1569C15.9995 17.0641 17.2973 18.2912 17.2921 19.8071C17.2921 20.0665 17.2556 20.3193 17.1834 20.5626H18.4695V20.5626ZM14.237 13.0654H15.0475V13.6371H14.237V13.0654ZM13.933 14.367H15.3515V14.9387H13.933V14.367ZM15.6554 16.2403H13.629V15.6686H15.6554V16.2403Z" fill="#7000D8"/>
<path d="M11.5737 18.2485C11.1669 18.2485 10.8359 18.58 10.8359 18.9874C10.8359 19.3948 11.1669 19.7262 11.5737 19.7262C11.9805 19.7262 12.3114 19.3948 12.3114 18.9874C12.3114 18.58 11.9805 18.2485 11.5737 18.2485Z" fill="#7000D8"/>
<path d="M13.8556 17.3284H13.0122C12.9011 17.3284 12.8001 17.264 12.7532 17.1631L12.4048 16.4135H10.7429L10.3945 17.1631C10.3476 17.264 10.2466 17.3284 10.1354 17.3284H9.29209C9.22042 17.3284 9.16211 17.3868 9.16211 17.4585V20.4639C9.16211 20.5357 9.22042 20.594 9.29209 20.594H13.8556C13.9273 20.594 13.9856 20.5357 13.9856 20.4639V17.4585C13.9856 17.3868 13.9272 17.3284 13.8556 17.3284ZM11.5738 20.2977C10.852 20.2977 10.2647 19.7099 10.2647 18.9873C10.2647 18.2647 10.852 17.6768 11.5738 17.6768C12.2957 17.6768 12.883 18.2647 12.883 18.9873C12.883 19.7099 12.2957 20.2977 11.5738 20.2977ZM13.6072 18.3128H12.9878V17.7411H13.6072V18.3128Z" fill="#7000D8"/>
<path d="M18.4337 10.7949C18.1606 10.7949 17.9385 11.0215 17.9385 11.2999C17.9385 11.5784 18.1606 11.8049 18.4337 11.8049C18.7067 11.8049 18.9289 11.5784 18.9289 11.2999C18.9289 11.0215 18.7067 10.7949 18.4337 10.7949Z" fill="#7000D8"/>
<path d="M18.4335 9.34277C17.3436 9.34277 16.46 10.2434 16.46 11.3544C16.46 12.9373 18.4335 14.3554 18.4335 14.3554C18.4335 14.3554 20.4071 13.0033 20.4071 11.3544C20.4071 10.2434 19.5235 9.34277 18.4335 9.34277ZM18.4335 12.3765C17.8454 12.3765 17.367 11.8935 17.367 11.2998C17.367 10.7061 17.8454 10.2231 18.4335 10.2231C19.0216 10.2231 19.5001 10.7061 19.5001 11.2998C19.5001 11.8935 19.0216 12.3765 18.4335 12.3765Z" fill="#7000D8"/>
<path d="M11.727 11.3462C12.0071 10.7585 11.5426 10.0275 10.8867 10.0431C10.3794 10.0431 9.96794 10.4537 9.96503 10.9613C9.38221 10.9462 8.87549 11.4157 8.87549 12.0275C8.87549 12.6164 9.352 13.0939 9.93981 13.0939H11.6356C12.1167 13.0939 12.5068 12.7031 12.5068 12.221C12.5103 11.4047 11.727 11.3462 11.727 11.3462Z" fill="#7000D8"/>
<ellipse cx="14.3189" cy="42.4127" rx="9.24375" ry="1.8125" fill="url(#paint5_radial_140_1453)" fill-opacity="0.6"/>
<defs>
<linearGradient id="paint0_linear_140_1453" x1="-5.10031e-08" y1="7.98909" x2="22.0987" y2="32.6139" gradientUnits="userSpaceOnUse">
<stop stop-color="#7000D8"/>
<stop offset="1" stop-color="#6701C6"/>
</linearGradient>
<linearGradient id="paint1_linear_140_1453" x1="0.363281" y1="8.15605" x2="21.932" y2="32.081" gradientUnits="userSpaceOnUse">
<stop stop-color="#7000D8"/>
<stop offset="1" stop-color="#6500C3"/>
</linearGradient>
<linearGradient id="paint2_linear_140_1453" x1="26.5277" y1="19.562" x2="1.18487" y2="11.0499" gradientUnits="userSpaceOnUse">
<stop stop-color="#7000D8"/>
<stop offset="1" stop-color="#6D08CB"/>
</linearGradient>
<linearGradient id="paint3_linear_140_1453" x1="25.7392" y1="19.2126" x2="1.99541" y2="11.2376" gradientUnits="userSpaceOnUse">
<stop stop-color="white"/>
<stop offset="1" stop-color="#999999"/>
</linearGradient>
<linearGradient id="paint4_linear_140_1453" x1="4.89619" y1="10.332" x2="24.1087" y2="25.3757" gradientUnits="userSpaceOnUse">
<stop stop-color="white"/>
<stop offset="1" stop-color="#C7C7C7"/>
</linearGradient>
<radialGradient id="paint5_radial_140_1453" cx="0" cy="0" r="1" gradientUnits="userSpaceOnUse" gradientTransform="translate(14.3189 42.4127) scale(9.24375 1.8125)">
<stop/>
<stop offset="1" stop-color="#666666" stop-opacity="0"/>
</radialGradient>
</defs>
</svg>
