<svg width="29" height="45" viewBox="0 0 29 45" fill="none" xmlns="http://www.w3.org/2000/svg">
<path d="M21.478 14.3683C21.478 18.3345 18.2321 21.5522 14.2281 21.5522C10.2236 21.5522 6.97825 18.3345 6.97825 14.3683C6.97825 10.4009 10.2241 7.18427 14.2281 7.18427C18.2329 7.18399 21.478 10.4006 21.478 14.3683ZM29 14.3683C29 6.43274 22.5085 0 14.5 0C6.49204 0 0 6.43274 0 14.3683C0 17.8573 1.25628 21.0563 3.34392 23.5447L14.5125 39.5125L25.8445 23.3118C26.2515 22.8071 26.6242 22.2751 26.9605 21.7159L27.0751 21.5531H27.0563C28.2903 19.4384 29 16.9866 29 14.3683Z" fill="#0095DA"/>
<path d="M21.2208 14.3792C21.2208 18.2485 18.0687 21.3876 14.1804 21.3876C10.2915 21.3876 7.13996 18.2485 7.13996 14.3792C7.13996 10.5089 10.2921 7.37091 14.1804 7.37091C18.0695 7.37064 21.2208 10.5086 21.2208 14.3792ZM28.5256 14.3792C28.5256 6.63775 22.2216 0.362305 14.4444 0.362305C6.66779 0.362305 0.363281 6.63775 0.363281 14.3792C0.363281 17.7829 1.58328 20.9038 3.61061 23.3313L14.4566 38.9087L25.4612 23.1041C25.8564 22.6117 26.2184 22.0928 26.545 21.5473L26.6563 21.3884H26.638C27.8364 19.3254 28.5256 16.9335 28.5256 14.3792Z" fill="#0095DA"/>
<circle cx="14.5016" cy="14.5001" r="11.9625" fill="#0095DA"/>
<circle cx="14.4719" cy="14.4699" r="11.2077" fill="url(#paint0_linear_1206_3652)"/>
<circle cx="14.5024" cy="14.5005" r="10.875" fill="url(#paint1_linear_1206_3652)"/>
<ellipse cx="14.3189" cy="42.4126" rx="9.24375" ry="1.8125" fill="url(#paint2_radial_1206_3652)" fill-opacity="0.6"/>
<path fill-rule="evenodd" clip-rule="evenodd" d="M14.2173 9.68756H12.1252C12.0232 11.7863 13.6515 11.4146 14.0364 10.8225C14.2667 10.4705 14.2338 10.1349 14.2173 9.68756ZM12.1252 9.26649L14.1943 9.28623C14.3489 8.42107 13.8785 8.39804 13.1449 8.39804C12.3719 8.39804 12.0561 8.42765 12.1252 9.26649ZM12.4179 11.9409C12.9772 12.26 13.5134 12.4015 13.9344 11.8521L13.7272 11.5659C13.3291 11.7337 12.9903 11.6843 12.6087 11.5758L12.4212 11.9409H12.4179ZM11.4245 18.1188H12.9706C12.9706 17.9082 12.9706 17.6944 12.9706 17.4806C12.9706 17.2174 12.9278 17.0069 13.1548 16.9871C13.5134 16.9575 13.3785 17.803 13.3785 18.1188H14.9049L14.747 16.0134L11.612 15.9937L11.4278 18.1122L11.4245 18.1188ZM10.908 17.224C11.056 17.0727 11.1416 16.9773 11.1153 16.7075H10.431C10.3455 17.1056 10.5297 17.2339 10.908 17.224ZM16.224 15.8161C16.3194 16.0167 16.4214 16.2667 16.7437 16.1582C17.0595 16.0496 16.9247 15.7174 16.8358 15.4772L16.224 15.8161ZM16.8095 16.6746V17.6056H17.7832V16.0661C17.122 16.0562 17.5464 16.043 16.9674 16.5036C16.7766 16.6549 16.9115 16.4674 16.8095 16.6746ZM13.3752 20.8952C13.7535 20.7998 14.0627 20.859 14.3654 20.7735L14.5397 18.5201H13.3752V20.8952ZM11.9804 20.7899C12.3653 20.8524 12.589 20.7702 12.9476 20.8985L12.9673 18.6089V18.5201H11.8028L11.9771 20.7899H11.9804ZM11.6317 21.6189L12.9344 21.6419C12.9607 21.3031 12.7502 21.211 12.3949 21.211H12.2074C11.8192 21.211 11.6416 21.2702 11.6317 21.6189ZM13.4114 21.6419H14.6845C14.7141 21.2932 14.5068 21.211 14.145 21.211H13.9575C13.5857 21.211 13.3785 21.2702 13.4114 21.6419ZM11.5067 22.0432H14.8358C15.3358 21.6781 15.1088 21.2406 14.7667 20.9182C14.77 20.6978 14.8851 18.7076 14.9707 18.5661C15.0989 18.3556 15.2568 18.4675 15.2996 18.0957C15.349 17.6615 15.0759 15.9805 15.1351 14.9312C15.5397 15.2864 15.7536 16.1154 16.2141 16.474C16.4543 16.6615 16.3062 16.4608 16.4049 16.6746V17.4872C16.349 17.7273 16.1154 17.5793 15.8523 17.826C15.5463 18.1122 15.6055 18.7865 15.6121 19.2438C15.6187 19.6024 15.645 19.6846 15.974 19.6353C16.0694 19.2899 15.9345 18.4346 16.0891 18.1878C16.2799 17.8819 17.0464 18.0069 17.4477 18.0069C18.7734 18.0069 18.5727 17.8753 18.5727 19.9247C18.5727 21.5959 18.9017 21.6452 17.2602 21.6452C16.8128 21.6452 16.1516 21.757 16.0332 21.3393C15.9312 20.9741 16.2207 20.0333 15.6845 20.2833C15.5562 20.5103 15.5694 21.155 15.6516 21.4643C15.7569 21.8623 15.9444 21.8722 16.247 22.0465H18.3688C19.1912 21.5695 18.9741 21.1781 18.9741 19.6747C18.9741 19.03 19.1221 18.0661 18.6714 17.7668C18.0168 17.3358 18.2635 18.1813 18.1944 16.2371C18.1747 15.7141 17.9708 15.6647 17.4543 15.6614C17.2734 15.5858 17.1714 15.2963 17.076 15.122C16.7799 14.5857 15.5957 12.4113 15.3588 12.158C14.7996 11.5593 14.4344 11.8422 14.1384 11.4343C14.1877 11.2172 14.4279 11.0626 14.5496 10.7073C14.6647 10.3751 14.622 10.0527 14.6417 9.69414L15.168 9.66453C15.247 9.22702 15.0693 9.28952 14.6614 9.28952C14.4542 8.20066 14.7239 8.48686 13.8654 8H12.4278C11.5659 8.53949 11.8291 8.48686 11.6909 9.28623C11.3949 9.28952 11.3653 9.24017 11.1745 9.39149C11.135 9.7698 11.3718 9.69085 11.7107 9.69414C11.7271 10.158 11.6679 10.6711 12.0067 11.0791C12.1877 11.2995 12.1844 11.1514 12.2271 11.4343C12.1942 11.6547 11.7567 11.7468 11.4179 11.885C11.0824 12.0199 10.8455 12.0758 10.5922 12.3094C10.3455 12.5396 10.2172 12.7107 10.1646 13.1285C10.1383 13.3324 10.0494 14.1614 10.2402 14.3028C10.7106 14.5792 10.431 13.2271 10.7008 12.7896C10.9245 12.4245 11.6021 12.2436 12.0265 12.0758C12.9048 12.8554 13.4673 12.8521 14.3358 12.0528C14.8193 12.158 14.997 12.2699 15.1779 12.5857C15.4213 13.0166 16.4773 14.816 16.5825 15.1318L16.02 15.4575C15.8588 15.3259 15.6154 14.8588 15.4805 14.6515C15.0693 14.0101 15.1713 13.941 14.7338 13.9838L14.7009 15.5957H11.6416C11.4969 14.5561 11.9015 13.8818 11.2337 13.9805L11.1778 16.2865L10.4277 16.2996C10.4343 15.1351 10.6876 14.8983 10.135 14.9246C10.01 15.2272 10.0034 16.3161 10.0001 16.7437C9.99351 17.451 10.3488 17.7043 11.0626 17.6089C11.01 18.2536 10.9574 18.2175 11.4015 18.5497L11.5791 20.9215C11.2107 21.2472 11.01 21.6913 11.51 22.0465L11.5067 22.0432Z" fill="#0095DA"/>
<defs>
<linearGradient id="paint0_linear_1206_3652" x1="25.7392" y1="19.2122" x2="1.99541" y2="11.2372" gradientUnits="userSpaceOnUse">
<stop stop-color="white"/>
<stop offset="1" stop-color="#999999"/>
</linearGradient>
<linearGradient id="paint1_linear_1206_3652" x1="4.89619" y1="10.3317" x2="24.1087" y2="25.3755" gradientUnits="userSpaceOnUse">
<stop stop-color="white"/>
<stop offset="1" stop-color="#C7C7C7"/>
</linearGradient>
<radialGradient id="paint2_radial_1206_3652" cx="0" cy="0" r="1" gradientUnits="userSpaceOnUse" gradientTransform="translate(14.3189 42.4126) scale(9.24375 1.8125)">
<stop/>
<stop offset="1" stop-color="#666666" stop-opacity="0"/>
</radialGradient>
</defs>
</svg>
