<svg width="29" height="45" viewBox="0 0 29 45" fill="none" xmlns="http://www.w3.org/2000/svg">
<path d="M21.478 14.3683C21.478 18.3345 18.2321 21.5522 14.2281 21.5522C10.2236 21.5522 6.97825 18.3345 6.97825 14.3683C6.97825 10.4009 10.2241 7.18427 14.2281 7.18427C18.2329 7.18399 21.478 10.4006 21.478 14.3683ZM29 14.3683C29 6.43274 22.5085 0 14.5 0C6.49204 0 0 6.43274 0 14.3683C0 17.8573 1.25628 21.0563 3.34392 23.5447L14.5125 39.5125L25.8445 23.3118C26.2515 22.8071 26.6242 22.2751 26.9605 21.7159L27.0751 21.5531H27.0563C28.2903 19.4384 29 16.9866 29 14.3683Z" fill="#818385"/>
<path d="M21.2208 14.3792C21.2208 18.2485 18.0687 21.3876 14.1804 21.3876C10.2915 21.3876 7.13996 18.2485 7.13996 14.3792C7.13996 10.5089 10.2921 7.37091 14.1804 7.37091C18.0695 7.37064 21.2208 10.5086 21.2208 14.3792ZM28.5256 14.3792C28.5256 6.63775 22.2216 0.362305 14.4444 0.362305C6.66779 0.362305 0.363281 6.63775 0.363281 14.3792C0.363281 17.7829 1.58328 20.9038 3.61061 23.3313L14.4566 38.9087L25.4612 23.1041C25.8564 22.6117 26.2184 22.0928 26.545 21.5473L26.6563 21.3884H26.638C27.8364 19.3254 28.5256 16.9335 28.5256 14.3792Z" fill="#818385"/>
<circle cx="14.5016" cy="14.5001" r="11.9625" fill="#818385"/>
<circle cx="14.4719" cy="14.4699" r="11.2077" fill="url(#paint0_linear_1207_3957)"/>
<circle cx="14.5024" cy="14.5005" r="10.875" fill="url(#paint1_linear_1207_3957)"/>
<ellipse cx="14.3189" cy="42.4126" rx="9.24375" ry="1.8125" fill="url(#paint2_radial_1207_3957)" fill-opacity="0.6"/>
<path d="M20.9517 15.6284H16.0945C15.9156 15.6297 15.771 15.7749 15.771 15.9545V16.0239H21.2759V15.9545C21.2759 15.7755 21.1307 15.6297 20.9524 15.6284H20.9517Z" fill="#818385"/>
<path d="M16.6578 21.3513C16.824 21.3513 16.9597 21.2163 16.9597 21.0494C16.9597 20.8832 16.8247 20.7476 16.6578 20.7476C16.4916 20.7476 16.356 20.8826 16.356 21.0494C16.356 21.2156 16.491 21.3513 16.6578 21.3513Z" fill="#818385"/>
<path d="M15.771 21.8547H16.1977V22.4024C16.1977 22.4922 16.271 22.5654 16.3607 22.5654H16.7397C16.8295 22.5654 16.9027 22.4922 16.9027 22.4024V21.8547H20.1442V22.4024C20.1442 22.4922 20.2175 22.5654 20.3073 22.5654H20.6862C20.776 22.5654 20.8492 22.4922 20.8492 22.4024V21.8547H21.2759V19.7633L15.771 19.7627L15.771 21.8547ZM20.3887 20.4224C20.7345 20.4224 21.0167 20.7039 21.0167 21.0504C21.0167 21.3962 20.7352 21.6783 20.3887 21.6783C20.0429 21.6783 19.7608 21.3968 19.7608 21.0504C19.7608 20.7046 20.0423 20.4224 20.3887 20.4224ZM18.1655 20.5441H18.8819C19.1608 20.5441 19.3876 20.7708 19.3876 21.0497C19.3876 21.3287 19.1609 21.5554 18.8819 21.5554H18.1655C17.8865 21.5554 17.6598 21.3287 17.6598 21.0497C17.6598 20.7708 17.8865 20.5441 18.1655 20.5441ZM16.6581 20.4224C17.0039 20.4224 17.286 20.7039 17.286 21.0504C17.286 21.3962 17.0045 21.6783 16.6581 21.6783C16.3123 21.6783 16.0301 21.3968 16.0301 21.0504C16.0301 20.7046 16.3116 20.4224 16.6581 20.4224Z" fill="#818385"/>
<path d="M15.771 16.4407V19.4371H21.2759V16.3496H15.771V16.4407Z" fill="#818385"/>
<path d="M9.614 12.794C9.614 13.2009 9.00391 13.2009 9.00391 12.794C9.00391 12.387 9.614 12.387 9.614 12.794Z" fill="#818385"/>
<path d="M21.6016 16.6304V17.9837H21.6449C21.7716 17.9837 21.8748 17.8805 21.8748 17.7538V17.0252C21.8748 16.845 21.7608 16.6903 21.6016 16.6304Z" fill="#818385"/>
<path d="M18.1649 21.2293H18.8814C18.9807 21.2293 19.061 21.1484 19.061 21.0497C19.061 20.9504 18.9801 20.8701 18.8814 20.8701H18.1649C18.0656 20.8701 17.9854 20.951 17.9854 21.0497C17.9854 21.1491 18.0662 21.2293 18.1649 21.2293Z" fill="#818385"/>
<path d="M15.1719 17.0256V17.7541C15.1719 17.8809 15.275 17.984 15.4018 17.984H15.4451V16.6333C15.2827 16.6951 15.1719 16.8479 15.1719 17.0256Z" fill="#818385"/>
<path d="M20.3883 21.3513C20.5545 21.3513 20.6902 21.2163 20.6902 21.0494C20.6902 20.8832 20.5552 20.7476 20.3883 20.7476C20.2221 20.7476 20.0864 20.8826 20.0864 21.0494C20.0864 21.2156 20.2214 21.3513 20.3883 21.3513Z" fill="#818385"/>
<path d="M9.05566 9.5376H12.4749V11.0291H9.05566V9.5376Z" fill="#818385"/>
<path d="M16.605 13.7696H17.8519V11.9463C17.438 11.7584 17.0272 11.5533 16.605 11.3247V13.7696Z" fill="#818385"/>
<path d="M14.4358 10.0185L14.4199 10.0083V13.7701H15.6898L15.6892 10.8018C15.2969 10.5668 14.9364 10.3375 14.6263 10.1395C14.5626 10.1 14.4983 10.0586 14.4352 10.0185L14.4358 10.0185Z" fill="#818385"/>
<path d="M18.7666 13.7695H19.7142V12.6716C19.3932 12.5652 19.0761 12.4506 18.7666 12.3296V13.7695Z" fill="#818385"/>
<path d="M17.9447 11.1006C17.7581 11.0134 17.5613 10.9159 17.3435 10.8032C16.715 10.4803 16.1705 10.1511 15.7654 9.90018C15.7629 9.89954 15.747 9.88935 15.731 9.87916C15.5018 9.73651 15.2776 9.59449 15.0611 9.45629C14.0485 8.81181 13.211 8.27813 12.2896 8.08008L12.6162 8.40614H12.9601C12.9958 8.40614 13.027 8.40869 13.0569 8.41506C13.0582 8.41506 13.0595 8.41506 13.0601 8.41569C13.0875 8.41824 13.1136 8.42397 13.1429 8.43353C13.1601 8.43735 13.1767 8.44244 13.1932 8.45008C13.2206 8.45964 13.2461 8.47174 13.2697 8.48511C13.2932 8.49785 13.3149 8.51122 13.3359 8.52778C13.3531 8.53924 13.369 8.55134 13.3836 8.56471C13.4008 8.57809 13.4161 8.59337 13.4301 8.61057C13.4314 8.6112 13.4333 8.61311 13.4359 8.61566C13.4575 8.63668 13.4728 8.65833 13.4843 8.67552C13.4957 8.68826 13.5148 8.71692 13.5308 8.74685C13.532 8.7494 13.5339 8.75258 13.5346 8.75513C13.5352 8.75577 13.5352 8.75704 13.5359 8.75768C13.5473 8.78124 13.5581 8.80671 13.5677 8.83282C13.569 8.83537 13.5696 8.83856 13.5709 8.8411C13.5709 8.84174 13.5715 8.84238 13.5715 8.84365C13.5779 8.86148 13.583 8.87804 13.5874 8.89587L13.5919 8.91434C13.5944 8.92262 13.5976 8.93854 13.5989 8.94745L13.604 8.9863C13.6065 9.01177 13.6085 9.03534 13.6085 9.05635V13.7371C13.6085 13.7773 13.5938 13.8142 13.5696 13.8422L13.1436 14.5803H22.0001V12.4583C20.5341 12.1399 19.2055 11.696 17.9434 11.1012L17.9447 11.1006ZM16.0151 13.9326C16.0151 14.0224 15.9418 14.0957 15.852 14.0957H14.2561C14.1663 14.0957 14.0931 14.0224 14.0931 13.9326V9.7116C14.0931 9.65301 14.1249 9.59888 14.1759 9.56958C14.2268 9.54093 14.2899 9.54156 14.3402 9.57149C14.3733 9.59124 14.4064 9.61289 14.4389 9.6339C14.4956 9.66957 14.5522 9.70523 14.6102 9.74217C14.6726 9.78165 14.7356 9.82241 14.8006 9.86253C15.1305 10.074 15.5164 10.3191 15.9355 10.5681C15.9851 10.5974 16.0151 10.6509 16.0151 10.7083L16.0151 13.9326ZM18.1778 13.9326C18.1778 14.0224 18.1046 14.0957 18.0148 14.0957H16.4418C16.352 14.0957 16.2788 14.0224 16.2788 13.9326L16.2781 11.0502C16.2781 10.9923 16.3087 10.9388 16.3584 10.9095C16.4081 10.8802 16.4698 10.8796 16.5201 10.9076C17.0532 11.2044 17.5639 11.461 18.081 11.6928C18.1396 11.7189 18.1772 11.7775 18.1772 11.8418V13.9332L18.1778 13.9326ZM20.0406 13.9326C20.0406 14.0224 19.9674 14.0957 19.8776 14.0957H18.6039C18.5141 14.0957 18.4409 14.0224 18.4409 13.9326V12.0889C18.4409 12.0348 18.4676 11.9838 18.5129 11.9539C18.5574 11.9233 18.6154 11.9176 18.6651 11.938C19.0733 12.1036 19.498 12.259 19.9279 12.3984C19.9948 12.4201 20.0406 12.4831 20.0406 12.5532L20.0406 13.9326ZM21.5181 13.9326C21.5181 14.0224 21.4449 14.0957 21.3551 14.0957H20.431C20.3412 14.0957 20.268 14.0224 20.268 13.9326V12.7252C20.268 12.6743 20.2922 12.6259 20.3329 12.5946C20.3737 12.5641 20.4266 12.5539 20.4762 12.5685C20.8074 12.6634 21.1042 12.7424 21.3837 12.8093C21.3895 12.8105 21.3952 12.8125 21.4009 12.8144C21.4691 12.8341 21.5187 12.8965 21.5187 12.971V13.9326L21.5181 13.9326Z" fill="#818385"/>
<path d="M9.67749 14.5792V13.9563C9.67749 13.8665 9.75072 13.7933 9.84052 13.7933C9.93031 13.7933 10.0035 13.8665 10.0035 13.9563V14.5792H10.6022V13.9563C10.6022 13.8665 10.6754 13.7933 10.7652 13.7933C10.855 13.7933 10.9282 13.8665 10.9282 13.9563V14.5792H11.5269V13.9563C11.5269 13.8665 11.6001 13.7933 11.6899 13.7933C11.7797 13.7933 11.8529 13.8665 11.8529 13.9563V14.5792H12.7687L13.2839 13.6863L13.2846 9.0546C13.2846 9.04377 13.2833 9.03103 13.282 9.02021L13.2763 8.98582C13.2712 8.96544 13.2693 8.95971 13.2667 8.9527C13.2661 8.95015 13.2648 8.94824 13.2642 8.9457C13.2585 8.93041 13.2527 8.91577 13.2464 8.90239C13.2457 8.90112 13.2451 8.89985 13.2445 8.89793C13.2387 8.88711 13.2317 8.87692 13.2241 8.86737L13.2304 8.85972C13.2279 8.85017 13.2266 8.84062 13.226 8.83107L13.2081 8.84635C13.1999 8.83935 13.1941 8.83234 13.1878 8.8247C13.1839 8.82088 13.1795 8.81515 13.1776 8.81324C13.1718 8.81005 13.1464 8.79031 13.1413 8.78649C13.133 8.77948 13.1241 8.77503 13.1152 8.76993C13.1063 8.76547 13.0973 8.75974 13.0865 8.75656C13.0801 8.75465 13.0738 8.7521 13.068 8.74955C13.0598 8.74764 13.0515 8.74573 13.0438 8.74255C13.0349 8.74191 13.0235 8.73936 13.012 8.73682C13.0069 8.73618 13.0024 8.73554 12.9974 8.73427C12.9884 8.73236 12.977 8.73172 12.9617 8.73172H12.5509C12.5083 8.73172 12.4669 8.71453 12.4363 8.68459L11.7982 8.04776C11.7835 8.03311 11.767 8.02293 11.7491 8.01465C11.7434 8.0121 11.737 8.01146 11.7313 8.00955C11.716 8.00509 11.7014 8.00064 11.6848 8H11.6797H9.84824C9.80621 8 9.76545 8.01719 9.73679 8.04649L9.0974 8.68397C9.06683 8.71454 9.02543 8.73174 8.98213 8.73174H8.56947C8.39179 8.73174 8.24658 8.8763 8.24658 9.05462V13.6863L8.76179 14.5792L9.67749 14.5792ZM12.2216 13.4252C11.8732 13.4252 11.5905 13.1418 11.5905 12.7941C11.5905 12.4458 11.8739 12.163 12.2216 12.163C12.5699 12.163 12.8527 12.4464 12.8527 12.7941C12.8527 13.1425 12.5693 13.4252 12.2216 13.4252ZM8.72979 9.37487C8.72979 9.28508 8.80302 9.21184 8.89282 9.21184H12.6381C12.7279 9.21184 12.8012 9.28508 12.8012 9.37487V11.1923C12.8012 11.2821 12.7279 11.3554 12.6381 11.3554H8.89282C8.80302 11.3554 8.72979 11.2821 8.72979 11.1923V9.37487ZM9.30868 12.163C9.65703 12.163 9.93979 12.4464 9.93979 12.7941C9.93979 13.1425 9.65639 13.4253 9.30868 13.4253C8.96033 13.4253 8.67757 13.1419 8.67757 12.7941C8.67757 12.4458 8.96096 12.163 9.30868 12.163Z" fill="#818385"/>
<path d="M20.5947 13.7696H21.1927V13.0984C21.0036 13.0519 20.8055 12.9997 20.5947 12.9404V13.7696Z" fill="#818385"/>
<path d="M12.5282 12.794C12.5282 13.2009 11.9175 13.2009 11.9175 12.794C11.9175 12.387 12.5282 12.387 12.5282 12.794Z" fill="#818385"/>
<path d="M11.8348 15.3022H9.81098C9.72119 15.3022 9.64795 15.3755 9.64795 15.4653C9.64795 15.5551 9.72119 15.6283 9.81098 15.6283H11.8348C11.9246 15.6283 11.9979 15.5551 11.9979 15.4653C11.9979 15.3755 11.9246 15.3022 11.8348 15.3022Z" fill="#818385"/>
<path d="M12.3047 16.4839H9.34272C9.25292 16.4839 9.17969 16.5571 9.17969 16.6469C9.17969 16.7367 9.25292 16.8099 9.34272 16.8099H12.3047C12.3945 16.8099 12.4677 16.7367 12.4677 16.6469C12.4677 16.5571 12.3945 16.4839 12.3047 16.4839Z" fill="#818385"/>
<path d="M8.71289 17.8281C8.71289 17.9179 8.78613 17.9911 8.87592 17.9911H12.7727C12.8625 17.9911 12.9357 17.9179 12.9357 17.8281C12.9357 17.7383 12.8625 17.665 12.7727 17.665H8.87592C8.78613 17.665 8.71289 17.7383 8.71289 17.8281Z" fill="#818385"/>
<path d="M13.3364 18.8467H8.31049C8.2207 18.8467 8.14746 18.9199 8.14746 19.0097C8.14746 19.0995 8.2207 19.1727 8.31049 19.1727H13.3364C13.4262 19.1727 13.4994 19.0995 13.4994 19.0097C13.4994 18.9199 13.4262 18.8467 13.3364 18.8467Z" fill="#818385"/>
<path d="M13.3325 8.74072L13.2363 8.82351H13.2624L13.3325 8.74072Z" fill="#818385"/>
<path d="M12.56 14.9053H12.2002L14.2203 19.2364C14.2477 19.2956 14.3069 19.3306 14.3681 19.3306C14.391 19.3306 14.4146 19.3255 14.4368 19.3153C14.5184 19.2771 14.554 19.1803 14.5158 19.0988L12.5601 14.9058L12.56 14.9053Z" fill="#818385"/>
<path d="M8.97042 14.9053L7.01535 19.0983C6.97714 19.1798 7.0128 19.2773 7.09432 19.3148C7.1166 19.325 7.14017 19.3301 7.16309 19.3301C7.22423 19.3301 7.28346 19.2951 7.31084 19.2359L9.33096 14.9048H8.97115L8.97042 14.9053Z" fill="#818385"/>
<defs>
<linearGradient id="paint0_linear_1207_3957" x1="25.7392" y1="19.2122" x2="1.99541" y2="11.2372" gradientUnits="userSpaceOnUse">
<stop stop-color="white"/>
<stop offset="1" stop-color="#999999"/>
</linearGradient>
<linearGradient id="paint1_linear_1207_3957" x1="4.89619" y1="10.3317" x2="24.1087" y2="25.3755" gradientUnits="userSpaceOnUse">
<stop stop-color="white"/>
<stop offset="1" stop-color="#C7C7C7"/>
</linearGradient>
<radialGradient id="paint2_radial_1207_3957" cx="0" cy="0" r="1" gradientUnits="userSpaceOnUse" gradientTransform="translate(14.3189 42.4126) scale(9.24375 1.8125)">
<stop/>
<stop offset="1" stop-color="#666666" stop-opacity="0"/>
</radialGradient>
</defs>
</svg>
