<svg width="29" height="45" viewBox="0 0 29 45" fill="none" xmlns="http://www.w3.org/2000/svg">
<path d="M21.478 14.3683C21.478 18.3345 18.2321 21.5522 14.2281 21.5522C10.2236 21.5522 6.97825 18.3345 6.97825 14.3683C6.97825 10.4009 10.2241 7.18427 14.2281 7.18427C18.2329 7.18399 21.478 10.4006 21.478 14.3683ZM29 14.3683C29 6.43274 22.5085 0 14.5 0C6.49204 0 0 6.43274 0 14.3683C0 17.8573 1.25628 21.0563 3.34392 23.5447L14.5125 39.5125L25.8445 23.3118C26.2515 22.8071 26.6242 22.2751 26.9605 21.7159L27.0751 21.5531H27.0563C28.2903 19.4384 29 16.9866 29 14.3683Z" fill="url(#paint0_linear_140_1298)"/>
<path d="M21.2208 14.3792C21.2208 18.2485 18.0687 21.3876 14.1804 21.3876C10.2915 21.3876 7.13996 18.2485 7.13996 14.3792C7.13996 10.5089 10.2921 7.37091 14.1804 7.37091C18.0695 7.37064 21.2208 10.5086 21.2208 14.3792ZM28.5256 14.3792C28.5256 6.63775 22.2216 0.362305 14.4444 0.362305C6.66779 0.362305 0.363281 6.63775 0.363281 14.3792C0.363281 17.7829 1.58328 20.9038 3.61061 23.3313L14.4566 38.9087L25.4612 23.1041C25.8564 22.6117 26.2184 22.0928 26.545 21.5473L26.6563 21.3884H26.638C27.8364 19.3254 28.5256 16.9335 28.5256 14.3792Z" fill="url(#paint1_linear_140_1298)"/>
<circle cx="14.5016" cy="14.5003" r="11.9625" fill="url(#paint2_linear_140_1298)"/>
<circle cx="14.4719" cy="14.4703" r="11.2077" fill="url(#paint3_linear_140_1298)"/>
<circle cx="14.5024" cy="14.5007" r="10.875" fill="url(#paint4_linear_140_1298)"/>
<path d="M19.7743 14.8348H15.9798C15.84 14.8358 15.7271 14.9493 15.7271 15.0896V15.1438H20.0276V15.0896C20.0276 14.9498 19.9142 14.8358 19.7749 14.8348H19.7743Z" fill="#FF6B83"/>
<path d="M16.4194 19.3056C16.5493 19.3056 16.6552 19.2002 16.6552 19.0698C16.6552 18.94 16.5498 18.834 16.4194 18.834C16.2896 18.834 16.1836 18.9395 16.1836 19.0698C16.1836 19.1997 16.2891 19.3056 16.4194 19.3056Z" fill="#FF6B83"/>
<path d="M15.7271 19.6986H16.0604V20.1265C16.0604 20.1967 16.1176 20.2539 16.1878 20.2539H16.4838C16.5539 20.2539 16.6112 20.1967 16.6112 20.1265V19.6986H19.1435V20.1265C19.1435 20.1967 19.2007 20.2539 19.2709 20.2539H19.5669C19.6371 20.2539 19.6943 20.1967 19.6943 20.1265V19.6986H20.0276V18.0648L15.7271 18.0643L15.7271 19.6986ZM19.3345 18.5797C19.6047 18.5797 19.8251 18.7996 19.8251 19.0703C19.8251 19.3404 19.6052 19.5608 19.3345 19.5608C19.0644 19.5608 18.844 19.3409 18.844 19.0703C18.844 18.8001 19.0639 18.5797 19.3345 18.5797ZM17.5977 18.6748H18.1574C18.3753 18.6748 18.5524 18.8519 18.5524 19.0698C18.5524 19.2877 18.3753 19.4648 18.1574 19.4648H17.5977C17.3798 19.4648 17.2026 19.2877 17.2026 19.0698C17.2026 18.8519 17.3797 18.6748 17.5977 18.6748ZM16.42 18.5797C16.6902 18.5797 16.9106 18.7996 16.9106 19.0703C16.9106 19.3404 16.6907 19.5608 16.42 19.5608C16.1499 19.5608 15.9295 19.3409 15.9295 19.0703C15.9295 18.8001 16.1494 18.5797 16.42 18.5797Z" fill="#FF6B83"/>
<path d="M15.7271 15.4694V17.8102H20.0276V15.3982H15.7271V15.4694Z" fill="#FF6B83"/>
<path d="M10.917 12.6206C10.917 12.9385 10.4404 12.9385 10.4404 12.6206C10.4404 12.3027 10.917 12.3027 10.917 12.6206Z" fill="#FF6B83"/>
<path d="M20.2822 15.6176V16.6748H20.3161C20.4151 16.6748 20.4957 16.5942 20.4957 16.4952V15.926C20.4957 15.7852 20.4066 15.6643 20.2822 15.6176Z" fill="#FF6B83"/>
<path d="M17.5973 19.2104H18.157C18.2346 19.2104 18.2973 19.1472 18.2973 19.0701C18.2973 18.9925 18.2342 18.9298 18.157 18.9298H17.5973C17.5197 18.9298 17.457 18.993 17.457 19.0701C17.457 19.1477 17.5202 19.2104 17.5973 19.2104Z" fill="#FF6B83"/>
<path d="M15.2588 15.9262V16.4954C15.2588 16.5944 15.3394 16.675 15.4384 16.675H15.4722V15.6198C15.3454 15.668 15.2588 15.7874 15.2588 15.9262Z" fill="#FF6B83"/>
<path d="M19.334 19.3055C19.4638 19.3055 19.5698 19.2 19.5698 19.0697C19.5698 18.9398 19.4643 18.8339 19.334 18.8339C19.2041 18.8339 19.0981 18.9393 19.0981 19.0697C19.0981 19.1995 19.2036 19.3055 19.334 19.3055Z" fill="#FF6B83"/>
<path d="M10.481 10.0765H13.1521V11.2417H10.481V10.0765Z" fill="#FF6B83"/>
<path d="M16.3784 13.3825H17.3525V11.9581C17.0292 11.8113 16.7083 11.6511 16.3784 11.4725V13.3825Z" fill="#FF6B83"/>
<path d="M14.6838 10.4519L14.6714 10.444V13.3828H15.6634L15.6629 11.0638C15.3565 10.8803 15.0749 10.7012 14.8326 10.5464C14.7828 10.5156 14.7326 10.4832 14.6833 10.4519L14.6838 10.4519Z" fill="#FF6B83"/>
<path d="M18.0674 13.3827H18.8077V12.525C18.5569 12.4419 18.3092 12.3523 18.0674 12.2578V13.3827Z" fill="#FF6B83"/>
<path d="M17.4252 11.2976C17.2795 11.2294 17.1257 11.1533 16.9556 11.0652C16.4645 10.813 16.0392 10.5558 15.7228 10.3598C15.7208 10.3593 15.7083 10.3513 15.6959 10.3433C15.5168 10.2319 15.3417 10.121 15.1725 10.013C14.3815 9.50951 13.7272 9.09259 13.0073 8.93787L13.2625 9.19259H13.5312C13.5591 9.19259 13.5834 9.19458 13.6068 9.19956C13.6078 9.19956 13.6088 9.19956 13.6093 9.20006C13.6307 9.20205 13.6511 9.20652 13.674 9.21399C13.6874 9.21697 13.7004 9.22095 13.7133 9.22692C13.7347 9.23438 13.7546 9.24384 13.773 9.25428C13.7914 9.26423 13.8083 9.27468 13.8247 9.28762C13.8382 9.29657 13.8506 9.30603 13.8621 9.31647C13.8755 9.32692 13.8874 9.33886 13.8984 9.35229C13.8994 9.35279 13.9009 9.35428 13.9028 9.35627C13.9198 9.37269 13.9317 9.38961 13.9407 9.40304C13.9496 9.41299 13.9645 9.43538 13.977 9.45876C13.978 9.46075 13.9795 9.46324 13.98 9.46523C13.9805 9.46573 13.9805 9.46672 13.981 9.46722C13.9899 9.48563 13.9984 9.50553 14.0058 9.52593C14.0068 9.52792 14.0073 9.5304 14.0083 9.53239C14.0083 9.53289 14.0088 9.53339 14.0088 9.53438C14.0138 9.54832 14.0178 9.56125 14.0213 9.57518L14.0247 9.58961C14.0267 9.59608 14.0292 9.60851 14.0302 9.61548L14.0342 9.64583C14.0362 9.66573 14.0377 9.68413 14.0377 9.70055V13.3573C14.0377 13.3886 14.0262 13.4175 14.0073 13.4394L13.6745 14.016H20.5934V12.3582C19.4481 12.1095 18.4102 11.7627 17.4242 11.298L17.4252 11.2976ZM15.9178 13.51C15.9178 13.5802 15.8606 13.6374 15.7904 13.6374H14.5436C14.4735 13.6374 14.4163 13.5802 14.4163 13.51V10.2124C14.4163 10.1667 14.4411 10.1244 14.4809 10.1015C14.5208 10.0791 14.57 10.0796 14.6093 10.103C14.6352 10.1184 14.661 10.1353 14.6864 10.1517C14.7307 10.1796 14.775 10.2075 14.8203 10.2363C14.869 10.2672 14.9183 10.299 14.969 10.3304C15.2267 10.4955 15.5282 10.6871 15.8556 10.8816C15.8944 10.9045 15.9178 10.9463 15.9178 10.991L15.9178 13.51ZM17.6074 13.51C17.6074 13.5802 17.5502 13.6374 17.48 13.6374H16.2512C16.181 13.6374 16.1238 13.5802 16.1238 13.51L16.1233 11.2582C16.1233 11.2129 16.1472 11.1712 16.186 11.1483C16.2248 11.1254 16.273 11.1249 16.3124 11.1468C16.7288 11.3786 17.1278 11.5791 17.5318 11.7602C17.5775 11.7806 17.6069 11.8264 17.6069 11.8766V13.5104L17.6074 13.51ZM19.0626 13.51C19.0626 13.5802 19.0054 13.6374 18.9353 13.6374H17.9402C17.8701 13.6374 17.8129 13.5802 17.8129 13.51V12.0697C17.8129 12.0274 17.8338 11.9876 17.8691 11.9642C17.9039 11.9403 17.9492 11.9358 17.988 11.9517C18.3069 12.0811 18.6387 12.2025 18.9746 12.3114C19.0268 12.3284 19.0626 12.3776 19.0626 12.4323L19.0626 13.51ZM20.2169 13.51C20.2169 13.5802 20.1596 13.6374 20.0895 13.6374H19.3676C19.2974 13.6374 19.2402 13.5802 19.2402 13.51V12.5667C19.2402 12.5269 19.2591 12.4891 19.291 12.4647C19.3228 12.4409 19.3641 12.4329 19.4029 12.4443C19.6616 12.5185 19.8935 12.5802 20.1119 12.6324C20.1164 12.6334 20.1208 12.6349 20.1253 12.6364C20.1785 12.6518 20.2174 12.7006 20.2174 12.7588V13.51L20.2169 13.51Z" fill="#FF6B83"/>
<path d="M10.9665 14.015V13.5285C10.9665 13.4583 11.0237 13.4011 11.0938 13.4011C11.164 13.4011 11.2212 13.4583 11.2212 13.5285V14.015H11.6889V13.5285C11.6889 13.4583 11.7461 13.4011 11.8162 13.4011C11.8864 13.4011 11.9436 13.4583 11.9436 13.5285V14.015H12.4113V13.5285C12.4113 13.4583 12.4685 13.4011 12.5386 13.4011C12.6088 13.4011 12.666 13.4583 12.666 13.5285V14.015H13.3814L13.7839 13.3175L13.7844 9.69912C13.7844 9.69066 13.7834 9.68071 13.7824 9.67225L13.7779 9.64538C13.774 9.62946 13.7725 9.62499 13.7705 9.61951C13.77 9.61752 13.769 9.61603 13.7685 9.61404C13.764 9.6021 13.7595 9.59066 13.7546 9.58021C13.7541 9.57922 13.7536 9.57822 13.7531 9.57673C13.7486 9.56827 13.7431 9.56031 13.7371 9.55285L13.7421 9.54688C13.7401 9.53942 13.7391 9.53195 13.7386 9.52449L13.7247 9.53643C13.7182 9.53096 13.7138 9.52549 13.7088 9.51952C13.7058 9.51653 13.7023 9.51205 13.7008 9.51056C13.6964 9.50807 13.6765 9.49265 13.6725 9.48966C13.666 9.48419 13.659 9.48071 13.6521 9.47673C13.6451 9.47325 13.6381 9.46877 13.6297 9.46628C13.6247 9.46479 13.6197 9.4628 13.6153 9.46081C13.6088 9.45932 13.6023 9.45782 13.5964 9.45534C13.5894 9.45484 13.5804 9.45285 13.5715 9.45086C13.5675 9.45036 13.564 9.44986 13.56 9.44887C13.5531 9.44738 13.5441 9.44688 13.5322 9.44688H13.2113C13.1779 9.44688 13.1456 9.43345 13.1217 9.41006L12.6232 8.91256C12.6118 8.90111 12.5988 8.89315 12.5849 8.88669C12.5804 8.8847 12.5755 8.8842 12.571 8.88271C12.559 8.87922 12.5476 8.87574 12.5347 8.87524H12.5307H11.0999C11.067 8.87524 11.0352 8.88868 11.0128 8.91156L10.5133 9.40958C10.4894 9.43346 10.4571 9.44689 10.4233 9.44689H10.1009C9.96208 9.44689 9.84863 9.55983 9.84863 9.69914V13.3175L10.2511 14.015L10.9665 14.015ZM12.954 13.1135C12.6819 13.1135 12.461 12.8921 12.461 12.6205C12.461 12.3484 12.6823 12.1275 12.954 12.1275C13.2261 12.1275 13.447 12.3489 13.447 12.6205C13.447 12.8926 13.2256 13.1135 12.954 13.1135ZM10.2261 9.94932C10.2261 9.87917 10.2833 9.82196 10.3535 9.82196H13.2794C13.3496 9.82196 13.4068 9.87917 13.4068 9.94932V11.3692C13.4068 11.4393 13.3496 11.4965 13.2794 11.4965H10.3535C10.2833 11.4965 10.2261 11.4393 10.2261 11.3692V9.94932ZM10.6784 12.1275C10.9505 12.1275 11.1714 12.3489 11.1714 12.6205C11.1714 12.8927 10.95 13.1136 10.6784 13.1136C10.4062 13.1136 10.1853 12.8922 10.1853 12.6205C10.1853 12.3484 10.4067 12.1275 10.6784 12.1275Z" fill="#FF6B83"/>
<path d="M19.4951 13.3827H19.9623V12.8584C19.8145 12.822 19.6598 12.7813 19.4951 12.735V13.3827Z" fill="#FF6B83"/>
<path d="M13.1934 12.6206C13.1934 12.9385 12.7163 12.9385 12.7163 12.6206C12.7163 12.3027 13.1934 12.3027 13.1934 12.6206Z" fill="#FF6B83"/>
<path d="M12.6518 14.5801H11.0707C11.0006 14.5801 10.9434 14.6373 10.9434 14.7074C10.9434 14.7776 11.0006 14.8348 11.0707 14.8348H12.6518C12.722 14.8348 12.7792 14.7776 12.7792 14.7074C12.7792 14.6373 12.722 14.5801 12.6518 14.5801Z" fill="#FF6B83"/>
<path d="M13.0189 15.5029H10.705C10.6349 15.5029 10.5776 15.5601 10.5776 15.6303C10.5776 15.7004 10.6349 15.7577 10.705 15.7577H13.0189C13.0891 15.7577 13.1463 15.7004 13.1463 15.6303C13.1463 15.5601 13.0891 15.5029 13.0189 15.5029Z" fill="#FF6B83"/>
<path d="M10.2129 16.5531C10.2129 16.6233 10.2701 16.6805 10.3403 16.6805H13.3845C13.4546 16.6805 13.5119 16.6233 13.5119 16.5531C13.5119 16.483 13.4546 16.4258 13.3845 16.4258H10.3403C10.2701 16.4258 10.2129 16.483 10.2129 16.5531Z" fill="#FF6B83"/>
<path d="M13.8252 17.3489H9.89885C9.8287 17.3489 9.77148 17.4061 9.77148 17.4762C9.77148 17.5464 9.8287 17.6036 9.89885 17.6036H13.8252C13.8954 17.6036 13.9526 17.5464 13.9526 17.4762C13.9526 17.4061 13.8954 17.3489 13.8252 17.3489Z" fill="#FF6B83"/>
<path d="M13.8217 9.45386L13.7466 9.51853H13.767L13.8217 9.45386Z" fill="#FF6B83"/>
<path d="M13.2186 14.2699H12.9375L14.5157 17.6534C14.5371 17.6997 14.5833 17.7271 14.6311 17.7271C14.649 17.7271 14.6674 17.7231 14.6848 17.7151C14.7485 17.6853 14.7764 17.6097 14.7465 17.546L13.2187 14.2703L13.2186 14.2699Z" fill="#FF6B83"/>
<path d="M10.4143 14.2698L8.88699 17.5455C8.85714 17.6092 8.885 17.6853 8.94868 17.7146C8.96609 17.7226 8.9845 17.7266 9.00241 17.7266C9.05017 17.7266 9.09644 17.6992 9.11784 17.6529L10.696 14.2694H10.4149L10.4143 14.2698Z" fill="#FF6B83"/>
<ellipse cx="14.3189" cy="42.4127" rx="9.24375" ry="1.8125" fill="url(#paint5_radial_140_1298)" fill-opacity="0.6"/>
<defs>
<linearGradient id="paint0_linear_140_1298" x1="-5.10031e-08" y1="7.98909" x2="22.0987" y2="32.6139" gradientUnits="userSpaceOnUse">
<stop stop-color="#FF6B83"/>
<stop offset="1" stop-color="#E05E73"/>
</linearGradient>
<linearGradient id="paint1_linear_140_1298" x1="0.363281" y1="8.15605" x2="21.932" y2="32.081" gradientUnits="userSpaceOnUse">
<stop stop-color="#FF6B83"/>
<stop offset="1" stop-color="#E8667B"/>
</linearGradient>
<linearGradient id="paint2_linear_140_1298" x1="26.5277" y1="19.562" x2="1.18487" y2="11.0499" gradientUnits="userSpaceOnUse">
<stop stop-color="#FF6B83"/>
<stop offset="1" stop-color="#EB6379"/>
</linearGradient>
<linearGradient id="paint3_linear_140_1298" x1="25.7392" y1="19.2126" x2="1.99541" y2="11.2376" gradientUnits="userSpaceOnUse">
<stop stop-color="white"/>
<stop offset="1" stop-color="#999999"/>
</linearGradient>
<linearGradient id="paint4_linear_140_1298" x1="4.89619" y1="10.332" x2="24.1087" y2="25.3757" gradientUnits="userSpaceOnUse">
<stop stop-color="white"/>
<stop offset="1" stop-color="#C7C7C7"/>
</linearGradient>
<radialGradient id="paint5_radial_140_1298" cx="0" cy="0" r="1" gradientUnits="userSpaceOnUse" gradientTransform="translate(14.3189 42.4127) scale(9.24375 1.8125)">
<stop/>
<stop offset="1" stop-color="#666666" stop-opacity="0"/>
</radialGradient>
</defs>
</svg>
