<?xml version="1.0" encoding="UTF-8"?>
<svg id="Layer_1" xmlns="http://www.w3.org/2000/svg" version="1.1" viewBox="0 0 141.73 85.04">
  <!-- Generator: Adobe Illustrator 29.2.1, SVG Export Plug-In . SVG Version: 2.1.0 Build 116)  -->
  <defs>
    <style>
      .st0 {
        fill: #fff;
        fill-rule: evenodd;
      }

      .st1 {
        fill: none;
        stroke: #231f20;
        stroke-miterlimit: 2.61;
        stroke-width: .5px;
      }

      .st2 {
        fill: #818385;
      }
    </style>
  </defs>
  <path class="st0" d="M44.62,15.01h71.21c5.58,0,10.15,4.57,10.15,10.15v23.75c0,5.58-4.57,10.15-10.15,10.15h-11.74c-11.65.2-16.74,9.77-23.87,17.73-6.69-7.47-11.99-16.81-22.76-17.73h-12.85c-5.58,0-10.15-4.57-10.15-10.15v-23.75c0-5.58,4.57-10.15,10.15-10.15Z"/>
  <path class="st1" d="M44.62,15.01h71.21c5.58,0,10.15,4.57,10.15,10.15v23.75c0,5.58-4.57,10.15-10.15,10.15h-11.74c-11.65.2-16.74,9.77-23.87,17.73-6.69-7.47-11.99-16.81-22.76-17.73h-12.85c-5.58,0-10.15-4.57-10.15-10.15v-23.75c0-5.58,4.57-10.15,10.15-10.15Z"/>
  <path class="st2" d="M46.68,42.14h-.73v7.4c0,.82.67,1.48,1.49,1.48h.2v2.89c0,.46.37.83.83.83h3.01c.46,0,.83-.37.83-.83v-2.89h8.18c-.09-.41-.62-2.42-2.33-4.41-2.56-2.97-6.42-4.47-11.46-4.47M50.31,47.46c-.68,0-1.23-.55-1.23-1.23s.55-1.23,1.23-1.23,1.23.55,1.23,1.23-.55,1.23-1.23,1.23ZM63.66,46.65c-1.7,1.98-2.22,3.97-2.31,4.37h8.38v2.89c0,.46.37.83.83.83h3.01c.46,0,.83-.37.83-.83v-2.89h.2c.82,0,1.49-.67,1.49-1.48v-7.4h-.93c-4.99,0-8.97,1.56-11.49,4.51ZM71.52,47.46c-.68,0-1.23-.55-1.23-1.23s.55-1.23,1.23-1.23,1.23.55,1.23,1.23-.55,1.23-1.23,1.23ZM76.23,29.81h-.15v-3.31c0-2.08-1.69-3.77-3.77-3.77h-22.6c-2.08,0-3.77,1.69-3.77,3.77v3.31h-.35c-.48,0-.87.39-.87.87v2.07c0,.48.39.87.87.87h.35v7.66h.73c3.66,0,8.74.83,12.14,4.8,1.1,1.28,1.74,2.56,2.1,3.48.36-.92,1-2.2,2.1-3.48,1.87-2.19,5.5-4.8,12.14-4.8h.93v-7.66h.15c.48,0,.87-.39.87-.87v-2.07c0-.48-.39-.87-.87-.87ZM65.97,24.88c0-.39.32-.71.71-.71h2.47c.39,0,.7.32.7.71v2.47c0,.39-.32.7-.7.7h-2.47c-.39,0-.71-.31-.71-.7v-2.47ZM55.32,24.72h7.56c.74,0,1.34.6,1.34,1.34s-.6,1.34-1.34,1.34h-7.56c-.74,0-1.34-.6-1.34-1.34s.6-1.34,1.34-1.34ZM48.12,38.03v-7.05c0-.65.52-1.17,1.17-1.17h9.27c.65,0,1.17.52,1.17,1.17v7.05c0,.65-.52,1.17-1.17,1.17h-9.27c-.65,0-1.17-.52-1.17-1.17ZM62.57,44.95h-3.31c-.24,0-.42-.19-.42-.42s.19-.43.42-.43h3.31c.24,0,.42.19.42.43s-.19.42-.42.42ZM64.22,42.85h-6.5c-.24,0-.43-.19-.43-.43s.19-.42.43-.42h6.5c.24,0,.43.19.43.42s-.19.43-.43.43ZM73.75,38.03c0,.65-.52,1.17-1.17,1.17h-9.27c-.65,0-1.17-.52-1.17-1.17v-7.05c0-.65.52-1.17,1.17-1.17h9.27c.65,0,1.17.52,1.17,1.17v7.05Z"/>
</svg>