<?xml version="1.0" encoding="UTF-8"?>
<svg id="Layer_1" xmlns="http://www.w3.org/2000/svg" version="1.1" viewBox="0 0 141.73 85.04">
  <!-- Generator: Adobe Illustrator 29.2.1, SVG Export Plug-In . SVG Version: 2.1.0 Build 116)  -->
  <defs>
    <style>
      .st0 {
        fill: #223080;
      }

      .st1 {
        fill: #fff;
      }
    </style>
  </defs>
  <path class="st0" d="M70.87,15.94c2.46,0,4.84.37,7.07,1.07,1.12.35,2.2.78,3.24,1.28.69.33,1.37.7,2.02,1.1.16.1.33.2.49.3.16.1.32.21.48.31.32.21.63.43.93.66.15.11.3.23.45.35.15.12.3.24.45.36.29.24.58.49.86.75.28.25.55.51.82.78h0s0,.02,0,.02c1.48,1.48,2.76,3.15,3.81,4.97.38.66.73,1.35,1.05,2.05.08.18.16.35.23.53,1.2,2.85,1.87,5.97,1.87,9.26,0,2.31-.33,4.55-.95,6.67-4.42,15.97-22.84,29.01-22.84,29.01,0,0-18.4-13.03-22.83-28.99-.62-2.12-.95-4.37-.95-6.69,0-6.77,2.83-12.89,7.38-17.22.41-.39.84-.77,1.28-1.14.15-.12.3-.24.45-.36.15-.12.3-.23.45-.35.31-.23.62-.45.93-.66.16-.11.32-.21.48-.31.16-.1.32-.2.49-.3.16-.1.33-.2.49-.29.17-.1.33-.19.5-.28.17-.09.34-.18.51-.27.17-.09.34-.17.52-.26.52-.25,1.05-.48,1.59-.7.54-.21,1.09-.41,1.65-.58,2.23-.7,4.61-1.07,7.07-1.07"/>
  <path class="st1" d="M71.43,26.2v-1.37h3.09c.31,0,.56-.26.56-.56v-3.1c0-.31-.26-.56-.56-.56h-3.65c-.16,0-.29.06-.39.16-.1.1-.18.24-.18.4v5.03c-3.73.28-6.73,3.26-7,6.99h15.13c-.27-3.73-3.26-6.72-7-6.99"/>
  <rect class="st1" x="57.23" y="37.16" width="27.28" height="1.62"/>
  <path class="st1" d="M77.34,52.69v-12.77h-12.95v12.77h2.61v-5.94c0-2.13,1.74-3.86,3.87-3.86,1.03,0,2,.4,2.73,1.13.73.73,1.13,1.7,1.13,2.73v5.94h2.6Z"/>
  <path class="st1" d="M70.88,44.01c-1.52,0-2.75,1.23-2.75,2.73v5.93h5.49v-5.93c0-.73-.29-1.42-.81-1.94-.52-.52-1.21-.79-1.94-.79"/>
  <path class="st1" d="M80.16,34.83c0-.28-.23-.52-.51-.52h-17.55c-.29,0-.52.24-.52.52v1.2h18.57v-1.2h0Z"/>
  <rect class="st1" x="56.92" y="53.81" width="27.89" height="1.86"/>
  <path class="st1" d="M83.53,39.92h-5.06v12.77h5.06v-12.77ZM81.42,43.14c0-.31.25-.56.56-.56s.56.26.56.56v6.31c0,.31-.25.56-.56.56s-.56-.26-.56-.56v-6.31ZM79.46,43.14c0-.31.26-.56.56-.56s.56.26.56.56v6.31c0,.31-.25.56-.56.56s-.56-.26-.56-.56v-6.31Z"/>
  <path class="st1" d="M63.26,39.92h-5.06v12.77h5.06v-12.77ZM61.15,43.14c0-.31.26-.56.56-.56s.56.26.56.56v6.31c0,.31-.26.56-.56.56s-.56-.26-.56-.56v-6.31ZM59.19,43.14c0-.31.25-.56.56-.56s.56.26.56.56v6.31c0,.31-.25.56-.56.56s-.56-.26-.56-.56v-6.31Z"/>
</svg>