<?xml version="1.0" encoding="UTF-8"?>
<svg id="Layer_1" xmlns="http://www.w3.org/2000/svg" version="1.1" viewBox="0 0 141.73 85.04">
  <!-- Generator: Adobe Illustrator 29.2.1, SVG Export Plug-In . SVG Version: 2.1.0 Build 116)  -->
  <defs>
    <style>
      .st0 {
        fill: #49b74e;
      }

      .st1 {
        fill: #fff;
      }

      .st1, .st2 {
        fill-rule: evenodd;
      }

      .st2 {
        fill: #99d3b8;
      }
    </style>
  </defs>
  <path class="st0" d="M61.75,12.79c2.46,0,4.84.37,7.07,1.07,1.12.35,2.2.78,3.24,1.28.69.33,1.37.7,2.02,1.1.16.1.33.2.49.3.16.1.32.21.48.31.32.21.63.43.93.66.15.11.3.23.45.35.15.12.3.24.45.36.29.24.58.49.86.75.28.25.55.51.82.78h0s0,.02,0,.02c1.48,1.48,2.76,3.15,3.81,4.97.38.66.73,1.35,1.05,2.05.08.18.16.35.23.53,1.2,2.85,1.87,5.97,1.87,9.26,0,2.31-.33,4.55-.95,6.67-4.42,15.97-22.84,29.01-22.84,29.01,0,0-18.4-13.03-22.83-28.99-.62-2.12-.95-4.37-.95-6.69,0-6.77,2.83-12.89,7.38-17.22.41-.39.84-.77,1.28-1.14.15-.12.3-.24.45-.36.15-.12.3-.23.45-.35.31-.23.62-.45.93-.66.16-.11.32-.21.48-.31.16-.1.32-.2.49-.3.16-.1.33-.2.49-.29.17-.1.33-.19.5-.28.17-.09.34-.18.51-.27.17-.09.34-.17.52-.26.52-.25,1.05-.48,1.59-.7.54-.21,1.09-.41,1.65-.58,2.23-.69,4.61-1.07,7.07-1.07"/>
  <path class="st1" d="M47.08,49.02h2.3v-2.82c0-.87-.11-.69,2.08-.69.45,0,.9,0,1.35,0,.68,0,.68.02.68.69,0,.94,0,1.88,0,2.82h.95c0-.53.09-3.64-.1-3.99-.17-.3-.76-.19-1.52-1.18-.13-.17-.16-.21-.26-.39-.14-.25-.16-.18-.46-.24-.65-.13-.02-.16-1.18-.16-1.75,0-1.53.3-1.53-1.61,0-.43-.04-1.34.06-1.67.26-.1.4-.06.72-.08.21-.26.33-.58.54-.81.42-.46.67-.32.72-.69-2.32.05-2.04.32-2.04-1.61,0-.44-.05-1.33.06-1.67.39-.15,1.13-.07,1.62-.07,1.98,0,1.69-.3,1.68,1.63.27-.02,1-.67,2.34-.4.23.05.55.19.72.19v-13.16s-8.7-.02-8.7-.02v25.93Z"/>
  <path class="st1" d="M66.69,41.85c-.23-.95-1.6-2.92-.86-2.96.29-.01.35.36.45.6.11.26.21.5.33.77.18.43.44,1.13.67,1.51h.27c.06-.84-.11-3.19.06-3.75.19-.06.25-.06.44,0,.22.75-.07,2.81.07,3.74l1.31.1c.2-.4.17-.79.68-.64.15.32,0,.43-.11.76,1.09.25.91.55,1.61-.17.44-.45.74-.9.91-1.54.46-1.65-.29-2.96-1.19-3.74-.07-.06-.13-.09-.17-.13-.33-.33.54-1.69-.82-3.23-.35-.4-.75-.76-1.39-1.01-1.91-.77-4.09.09-4.84,1.9-.11.27-.15.73-.34.86-.27.19-.18.02-.73.47-.37.31-.77.85-.92,1.53-.42,1.83.97,3.26,2.46,3.5,1.18.19.2-.05,1.27,1.18.37.43.17.28.84.23"/>
  <path class="st1" d="M53.92,44.12c-.24-.86-1.21-2.27-.8-2.52.51-.3.81,1.46,1.29,2.22.1-.22,0-2.08.02-2.58.02-.35.31-.48.48-.25.15.2.05,3.04.07,3.53l.54.06c.06-.26.24-.63.34-.88.06-.13.11-.32.21-.39.19-.14.32-.02.41.12.06.3-.28.71-.32,1.05,2.08-.59,2.66-2.94,1.25-4.33-.73-.72-.26-.24-.35-1.3-.22-2.6-4.09-3.15-5.05-.64-.38.99.06.26-.8.95-1,.8-1.14,3.23,1.36,3.59.55.08.39.91,1.35,1.38"/>
  <path class="st2" d="M49.39,25.63v2.45c0,.57.45.42,1.48.42.45,0,1.47.06,1.81-.06.12-.3.1-2.95.02-3.23-.37-.12-2.13-.06-2.78-.06-.46,0-.52,0-.52.49"/>
  <path class="st2" d="M49.39,30.44v2.5c0,.57.49.41,1.63.41.33,0,.67,0,1,0,.93,0,.73.2.73-2.56,0-.3.02-.49-.05-.72-.34-.12-2.15-.06-2.78-.06-.42,0-.52-.02-.52.44"/>
  <polygon class="st1" points="49.94 49.02 50.01 49.02 52.95 49.02 52.95 46.05 49.94 46.05 49.94 49.02"/>
  <path class="st1" d="M75.23,36.9c-.23.23-.16.47-.16.89,0,1.83-.09,6.17.01,7.4h.55c.06-.73.01-6.07.01-7.35,0-.43.08-.71-.16-.94,1.41-.29,1.11-2.11-.1-2.12-1.26-.02-1.58,1.83-.15,2.12"/>
  <path class="st1" d="M57.45,47.24h1.7c0,.43,0,.85,0,1.26,0,.35-.13,1.04.27,1.06.44.03.3-.7.3-1.01,0-.44,0-.87,0-1.31h1.7c-.05-.94-.96-1.73-1.95-1.75-1.03-.02-1.95.79-2.02,1.74"/>
  <path class="st1" d="M49.94,32.77c.23.07,1.98.06,2.26.01v-2.23s-2.26-.01-2.26-.01v2.23Z"/>
  <polygon class="st1" points="49.94 27.95 52.2 27.95 52.2 25.7 49.95 25.69 49.94 27.95"/>
  <path class="st1" d="M49.94,37.66h1.73c.63-.89.62-.64.53-2.25l-2.24-.02v2.26Z"/>
  <path class="st1" d="M67.57,29.5h4.69c-.11-1.64-2.17-1.97-2.87-.66-.12.23-.17.64-.56.4-.21-.13-.25-.37-.72-.28-.29.06-.46.27-.53.54"/>
  <path class="st1" d="M59.68,25.72h4.67c.03-1.53-2.18-2.02-2.87-.63-.1.2-.19.61-.53.37-.2-.14-.33-.36-.76-.27-.24.05-.47.27-.51.53"/>
  <polygon class="st1" points="74.75 49.02 75.03 49.02 75.69 49.02 75.97 49.02 75.77 45.75 74.94 45.74 74.75 49.02"/>
  <polygon class="st1" points="64.08 48.29 71.76 48.29 71.76 47.88 64.09 47.87 64.08 48.29"/>
  <polygon class="st1" points="64.09 46.53 71.75 46.53 71.77 46.12 64.08 46.1 64.09 46.53"/>
  <path class="st1" d="M63.1,49.01h.39c.06-.19.08-6.48.02-6.95h-.4s0,6.95,0,6.95Z"/>
  <polygon class="st1" points="66.73 42.38 66.73 45.55 67.64 45.55 67.64 42.32 66.73 42.38"/>
  <polygon class="st1" points="68.19 45.53 69.11 45.55 69.11 42.4 68.21 42.31 68.19 45.53"/>
  <polygon class="st1" points="65.28 42.7 65.27 45.55 66.18 45.55 66.19 42.48 65.28 42.7"/>
  <polygon class="st1" points="69.66 45.55 70.57 45.55 70.57 42.72 69.67 42.47 69.66 45.55"/>
  <path class="st1" d="M55,49.02h.77s.02-3.64.02-3.64c-.24.41-.47,1.07-.67,1.54-.18.43-.14.48-.14.99,0,.3-.03.85.02,1.11"/>
  <path class="st1" d="M71.12,43.5v2.05s.6,0,.6,0v-2.29c-.19-.11-.36-.23-.6-.31v.56Z"/>
  <polygon class="st1" points="64.12 43.24 64.12 45.55 64.32 45.55 64.47 45.55 64.71 45.54 64.72 42.95 64.12 43.24"/>
  <path class="st1" d="M72.2,49.01h.39c.06-.19.08-6.48.02-6.95h-.4s0,6.95,0,6.95Z"/>
</svg>