<?xml version="1.0" encoding="UTF-8"?>
<svg id="Layer_1" xmlns="http://www.w3.org/2000/svg" version="1.1" viewBox="0 0 141.73 85.04">
  <!-- Generator: Adobe Illustrator 29.2.1, SVG Export Plug-In . SVG Version: 2.1.0 Build 116)  -->
  <defs>
    <style>
      .st0 {
        fill: #8d6eb1;
      }

      .st1, .st2 {
        fill: #fff;
      }

      .st2 {
        fill-rule: evenodd;
      }
    </style>
  </defs>
  <path class="st0" d="M75.29,13.84c2.46,0,4.84.37,7.07,1.07,1.12.35,2.2.78,3.24,1.28.69.33,1.37.7,2.02,1.1.16.1.33.2.49.3.16.1.32.21.48.31.32.21.63.43.93.66.15.11.3.23.45.35.15.12.3.24.45.36.29.24.58.49.86.75.28.25.55.51.82.78h0s0,.02,0,.02c1.48,1.48,2.76,3.15,3.81,4.97.38.66.73,1.35,1.05,2.05.08.18.16.35.23.53,1.2,2.85,1.87,5.97,1.87,9.26,0,2.31-.33,4.55-.95,6.67-4.42,15.97-22.84,29.01-22.84,29.01,0,0-18.4-13.03-22.83-28.99-.62-2.12-.95-4.37-.95-6.69,0-6.77,2.83-12.89,7.38-17.22.41-.39.84-.77,1.28-1.14.15-.12.3-.24.45-.36.15-.12.3-.23.45-.35.31-.23.62-.45.93-.66.16-.11.32-.21.48-.31.16-.1.32-.2.49-.3.16-.1.33-.2.49-.29.17-.1.33-.19.5-.28.17-.09.34-.18.51-.27.17-.09.34-.17.52-.26.52-.25,1.05-.48,1.59-.7.54-.21,1.09-.41,1.65-.58,2.23-.7,4.61-1.07,7.07-1.07"/>
  <path class="st2" d="M72.52,35.62v10.75h14.69v-10.7c0-.12-.14-.27-.27-.27h-14.21c-.12,0-.21.09-.21.21M76.41,39.93h-1.7c-.12,0-.21-.09-.21-.21,0-.53-.06-1.38.05-1.86.48-.11,1.19-.05,1.7-.05.18,0,.37.09.37.27v1.54c0,.16-.05.32-.21.32ZM80.72,39.93h-1.7c-.12,0-.21-.09-.21-.21,0-.53-.06-1.38.05-1.86.48-.11,1.19-.05,1.7-.05.18,0,.37.09.37.27v1.54c0,.16-.05.32-.21.32ZM85.03,39.93h-1.7c-.12,0-.21-.09-.21-.21,0-.53-.06-1.38.05-1.86.48-.11,1.19-.05,1.7-.05.25,0,.37.12.37.37,0,.64.14,1.76-.21,1.76ZM76.35,44.61h-1.54c-.16,0-.32-.05-.32-.21v-1.7c0-.12.09-.21.21-.21.53,0,1.38-.06,1.86.05.11.48.05,1.28.05,1.81,0,.12-.14.27-.27.27ZM80.66,44.61h-1.54c-.16,0-.32-.05-.32-.21v-1.7c0-.12.09-.21.21-.21.53,0,1.38-.06,1.86.05.11.48.05,1.28.05,1.81,0,.12-.14.27-.27.27ZM84.97,44.61h-1.54c-.16,0-.32-.05-.32-.21v-1.7c0-.12.09-.21.21-.21.53,0,1.38-.06,1.86.05.11.48.05,1.28.05,1.81,0,.12-.14.27-.27.27Z"/>
  <path class="st2" d="M65.23,32.91v6.7c0,.12.04.16.16.16h6.39v-3.99c0-.69.43-1.12,1.12-1.12h3.41v-3.67c0-.27-.36-.1-.55-.07l-2.13.37c-.97.16-1.88.34-2.85.5l-4.93.87c-.23.04-.61.03-.61.24M69.01,35.14c-.49.11-1.33.05-1.86.05-.12,0-.21-.09-.21-.21v-1.7c0-.16.16-.21.32-.21h1.54c.12,0,.27.14.27.27,0,.31.04,1.59-.05,1.81ZM68.69,38.92h-1.33c-.18,0-.21-.04-.37-.05-.11-.49-.05-1.33-.05-1.86,0-.12.09-.21.21-.21h1.7c.35,0,.21,1.11.21,1.76,0,.25-.12.37-.37.37Z"/>
  <path class="st2" d="M62.52,47.33c0,.68-.12,1.33.21,1.33h25.12c.33,0,.21-.65.21-1.33,0-.16-.16-.21-.32-.21h-24.9c-.16,0-.32.05-.32.21"/>
  <rect class="st1" x="83.7" y="24.93" width="2.45" height="9.74"/>
  <path class="st2" d="M63.42,46.37h1.49v-3.67c0-.31.27-.59.59-.59h5c.38,0,.59.37.59.8v3.46h.69v-5.85h-8.35v5.85Z"/>
  <path class="st2" d="M63.69,30.99c0,1.02-.1.89.16,1.28.29,0,.6-.09.87-.14l2.68-.46c2.9-.48,5.91-1.07,8.83-1.55.34-.06.56-.1.9-.16.85-.14.71-.03.71-1.36,0-.13-.09-.16-.16-.27-.27,0-.58.09-.87.14l-6.2,1.09c-1.17.19-2.38.43-3.53.62-.61.1-1.16.2-1.76.31-.33.06-.58.1-.9.16-.28.05-.72.04-.72.34"/>
  <rect class="st1" x="79.17" y="27.06" width="2.45" height="7.61"/>
  <path class="st2" d="M65.61,42.97v3.41h2.02v-3.41c0-.12-.04-.16-.16-.16h-1.7c-.12,0-.16.04-.16.16"/>
  <path class="st2" d="M68.32,43.07v3.14c0,.12.04.16.16.16h1.86v-3.57h-1.97c-.03.12-.05.12-.05.27"/>
  <path class="st2" d="M83.7,23.44v.74h2.45c0-.42.09-1.06-.21-1.06h-2.02c-.16,0-.21.16-.21.32"/>
  <path class="st2" d="M79.17,25.57v.75h2.45c0-.42.09-1.06-.21-1.06h-2.02c-.16,0-.21.16-.21.32"/>
</svg>