<?xml version="1.0" encoding="UTF-8"?>
<svg id="Layer_1" xmlns="http://www.w3.org/2000/svg" version="1.1" viewBox="0 0 141.73 85.04">
  <!-- Generator: Adobe Illustrator 29.2.1, SVG Export Plug-In . SVG Version: 2.1.0 Build 116)  -->
  <defs>
    <style>
      .st0 {
        fill: #f2f2f3;
      }

      .st1 {
        fill: #818385;
      }
    </style>
  </defs>
  <path class="st1" d="M70.16,10.84c2.46,0,4.84.37,7.07,1.07,1.12.35,2.2.78,3.24,1.28.69.33,1.37.7,2.02,1.1.16.1.33.2.49.3.16.1.32.21.48.31.32.21.63.43.93.66.15.11.3.23.45.35.15.12.3.24.45.36.29.24.58.49.86.75.28.25.55.51.82.78h0s0,.02,0,.02c1.48,1.48,2.76,3.15,3.81,4.97.38.66.73,1.35,1.05,2.05.08.18.16.35.23.53,1.2,2.85,1.87,5.97,1.87,9.26,0,2.31-.33,4.55-.95,6.67-4.42,15.97-22.84,29.01-22.84,29.01,0,0-18.4-13.03-22.83-28.99-.62-2.12-.95-4.37-.95-6.69,0-6.77,2.83-12.89,7.38-17.22.41-.39.84-.77,1.28-1.14.15-.12.3-.24.45-.36.15-.12.3-.23.45-.35.31-.23.62-.45.93-.66.16-.11.32-.21.48-.31.16-.1.32-.2.49-.3.16-.1.33-.2.49-.29.17-.1.33-.19.5-.28.17-.09.34-.18.51-.27.17-.09.34-.17.52-.26.52-.25,1.05-.48,1.59-.7.54-.21,1.09-.41,1.65-.58,2.23-.7,4.61-1.07,7.07-1.07"/>
  <path class="st0" d="M81.77,36.31h-9.86c-.36,0-.65.29-.65.65v.14h11.17v-.14c0-.36-.29-.65-.66-.65h0Z"/>
  <path class="st0" d="M73.06,47.77c.34,0,.61-.27.61-.6s-.27-.6-.61-.6-.61.27-.61.6.27.6.61.6"/>
  <path class="st0" d="M71.26,48.77h.86v1.1c0,.18.15.33.33.33h.77c.18,0,.33-.15.33-.33v-1.1h6.58v1.1c0,.18.15.33.33.33h.77c.18,0,.33-.15.33-.33v-1.1h.86v-4.19h-11.17s0,4.19,0,4.19ZM80.63,45.91c.7,0,1.27.56,1.27,1.26s-.57,1.26-1.27,1.26-1.27-.56-1.27-1.26.57-1.26,1.27-1.26ZM76.12,46.15h1.45c.57,0,1.03.45,1.03,1.01s-.46,1.01-1.03,1.01h-1.45c-.57,0-1.03-.45-1.03-1.01s.46-1.01,1.03-1.01ZM73.06,45.91c.7,0,1.27.56,1.27,1.26s-.57,1.26-1.27,1.26-1.27-.56-1.27-1.26.57-1.26,1.27-1.26Z"/>
  <polygon class="st0" points="71.26 37.93 71.26 43.93 82.43 43.93 82.43 37.75 71.26 37.75 71.26 37.93"/>
  <path class="st0" d="M58.77,30.64c0,.81-1.24.81-1.24,0s1.24-.81,1.24,0"/>
  <path class="st0" d="M83.09,38.31v2.71h.09c.26,0,.47-.21.47-.46v-1.46c0-.36-.23-.67-.55-.79"/>
  <path class="st0" d="M76.12,47.52h1.45c.2,0,.36-.16.36-.36s-.16-.36-.36-.36h-1.45c-.2,0-.37.16-.37.36s.16.36.37.36"/>
  <path class="st0" d="M70.04,39.11v1.46c0,.25.21.46.47.46h.09v-2.7c-.33.13-.55.43-.55.79"/>
  <path class="st0" d="M80.63,47.77c.33,0,.61-.27.61-.6s-.27-.6-.61-.6-.61.27-.61.6.27.6.61.6"/>
  <rect class="st0" x="57.63" y="24.12" width="6.94" height="2.99"/>
  <path class="st0" d="M72.95,32.59h2.53v-3.65c-.84-.38-1.67-.79-2.53-1.24v4.89Z"/>
  <path class="st0" d="M68.55,25.08l-.03-.02v7.53h2.58v-5.94c-.8-.47-1.53-.93-2.16-1.33-.13-.08-.26-.16-.39-.24h0Z"/>
  <path class="st0" d="M77.34,32.59h1.92v-2.2c-.65-.21-1.29-.44-1.92-.69v2.88Z"/>
  <path class="st0" d="M75.67,27.25c-.38-.17-.78-.37-1.22-.6-1.27-.65-2.38-1.3-3.2-1.81,0,0-.04-.02-.07-.04-.47-.28-.92-.57-1.36-.85-2.05-1.29-3.75-2.36-5.62-2.75l.66.65h.7c.07,0,.14,0,.2.02h0c.06,0,.11.02.17.04.03,0,.07.02.1.03.06.02.11.04.16.07.05.03.09.05.13.09.03.02.07.05.1.07.04.03.07.06.09.09,0,0,0,0,.01.01.04.04.08.09.1.12.02.02.06.08.09.14,0,0,0,.01,0,.02,0,0,0,0,0,0,.02.05.04.1.06.15,0,0,0,.01,0,.02,0,0,0,0,0,0,.01.04.02.07.03.1v.04s.02.05.02.07v.08c.02.05.02.1.02.14v9.37c0,.08-.03.15-.08.21l-.86,1.48h17.97v-4.25c-2.97-.64-5.67-1.53-8.23-2.72h0s0,0,0,0ZM71.75,32.91c0,.18-.15.33-.33.33h-3.24c-.18,0-.33-.15-.33-.33v-8.45c0-.12.06-.23.17-.28.11-.06.23-.06.33,0,.07.04.14.08.2.13.11.07.23.14.35.22.13.08.26.16.39.24.67.42,1.45.91,2.3,1.41.1.06.16.17.16.28v6.46ZM76.14,32.91c0,.18-.15.33-.33.33h-3.19c-.18,0-.33-.15-.33-.33v-5.77c0-.12.06-.22.16-.28.1-.06.23-.06.33,0,1.08.59,2.12,1.11,3.17,1.57.12.05.19.17.19.3v4.19h0ZM79.92,32.91c0,.18-.15.33-.33.33h-2.59c-.18,0-.33-.15-.33-.33v-3.69c0-.11.06-.21.15-.27.09-.06.21-.07.31-.03.83.33,1.69.64,2.56.92.13.04.23.17.23.31v2.76ZM82.92,32.91c0,.18-.15.33-.33.33h-1.88c-.18,0-.33-.15-.33-.33v-2.42c0-.1.05-.2.13-.26.08-.06.19-.08.29-.05.67.19,1.28.35,1.84.48.01,0,.02,0,.04.01.14.04.24.16.24.31v1.92h0Z"/>
  <path class="st0" d="M58.89,34.21v-1.25c0-.18.15-.33.33-.33s.33.14.33.33v1.25h1.22v-1.25c0-.18.15-.33.33-.33s.33.14.33.33v1.25h1.22v-1.25c0-.18.15-.33.33-.33s.33.14.33.33v1.25h1.86l1.05-1.79v-9.27s0-.05,0-.07v-.07s-.03-.05-.03-.07c0,0,0,0,0-.01-.01-.03-.02-.06-.04-.09,0,0,0,0,0,0-.01-.02-.03-.04-.04-.06v-.02s0-.04,0-.06l-.04.03s-.03-.03-.04-.04c0,0-.02-.02-.02-.02-.01,0-.06-.05-.07-.05-.02-.02-.03-.02-.05-.03-.02-.01-.04-.02-.06-.03-.01,0-.02,0-.04-.01-.02,0-.03,0-.05-.01-.02,0-.04,0-.07-.01,0,0-.02,0-.03,0-.02,0-.04,0-.07,0h-.83c-.08,0-.17-.04-.23-.09l-1.29-1.27s-.06-.05-.1-.07c-.01,0-.02,0-.04-.01-.03,0-.06-.02-.09-.02h-3.73c-.08,0-.17.04-.23.09l-1.3,1.28c-.06.06-.15.1-.23.1h-.84c-.36,0-.66.29-.66.65v9.27l1.05,1.79h1.86,0ZM64.06,31.9c-.71,0-1.28-.57-1.28-1.27s.57-1.26,1.28-1.26,1.28.57,1.28,1.26-.57,1.27-1.28,1.27ZM56.97,23.79c0-.18.15-.33.33-.33h7.6c.18,0,.33.15.33.33v3.64c0,.18-.15.33-.33.33h-7.6c-.18,0-.33-.15-.33-.33v-3.64ZM58.15,29.37c.71,0,1.28.57,1.28,1.26s-.57,1.27-1.28,1.27-1.28-.57-1.28-1.27.58-1.26,1.28-1.26Z"/>
  <path class="st0" d="M81.05,32.59h1.21v-1.34c-.38-.09-.79-.2-1.21-.31v1.66Z"/>
  <path class="st0" d="M64.68,30.64c0,.81-1.24.81-1.24,0s1.24-.81,1.24,0"/>
  <path class="st0" d="M63.27,35.66h-4.11c-.18,0-.33.15-.33.33s.15.33.33.33h4.11c.18,0,.33-.14.33-.33s-.15-.33-.33-.33"/>
  <path class="st0" d="M64.22,38.02h-6.01c-.18,0-.33.15-.33.33s.15.33.33.33h6.01c.18,0,.33-.15.33-.33s-.15-.33-.33-.33"/>
  <path class="st0" d="M56.94,40.71c0,.18.15.33.33.33h7.91c.18,0,.33-.15.33-.33s-.15-.33-.33-.33h-7.91c-.18,0-.33.15-.33.33"/>
  <path class="st0" d="M66.32,42.75h-10.2c-.18,0-.33.15-.33.33s.15.33.33.33h10.2c.18,0,.33-.15.33-.33s-.15-.33-.33-.33"/>
  <polygon class="st0" points="66.31 22.52 66.12 22.69 66.17 22.69 66.31 22.52"/>
  <path class="st0" d="M64.74,34.86h-.73l4.1,8.67c.06.12.18.19.3.19.05,0,.09-.01.14-.03.16-.08.24-.27.16-.43l-3.97-8.39h0Z"/>
  <path class="st0" d="M57.46,34.86l-3.97,8.39c-.08.16,0,.36.16.44.04.02.09.03.14.03.13,0,.24-.07.3-.19l4.1-8.67h-.73Z"/>
</svg>