<?xml version="1.0" encoding="UTF-8"?>
<svg id="Layer_1" xmlns="http://www.w3.org/2000/svg" version="1.1" viewBox="0 0 141.73 85.04">
  <!-- Generator: Adobe Illustrator 29.2.1, SVG Export Plug-In . SVG Version: 2.1.0 Build 116)  -->
  <defs>
    <style>
      .st0 {
        fill: #f47721;
      }

      .st1 {
        fill: #fff;
        fill-rule: evenodd;
      }
    </style>
  </defs>
  <path class="st0" d="M63.73,9.91c2.46,0,4.84.37,7.07,1.07,1.12.35,2.2.78,3.24,1.28.69.33,1.37.7,2.02,1.1.16.1.33.2.49.3.16.1.32.21.48.31.32.21.63.43.93.66.15.11.3.23.45.35.15.12.3.24.45.36.29.24.58.49.86.75.28.25.55.51.82.78h0s0,.02,0,.02c1.48,1.48,2.76,3.15,3.81,4.97.38.66.73,1.35,1.05,2.05.08.18.16.35.23.53,1.2,2.85,1.87,5.97,1.87,9.26,0,2.31-.33,4.55-.95,6.67-4.42,15.97-22.84,29.01-22.84,29.01,0,0-18.4-13.03-22.83-28.99-.62-2.12-.95-4.37-.95-6.69,0-6.77,2.83-12.89,7.38-17.22.41-.39.84-.77,1.28-1.14.15-.12.3-.24.45-.36.15-.12.3-.23.45-.35.31-.23.62-.45.93-.66.16-.11.32-.21.48-.31.16-.1.32-.2.49-.3.16-.1.33-.2.49-.29.17-.1.33-.19.5-.28.17-.09.34-.18.51-.27.17-.09.34-.17.52-.26.52-.25,1.05-.48,1.59-.7.54-.21,1.09-.41,1.65-.58,2.23-.7,4.61-1.07,7.07-1.07"/>
  <path class="st1" d="M53.53,29.97l1.22,2.32,1.2-2.32h-2.41ZM53.08,24.42h-2.46l1.23,2.35,1.23-2.35h0ZM58.82,24.42h-2.43l1.22,2.34,1.21-2.34h0ZM55.95,24.14l-1.2-2.32-1.22,2.32h2.42ZM56.39,29.69h2.43l-1.22-2.34-1.21,2.34ZM53.38,29.69l-1.38-2.63,1.38-2.63h2.71l1.36,2.63-1.36,2.63h-2.71ZM73.45,23.8c.13.13.2.32.2.51s-.07.37-.2.51c-.26.28-.67.28-.94,0h-.01c-.13-.14-.2-.33-.2-.52s.07-.37.2-.51c.26-.28.68-.28.95,0ZM73.38,24.31c0-.11-.04-.23-.12-.31-.16-.17-.42-.17-.58,0-.08.08-.12.19-.12.31s.04.23.12.31h0c.16.17.41.17.57,0,.07-.08.12-.19.12-.31ZM72.02,29.35c.12.13.19.32.19.51s-.07.37-.19.51c-.26.28-.68.28-.95,0-.13-.13-.2-.32-.2-.51s.07-.37.2-.51c.26-.28.68-.28.95,0ZM71.95,29.85c0-.12-.04-.23-.12-.31-.16-.17-.42-.17-.58,0-.08.08-.12.19-.12.31s.04.23.12.31c.16.17.41.17.58,0,.07-.08.12-.19.12-.31ZM72.15,21.67c-.62.05-1.2.34-1.62.83-.88,1.01-.88,2.6,0,3.6.43.49,1.01.79,1.63.83,1.41.1,2.52,1.37,2.52,2.92,0,.73-.26,1.44-.73,1.96-.14.16-.3.3-.47.42.82-.25,1.58-.72,2.18-1.38.94-1,1.47-2.37,1.47-3.8s-.53-2.8-1.47-3.8c-.94-1-2.19-1.57-3.5-1.58ZM72.11,32.43h0c.62-.04,1.2-.33,1.64-.81.42-.47.66-1.1.66-1.77,0-1.4-.99-2.55-2.27-2.64-.69-.05-1.33-.37-1.8-.91-.98-1.12-.98-2.87,0-3.99.16-.18.33-.34.52-.47-.87.24-1.66.72-2.29,1.41-.94,1-1.47,2.37-1.47,3.8s.53,2.8,1.47,3.8c.94,1.01,2.22,1.58,3.54,1.58h0ZM56.05,49.25v-5.3s.01-.07.04-.1c.02-.03.06-.04.09-.04h2.48v-3.12h-2.48s-.07-.02-.09-.04c-.02-.02-.04-.06-.04-.1v-2.11h-2.96v2.11s-.01.07-.04.1c-.02.03-.06.04-.09.04h-2.43v3.12h2.43s.07.02.09.04c.03.03.04.06.04.1v5.29h2.96ZM74.95,39.43c.43,1,.55,2.13.34,3.21-.24,1.26-.91,2.38-1.87,3.14-.97.77-2.17,1.13-3.37,1.02-1-.09-1.95-.53-2.7-1.25.31.99.88,1.86,1.63,2.51.97.83,2.18,1.24,3.4,1.17,1.22-.07,2.38-.63,3.26-1.57.78-.83,1.29-1.93,1.43-3.12.14-1.18-.09-2.38-.65-3.41-.37-.68-.88-1.27-1.48-1.71h0ZM72.66,42.1s-.07.1-.05.16l.3,1.13c.02.12,0,.23-.04.34-.04.11-.12.2-.21.27-.09.07-.2.11-.32.11-.11,0-.22-.02-.31-.08l-.81-.67s-.11-.04-.16,0l-.83.66c-.19.12-.43.12-.61-.02h0c-.19-.14-.28-.38-.24-.62l.28-1.11h0c.02-.06,0-.12-.04-.16l-.87-.71c-.08-.08-.14-.18-.16-.29-.06-.24.01-.49.19-.64.08-.07.19-.12.3-.14l1.07-.02c.06,0,.11-.04.13-.1l.35-1.11c.05-.1.12-.19.21-.26.1-.07.21-.1.32-.1.11,0,.22.03.31.1.09.06.16.15.21.26l.34,1.11c.02.06.07.1.12.1h1.09v.02c.11.01.21.06.3.14.09.08.15.18.18.29.07.23,0,.48-.16.64l-.87.7h0ZM65.48,31.3c0-.47-.17-.92-.48-1.25-.65-.69-1.68-.69-2.33,0h0c-.31.34-.48.78-.48,1.25,0,.47.17.92.48,1.25.65.69,1.68.69,2.33,0,.31-.33.48-.78.48-1.25ZM61.87,36.36l-.6,1.92h0c-.07.16-.2.29-.35.36-.16.07-.33.08-.49.02-.16-.05-.3-.17-.4-.33-.08-.14-.11-.32-.08-.48l.94-2.88h0c.11-.38.33-.71.63-.94.29-.23.65-.35,1.01-.35h2.63c.36,0,.72.13,1.01.37.3.24.53.58.65.96l.88,2.81c.03.18,0,.36-.08.51-.09.16-.22.27-.38.33-.16.06-.33.05-.49-.02-.15-.07-.28-.2-.35-.36l-.6-1.92h0c-.02-.07-.08-.11-.14-.11-.07,0-.12.07-.12.14v2.71c0,.22-.08.44-.23.6h0c-.15.17-.35.26-.56.26h-1.8c-.21,0-.41-.08-.57-.24-.15-.15-.23-.36-.23-.59v-2.73c0-.07-.05-.13-.12-.14-.06,0-.13.03-.14.1h0ZM50.62,29.69h2.46l-1.23-2.35-1.23,2.35Z"/>
</svg>