<?xml version="1.0" encoding="UTF-8"?>
<svg id="Layer_1" xmlns="http://www.w3.org/2000/svg" version="1.1" viewBox="0 0 141.73 85.04">
  <!-- Generator: Adobe Illustrator 29.2.1, SVG Export Plug-In . SVG Version: 2.1.0 Build 116)  -->
  <defs>
    <style>
      .st0, .st1 {
        fill: #debd25;
      }

      .st2, .st3 {
        fill: #fff;
      }

      .st3, .st1 {
        fill-rule: evenodd;
      }
    </style>
  </defs>
  <path class="st0" d="M66.67,14.2c2.46,0,4.84.37,7.07,1.07,1.12.35,2.2.78,3.24,1.28.69.33,1.37.7,2.02,1.1.16.1.33.2.49.3.16.1.32.21.48.31.32.21.63.43.93.66.15.11.3.23.45.35.15.12.3.24.45.36.29.24.58.49.86.75.28.25.55.51.82.78h0s0,.02,0,.02c1.48,1.48,2.76,3.15,3.81,4.97.38.66.73,1.35,1.05,2.05.08.18.16.35.23.53,1.2,2.85,1.87,5.97,1.87,9.26,0,2.31-.33,4.55-.95,6.67-4.42,15.97-22.84,29.01-22.84,29.01,0,0-18.4-13.03-22.83-28.99-.62-2.12-.95-4.37-.95-6.69,0-6.77,2.83-12.89,7.38-17.22.41-.39.84-.77,1.28-1.14.15-.12.3-.24.45-.36.15-.12.3-.23.45-.35.31-.23.62-.45.93-.66.16-.11.32-.21.48-.31.16-.1.32-.2.49-.3.16-.1.33-.2.49-.29.17-.1.33-.19.5-.28.17-.09.34-.18.51-.27.17-.09.34-.17.52-.26.52-.25,1.05-.48,1.59-.7.54-.21,1.09-.41,1.65-.58,2.23-.7,4.61-1.07,7.07-1.07"/>
  <path class="st3" d="M56.76,43.15c.02.11-.02.3-.07.43-.06.13-.14.19-.16.33-.06.38.24.41.42.58-.35.07-.69.04-.95-.15-.28-.2-.33-.32-.48-.69-.03.22.04.54-.04.71l-.02,2.52h-5.41s0,.74,0,.74l33.25-.02v-.72s-5.3,0-5.3,0v-3.72s-.1,0-.1,0c-.04.44-.04.58-.27.9-.62.86-1.32.02-.92-.32.12-.1.22-.1.34-.23.08-.09.17-.21.15-.35-.33,0-2.14-.03-2.31.02l-.03,3.7h-2.05s.05-9.44.05-9.44h10.09s-3.77-3.69-3.77-3.69c-.11-.1-.57-.49-.59-.63-.05-.31.02-.87,0-1.22l-1.56.02v1.32s-4.2,0-4.2,0c0-.41,0-.83,0-1.25,0-.3.07-.26.22-.42.31-.33,1.42-1.41,1.5-1.59-.11-.07-.41-.34-.51-.45-.18-.2-.32-.31-.5-.47-.09-.08-.15-.17-.25-.25l-1.49-1.38c-.09-.08-.13-.16-.22-.24-.19-.17-.31-.29-.5-.47l-1.98-1.85c-.17-.15-.31-.31-.48-.45l-.99-.94c-.33-.3-.66-.62-.98-.9l-1.5,1.38c-.3.32-1.18,1.09-1.5,1.4-.32.32-.68.63-1,.93-.76.71-1.73,1.66-2.5,2.34-.1.08-.15.16-.25.25l-1.23,1.15c.07.13.47.47.63.62l.95.92c.15.14.18.16.18.43,0,.41,0,.83,0,1.24-1.8-.03-3.61,0-5.41,0-.45,0-.37.04-.62.27l-1.36,1.3c-.16.16-.31.32-.45.45-.16.15-.3.28-.46.44l-1.78,1.75h10.09s0,9.45,0,9.45l-1.9-.02v-3.72s-1.75,0-1.75,0ZM60.86,30.53c0-.25.41-.47.67-.77l1.45-1.38c.68-.59,1.48-1.43,2.18-2.05l1.47-1.37,2.08,1.99c.56.54,1.12,1.02,1.65,1.58.24.25,1.99,1.81,2.01,2v16.35s-2.74,0-2.74,0v-1.76c0-1.47.21-2.78-.47-3.83-1.61-2.48-5.56-1.34-5.57,1.7v3.89c-.74.01-2.06.03-2.73,0v-.18c-.02-5.31,0-10.85,0-16.16ZM64.44,46.87c0-.72-.07-3.33.06-3.85.21-.87,1.09-1.77,2.18-1.73,1.13.04,1.91.79,2.1,1.8.08.4.09,3.31.05,3.8h-.32c-.09-1.13.05-2.39-.03-3.53-.07-.96-.85-1.73-1.84-1.72-.98.01-1.76.77-1.84,1.72-.05.64-.02,2.72-.02,3.51h-.34ZM65.51,43.93c.12.15.17.22.14.45-.02.17-.1.33-.3.27-.24-.08-.3-.75.16-.72Z"/>
  <path class="st1" d="M60.86,30.53c0,5.32-.03,10.85,0,16.16v.18c.68.03,2,.02,2.73,0v-3.89c.02-3.03,3.97-4.17,5.58-1.7.68,1.05.47,2.36.47,3.83v1.76s2.76,0,2.76,0v-16.35c-.04-.19-1.79-1.75-2.03-2-.53-.56-1.09-1.04-1.65-1.58l-2.08-1.99-1.47,1.37c-.7.62-1.5,1.46-2.18,2.05l-1.45,1.38c-.27.29-.67.52-.67.77M62.46,32.28h1.28s.14,0,.14,0v1.38s0,.04,0,.04h-1.41s0-.14,0-.14v-1.28ZM64.26,32.28h1.4s0,1.42,0,1.42h-1.41s.01-1.42.01-1.42ZM67.65,32.3c.18-.06,1.17-.03,1.41-.02v.21s0,1.21,0,1.21l-1.41-.02v-1.38ZM69.44,32.28h1.41s0,1.42,0,1.42h-1.41s0-1.42,0-1.42ZM62.47,34.1h1.41s0,1.84,0,1.84h-1.41s0-1.84,0-1.84ZM64.25,34.09h1.39v1.84s-1.39,0-1.39,0v-1.85ZM67.65,34.1h1.41s0,1.84,0,1.84h-1.41s0-1.84,0-1.84ZM69.44,34.09h1.39s0,1.84,0,1.84h-1.39s0-1.84,0-1.84ZM62.47,36.33h1.39c.03.32.05,1.87,0,2.12h-1.4s0-2.12,0-2.12ZM64.27,36.33h1.38s0,2.13,0,2.13h-1.38s0-2.13,0-2.13ZM67.66,36.33h1.39s-.01,2.12-.01,2.12h-1.38s0-2.12,0-2.12ZM69.44,36.33l1.38.02v2.1s-1.39,0-1.39,0v-2.12Z"/>
  <path class="st3" d="M70.4,25.5l.63.61c.24-.14,1.04-.97,1.32-1.22.13-.11.3-.3.45-.41.38.29,1.2,1.15,1.58,1.48.18.15.32.33.52.51l2.14,2c.16-.22.39-.44.55-.66l-1.77-1.72c-.2-.18-.43-.37-.6-.56-.27-.31-1.79-1.69-2.25-2.15l-.16-.15-.62.56c-.11.1-.17.19-.28.29-.11.1-.2.18-.32.29l-1.19,1.15Z"/>
  <path class="st3" d="M56.37,28.47c.2-.14.38-.37.53-.5l3.67-3.47c.19.11.66.6.85.79.14.14.28.26.44.4.1.09.32.34.42.39.09-.04.59-.51.63-.61l-1.19-1.11c-.15-.16-1.08-1.06-1.18-1.1-.13.09-.19.17-.31.3l-.89.85c-.29.27-3.48,3.29-3.57,3.44.08.11.53.59.61.63"/>
  <path class="st1" d="M64.44,46.87h.34c0-.78-.03-2.87.02-3.51.08-.95.86-1.71,1.84-1.72.99-.01,1.77.76,1.84,1.72.08,1.13-.06,2.4.03,3.53h.32c.04-.49.02-3.4-.05-3.8-.2-1.01-.97-1.76-2.1-1.8-1.09-.04-1.97.86-2.18,1.73-.13.52-.06,3.13-.06,3.85"/>
  <path class="st3" d="M65.59,21.05l.09,1.01c.28-.02.74-.18,1.42-.21,1.59-.07,2.62.35,3.96.96-.26-.35-1.71-1.17-2.26-1.38-1.03-.39-2-.54-3.21-.38"/>
  <path class="st3" d="M75.96,23.85c-.51-1.08-1.81-2.58-2.74-3.26-.57-.41-1.15-.78-1.92-1.08-.52-.2-1.84-.59-2.48-.53,1.28.27,3,1.29,4,2.01.3.22.57.43.84.66.64.54.94.8,1.56,1.44.24.25.52.51.74.77"/>
  <path class="st3" d="M62.47,38.45h1.4c.05-.25.03-1.8,0-2.11h-1.39s0,2.11,0,2.11Z"/>
  <polygon class="st3" points="64.26 38.46 65.64 38.46 65.65 36.33 64.27 36.33 64.26 38.46"/>
  <polygon class="st3" points="67.65 38.44 69.03 38.45 69.04 36.33 67.66 36.33 67.65 38.44"/>
  <polygon class="st3" points="69.43 38.45 70.81 38.45 70.82 36.35 69.44 36.33 69.43 38.45"/>
  <rect class="st2" x="62.46" y="34.1" width="1.41" height="1.84" transform="translate(-.08 .15) rotate(-.14)"/>
  <polygon class="st3" points="67.65 35.93 69.06 35.94 69.06 34.11 67.65 34.1 67.65 35.93"/>
  <rect class="st2" x="64.25" y="34.09" width="1.39" height="1.85"/>
  <polygon class="st3" points="69.44 35.93 70.83 35.94 70.83 34.11 69.44 34.09 69.44 35.93"/>
  <path class="st3" d="M70.27,25.38v-2.35s-1.33,0-1.33,0c0,.3,0,.6-.01.9,0,.28-.02.23.36.58.09.08.16.12.24.2l.75.66Z"/>
  <polygon class="st3" points="62.46 33.56 62.46 33.7 63.88 33.7 63.88 33.66 63.88 32.28 63.74 32.28 62.46 32.28 62.46 33.56"/>
  <path class="st3" d="M67.65,33.69l1.41.02v-1.21s0-.21,0-.21c-.24-.01-1.24-.04-1.41.02v1.38Z"/>
  <rect class="st2" x="69.43" y="32.29" width="1.42" height="1.41" transform="translate(36.91 103.02) rotate(-89.8)"/>
  <polygon class="st3" points="64.25 33.69 65.66 33.7 65.66 32.28 64.26 32.28 64.25 33.69"/>
  <path class="st3" d="M78.03,40.58h2.16c.03-.18.05-.76-.02-.88-.11-.04-1.94-.04-2.15,0v.89Z"/>
  <path class="st3" d="M53.14,40.58c.58,0,1.66.02,2.17,0v-.9c-.64,0-1.64-.03-2.18.01v.89Z"/>
  <polygon class="st3" points="74.06 40.58 76.24 40.57 76.23 39.67 74.07 39.67 74.06 39.8 74.06 40.4 74.06 40.58"/>
  <polygon class="st3" points="57.1 40.58 59.26 40.57 59.26 39.67 57.09 39.68 57.1 40.58"/>
  <polygon class="st3" points="74.07 41.68 76.24 41.68 76.24 40.83 74.07 40.83 74.07 41.68"/>
  <path class="st3" d="M57.1,40.83c0,.22-.04.67.02.85h2.15s0-.85,0-.85h-2.17Z"/>
  <polygon class="st3" points="53.14 41.68 55.31 41.67 55.31 40.83 53.14 40.83 53.14 41.68"/>
  <polygon class="st3" points="74.07 39.43 76.24 39.43 76.23 38.58 74.07 38.58 74.07 39.43"/>
  <polygon class="st3" points="78.03 41.68 80.2 41.67 80.2 40.83 78.03 40.83 78.03 41.68"/>
  <polygon class="st3" points="53.14 39.43 55.31 39.42 55.3 38.58 53.14 38.57 53.14 39.43"/>
  <polygon class="st3" points="78.04 39.43 80.2 39.42 80.19 38.58 78.03 38.57 78.04 39.43"/>
  <polygon class="st3" points="57.09 39.43 59.27 39.42 59.26 38.58 57.09 38.58 57.09 39.43"/>
  <path class="st3" d="M55.47,44.37c.08-.18.01-.49.04-.71.15.36.2.48.48.69.26.19.61.22.95.15-.18-.17-.48-.21-.42-.58.02-.15.11-.21.16-.33.06-.13.1-.32.07-.43h-1.29s0,1.22,0,1.22Z"/>
  <path class="st3" d="M77.9,43.16h-.7c.02.15-.07.27-.15.35-.12.13-.22.13-.34.23-.41.34.3,1.17.92.32.23-.32.23-.46.27-.9"/>
  <path class="st3" d="M77.79,31.09c-.09.14-.19.21-.31.32-.07.06-.11.1-.18.16-.03.03-.06.05-.09.08-.06.07-.02,0-.06.09h1.31c-.1-.13-.21-.23-.33-.34-.06-.06-.1-.1-.16-.17-.08-.09-.07-.1-.18-.14"/>
  <path class="st1" d="M65.51,43.93c-.46-.03-.4.64-.16.72.2.07.28-.1.3-.27.03-.23-.02-.31-.14-.45"/>
</svg>