<?xml version="1.0" encoding="UTF-8"?>
<svg id="Layer_1" xmlns="http://www.w3.org/2000/svg" version="1.1" viewBox="0 0 141.73 85.04">
  <!-- Generator: Adobe Illustrator 29.2.1, SVG Export Plug-In . SVG Version: 2.1.0 Build 116)  -->
  <defs>
    <style>
      .st0 {
        fill: #fff;
      }

      .st1 {
        fill: #3852a3;
      }
    </style>
  </defs>
  <path class="st1" d="M75.01,18.53c2.46,0,4.84.37,7.07,1.07,1.12.35,2.2.78,3.24,1.28.69.33,1.37.7,2.02,1.1.16.1.33.2.49.3.16.1.32.21.48.31.32.21.63.43.93.66.15.11.3.23.45.35.15.12.3.24.45.36.29.24.58.49.86.75.28.25.55.51.82.78h0s0,.02,0,.02c1.48,1.48,2.76,3.15,3.81,4.97.38.66.73,1.35,1.05,2.05.08.18.16.35.23.53,1.2,2.85,1.87,5.97,1.87,9.26,0,2.31-.33,4.55-.95,6.67-4.42,15.97-22.84,29.01-22.84,29.01,0,0-18.4-13.03-22.83-28.99-.62-2.12-.95-4.37-.95-6.69,0-6.77,2.83-12.89,7.38-17.22.41-.39.84-.77,1.28-1.14.15-.12.3-.24.45-.36.15-.12.3-.23.45-.35.31-.23.62-.45.93-.66.16-.11.32-.21.48-.31.16-.1.32-.2.49-.3.16-.1.33-.2.49-.29.17-.1.33-.19.5-.28.17-.09.34-.18.51-.27.17-.09.34-.17.52-.26.52-.25,1.05-.48,1.59-.7.54-.21,1.09-.41,1.65-.58,2.23-.7,4.61-1.07,7.07-1.07"/>
  <path class="st0" d="M75.86,43.8c-.26.14-.57.14-.83,0l-8.22-3.94-.89,6.82c0,1.71,4.43,4.42,9.73,4.42s9.73-2.71,9.73-4.42l-.89-7.04-8.64,4.16ZM88.88,33.1l-13.06-6.15c-.24-.11-.52-.11-.75,0l-13.06,6.15c-.66.31-.68,1.24-.04,1.58l1.09.58.89.47-1.97,1.51-.04.02-1.32,6.32h2.65l.44-5.18,2.22-1.63,2.83,1.5,6.27,3.32c.26.14.57.14.83,0l6.27-3.32,5.69-3.02,1.09-.58c.65-.34.62-1.27-.04-1.58Z"/>
</svg>