<?xml version="1.0" encoding="UTF-8"?>
<svg id="Layer_1" xmlns="http://www.w3.org/2000/svg" version="1.1" viewBox="0 0 141.73 85.04">
  <!-- Generator: Adobe Illustrator 29.2.1, SVG Export Plug-In . SVG Version: 2.1.0 Build 116)  -->
  <defs>
    <style>
      .st0 {
        fill: #231f20;
      }

      .st1 {
        fill: #fff;
      }

      .st2 {
        fill: #818385;
      }

      .st3 {
        fill: none;
        stroke: #231f20;
        stroke-miterlimit: 22.93;
        stroke-width: .5px;
      }
    </style>
  </defs>
  <rect class="st1" x="20.16" y="24.41" width="108.5" height="44.04" rx="10.15" ry="10.15"/>
  <rect class="st3" x="20.16" y="24.41" width="108.5" height="44.04" rx="10.15" ry="10.15"/>
  <path class="st2" d="M35.32,49.75h-.71v7.21c0,.8.65,1.45,1.45,1.45h.19v2.82c0,.45.36.81.81.81h2.93c.45,0,.81-.36.81-.81v-2.82h7.97c-.09-.4-.61-2.36-2.27-4.3-2.5-2.89-6.25-4.36-11.17-4.36M38.85,54.94c-.66,0-1.2-.54-1.2-1.2s.54-1.2,1.2-1.2,1.2.54,1.2,1.2-.54,1.2-1.2,1.2ZM51.86,54.14c-1.65,1.93-2.16,3.87-2.25,4.26h8.17v2.82c0,.45.36.81.81.81h2.93c.45,0,.81-.36.81-.81v-2.82h.19c.8,0,1.45-.65,1.45-1.45v-7.21h-.91c-4.86,0-8.74,1.52-11.2,4.39ZM59.52,54.94c-.66,0-1.2-.54-1.2-1.2s.54-1.2,1.2-1.2,1.2.54,1.2,1.2-.54,1.2-1.2,1.2ZM64.11,37.74h-.14v-3.22c0-2.03-1.65-3.67-3.67-3.67h-22.02c-2.03,0-3.67,1.64-3.67,3.67v3.22h-.34c-.47,0-.85.38-.85.85v2.02c0,.47.38.85.85.85h.34v7.47h.71c3.57,0,8.51.81,11.82,4.68,1.07,1.25,1.69,2.49,2.04,3.39.35-.9.97-2.14,2.04-3.39,1.83-2.14,5.36-4.68,11.83-4.68h.91v-7.47h.14c.47,0,.85-.38.85-.85v-2.02c0-.47-.38-.85-.85-.85ZM54.11,32.94c0-.38.31-.69.69-.69h2.41c.38,0,.69.31.69.69v2.41c0,.38-.31.69-.69.69h-2.41c-.38,0-.69-.31-.69-.69v-2.41ZM43.74,32.78h7.37c.72,0,1.3.58,1.3,1.31s-.58,1.3-1.3,1.3h-7.37c-.72,0-1.3-.58-1.3-1.3s.58-1.31,1.3-1.31ZM36.72,45.75v-6.87c0-.63.51-1.14,1.14-1.14h9.04c.63,0,1.14.51,1.14,1.14v6.87c0,.63-.51,1.14-1.14,1.14h-9.04c-.63,0-1.14-.51-1.14-1.14ZM50.8,52.5h-3.22c-.23,0-.41-.19-.41-.41s.18-.42.41-.42h3.22c.23,0,.41.19.41.42s-.18.41-.41.41ZM52.41,50.44h-6.34c-.23,0-.42-.19-.42-.42s.19-.41.42-.41h6.34c.23,0,.42.18.42.41s-.19.42-.42.42ZM61.7,45.75c0,.63-.51,1.14-1.14,1.14h-9.04c-.63,0-1.14-.51-1.14-1.14v-6.87c0-.63.51-1.14,1.14-1.14h9.04c.63,0,1.14.51,1.14,1.14v6.87Z"/>
  <path class="st0" d="M88.43,55.01h12.12v-2.29h-8.57v-.03l3.07-3.38c2.67-2.98,5.19-5.73,5.19-9.63,0-3.18-2.06-5.5-6.02-5.5-3.64,0-6.25,1.78-6.25,5.16v.75h2.55v-.66c0-1.89,1.38-3.04,3.44-3.04,2.35,0,3.44,1.38,3.44,3.15,0,2.81-1.15,4.7-2.87,6.65l-6.11,7.05v1.78Z"/>
  <path class="st0" d="M110.5,53.12c-2.61,0-4.04-1.72-4.04-3.81v-9c0-2.15,1.49-3.87,4.04-3.87s3.98,1.72,3.98,3.75v9.06c0,2.15-1.4,3.87-3.98,3.87M110.5,55.39c3.53,0,6.79-2.09,6.79-6.02v-9.09c0-4.07-3.1-6.08-6.76-6.08s-6.91,2.03-6.91,6.08v9.14c0,4.1,3.3,5.96,6.88,5.96Z"/>
</svg>