<?xml version="1.0" encoding="UTF-8"?>
<svg id="Layer_1" xmlns="http://www.w3.org/2000/svg" version="1.1" viewBox="0 0 141.73 85.04">
  <!-- Generator: Adobe Illustrator 29.2.1, SVG Export Plug-In . SVG Version: 2.1.0 Build 116)  -->
  <defs>
    <style>
      .st0 {
        fill: #fff;
      }

      .st1 {
        fill: #818385;
      }

      .st2 {
        fill: none;
        stroke: #231f20;
        stroke-miterlimit: 22.93;
        stroke-width: .5px;
      }
    </style>
  </defs>
  <rect class="st0" x="20.16" y="22.88" width="108.5" height="44.04" rx="10.15" ry="10.15"/>
  <rect class="st2" x="20.16" y="22.88" width="108.5" height="44.04" rx="10.15" ry="10.15"/>
  <path class="st1" d="M35.32,48.22h-.71v7.21c0,.8.65,1.45,1.45,1.45h.19v2.82c0,.45.36.81.81.81h2.93c.45,0,.81-.36.81-.81v-2.82h7.97c-.09-.4-.61-2.36-2.27-4.3-2.5-2.89-6.25-4.36-11.17-4.36M38.86,53.41c-.66,0-1.2-.54-1.2-1.2s.54-1.2,1.2-1.2,1.2.54,1.2,1.2-.54,1.2-1.2,1.2ZM51.86,52.61c-1.65,1.93-2.16,3.87-2.25,4.26h8.17v2.82c0,.45.36.81.81.81h2.93c.45,0,.81-.36.81-.81v-2.82h.19c.8,0,1.45-.65,1.45-1.45v-7.21h-.91c-4.86,0-8.74,1.52-11.2,4.39ZM59.52,53.41c-.66,0-1.2-.54-1.2-1.2s.54-1.2,1.2-1.2,1.2.54,1.2,1.2-.54,1.2-1.2,1.2ZM64.11,36.2h-.14v-3.22c0-2.03-1.65-3.67-3.67-3.67h-22.02c-2.03,0-3.67,1.64-3.67,3.67v3.22h-.34c-.47,0-.85.38-.85.85v2.02c0,.47.38.85.85.85h.34v7.47h.71c3.57,0,8.51.81,11.82,4.68,1.07,1.25,1.69,2.49,2.04,3.39.35-.9.97-2.14,2.04-3.39,1.83-2.14,5.36-4.68,11.83-4.68h.91v-7.47h.14c.47,0,.85-.38.85-.85v-2.02c0-.47-.38-.85-.85-.85ZM54.11,31.41c0-.38.31-.69.69-.69h2.41c.38,0,.69.31.69.69v2.41c0,.38-.31.69-.69.69h-2.41c-.38,0-.69-.31-.69-.69v-2.41ZM43.74,31.25h7.37c.72,0,1.3.58,1.3,1.31s-.58,1.3-1.3,1.3h-7.37c-.72,0-1.3-.58-1.3-1.3s.58-1.31,1.3-1.31ZM36.72,44.21v-6.87c0-.63.51-1.14,1.14-1.14h9.04c.63,0,1.14.51,1.14,1.14v6.87c0,.63-.51,1.14-1.14,1.14h-9.04c-.63,0-1.14-.51-1.14-1.14ZM50.8,50.96h-3.22c-.23,0-.41-.19-.41-.41s.18-.42.41-.42h3.22c.23,0,.41.19.41.42s-.18.41-.41.41ZM52.41,48.91h-6.34c-.23,0-.42-.19-.42-.42s.19-.41.42-.41h6.34c.23,0,.42.18.42.41s-.19.42-.42.42ZM61.7,44.21c0,.63-.51,1.14-1.14,1.14h-9.04c-.63,0-1.14-.51-1.14-1.14v-6.87c0-.63.51-1.14,1.14-1.14h9.04c.63,0,1.14.51,1.14,1.14v6.87Z"/>
</svg>