<?xml version="1.0" encoding="UTF-8"?>
<svg id="Layer_1" xmlns="http://www.w3.org/2000/svg" version="1.1" viewBox="0 0 141.73 85.04">
  <!-- Generator: Adobe Illustrator 29.2.1, SVG Export Plug-In . SVG Version: 2.1.0 Build 116)  -->
  <defs>
    <style>
      .st0 {
        fill: #0095da;
      }

      .st1 {
        fill: #fff;
        fill-rule: evenodd;
      }
    </style>
  </defs>
  <path class="st0" d="M67.17,18.47c2.68,0,5.27.41,7.7,1.16,1.22.38,2.39.84,3.53,1.39.75.36,1.49.76,2.2,1.2.18.11.35.22.53.33.18.11.35.23.52.34.34.23.68.47,1.02.72.17.12.33.25.49.38.16.13.32.26.48.39.32.26.63.54.94.81.3.28.6.56.89.85h.01s.01.02.01.02c1.61,1.61,3,3.43,4.14,5.41.42.72.8,1.47,1.14,2.23.09.19.17.38.25.58,1.31,3.1,2.04,6.5,2.04,10.08,0,2.52-.36,4.95-1.03,7.26-4.81,17.38-24.86,31.58-24.86,31.58,0,0-20.03-14.19-24.85-31.56-.68-2.31-1.04-4.75-1.04-7.28,0-7.37,3.08-14.03,8.03-18.74.45-.43.91-.84,1.39-1.24.16-.13.32-.26.48-.39.16-.13.33-.25.49-.38.33-.25.67-.49,1.02-.72.17-.12.35-.23.52-.34.17-.11.35-.22.53-.33.18-.11.36-.21.54-.32.18-.1.36-.21.55-.31.18-.1.37-.2.55-.29.19-.1.37-.19.56-.28.57-.27,1.14-.53,1.73-.76.59-.23,1.19-.44,1.79-.63,2.43-.76,5.02-1.16,7.7-1.16"/>
  <path class="st1" d="M66.31,27.76h-6.36c-.31,6.38,4.64,5.25,5.81,3.45.7-1.07.6-2.09.55-3.45M59.95,26.48l6.29.06c.47-2.63-.96-2.7-3.19-2.7-2.35,0-3.31.09-3.1,2.64ZM60.84,34.61c1.7.97,3.33,1.4,4.61-.27l-.63-.87c-1.21.51-2.24.36-3.4.03l-.57,1.11ZM57.82,53.39h4.7c0-.64,0-1.29,0-1.94,0-.8-.13-1.44.56-1.5,1.09-.09.68,2.48.68,3.44h4.64s-.48-6.4-.48-6.4l-9.53-.06-.56,6.44ZM56.25,50.67c.45-.46.71-.75.63-1.57h-2.08c-.26,1.21.3,1.6,1.45,1.57ZM72.41,46.39c.29.61.6,1.37,1.58,1.04.96-.33.55-1.34.28-2.07l-1.86,1.03ZM74.19,49v2.83s2.96,0,2.96,0v-4.68c-2.01-.03-.72-.07-2.48,1.33-.58.46-.17-.11-.48.52ZM63.75,61.83c1.15-.29,2.09-.11,3.01-.37l.53-6.85h-3.54v7.22ZM59.51,61.51c1.17.19,1.85-.06,2.94.33l.06-6.96v-.27s-3.54,0-3.54,0l.53,6.9ZM58.45,64.03l3.96.07c.08-1.03-.56-1.31-1.64-1.31h-.57c-1.18,0-1.72.18-1.75,1.24ZM63.86,64.1h3.87c.09-1.06-.54-1.31-1.64-1.31h-.57c-1.13,0-1.76.18-1.66,1.31ZM58.07,65.32h10.12c1.52-1.11.83-2.44-.21-3.42.01-.67.36-6.72.62-7.15.39-.64.87-.3,1-1.43.15-1.32-.68-6.43-.5-9.62,1.23,1.08,1.88,3.6,3.28,4.69.73.57.28-.04.58.61v2.47c-.17.73-.88.28-1.68,1.03-.93.87-.75,2.92-.73,4.31.02,1.09.1,1.34,1.1,1.19.29-1.05-.12-3.65.35-4.4.58-.93,2.91-.55,4.13-.55,4.03,0,3.42-.4,3.42,5.83,0,5.08,1,5.23-3.99,5.23-1.36,0-3.37.34-3.73-.93-.31-1.11.57-3.97-1.06-3.21-.39.69-.35,2.65-.1,3.59.32,1.21.89,1.24,1.81,1.77h6.45c2.5-1.45,1.84-2.64,1.84-7.21,0-1.96.45-4.89-.92-5.8-1.99-1.31-1.24,1.26-1.45-4.65-.06-1.59-.68-1.74-2.25-1.75-.55-.23-.86-1.11-1.15-1.64-.9-1.63-4.5-8.24-5.22-9.01-1.7-1.82-2.81-.96-3.71-2.2.15-.66.88-1.13,1.25-2.21.35-1.01.22-1.99.28-3.08l1.6-.09c.24-1.33-.3-1.14-1.54-1.14-.63-3.31.19-2.44-2.42-3.92h-4.37c-2.62,1.64-1.82,1.48-2.24,3.91-.9.01-.99-.14-1.57.32-.12,1.15.6.91,1.63.92.05,1.41-.13,2.97.9,4.21.55.67.54.22.67,1.08-.1.67-1.43.95-2.46,1.37-1.02.41-1.74.58-2.51,1.29-.75.7-1.14,1.22-1.3,2.49-.08.62-.35,3.14.23,3.57,1.43.84.58-3.27,1.4-4.6.68-1.11,2.74-1.66,4.03-2.17,2.67,2.37,4.38,2.36,7.02-.07,1.47.32,2.01.66,2.56,1.62.74,1.31,3.95,6.78,4.27,7.74l-1.71.99c-.49-.4-1.23-1.82-1.64-2.45-1.25-1.95-.94-2.16-2.27-2.03l-.1,4.9h-9.3c-.44-3.16.79-5.21-1.24-4.91l-.17,7.01-2.28.04c.02-3.54.79-4.26-.89-4.18-.38.92-.4,4.23-.41,5.53-.02,2.15,1.06,2.92,3.23,2.63-.16,1.96-.32,1.85,1.03,2.86l.54,7.21c-1.12.99-1.73,2.34-.21,3.42Z"/>
  <path class="st1" d="M73.83,55.64c0,1.6-.26,5.62.3,6.38l.6.02c.55-.83.3-4.82.3-6.4s-1.21-1.47-1.21,0"/>
  <path class="st1" d="M76.44,54.62l-.14,1.02.02,5.32c0,1.47,1.21,1.66,1.21,0v-5.31c0-.83-.25-1.38-1.09-1.02"/>
</svg>